<svg width="800" height="277.59999999999997" xmlns="http://www.w3.org/2000/svg"><g transform="translate(0, 0)" id="single_state_map"><path d="M655.0989542200814,144.90672468527464L655.4607103384733,144.86747329468153L655.4823155292588,144.86690443232237L656.3255907959383,144.90018280220556L656.3748566116064,144.88880559962172L656.9541598067744,144.87818686044056L657.0126209112559,144.87894534234783L659.0331174212306,144.91592123514192L658.3434707603164,145.43659680865358L657.2623141196518,146.65337725224526L656.1484880382477,148.5633394572351L655.9009628247741,147.23657162786867ZM715.2244807342677,137.92303652531564L711.1422958107769,144.38932808726577L709.4629220881989,147.854876862551L708.3444609831658,150.60332092168937L707.2199444440366,152.52934338897285L706.4949370383401,153.38164746102166L705.9122697131197,153.82641414948284L704.8248333630208,154.46411297012264L704.0300015691091,153.04121182105564L703.3921625110152,152.3662573437141L701.267826520063,152.3245855011496L700.6015792526305,152.6069073655126L699.4941823975496,153.44158892924452L698.3526209328174,154.59505415958665L696.8922894559282,156.4118819024684L694.8412167416918,159.53352173706116L692.3621519262379,164.90216446243267L691.7053242229531,166.6011020034748L690.5393915049463,168.75998119085125L689.8763588506763,170.45788863236385L689.5172940363273,172.62455107339474L688.2401207512266,176.43961160547178L687.6728536658038,177.7923693625935L687.6074400258794,178.9661713779965L688.4047388484978,179.62469782664903L688.8011081272152,180.5521907980633L688.926104248304,181.20858785676864L687.9784661915292,182.39011778093936L685.9861536155558,185.69278312040933L683.5334785314071,190.40565805039114L683.584239515988,190.8583485305212L684.1730370337509,191.32419561382721L684.3217315821039,192.77569658016318L683.5500001478904,193.50543063622763L683.0497913881973,194.38044689816888L681.1609445009717,196.6972936769348L679.4545829795234,199.72440656733852L678.961476272164,200.92681822167606L679.0886403881768,201.10834266741404L679.0096207111474,201.88790417385417L678.3264780350046,203.27028796669902L676.1157212809057,206.07447064273583L675.1127619743665,206.86579521707426L674.967057763838,206.8614723068572L674.6778920961515,206.5086763308218L674.1337253704287,206.54504689522628L673.6451789282528,206.94952758693216L674.2146887670433,208.83610926181063L673.5782701194166,211.13074997723925L673.8370838581795,212.5259763251297L674.2478815169015,213.0609107544774L674.2820461265537,213.35113121459426L674.2092314005122,213.6391803929364L673.196777771379,215.24023107193307L673.4941668680849,215.8955670673331L673.4727111941902,216.24583065354182L671.2609078218538,218.7509493935795L667.7226653487478,222.03346649434707L667.0723416302335,222.92605669553723L666.2553065779703,223.68062464550894L665.5498858850297,224.04100379477723L664.5249475954752,224.3704290815449L664.2422859125572,224.14487659399356L665.0648530897979,223.51074134415785L664.1454737254699,222.22129577923852L662.8731597393353,223.01447505684973L662.623989840059,223.44839352760846L661.3737295953833,223.72768872607048L662.7702921181508,225.00729962448077L663.0786707063653,226.36034274901158L661.7938720598104,227.06890982996265L660.4063553089636,226.7145882679033L659.9438995643104,225.45834264432187L660.7880719323384,223.6270912183436L660.8199190301739,222.66576464728587L660.2159455479505,219.99506296967365L658.6786128720641,217.04896886266988L658.1218867274765,216.47923624258237L657.6002970523341,215.48849997946581L657.5474428312746,214.18398191772394L657.7898844704441,213.02767219417774L657.5289027367589,212.67067646153873L656.6522104448859,210.6021505752842L656.8083808378015,209.51589948578885L657.4181854787848,208.39763057088066L656.8225101840244,207.6278078031869L657.1835934764058,204.92548257099816L657.5120820864922,203.5977663631652L658.7435779613161,201.73630600031265L659.540203957923,200.15533427351602L660.0748763610518,196.7625128044051L659.840508634009,195.70895713111577L659.9512258919822,193.98494245979373L660.3349609933894,192.97164936727677L661.5022393634172,190.8353661945389L661.3064469943183,190.10158742945896L661.3191559300758,189.4955735681997L661.6451027530111,187.76683322215695L662.3173306960953,185.7176674296602L663.0391982470737,184.51991590694297L663.2648939944229,182.90320280377L662.9767749449747,182.27072890552336L662.9746069500516,181.76118154117194L664.2025891779294,178.32966290629884L665.336674798099,176.21044556259176L667.7683427590264,172.62568428739496L668.4096207056191,171.90955095358458L668.3317224052753,171.33039555818914L668.4190402697686,170.07851212106198L669.0988188158599,168.61390337916782L670.1217386273811,168.15259496981116L670.711881797165,167.68086105074053L671.2286121733432,166.49940232980316L671.1788978069999,165.91299360566563L671.4417485018266,165.3178387107764L671.6743967846196,164.96947568179712L672.6204649140363,164.22911120132494L673.3018133874857,163.00347554274867L672.6227076674049,161.66762660204813L672.1741569936403,160.23843490295758L674.0226343202266,159.02790071709205L674.6805086417489,158.80715312188613L675.7265288129693,159.01758733278757L677.7831336521822,158.8232386944369L678.322665354277,157.88595575575482L679.2688082421391,157.54876809970938L679.7647557704322,156.92677836500798L679.9219727815862,155.877920676367L680.323649909943,154.93853824672306L680.7871522728337,154.75307029988608L681.7647684663052,153.60190378591142L682.1044708432364,152.51059152895095L681.933199244304,151.27939321711892L680.2853735857816,149.9264251467357L679.4731978324844,149.80288102452687L679.1730426732902,149.96792183778507L679.0090226435832,150.24124432902454L677.0392123597421,150.30699171109654L676.6095008142756,150.21130727531408L676.5318267892699,150.04854598127213L676.6918846213575,149.61471836262854L680.103037736897,146.56607872077848L680.6821914151733,147.23638207156318L681.4578850470034,147.10824082801264L683.2693569430048,145.17123915770708L683.6206468790078,145.3048198890724L684.3182179351597,145.6794769441599L684.9218923836015,145.52855476484046L684.8753178719762,143.65616522682694L685.1372714654553,143.37129944189928L685.3542204746655,142.7844619457087L685.6235003958163,142.45915740606006L685.8092751332006,142.44597419018464L685.9234312796734,142.62275998590349L686.0878251016093,142.7794354897419L686.1639291992569,142.81291351483515L686.2730765298738,142.7845567844638L686.3248841326931,142.70650405044807L686.3236879975639,142.6108100145957L685.960586227151,142.11202267489216L685.9515404552303,141.97335363413504L686.048801192991,141.76714709238513L686.1731244880693,141.66043707635936L686.4169865377071,141.5937543422965L686.5661296367334,141.47243376062352L686.6611476211265,141.05400855338803L700.7445174006698,139.52930880896383L701.2787412531243,139.47503544463962L703.519326627028,139.2451280176997ZM660.5505643505785,156.0634534034739L660.6927549141619,156.52622248412672L660.274406652431,157.00959364562686L659.9113048820172,158.86392556559986L659.5268221961551,158.9877825127778L658.7045540526979,158.25832904947538L658.494034269811,156.14580563636173L658.6030320835362,154.8913906599496L658.8122809728475,154.6810214428915L659.1339665643827,154.82597048900698L659.4732203906406,155.56477568778837L659.9157903887562,155.9275227657945ZM167.76367362173187,216.35648106502322L168.2982712664152,216.02912352665498L168.62294719577494,215.72549715145215L168.88183569298417,215.57372601408724L169.2233322726097,215.70400347743998L169.5598947948256,215.37924395952268L169.90939052813428,215.3426371841897L170.28699543699895,215.13209762134238L170.2514851753258,214.97768544864402L170.27122140497158,214.85668778279523L170.49856183812517,214.7022696056497L170.8186775023023,214.58821389664763L171.14365246544548,214.78074637658983L171.94252121542013,214.215806869895L172.04486552748585,214.0242917239966L172.023933162709,213.89088522103611L172.05735018790438,213.85877715823335L172.732942261041,213.45347075895188L172.92357629739126,213.4048361874634L173.003194041984,213.5884815829031L173.2840615222076,213.6373026657061L173.60305580969998,213.3825843512791L173.5957294820273,213.12165992329756L173.6613673972879,213.0628825285753L174.64548757552984,212.65302339111486L175.40817323782267,212.39733063109816L175.8609851429892,212.3977062423669L176.23612302314632,211.99663595773245L176.447988458056,211.86995274872197L177.45244293350697,211.6273795350512L177.80425617863057,211.6008960094664L178.77140618971316,211.17282584482928L181.19522451385092,210.39325463707974L181.373000097552,210.3441293817341L181.87313409880062,210.36798757894167L182.77472095306803,209.94388203737844L183.46190058527645,209.86826364989565L183.7904639538101,209.6938216281278L184.45431895098227,209.03321381647447L184.47069105057471,208.3965030997324L184.83753074326887,208.50445764658116L185.2391331131803,208.2720103882134L185.75877906873757,208.18096489690106L186.1820613878799,207.77279608792742L186.2988340799502,207.4485181132991L186.32215871498647,207.19855739348213L186.4010288751233,207.08165543716177L186.89540647605827,206.59419854924954L188.20420258365903,205.5062035901592L191.01183076764846,203.0522426807438L194.87415110254915,199.63861297269705L194.94464831677487,199.53823690573154L200.69289995952204,194.62926157237644L205.3312877184835,190.51991663332137L206.22248314880926,189.61408621174814L212.39685793163244,184.21672213506008L212.32344513802673,184.54414444703752L212.45023546181073,184.68649721798693L213.06482464331475,184.45976843092467L213.21307064099346,184.46184249038834L213.245366289505,184.55036654891865L213.2088094095934,184.64963661144566L213.1895964890673,184.96685775742299L213.2690647167683,185.0942135433661L213.50126444888792,185.13512527523608L214.0621023079866,184.7876507797023L214.2125163005885,184.86099327221882L214.2146842955126,184.9235883162669L213.94824519529539,185.18470922106553L213.93964797404806,185.41565645320907L213.9826340802838,185.5256600802545L214.2362147278527,185.78025484854788L214.22978550152857,185.93134838519745L214.10299517774456,186.2140155988086L214.1567465001517,186.49233603703078L214.22335627520442,186.56566075373303L214.3651730465608,186.61966420154977L214.60582048303513,186.56349306741595L214.736872038221,186.43833161164503L215.02902804373298,185.99176604000195L215.52968535410037,186.4404993365315L215.50389369035838,186.55048693549224L215.41911761301708,186.63738251992754L215.0895076262459,186.65217916650454L214.4262506966379,186.8857170200472L214.28465820061956,186.96808485739803L214.19920929726686,187.12198007447114L214.21984262826027,187.50335806001567L214.06696160695174,187.60023061848005L213.8254170691289,187.5554696312597L213.6278304973357,187.5861898341941L213.52944838289022,187.65554538192873L213.4599230284557,187.7961390413957L213.4384673545619,188.14836470837508L213.45319476834993,188.22204906788693L213.56024886248815,188.3294647826583L213.5642858185529,188.50735667602385L213.52070164475117,188.55550354976504L213.2254805429684,188.57990663395685L212.64438314510608,188.3929711971573L212.21497063342122,188.73065740163065L211.7019034210789,189.23009046878315L211.58408411077016,189.22999625724697L211.49751383073271,189.1505754839559L211.09561242703967,189.12852970114773L210.78566391146796,189.20408803704504L210.55637975872924,189.38403043387643L210.28261433084026,189.97413384866695L210.35206492682846,190.62145732980343L210.60467371460345,191.46132547941352L210.99820217238812,192.02997152406988L211.15631628488973,192.082991331039L211.5209879826607,191.81035414772577L211.80783613853419,191.812614395737L212.35962822571037,192.34846105883798L212.3187353559524,192.45882722438273L212.59982711151133,192.7795573076055L213.1164079707978,192.67343361473058L213.81203530736275,192.89547230953258L214.08131522851272,193.41080487207864L214.2987875468425,193.43763917309388L214.42445649394267,193.38528865245917L214.5987931891459,193.38736008332626L214.83966490095827,193.5818835592945L214.86246622687395,193.7708467694806L214.67392542700145,194.17370657097672L214.47095624712438,194.46112670119373L214.74031092671976,195.3213400387708L215.07537828002205,195.76401999645395L215.74723243087738,196.12525937702094L215.67060502410823,196.4797039993391L215.5765588995091,196.54925437120255L215.4588891060912,196.55207778182103L215.2567422691136,196.69823479417528L215.20112198556762,197.0403225901896L215.38846665030997,197.3788178931918L215.3512369443879,197.77535525113035L214.99067696112616,198.21082431995865L214.75571116651827,199.0093339884388L214.8209005311055,199.21405102655217L214.96981935479562,199.28536190869545L215.05332453856136,199.62092732131805L214.96869797811087,199.76034173233393L215.24537898537892,200.32653160329755L215.26623659170946,200.33960639350698L215.50680926973746,200.52500243058103L215.37224406760924,200.89869562307877L215.51488318186603,201.0588706646431L215.5856046714307,201.21180010765556L215.89002106202588,201.29578762358824L215.9543133252655,201.39049575134914L215.98660897377704,201.57990819520774L216.2558141364807,201.96135100175252L216.6091973089624,201.96200929252973L216.64388522773334,202.00902990358009L216.68963739645733,202.01937439598805L216.91241756442741,202.4844847308509L216.95525415377324,202.5469234137754L217.02657371090118,202.58068144764638L217.05819653340131,202.57927094806837L217.21892719150037,202.5534117392217L217.27895822333994,202.62017532141863L217.54038850769848,202.7365869309433L217.54307981174225,202.81416226111105L217.8015945167217,203.59550988869842L217.83987084088312,203.59033879865729L217.8916036852579,203.59127899712894L217.89377168018018,203.6506052675254L217.96815633357983,203.77057255794625L218.0352146593068,203.7678460512475L218.4205196880721,203.67175952234766L218.47808369120594,203.71228149577746L218.6184052936478,203.71792258733512L218.93156842238204,203.67269970998177L219.02763302501353,203.58544976459234L219.09401852473002,203.61563009392057L219.12167914961174,203.88978568395987L219.5051899756818,204.24440463493556L219.54638187922228,204.40901623716945L219.73193234126938,204.6578535650392L219.93789185897458,204.6417785812373L220.47301281277578,205.12335419011788L220.4983559258444,205.28785131801624L220.21546996758843,205.4509346902596L220.0871097164454,205.6492615582224L220.06812107125734,205.7090405082322L220.10280899002828,205.76966487032405L220.13712311657127,205.81055077436577L220.3411389146886,206.0695833273321L220.52108249331468,206.1525732437999L220.78961483000785,205.96676094666282L220.90713510653495,205.98292690452672L220.96806323972214,206.5271905691643L220.94316867732778,206.5611175501158L220.9067613143061,206.6063219448256L220.97980031568477,207.09255634439887L220.93711324323158,207.4130918871483L220.97509053361136,207.75616440065915L221.24437045476134,207.98862861694852L221.479261490922,208.04293807218392L221.75138223300746,207.9548964096589L221.81545022090995,207.95771526322596L222.0806931859961,207.88376696600972L222.4043972555628,207.97086989835043L222.48109942077735,208.0536495763904L222.40776138561614,208.18979701860826L222.40155643462913,208.3141032634676L223.10465961575665,208.52334247627414L223.51134555997032,208.53508674791146L223.72986449653854,208.49243146009485L223.99002388732424,208.3772421065487L224.18910562803012,208.1997566319833L224.29189849076738,208.197595584988L224.437826976633,208.18143469088636L224.57613010104342,207.9515137838921L224.73364614598086,207.9238889462399L225.45730789965546,208.0251794899891L225.49319195355656,208.14732756640433L225.45401852804753,208.2741714124627L225.47001683541203,208.32246543429983L225.7788439742999,208.06483086610024L226.24025310071193,208.2373399523276L226.52134485627084,208.48143875611777L226.52224195762028,208.7245896186446L226.67407636068765,208.86748852424944L226.86635508284235,208.96388023812688L226.87106486491757,208.96763817307556L227.38293594212973,209.02316142922382L227.5804477554766,208.94020520204322L227.68204448308552,208.92902529634466L227.7612884354503,208.9127721246041L227.83784108377313,208.88252045693116L227.95237102247393,208.92564313651746L228.1459206382042,209.04317224209444L228.13851955208702,209.2375466286876L228.13971568721627,209.31364147780323L228.15339648276677,209.41829404422242L228.34171300730213,209.63341878378606L228.4987057431208,209.73731511420738L228.55769015672013,209.83557371163806L228.6199639419283,209.87662398341035L228.89163613333767,209.95196047570562L229.00728744872413,210.020720763373L229.05244154988395,210.23366675864963L229.05692705662022,210.5347109240888L229.2391133886149,210.81630008082675L229.33973825642897,210.84851587101048L229.39117206702213,210.91726744582775L229.20195844113914,211.5231352978126L229.20831290901697,211.68682623688937L229.14319830287513,211.8445970527805L229.16472873521525,211.99954710934435L229.57290984834162,212.3999599095623L229.96337320985458,212.41282457939906L230.3465850021421,212.25356395404788L230.4978213376471,212.18792424549065L230.73032010354837,212.19064750730377L230.9924979723637,212.44493920060722L231.2396493936085,212.77020890711674L231.27837426844417,213.29132292445047L232.53252195229015,214.28368084761814L232.81966914194527,214.71841561521887L233.4473410514347,214.76206598006775L233.68454959941118,214.91723380880467L233.6495626468577,214.95046350077473L233.7051829304046,215.46193703000563L233.846401634195,215.65106681444604L234.05393107925738,215.76060021682042L234.08331114838802,215.85295611411493L242.87378297750183,215.36676013175702L243.0436341659679,215.22765313387617L243.12123343252915,215.26970466019247L243.1528562550302,215.30931546780948L243.21064453350027,215.29636219490658L243.39896105803564,215.19968122141245L243.72430981340676,214.7032083281456L244.0261096584054,214.09930243985536L244.08397269532088,214.04334959067728L244.93375194676992,213.79427894297123L245.35329634363188,213.56867139368023L245.85634592425868,213.46567629395076L246.74918604038885,212.93518554837328L246.85840812945025,212.81912953014398L246.9380258740439,212.30530526953135L246.92546645517814,211.81726914544242L247.04119252901,211.51411950785314L247.09442054229567,211.28703051002412L247.16753430212066,211.05561387711623L247.49019175344802,210.54410367169976L247.5723512851937,210.55593851593358L247.57250080208541,210.62253262748982L247.52226312662242,210.6809545900328L247.55216650487273,210.86025628286097L247.72463423893714,211.07308309157725L247.98262563479693,211.20766973329637L248.63511734823442,211.24110467790615L248.89041744005317,211.19254882163796L249.16799554866702,210.81630008082675L250.23883552383631,210.36808150869274L250.39635156877375,210.1193511566562L250.4057711329233,209.9921646594753L250.35261787808213,209.83942512026124L250.47895965119187,209.7512179432024L250.83002531185866,209.70114884321856L251.21361089637412,209.4584073194187L251.27214675930009,209.36521641006175L252.42604336756085,209.16586641090134L252.79265878491788,209.32388133944687L253.6361583269345,209.1172963091576L254.01518364626554,208.44874240739364L254.1658966726509,208.101569264948L254.1545333889162,208.02527345085673L254.19437964043482,207.90932478770037L254.60046751708433,206.92020727396903L254.50358057154972,206.71373996007924L254.7177635182734,206.44439301509783L255.01754488523966,206.32174559352416L255.11981443885907,206.17766739812123L255.07944487821987,206.00285233659542L254.9788947688503,205.8667567575003L254.9904075694767,205.60085527691444L255.30895330629573,205.05793026796528L255.76909153913311,204.7296735137429L255.87412715524079,204.6759966314703L255.94268064987955,204.71256463932605L256.00966421716385,204.83035182010735L256.06849911387144,204.85253657614066L256.3651406261215,204.9237905332584L256.575211858335,204.86654301759518L256.7915627999819,204.85084452093406L256.92949213216525,204.7022240907454L257.0263043192517,204.33371466096332L257.3041067032036,204.0089967980598L257.2718858131375,203.83243577195117L257.1796338912336,203.7270423424893L257.1710366699863,203.6086726462613L257.2674003064012,203.5526367368493L257.3449995729625,203.3569776676527L257.4000965473897,203.22318172855648L257.7110169227544,203.05769624561208L260.85468431983827,206.6640252635534L267.9568114128997,212.71828319265842L269.4766506125079,211.95400153564833L271.46694471044884,210.54842433141403L272.2984081427194,210.08797744735875L272.90133500670527,209.85304593881074L274.13933486629685,209.49767489540136L276.3677346135628,208.62096026943618L277.6966407430382,208.2317024670092L278.50463002337983,208.0662402711123L282.004895206107,207.51655100472226L283.1452605357099,207.15081952909304L284.1530043827688,206.9694502942998L284.7421756927597,206.80076333194438L285.0832984801573,206.6431619030077L286.31113119114434,206.38621799004068L286.3472395203826,206.54579873954526L286.11795536764294,206.97414903785375L286.18157480487116,207.2145325910733L286.2694907369296,207.28237979272808L286.7372543312222,207.40444673339562L287.2854580130088,207.33735246335618L288.68045060841814,206.98833922442782L289.41016779618803,206.57427478422278L289.93474780915767,206.33048605491786L290.2396127504262,206.25426510837315L290.8213082158545,206.02117992498188L292.2210853517836,205.19056347934657L293.7485499128452,203.88358063397618L294.5796395528869,202.97438788168847L294.853629256113,202.79103079728247L296.0400457882215,202.190526525103L293.5134346013474,198.7079864746397L295.04501087691824,196.0829055351801L294.91837007002596,195.86162610428846L294.8646187476197,195.59657107635712L294.86656246720577,195.32068112804382L295.0165279091343,194.87665542237346L295.28461169515504,194.41311432758994L295.37402279612434,194.54491221677836L295.4759185575158,194.64997219728775L295.76254243805215,194.66409304301715L295.9499618612399,194.74316925626454L296.2738154476983,194.99432448780317L296.4316305264183,194.97916882238997L296.6215917367572,194.7517357927727L296.9201769685942,194.7812008333417L297.01227937360727,194.9038606848867L298.86681213428983,196.48968014353613L299.08136887324054,196.60600470763802L299.26161148564915,196.80853286469528L299.20359893184195,197.06930753353254L299.2787311696975,197.37740635351793L299.70350865775254,197.5972267281113L299.8214774849539,197.5907338443535L300.46081171195965,197.60381370552614L300.9190062252119,197.70553467571335L300.98359752223405,197.8743449632084L300.9792615323868,198.07608395403622L301.0605239627839,198.22973669327257L301.4738634086589,198.68935763891022L301.482610146797,198.73188399996025L301.97354885923323,199.79646485512149L302.7357859708518,199.55949756018936L303.57038925783763,199.07330870092983L303.8092424916176,199.06756981658373L304.36895897403065,198.83838694742053L304.85122570677413,198.6348821249071L305.4487699626752,198.30077525452134L306.0555842658341,198.0706265386143L306.82380205310255,197.70261762854534L307.8325925183999,197.03157061959337L308.36584451106137,196.76044236518555L309.83148383759,195.8583318025294L309.8957013423833,195.85786118786655L310.4507828011674,195.54113039443791L310.68238446572195,195.35955675554987L311.2577254632715,195.1117091901683L311.92651451785514,194.6105278183286L311.88113614136,194.50838562009176L311.8942188693445,194.4315661804576L312.1176718633251,194.25693063784774L312.2690577157209,194.17238853486242L312.7176083894856,194.05913065374034L312.99428939675363,194.06110773959517L313.0351822665116,193.8104841491695L313.43252340502204,193.48339848225442L314.6733640855482,192.84970918163117L315.33325688510286,192.35373456683692L315.4182572377813,192.17895334155264L315.7459982634109,191.8627163737574L317.2081987014408,190.9283311654085L317.57115095496283,190.6269205168578L318.27432889453576,190.27010898385106L318.8125897030541,190.1634764734622L319.1901198534724,190.1793018950848L319.6638641234149,190.00230006403217L319.74437896935615,189.93466327699116L320.04513219611454,189.91167792565648L320.4090563094296,189.95529350793095L321.0326912628543,189.79882252984362L321.16202337379036,189.71592258897863L321.3128859170665,189.50621906210108L322.68918890107034,191.75959255338194L322.3678023433167,192.9809713486793L322.54819447261616,193.89512474323828L323.98849068607615,195.0362142009535L324.79446148838633,194.73544995071506L325.35567313971205,194.15901986891367L325.8001868574138,193.9921918482023L326.4238218108385,193.60739906697154L327.722301252943,192.50101451684168L329.429784151077,191.51726917692713L329.64927494744006,191.32965825569272L330.9459601868484,190.57115813257178L331.2619641365163,190.47564518478612L331.7371288169252,190.22244482811493L331.9242492063304,189.98411920881517L332.3936574864256,189.66363860152887L332.11944350786416,189.20408803704504L333.8425509211338,188.51922853850147L334.721037415703,188.36885013392794L335.0899703448749,188.2150764121875L335.57410603875815,187.8849038327303L336.00927495075666,187.69050559587777L336.4185774405669,187.50797555659756L336.38104870086227,187.41873483088875L337.1319225287443,186.99993852216494L338.4330185164463,184.62031767900226L337.740830068381,184.3386234415757L336.41745606388304,185.19875479996654L334.85051904352986,184.36322971341087L335.06111358486214,184.0070431719423L335.29323855853636,183.9099325403581L335.52760628557826,183.8753306610588L336.0348423391615,183.6206669036469L336.1896670800552,183.42087055160528L334.9852337625507,181.7162890526888L337.4987622214394,180.35287315599635L338.42890680193705,179.71979224519646L339.33333447713903,179.1850580814753L339.84034625538516,178.97513454510226L340.1873002015418,178.77463991467948L340.8705176361327,178.1501921871395L341.58132093715903,177.69309671808242L342.64700257957975,176.45697808452906L342.8436920500262,176.16193086867952L343.02326183642253,175.7294368075968L341.65488324765647,174.79441471821474L340.52281610551927,174.3525840399666L340.5199752845847,174.35437785326712L339.8612038617148,174.0948366232792L339.8604562772598,174.09304274359647L339.7454030294375,174.05291636759694L339.7421136578305,174.05433259654183L339.56613227682374,174.00712481095525L339.5491621096662,173.99796646374625L339.33258689268314,173.7316138350293L339.3347548876054,173.72660959453106L338.658265713123,172.96224074006477L337.6949283827662,170.44475816501108L337.6890224655608,170.42170893979073L337.4048656137311,169.68418816837539L337.5566252583558,169.48871845079202L338.08000913619344,169.24770405520576L338.98458632828624,168.166674680529L339.2101325587455,167.81816989524896L339.77710061038397,167.13263833943392L340.245312755349,166.9600635763568L340.6240390408975,166.46036665375095L340.68758371968124,166.33163244577008L340.70275968414353,166.08928056735112L340.08308692833816,165.7402942445683L339.89977921965965,165.284752058486L340.3000359375483,163.60677004538275L340.3748691416222,163.57953780985235L340.7328125792874,163.62738326428553L340.8697700516759,163.50966016491384L340.8221489218113,163.113453011194L340.75546438831225,162.95676060039796L341.0856724426476,162.45072510573527L341.4977409949479,162.34347984098804L342.19890045648845,161.7591817754601L342.31500032254826,161.50532130287138L342.53628532160565,161.45008367509126L342.9602404667585,161.50645631804719L343.27370262927525,161.65003425167288L343.32865008681165,161.7180388448137L343.3586282235083,161.6812464558143L343.4214253178352,161.5832585834014L343.4039318415589,161.1568629332305L343.20028983566954,161.03370655441995L343.0899463699234,161.04609796258137L342.5013731274976,160.23692127483218L342.38744125636094,160.17855174027363L342.4069532106687,159.95821891003516L342.5666372505302,159.5584044618131L343.2006636278975,158.52735285640847L343.32565974898716,158.55365853271087L343.3787382453829,158.52385173374978L343.77226670316577,158.26097864855637L344.1074088149144,157.94188398976758L344.15532897856065,157.6626168885473L344.3787072140958,157.15922653701L344.61942940901645,156.8500195537681L344.99195074357885,156.4475662087916L345.61020308891875,155.88132846477765L345.9549890401522,155.82434245109653L346.1326898654097,155.6910577327044L345.8213956978161,155.0227971971426L345.85825161151024,154.65962439865052L345.95147539320806,154.4628821302249L346.33296774124574,154.33932363601116L346.67954789517444,153.76770694915604L346.68276250833696,153.57093953764888L346.9127194870862,153.1001145302771L347.41771278730175,152.3419172295421L348.0434409772033,151.70715010446338L348.4083369503114,151.22710581076444L348.53056700891284,151.31766128784648L348.61923052542716,151.45813361891987L348.9319451034871,151.63213352142384L349.6807256948932,150.98006145945737L349.74733546994594,150.8666719926082L349.790396334628,150.63013013643285L349.8583517617035,150.54108146395038L350.302043136503,150.1802332355246L350.3468234454349,150.17047520055758L350.52684178250456,150.29467596624818L350.74109948767364,150.2013598081321L350.76105999265565,149.9303095506648L350.6395027600656,149.79416463876078L350.6498941840073,149.6429525601775L350.8056160262504,149.38921966161433L351.55805978149056,148.59271502979482L351.84872061809074,148.1934809308832L352.3247823998472,148.26919786607732L353.0431363038815,147.18548601654038L353.5014803340255,146.61878024521639L353.9038302883928,146.2298601511152L353.97313136748926,145.98415534984997L354.56708721799987,145.51490335117387L354.78291485052614,145.43934608474228L355.29448689395576,145.07292437809156L355.7277868448118,144.59706881471993L355.92462583215,144.53743050888033L356.83473514922025,143.547587598875L357.73692007105274,142.6953129427293L358.5609824172061,141.99858363786234L358.60508990012477,141.832974499599L358.5799710623951,141.6960072635061L358.6321524574432,141.5831305760139L358.8792291202417,141.37473073823912L359.3562627617912,141.19098842606627L359.58973338748547,140.89928635437263L359.8326983357747,140.41033779497047L359.8877205517574,140.19089743886298L359.8501170536065,139.95541591175152L359.91859578980075,139.75977612310453L360.28274417845296,139.24806951440996L360.57968472448556,139.15925474296682L360.6768707038018,138.92886242068153L360.6058501804555,138.78851673411782L360.6187833915483,138.68688533093973L361.0171711482981,137.88630817326202L361.1564461325024,137.74527709101312L361.2831616978401,137.72667520040523L361.39253330379415,137.65103332644458L361.5097545465378,137.41556069377293L361.62458351902114,137.0789946687155L361.50407290467047,136.82822055625593L361.4952514080869,136.70862032932837L361.6944079072373,136.29835693014365L361.9218230988363,135.97721067654447L362.5456823275981,134.4592781479987L362.5270674746371,133.98639929704086L362.95498481740924,132.87339270717712L363.0192770806498,132.77015515599942L363.3479152076279,132.50858782968453L363.8524599571683,131.8104568552717L364.15822199978356,131.5109513985899L364.39543054776004,131.33996247069354L364.4590499849901,131.23280726266466L364.4843930980578,131.09040607122006L364.6994731461282,130.87817632634415L364.95282951835907,130.55288412301798L365.05113687436005,130.3319921459488L364.8001727723886,130.13760139073884L364.45052752218817,130.0881002358219L364.17489313315946,129.98919188029095L364.10753577364903,129.90747978361424L363.66713377045653,128.01015840783157L363.82382747249267,127.74898189344322L364.49635444935757,127.63730407238154L364.8492143127196,127.23211233635902L364.8704457112781,126.78868397789029L364.8752302517978,126.74191560428608L365.11228928288256,126.23723436874434L365.1318012371921,126.21555953563666L365.29073769259594,126.17667775734253L365.62438463543185,125.8043903286316L365.90682204301265,124.593652489531L365.8932907643539,124.54002296072531L365.8180090096066,124.50769290245898L365.6795563683054,124.51045047213529L365.6056202655791,124.31646703282922L365.6268516641376,124.10422010871662L365.76620140678733,123.83481310581055L365.7768918645115,123.59801538702095L365.4476556699683,123.41161470393126L365.43494673421174,123.37129063118755L365.7440729068803,123.05144775143663L365.8103836481532,122.99010242520808L365.79767471239666,122.81015300158242L365.9422575462404,122.60661049412556L366.2000994252094,122.65397746196822L366.5642478138616,122.55134862233945L367.13719654115084,122.1665007130191L367.5491155765585,121.51746135549047L367.5918026490117,121.27687423143425L367.6176690711991,121.18354815075782L367.6481705170145,121.06234604248311L367.9132639652098,120.80471316485136L368.0352697484741,120.74829523260632L368.19816840149633,120.75638214824721L368.58295012114195,120.45687454710878L369.7388652074342,119.22664534018122L370.23698073065134,118.54811308350827L370.73322729272604,118.3335954998588L371.0232153033148,117.69837888781376L371.11576625900307,117.59567657035996L371.28217855896946,117.54694240733988L371.6923781501273,117.57721093178725L371.869555666266,117.51857744350673L371.94080046494855,117.42272584973216L371.9512666473365,117.22683037955812L372.0305105997013,116.97971622977502L372.18668099261777,116.7765734123268L372.6052535296858,116.70032192112876L372.92469636785154,116.910796842119L373.0283863319373,116.91489013984301L373.21333872642026,116.79332768479799L373.38408701623393,116.59750959131134L373.32024330366767,116.39978195497952L373.3210656465699,116.26459659182592L373.4336518656846,115.96860758330786L373.5992418227488,115.75658065286507L374.0219260743279,115.87159202605426L374.40012905075673,115.65442076817999L374.6228344602814,115.22757987655905L375.23293813504824,115.06599615888854L375.3218259268988,114.9661113480729L375.4267120261147,114.52856269240692L375.2585802818985,113.77919035833702L374.8356717549841,112.9162021127272L374.6562514854768,112.74237233001895L374.2876923485337,112.74046732188526L374.24522955141674,112.30144419442922L374.1943938083914,112.11664417188558L373.93154311356375,111.82400227565722L373.73918963296455,111.50553055853288L373.7362740535855,111.34643210036347L373.844150490625,111.08710328884717L374.18938499253363,110.6590274952041L374.52400379516257,110.35155495535992L374.63300160888775,110.15984218784797L374.7532879479022,109.74828970390217L375.5440827857501,109.04328591437388L376.0449643714537,108.97362023811866L376.5071210823244,108.60002486874191L376.74515197320125,107.9982269704692L377.00703080823496,107.13747141115209L376.94273854499534,106.8970507401691L377.15437970456696,106.59970685341887L377.6631856855083,106.49941356104L377.81763663417405,106.51790882150772L378.67399462883714,106.84242584383219L378.9349016040778,106.82974670485919L379.38457365452814,106.57930510402912L379.5745348648661,106.25134347320636L379.7775040447459,106.09288665989652L379.94877564367835,106.05446367157538L380.02951476495673,105.95950172076118L380.0576239405127,105.90239044040027L380.0421489422679,105.68309398736119L379.96843711487963,105.2345633652476L379.90220113205305,105.15170024474492L379.69153183227445,105.10249681625055L379.60152266373916,104.99197853397663L379.7363121412054,104.326828964593L380.00133083095534,103.68603140484902L380.27771280443994,103.45264384861139L380.67303546491803,102.30371257042634L381.0065328908631,101.97249484284885L381.3010064081891,101.5413728217145L381.2879236802037,101.30180653473235L381.47526834494874,100.95203052987745L382.74309682434523,99.4530212069526L382.72560334806803,99.31702644687903L382.64927497508324,99.20908764262367L382.5950003435564,98.97612111839635L382.61585794988696,98.67814917599662L382.7528901807227,98.39629518119L382.60830734687806,98.03634905079298L382.7963995960763,97.72554511058706L382.85299173941803,97.63600500992379L382.84103038811645,97.02561216006188L382.8023802717271,96.84956763738228L382.6374631406734,96.36933654090626L382.3010501353492,95.8619546218365L382.051282168507,95.78451687035749L381.9994745656868,95.39320896884146L382.04552576819515,95.28043406643155L382.30276957959904,95.02317432705195L382.4063100267922,94.97838684943281L382.4628274116876,94.72054282449562L382.31046969949784,94.67823638251002L382.1985563063936,94.3802694263486L382.1527293792242,94.1272738948478L382.3819387735175,93.45782711620495L382.5488743826045,93.24367445017333L382.6215395917552,93.2155914921027L382.84252555702915,93.27147073458673L383.24405316849425,92.7810551971811L383.34632272211275,92.4766055285586L383.34871499237397,92.12189082100394L383.4384251271267,91.89260145040043L383.9094033345791,91.91170918985244L384.1785337388392,92.16965847798429L384.27915860665325,91.86718807469879L384.27915860665325,91.85839846425779L384.3056230964057,91.75884578814203L384.3953332311585,91.67285863186726L384.5373742778511,91.58687040070845L384.70184285823234,91.55820741811749L384.80650468211024,91.4244452534108L384.7392220810452,91.11869339423856L384.45513998766,90.58359493219996L384.23086465077813,90.33514220719417L384.0962994486481,90.27780568817889L383.9916376247702,90.16313121591338L384.3056230964057,89.63751541339752L384.4476641430974,89.24566658144477L384.2382657368962,88.75830927430479L384.2681691151465,88.17523199441894L384.58215458678296,87.08541396318651L384.76905070085013,87.12365611819814L385.01575357142247,86.94200398633666L384.91109174754365,86.57868531513031L384.84380914647863,86.47351053518787L385.008277726859,85.96673675395914L385.0979878616117,85.92848815895468L385.25243881027836,85.62402174810086L385.77828971682266,84.15935352615998L391.55741659761406,86.87498269758407L391.96858804856583,86.9323476070108L392.7759792613433,87.15224199006525L393.74043796838396,87.82144247177803L394.061899284583,87.95527474886967L394.1665611084618,88.04130840800826L394.42821566815655,88.49057779912528L394.4431673572826,88.6339554661613L394.54035333659795,88.81556288471165L395.3179159295705,89.66609083257117L396.94024895813345,93.12465541287656L398.6694118054993,96.99143467089925L406.61892587974853,99.8533551147184L410.95685944573233,101.31974328737942L411.86853869015977,101.03236799622664L412.0422025593525,100.88447763639851L412.19515833910737,100.72313040548624L412.48664151860794,100.58019516798959L412.5826313627931,100.47237156562824L412.73939982327556,100.45300130612941L412.8558734815633,100.4916463510981L412.95014388149957,100.61626321779386L413.14765569484643,100.72637456205848L413.3586240284085,100.47208530603348L413.3938352562982,100.14640960446968L413.35010156560656,100.02216594676611L413.32632837989695,99.89257608943763L413.18510967610655,99.66974836213421L413.17068129610016,99.49291249414728L413.1632802099821,99.43317091101108L413.20342549528505,99.39203862540262L413.7787664928346,98.98556972961524L413.96304606130707,98.88640638651759L414.3106728334742,98.79611782804432L414.46669370949894,98.46683134662771L414.61254743691916,98.27688792897152L414.64738487258,98.19823645800898L414.7821743500481,97.86453042405083L415.2809626992748,97.11353726757625L415.3832322528933,97.12604335346487L415.81122435411,97.36699587249996L416.16266380700563,97.28356081165884L416.22149870371413,97.00795062957786L416.20878976795757,96.31319600772576L416.3556901136162,95.78719044472837L416.77815008985635,95.48449703735469L416.98657663626545,95.38614268712445L417.43146414619696,95.15409724429264L417.78342690821046,94.76074802839776L417.7501593999059,94.35515175049613L417.9250194042297,94.10645316138016L418.2132132121242,93.93262623129931L418.55867198936903,93.58381301528198L418.60091051114796,93.45792263330077L418.60225616316893,93.45295574247757L418.6250574890855,93.32964197674528L418.76186544458324,92.89520840926434L418.761043101681,92.86597772530013L418.8301946638876,92.57041605605446L418.5311608813763,92.19784124003218L418.91242895407686,90.5641012736719L419.24136611483846,90.24875500273583L419.57777912016263,89.39820356198834L419.8395084383046,88.8534130898679L420.1759214436288,88.37558674905767L420.5422378272051,87.98366597544282L420.7814648532112,87.18063653436275L421.09545032484766,86.6452314352L421.22829608272787,86.56931526369954L421.2558819491651,86.54856724720094L421.5215734649246,86.39663631393523L421.5440009986123,86.29145874709775L421.46924255298563,86.06197483023152L421.5290493094881,85.8230165549553L421.7383729572439,85.3926985786984L422.08226180713064,84.96235364237282L422.44117710458795,84.08245340040185L422.4710804828401,83.92941576201292L422.4187495709011,83.87202576826303L422.40372312332966,83.2311382505768L422.76263842078697,82.72422081009881L422.6729282860342,82.46591671970646L422.6880294920511,82.27390438102566L422.99438960223233,81.37519226925042L423.3145800248549,80.89454874515422L423.33199874268666,80.8775155678054L423.63731223462946,80.05470533194648L423.86158757151134,79.78673001057405L424.01858030733,79.71016371034693L424.05932366019624,79.45768027995155L424.1070195485072,79.2906609250158L424.1689195414865,79.16479551483462L424.17445166646394,79.1320605582182L424.3176140898404,78.94445369991672L424.5045102039094,78.25524159480437L424.6016961832247,78.08292774538631L425.162459283878,77.62340297684341L425.31197617513226,77.58520359408294L425.96237465209197,77.63297672363115L426.3511185693542,77.96804944022688L427.35295649920863,77.65212417710609L427.3679081883356,77.33628009855693L427.49499754590124,76.71393181694566L427.7342245719092,76.28304221522558L427.99587913160667,75.06682988467674L427.906168996853,74.84654787309273L427.71927288278494,74.72213329476699L427.5174250795899,74.4922620804141L427.40409127601833,73.8511679853782L427.38285987745985,73.76102877445965L427.3679081883356,73.55354123773395L427.8314105512254,72.24103216234016L427.77907963928646,71.84828438707154L427.9136448414165,71.41708865136616L428.17529940111217,70.92836732131218L428.3472438260551,70.44919489201402L428.57899500750136,70.017911026217L428.7808428106955,69.73995813522743L428.86307710088477,69.50033451401532L428.87802879001174,69.2224564573703L429.45374357978835,68.56102486691498L429.74530151773615,68.34053346166411L429.99948023286925,68.00498942852892L430.0219825250033,67.88994197166448L430.0592869893726,67.40096869489753L430.14152127956186,66.97908131087343L430.28356232625447,66.844838958948L430.4480309066357,66.81607239789855L430.47045844032345,66.69141590195932L430.44055506207314,66.2982536089462L430.3807483055698,66.18317744258275L430.2387072588772,66.04891946776979L430.14152127956186,65.81875680709936L430.1938521915017,65.55981455369829L430.6424028652673,65.08026596711943L430.8218231347719,64.94598633547275L431.82366106462814,65.0514919823504L432.11521900257503,65.0514919823504L432.2647358938302,64.94598633547275L432.57872136546484,64.32251063793319L432.5488179872136,63.938900949614435L432.47405954158694,63.83337813017124L432.50396291983907,63.30573959484582L432.8403759251614,62.47102817477435L433.04977433136446,62.269530831087195L433.4086148703773,62.23114971096538L433.70764865288675,62.048836446084806L433.81231047676556,61.91449724324184L433.8422138550168,61.83773079851426L433.8272621658898,61.68419532134794L433.9169723006444,61.319534733569526L434.1262959484002,60.68613060127109L434.3758396399053,60.344259904872615L434.38712816519546,60.25902950888258L434.28328868421886,59.83190170584203L434.43886100956934,59.64558882897745L434.7509027616188,59.38170887968272L444.0748508587312,67.73865162107768L444.32686157894204,67.35101475134707L444.4929000866805,66.89402949801706L445.65143171857017,64.67118443955951L446.62299247794635,63.086325907268474L446.8415861729609,62.80914655691413L447.2157521933259,62.11619696637945L447.6714049194261,61.216850476841955L448.12376827391836,60.19836938998742L448.43573526752243,59.42836136976575L448.6422180943455,58.798717860198394L449.5369271716163,57.02908850785661L449.8810402968393,56.74225224051952L449.995570235541,56.50380501500058L450.1486007737403,56.01910629758686L450.2985662156698,55.820876018493436L450.80894212396925,55.32998157863631L451.28776996821307,55.191283813051086L452.31255874087583,54.53934732608741L452.4476472521246,54.28247473101419L452.6541300789486,54.039906649381464L452.643514379668,53.86179374112953L452.95308910301173,53.050235537919434L453.8199880385082,51.96884049923392L454.7693455395329,51.6181718504381L454.9308237820878,51.62643665208816L455.051259637994,51.57271526223121L455.3479759086913,51.29766280108197L455.45308628324256,51.12841641009845L455.26290079756564,52.04312343064748L455.2273905358925,52.29748588858138L455.2489957266789,52.41519858527636L455.2528084074056,52.4635322713234L455.2755349748768,52.643699552980706L455.167209987163,53.6444781646378L455.2486966928973,54.02271040641699L455.33564076516086,54.152017405257084L455.44546092178825,54.177475032235634L455.52096695187265,54.12617541502823L455.786060400068,53.75774828805788L456.40648074033015,53.12690871706127L456.92552862832235,53.091262521717454L457.36884621089393,52.457766839692795L457.6068771017717,52.20936819686631L458.10394600674954,52.10750772284473L458.1907405621223,52.15814986573196L458.92165388502326,51.342544585905216L459.22704213541147,50.82355086507914L459.2799711149164,50.59489275640226L459.56427748363785,50.19859153264133L459.79101984922727,50.03777682235932L460.0905769408555,49.42341622645654L460.29175191804006,48.75900618790956L460.7225848401904,48.04164747238656L461.3330623071852,48.16847191464012L461.7780245755612,47.40691286325227L461.77944498602665,47.191122315009125L461.8995070497049,46.94080055863196L461.99616971990145,46.817703887935295L462.28630724738287,46.653347129485155L462.6764715751124,46.65084664494407L462.71676637730616,46.77711996653261L462.711682803003,47.15698370074142L462.8093173329935,47.470090887468814L463.1355631897113,47.300076240601356L463.36940760763446,47.272765799843L463.5798526320759,47.88732038283297L464.0817808360189,48.38153935348964L464.1009189980987,48.196259517229464L464.2881889043965,47.90626289922602L464.5034184693586,47.84414663336156L464.7093032286157,47.67817996132544L465.0499774653399,47.03764145355626L465.481782247286,46.38011567509102L465.55257849529426,46.09331183565382L465.6659122988658,45.884693404227164L466.413721030478,44.828037592660166L467.0679321881644,44.11084181196247L467.24069895601133,43.834718120442176L467.5756915508673,43.522309618701L467.76991399260714,43.4020376618887L467.908516150801,43.23933037518282L467.3917110161783,42.91910029314204L467.22275692905987,42.62435597973217L466.9495895687369,42.44421212933912L466.81659429396586,42.48203118586798L466.7594788415063,42.44661792800116L466.306143627221,41.89884373007044L467.1960681639712,40.976997608391684L467.4389583538141,40.69266111313436L467.6247330911983,40.35277003330839L468.11283098270087,39.774117160879996L468.2664595884653,39.679483332871314L468.6748649769288,39.14236567353282L469.31188169212146,38.57545303361485L469.6970372039941,38.4115710384599L469.9832872923025,38.138008328473916L470.42623108264524,37.51140134056686L470.4885796262979,37.27285756940864L470.44940620078887,37.10374354912392L470.77654915885614,36.807494949103784L471.0734149464424,36.446123510761026L471.35360960065464,36.17951306956638L471.9815805439257,35.44917032693684L472.0431815031234,35.25534949176017L472.8563291162136,34.64071204985521L473.294189332255,34.40264551747214L473.3768721731185,34.44551930523767L473.52220259141814,34.63136681928563L473.68420414309367,34.56643156305836L473.90459204080435,34.38144938756568L473.9592404645573,34.27151748872757L474.1736476866172,34.11215643143578L474.6814818077655,34.06465570710361L476.2095444363922,32.25350290373308L476.33349393924254,31.937380947215843L476.41670008922574,31.333527806216807L477.11673817408155,30.269786660027876L478.1148381816547,29.72131883207112L478.21531353257797,29.564839742532513L478.88081321555546,28.850080658803563L478.63642785679895,28.517214217215496L478.2621870779867,28.340649516319445L477.18992669235104,27.373560416193868L477.0118520748656,26.94388094222404L477.34116302785606,26.46748840534974L477.29533610068574,26.35704235005187L476.85119617521286,26.074793861448597L476.4164010554432,26.033217646594494L476.26770650709113,25.899033737681748L476.38717050320247,25.733398318738182L476.7552063310268,25.255762978082657L476.8271987141661,25.156681505972756L476.9291692340021,25.034154215610215L477.0706122131305,24.880075415153897L477.365384764239,24.54836476676701L477.81976659676366,24.022013349648205L478.73966927020956,22.702626181366213L478.7848981298157,22.04341533211118L478.8421630991661,21.733766768148143L479.1819402345418,21.47700254405663L479.17326825485,21.45238741712592L478.4756971986999,20.63810718457171L478.06340437106337,20.332159636562665L477.9520890455233,20.363343941899984L477.76788423549806,20.300106268971376L477.70523665806195,20.163877763336586L478.09532622734605,19.542656466913286L478.9491424348589,18.42626519311125L479.021658127117,18.302360575806233L478.9871197252369,18.255618104229598L479.2557268203773,17.860225683988574L479.6527689251043,17.700285107192485L479.9956111567526,17.16094069795463L480.114551843747,16.88352474848216L480.1109634383556,16.691683805811408L480.2121863737357,16.5508424294826L481.046490626939,15.560812866680408L481.2800360110796,15.313862532949315L481.6061323509066,15.076565295679757L481.7972149379302,14.384336357410575L482.0303865298429,14.314278530005595L482.1449164685446,14.339982589623105L482.2267769665059,14.174450598978183L483.1716489607925,12.277839187076097L483.2345208135657,12.09263396661072L483.07199595277234,11.928690245512371L483.08881660303814,11.862763641863694L483.3672170545551,11.542691471488524L483.4547591943856,11.537277858285961L483.5449178798117,11.654636286443747L483.6962289737612,11.359786279985201L483.7206002270359,11.23565541172593L483.606817872791,10.887322733809015L482.9924529666241,10.766277031686059L481.978055617903,10.47235511650797L481.63416676801717,10.326743009008169L481.95076878524924,9.978846924091613L482.533510868916,9.134848872961356L483.4024282824457,7.4721696795973L482.8940708521777,7.080015212955459L482.9372812337515,6.655236111220347L482.300862586123,5.983815842277636L482.15366320668363,5.51591057560654L482.19597648690797,5.176668641627657L482.39969325124275,4.850763576395821L482.80271603162146,4.396618415497869L483.0181698719198,4.025383081084328L483.1404746889666,3.716940269708175L483.0489703515177,3.4013210213570346L482.65387196637585,2.828987539341597L483.06160452882887,2.4620219797393474L483.153333141614,2.2652210900532737L483.18959098774303,1.9750914464448215L483.09449824490457,1.7770177914508167L483.1222336282326,1.4846403731121427L483.2073834978037,1.2116142479389964L483.25821924083084,0.6321232203285945L482.9342908959261,0.3686489187780353L483.1128888225294,0L487.53163626823607,3.6068962292156357L489.41517530582223,5.003557727387033L491.9583828676259,7.237498826757019L493.70511394971436,8.79801314268525L495.05308348282324,9.872385980783747L497.2342358924525,11.863730312255484L498.52561328222237,12.796212823916449L500.9308915118436,14.853173640978639L506.6054313272007,19.495053539976197L521.9072890120278,32.23586599948521L522.3539707246528,31.497966244037798L522.3503823192623,31.23299284764107L522.2935659005852,30.971093731958263L522.3022378802789,30.7489969029225L522.4114599693394,30.30025043896103L522.6332682775173,30.023661302082928L523.0250025326059,29.08419593597864L523.1678659221998,28.839281077046508L523.3300917492115,28.74246977251596L523.564384717808,28.370832666440037L523.631069251308,28.197157175968186L523.6822040281168,27.82847980025508L523.6600007697662,27.695970923371988L524.1660406882183,26.402860801032602L524.1831603722676,26.26646559562596L524.1260449198071,25.751920360439726L524.1475753521481,25.647347336104758L524.4162572057339,25.103136387848735L524.4883991057641,24.73400123189049L524.8523232190792,24.240181566362025L525.2353107360286,23.38734608564664L525.4126377690582,23.114431494372184L525.6518647950661,22.88319822107087L526.1492327338256,22.16213593279099L526.4585831818322,20.94548896578499L526.210983209914,20.944233980605986L526.1895275360193,20.90880468764135L526.2050025342642,20.377632677774727L526.2340088111678,20.30860235709224L526.3303724475818,20.2661218098433L526.4045328256434,20.146402469590157L526.5148015329451,20.177008341106557L526.7899873712995,20.070321659433375L526.8704274587944,19.627529820373184L526.9116193623358,19.560905776079835L527.0973193412738,19.136717312824203L527.1213168023205,19.03213865282214L527.324211223754,18.512794273968666L527.3619642387948,18.453305649749836L527.518059873265,18.245767376869935L527.5214240033183,18.184827754527305L527.4992207449686,17.956902906807954L527.546393324159,17.663100312991446L527.7302243419572,17.09216733104222L527.9530045099273,16.53992661735765L528.879112134362,14.858101477681885L529.241840112546,14.543389088237745L529.8704838818276,14.270117567796206L529.9969751718309,14.154254065811983L530.0655286664696,14.015872368536748L530.3020643884356,14.062644152983921L530.9117942709736,13.973932104795495L531.6779188217652,14.256685620539429L532.0126123828395,14.27436940165353L532.4506968742162,14.132897857446551L532.8557381326264,13.770315190452493L533.293822624003,13.71948248382705L533.6306094215561,13.962722220644991L534.0201756817214,14.41371211313708L535.1514952394027,15.015114002039809L535.9525319843015,15.260819207131135L536.2650970454706,15.30516693428217L537.7723768262131,15.79403545655623L538.5228768618681,15.700708740985192L539.0467840488254,15.875091465637524L539.506772764772,15.932380764463232L539.8434848038787,15.868135564947352L540.571931098073,15.55192435698973L541.2036399636254,15.44352224430304L541.4611828088118,15.465647237332178L541.7143149057074,15.679937091784268L541.817780594456,15.872193174552194L541.7473581386748,16.588226537513947L541.8904458036059,17.394687645069098L542.4690761727634,18.059566616975644L542.6230785707567,18.38657346996024L543.012420555584,18.806366838230133L543.1311369672403,18.987429092643197L543.2081381662365,19.25037114305087L543.4060237718122,19.442525783747897L543.863545459054,19.692222105347355L544.7587778454426,20.008432958491994L544.8709155138849,20.06588036744779L544.9719889323733,20.187435546483357L545.8098068325207,20.631735429642504L546.6935264182839,20.78475243230332L547.425635876315,21.11867468926448L547.5862917759687,21.25990369157762L547.874635100754,21.69032989570269L548.5918676281035,22.38094316407978L549.4144348053433,22.974495773779836L549.5706799567051,23.18864450677347L549.6035736727817,23.296729624290492L549.5839122015814,23.585945336194527L549.4388808170634,23.908343091501138L548.6741019182937,24.568530304696196L548.412671633936,24.899757561062415L548.2393067985249,25.515567592381103L548.3077855347192,26.19952097580017L548.1321779459404,26.62770433130845L548.0399260240365,26.755700727410385L547.4885824875319,27.09357259536546L546.0538931574947,27.44222944905414L545.6450392183579,27.78614282053468L545.2118140259463,28.518371371035755L544.8532725207169,29.466592554431372L544.5804041941756,30.681518127725212L544.4002363402133,30.895423536859198L544.44165251909,31.755315003860687L544.6038035876572,32.67031803785267L544.9499351909117,33.3348563538666L545.2944968668098,33.55975931535977L546.4614014446106,34.0069413981123L546.8169526120146,34.094813406300545L547.5013661817356,34.45467210126935L547.8393491144179,34.805841116082775L548.1584929188002,35.319025833492105L548.5020827349053,36.07105510547126L548.7241900768649,36.66215890693093L549.234491226719,37.63861484106792L549.321734332766,37.744255127956876L549.5645497641635,37.88176800920792L549.9663764094121,38.00261911935786L551.1196749501078,38.18143630143368L552.1827400469319,38.54088600861087L552.7621180005453,38.583541114365744L553.5722752758111,38.77023830301596L553.9751485392972,38.74250846209543L554.986181757964,39.01181049948309L555.4027358170006,38.93276370707008L555.7786960400617,39.07824375537666L556.3431223045491,39.09846244351138L556.9282566584761,39.01017372991146L557.6303132213643,38.997753524428845L558.3796918803355,38.91514413840423L558.7367382166522,39.03260706679521L558.848950643539,39.10789781072799L558.8716772110092,39.2504857963072L559.5818824444714,39.53931117301818L560.2772107472538,39.95327281468553L560.5911962188893,39.972526231082156L561.3163531414757,40.21318933576731L561.9069448619339,40.50197381725866L563.2824255030346,41.697122370632314L563.932973496886,41.90712033746513L564.7329636235463,42.089973048029606L565.248796898376,42.388301128766216L565.4282171678815,42.580763914994805L565.5328789917603,43.042652387105136L565.3609345668165,43.55261781644003L564.9946181832429,43.87974532671069L564.7030602452951,44.74559518864635L564.9049080484883,45.39010078974843L565.1889901418745,45.582478694693236L565.2562727429377,45.717139993338606L565.1441350744972,46.33270058218068L566.2655117589102,47.2558409646831L566.4550244185757,46.9488786998395L566.5048883018098,46.90896874226837L566.6251746408243,46.91464270230517L566.7445638784911,47.05447066424449L567.0006863132121,47.5405764845591L567.259873844202,47.736643769555485L568.007458300478,47.91933993564089L568.1719268808583,47.823184669660805L568.5980500209353,47.967417059560375L568.6802843111254,48.0635702893037L569.0540765392634,48.16933727421747L569.7418542390369,48.10203120112237L570.1380740008617,47.97703244362128L570.9679675057732,48.10203120112237L571.259525443721,48.11164639514209L571.3417597339121,48.04433975194979L571.4613732469152,48.05395502741521L572.5242140684022,48.26337235974097L572.7413873529504,48.343176168537866L572.8593561801499,48.4193254372276L573.5247063462357,49.2749847038458L573.9583053308752,50.0344124573453L574.2797666470733,50.745698398148306L574.8554814368517,51.29343409520061L575.004998328106,51.47603491441214L575.1021843074222,51.81239204004896L575.3414113334311,52.16795152735722L575.8721962973859,52.75410371053931L576.0889957897061,53.34981331371682L576.2534643700856,53.52275151572121L576.8141527122925,54.02232613233491L577.0758072719891,54.1856406660454L577.6738748370099,54.40658939918694L578.5785267875481,54.52186415783444L578.7205678342407,54.60831894835019L578.7878504353048,54.66595486659389L579.07193252869,55.684109135107065L579.4640405760065,56.50447725006188L579.6924276273985,56.50995116167087L579.7746619175896,56.59638076296051L579.9989372544715,56.970896386580534L579.9839855653463,57.16294770868035L580.1484541457266,57.40300426188196L580.3577777934834,57.34539145913868L580.4101087054232,57.18215254365714L580.3353502597956,56.9997044294264L580.4250603945484,56.970896386580534L580.5820531303661,57.08612782835917L580.7839009335603,57.354993626699525L580.8960386020026,57.652654121076466L580.9109902911277,57.87349061618124L580.8810869128765,58.01751056829835L581.4493258580915,59.34235159285254L581.3670915679013,60.187043548604834L580.701666643371,60.33101471043392L580.5147705293011,60.33101471043392L580.4549637727996,60.49417835844224L580.4624396173622,60.85888300774832L580.567101441241,61.00284000909005L580.634384042306,60.945257572615446L580.739045866183,60.95485467907156L580.88856275744,61.09880965788943L580.9708718060747,61.44428923040823L580.896113360448,62.135100013003466L580.9708718060747,62.69161297772416L581.1428162310185,62.75877527050852L580.9110650495722,64.11147521373232L580.9334925832618,65.00353507196314L580.8662099821977,65.04190062718226L580.8213549148204,65.15699600116704L580.7465964691919,66.74894995162231L580.6867897126904,69.79746655599956L580.7540723137545,70.14250693417534L580.7241689355042,71.42657524968035L580.6568863344392,72.001496067076L580.4176593084312,72.40391192150446L579.8419445186537,72.82546507580764L578.935647882312,72.85909240318051L578.4468024063535,72.76165892388326L578.3760809167898,72.67112214766348L577.8757973986494,72.86378680327016L576.9561937589851,73.4481665829253L576.4179329504668,73.90797136351557L576.1413267016451,73.93670813763674L575.9020996756362,74.0803902002167L574.6984139425876,75.13387083053794L573.9134502634988,76.28304221522558L573.6592715483639,78.58071149770694L573.9583053308752,79.1167459049907L573.9358777971875,79.40388996318325L574.085469446888,79.99728292998407L572.0444891228099,79.86329545624267L570.743617410445,81.03081264183993L568.7176635339392,81.70060987328907L568.5457191089963,81.64320124346887L568.4858375940485,81.05951957836533L567.6485430030207,79.72930536551985L565.8318380158253,79.62402560108649L565.3758114974971,79.97814202252312L565.2113429171168,80.60976377431325L565.4954250105011,81.36571942924229L565.3534587222539,84.24514779937635L564.050643290303,84.98855763830443L563.985304408825,85.23012699394076L564.3197736945622,86.66339764909162L563.14060873168,88.40426300144145L563.1630362653677,89.12113043432782L562.6247754568494,90.4972108488073L562.056611270079,91.40495397799123L561.333472825525,92.24025846763652L560.6189316022173,93.48705528613755L559.7002998223461,96.04594933726412L559.4896305225675,97.79121983894856L559.9683836083659,100.75423607916719L560.59014960065,102.67507343641546L560.4793575842305,103.3152018750875L560.2814719786547,103.44673037108942L560.0990613713229,104.01926500908894L561.6847627615289,105.3332540458764L562.2777467522455,106.31722306318034L562.2624212708934,107.0981009546881L562.4230024120998,107.50428269367376L562.9140906414277,108.22688585017431L563.9859772348354,108.82532816863522L565.8716095088994,108.97466856403571L568.9097179807559,108.08906235486711L570.4118394287507,107.99136422760694L571.6564180315572,107.60255964117096L572.2171811322096,107.12088436969862L573.4856076791721,105.51251466701251L575.9905389168143,105.34679410644094L576.7420108122615,105.53177537159081L577.4787552939215,105.47628151270419L578.5892172452723,104.56104521714542L579.6301538421912,102.81519901603815L579.9736688998482,102.54019153015588L580.5650829632086,102.40044193507492L581.960075558618,103.71264109058711L582.9348509311558,104.87964666257267L582.5532090662282,108.01214306699694L582.2530539070322,109.19624297086102L581.5252056804038,110.87807070395093L581.8525729138064,111.72959594743952L583.9932062459047,114.07632063460778L584.547540120233,114.46790359908255L585.2116193927432,114.44133531999569L586.6486262345952,116.12931338318367L586.9741245068572,117.39569298544211L587.0024579577494,118.0469271962902L586.6318055843294,118.64156986284888L586.3194647984974,118.69400789006295L586.2610036940159,118.91831634635173L586.6365901248491,120.16582218987469L588.5187835104143,121.27811096004507L590.0298012134372,121.52859151841176L590.4850801473103,121.78334369131926L593.1434904738253,124.14834366036212L595.8704542949799,124.97855579699899L596.9560216839373,124.96305738607407L598.5488251264778,124.5495317726909L599.6345420323269,124.43437918221571L601.7430292328063,124.6833193741254L602.5321793848507,125.10805650197108L603.0271550533498,125.59542146521244L603.2354320828681,125.9912970879227L603.3356084000088,126.59153223284011L604.6226497999332,127.43513888143161L605.9439305679543,126.32973190816756L606.1495910518752,125.71616402441441L607.376003352395,125.64210249924145L608.8536040302242,126.48430366532011L610.4742923729818,126.42612576994452L610.8080888327095,126.11944794620877L611.5188173752913,125.9698116231657L612.6803393450055,126.39408969432998L613.4135701797213,128.2775975305649L613.652348655055,130.05332570089104L615.2551697293093,131.4986973321802L617.9720411603057,133.19876615367366L618.512993272866,133.9052090276573L619.5270915878036,136.46314865561635L619.9612138815628,137.98406020583798L621.7964589632738,138.87078868698563L623.4901115489656,139.2197931397236L623.793032770649,139.5346222624321L623.9985437376781,140.64030158373725L626.6192010491513,142.68288889528503L627.4555985388324,143.65113940019864L629.3140934971325,144.41786791543473L631.6486502371899,145.02589965341622L632.8719226829935,145.4984078572952L638.6918676750975,148.90712066311607L640.8802716539521,151.0109424819084L640.2562629082995,153.5923399196122L639.7863313190846,156.323285594975L638.6874569268048,157.80655771375223L638.0055851442376,158.25473316340003L637.6044313249995,158.26107327707632L637.4513260283547,158.11799349063085L637.496704404849,157.74334146412275L637.2784845020633,157.34207528194747L636.6339919423071,157.3033670184618L635.5905883166852,158.28444648227605L635.3793957077878,159.940338440068L635.6648234531931,160.5271534735948L635.2447557472115,164.13267180280582L635.7823437297193,166.0809625692309L635.1886869129912,166.98595951305697L635.9403830837755,168.4851142690195L636.1449221910134,169.34586811255804L635.9596707627479,169.9471047596826L635.2469237421346,170.35794531927968L635.0165182127112,170.3514272276052L634.2953234877414,171.08226590696904L633.167667093896,173.0671516398579L633.7156465003454,174.02544146949185L635.6666924143328,174.3853446631374L636.7080775619243,174.9430070725184L637.0500974506713,175.35147822072622L637.6864413398525,176.63007422771443L637.6174392945386,177.05571779513411L635.4640970266828,176.2839720565412L631.4909846753617,177.37158337384108L630.0865725158028,175.8015524664629L629.4176339443275,175.4878817074068L628.7312018965758,175.64740906413908L625.4404846369425,173.40888022101262L623.262173048247,172.1411241603182L621.9775239185838,172.10060884555242L621.8113358939536,172.3449249193527L621.3803534549106,173.9084595129284L621.0844595271174,174.2194629306182L620.4366775957542,174.35522755414104L618.4659702105673,172.3487024493179L618.379997998095,171.84287307338764L618.5591192338179,170.08729771584467L618.4151344675402,169.01253932748568L618.2041661339799,168.4890828609714L616.6771501235917,166.278134273854L615.4876684952114,163.47353910590573L614.8969272578634,162.3957786631986L614.1832831359015,162.021450445553L614.0259913663012,162.1319162380696L613.5710862246578,162.0325160188254L612.5747804197799,161.27320682826576L609.8788413535594,159.80883516570157L609.3638304216311,158.80819395417257L607.7269942546163,157.0253994218815L606.788775761991,157.2983510175177L606.126490692177,157.30715267716369L604.5902046345309,155.9817628152332L604.2146182036977,155.45325935931487L603.7760851616467,154.53057800231863L603.3762022359851,153.2651720457834L602.6916391493742,152.27164296035926L601.334100535224,151.94867528963505L599.9206426037435,152.8678152682878L600.0546097383085,153.47245905799355L601.2879745742712,155.6261183756792L602.4189203397245,157.16859623191021L603.6816652448197,159.57978650432733L604.4625919678456,160.5406809516503L605.0879463655192,160.78946836270734L607.0111073792868,160.85407596459982L607.4595085361607,161.21342711751686L607.5996058632672,161.5230086017209L607.4918041846722,161.74385960889094L607.489636189749,162.71571032174916L607.6727943815367,163.26985822966572L607.9658474883963,163.6052571461919L608.9463045028015,164.0036111160939L610.7349003144409,164.0930556254716L612.2489083552891,164.67413344087845L612.4236188427212,164.90556785423314L612.1200995534737,165.31906764056248L612.2294711594268,165.952599481343L613.239009209181,166.56244495957435L613.930749106572,167.27600636175612L614.0256923325187,167.68048304607737L613.8664568433333,168.0460985229388L613.8817823246854,168.6321396501644L615.248142435421,171.59938953450956L614.9826004365514,172.4986687444225L615.6624537410889,173.93442419962776L618.0085980402173,176.75918569172336L618.6731258634009,177.16755112396595L619.1657092616406,177.2822138260667L626.0221053439254,177.14140965310798L627.1600784032662,178.47393441118447L627.8681156418052,180.06563073152483L629.930925432006,180.8918572872676L631.8262763040011,180.83120713039625L633.7097405831419,181.17614202254845L636.1391657906988,181.95970475824606L636.3024382359499,182.3461723486448L635.9434481800463,182.9441272887707L633.8624720875587,184.34937101917694L633.1604155246696,184.16656568597227L632.4873652386859,184.33456952645793L631.6289887659905,185.9661286586088L631.7109240223972,186.5141073373229L632.2118056081026,187.3163940202703L633.9467996142266,188.25804293742613L635.6302102928676,188.01607013689681L636.3189598524332,187.1326291596879L636.4156972810761,186.72060147140928L636.2653580469187,186.5846986657266L636.325538595649,186.32579749773913L636.6284598173315,186.22447755508847L637.0345476939801,186.44888748306448L637.5671268606311,187.04234702361055L638.7622901308778,189.5351408093852L639.7073116420561,192.74603482314615L639.8539129539313,195.13627783396396L640.1407611098048,196.80825053395165L640.2404888762712,198.43457044322895L640.0029812945131,199.535696911757L639.2690776337868,200.76936784931695L638.9603252533452,200.8854337567691L638.7779146460143,201.203993826417L638.1767819847237,203.2939820036495L638.2427936922131,204.51430548486223L637.9776254855715,205.66392436634942L637.4540920908421,204.80450085125767L636.7985352811338,204.330894361618L635.5084287849395,203.8400511149448L635.2490917370578,203.0199913403385L633.3482834985325,200.58181485320029L631.1597300027861,199.5959039303416L629.6375732913639,198.6018579038473L629.3142430140242,198.1104279369656L629.125776972598,197.57821855879592L629.1880507578053,197.3779709694213L627.5402250992829,196.99543333566726L627.2746831004142,197.40319043365525L628.1136223772455,200.03417673062995L627.575137293391,200.2277644198607L626.5246316154326,199.01337946537978L625.8687757719426,199.10153265438248L625.285061828482,200.3517405296543L626.0601573927488,201.47438709328026L628.1965294934462,203.50553238182874L629.5883822341402,205.87953932672235L629.7503837858158,207.15410856552126L630.0888900276177,207.97801097574256L630.9894302636467,208.544482151181L632.2209261384678,208.63627458439032L632.4502102912074,209.0469301349117L631.4932274287303,209.39800246474078L629.2132443539822,209.89146589946904L627.3902596573535,209.9875618556266L627.0469688750327,210.80963148786032L626.4955505800835,210.98695756804636L622.9979019429538,211.24683368345904L622.4810968083311,210.8441014711152L621.6989739501751,211.34760707199985L620.9261211392777,212.81387128361484L621.6461944875628,213.6070711887328L623.3065048065046,214.48880087921725L629.1127690030589,213.63129393521785L629.4371458986361,213.8349307249723L629.1525404961321,214.6734507645333L628.9692327874536,215.89012339155397L629.4751979474604,216.6018954463584L629.3280733264664,217.87960218183935L628.6995790740748,219.7198420485638L629.0661197329864,219.97348843668487L630.0661634601465,220.1476774656776L630.5239841811699,219.66656014530463L631.6875993873618,218.94046050307725L632.5123345595248,218.74578936678427L632.9178243686092,219.16308267733712L632.7934263150846,219.3251900013979L632.8568214769775,219.71093049050978L633.1499493422816,220.51236309579826L633.6068729619574,221.22517180695195L633.8712188256968,221.4592575698175L634.3293385805018,221.34971839877653L635.3210093617517,221.7623571458089L636.7222816665935,222.87636190497278L638.0590374328604,225.88283306576568L638.2983392173146,226.82001507052473L636.6834820333133,231.44778784309574L636.1236160340086,233.909915271076L635.830562927149,234.6093991720909L635.2492412539486,234.70366322580048L635.0279562548913,234.58084824414118L635.0566634980123,233.86497819475926L634.7994196866075,233.44218130608078L633.1098040569805,233.3111054241317L632.5565915593361,234.10679249154146L631.9360964606285,234.46252448903397L630.6501764373897,234.89312364481202L629.917543670238,235.36113666096162L628.9456091186357,236.39065700353513L628.0335560819785,237.62588495750606L627.7943290559715,238.21535005655414L627.2559934890069,238.1030747508721L626.5158848772935,237.55102875575858L624.7778257748996,234.91034706919254L624.7521836280494,234.30750241512897L624.9443128333132,234.2826948253828L625.0684118530535,234.0171077760515L623.8543346960623,232.15931270825558L620.2795353430456,229.6014055589535L619.8344983162242,229.55522346409953L619.2341132393894,228.843625304964L619.1070238818229,228.34707569791863L619.2116857057017,228.17842831567305L619.2393463305843,227.45451080794555L618.4415241988472,226.87642948135226L617.0815933144358,227.63385732751158L616.3973292616074,227.47943593472655L616.1198259114371,227.20206869390768L615.2550202124185,225.68760249050183L612.3579061690143,223.55780655118042L611.8698830359581,222.8317300606027L612.0588723865039,221.4199624624266L612.4452240335077,221.19938063550126L613.3877785159793,219.74216779745302L613.2227118680339,219.1192717863205L612.9021476531825,219.0892513192539L612.5062269251393,217.96639455578452L612.2765689801727,216.72924479837866L611.981123603051,216.11058891490939L611.4895120646052,215.35972036955445L610.6509465800009,214.490115130287L609.9942683936088,214.02898578458917L607.0564857557838,213.8457273484055L606.3255724328828,214.20313323351274L603.9327041052366,214.6956046723626L603.6808429019184,215.5969095707751L603.2562149307532,216.42583612470798L603.028949256046,216.68560655306283L602.4734940050321,216.9214375708948L601.9281311441791,216.77504120553067L600.7329678739325,215.42326570290516L600.2261056125781,215.1158586880165L599.5866218686806,213.715603468685L598.8395607215234,212.86664136632908L597.7366493731806,212.2856792978364L596.6693230449564,212.106883250568L593.6097588992034,212.106883250568L593.1828134162242,211.25772817302777L593.0048883156305,211.12370600174472L592.471262530742,211.12370600174472L591.4395212226354,211.88347574941508L590.3010996126204,212.6431639443208L589.8029840894033,213.13471106773886L589.4827936667807,213.89426500865238L589.5183786869002,214.47509510352165L590.3366098742936,215.32386440550772L591.4039362025178,215.99383408151243L591.9731470075258,216.03850898779046L593.8587792815888,215.1451450610275L598.6942303032238,215.42495523131493L598.5316306839841,215.85014040333363L598.58298973613,216.15094584553208L599.0020855823186,216.98656421269243L601.9928719580921,219.59695536574054L602.6856584737243,220.63195113699157L603.4595579028592,221.04313102466904L603.9798766844269,221.1152538717506L605.1031223299815,220.86765091793177L606.4906390808283,218.39414814632664L606.7753940002231,217.29220098993937L606.8507505134166,216.3928010523955L607.3220277546525,216.0999834508125L608.4978285874813,217.53392341363178L608.954752207158,218.44368670572248L608.9176720181267,218.71088872330165L608.5887348573642,219.11017184566617L608.3794112096084,219.86364490527785L608.3705897130249,221.4280278244164L608.7478208296607,221.79199118665156L609.469090313075,224.44879892499785L609.378184043192,225.67260616097974L608.665287505687,227.59928146989523L608.5026131280028,228.72061539930473L608.6126575599656,229.58248311418174L609.0456584770409,230.45473672916933L609.6855907716126,231.0706451803867L610.2825369599486,231.3463630639135L612.8160259238202,231.40480189446498L614.7323091605913,232.04759733947003L615.4021448334142,232.62741192662224L616.4942162071402,234.38304801427648L617.3671705767329,234.83705362131514L619.3402702321819,236.2515868614496L619.4809656268517,236.50876154580146L619.3934234870221,236.76789214396103L619.6278659725094,237.2478530928379L620.1992447724415,237.72787526620095L621.1717026331644,237.9940724486005L622.1283117034145,239.19534478130117L622.5134672152872,242.46956116471756L622.5338015124989,243.9894357898579L622.4415495905932,244.44460588846732L623.4474244765115,245.6916175909787L624.585397535855,245.58142272598116L624.6902088766246,245.305320570425L624.6415411285207,244.7716859595048L625.1295642615778,243.7919900677939L625.5637613137824,243.5212412153037L626.3401277716248,243.66933163991644L628.1128747927905,244.33196123816424L629.6035581986025,244.13536635539413L629.73064755617,241.91944304337767L632.1305431777055,241.9661995909937L632.7432633980688,241.79937082438164L632.8109945498072,242.28731527625132L633.6710904667516,242.4762001009476L633.9921032322763,242.36829324448172L633.8499874271383,240.47919118398295L634.1041661422723,238.53345381325744L634.4481297506036,238.5615211098475L634.963738750097,238.91665641819463L636.1974773782886,237.96272813014684L636.3246414943014,237.71945410336593L637.2665979092089,237.66331276335768L638.5450420878851,238.05629285120858L641.0121455520393,239.87120532464496L642.0065076373312,240.39501161995713L644.3764251221701,241.15259190897496L648.1444002986891,241.93814569921688L651.4374350701364,243.2687137722055L652.0020856099618,243.2846080252425L654.2299620481072,242.5085531383461L655.3588145770827,241.51732407599002L656.0764956551066,241.10592354923256L657.5493117924161,241.218151553594L658.0128141553068,241.3770446815929L658.8576593493435,242.03165824255439L659.2090240437929,243.07891495497643L660.6594126474129,249.48804884566607L661.1602942331174,252.2730265166656L662.3490282770408,257.0616149742432L664.4274625823773,263.5067138359582L666.7301722245966,269.2193403596043L667.986188869585,273.5870869177638L668.5170485919862,276.6679640754992L667.5676163325161,276.6679640754992L667.5003337314511,276.6679640754992L667.104039211179,276.6679640754992L667.0591841438036,276.6679640754992L666.6554885374144,276.6679640754992L666.5583025581,276.67727014287584L666.491019957035,276.6679640754992L665.795766412698,276.67727014287584L665.6985804333817,276.67727014287584L665.3770443587382,276.67727014287584L665.1976240892318,276.67727014287584L664.4051845655804,276.67727014287584L662.1025496818056,276.68666925870684L662.0576946144301,276.68666925870684L661.8856754310409,276.68666925870684L661.7436343843483,276.68666925870684L656.5776762745945,276.68666925870684L655.9795339511284,276.6773632034892L635.1619981479016,276.6868553796867L623.7947522148988,276.64963108754046L618.0817865584868,276.7090968023026L615.554278270266,276.6688946827776L603.3811362933975,276.646467013823L602.5327026939694,276.7026756455143L600.1689901601176,276.6768048397935L598.241567914949,276.68173705094114L590.1064286202063,276.54335467325564L590.0247923975803,276.6690808042199L590.0001968689703,277.1060806677001L590.0951400949152,277.31368352375193L576.7123317093483,277.238217647508L574.4882679519287,277.29777154912745L572.4040772462786,277.28921070611204L571.521254761863,277.07965298046247L571.1355011824253,276.9879928198843L569.6018316703758,277.0951001615531L568.48187539643,277.2424050473305L527.7721638299536,277.15502746578704L518.3844467787212,277.2263068080192L517.8553812590162,277.22788871752346L516.5535376868575,277.2347746724927L506.14962908420966,277.280370694481L506.11359551341775,277.27823047950596L499.1243536732536,277.3140557332649L499.09355319365386,277.3107058469691L490.710215859428,277.2582240913266L490.61908531420886,277.2647378052143L484.84541579994766,277.31424183801437L476.4409965840541,277.42059991415636L476.07722198763076,277.4186458429467L474.8982065416394,277.4384656834509L473.86489530617473,277.4531676894867L473.8477008636801,277.45400514462335L470.9363827156085,277.569573018322L469.4593801053443,277.5773891359895L469.21335006078516,277.5752490093787L463.80898726792384,277.56706069298207L459.47202556173306,277.48154805919694L458.9686021888774,277.47931485383606L452.3643663436951,277.49634302720506L451.8382164033692,277.50797427L449.53042318684675,277.50927696802273L440.6907603005093,277.4851770164305L440.625197143695,277.484990916103L438.6374448329034,277.47205693162414L438.6191290137249,277.4752206422072L436.5017455582156,277.4682418670136L436.4092693609755,277.47112642824777L424.9770583387208,277.5227691836608L424.87673250468833,277.5260259215761L423.9902468564378,277.50685767150844L418.7010868282887,277.5224900346293L418.6417286224605,277.52034989168396L415.6319536014953,277.5626873838164L400.9832604561152,277.55533649646577L400.96277664201443,277.5574766290001L396.1269518281515,277.5999999999999L384.4511777900425,277.50378702476064L384.4151442192506,277.50378702476064L367.9717998281358,277.40459512481857L366.67100287421727,277.44181551025576L362.01228081804584,277.43837263268415L361.9725093249717,277.43586026152707L357.50509413116197,277.43651161709477L350.4094710228692,277.4224609338612L346.86950910551514,277.37184102633273L346.71244161125014,277.3691425286156L342.6925304729666,277.31991803052915L342.47909511070065,277.30884479835004L337.47177442256816,277.29898123264593L327.27756325990504,276.71775139586225L327.20108537002943,276.7100274042614L326.64249026430025,276.67950359725455L312.8355024582406,275.9556419432565L310.7003264926725,275.87997567436105L306.851612194876,275.5916361489276L304.94377666246055,275.5888439084897L301.70583886544046,275.77889993282724L299.4438725760883,275.7318052255132L296.96420969306837,275.8862114240428L296.92294303108247,275.8895619738778L292.13204804304223,275.6445023632855L288.9464411579611,275.52285364383897L288.82308972267583,275.51000920597653L284.5010049471657,275.4697073063521L283.93284076039527,275.3952459275861L280.38615058293453,275.1581743770316L280.16023056024824,275.1540788437883L278.56488533055654,275.12541004575723L275.4547097171135,274.94864762606994L274.18374138299896,274.9207226756753L271.9856935646594,274.7811893818098L271.57452211370764,274.69741225377993L266.1093807045527,274.576492210776L265.1758719940008,274.5114235398901L261.7961921840706,274.4090252971023L258.37143303142784,274.43704532486436L256.76397693354465,274.44169980394645L251.7249586644657,274.24164757399603L249.16807030711334,273.9066011452278L248.19942512711714,274.03646956401144L247.41864792098295,273.96255191299633L245.8336941152338,273.8973845876226L239.86034479270256,273.29232430814045L234.13377309918633,273.19009490667986L236.42399808098617,270.9737428093654L229.69274763668272,270.9308076801958L222.97928970243993,270.7598096948859L215.80980524986717,270.57371902570776L214.95008312514983,272.6224997545323L198.92000342146548,272.5754774758034L198.75867469580135,272.57966759233796L197.0201670427332,272.5858130921665L196.7760807177592,272.5708217878996L196.5149494671814,272.5559235663309L195.93549675512259,272.5325519190055L194.29036240064306,272.4773349362922L194.25238511026419,272.4691408116337L193.45187167448512,272.47342410523424L193.32239004665826,272.48208379971356L193.1526136166376,272.47994215581275L193.08256495308524,272.480035270778L187.8239063707524,272.4836667534887L175.1435283403007,272.5975453954302L174.24231527826123,272.49446807582945L173.6016353992327,272.47267918479065L168.58863306923286,272.56076549172894L168.17895678719378,272.5678421460552L168.08177080787755,272.5678421460552L164.48574005630144,272.6331146422044L159.2000936750983,272.67045285056247L158.01135963117486,272.67045285056247L147.94491065209058,272.66458676085085L143.64031935285584,272.69252047849204L133.23117765901497,272.6565790751006L133.14842005970422,272.65229589068394L116.65850115696594,272.6584413283954L116.58628449848948,272.65183032700725L116.5560073280094,272.64838515485917L115.74898990745987,272.6528545670585L114.61258677547539,272.25245869252376L107.24110500281768,272.32704575473053L99.97428505403877,272.3365436771096L93.64209519249562,272.3272319886246L88.72194285196383,272.26419154014775L87.00533942346556,272.0834476900304L85.17061765087328,272.01248981961L85.16964579108117,272.00941682513576L84.77551926573233,272.0078337668642L84.83525126378845,271.79663204128474L84.94738893223075,271.64763237942043L85.50807727443589,271.5451933190666L85.65759416569199,271.45206563283136L86.09866899489407,270.9864090891174L86.7117630074863,270.52994324277734L86.80139838379364,269.9710800109897L87.03322432368441,269.8313574064514L87.4369199300736,269.77546760331506L87.79576046908551,269.9524504874794L88.25178698741274,269.8406723313433L88.54334492536054,269.7382074928578L88.9246129980611,269.47738130526886L89.18626755775858,269.1606510520546L89.32830860445029,268.918436135064L89.82171434559223,268.6296307443181L89.99365877053424,268.56441501561085L90.09084474985048,268.57373158455994L90.1880307291658,268.64826370083165L90.35997515410963,268.62953757941386L91.5711367317208,268.22891730905894L92.10939754023912,268.19164917031685L92.67008588244607,267.8282746752243L92.97659550951903,267.5766969384449L93.20834669096439,267.30647398926567L93.84379347879803,267.07351500300274L94.35215090906604,267.00828513143006L94.76332236001781,266.81259195842586L95.41372083697661,266.318675927464L95.4211966815401,266.1882018640322L95.50343097172936,266.029765882246L95.67537539667319,265.91792661167847L95.86227151074218,265.936473411326L96.69216501565279,265.78735205689054L97.01362633185181,265.6475479714045L97.37246687086372,265.68482932731195L97.78363832181549,265.6475479714045L97.89577599025688,265.54502324345185L98.03781703694858,265.5170616996588L98.34432666402154,265.55434373382377L98.71819365060583,265.77803186930214L99.18917185805913,265.9178334115586L100.39480131069467,266.0562342544358L100.81905548963095,266.03899254420276L101.02830437894227,265.9551133626496L101.27500724951369,266.04831239272016L101.76848774909922,266.0017130290512L102.31422440218103,265.85259303092334L102.63568571837914,265.9178334115586L102.99452625739195,265.88987332108945L103.59266858085903,265.80599239573803L103.90665405249365,265.7033767296916L104.48229408382576,265.4890068411614L105.67850397231177,264.92975088305L105.74578657337588,264.855180126674L105.69338090299152,264.7245862214213L105.71588319512557,264.67807147232634L106.16443386889023,264.16536386454163L106.40418420401875,264.0159260016544L107.79424274201665,263.4475116124863L108.05589730171323,263.270368181099L108.19793834840584,263.25172124945584L108.33997939509845,263.36360211171814L108.41473784072514,263.36360211171814L108.62406148848277,263.26104472133966L108.75855193216648,263.124268172809L108.83278706867532,263.0733608972787L109.04270878399711,263.00930672374307L109.12494307418729,262.91606818464015L109.64085110746237,262.64566956205636L111.6668797424145,262.00217305424485L111.86872754560864,261.91824663029365L111.98834105861351,261.80634320261606L112.30980237481072,261.7037635253564L113.75271513386906,261.47994822285L113.81999773493317,261.4612966320574L113.90970786968592,261.349386067659L114.67231877353242,261.0882546193202L114.89659411041521,261.1069071812749L115.13582113642406,261.0416230019682L115.56194427650007,260.80846036214825L116.16756244452881,260.73384671463145L116.85534014430232,260.40740286866776L117.43853077864242,260.23951166908546L117.59552351446018,260.2581664411532L118.82156202275291,259.8477502318483L120.33923322743703,259.2693965603153L120.72057605858299,259.08282089546447L122.1335854393883,259.0734919846109L122.7540805380977,259.1108075550992L123.19515536729978,259.0455051791305L123.5539959063126,258.8309360362973L124.34651018840941,258.86815957900217L125.07166711099762,258.74687915404775L125.2287346052608,258.42034472172145L125.47543747583131,258.12178592174314L125.71174892246017,258.024751630835L125.67892996482988,257.5076486420521L125.63848564574528,257.3682427788385L125.79502983088969,257.0756122691196L125.86911545050589,257.04985722539004L125.874572817037,257.03763287872425L125.3645707009664,256.75852016815907L125.37884956408016,256.64541623128434L125.45667310597855,256.505900249319L125.63243021164908,256.2461786379531L125.66233358989939,255.71420052588792L125.42310656389236,255.16351485075484L125.63990605621257,254.79947901260311L126.04756386021927,254.6813033957742L126.36132505651676,254.41274064599747L126.69407489800597,253.80061886184194L126.98563283595286,253.3991684718394L127.19226517966763,253.23176633671392L127.56134762573038,252.81086289442555L127.90523647561804,252.10120914574327L127.87533309736591,251.28875585780224L127.8080504963018,251.1113112425178L127.66600944960919,250.9432017532099L127.63610607135888,250.80310749110095L127.65853360504661,250.71904961547534L127.87533309736591,250.46687005550757L128.44357204258176,250.22402206705237L128.6155164675256,250.07457304829904L128.76503335878078,249.86907554291656L129.31084477030618,249.64488970444881L129.64725777562944,249.61686597996732L129.75191959950826,249.24320581483835L129.61735439737913,248.71070630412578L129.841629734261,248.33699872956686L130.08833260483243,248.4304274565161L130.32015854472502,248.5892534873051L130.48462712510354,248.6079386704796L130.74628168480012,248.41174180890812L131.3443492498218,248.57991087738674L131.71066563339537,248.59859608500392L131.9574432624131,248.48648410600208L132.11443599823087,248.35568457273894L133.25831497477702,248.25291183024274L133.33307342040553,248.27159789343432L133.445211088846,248.6079386704796L133.632107202915,248.76676075376645L134.32736074725108,249.01900033319998L134.57892291678854,249.01843981067395L134.81336540227585,248.9629478631423L134.98530982721877,248.59859608500392L135.38975301806477,248.14630690456534L136.11259242883625,247.91206945769682L136.8213024933857,247.86011946556346L137.25729374828643,247.91580685262807L137.36651583734692,248.04007412033252L137.4921847844471,248.0476422073748L138.18728881189236,247.59447717742523L138.88029960285985,247.2565935646253L139.93529078755546,247.151655770258L141.06885309860627,246.53022047684226L141.86024600401925,246.50050236609377L141.87026363573295,246.50003509921453L141.97305649847112,246.51807157859366L142.16301770881,246.4572333232627L142.20024741473298,246.3696664448662L142.14582326631626,246.2210713115228L142.14754271056518,246.0793890455666L142.2713426965256,245.9867706879536L143.08471458495205,245.76199560931127L143.4896810849159,245.56179496336154L143.66917611286954,245.31849969063433L143.89352620819682,245.170163081787L144.2773360680485,245.1133326125232L144.34633811336244,245.0665966900915L144.39919233442197,244.85553345169183L144.34110502216845,244.65568128270525L144.5056483609951,244.44469936876703L144.7467443481437,244.34888141948022L144.9818596596424,243.93081966149748L144.79548685469217,243.77740579203282L144.42827336977098,243.34883914585816L144.52231949436919,243.13772507927524L144.70458058480926,242.9431542788475L144.82725919408495,242.8349739836517L145.20254659113562,242.41336372452633L145.34638184052255,242.136764877338L145.47526540078434,242.0072515870179L145.58927203036637,241.8269576891298L145.73213541995938,241.73297488178923L145.83657296850106,241.4950665963088L145.88666112707324,241.33196765019966L145.84958093804107,241.03381612414523L145.8254339601035,241.00126934317177L145.69438240491854,240.59217730272258L145.6086344677833,240.41661780290178L145.63868736292534,239.8991738122727L145.6872055941376,239.80638161858496L145.7368452020346,239.50386319327345L146.0261603866129,239.18608340959554L146.05561521419077,239.06100693788903L145.85092659006295,239.03967729799524L145.69460668025567,238.85453708320165L145.52026998505244,238.6908163614944L145.41971987568286,238.6704211737706L145.33053305004887,238.6609720073734L145.18445504729334,238.1840067117696L144.96974879145,237.9673128301156L144.96645941984298,237.92099786824747L145.04802088402175,237.15474563069984L145.1024450324403,236.9396112709619L145.1712228024162,236.84256941755484L145.2344684474183,236.7925974940904L145.28455660598866,236.77200970826834L145.36753848063563,236.70294661017624L145.51578447831434,236.61263951605451L145.6925882022233,236.77266477509693L145.88882912199642,236.77163538433933L145.97614698648795,236.6949921452915L146.0023872009042,236.4029167579174L146.20333790275072,236.1257101310871L146.28669356962473,236.14583183965442L146.37767459795396,236.1894442779062L146.52479921894883,236.28471687258752L146.8557548577428,236.2535522053954L147.13609902884582,235.96847807792074L147.22588392204398,235.94461219489358L147.3381711073771,235.95266108987698L147.52813231771597,235.78325800838775L147.68998435249978,235.48974124821416L147.91732478565336,235.35196390148667L148.042694698971,234.9685694234754L147.93332309301695,234.64993193209693L147.9801966384266,234.40560856434422L148.0825409504896,234.20415248979725L148.3343273953633,234.15060465559145L148.52421384725858,234.35196863315878L148.59044983008334,234.32837816892925L148.74617167232554,234.15687688777552L148.87393385590258,234.16165126976148L149.0427384261311,234.06475877292587L149.20488949469564,234.24038130295185L150.18033769324393,233.99473322931726L150.40790240173465,233.834645507819L150.50508838105088,233.94249447395714L150.5418695362987,234.11100521134358L150.60698414244052,234.18617843652783L150.71037507274286,234.2243732454649L150.90108386753855,234.1055754831341L150.93308048226754,234.05848645954848L151.03549955277776,233.98995873534204L151.05007744967497,233.97451182112172L151.5549212329979,233.96683516036774L151.83586347166693,233.56623304168488L151.91196756931458,233.30801574921134L152.32859638679747,233.2671008366283L152.68085818259442,232.7784443694859L152.73132013339273,232.57516313104497L153.27204797061677,232.17935199367093L153.65511024601165,232.24920812662185L153.8195040679475,232.3393833267378L153.90450442062593,232.48143269911725L154.1088940109721,232.37777532873451L154.289734690944,231.94468280239153L154.4301310518331,230.8622575535428L154.52208393995534,230.71399423383082L155.18377094220432,230.56928700186927L155.32439157842873,230.67025455906787L155.73130179798045,230.7966024787579L155.84829876538697,230.7347868756583L156.01590720048443,230.51533714423476L155.95557713486232,230.2797700356682L155.9668656601525,229.82828362269402L156.03220454163056,229.31194285073116L155.9088531063453,228.8815677632033L155.72883476927564,228.47608824328427L155.67575627287806,227.89996398834364L155.92059018230884,227.66515348715757L156.07541492320343,227.69654320940708L156.32383723802468,227.64819360937008L156.44442261082077,227.5063287366038L156.40973469205073,227.28855970825998L156.33654617378124,227.1822027867579L156.1560792860364,227.07406380849716L155.97344440336747,226.77803196238756L155.83035673843642,226.13016740812873L155.87491277203117,226.02847926496725L156.0378114250534,225.90485826184067L156.0798256714961,225.2518524817997L156.05560393511314,224.8381979741098L155.7301804212966,224.2604661081623L155.7185928622239,223.96675443635786L155.7371329567386,223.8826604750725L156.0439416175941,223.4808332117841L156.32525764849106,223.2840364329436L156.47477453974625,223.3003504276603L157.10753002353795,222.98203324098313L158.01980733553046,222.4169967893822L158.84708429484544,222.01180438483334L159.2338097340762,222.03618597528293L159.43289147478208,222.09338860862L159.82425193764266,221.76713986331106L160.10930589082,221.43843775482583L160.5031333823863,221.25874708238416L160.87550520005698,221.15004889725833L161.0779510708162,220.62698006642813L161.18949067169342,220.56010475954145L161.3107488705,220.504390488024L162.66783893397678,220.28340499265732L163.31188294305866,219.4703141895602L163.86920715521137,218.98277145012025L164.55197603912802,218.5213714767624L165.3625818650671,218.1422279564149L165.71252614905006,217.83231161944013L165.6776887133874,217.67570629418333L165.73607505942255,217.6018594429529L166.1646652282052,217.34137190248384L166.7425480129068,217.07158454752062Z" class="state" fill="coral" stroke="#111" stroke-width="0.5"></path></g></svg>