<svg width="800" height="274.40000000000003" xmlns="http://www.w3.org/2000/svg"><g transform="translate(0, 0)" id="single_state_map"><path d="M667.9776633803558,221.88644661502212L667.780406437615,222.05876314437364L667.4366783437772,222.5175589237374L667.3576249888629,222.9348696440461L667.5580303769066,223.60533584397854L668.0197567251807,224.43527352768024L668.1016847475476,224.70985216801864L668.1336483118284,224.98694051257735L668.1159896403424,225.21204290183823L668.0426171758663,225.44416249916776L667.788277550876,225.9281891498331L667.7287993124155,226.26060848202906L667.7690446567358,226.49025622418958L667.8903966898652,226.71926485709128L668.1684865435627,227.00670657014098L668.5618368731693,227.22110828150153L669.1388236973544,227.37553402674484L669.9211439109276,227.4065987867466L670.3366702465892,227.27099318169257L670.7449414691591,227.06055534329516L670.934532632029,227.02948880203667L671.4925603399251,227.11143208719113L671.7880350872574,227.41848439175874L671.8826937797658,227.62080621398172L672.6616602146469,226.99716141974795L672.8095002550081,226.57869078848717L672.6568006577645,226.23097878380167L672.698414891348,225.49676422439825L672.8210673692765,224.9938765659649L672.8713056052138,224.4333817023521L673.3530177367211,224.09806881086251L673.9273352268428,223.92725206722207L674.4039824680794,223.9213058276091L674.8329923629781,224.45644391351198L675.0649506485252,225.0624259633969L675.4926600986228,225.36417817501115L675.659527699735,225.78894765003906L675.7381019434079,226.129300080775L675.5045694352075,227.44018456477488L675.0930128784075,228.00274107459336L674.6622234274691,228.21422643241476L673.0125749771141,228.8288333932319L672.771582022433,228.97826696544553L672.4728219408726,229.08610889631836L672.7482424605059,229.64635183815926L672.8316762610611,230.13679178218445L672.796016695771,230.7681216946953L672.7303784556298,231.17073442116316L672.6927340009079,231.4644430036301L672.7194957859911,231.73006420378215L672.8368095957967,232.13000363462425L672.9407082908265,232.3149835373174L673.5409662324755,232.85747462087602L674.0330134779169,233.14606362996437L674.4048038016381,233.4575767595552L674.8379888087857,233.95346390165741L675.3323631659723,234.79007442003922L675.5075809915852,235.43251846041449L675.4625445348456,235.96942485337104L675.3241498303978,236.3494836807481L675.159130229792,236.8616756428969L675.1083444381493,237.12184571449507L675.267751592779,237.77419948103943L675.9327579965484,238.90138226147428L676.3081074323527,239.73712898962503L676.4304176879659,240.5104064456168L676.3940052335802,240.80168521355426L676.4121430163095,241.26633658148012L676.507075486671,241.57446737842974L676.7833173398631,242.02711272700117L677.160446331709,242.3908932558179L677.4586588575658,242.79596635268354L677.6166971229322,243.11802953011238L677.6910962543534,243.3557489494433L677.7611833845995,243.86860557790033L677.7284669312221,244.09210804149325L677.5900722267743,244.458368457922L677.2661930272434,244.75412621757096L677.0012445104676,244.90648880378603L676.0345349132222,245.24235531705972L675.6376939159954,245.5093473851398L675.4403685287925,245.7891647128754L675.3615205072665,246.11923739398617L675.3436565023903,246.39642351886505L675.3913622931905,246.561939240828L675.5990227943275,246.82671909454893L675.7897775130705,246.93639739561786L676.2126274062857,247.0253412710872L676.4225465747049,246.99554387188755L676.829928019255,246.84745221518006L677.7263451528652,246.41715811126414L678.087868807117,246.304149234521L678.3925835569717,246.25881942661545L678.6006547248862,246.282426873825L678.9653952689059,246.4090797070744L679.4070673894821,246.65591497387595L679.988297770381,247.24917608765008L680.1795316003654,247.38828337754012L680.5617254824829,247.57396419942324L681.4957870708158,247.61443809449293L681.905290293721,247.77327981690814L682.1397125799404,247.91551590702556L682.5120504593679,248.32973147009216L682.6264896017201,248.55333868423259L682.6712522806074,248.79730520829935L682.6355242708532,249.23568453294956L682.3078806258509,250.15971236426594L682.3044584026939,250.43303614751312L682.4414157734182,250.82044052670244L682.5681064746705,250.95417405865192L682.9317519072792,251.20871706399703L684.6589479343611,252.06931264728883L685.1017836108113,252.15584973981368L686.1417972280697,252.05505408567024L686.8212454135592,252.1145093759592L687.1182259390798,252.21682850440584L687.3383433325052,252.3560012724456L687.6995247644409,252.67459805035878L688.0385301903234,253.27013997896847L688.189039564746,253.74163648340618L688.2322280209801,254.0026069224382L688.2087515701269,254.57641556590625L688.1175835452386,254.95055872389594L687.9754928397815,255.29572882012963L687.6689300894222,255.7294268230694L687.3697593410807,256.44421258245893L687.3397806662297,256.7418060798541L687.35463311473,257.1954714616704L687.4586686986877,257.5322712357156L687.5837167328264,257.78958479506355L687.7816581201969,258.11784087549313L688.1407862182396,258.5727472588396L688.8463117441815,259.26579144256084L689.245137630839,259.49831124984576L690.0733840791736,259.79530743848545L690.2187601188616,259.88298840080233L690.5162197556247,260.2019967187848L690.6210082286761,260.4440628904017L690.6891104694896,260.7200585113401L690.7197735889722,261.33084010971834L690.8025229448958,261.7864910519588L690.8807549662533,262.02052603787934L691.0363292309476,262.27424775223244L691.3079853051095,262.5259893974485L691.6908636318585,262.72105515245767L692.3551171465333,262.7688582888545L692.703225686012,262.86141984858523L693.0952755708195,263.09407078174127L693.321005410221,263.41702816736415L693.4594001146697,263.7391628750024L693.494101457477,264.03675758695135L693.4789067866623,264.4584668868383L693.3999218762101,264.71906719552635L693.1993795992394,264.9946899973006L692.9945253210926,265.16873757853637L692.4844771818489,265.63474896919297L692.2755846803766,266.2162289064436L692.371406928758,266.87512467274337L692.4253411657046,267.32311518821007L692.3294504728592,267.7558670686917L691.9955783817122,268.1583577585061L691.7484254253504,268.4544844837851L691.5911400490777,268.804165586404L691.5229009193372,269.1303078515025L691.6816920737983,270.07009375091866L691.8525294537703,270.53564094638205L692.074015736458,270.9657509923418L692.5071322991444,271.4406158815441L692.8216346072268,271.66811240457446L693.2875360677508,271.89417028573416L693.583969037566,271.981766578936L693.8804704518443,272.0075089238103L694.1705380865887,271.97693987717184L695.4692033300144,271.58489167492144L695.9556381294788,271.58274633496876L696.5099698363674,271.78163401728943L696.6608214331045,271.87325425001745L697.3679211816998,272.69268014794307L697.8977497707883,273.00074079050046L698.6154584111673,273.2188851448068L698.8032700179956,273.3212968042226L699.0127100751724,273.56034001620446L699.084439872534,273.70233171716836L699.2688292562043,274.2037888597729L699.2810808151044,274.39999999999964L697.1178251134234,274.39991065210006L694.6975604526888,274.3998213041996L666.6820096933079,274.35845308574517L666.445944739974,274.3594359192416L659.977942974203,274.35782764616397L654.8025148946399,274.3532708701423L651.2065112462615,274.34281707699483L650.2885341067631,274.33557982509365L648.3993984799163,274.33486503431595L646.3663241471086,274.3459442819517L645.7923488793012,274.35344956730614L643.3278690953857,274.3580956917076L643.3176708703795,274.361222888831L641.8645949181328,274.3570235094676L641.3800765636361,274.3596146162249L641.3719316725246,274.3555939328535L636.8678753318018,274.33549047625047L636.6168210410415,274.3346863366078L635.5673620878715,274.3380815921523L631.3310604869121,274.3433531693868L631.0922577550527,274.34362121556615L620.203770338042,274.3134212720561L619.9371107096886,274.3073455257136L619.772227998008,274.31351062122303L615.8595318187272,274.30770292272655L615.0473698192291,274.3237857665622L613.7547276885589,274.3133319228891L612.8655656680385,274.3023419653591L612.1812579256675,274.31351062122303L610.5364005877309,274.3202118049285L610.1623515967258,274.32110529553165L609.3374589270852,274.2963555573979L592.1297680071484,274.2702654720297L592.0445546505516,274.2704441716228L591.8258061463885,274.26883587508564L591.6748176607243,274.2704441716228L589.235867661555,274.2652618812617L582.8656045891348,274.2691039245369L581.3846032959309,274.2799152426346L580.0937407213023,274.28161288588353L574.0567337398597,274.2377420586877L573.7431212097999,274.26624472977346L571.0514058082927,274.2613304856377L569.7910010197556,274.26141983556636L569.6458987579217,274.2709802703748L566.718529069858,274.26874652526567L566.7124375126396,274.26463643212674L559.5187191043033,274.22326729699535L559.4760097593098,274.2273774180039L558.2298414191055,274.2157618514848L555.0314316570475,274.2210335344157L554.8950218420296,274.2189784721213L554.3736803663696,274.2168340585513L553.0582462294778,274.2248756055451L551.78360499261,274.2169234091343L548.5681525592336,274.2358657026275L548.4917000939176,274.23014728060025L548.2229186872064,274.2299685798275L530.9449353036352,274.2216589880204L530.8451432763923,274.2215696375092L530.7375485803523,274.2231779465069L530.3009413500477,274.20620133014336L527.4077254490858,274.2248756055451L527.2590640751678,274.22076548285304L526.1104975393846,274.229164426275L524.8051931830369,274.21531509848546L523.5176843871004,274.21200912526865L519.7155944602382,274.21665535738885L516.9521492613712,274.21093691735405L514.3532445518667,274.20745224033L514.0620133612501,274.20119768683116L511.7994447435658,274.20450366590876L511.6223104729879,274.1962833902994L510.3462319023938,274.1894033685039L509.8443286542624,274.1942283196677L508.2273282128199,274.20084028358133L505.3271994210827,274.180736317016L503.2575757449622,274.1819872324254L502.7753160577495,274.1779664319861L501.8055949041254,274.16626142006635L497.936771625712,274.19369221417173L496.69039795211665,274.17734097390166L496.293625399353,274.1750178433135L481.47416713140683,274.19226259928337L479.2483531904236,274.19110103694084L477.8703608142305,274.1956579340931L476.67997471147646,274.1966407938189L475.6778793267931,274.17823448543186L474.4374603214901,274.1785918900064L473.04030349562163,274.1853825729536L471.19538299195574,274.1770729204163L470.3888334384337,274.1992319686942L470.2971863023022,274.1970875481861L469.2095353387067,274.18448906247204L468.99769972531976,274.1885992096072L467.80211184336804,274.1721586044514L467.72299004398883,274.1760007063617L467.6098513464367,274.1877950506023L466.4252145785849,274.20503977045473L465.33756361498854,274.20128703764067L462.0080142615743,274.19110103694084L461.85319288597475,274.1890459645633L458.88359296416,274.1926200030375L457.93454203840156,274.18868856059953L451.06709838580537,274.2028060012017L449.2788498976115,274.19690884644206L449.27268989592994,274.1927987049048L448.539512806884,274.1971768990534L448.500773240753,274.1992319686942L447.1422875365506,274.2039675613155L445.3239919290445,274.19136908981L445.21194834290054,274.1975343025201L440.74533112350946,274.20923925443776L438.83484082416635,274.2038782105451L438.18304420178083,274.206380031615L434.98100688317845,274.22782417012013L434.35480849000305,274.2231779465069L433.8074581183537,274.2231779465069L433.67447052649186,274.2190678226707L433.0798934752829,274.21817431712043L431.79423267985294,274.21969327647685L429.4675316002158,274.2249649560108L429.2182568654971,274.21451094300164L427.2364474355736,274.2319342880596L426.983955811088,274.21960392593473L426.7069610688004,274.2256797596624L418.9942282965512,274.2238927503704L418.3607063458212,274.2329171419383L417.6132928084435,274.19699819731477L413.70080196255276,274.2263052127905L412.82902483566704,274.22675196498494L412.54190031283815,274.22898572547274L412.4502531767066,274.2249649560108L412.2590877911862,274.2187997710189L403.7591068040165,274.23318519297027L403.5971672042515,274.23309584262734L397.3486668317382,274.23827816031235L396.5054310459791,274.2365805050049L395.5014192163271,274.23720595701616L394.80280658116135,274.2799152426346L394.2977548877261,274.26124113570677L393.7565645177583,274.2386355613694L393.5157084520042,274.25266353633424L390.9311770797585,274.2747329603185L384.548251781659,274.26472578200764L382.9209846707472,274.26436838247946L381.96385729833855,274.25829258728254L381.70719056160215,274.2378314089624L379.07591162103836,274.2613304856377L378.78057376263314,274.26552993087216L365.9885089370546,274.25748843746715L365.27956118795646,274.26213463494696L365.1329531479314,274.258113887332L364.9093450868868,274.2592754369175L364.678755690602,274.266334079628L363.4161606792459,274.25427183713464L362.45294174961964,274.24855343236004L362.30421193123857,274.25480793730776L351.4606925265043,274.23818881004445L348.10684538867827,274.2413160686342L347.5599056838073,274.2394397136727L346.0745923894274,274.24578357812106L345.58993714600456,274.24185216994556L345.5102677909217,274.24328177321013L344.81617249032115,274.24194152015934L343.17993915473926,274.23541895109975L340.38596772531764,274.231040784397L339.33520832734666,274.231040784397L337.45168514647685,274.2231779465069L337.02815080863,274.2295218278655L333.98237219935163,274.2315768866106L332.9704208119774,274.2066480838098L331.38216704504885,274.2002148278416L328.8022898962972,274.2149576960628L328.20162128786797,274.2112049693501L327.9694576689326,274.19699819731477L326.67674709379935,274.2096860078818L326.22179674737436,274.1941389687545L313.99782096577474,274.20816704603385L307.8200921681382,274.1982491093886L305.5866808917481,274.19369221417173L300.755186239413,274.18297009435037L298.1681908664932,274.17224795568654L297.476833344419,274.17930669909447L296.5587193159954,274.1772516227411L294.9972273341509,274.17153314577126L292.69475559446437,274.17260536061167L290.10194244217746,274.17117574078384L289.59298941434554,274.17117574078384L287.53657551960805,274.15893460728466L286.2482453901157,274.1692993642496L284.0945034688093,274.17457108733015L281.6560325808823,274.1894927194862L281.1593995564126,274.18323814757605L272.5994612195418,274.16670817666045L266.8818845475271,274.15759433570065L266.7955076350572,274.1657253121125L254.6266980907394,274.1539309252066L254.43334248239717,274.14982075471426L252.75823269175817,274.1377582818468L252.1515409705744,274.15107167646147L247.82920467946224,274.1172966992531L246.9722800010768,274.1190837397676L237.728992144318,274.1248022659024L237.7114019172932,261.1298199515227L237.7176988079018,259.84788034295025L237.71872547484782,253.88740836908482L237.7168090298801,253.33594906756798L237.7587654857789,244.09085091931638L237.7252961433078,242.14307575721887L237.74076459197659,239.17719144139937L237.72242147585803,238.8791839737778L237.74808814953212,234.95842581962188L237.7443921485219,227.75199212887992L237.7302925891172,226.15406697319986L237.75992904165196,207.0531731967667L237.7378899245241,184.17101473935736L236.4385402364669,184.16684285650763L232.71694099824617,184.17455176818794L228.18331664945072,184.1756400843301L226.9409811991809,184.1651196866551L226.7466673683557,184.16330582311502L225.39618966634043,184.1755493913247L222.94033388477874,184.1704705808902L222.64684402687908,184.18298621310714L221.3290143337772,184.18643254201424L221.24694942248334,184.18643254201424L221.24222675452802,184.1843466063333L221.22778497280706,184.18643254201424L216.35228053068022,184.18942540498028L215.28954335166236,184.17790740898909L209.15486612133373,184.16675216336944L209.06493009678252,184.17056127397154L207.872764437986,184.16484760716003L203.16145826290722,184.18534422783796L202.52773097878708,184.18706739186018L201.8810676911362,184.18706739186018L201.86450413105922,184.18090027622293L201.66204540912167,184.17881433861294L198.76431217359277,184.15106222982558L196.544658234292,184.17509592628403L190.64741484656133,184.1843466063333L189.62122701085718,184.17246582836242L188.7926383402064,184.18026542572306L188.32564176827236,184.16765909468631L184.64784698645235,184.19223688094507L184.44093937441085,184.17337275881027L183.33542440593737,184.18198859120957L183.1432323534691,184.17790740898909L182.01246137810085,184.20629424093886L181.87297156224213,184.18860916977383L180.64617300510326,184.19332519386717L180.53248675184477,184.1890626337895L179.34230598247905,184.18643254201424L179.222459727539,184.1801747327886L178.0259136231034,184.19232757369673L177.92057759434647,184.17981196103892L176.71999326658533,184.20058060828524L176.60220034554004,184.17772602304967L175.5896329579964,184.19659013144428L175.51557604889058,184.19985506723742L175.39128090384656,184.19867606285243L175.31277510463678,184.1883370913456L174.09350543844084,184.19504835558837L174.01089297144335,184.19096718228593L172.81913797942707,184.16892879829766L172.68745083236536,184.1611291861418L170.17704481368946,184.1824420557282L169.85261805845403,184.17400761004228L168.85647734206213,184.17183097696625L168.75107286884122,184.17183097696625L167.5876538845605,184.1822606699261L167.50086630531132,184.1781794878916L147.98221653225937,184.21935395221044L147.8223987108513,184.21917256752704L145.65428345228702,184.15459927046322L143.9476892086068,184.20801739891976L143.94426698545067,184.20457108246L139.51440444276068,184.21300548501677L138.77862646411631,184.23830862128352L133.50326946838322,184.23050909966014L121.45868662464636,184.20030853040225L114.07003838531728,184.23413678540237L112.7341393539482,184.23486232228743L111.48571234645988,184.22787902612254L110.79325971297476,184.26080020804193L107.56261260878364,184.2418456102937L106.34101583084157,184.24837543065723L106.25415980713024,184.24012246206394L103.1343927332091,184.23994107800945L102.78121930345878,184.2154541803052L101.69603234053557,184.25037065212473L100.73705696762318,184.2590770652755L100.74328541376781,182.86198895476355L100.74746052601859,182.7498667078703L100.7419849689677,176.24389880709577L100.75238852736402,176.19404196602045L100.74841874850244,174.8579232320235L100.7443805251778,173.99747547072957L100.71891918489291,170.10792356195407L100.77696008962812,159.37176456640736L100.78325698023582,159.1196742134357L100.79153876027522,159.10300745857285L100.78366764701514,155.64113828537074L100.78996453762284,155.2074425545784L100.80036809601825,155.19076482230867L100.77552275590187,154.3317527154968L100.80290054115267,148.61052424860873L100.81159298797138,147.30068142742675L100.79927298460734,146.36951792153695L100.7898276486967,137.42836017447553L100.78996453762284,136.82603714152356L100.77559120036494,135.29294019766894L100.77518053358654,135.10612170306877L100.78257253560514,134.05478040365688L100.78620009215047,134.0481037524719L100.78558409198286,132.99154302157876L100.7637503082442,130.43145162967176L100.77223742167189,128.4706487069243L100.75581075052014,127.62331670156846L100.7578640844149,126.2281354440288L100.76005430723399,125.58491871845627L100.76956808760951,117.49994329993706L100.75232008290004,103.53650156218691L100.75882230689786,101.63505306681645L100.75471563911015,100.82294076640528L100.77230586613496,95.4826423333916L100.76395564163249,95.21096087790738L100.76573519767499,93.49440902186097L100.7704578656303,93.46061068514155L100.77470142234415,93.11930102825772L100.7726480884503,91.4939854670065L100.76231297451795,90.99252905968979L100.7563583062265,86.08505615332115L100.75724808424638,84.7872426683939L100.78147742419424,81.47652830092284L100.77203208828269,80.6638316531803L100.75403119447947,80.34217339431052L100.78510498073956,77.61433511218911L100.7704578656303,77.29324773324697L100.74554408105178,69.92989781061942L100.76826764281122,69.92989781061942L100.76943119868338,69.1662701467335L100.7467760813879,46.767406347659744L100.76949964314645,36.467708551341275L100.76949964314645,36.39544782356916L100.78243564667719,34.597753416008345L100.77182675489257,34.31261219547196L100.7826409800673,32.81643723806337L100.76717253140032,23.512118650765842L100.76347653039102,23.083068218390963L100.74540719212473,0.10509903241381835L104.99238612933095,0.0015910059050838754L106.69028792619429,-4.547473508864641e-13L109.52039803214939,0.07393451523694239L117.00466318647068,0.04014936736621166L117.11650143922543,0.030884153625265753L123.88257884192626,0.06785133152061462L128.13742889239347,0.027982922011233313L130.50458064973827,0.09630185848982364L133.3359912004944,0.09003152417835736L133.37959032350682,0.08432270639514172L138.15516584946545,0.08769184544462405L138.1828858570334,0.08769184544462405L138.24667609667085,0.0877854326108718L145.13492686605787,0.0908738082880518L149.49826139058496,0.07758442237536656L163.72608571923774,0.08647521212560605L163.8092457419416,0.08656879931550066L187.05497031026607,0.16171881911168384L207.9156106719047,0.20111837477861627L211.11757954604582,0.19643910675813459L235.62076579099357,0.2201161638204212L251.53848391432166,0.22264295861987193L260.8749246853995,0.476159059184738L266.90823566583276,0.5119068313115349L275.4637935570627,0.42983635375139784L293.95057460396947,0.3564679112905651L294.02736929160164,0.36067913547958597L294.18821377995573,0.3567486596643903L294.21278534221983,0.3562807456983137L306.7618723236874,0.35075935802024105L309.6856828996688,0.39099985859729713L312.1660417990297,0.35768448748194714L312.564730796762,0.3661069309937375L316.0999557618816,0.3554385004622418L317.38780678013154,0.35815240133388215L318.78578493955865,0.32212292331678327L334.9212249001039,0.3384064036767995L335.35338324030545,0.2923633400678227L340.30075436872085,0.2795423400652908L340.9244887612231,0.27261711649407516L341.58723649770855,0.2518413957427583L345.80293631526547,0.2264799411891545L353.8339358410676,0.27589256111559735L354.23488350608295,0.2777642429177831L358.7409247362357,0.27523747234045004L359.14611595796396,0.2839407885435321L364.5778001074859,0.29629385988982904L369.47418011086756,0.2804781804502454L369.5062805640755,0.2805717644782817L369.9942895861923,0.28253702875645104L375.8057720616207,0.3072431509440321L376.2557259622354,0.30733673453869415L377.8339183930848,0.31033140875433674L380.8148800957788,0.31566566833680554L381.5186945101432,0.3197833390163396L381.5536011863387,0.32025125595237114L383.1118078339523,0.3364411584957452L383.7445084511246,0.341681810823502L386.5304718783618,0.33821923749701455L387.0651600243327,0.33821923749701455L387.745497987843,0.35057219224245273L388.4236457285333,0.3310133349773423L390.35165781043816,0.34748395604401594L391.2068713772451,0.3303582524818012L391.62061815686593,0.3410267295439553L391.82745732444346,0.34963636326847336L392.6528291053264,0.3455187139629743L394.00275925163623,0.33531816094500755L395.7402903926504,0.3552513348372486L396.85935736482315,0.35712299080887533L397.3802881737038,0.3564679112905651L398.5938769494587,0.3475775389838418L398.7452761019031,0.3582459840995398L407.6401131968678,0.34748395604401594L409.9605173858963,0.34345988820723505L412.77276348697524,0.335973242874843L413.01156621883547,0.333633664210538L414.1249523005681,0.3394358175537491L414.34246880439514,0.35010427777433506L419.52953244269065,0.3311069181831954L420.9873995073549,0.3426176410930566L421.202794232825,0.33831282059009027L421.3734262794078,0.33391441370213215L422.83437334491373,0.3267085057850636L426.8888864518003,0.33279141565981263L428.6229269251944,0.3251175898312795L429.1987501935064,0.33410158002152457L430.55634611968617,0.32071917285247764L433.24368107555347,0.33700265718835L435.55785681843554,0.3034998059197278L436.25907034320153,0.3148234171544573L437.08711145814686,0.2994757073029177L437.29819418243915,0.3188475050310444L440.9997391929637,0.32006408918368834L441.12766189455306,0.3136068318908656L445.0776603062395,0.3248368399131323L445.1044220913245,0.3128581639107324L446.57864738267745,0.3214678398107935L449.1993174314557,0.32025125595237114L452.13195734318015,0.32446250666453125L452.13866490056716,0.32436892335090306L453.2325443103082,0.31837958798132604L453.4522510369543,0.3355989103538377L458.65095023398226,0.31800525431253845L460.2036128800819,0.32446250666453125L462.730993125615,0.3167886697237918L464.2356762030613,0.31491700062360906L469.49091052663425,0.2968553625014465L469.6210234510436,0.30546506236214555L476.10791588863776,0.29676177873670895L476.3723852941712,0.30958274034583155L480.9254478704952,0.2946093517234658L481.1172977006481,1.2797752149576809L481.47758935456386,2.2232352306377834L482.2690811261964,3.5710742126216246L483.0605044533668,5.065778222241079L483.4494743373334,5.3583517516131L483.6656219518982,5.456807955550175L484.09647984730054,5.922885932979625L484.3641661426009,6.106221411829665L484.45054305507074,6.228784607768375L484.5317181883438,6.64918178748303L484.64916888707285,6.777996482644539L484.9504614137704,6.8758675500835125L485.11869790414494,6.857359109010304L485.3091104005716,6.7793986586812025L485.55338868948184,6.566544427864301L485.8714501096456,6.510828977530309L486.2511115466277,6.527281918290555L487.1351402324126,7.10441385107697L487.7186977250567,7.41146484608862L488.59841440966557,7.790746029202182L489.3572581723856,8.283736844799023L490.5421002736266,8.808550455859859L491.3509084944317,9.254174616421096L491.6125032325135,9.43170452009872L491.914890870622,9.720132230447234L492.0616357995723,9.91689386971575L492.2224118434642,10.301989085039622L492.2959211968655,10.398305577199608L492.4848279151047,10.590746898505131L492.74484843053506,10.772065583204949L493.17953921587196,10.955153365343449L494.68860273895825,11.373711286508751L495.8835061762802,11.846595657017133L496.68047350496363,11.925421512557023L497.3708728045549,11.903193477597597L497.81343470315187,12.04944863823357L497.9496391847806,12.141066359814886L498.15428812953814,12.462884245831901L499.1746581858779,13.140548186805063L499.54494273141063,13.45782851978538L499.7010645518094,13.665199784559718L500.0025624118971,13.88591453985191L501.05113158704626,14.475192749444432L502.06007141804275,14.962198063687538L503.3366975443396,15.38354536541965L503.58241316697695,15.401186395431978L503.87405502437286,15.380838535932071L504.91454775287275,15.112949471700176L504.99168466281935,15.130684672410553L505.6091221647148,15.79291536671144L506.21649833052925,16.866136995245597L506.32251880391686,16.96887582928457L507.67778761835143,17.854724087584145L507.88229967418283,18.056059716920117L508.57536830783556,18.911144738814073L509.03771065627825,19.239487605663726L509.38246541706303,19.3744572252358L510.43609948248377,20.268236505570712L510.74238845498985,20.60769274281347L510.8559378193222,20.90283558623605L510.9528551791136,21.386035313742013L511.17276723915074,21.571676947258766L511.51505799926235,21.759270566954L511.98978879553124,21.828264699538067L512.1730146233294,21.894740698965506L512.5081871592756,22.043166816965822L512.6505516425868,22.184783407472423L513.8692737530764,22.352033815796403L514.1555084978854,22.362475152247043L514.6556321899752,22.188326108468573L514.8751335832321,22.272511232271427L515.0246162907079,22.273257052912868L515.5612893261095,22.10031731385743L516.582412271543,21.651675369271743L517.646313006434,21.764957952299937L518.2316500551196,21.73400359057905L518.4605967842899,21.680019532640472L519.3798743685857,21.10798128193619L519.6368148831752,20.87961636425871L520.4258426541355,19.93314378209834L520.80139742333,19.78867392743041L521.2780446645666,19.321570404098566L521.5505905167493,18.951908774989533L522.2768547150199,17.756852655420516L522.5608307925459,17.43672963721974L522.6757490461414,17.237238576188247L522.9288566707955,16.39926346096263L523.2701207639602,15.54399274734942L523.3318576697029,14.771302855727754L523.5458835059098,14.393040971460778L523.55943550961,14.151993431563369L523.4748381531817,13.932035760760755L523.4668985954586,13.770423143463631L523.5803795153279,13.366138351617792L524.2408685845303,12.979940537826224L524.7704918402296,12.771424048299195L525.6388467439574,12.524798974961413L526.3984433957739,12.4258097985944L526.7869341684982,12.425529638134321L526.9711866632433,12.543662757245329L527.5686383819029,13.080694347622284L528.6453382313994,13.43345887194846L529.5270398054381,13.865561333140704L530.4856729560352,14.201753489571274L531.1513638044353,14.264676475323085L531.8993933419824,14.272891888664162L532.1360742954839,14.227987043349003L534.1820846318251,14.41974042767606L535.5112761058062,14.759727588582791L536.5053634883043,14.88686755544677L537.7518740508249,14.831232496349003L538.4669818016046,14.682340729897987L539.228563342851,14.404523619877182L541.0384402813934,13.56464292576402L541.6178226617876,13.39947191138981L542.1687321455202,13.403020010044656L542.4768691185309,13.599095751767436L542.979525255756,13.82242723557556L544.1680633580054,14.213049803160175L545.0320378160941,14.40919135660215L546.0214025306359,14.364754349769555L547.0895468222398,14.170851890569338L548.1791142308039,13.830363186839804L548.9389162160087,13.389201087186848L549.2473269668708,13.506567506444753L549.333087879173,13.695450529846312L549.5287021547983,13.8790056612238L549.8531289100329,14.028945140393716L550.302740588334,14.146298538252722L551.287793301698,14.138176303638375L551.8944165784187,14.257581336202293L552.0924948547163,14.337307792126012L552.2560086771327,14.466604209253546L552.5438860890572,14.549595111147937L553.2213493851159,14.533165061160616L553.4379761109221,14.450453984905835L553.9282438003211,14.036694085974887L554.3668359200565,13.559040820777227L554.3980465952436,13.413104067986296L554.5278857418016,13.137933679510297L554.9470396340084,12.694384028338845L555.1964512576542,12.56056540081181L555.5459971308583,12.468767574477624L555.8110825365602,12.523304811351409L556.1628186325843,12.795516352300183L556.5281067323076,12.850143877925802L557.710211055024,12.761899156154868L557.8031586359539,12.967708027701065L558.2613258721449,13.39461661495534L558.7307864447521,13.702359628417526L558.8823909305856,13.731022962456336L560.1409477186171,13.63149429191617L560.4848811458442,13.545595746595609L560.8549603579877,13.395830439449583L561.0081390664718,13.293588172964519L561.1561844402222,13.126635259341128L561.2856129200009,13.060431674688061L561.7230414838632,12.943803200169896L562.2004416141936,12.703442120460295L562.3536203226786,12.564674323253712L562.5025554744498,12.536939039946901L562.8175368937727,12.71847665431551L563.6536544553664,13.667253852534486L565.1534779759313,13.939504749681873L565.919645296206,13.815331552256339L566.2610462782986,13.673509418673348L566.4806161160186,13.677804281049703L567.21215053795,13.88759507664463L567.6186422044784,14.056019724161615L568.5155384493328,14.568265565677393L568.6123189201971,14.78567855838537L568.5535935708313,16.08849119287288L568.5836406901462,16.256011657594627L568.7733002974792,16.702926856924023L568.8487260958482,16.967382816639656L568.9084781121601,17.633228121128468L569.0063536944363,17.849965838997832L569.1109368340985,17.979463440188283L569.4805369349997,18.239849316152686L569.7745059041426,18.335007113428674L570.6527168105613,18.395646067699545L571.2763827586004,18.545374910500414L571.7147695449466,18.57382761586541L572.0641785292255,18.6520018678184L572.2777936986531,18.729428782471132L573.174005498875,19.260288243410287L573.5961709474605,19.768901141839706L574.0327781777651,20.392364164148148L574.1140901999634,20.62224042128082L574.1090937541549,20.81163665946042L574.2897871368177,21.22547053443259L574.5040183064139,21.464637698185015L575.8529902302398,21.70137080068025L576.5618695348758,21.672747030307164L576.9134687419746,21.70603263909925L577.6434289412537,21.638808564992814L578.0614192775874,21.513402340800894L578.5752318623036,21.429579115591423L579.0034888681075,21.440395083990097L579.9214660076041,21.627060588222776L581.2185570283782,22.02638516071329L581.4266281962937,22.23074512267158L581.7920531849431,22.35026251577665L583.9843293389931,22.62518042364036L584.7114148708206,22.525152465245355L584.9220184838714,22.568408011180964L585.1808069989647,22.733316808493782L585.6228897863202,23.11019357560326L586.1464899292632,24.38289146715988L586.1714037138427,24.525848582446542L586.1423148170124,24.76068571026508L585.8314400654763,25.643382941105756L585.8419805127987,25.882274116639564L585.9037858630054,26.075783637864333L585.9889992196013,26.2445984009737L586.1228081450208,26.319315061033194L586.5138998073444,26.38108134633694L586.9902732707278,26.354343985596643L587.5235240829725,26.15832833779359L587.8204361640301,25.98513217475056L588.2671047304157,25.704411071993036L588.6839999553395,25.342332456470558L588.9346435793204,25.23936977831545L589.8721273908104,25.01871597885429L591.2377313191773,25.817986900803135L592.1997866929296,25.922895814806452L593.0452811459718,26.23025120110742L593.7625791195733,26.767128966610926L594.2100005750535,27.04751901504278L595.1589830563489,27.381267913746342L595.8504090228862,27.443395431022054L596.2818829184571,27.57165357615031L596.7558608256304,27.780567615123346L597.0687204665974,28.28163249673844L597.1485951550703,28.869071124317543L597.1685809383043,29.62516618560494L597.0327186789918,30.752514053554023L597.1143044790424,30.98328185935725L597.2676885209166,31.12430727011997L597.6446121793724,31.330859077090736L598.6751120162553,31.612982597375776L599.6416847245746,31.706803537948417L600.5192111863626,31.485744824070025L600.6469969990258,31.357945765852946L600.8128379331893,31.31233580455728L601.5991963700881,31.224745054406412L602.1081493979209,31.25099449379968L604.1878344101224,31.971318277862338L604.6238256402585,32.24522069427394L604.8702257075265,32.53130132465549L604.9104026073837,32.62743389898242L604.9172470536969,32.84240028700151L604.8620808164142,33.19516981579045L604.7734452366603,33.37298877480589L604.5327945042964,33.56289822964254L604.2417002026041,33.976378698107965L603.527276896456,35.11869295689576L603.3770412998856,35.43355958066104L603.2519932657469,35.85741650656382L603.2359772613754,36.10081560242497L603.2736901605604,36.71740567123925L603.389703525565,37.12424477568629L603.587097357231,37.5278009402673L604.2101473051025,38.36467195863406L605.0018444101252,39.523688858451806L605.3014258252442,39.84510116226829L605.6721894820184,40.11333387770037L606.8492973589255,40.59418848685891L607.5761091129016,41.109850046599604L607.8872576422891,41.41398429930632L608.2675350794398,41.93839954101077L608.4525404632795,42.339762583704214L608.5900453897075,43.02991199690496L608.5885396115191,43.794099295730575L608.6200925090216,44.07245878782987L608.7150934238443,44.505993118536026L608.9419868191198,45.1891061586457L609.0940019717318,45.503612002180034L610.0843249087575,46.19886292681804L610.2626911796742,46.279635879205216L610.6333179475223,46.35000955818168L611.1450087538806,46.335062185863535L611.4784017337861,46.26181022085893L611.9419760825649,46.036756575396794L612.7522216370962,45.302950513782434L613.068024389976,45.104232160046195L613.7607508013143,44.87179733834L614.3756558580735,44.85628897055767L615.1117760590332,45.080645511119656L615.5511895123273,45.35560045126931L615.7471460102688,45.531746769613164L615.9942989666306,45.81392258581536L616.2994928277258,46.32206443951509L616.4316590860299,46.68617600622565L616.5134502194705,47.05165717662976L616.6274786950444,47.29597922803305L617.1273970537441,47.99946162811284L617.3247224409479,48.18211735000568L617.6247145228454,48.365324177018465L618.4340018548937,48.61005497777205L619.1666998326991,48.65432258758028L619.3875701152183,48.61710812059346L620.0647596334256,48.329778420913954L620.4728255226055,48.06016188048852L621.5885387160843,47.73920442304325L622.9243008585263,47.78700574720642L623.9156504624998,47.91555687050732L624.8260302665894,48.24040262104063L625.5173193442006,49.13131483601592L625.5583860220786,49.26132090931742L625.8390083209106,50.319078009079476L625.9211416766666,51.26532901825158L625.8800749987886,51.73839673562907L625.6336749315215,52.58240229918829L625.4077397587298,53.02754267216187L623.7513837509887,55.03025261012681L623.6281152728916,55.308352214146L623.4980707929444,56.0128116924584L623.5342779139401,56.64786438833744L623.9331038005976,57.755333453885214L623.9821784806618,58.25557605756421L623.6017641545859,59.19683097954703L623.3896547633467,59.61265782044666L623.3331880812639,59.86673386903112L623.3160769654824,60.239259885150204L623.342222750397,60.538319336953464L623.608540156436,61.28437281685001L624.0121571555119,61.8385723570982L624.3571856941508,62.13967921427502L624.8149422635624,62.44512195352081L625.643120267433,62.90644992322996L626.2496750996897,63.60397359145554L626.4903942765177,63.98968173599678L626.615031643877,64.29456470212153L626.6668441024658,64.52909344219961L626.7150974489732,64.96610247444414L626.7187250055185,66.05561335622815L626.9009241663707,66.60824896692611L627.2425989263156,67.16407000228583L627.5445074531808,67.4773898262888L628.5669992878775,68.15864275426884L628.9398162785446,68.55718274657556L629.2595888102878,69.0543715229528L629.4256350778405,69.4886371539751L629.5076999891326,69.92712385377081L629.4222128546853,70.67669147295692L629.3504146128616,70.83025449724528L629.8388343017559,71.43919702418043L629.8416405247435,71.64034579421241L629.7803142857802,71.78584154741111L629.2107879080768,72.55319304777913L628.9179140503447,72.79931200788496L628.7288019987163,72.87648198142506L628.3202569982941,72.93165557644625L627.5306816716293,73.14495160400429L627.4245927537768,73.24605193729667L627.3062522770251,73.57346083314587L627.3598442916564,73.82720626672926L627.8781057664746,74.50300609936266L628.0388818103675,74.80161189458704L628.1141707198094,75.03313174315144L628.1705005129652,75.77456170873211L627.9596915665261,76.63180936190975L628.0031538006133,77.13025011854825L628.1356622812327,77.61387339437397L628.5023192702192,78.19699391327276L628.8045015749376,78.50113534547609L629.6332271345136,79.02831325698207L630.067438808609,79.4751308500604L630.2419037451273,79.79600604525876L630.4581882486182,80.42672000582343L630.7137598739446,80.77883056896826L631.0012950635528,81.02774102020749L631.3340035988276,81.19238341498612L632.3848314412608,81.4159906326413L632.8274617843208,81.61338172554451L633.114996973929,81.86262575472438L633.3000023577688,82.082516422754L633.5326450879475,82.52596359429663L633.6409242286181,82.83273997129845L633.6904780199247,83.47880913331619L633.6191588893435,84.13237067833143L633.335730367522,84.82229008861441L633.1743383234625,85.07711541291974L632.9948084966727,85.49377656137312L632.8359488977485,86.1752367167228L632.8179480039462,86.52063939486288L632.8793426873726,87.4316264671661L633.0776262970594,88.20808008842641L633.2604414580801,88.64479576289796L633.3596859296176,88.85217360678735L633.5506459817507,89.0986211029176L633.8758256260808,89.32496763119434L634.0643216775397,89.40643549455945L634.4096239940309,89.48882378748749L634.5153706895653,89.36219969126932L635.0430775002969,89.16295011851025L635.6207487691117,89.2116111393616L636.0496902195473,89.39067652795393L636.4924574515335,89.75266127110945L636.6179845969136,89.92507536370704L636.7494664105861,90.27412694543682L636.7611704137826,90.58307737227324L636.6324263786337,90.91043831707884L636.341126743554,91.27905451151719L635.58878520483,91.86274918697745L635.3784553696323,92.35556478956005L635.3477922501506,92.73007693049931L635.3714055899309,92.91317941836087L635.4618891701884,93.0568574453655L635.7511354713752,93.32606006089645L636.2129987085755,93.51190672179473L636.5056672329183,93.48206850733686L636.612919706643,93.4155766311901L636.7554895233425,93.23819987540764L637.0413136013722,92.64137884960473L637.206401646441,92.37988209391779L637.8321209283749,92.14352098804056L638.6210802548721,92.19925001107231L639.0652163761224,92.414699876746L639.2995017734147,92.75457689067662L639.373148015743,92.9982814442551L639.3572004558337,93.20338698476144L639.2899195485779,93.41520825304497L638.9660403490461,93.98119396563197L638.7863736333302,94.4280685789081L638.8268927555036,94.65172329993857L638.891709662088,94.77243253340066L639.1885532986807,95.07663455894863L639.3269480031313,95.14301553024734L639.8087970235638,95.17717243622656L640.0174841916478,95.1275481866137L640.4338318608661,94.93125668589346L640.9397048878591,94.82832071129542L641.2232018541426,94.82620304705097L642.2710865846611,95.01715804341393L642.8659374137214,95.3336840159086L643.0734610259315,95.60545184560397L643.1148699261248,95.78459814072312L643.0952948096701,96.20721810114901L642.8124822880172,97.07279894507883L642.6704600270232,97.39574827227034L642.1773861146357,97.97690183430768L642.1085309847276,98.10536443267802L642.0414554108593,98.37847614030807L642.1160598756715,98.760976794204L642.5869577820049,99.70125009339154L642.6198111243075,100.03582960202266L642.5780600017979,100.28456703298798L642.3788866140903,100.65139871262909L642.2001096763952,100.78559745393068L641.3763121181637,101.0576647198759L641.0479840285298,101.27508872388671L640.9337502195667,101.46022388255142L640.8501795300854,101.689312512583L640.8660586455317,102.03260684135012L641.1091733785688,102.45992644184571L641.5215512689256,102.92776298648869L641.7510455538004,103.29121168589518L641.8520695813795,103.59653534262907L641.892657148016,104.2651396391625L641.9387887161647,104.49954221348162L642.0482998571733,104.78761476368527L642.2151674582838,105.06234597397497L642.6800422518609,105.58962111294932L642.9971454495426,105.80274191076523L643.5039766990185,106.00758424157402L643.9839777189472,106.3486046933399L644.1372933163584,106.51097530308243L644.3916329413487,106.90167555797507L644.5433743161075,107.31081710745275L644.5514507627577,107.68364126713732L644.3463911512208,108.5582795741675L644.3530302641439,108.80132893975951L644.4531645137031,109.20886876611894L644.5732845464963,109.48899583349021L644.8363166183044,109.81355916603388L645.2113238317916,110.08401492890562L645.5148750257731,110.21450883056059L646.3915801540033,110.45703062290522L646.7665189230293,110.67126060221881L647.1693830330114,111.06627545369611L647.3290639654924,111.33079753596621L647.4967529001606,111.734581654875L647.5201609065507,112.030929447365L647.3917590937199,112.40630025351311L646.9274318558473,112.94824608866975L646.6299722190843,113.42415160734254L646.5344237485551,114.01803873758081L646.5781597604955,114.91320738365039L646.4676219525409,115.25297795058759L646.1419631969693,115.67328270750022L645.6618937325766,115.93888222968963L645.2632731793083,116.0620906524L644.9031868587808,116.3131783197914L644.7765646019907,116.50838997943174L644.6531592349684,117.08820751785606L644.6599352368185,117.3907980565823L644.7108579173873,117.66081419883221L644.9142748618087,117.99382317890286L645.9416262533887,118.52901932997474L646.4835695124493,118.9158049300645L646.7936913748908,119.34648438988643L646.9151802969473,119.58404607152579L646.9755483134268,119.75641211945685L646.9873892055484,119.93390720721618L646.9366034139057,120.103879414522L646.7386620265352,120.41034873796389L646.2955525722318,120.73137728995698L645.737730197724,120.79866089839288L644.742547703816,120.5702235087847L644.2737715758394,120.76676086369389L643.8779572455596,121.09235310777649L643.7132798672692,121.37384024280755L643.6281349551355,121.61471143228391L643.6058905046193,122.14463007478616L643.6567447407242,122.59175198428511L643.8527012386639,122.90899644882393L644.0677537418196,123.20029284569955L644.3069671404573,123.44512096776225L645.1040713580687,124.13392043170825L645.2343896158673,124.34902780665334L645.4067327740277,124.89372375924995L645.4319887809233,125.38570239589444L645.2484207308089,126.09387443553624L645.0449353419235,126.47173902578015L644.1246995351421,127.52772672274841L643.9818559405912,127.74756304858829L643.8643367973973,128.1337446542907L643.8537279056118,128.4872187635574L643.8911670269435,128.80725891257043L644.0094390592321,129.19529348421565L644.1461226521023,129.5141053591292L644.4504267351786,130.0089024577701L644.7873103827023,130.3477129671146L644.9905219937355,130.4931337760122L645.8675008998171,130.86467729539982L646.0668111764526,131.02701434548908L646.2279294426598,131.24726949118212L646.3356610276251,131.5155542397997L646.3829561516486,131.80084505255354L646.3811765956079,132.07669847189572L646.2971267948833,132.35528363273306L646.1342289726354,132.66614904166454L645.6527906189804,133.2831656995395L645.5300696965878,133.54065619830135L645.3768909881037,134.21666402192568L645.3539620929541,134.55395305123238L645.4974216876753,135.27885814774845L645.7969346583313,135.9634447136168L645.8991906862466,136.07160707946423L646.4280610528513,136.29066866861194L646.9361243026642,136.57838039226317L647.3155119617932,137.00914471194665L647.5816924789051,137.39106527954755L647.972031252134,137.81811432394124L648.2625779981208,138.0585900643032L648.6439505466797,138.20372994754416L649.1516031297142,138.2215522948486L649.3295587338516,138.13801529030115L649.432088539621,138.0414070212869L649.5893739158919,137.69353106837661L649.8434397630308,136.37359178607812L649.9908691366118,135.24676192163997L650.0695802692117,135.11279715966657L650.3506816792851,134.81257705052985L650.5899635223877,134.68646725606504L650.80980713796,134.65519087919665L651.2510001472956,134.70567196689944L651.589731795325,134.84549867163605L651.8578972018686,135.10685326032217L651.9695985656963,135.3324429119857L652.3554884488212,136.72831041210293L652.4390591383035,137.28795464066707L652.4439186951859,137.57278426533776L652.4279026908134,137.77131593247213L652.351929336739,137.9761475628743L652.0808892627456,138.43057243357725L651.4353895309678,139.0847294262776L650.843208035968,139.53906918581697L650.6215848643542,139.84635927264117L650.5809972977177,139.962034369722L650.5998195250786,140.09113826617613L650.8156249173271,140.55353188159233L651.132659670544,141.0417423362578L651.3327912807363,141.24024903517238L651.6151246911468,141.39526781662835L652.5521293913944,141.57503701986752L653.1035179863684,141.62947824260482L653.7546301641214,141.85418000689242L654.2999956463409,142.20199421799862L654.5157325941263,142.26592843137132L654.8793095822721,142.26556309496846L655.6015355572181,141.9594032678565L655.9092618634495,141.95063473418304L656.2629828489044,142.04854928993063L656.5285473658487,142.17568965553392L657.0218950560884,142.57901344261518L657.2398222266938,142.90925087576625L657.3936853798095,143.29280000583776L657.4221582764721,143.62555441837685L657.3734258187242,143.95609874957017L657.2874595730318,144.1606252326219L657.145642645427,144.37244879045375L656.6802202961444,144.9063566435898L656.5783749350076,145.08711481826958L656.5115731389915,145.31387636793124L656.5712567108412,145.980873836741L656.7360709780578,146.61685680657683L656.7475696478641,146.9658517610178L656.675223850335,147.4360133183577L656.2568912916859,148.32950955334172L656.2158246138088,148.62986632875163L656.3732468790058,149.42356710160539L656.7770692114736,150.29003936355457L656.8112914430376,150.7278338385363L656.6607136241528,151.22031401520871L656.3527135400682,151.59420685438636L655.9762689928539,151.87689068030068L655.2096225613368,152.24162411019233L655.0248225108862,152.39662903117232L654.89477803094,152.6336875517004L654.9016224772522,152.9710237402046L655.1480225445193,153.4815501614089L655.5723782159248,154.0102633934357L656.0925561357117,154.48415098548685L657.0234692787399,155.09479860035208L657.2698693460079,155.19504817877987L657.837958389985,155.27706930254408L658.8304031053685,155.18593465066397L659.5559144145445,155.37731580451418L659.9392718525351,155.59602957251718L660.2746497218704,155.9787592892817L660.5142053428253,156.47080412306286L660.7332276248408,157.5003216557152L660.6374053764594,158.07422302109308L660.3635590794765,158.47501015491434L659.9871145322631,158.81201478174307L658.6113808233531,159.54051705547135L657.9268677475911,158.98497270971393L658.4881807897191,157.70984762540093L658.4881807897191,157.15413212708017L658.3786696487114,157.03569423674207L657.393000935178,157.01747281329563L656.9002008006437,157.263457315109L656.7564674280711,157.81916258997762L656.7564674280711,158.47501015491434L656.8180674448877,158.81192370199187L657.8242010528975,159.7226514418703L657.4956676298734,159.877461283279L657.3861564888657,159.99584255978243L657.2834897941702,160.34186662314323L657.3245564720482,160.89728420043502L658.0021566570349,162.7634714846895L658.0363788885979,163.1275373343583L658.0363788885979,163.32776405602544L657.920023301278,163.76459897112L657.7489121434537,164.12860357119962L657.0781564047811,165.20228744199585L656.9002008006437,166.0210686950927L657.0029359398022,166.61234068459862L657.194580436565,167.03983924030263L657.5299583059013,167.43092805779997L657.7832028194816,167.5764429220726L658.1185806888179,167.64010455715106L661.1918055278102,167.28540963778914L661.7394296773127,167.39454878615834L662.191163133969,167.60372656329264L662.6086743590622,167.9856844168221L662.800318855825,168.49492345441922L662.759252177947,168.8495463538511L662.4649409864896,169.2496083853298L662.0132075298316,169.36780338982044L661.1724357447456,169.14923170945258L661.0169299245135,169.06449211217523L660.8597814371678,169.05576350149477L660.7042756169376,169.12013670463784L660.4046942018176,169.39071476551817L660.0624718861691,169.86783323423788L659.9118940672834,170.32236940884422L659.9187385135965,170.68597338692598L660.0077847601278,171.31313811410746L660.2268070421433,171.84935706747137L660.9249405660676,173.06703113979165L661.1165850628313,173.68486018960402L661.1465637376823,175.1957276890048L661.295909556231,175.87700083007167L661.3425202356229,176.36431634438577L661.2568277677838,176.80855067391394L661.1456739596615,177.0936713920869L660.7919529742067,177.56000509184923L660.2805359457006,178.07242168166067L660.0565856623389,178.47041300396995L659.9854034206846,178.90541331427858L660.0237323200363,179.19588001317743L660.1858088087292,179.5509563567316L660.8483512118264,180.28609332941278L661.3976180284426,180.80989127770317L661.487964719774,180.94963556621587L661.543267845982,181.14853868107593L661.5810491896309,181.52019390438227L661.5251985077166,182.08235107887776L661.1172695074629,182.80810522490992L660.9464321274909,183.2344446825009L660.8703218844903,183.53413404456023L660.890033889872,183.8468689043657L661.020899703376,184.24157353428927L661.280577996491,184.62781829660844L661.5116465040164,184.8180747974302L662.0297026454464,185.13582048573426L662.5906734652581,185.33657917524533L662.9632166780748,185.61222601403915L663.3308318895442,185.95894267655376L663.552591950086,186.35133205364173L663.6362995284926,186.5910323040389L663.6872906535255,186.8910973664224L663.58462395883,187.6634916774169L663.0287180292889,188.86335586114592L662.8696530969755,189.83075749863974L662.9060655513613,190.47965174498995L663.0408326992638,191.21054750032908L663.1322745020052,191.4886413127815L663.3647803432577,191.88709915049776L663.5250772759073,192.08989576446038L664.345726388834,192.83128129543366L664.6473611378478,193.182832237786L664.8811674238987,193.63822394116005L664.9572092224353,193.86097203722147L664.9778110058378,194.24297479315328L664.8932820938726,194.65464852436617L664.7992394015328,194.8757292730952L664.5357282184823,195.2734186996763L664.2854268168167,195.49130836046697L663.9158951603786,195.71208668658983L662.9750575701955,195.96634734167947L662.715926832786,196.14058524236725L662.6097010260091,196.2327256273079L662.4136076391424,196.54977548018633L662.3556351788711,196.678020685124L662.3005373860515,196.97368918818938L662.3073818323646,197.19577035486827L662.4036147475244,197.59692546341466L662.7988815220997,198.3723736788811L663.0810780435831,199.3003366490875L663.0730700413978,199.67873641050573L662.9842291282557,200.1300167936506L662.6201045844045,200.89781192632927L662.5563827892302,201.11296506435656L662.5228450022969,201.47316424924884L662.6321508099154,202.15506889198286L663.1749154025356,203.34426046928684L663.2633456488984,203.60208496526775L663.288464766868,204.032551258264L663.2148185245396,204.38190954723086L663.1004478266486,204.623601160386L662.9652015675047,204.79822046078334L662.6951881604591,205.11020876382509L662.435372978417,205.33379643549915L662.0140288633902,205.60382574314963L661.403572696735,205.85323961863878L660.8363734307777,206.1447515500613L660.6068791459038,206.32809139172605L660.2172932617686,206.73785242450867L659.9013536199609,207.21218255243775L659.692803340804,207.72983726922166L659.555435303303,208.25458341654985L659.5410619660452,208.65536141039138L659.7845873658607,209.62734252725295L659.9331802953166,209.94467902210818L660.3550035215849,210.24195231195108L660.4737546651158,210.25703230884073L660.8022196436759,210.40512128668524L661.562158517806,210.80467243525754L662.0250484219541,211.3277057097307L662.2158031406971,211.69920956748774L662.3456422872532,212.0557955729464L662.4754814338103,213.10214061891247L662.5580939008096,213.34925800601877L662.6967623831097,213.56324371531355L663.4239163594011,214.13142864004203L664.0579858658366,214.4887728693393L664.6577646962432,214.6394647059451L665.3314635468305,214.70118410547138L665.9350068227086,214.92694178004058L666.3459473793409,215.1972623707734L666.5455998782909,215.38988996276294L666.8644826320124,215.74905403508683L667.2517414044005,216.27310101845342L667.4857530238423,216.72115252851336L667.5888988297784,217.00104376879153L667.6493352907219,217.37156620395763L667.673906852985,218.3509777558652L667.7530970968273,218.63602333085737L667.8970358027891,218.86001045213516L668.0620554033949,219.0123962851494L668.4978413001427,219.31273837750405L668.9614840933846,219.7366722201914L669.0700370119084,219.93636700204252L669.1425196983628,220.25072637012408L669.1266405829165,220.55632529092418L669.0448494494776,220.8189116298263L668.8330138360898,221.19857339638565L668.4396635064832,221.54711645395628Z" class="state" fill="coral" stroke="#111" stroke-width="0.5"></path></g></svg>