<svg width="800" height="1103.2" xmlns="http://www.w3.org/2000/svg"><g transform="translate(0, 0)" id="single_state_map"><path d="M701.8626423892238,511.1519042235077L701.8303511575341,513.2121943360235L701.8087726567392,515.1637296726904L701.792397482377,515.699149745572L701.7945400285571,516.4845675950028L701.7255194338104,534.0363442123253L701.7385277498943,548.4241604889139L701.751689104989,549.8236637746413L701.7513830269654,551.3532917761195L701.7501587148599,554.2411717680206L701.8057118764864,577.4963005158488L701.8453489807853,581.226585678065L701.857439062791,581.2218156307208L701.9120739903374,597.532262024366L701.9226336822176,601.1368491318426L701.9186546678866,604.8904921376161L701.9604343183619,611.1233364170776L701.970381854193,611.8805041236419L701.9648724497329,614.7711617571704L701.9708409712293,616.3060692183635L701.9732895954312,616.9311253186006L701.9915012379497,620.2513973559808L702.0120084656555,622.5783424827814L702.0120084656555,622.7915568052222L701.9674741129511,640.3700158484544L700.0748406424209,639.3767145384236L698.4852244171125,641.8344064863722L694.8228478032852,641.8630990785405L693.1772192993158,643.1516319343691L691.4458889482139,647.2916561020247L691.8209875684352,649.946894844481L691.8823562125417,650.5581704265815L689.9686033582548,653.3573135871484L690.6583501886671,657.5304585703843L692.5035415652437,660.2321516157817L694.026432781,660.997502632079L694.6955193446884,663.0953318480633L695.4002639983464,665.9713533186159L695.0221045978724,667.4095354379842L693.2491476353007,670.0360402875986L688.3240461273763,674.5839967797274L685.3185129562189,676.1756466768838L684.4683812404601,680.4834182934437L684.9037772316988,683.7070080633357L686.5719024705395,685.6520860254341L686.4756409315287,686.5209705105799L686.4756409315287,687.2600220087343L686.5712903144886,687.9990342147075L686.8579323853464,688.491687193331L687.6226683320001,688.9845199226847L688.5783969665445,689.2308311336465L688.8651920764169,690.0927874138843L688.960688420364,691.3243988606L689.4386292571453,692.1864225433364L690.2032121647808,692.8021491993031L692.0617179354704,693.3553532964661L695.7017508534391,697.7614713166013L695.3284887013706,702.3377995758801L696.1443396782779,705.2236361767491L694.7025591392758,708.7305933073121L694.8246842714398,711.255189840771L702.296507990337,714.5746109853953L704.9454602618152,718.0205706744455L703.929434256248,724.1616682766371L702.5797832029111,727.2137004839278L700.0632096774534,729.6905152493673L699.561088676659,733.5202081930056L698.6407120540553,735.93202792383L699.0797809815995,736.6757357864335L702.8479075532305,738.791273907259L703.4925078748802,743.1567404247971L702.626154023772,744.8175742816229L707.3405208111617,752.583849020979L706.9715437514496,756.6659445254782L707.3471014887091,759.6184755049499L704.2537239242392,764.796559256949L703.8096047092731,768.5492047024L702.030985303234,771.1298771910824L699.8414561479985,772.3890620421498L692.4741580747996,774.39062558156L688.4275004999872,779.8606847759174L688.082397526261,783.8993966527951L687.3213345159165,786.5303211657683L687.8118245517417,788.1918997650309L687.8505434219642,788.7736506286174L687.4596817834317,789.3450001386282L687.0131139442638,789.5593970641812L685.7291166273917,789.8450587545667L683.6206981489049,793.8280543231231L683.7469553344126,796.1622005015352L682.2122801146797,799.1263954471542L682.9701293057569,803.01678541623L683.2728404729514,803.7647689521546L683.2171342723159,804.8348405369579L682.7705664331461,805.7622614066222L681.7579072858589,806.5910603497605L679.5123658519569,807.4696747789021L677.24524591726,809.5032037345236L674.0530051505648,811.0981453830827L671.4940398185754,811.3255046869017L670.1543363010696,812.0386423174623L669.5401907429532,813.4646138712669L669.5960499826015,815.175784778271L670.7348132763818,816.3548180094858L671.5910665526499,817.6187540838346L671.5045995104538,818.3241484316095L669.9220230797328,819.756713352801L669.2771166800558,824.9488350286356L663.9602352995207,832.3984782635889L659.9691308863294,833.9012467245711L657.4216434802966,837.0688534065639L655.8909472748946,841.3727021801642L656.0058795734603,844.807973206478L655.7327049357227,846.38918140447L655.0461719245814,847.4388671917368L654.0163724078684,848.0511316927568L652.7807354190245,848.3135783640273L651.6822213855921,847.8762295366896L650.3778698800288,846.38918140447L649.348070363314,845.9517730895823L648.5929758744678,846.3018178285065L648.1809948521786,847.5264187388893L647.4545186587093,849.0866563575828L645.7782823521939,850.8498570941574L644.3365018131899,851.2871140440775L643.5126928076243,850.7625210516071L643.0321503076248,849.1882354719019L642.2770558187804,848.2262266691368L641.1785417853462,847.7013252187635L639.6681997686374,848.3135783640273L637.6177830759771,851.3356539960714L637.7475601587757,852.3128506384119L638.5698387742177,854.609669684467L637.8147442853697,856.5329495476954L636.3781670728004,858.4774008177092L635.0401469844328,858.4245988221228L634.0388127240913,859.3299991563836L633.4209942296693,860.2039761027918L632.9404517296716,861.5148404620104L632.7038534159783,863.7679035809706L633.9916767081668,866.1294663885619L636.4891203570351,868.7499784711754L639.9077058235725,871.1225865891938L641.1785417853462,871.822398080104L642.1397798243524,873.4813682064269L642.2770558187804,875.7514080057508L638.6359516277207,879.9913854234492L634.2284280608728,880.893075932906L631.7046617018132,883.0823796082541L630.3317487185432,885.001803323994L630.5375861906759,887.0953891098352L631.0868432073912,888.4037722523562L632.3226332352478,889.7991315756817L632.5971852241,891.1943539733566L631.7733762185326,893.6359067873236L628.8214067018325,895.0307528669928L627.1737886906976,895.5539063482156L626.4185411628368,897.2101082976715L625.7320081516955,899.7376648212075L626.3378896031245,903.1955459333867L628.3667277949899,909.05673816538L628.3123989454671,911.0986466789982L624.7626590450145,915.7175843641244L623.5351331238453,918.8107257139536L624.5649326405583,921.421357583783L625.4574561628451,923.6835706561405L625.1829041739911,925.1625534330033L623.6725621572841,926.4674452261415L622.5740481238499,927.3373068399314L621.956229629428,928.3810320602988L621.61296312386,929.4246810084569L621.338411135006,930.7291834303478L621.61296312386,932.6421994332095L622.1622201405753,934.1202548562051L622.8487531517148,934.902635901547L623.4665716461368,935.511146415739L623.6725621572841,936.2936451086098L623.5351331238453,937.423522444582L622.7800386349954,938.2927173281723L622.5740481238499,939.0748700514887L622.3680576127063,939.9439645602952L622.3680576127063,940.7262206927026L622.7113241182778,941.2475073004189L623.2605811349931,941.9427202600764L624.3064497480427,942.2704600946545L625.7944480688948,942.6942638302908L626.001356814113,943.5420273177242L625.3267608459664,944.0965230724487L624.808111631799,944.9571787738441L624.3578708563236,946.4308636696178L624.0358767735215,948.7979307709702L623.7712723204986,949.7585869525401L622.647965967004,952.283244969939L621.171751650134,954.5032289382243L620.5268452504588,955.2701756899014L619.1898964351822,956.3072205743902L617.7533192226128,956.8678011929678L617.1448361079656,957.2164840455689L615.6361775203968,958.2578381498734L614.7049351278874,959.2579080125361L613.9023985450895,959.6682473072697L612.2625855236056,960.3128490125346L611.5572287138966,960.8734664232443L611.1561134615094,961.374676194403L610.037704356424,963.2996540446866L609.7406556326987,964.3912368670944L608.0339645626464,966.1139274726656L607.0832862155185,967.5626220556433L606.079197252946,969.6035404154036L605.9009068031064,970.1245506461801L605.776180007726,970.947108998902L605.7953098843172,971.5772863247003L606.012931360432,972.5891849757745L606.05363973782,974.3574685164249L606.2903910905243,975.7386617017437L606.9233604472083,977.6659646301068L608.5250667545242,981.3540558875038L608.7504932202846,982.2385547319982L608.8309917409842,982.9908864230401L608.7217218858896,983.8403268364045L608.8697106112086,984.6928070596459L609.4526362107263,985.8835681653864L609.8767073150229,987.0518318210652L610.1477394065823,987.2964793137526L611.6941986302973,988.2236690487725L612.7940900148442,989.3776490742493L614.1324161812354,990.5377140225391L614.807471266422,991.4739604970173L616.0868774129085,993.7309327110697L616.8161083086052,994.601933192991L617.0999956772321,994.7829588061359L618.3469575530216,995.1992318821776L619.2351959829502,995.8173472060671L619.7285937600172,996.4983433180087L620.601987405711,998.3395152366747L620.7156953921767,998.7624382651484L620.6759052488669,999.8119746005523L620.9109731724293,1000.3697025837619L620.7164605872404,1002.1600351633442L620.4789440394707,1002.9196198740137L620.6572344893102,1003.4265017629405L620.775992763196,1003.4897643085551L620.7576280816684,1003.7250676803569L620.460732396954,1004.359403282222L619.9260140864499,1004.9292978931708L619.8072558125641,1004.8660416676958L619.2131583651171,1004.5493706569468L618.3559868547727,1005.2083548172113L617.4095936000031,1006.6444386114044L616.875028328508,1006.9606779357919L616.4593743699152,1006.9606779357919L616.3406160960294,1006.8341830386735L616.3406160960294,1006.6444386114044L615.6271482186457,1006.5815755775029L613.5459706844231,1006.7080726916274L610.7005163205886,1007.0671179037536L609.9937821597669,1006.8650355549689L609.6090420817436,1006.851344759014L606.2545799615455,1007.7554878475521L604.0044473572598,1008.0109669272406L603.4659030714374,1008.3622673698537L601.4255869536155,1008.7274410822192L598.6237487084127,1009.0567450303297L595.8554260069977,1009.5961857132288L593.9008117363101,1009.7078115542827L591.2365555635588,1009.7199573190501L587.1850007403391,1010.5203984985019L584.7128085285731,1011.634618841661L582.4533405445127,1012.8345263090096L581.6973278215883,1013.6850990429575L581.1350624887891,1013.9689976082618L579.6929758717597,1015.0075985860394L579.3010429601381,1015.4134594436291L576.9714831082438,1018.5898032051591L575.4363487714727,1019.7199689890595L574.9587140127151,1020.0915981045091L574.3597193168607,1020.3358778690917L573.4808162667105,1020.1303209611824L573.1393862292898,1019.819764579699L572.5177417595496,1018.7633990309441L570.9625593121073,1017.4807444091521L569.4825190199208,1016.4860642838203L568.4438432404695,1016.0039222788455L567.7274676218458,1015.7977255358546L567.0693998670722,1015.9418708586691L566.2298278431936,1016.4199682312355L565.0993286560988,1016.9105748625925L563.9972947253718,1017.1556792329256L563.0559517580223,1017.4934616886712L561.4040486545309,1018.398864652575L560.5052505327221,1019.0221511977334L558.9961328281152,1020.5508714659172L558.3284236155396,1021.3776808063112L557.3538711824258,1023.1844758516963L557.0583528488314,1025.4615246349604L556.5089427930998,1027.471338716734L556.4325763257439,1029.338980838571L556.1494541521806,1031.1305352033833L555.7691522055247,1032.2880161310713L555.2544820056901,1033.1645831237975L554.6688017039414,1034.5797975049663L553.6849138910493,1036.4786578734593L552.9930245144624,1038.3959325182204L552.446675238989,1039.2627020088676L552.0120444428121,1040.1911748299044L551.5278290065089,1041.6491763366394L551.3322451482327,1042.9773900026948L552.3043489571428,1045.0247739292272L552.7091371458337,1046.3213327335534L552.3439860614435,1047.19166588407L552.5424776609616,1047.551052450016L553.6526226593633,1048.8358489884822L554.9372321322844,1049.822922943742L555.7186493313202,1050.6626711316494L556.0698738655537,1051.297640706931L556.8736347604536,1053.4443738525515L557.1109982692124,1053.8970156137466L558.0944269650645,1055.2608137803518L558.8247291338485,1055.862143434275L560.0824037405273,1056.5328204640327L561.3235501338313,1057.7799282182104L561.7656798416301,1058.4560886427535L562.6545304276115,1061.2401386310594L563.0262621895527,1062.641663607461L563.293468305792,1062.9745443108495L563.9556681139093,1065.6895515016113L563.9054713177302,1066.035421079191L564.256542812951,1066.7597808523778L564.4986505311008,1067.0727883397285L564.7754981051457,1067.2475319154237L565.3408242181977,1068.2709877653888L565.2837406664476,1068.7561919987247L563.764828465024,1073.2631892128138L563.5922004586555,1073.5259598489902L562.4124227094599,1076.5704128990328L562.4124227094599,1076.699945862455L562.5340887245893,1076.829477671402L562.2491300828697,1078.6027000389122L560.0540915231704,1083.3613734575038L557.4250343233471,1084.4303020658836L556.3952348066359,1084.6430043099726L555.2915174467726,1084.4972393563257L553.0924998727442,1084.9976289994947L551.5745059053934,1085.0041498701157L550.490989695214,1084.9364477474383L548.9391741060517,1084.6280442898815L546.8231036769266,1084.0888979132214L544.584295959583,1082.9366956449494L543.1544524635756,1081.7468028294052L542.0306869930428,1081.0487049677104L541.2781941674075,1080.1441397538965L540.1193827629595,1078.400462685573L539.3978038178993,1077.9963633032794L538.2925560679087,1076.9755114078735L536.7168663927605,1075.888570726499L534.5056056977119,1074.6002181235535L533.783873713639,1074.303687015209L532.6556701117352,1074.2449558640847L531.600466118909,1073.950336866571L525.0358576675244,1070.7765179422358L524.0845671643438,1070.4353688739166L522.7730228251821,1070.149120000403L520.0686704310938,1070.534047593629L519.5764969661286,1070.427881550695L518.250413920754,1069.8976156629142L517.357890398469,1069.4066896853165L516.1139893029358,1068.4368845075132L515.042257096733,1067.834539713259L513.1615606691976,1066.305811988349L511.5404184072686,1065.1308807891237L511.0023332384808,1064.4173872651945L509.8574483841894,1063.2478734197375L508.26186363738634,1062.043496400168L506.9844469980635,1061.32485636213L504.6559584192564,1060.6317316828245L502.4956597154487,1059.8088912915327L497.21902759526347,1057.2678391692407L492.1211450419578,1055.4253219104294L489.96436623544105,1054.4659210906593L489.3607803692048,1054.3740520558313L487.69770541778234,1053.8312825283538L486.1113030117431,1053.5971780658956L482.32817861686453,1053.3895945913164L479.81390067659595,1053.6213959442657L477.1038858390348,1054.444779732552L475.946298746685,1055.1785590152285L476.34603664795577,1055.0603650191888L475.1090223079973,1056.0420185992716L472.66376496247176,1056.992475742024L471.5026579728328,1058.3782712734892L470.93717882076453,1058.5802112860574L468.370255460115,1061.2918145848234L465.587241013478,1063.9122548948153L464.0101739872134,1065.7412116122869L463.02949999359043,1067.500810353372L462.5980830166827,1068.662109342562L462.45789928101476,1069.4667843706911L462.0939725087246,1070.4714615573375L460.2357728160623,1074.6781405045695L459.563931550143,1075.3059186297787L458.81618293390784,1075.7461724040568L458.57820726909813,1076.1578187275882L458.1111322022225,1076.6431434013648L456.6023205756428,1077.705274308917L456.462136839973,1077.9127021984777L456.0972918336065,1078.9279240379637L455.6245543232617,1079.5113902751827L454.81712049205635,1080.1159371342446L454.3272426122803,1080.2859194416114L454.0981432102144,1080.159488095349L453.6068879793256,1080.462614519167L451.52815906930664,1083.2804285978473L450.35924709001665,1085.6105780632424L449.79927734240846,1087.3474464611154L449.495494902123,1088.6335198234501L449.32103042760355,1090.3648510781413L449.5750751887481,1092.3647329378537L449.8618702986205,1093.498554671768L450.68522018714793,1095.3230268528396L451.0639917436747,1095.9625634350923L451.7791430501966,1096.869978758883L452.6637085438215,1097.4996745264652L456.0657657969841,1100.3664967250315L456.9460461982526,1100.919984061089L455.7019920637049,1101.4533351504315L455.19757547772315,1101.5075504220822L454.31423429619826,1101.7943324446896L452.4953656298112,1102.7268618392854L451.23417112583957,1103.2000000000016L450.12815818078343,1103.0875592449856L448.86466809162084,1102.583193366836L447.85369237347186,1101.342413524665L447.40345159799836,1099.470028719763L447.40498198812384,1097.4996745264652L446.8756200430671,1095.262847257377L446.52286511870443,1094.4116818293005L445.8732145096328,1093.667422342176L442.7444849332205,1091.5530808789072L441.43278755504616,1090.3644676388658L440.7900237015492,1089.2953996743372L439.6583002023526,1086.4325336774855L438.23779208611995,1083.7031783005277L437.47167878835535,1085.2266248817004L436.7756573584229,1085.084126192687L434.3437144070049,1085.0054924019414L433.86730396035273,1084.8929110885074L433.8371552748431,1084.7155026509445L432.2530484539948,1084.5986995904059L430.1579443696137,1084.1558367746484L430.07163036643215,1084.4019159585941L429.68459470321795,1086.4106717167397L429.90160402328183,1087.2022838831917L430.2082942048073,1087.842177262969L430.6130823935,1088.3919223446883L431.1309664126038,1088.8871928600292L432.68936267931167,1089.764181071415L434.7507981808885,1090.5824512367599L436.4998810574707,1092.0120129915376L437.46142517450244,1093.0461866778614L437.82795361000717,1094.5397143941773L436.9221156936146,1097.4998661521995L436.506614774029,1098.2180616911755L435.99821917371446,1098.7739299339264L435.28903638868724,1099.3307349819033L434.6110735622606,1099.68040380827L432.5447408122727,1099.0061581629707L428.71295001134604,1095.0627578976082L427.8231811912883,1094.42586513294L426.57101598906775,1093.6886983796921L424.3011413521417,1092.6181492768592L421.79114850422775,1091.729639180675L419.3608889819534,1089.9181374762493L418.8456066260642,1089.2652974491393L418.49468816985427,1088.607442828341L418.3808271443795,1088.2603842534154L418.26558876778654,1086.9412944173182L418.3035424429454,1086.4392456763899L419.2672291061572,1083.9937636432223L419.75343404962587,1082.0744502866346L419.76827883385886,1081.032590194297L419.29462308943585,1079.3730565965088L418.45826488482453,1077.7073850609095L417.865238710463,1076.8987527280124L417.04234793897376,1076.1856452144875L414.89612882434085,1074.6291991564322L414.2412748888328,1074.0150192039182L413.8217949549198,1073.5269195577212L412.1216845624167,1070.99594723862L410.6491431818522,1068.33588741107L410.17885429570924,1066.5698607495624L407.450168698595,1061.4161050655257L406.5691231022629,1059.2265541353254L406.4445493458952,1058.4899054434363L405.686241037778,1055.6365276255083L405.70628914844747,1054.936212239204L407.113941987609,1051.3756883316573L407.18587032359756,1050.9477668778763L407.1225121723219,1050.0880410108539L407.0335965059221,1049.7813956713953L406.7481787471679,1049.4130281738026L406.4469979700989,1049.231724864475L405.2433461349174,1048.8785325804756L403.9149675043536,1048.9371742472476L402.2759196779298,1049.2711388203998L401.2856042265048,1047.8946630475848L400.38007238813407,1046.882459389818L399.6959880011982,1045.959607965482L398.6045137623514,1044.300481252758L398.1259607695192,1043.3857359068406L397.9257857408593,1042.697715459446L397.9176746731828,1041.9558015797074L398.0249550211138,1041.4391131356324L398.32353413496276,1040.800055969129L398.49738645343314,1040.0380367103353L398.5835474176056,1039.181318314465L398.9202332456298,1037.8250484203936L399.24819584992656,1037.164087729242L399.48158034435073,1036.8943070299765L400.87178673606286,1035.7727966624216L401.4732300561209,1035.1367608033333L402.080182780639,1033.8730737329652L402.41518517952136,1033.4867860912154L403.1488542065872,1033.0483265268922L404.6244563674027,1032.563464845316L407.66166861419697,1032.3482649705184L408.7584992184893,1032.1188175683128L410.5208964891772,1031.3553782662293L411.0112334859914,1030.8519790584332L411.4853483474526,1029.9086599123084L411.72301793423503,1029.0996665740786L412.6639017845464,1024.4065347388623L412.81433913406727,1023.0317352959373L412.77363075667927,1022.182483751335L412.5984010870943,1021.208739690006L412.06659051783026,1019.2169347649087L410.8132010035097,1015.4834143638218L409.9502140106797,1013.4881206519085L409.38029672724406,1012.5380765284035L408.23617706801633,1011.0075431400719L405.13989176230643,1007.8449542442258L404.4781510712255,1006.8972377984137L401.9490283467203,1002.5348174905639L401.0861943929085,1000.4244903315939L400.697169222527,998.8799361169331L400.2861064343142,997.9314367615016L399.59100323845996,996.6864847646893L398.834837476521,995.627457592791L398.21548859197173,994.5181743030034L398.1230530282792,994.1862218342403L397.50446933879175,990.9961928473185L397.37714088019493,989.6583590082773L397.4767692774858,986.1373115147817L397.54869761347254,985.7155621137836L397.7011244701607,985.4079321514319L398.2015620418115,985.0688170449921L398.5986982798677,985.0087565311624L399.27222297492517,985.1377607981622L401.64295032124573,985.9162035959707L402.8655789940076,985.7738816783012L403.62220387298476,985.3644810612468L404.16855314845816,984.8021155475035L404.40086636979504,983.963740673521L404.4158641930426,983.4283602995683L404.3267954876301,982.9346802047503L404.03831694861947,982.2943773577581L402.9068995274465,980.6933988258816L399.7281261938715,977.2364307398266L399.12163258639157,975.9407952439415L398.33761372413574,975.0342639797209L398.020976006781,974.112214084721L398.1100447121971,973.6151213299063L398.3053224924479,973.2737949542507L398.2987418149005,972.2594317606272L398.1573337671307,971.2376512464862L398.2615533348053,968.9398291141315L398.60114690407136,967.2770327388926L398.8899315211056,966.4242914691267L398.89467573050024,965.5463597429125L398.55095010789046,964.6958363104668L398.1790653069402,964.1467790470724L397.37362098290214,963.4286601005197L396.79482743672634,963.0484080350125L395.92296418115984,962.6822656675304L394.81725731412917,962.543001456921L390.52420692880696,961.3562994570648L389.48170517403923,960.9934024288332L387.9819228492088,960.1816869089816L387.3855298165672,959.3596717053324L386.7617428006488,958.1816063213009L385.95415593043253,956.3846234146586L385.060408096042,955.6868217021392L384.08845732614645,955.0691053046085L383.518999159749,955.0009845725626L383.0433539081605,954.5531601050143L382.9503061884152,954.1790591844647L382.99024937073955,953.4240539027005L382.92046358093285,953.2337963579766L382.7844118986086,953.1267632815252L381.75216375769196,953.2428931648474L381.1419972139047,953.4335376816252L380.32170810563,953.8889452260973L378.4762106510261,953.8258509522475L377.84859765978945,953.9439105633028L376.4827244711032,953.5157946844147L375.7332924257262,953.0625043414302L375.39752483177836,952.6670732527728L375.02303836760984,951.2368106198946L375.25550462795945,950.3248444079027L375.6142280738168,949.4894858155803L376.0641627712648,948.0912400684274L376.2115393405311,947.0650243289438L376.1881243715816,946.0457062739379L376.0442676996081,945.6762242794111L375.6368778477008,945.1733029014867L374.77037095757805,943.4068378780366L373.55202737717445,942.4105026632014L372.74933775536374,941.8830599551166L370.6513259297426,940.6146384818585L369.6894757346854,940.135173762259L367.44959674425445,938.4085801536621L365.6213926980872,936.5955487047895L365.1146805269145,935.9316624296762L364.54813010175894,934.9652322868196L364.0225941320168,934.2993322267339L362.4787365715183,934.2888667278585L361.844695941747,934.410188522088L361.3459417992344,934.1669624819324L360.63752420927085,933.5770010083697L360.14320819812747,933.3589571773064L358.753001806419,933.292865012324L357.90792037808023,932.9492195913326L357.57016327696874,932.7174044759313L356.90689219576234,933.3682604487167L355.78220849115314,932.337110998883L355.41965906997575,931.8620206758651L354.7657233685477,930.0941039537138L354.84606885023277,929.5625230504065L355.1761740007096,929.0128917955908L355.12062083908677,927.9556403532424L354.9228944346287,927.594609738796L354.2219757562907,927.3099669225749L352.73229400630044,926.3937585710355L349.2725410453386,923.6608785387634L348.29385655887927,923.0025974822938L347.96681218865706,922.9296687794476L347.00848189089265,923.2384494593762L345.1871646003019,924.6104255449582L344.5690400278527,925.2672749646454L343.0989472714955,927.2500516014943L342.35196385032214,927.9680494065269L339.9299684347334,929.516381980543L339.23654866801917,929.8620486401196L337.4788956067241,929.8971382820091L335.968706629028,929.6972618760728L333.79585872617645,928.9176977786346L331.7740603288985,927.5928646706943L331.4825210096333,927.2647880791856L328.5518239157045,921.0504624071127L328.24681716331725,920.5846959705905L328.15820757494294,920.282841714079L328.05153938306285,918.8274110637149L329.0544040335335,917.9083296476274L329.9867176991338,917.3442788606417L330.38875118559554,916.2124233922268L332.2584288042126,916.1852562047634L333.7126055032477,915.0486511363142L334.54819851279535,914.795585534478L335.6314086449529,913.5082582261393L335.7198651943163,913.1796635262481L335.67793250482646,912.3648402125482L334.34465662585353,912.5352620894455L334.024958128246,912.4502455080346L333.8651853989468,912.1666591351523L333.7412237986282,911.3995306947572L333.0741267421072,910.4042597741709L331.1135439499212,911.0786522257895L327.439230293101,911.8271633060549L326.31026149613353,911.9422705737661L324.6563688854767,911.7429189493623L324.1961805741739,911.4831947344028L322.9346799921768,910.3930002165762L319.25302046274373,905.5235724887589L317.1872998688086,904.5925628985642L316.6978811060726,904.2695889502829L316.353390288401,903.9065986635796L316.11985275496227,903.4554212746489L316.01915308458047,902.9634410025465L315.7348065989154,902.2810888650165L315.4486236450921,901.8131547067123L315.12754779637,901.5837467472202L314.25859228204536,901.3250027670465L313.1508959078492,901.3005267416911L311.82312943333636,901.6060855339965L310.7057916013364,901.5392633195825L309.8619344851031,901.1389062163562L307.29914317779367,899.4460540628106L306.24271487286387,898.4433415019685L304.9004096921417,896.695759985535L304.83643938481873,896.0585796456389L304.92918102653675,894.7781087106323L304.8694958115684,893.9371600309478L304.5996880321127,893.0145275257746L304.19734846762367,892.49030877104L302.0907664572878,891.1914380876897L299.95128105921503,890.0810253586369L299.4877258896304,890.0508921520641L299.20475675507987,890.1564552989475L297.85663609187213,891.0722750487203L290.7421584677177,886.2642923019357L287.00678224481453,882.704454610136L285.93520307762446,880.295262493044L285.5731127734871,879.8055931031295L282.1383051716002,873.9593834435809L280.8890477106215,872.6296203717602L279.71462632687326,871.4605249037841L278.22632192799756,870.5274763368398L276.6745063388353,869.8799711404754L275.72428710874556,869.7078691774577L274.88042999250865,869.2918176848407L273.47231803630893,868.1261465709631L273.0585005458652,867.6681850895247L270.05220217964415,863.009261041535L269.70419146467793,862.299080293762L269.18646048458686,860.930820463831L268.5181391159622,858.6260636818615L268.045707683641,855.9567140513263L267.9307753850753,854.8355502141821L267.4520693532304,852.5680061805133L267.3025502377859,851.3038788655886L266.9872898715457,849.7585077504737L267.004124162946,847.3015915149545L267.3255060896954,845.3710112365779L267.20307487950595,841.6651189136855L267.4632412011615,839.6752391783148L267.86114263427953,838.3680088884485L269.6824599248721,834.4455924307204L270.688691433621,831.077494935007L271.24345785479454,830.2489623689926L271.70257489301,829.546116242589L273.9370975179936,827.0663518525953L274.88593939697057,826.3633472750953L279.0181457799026,821.4804048806673L280.0130524017095,819.1946072285727L280.5639928475666,818.2176576402862L280.74763966285354,816.7325646399304L281.48222692399395,812.5500148495257L281.98725566602843,811.1620722304315L282.14044771777844,809.8521981841077L282.69138816363375,807.9362391969416L283.07398569547695,805.9611541330678L283.839180759167,803.1447121956162L284.3748173037511,801.6189042162168L286.1196150879732,798.4102555665786L289.8998317416099,792.4803518238778L290.2212136683611,792.2062933931329L291.04762433714313,791.7560429469277L292.05783486022483,790.7380322672334L293.2209313570311,789.8178438059895L294.21568493982704,788.6822090550559L294.8584487933276,787.8010499169795L295.97578662532396,785.3335103814052L296.84810899793047,781.8862588298962L296.9705402081199,780.9850819584735L297.01645191194075,779.2217425512044L296.49611926863327,775.9295830351639L296.26656074952734,774.7928248410781L295.6850125011242,772.9502970361709L294.33826918903105,770.440933894598L293.26699609986645,769.2841231727361L292.19572301070184,767.4604820147779L291.7672137750342,765.69544216147L291.782517676309,764.4793965477838L291.85903718267764,763.8124880375954L292.0885957017854,762.8905328474066L292.8078790616546,761.6938622678263L294.9352743777199,759.5751123783748L296.1442825783506,758.809858650292L297.2308595687882,757.31847486476L297.4145063840715,756.1802067166409L297.99605463247644,754.9437071799084L298.74594579489167,753.7463575525044L301.7609673848383,751.7047384529305L305.3728411244647,748.7597673411628L306.19925179324855,747.24767394849L306.6583688314622,745.4211614307096L307.5153873027939,741.0208401475729L307.46947559897126,739.8222984544154L306.8695626690387,738.6908594104052L301.0263801236961,735.1843493626566L298.74594579489167,733.3759182480444L295.6086460337665,731.6655560507315L295.088313390459,731.4296275876677L294.33826918903105,731.3313228852257L293.97097555846085,731.1543726772552L291.5362779048137,728.636324890892L290.0790404255258,727.2725041158901L288.96262082760404,726.5898553971138L287.22302636981294,725.8094197690298L285.91530800596956,724.9211491120195L285.33605534275557,724.6959253583045L284.8830598650511,724.642028480067L283.99558663018433,724.724447344689L282.9120704200013,724.2893331870318L281.749126962206,724.0611485501049L280.79401048371255,723.9958398466315L278.498578331657,724.124293120407L277.3657835593731,724.098720587418L276.85448021781303,723.9816764730203L275.6121095124108,723.2357184817038L274.60098075525093,722.8589866735983L273.1694538301017,722.1385448361852L271.19387321467,720.7020750318798L265.5797900713951,717.8166867769269L263.63772499975494,716.9145237968578L262.02301037635516,716.4191359247861L260.9913743914931,716.2664025428185L259.2133671415031,716.1768480421297L257.8331082856221,715.8341737516066L256.86391221795384,715.4723981880006L255.22425223547907,715.3936645038939L253.44609194648,716.0711533090271L252.62381333104167,716.5657662703707L251.95993009378435,717.1505009455304L250.38408737962345,719.9799476472981L250.24329148790275,720.4378240339538L250.22599807946426,720.7717278493119L250.33725744172443,721.8979302237076L249.6869946766019,723.6153909018249L247.67560293218958,726.6787530584743L246.5532148127695,728.181470561608L245.09750772360712,728.9580373812414L242.93124049830294,731.2664414025949L240.95520076583307,733.6310784733932L240.67330290437167,733.8359109678795L239.1703067602739,734.4694573427059L237.50769092589144,734.8503969333806L235.9525084784509,734.9508390271258L234.93189130250175,734.8144263015192L233.10062647607992,733.6310784733932L228.5449611449003,730.9565790135812L228.03029094506564,730.3739955159435L226.89611882166537,727.9505963309402L226.2807489514471,727.0988458529846L225.04557107964138,726.3447938684267L224.25344114970903,725.5511662144854L223.6275115876124,724.7390033704523L222.99301184080105,723.810731288414L222.69121890768292,723.210144320421L222.35560435274783,722.0027938478443L221.794869410076,719.2487309857597L221.39467239176702,718.4379723299162L220.7664472444776,716.5006192870287L220.69482498651814,715.7778806733804L220.69788576677274,712.1785884117426L220.4230276998951,710.6516990814662L219.8300015255354,709.2876939892021L219.58284351996372,709.0374051341978L218.96517806455267,707.9887424421659L218.7977533846206,707.6011603656025L218.61609607650098,706.6504751278262L218.24834332889077,705.7666952317031L216.9946477365429,703.3204971441282L215.87899333368478,700.7221476069208L215.31351418162012,699.8283356667671L214.99993724451815,698.4136072584997L215.0066709610801,698.1002547269909L215.1664436903775,697.8052239136641L216.75881461791505,696.129125224551L216.90404864100128,695.1750936603439L217.02081740771973,694.9032615344631L219.72654715292447,691.638298391239L219.84132641247743,691.2995547509454L219.98028583604537,689.2243233675417L219.4550559443287,686.6649574714884L219.22044713780087,685.8329683850934L217.8593181585111,683.4864434968395L217.01469584721235,682.3502240333064L216.63837291488926,681.6971369315888L216.29480033129403,680.82834538302L215.87639167046655,679.3072867023893L215.68601113862132,678.4683440654326L215.56250865534275,674.9523645797208L215.48185709562858,674.2728703798384L214.88653533607794,672.5074513528753L214.42221497143146,670.1170059175829L214.4186950741405,669.0551337643847L214.53347433369345,668.2785747221578L214.54571745471367,667.5495729480217L214.46674932413953,666.8586548408903L213.74409910599206,664.8445644893973L213.84311534723383,663.6457692580134L213.78113454707636,663.1411695376064L212.95656034644344,659.4967978023424L212.5006571274953,658.5637651952256L211.88605245234248,657.9305083792506L211.10387005824123,657.3780650171884L209.60561812353808,656.9366874605421L209.18904593086518,656.6785353595224L206.73292281543763,653.7936647681317L205.7781124149642,651.7138050313715L205.50478473821386,651.2655235921984L204.2627201108353,650.4047113489778L203.20889346912372,649.2687448651359L203.0537119102064,648.4679353143947L202.7825267796361,647.9653537204849L201.88189218967455,647.2554582670246L199.20294427169756,645.789860937949L198.52115546995083,645.1641307918017L195.6440220304794,641.8443004903929L194.51245157029916,640.8877154456732L192.73520951537466,639.6809070374602L187.43026517783073,636.5193137707465L186.46336469535527,635.527319534317L186.0714317837319,634.931019732855L186.0333250695603,634.5017946564858L185.73382772163313,634.1317555125952L185.25374433867364,633.8527841932128L184.2346575528536,633.626276722789L183.26775707037632,633.2835385177996L182.71299064920277,632.996629810098L182.07879698041506,632.5198214874063L181.27350569538976,631.6122957371044L181.00997251545596,630.5817272775857L180.7513365839277,629.894110790382L180.50555592947057,629.5096881551199L180.23911500829672,629.264095708907L179.08627212533975,628.5673024034459L177.68443476866196,628.2713823897666L176.15083082201818,627.6866543240831L175.38793134351909,627.2516576314056L174.59932131088135,626.4303560281514L173.77260456407384,626.000074329404L172.12452743589893,625.5053922910565L170.60898209275547,624.5853197711294L169.3445737695165,623.5831555200484L167.5607510370446,622.3877149933323L165.31719911030996,620.4571165409843L163.05405818994404,617.7444686358558L162.07751624966295,616.4087603665885L161.62222518676936,615.3655571926674L161.33282841368055,611.2964693161393L159.64878711751408,609.6697672512864L158.9662331207037,608.7012310468326L157.96795964061494,606.8339836091591L156.96142205384058,604.4266007485949L155.82311787709477,602.5573847790065L153.68087777679102,602.0805155106373L151.79344763269546,601.8564626170446L148.482142514089,601.1477646751482L147.66292467890344,600.6615184455477L146.90109647349345,599.7088229985575L146.1316163174488,598.6135387428021L145.39932464149933,597.3506182610854L145.18491698465368,596.4320398133859L144.9062329424596,593.9811385135508L144.50970886045434,591.9802250143739L144.44558551411865,591.7145002437046L143.93122139230763,590.7447003040133L143.33069630632235,589.8546803789932L142.72083584056418,589.3696240760592L138.01963040827104,587.3821447409573L136.99610549108183,586.8896504347713L136.07955484379454,586.2439575187791L134.25716628011287,584.4132035717976L133.8998201853683,583.8176691932031L133.53956634938368,582.9737029144071L133.10110957789038,582.2644291117676L131.3111652849093,580.6458202427857L130.34854989478845,579.0618078147281L128.9138091503719,577.3191633126553L127.81361168780131,576.449348725756L126.2129766535727,575.5283787117396L124.88199635979254,574.561015339722L124.44384566632652,573.7007702390283L122.53606133353605,571.9836982863444L120.42580638689469,570.4239478530235L118.32963102942631,568.6398231857565L117.18964342354047,567.4706372282535L114.89344607642488,564.7347865277434L114.5481900636878,564.0392960552526L114.5567602484025,561.5479767085917L114.94655061384401,559.7887745436165L115.15453063215682,559.3757134840598L115.29563260189934,558.8246806112202L115.17610913295175,557.5837801926527L115.20855340365051,555.6018493669453L115.33802440842737,554.7101458639381L115.81305750396496,553.5768141120143L115.83953325317088,553.0850970111505L115.55289118231121,552.0382723095763L114.86084876671157,550.5246565793868L113.76172257722828,548.839942446466L113.32969344426783,548.359212095479L112.1356830668883,547.5064868269046L110.28697179301707,546.3968683014809L109.00603525640145,545.330800645811L107.73734184080604,544.6309368931943L105.44083841566135,543.0730536034871L104.92050577235386,542.5243542639901L104.44118758445802,541.5365204189284L102.85968242682611,536.5755435965857L102.6363985072403,535.0685927111617L102.77750047698646,534.0548918685408L103.29921047141033,531.9508687873285L105.52699937983198,529.1289071700521L106.76324852473044,527.7051374826169L106.91598145944045,527.3723179097715L107.08019232010884,526.2562756089274L106.9955617460655,525.140541275915L106.61724930657874,524.0915761060332L106.01274520626248,523.1351434440321L105.5118485175717,522.5411315179053L104.28218005022609,521.4081258507722L103.59809566328659,520.4335380245448L102.7294462269856,518.7958262904049L102.3361359642513,517.6425421397662L101.59527410358714,516.438837665175L100.95174505502473,514.8993070879878L100.84752548735014,514.7241542620868L100.21241358448788,514.3340966191945L99.96265391569978,513.9046807910654L99.75344958528694,513.253940260518L99.65978970949254,512.579198614626L99.36090451761629,511.6411364331343L98.12878742606154,508.91088058274454L97.09332546587757,506.8449447639141L96.5902862310104,506.07176188196536L95.43836158213344,503.4231432714387L96.24518325728786,499.228510918937L95.36383158292847,496.52576560132457L95.01214793165855,495.064588066487L94.52854465140808,492.5244539854639L93.73534344838663,489.089248559967L93.23965008612686,486.3376579496762L93.07482706940937,485.1131713316354L92.85644039823273,481.29029469349643L92.88077360126044,480.8542299175979L93.38059901686029,479.4412279222697L93.3959029181351,479.1731073847495L92.82476132259762,476.6145830428004L92.65289851129091,474.993027148319L92.66896760762938,474.4872528057531L92.95989477084368,472.9383645461394L93.19282014823148,472.4287072502948L93.81354638389712,471.57362604592345L93.96934009886354,471.0414771173455L93.63464377800665,469.7398683993324L93.54205517529954,468.8220951622079L93.59133373740042,467.57719095561333L93.99918270634589,465.82367045302L93.9981114332586,464.33774083909884L93.74115893087219,463.8179377748347L93.65958913708164,463.41719671957617L93.76258439265439,462.9089863209456L94.16002670873422,461.97972402210144L94.5236474029989,461.5290038827861L94.94465772704098,461.18814686247333L96.10469344359444,458.76661255011913L96.18963009566323,458.1966589910289L96.1045404045799,457.70048710245374L95.74245010044251,456.67579661297896L95.71643346827841,455.60489328344283L95.76754849853205,455.01213931972507L96.20508703594896,453.44116585924166L96.78510489422479,451.9609020066073L98.9662169037656,447.16187402861306L99.29831156140608,446.1444159213652L99.76553966729261,443.72501163542256L100.44855278114119,442.12823312892306L101.96409812428465,439.86796680166026L102.63777585835669,438.7716339027811L102.87146643080632,438.23056421753154L103.09719897459581,437.96002126649546L103.93753619353993,437.2773131274298L105.45262241964338,436.5106063125022L105.88266204543652,436.18880550063295L106.98607332727443,434.92804397994405L107.55644972775008,434.30183818076966L107.96720643793742,434.1218262759021L110.41812622693215,433.9510538405666L111.73977114093577,433.58900915095455L112.7195269004842,433.0459239555221L113.26067284952478,432.63643576328013L113.67020524760846,432.19257514569654L114.1025404585962,430.7399299324152L114.15870577626993,430.3195198967196L114.17462183359567,428.2544577761191L113.98010924840491,426.96481478862097L113.38264494267787,425.26734781737287L112.87149464013237,423.44581157061566L112.74845127389017,422.0061015615447L112.79451601672554,421.3052933701656L113.03340991560981,420.08457368263043L113.30321769506554,419.22296478050157L114.84432055333673,415.5522653662456L115.32777079457446,413.6356545328663L115.4815750023754,412.4375843251455L115.51631485826692,411.61472983158274L115.43551025954184,410.44103401281154L114.87462227785727,408.34052391417845L114.69357712578858,407.9272670374494L112.73498384077175,404.7635103642033L112.3257575207117,404.2196681274918L111.7846115716693,403.7925926421849L110.80393757804632,403.4957863467953L109.84744374843467,403.04351670945107L109.32711110512719,402.57270522821636L109.0092490756706,401.85356838048483L108.90992675640155,400.87498931728624L108.98307940449195,400.0141677276024L109.15631956690959,399.44817881375457L109.73159321579078,398.4778856147441L113.05713096258296,395.4575849525081L113.89884553264164,393.81741037558004L116.09939349679917,389.944879606589L116.99987504774799,388.9878110912223L117.80424809869874,388.35443139860763L119.18374175951612,387.5897802728432L124.26387178734694,385.0205329094806L128.90845278492634,383.8088265006854L130.62585658586977,383.47548224899583L131.65183012726266,382.91505005182717L132.44380701818045,382.65489187775165L133.2431297817111,382.56857472175307L137.7446193023825,382.55909593491833L140.88666327289866,383.02899371559215L142.5587675260722,382.78900505262664L147.56115373543435,379.50153639265864L150.04620122426968,378.02948899956664L152.2081833572156,376.36317994836736L152.43881314941245,376.05588187245394L152.68382860880592,375.63174653855003L152.86563895593827,375.0031864749508L153.51222878475528,371.78768775878416L154.04281504191567,370.73950274726485L154.19784356181844,369.4790696558821L154.17213300767799,368.4656312885336L153.74515416214126,366.19420208561314L153.55033549892687,365.7170522196675L153.4620319885762,365.056122202006L154.2748221852289,360.944015540751L154.61518094955682,359.85175289268227L155.48964586833972,358.61110791110787L156.16010978314262,357.3671154456424L156.46190271626438,356.57887737525925L157.13986554269104,354.0378534630745L157.2098043715123,352.61981205695065L157.0552349686459,351.36960426689166L156.32447368282556,349.4365558143172L156.22989557295114,348.8089930770557L156.3527859001806,347.5873450890231L156.94244521625842,345.673974696404L157.3894721724646,344.9542163348933L159.31026482133893,343.18104746450535L160.89605507132728,341.4430456927512L162.1831131684503,340.5707233968851L162.53801063899118,340.1503214664399L163.4851690888263,338.1013308571246L163.92852310872877,336.85887533125333L164.34035109200522,336.1097039742335L165.19063584677497,335.055491065109L165.543849888174,334.75736590165434L166.96711270663582,333.92043462748825L167.87417493513203,332.93912431391436L169.14776559913662,330.38815037801214L169.71462210231766,329.5898210442483L170.632856178745,328.6622576810996L171.40356064688967,328.06004615207166L173.39888329496716,327.2457823184104L174.35874398285705,326.561081962177L175.91897671771767,325.8309798591963L176.47772215322584,325.3234291110184L176.84930087615248,324.6501756803036L177.2248586134101,322.3411290888462L178.4842166492308,318.756749825503L178.52492502662062,317.9074692399963L178.4104518450913,317.12744536547143L178.0437703705702,315.5524650625648L177.58802019063842,314.17716971581103L177.57990912296373,313.5438984773291L178.0299968594245,312.11710387337007L178.8819650433361,310.40527650721015L179.44591380527527,308.1245945237415L179.5828837216759,307.0249749167806L179.54156318823698,305.5317648435448L180.01154599635447,302.4030276750673L180.00129238250156,301.6381273015377L179.79744441753246,299.57551843031797L179.65588333075175,298.84130293896123L179.5071294103709,296.9183112030132L178.9581784716811,295.115622757482L178.92037783553496,294.6893237082404L179.10035171451273,292.3135736055874L179.39847171132715,290.21784417886465L179.34215335463705,289.83241017389537L177.71703207837527,286.8970196770224L176.39186726707885,285.17565786047L175.63493631007987,283.0326845526388L174.03414823684034,280.4821217204544L172.7559664024575,277.82842495043496L171.945318751983,276.8307893200208L171.49446582045675,276.43643026654627L170.0130481771539,275.7007364790361L169.25229124483667,275.7537956109609L167.0091984351384,276.2719750265551L166.5783936142816,276.2380266587088L164.8173736947101,275.7098846203071L162.74629673532763,271.7190722425039L161.088884227378,268.9224730661008L160.00521497818227,267.3696604745064L158.70973973535365,265.8890922396313L156.93861924094017,264.2195427814104L155.74323151244607,262.6126630088311L154.40674181420763,261.3845317282712L153.98267070990914,260.8887700619953L153.7814244081601,260.4007239042021L153.6990894193059,258.64458649407516L154.2931868667565,257.411203023129L155.18724077916886,256.1864595290863L155.69533030145976,255.15523411324557L157.0892096294756,251.13503260375728L157.87797270112605,249.61558399393107L159.3127134455426,248.09657274980964L159.72040937547536,247.33262188297522L159.96649610795794,245.73083079860135L160.2237546883698,240.3892481665025L160.9938470004672,235.17112622076638L161.2175900370912,234.3850191090578L163.2802498507699,231.0846962548585L163.36748208802965,230.62105156953658L163.4718546947188,228.07245019848688L163.85582957767656,225.858423094719L164.1510418332473,225.20848870413738L164.4421220354743,224.83871588972124L165.07203061190376,224.30281269720763L165.49151054581853,223.99791370083403L166.92150708084046,223.26604585239602L169.34059475518734,222.9760223422054L170.27933605931867,222.74926484593107L173.48519729815052,221.1706312348897L174.26309459989534,221.07836495850734L174.9742668920917,221.14695234028932L176.2760167344386,221.94996985750277L178.33653400193907,222.9656132171649L178.85793791833567,223.15175163076492L181.88428439522795,223.71484523483468L182.75247471448893,223.41768827143733L183.5164454660735,222.86070510842637L186.40582202656515,221.72482776080233L187.8878518259171,220.851574986762L189.57265831714722,219.70164313865462L191.4850338203196,218.24188412059357L192.97379733623347,217.3157214296798L193.57830143654428,217.07927004842077L194.65661432029628,216.82770401353446L196.0560030527704,216.7292815858691L197.99623165626144,216.96533082913083L200.66722154557465,216.96553502215647L203.88119385207938,217.2877476953954L205.212480223885,217.61995749818743L206.11709382817935,217.72204857273664L209.41202377242553,217.95256732485905L211.34108052798183,217.85149892384925L213.48240239421102,217.41842740728953L216.90833373335772,216.9089734336294L218.47055597538565,216.5209993481285L220.69145812823808,215.6655784346667L222.25245605816053,215.7064209852142L223.84406179063444,215.40009878579622L224.70123330098068,214.8078557745821L226.23162342835894,213.11266902273746L227.41002382644,212.00965988813277L229.55272304378013,210.72269973487255L231.48101460427642,208.84310454336446L231.74118092593199,208.27100084614267L232.06256285267955,206.431928569682L233.11853204057115,205.41011128990976L233.76129589406992,205.04223774940328L235.13880004772363,204.57216222759507L236.80692528656436,204.3268988026539L237.4037774362423,204.081630830422L239.0873596153706,202.71213440024349L241.42885651025608,202.3235395140764L242.6378647108886,202.56884008715042L245.68349410338305,203.67263637265296L247.59663480161908,203.97923010638988L249.23415223791199,203.93835135245718L251.62171387563285,203.63175667124597L253.59591713994996,202.85501833930266L256.0753021853143,200.27919111847768L257.1159674719347,198.64348481683191L257.9882898445376,197.539268656501L258.83000441459626,197.13027630221404L259.5953525172972,196.57811655142086L260.5748021988202,194.7987782180353L261.033919237032,194.30788410663445L263.3142005268255,192.8964619575254L265.8548011772873,191.9963459218543L268.4872252353907,191.38259528456365L271.6857406016097,189.7048647228121L271.94590692326346,189.1319323136322L272.251984948738,187.49484562801263L271.67013062231126,178.85134738537818L271.65145986275456,177.6012955011547L272.68034114539114,174.0018198799753L273.01763912946626,170.92306187676695L273.33045087150094,170.39296026936972L273.6761660012762,170.02247073053604L275.25216175444984,168.8406460903925L275.65144053868244,168.44121582201205L276.0536270641569,167.7935761227227L276.2452319081058,167.1270478679362L276.34700285157487,166.23665126975266L276.3281790530091,165.1908093889433L276.26283139456973,164.7877834853689L275.63521840333306,162.9756546065846L275.5974177671869,162.08231190698916L275.97205727037,159.708928765971L276.6625692958405,158.07844114128875L277.875556510804,156.47503401424274L281.57129562940645,152.92025885237945L283.9199853578939,151.94476920541547L284.6337593133012,151.29159805536165L286.1627720895649,150.36606284866411L290.1981047774352,147.6305308730216L291.0205364318881,147.178522238818L295.4464246802654,145.57152837823833L296.36404660064,144.76939501694324L296.51999335461915,144.30045180771685L296.5675884875818,143.76147497303555L296.4027654708643,141.58070321611467L296.05796857516543,139.4301738256836L296.0898006898169,138.77905124316476L296.3750654095584,137.34605717101022L296.45158491592883,137.05208509130625L297.42338264681166,135.2067516759471L297.7363474278609,134.43151930224667L297.77322982993064,132.6341110328758L298.190108100629,130.51931910697476L298.9516302280117,129.01101168300193L300.1829821244992,126.08310999149944L300.70867113325403,124.3158150410427L300.7426457940819,122.46930828104723L301.0123005345249,119.2998840812188L300.85023222003656,118.87693462677998L300.2008876889904,117.82299882818461L299.6276035472747,117.2749105230896L299.13803174552413,116.43359980362948L298.9709131436157,115.62556974892777L299.0939565098579,114.11987141050122L299.3991163012561,113.06719979759964L300.6704113800679,110.42784331537587L301.4715706117513,109.57291793240802L301.83488522799234,108.94295890761805L301.8642687184365,107.54088260810659L302.6937401674768,105.92244067210959L302.7782177025074,104.4288079497428L302.6089565544189,103.25919506220998L302.2096777701863,102.03365662096712L301.54854923515995,100.9763058736944L301.3930615982172,100.42730674656104L301.2980243713064,99.62694221664606L301.1169792192395,99.0344143431521L301.01551435379406,98.78861866268926L300.61118528213774,98.28588722960467L299.9059815114433,97.31828094047796L299.19940038963614,96.7746922093047L299.04039285539875,96.42478881373154L298.9165842940929,94.59722618618343L298.87664111177037,92.19285495205622L298.44767275906634,89.48372378077784L299.20567498915807,87.04356191981879L299.49660215237236,84.71329182420959L299.5494006117642,83.17453739981102L299.4384473275313,81.64632968700153L299.2837248856504,81.04019568147578L298.57392994457405,79.85239688214097L298.04793485779555,79.29054303997964L295.5221789915704,79.24411628432699L295.0664288116386,79.1706585030006L294.0119900138725,78.6787283405547L293.3903455441323,78.106299721514L292.7849232097433,76.42601296450175L292.63050684589143,75.10074129448549L292.4695098044904,74.35579746450458L292.15455551627565,73.61865551707888L291.14021293985024,72.78258589305824L289.8949344932025,72.10171732454182L288.26124303222423,70.98619706504451L285.93351964848443,69.73945999458738L285.1182808276317,69.66677473205345L283.03327731808895,69.11356881120628L281.02953752431495,68.21608226216449L278.539745826085,66.41307541909191L275.5811956318357,65.12975290758459L273.97443903710337,63.63042126559412L272.45996496705084,63.1606310593379L269.58359672264123,62.721814380365686L268.3326558325243,61.67202403469673L266.8036430562606,60.78663038315881L264.35823267172236,58.58332014773987L263.80101762634513,57.84218695958043L263.627471385902,57.00014573998851L262.8974752951399,55.72685303733033L261.3949382680803,53.9787669718371L260.5005782776425,53.166248916598306L260.039777810287,52.58980591972431L259.6028514289228,51.4666199695921L259.309475641503,50.12971234299857L258.27095290106445,47.67556653802603L258.29375571396304,46.43839102725815L258.87928297669714,45.09207163197516L259.2745827466006,44.552718740678756L259.86714980391844,42.05986113376457L259.8907178118825,40.752823864249876L259.7763976693659,39.83827505971112L259.92515158974675,39.51292109911719L260.3766166773239,39.04474484029015L260.5181777641046,38.76097464545728L260.55842702445625,38.474300446024245L260.46690969484007,37.975451595906634L260.0855364750969,37.27247696111499L259.7300268485069,36.86528907801767L259.11588129038864,36.42165301153909L258.322680087369,35.54282391996094L256.28297612560164,31.741541308595515L255.90864270044403,31.36400286798107L254.92858086287197,30.89553347131823L253.41425983183035,29.248922343135746L253.0823182132026,28.793426700864984L252.24289922833486,26.94911741359647L251.65400510732252,26.250104965714854L251.1707079050957,25.82226761365746L250.73163897755148,25.651957497796502L250.0470954735738,25.66977593552656L249.6594476543105,25.54318162184063L249.17278359380362,25.138734576544266L248.34147567661057,24.037837290222342L247.67391950304955,23.388610248992336L246.64840507869303,22.714482249864886L245.0128771495638,21.83845738117907L240.3372292324002,19.745872392059937L239.27360809387028,19.119233524991614L238.8861133136179,18.47245581215975L238.79153520374894,18.114641238624245L238.69466150868357,16.552870543077006L238.44398360581908,15.644705712692485L237.7080189935641,14.43268368923873L237.2917528789185,14.091140557485232L236.86814089166,13.819060915891896L235.12472045855247,13.251656992514654L233.8563331209789,12.617860740090691L231.42117635029535,11.785748821577727L228.66647412101338,10.251013782443806L225.238553274703,7.554053945179476L224.12136848171576,6.184821295139955L223.76937875241856,5.126518625646895L223.73877094987074,3.964361416085012L223.83059435751238,3.445507641396034L224.94777915049963,2.1173550332832747L226.12617954857888,9.094947017729282e-13L229.67607248804597,0.04671008729201276L230.15692106606912,0.0516924866797126L237.6784824641054,0.1457349163147228L239.1444431671207,0.16462635971311101L239.8632674099499,0.1268434454141243L240.83751376504006,0.12227627250194928L240.90668739879584,0.12352186526732112L242.7573881798362,0.15134007271990413L248.96128367819983,0.1407525530339626L250.8390723644934,0.1839329712502149L251.52637057069842,0.1698163118735465L257.3332828700204,0.23977666444898205L262.0903475419618,0.29292136863205087L267.4855848970201,0.24725015162312047L267.9139410936732,0.24662736119171313L268.7131108181911,0.2603287438305415L277.716242898543,0.172930282175912L282.4541776938913,0.16005920009138208L282.9942523698428,0.11957748774966603L283.3297138857615,0.13701577931806241L285.4756269223726,0.19971039591837325L285.8580714152031,0.16213518193853815L290.0562376126272,0.11148113012586691L292.6758063936595,0.11521791119321279L296.42541524474836,0.04857848728988756L299.05906361495363,0.00622802135967504L302.3403730870632,0.0313476771407295L309.6736964994325,0.08656922883164953L309.9764076666288,0.02947927466539113L312.93863079718176,0.005605219355857116L321.356541692825,0.2105054648945952L321.6070665566749,0.24392860230091173L324.3179996283143,0.28814665801201045L324.6395345940746,0.3211544042096648L326.4098898934244,0.38841521208269114L326.49758124772416,0.38156459018773603L331.05523608606745,0.5555277473040405L335.46383092600445,0.5221054124112925L335.4806652174084,0.5218978200045967L354.53050240597076,0.5933094135334613L354.8661169609022,0.5980840118791093L355.7456321671052,0.588742404781442L357.83537988604076,0.6130305692458933L359.46662272281355,0.6186355238223769L363.63662974189174,0.6061800659208529L371.1214617768728,0.6649282042417326L371.6416413811676,0.645829898698139L375.0837948556673,0.6937831995210217L377.72708468367455,0.7658166127876029L378.6679685339859,0.7851223299585399L383.37636679987554,0.9051077562371574L384.8894635188153,0.9850282291536132L385.4284669216777,0.9611559316517742L386.2276366461938,1.0035032814266742L390.875737541066,1.1778732658094668L397.28271580933324,1.3312753982881986L401.77073789688257,1.4091174648592641L401.86317346057876,1.4091174648592641L403.1352337344506,1.4273843355185818L412.18565486973966,1.5726880728179822L412.37481108948487,1.5535911030501666L412.58279110779404,1.5822365471640296L412.8239805918711,1.601125899633189L415.8172706420082,1.6335075827582841L421.2350047319378,1.666511907430504L421.9190891188791,1.7208962090162458L432.73359095399246,1.9614713591045074L438.8761178082477,2.13977223857637L439.4556765494872,2.1115431589214495L442.3164348145947,2.1287712074872616L442.6238901911838,2.147452198157225L451.7361390876158,2.2929554385464144L452.015129207839,2.2740670929033513L458.10516368072604,2.3550169521222415L458.831486835179,2.347752241789749L459.3542681026902,2.3647724138909325L462.09932887417017,2.450080501208504L466.3646791981846,2.5104807787583923L470.68696003494006,2.5007254265001393L475.1394770715324,2.533519985827297L475.1604434162782,2.5355955880640977L478.37548699587205,2.5484643144991423L485.9348490300563,2.7375500980861034L486.3745301136496,2.751663964868385L509.8981567615774,3.3873947271895304L513.1611015521594,3.36975325532876L522.0343035106962,3.0544857332015454L532.5522157391242,2.752286635110977L552.7137283162156,2.78549567130176L559.6792989809746,2.8404979505985466L566.4131685804532,2.8404979505985466L588.7117179314118,2.7989868179838595L592.01751364556,2.590391366971744L597.0968784783272,2.569635417329664L599.6569150834075,2.550332354373495L612.6479377576798,2.508197611868127L622.6724522090426,2.69500084799256L631.7938834462402,2.861045912125519L634.6864738259974,2.9648229985923535L645.5579061738499,3.1721671324930867L654.2272601674231,3.3201494589175127L658.4698076785389,3.4004701555659267L660.8258432796374,3.4004701555659267L661.1940551442858,7.592022728113079L660.3831014157859,18.189895063605036L660.0770233903113,25.630202395375818L658.3629864476479,29.794087615146964L657.7067551610271,30.42311201996472L656.1567760400194,36.897376028167855L655.5778294548327,42.85693222062946L656.5266713338078,49.39388937743843L659.0215133194579,57.27091111792652L660.8887423138713,62.188975237415434L669.8268328138092,78.66552190653601L672.4286490693648,82.89502571150115L674.5254365828841,85.45248962800542L678.9025053861988,89.49403277761303L680.5701715080013,93.08003999661105L680.7155585701021,94.18357799434762L680.5040586545001,95.21571611636682L680.9497082595917,99.09581103532037L686.7696288749958,118.86171148368521L687.8257511019001,124.80562323033246L687.995318328014,125.26045813238306L688.4685149554007,125.38958560355968L688.8387163272109,126.08043712465678L689.3391538988635,127.029065077224L689.6256429307105,127.0461290618141L689.7223635867595,127.27618230389089L689.7223635867595,127.58620299664562L689.5661107547567,127.88634868373447L689.3353279235471,128.056359670024L689.4320485795979,128.86650271090366L688.9758392826279,129.2948859872822L689.0196084402687,132.0619793457472L690.0604267658982,136.9317004972836L691.4226270182771,140.71116850998624L694.4223447069508,145.33111934039334L695.1264772045561,149.08765008569662L697.5293427435518,153.19192210679103L700.2535902092986,156.04343246991357L702.1053622634263,156.84344315271574L703.1160319035462,161.81575312112454L703.1308766877828,165.02537756166203L702.9931415763167,166.19381069030987L703.0084454775915,168.4483888683808L703.0393593581648,180.06360439358104L703.02405545689,180.57550381330748L703.0393593581648,182.6024305682986L703.0395123971775,194.71655472561724L702.9782967920837,195.55512853936125L702.9937537323676,201.5872016356061L702.8818822140565,213.7697328260383L702.8892280866694,217.138485384643L702.9310077371447,231.98868539011346L702.76970461772,237.0947000955448L702.7139984170826,248.84031310988212L702.744759258645,276.1719592277541L702.7305266304575,276.9393376498456L702.7214973287082,277.0698384036614L702.725476343041,278.18575059439354L702.725017226001,279.14832763295453L702.7244050699501,281.09196846503346L702.7227216408082,284.7843898038773L702.7519520922433,304.40434354821355L702.7785808804583,307.29552786069326L702.7848554799821,307.34359404004135L702.8186771017972,327.29175177710204L702.8293898326883,330.59870864230743L702.7646543302999,330.876680973558L702.8373478613485,333.6279517581206L702.814238970428,333.813157915155L702.8647418446308,338.9424523866419L702.8117903462244,362.6766665432215L702.7868449871476,403.321404569233L702.7776626463838,403.38141148606974L702.7739897100782,412.14539522052746L702.7547067944724,415.0460779735531L702.7475139608723,415.34766010718886L702.7077238175625,418.061194095726L702.2111122212264,460.5366851291401L702.2206006400193,460.66401236496586L702.0926600253679,472.33374540549084L702.0459831264834,476.69689748236397L701.9991531885862,481.1028966683807L701.9501807045108,481.85447529499834L701.9804824290313,484.11016303506767L701.8661622865166,508.3925777055192L701.8661622865166,508.4115598468852L701.8693761057857,510.70021284998074Z" class="state" fill="coral" stroke="#111" stroke-width="0.5"></path></g></svg>