<svg width="800" height="322.40000000000003" xmlns="http://www.w3.org/2000/svg"><g transform="translate(0, 0)" id="single_state_map"><path d="M239.6344012465588,91.28245983620513L240.10799190734542,91.36920386720021L240.2293409706508,91.81749006956443L240.17907400075092,92.29118549496229L239.8482067390496,92.6978416136833L239.36939676371276,92.71515697614939L239.20396313286255,92.38415183702136L239.20632425134954,91.65216156812437ZM355.7984794215272,118.62240281376774L355.77098481809026,118.54164254894647L355.7529968232993,118.46324602295044L355.7127024722731,118.35067058416473L355.82314689624945,118.37165015718074L355.88997276290866,118.45940671528467L355.88146030941516,118.58473087952268ZM410.01656363828897,156.98784242142779L410.2659101774834,157.02548540774376L410.18246327936777,157.1550930454714L410.0345516330799,157.1083803789628ZM408.64559261560134,157.10111014480322L409.07320360058384,156.9949089993778L409.230093710592,157.07868785162418L409.1746384934895,157.21760231048302L408.7953993701494,157.27243307586207L408.6290026514944,157.21644725603153ZM410.87601076764986,157.22178088728901L411.1068722344771,157.37998635951408L411.15238590005356,157.6211054257451L411.03196885720354,157.63003928218268L410.93053396429696,157.49073020274852L410.84805015398524,157.35148465566385ZM411.20927021518764,159.90598581922904L411.29790536050496,159.89355956566794L411.40505664553893,160.00787298860564L411.38893269165874,160.08375210818645L411.3035906852838,160.0740423696892L411.243879241435,160.00739767904736ZM412.4754510713283,161.6298744450139L412.5982292326644,161.80278628845656L412.61385610896923,161.97209420107936L412.51667744280985,161.90350983631197L412.4910779476322,161.7992229133888ZM457.9212034242137,166.79527993742988L458.24877754697263,167.03056472555284L458.6081024999148,167.1056118884244L458.4654101681781,167.2944444769238L458.08523902438174,167.28942802636334L457.88755748577114,167.0759524789073ZM544.0807781427338,184.12018416279238L544.9283575449626,184.3316026884488L544.9473396949061,184.68414762321936L544.5600230609507,184.85505842645114L544.1523573137165,184.73459095065368ZM621.9461785583972,212.79305582267114L622.7038179866704,212.43932510309196L623.300342145536,212.68442237646673L623.366888406058,212.79325717983545L623.9389625616423,212.96450832954952L624.1788335595384,212.96702520181884L624.2600746759099,212.86926889409062L624.3666978160181,212.87178581727755L624.7963903133495,213.17884035097143L625.552911317076,213.9070332711956L625.7628644583519,214.95580652373724L626.1060654574139,215.15059328629536L626.166118642097,215.3250459014845L626.1848833206004,215.7998691883871L626.1267252441776,216.35573114344152L625.4958095305028,217.45790525172401L625.364829589158,218.04568687793108L625.2682722699683,218.20461308023573L625.0044483463653,218.33973471058675L624.8575308552308,218.61003345468487L624.7517465335322,219.19981715281028L625.0057842423512,221.07532969547492L625.0093569874307,221.37109943012365L624.9594938930622,221.4741739952707L624.4588746390664,221.8185883161907L624.2791500278981,222.19610237623874L623.4796007464765,222.70071401710516L622.6738690626989,223.59473046512664L622.1277672104761,224.03849528555872L621.4835236042882,224.46969849211837L620.6955624438633,224.09229737630562L620.1067740547778,223.89215187117918L619.2661226712671,223.8219081175937L618.1028990081113,223.80988822970426L617.4947245935509,223.6347761244191L617.4079534891443,223.50415773044256L617.2063885319694,223.55264198113412L616.3996005583431,223.57547762471347L615.5418932004986,222.9456157772986L615.2224276557026,222.4163469607854L614.4848888019196,221.61020756542428L614.1859898418425,221.50917931154254L613.4477675063918,221.3961899344464L612.9853300237237,221.1495669806111L611.8023475269092,220.81773475187435L611.568814268111,220.62009847919478L610.8727813919459,219.55394709128564L610.7860102875393,219.12611914652632L610.922364880179,218.03633416801927L611.1226560760651,217.7387474471941L612.1148539856385,216.80597334246977L612.3303371149495,216.2936589417369L612.5716061435287,215.38511836350006L612.8019394654293,215.069318505634L613.6117099045141,214.63051785383595L614.5480176541059,214.44500236263025L616.444555011647,213.20035019680927L616.978851271434,212.8118155615167L617.215926207964,212.5693762525475L617.9715462585837,212.48530488799452L618.1417021264087,212.51796033096218L618.3148093923428,212.58337122009607L618.5460747347006,212.90215658430918L618.7497522715748,212.81359420908325L619.0860563192664,212.8740342675195L619.2214788914498,212.93967511769517L619.2544724155741,213.08947780218762L619.3406532403596,213.19598783352012L619.5818290668931,213.2638053474643L619.791720073471,213.09343757551733L619.7989898330234,212.60770289912193L620.1799687278817,212.35155952167645L620.4409344554215,212.36683051487705L620.8495011557625,212.5744439794164L621.1855566646664,212.49785695557966L621.6323362036819,212.58142468033907ZM600.407403303313,221.54147106880384L600.4924657035517,221.41448012526678L600.788102592036,220.33021261625265L601.2943761034612,220.12099597638712L602.0501514908228,220.05917411386247L602.4720460836779,220.29218305038L602.6755682838093,220.71766126647185L602.652671647953,220.83023122601605L602.5406117218545,220.910033672566L602.4097249825536,220.9505709264505L602.322736406707,220.89613031997123L602.2462485946598,220.95616571039216L601.855359215624,221.67334913534341L601.6256472406922,222.60640690772743L601.8050611783756,223.15852575279507L601.8344819574204,223.6516849348585L601.2183543016408,224.03233495771394L600.4296785921997,224.29755666233234L599.7050016207031,224.43063067458786L599.2697170006377,224.70071767789193L598.8603736165833,225.2973121631445L598.3947983317139,226.11638283900402L597.9154602114522,227.23389900643394L598.0640864067564,227.32001828332784L597.895577108402,227.55290730849038L597.5167729279401,227.41115448193545L596.9968297831665,227.02093618901768L596.5361010046663,226.360841904607L596.6810923201929,225.2296998527654L597.1133944748008,223.9803736153358L597.177486414791,223.88481951622896L597.6476907345877,223.54745204690073L597.9056118619737,223.2690623996358L597.9929732460014,223.10447872894213L598.3831170086723,222.73041903059595L599.0879419444664,222.41993054002387L600.0330417536888,221.89177566204648L600.3358862670293,221.66145781615478ZM587.0244905154914,231.2727500414045L587.1714390739744,231.21210840155004L587.4113100718714,231.31149476913959L587.4397677631123,231.94818083462485L587.2250302501652,232.03936309739072L587.0756895058466,231.89921310921557ZM672.9626793084817,238.95181113752312L672.9579260041583,238.97574213105054L672.97215484978,239.03735471973857L672.9327925192092,239.08808606034324L672.8962883847025,239.0691286212126L672.855062013221,239.10153645216428L672.8512717967014,239.04045869193783L672.901041689026,239.01475907755628L672.8943932764432,238.973305647546L672.8474815801837,238.97644303703805L672.8943932764432,238.9505094483111L672.9157365448737,238.95027581174895L672.9266411842027,238.9403295591369ZM664.3502200200728,232.09461309502638L664.3529850140912,231.80582208993962L664.4403153307712,231.60325697267433L665.2698135361625,230.73741244474797L665.8623610744198,230.21398578793412L666.6647374845561,229.9449781864016L666.8284624112384,229.79470188772905L667.4001637586398,229.78767951600207L668.0666826537145,230.56128263262406L668.3206271604886,231.24891469181387L668.5971265622848,231.71022311107208L668.7682765852633,231.84449568408684L668.8239182064563,232.34862793435843L668.7928508579389,232.57589304099076L669.1968195907002,233.18133525038172L669.5144210945846,233.35837190801715L670.2359291965331,234.38103440499333L670.1970639435385,234.88533647558188L670.3857359510803,234.97262190420804L670.5605829885317,234.76778426816225L670.8948676585687,234.86930224192008L671.0057780927737,234.974425719671L671.4912054133447,235.8952526655986L671.4779396555277,236.49169783324362L671.0987005321858,236.5747468417777L671.0040693886049,236.89621025163206L671.22573492027,238.0054579801116L671.365537988595,238.24794701014093L671.8657222997117,238.38494262816266L672.1325908234685,238.55781731571676L672.2071524599087,238.88826159649557L672.4556912480402,239.22869588948845L673.0579939337304,239.71150440390022L673.2651199462916,239.65557355196222L673.432604022144,239.52064941037236L673.5023812869113,239.1907820318413L673.4186237153117,238.44105497335056L673.5023812869113,238.3060971807197L673.7396426275327,238.18612413777373L674.0606615397528,238.18612413777373L674.5770630067964,238.26109929093855L674.7584963221334,238.3660825929212L674.7724455616171,238.7409663254466L674.6328910320808,238.95087659145725L674.4793561957122,239.4306756586352L674.4654069562284,239.7455097812301L674.5465238032048,240.08968825069235L674.8077691368799,240.17074051523514L674.8689718134574,240.16296569605515L674.9248930407884,240.13823968659233L674.9900412706265,240.12268993223392L675.0065069653401,240.12339067330413L675.0222891783869,240.12549289590947L675.0394072874187,240.12902996682044L675.0453411509861,240.1318662954145L675.0670572275994,240.17991678802264L675.0907305471692,240.2484880255097L675.1585505689809,240.36330515128623L675.4692240541453,240.79038379486394L675.4754375238499,240.92383820853456L675.3542748646341,241.27080261678134L675.4164095616679,241.6177423841367L675.4723307889972,241.78786730849947L675.8358187666408,242.35490764245617L675.9383410167457,242.47164308094875L676.9293894344237,243.131979708789L677.2431696544409,243.1053011674884L677.1841416922598,243.5021294749173L675.913487137932,244.4390503356359L675.9197006076356,244.6857541724671L675.7426167210915,244.769097260556L675.4443701753326,244.83243706102076L675.3138873115631,244.77576464646472L675.3045671070076,244.6857541724671L675.3915556828542,244.50239439622067L675.3667018040414,244.18900000412282L675.3014603721558,244.08564214340868L675.0839889325407,244.00562165826898L673.968671120796,244.30235773388677L673.7263458023681,244.27235153097013L673.3162568019497,244.4523859953032L672.8533533090522,244.88910882127004L672.340742058529,244.97911556640054L671.983467550589,244.8824415893166L671.8902655050397,244.7490950484871L671.8529846868196,244.5223976138683L671.6479401866109,244.25234729371152L671.2192107770825,243.90225993204842L669.8429272377989,243.35207212987905L669.7025649572015,242.91414516738564L669.5642841889539,242.65537901981577L669.3825091327835,242.59597993648015L668.9438692390786,242.94806156194375L668.9754957998675,243.10926960970824L669.1138076354637,243.20257709758482L669.1928429700902,243.37648177101437L667.9085809171138,243.35103838556222L667.9560207582981,243.1516883878362L667.9204486442468,242.94382619414353L667.4205750066149,242.63553493684958L667.2539608165207,242.65421172304514L666.7540871788897,242.96910494921178L665.6643688623235,243.25870079541357L663.6822720269674,243.60883412440683L663.2162617992199,243.63884438844593L662.9242287231637,243.5054640303856L662.6632629956248,243.0052553431458L662.619768707702,242.82183268911433L662.9475603018991,242.68102612717973L662.8777519697833,242.53091026476886L662.7152386696926,242.41514347651355L662.5278404234405,242.5595597040284L662.2861053846336,241.59415793218625L662.0667699041069,241.10733207212888L661.7741465484287,240.72672475447757L661.4005927498665,240.35723235732587L660.8582500468128,240.08968825069235L660.7938163659901,239.91196251451197L660.8023288194827,239.53680179231253L660.7511298291283,239.2295970075154L660.4496522791242,238.62991616267414L660.0448136606037,238.23759874391305L659.6079135384161,237.90420588552797L659.186826696623,237.30926968325014L659.24364887706,236.09857323037363L659.2256608822681,235.79205286334252L659.146004200672,235.55749058122547L658.6378355809866,234.979135679102L657.7418843171181,234.36376239821948L657.7987686322522,234.2637038155225L658.5212087546561,234.13357445070812L660.5008512694785,234.02639467192682L661.1440696531663,234.1464037913221L662.5231492538151,233.99809587405787L663.1100114672927,233.66939003415462L663.1109745550966,233.4539716804469L663.0236442384166,233.3645537051034L663.0644978017162,233.30484055613817L663.9433930912492,232.6159641174595ZM689.5059181241504,245.9934775441808L689.9890464609307,246.2034101904212L690.4578216826967,246.2295386622544L690.9040420094407,246.17411547592803L691.2133795986201,246.25909966135475L691.51429793635,246.64747536379707L691.728227698236,246.71552293535456L692.6120937635314,246.8786733195858L692.8910164185136,246.87737373617756L692.9996900036231,246.8170593594723L693.5098158662659,246.85261494058193L693.9686495365067,246.98966980559283L694.4491682160115,246.96844371226018L695.4963553324587,247.26620045227662L695.8446513766785,247.27692948842957L696.0091840544228,247.21078894004233L696.2505773523953,247.20512446890848L697.5205794924032,247.4946039230981L697.7625941373481,247.38501822582361L697.8728832245815,247.25707075714263L698.0414235902845,246.6423434323857L697.9755297440797,246.56686343326464L697.9889508386386,246.4957145593396L698.3005563442603,246.28559443063648L698.4539669112355,246.335084277752L698.6471126169617,246.4979473499444L698.994849448909,247.18003411547556L699.0211324257534,247.4807767347928L699.1655645290066,247.70310655434878L700.4919228392237,248.0946665151862L700.6563312475728,248.03703222708407L700.719832907941,247.9163978163092L700.7071884970946,247.8282105615889L701.5954971932288,248.08433903334083L702.4141839613367,247.97086856618387L703.0245952249898,247.74541905070805L704.5919118903012,247.5668378565997L705.5010667772885,247.6947439628566L705.6219187630186,247.83447400763225L705.6745157840569,248.17228850899153L706.2108003541498,248.1046275175031L706.4186409157255,248.18338202461348L706.3732204521939,248.49349065479805L706.00429568856,249.15561676978996L705.2928844748803,249.9469338640664L704.4521088219763,250.57460199781588L703.9916907169609,250.84314064185025L703.8885160525369,251.03924955163677L702.6080752834278,251.45328352706315L701.6622609251899,251.63834911529523L701.3098950583153,251.92134394347113L700.8498186941342,251.83708967381028L700.7496575625164,251.70592845766043L698.9306953742216,251.30676420379757L697.4012187394037,250.79000011522794L696.6798349068486,250.59910904262756L696.4973142343133,250.52988298765786L696.3226536009533,250.30445039892254L695.0169240101513,250.03901282810443L694.5298811874582,250.0215296124236L693.6094488529588,250.14674137373777L693.0352310503267,250.34547523308777L689.5998657860637,250.54629887379247L688.2331199227756,250.33598494050761L687.7581312313059,250.04167693173167L688.1979206169062,249.15135343872134L688.1890974899279,249.03530948231628L688.3660881744254,248.6970544284003L688.6589911362407,248.30970642429133L688.9035533037622,248.12914682208327L688.9647559803398,248.14290556322862L689.4181217972427,247.7393553924295L689.5797341442258,247.52275795763637L689.6947454684341,247.20369168988327L689.7179527777753,246.6443095625849L689.5105782264272,246.3801745938149L689.3700916764355,246.3136554017126L689.3170907798667,246.20660960259477L689.3939203327473,246.04626983272067ZM697.1821628650132,255.89917417631273L697.8093504968647,255.8203425972839L698.3750558460024,256.01568962297233L699.4336757467045,256.04828552063L700.0264096890514,256.1390207335281L700.687553932833,256.37686022172886L702.5553850603437,258.1000346741678L702.922290446325,258.5270452822915L703.4088361914428,259.347950888862L703.4432277462502,259.53541560920473L703.4123468018242,259.9085625286709L703.1649264382386,260.3925452341848L702.5158052583338,261.3904397212784L702.2644082741381,261.53576599759776L702.1069589518556,261.54015163603265L701.5392963597615,261.7184976878457L700.9011108865343,262.04560403757773L700.3174796773037,262.22240402841123L699.077022585735,262.24020992103874L698.4904399783927,262.37033054649794L697.96673768445,261.6528479403239L697.6792404412781,260.65623516141636L697.8366897635597,259.6982781979949L697.7465633855127,259.32910431327514L697.298913960738,258.5645449391834L697.1538915778629,258.40254307501755L695.7980814212515,257.64638736426525L695.639296202984,257.39982986185123L695.5937825374076,257.2002806147839L695.5508163944087,256.74302637699054L695.6558550997424,256.44297831571635L696.3809980814685,255.98828229505511L696.6967355444422,255.9067911699833ZM709.5466258337656,252.7378470977318L709.5449792642939,252.6545386454909L709.7260087041004,252.4182851732545L710.1603923710591,252.46791331558325L710.5272356223422,252.89088071351932L711.0763510073721,253.02417387352875L711.4789838441466,253.39784158349698L711.5884030456218,253.39308272194933L712.1490133496027,254.63505750398826L712.4453647871014,255.07071501257496L712.6467122728372,255.18322456200826L712.7037208573656,255.54655116669664L712.78070574699,255.6287799882649L713.042696697029,255.738848725529L713.1544459496445,255.95744887098124L713.235842402757,256.3563727470821L713.6151125934466,256.9487460863803L713.809563127812,257.07022514563243L715.4290418712835,256.5020448453989L716.5668213760046,256.2382355366848L716.9318005863761,255.97038762340765L717.042648885883,255.8023142719104L717.604346547063,255.51142387762445L717.8216315825885,255.50536971754616L717.9238431592066,255.6004724039674L718.2204742028425,255.34390055650908L718.4764380872712,255.21968482844397L719.0163886044884,255.467348093419L719.664639898635,255.30228497354346L720.0130912795967,255.64624345885898L720.3861790679321,255.5289210241732L721.024675214644,255.63037665097625L721.4097860668553,255.8266957369908L721.4119607812518,256.29474352120565L721.5154771865082,256.3342222333556L721.6613383877939,256.27994308098835L721.7889941228477,256.33768117891907L721.8390746886562,256.65489619837774L723.1823647038145,257.6561297101334L723.2645378406414,257.733303048145L723.3798598383355,258.03117895694527L724.4385418737329,258.1733777699834L724.5406913156557,258.63402494333707L724.9646363535121,259.30590331680173L725.4496597985535,259.2659827259307L725.7551139691668,259.1539640474133L726.7027613009686,259.86299668735285L727.5260771040048,259.9392386421333L728.4504860591142,260.3613401777852L728.4686604579965,260.564950501162L728.9347638877907,260.9924820178255L729.0390569767605,261.29338706940587L728.968720499719,261.5897223738622L729.0133953468867,262.0658689143056L728.9573809175108,262.78100064815646L728.8232321066162,263.082031129979L728.5021199923494,263.5998159120446L728.1206129525654,264.0110498813242L727.937502000409,263.97199688243177L727.606386199921,264.11827803028837L727.3069280275686,264.4414762381235L727.1999010119289,264.70103592077373L726.9016855335194,265.0523848066342L726.703848658166,265.12795050649083L726.029096915735,265.0501603158997L725.7838823338943,265.24498214519656L724.8015327738012,265.7374481139185L724.5246294964727,265.94200291439404L724.1279926579627,266.0720612023184L724.0682501467645,266.05788706955263L723.9596076290018,265.8907488053062L723.6897255724398,265.8717607520723L723.2870927356644,265.9474801686183L723.1733551727448,266.05562982694187L722.8265503612556,265.86910507460277L722.5661438459902,265.80105286322566L722.0280573696828,265.90897328578785L721.5595617540539,266.09413559221207L721.2238169186348,266.32615981290655L720.2987555492064,266.8014940665271L719.7249416221057,266.97212023530244L719.6116700694147,267.12007345745405L719.4433782425003,267.22783298546983L719.1563780769038,267.31358761983176L718.5272021347473,267.24475835731914L717.6333323832287,267.28800076605125L717.3873411176755,267.4536990709827L717.0427731552782,267.5604559516946L716.8281599117254,267.57150650430947L715.657542219622,267.31690626843533L715.5888833794006,267.1964711174528L715.6440900577136,267.05323285598035L715.58030879121,266.8993036245665L715.4143470154349,266.78655860959657L715.2724624347593,266.8929644807912L715.1430979955358,266.91719257908994L714.9407563546474,266.8111854949901L714.7587948943874,266.5919953615744L714.8009843536729,266.3961301201408L714.5596842577443,265.4543707072329L714.7074716346369,265.22004882354327L714.7764722156935,264.99600860464614L714.6216636180352,263.37812817713063L714.5476611938675,262.6895885111495L714.4899691276732,262.4963287495476L714.317762814846,262.31731269464626L714.1995826210887,261.7433819073623L714.2052990132161,261.12476151579824L714.1436303264109,260.82251718252655L713.8479002358818,260.5204872582003L713.352873104619,260.26848820091504L712.9740999915057,260.21551461329784L712.8393298336405,260.23113423622453L712.5296505036267,260.4049075670348L712.2431784829569,260.85062906587837L711.8536871346041,260.9308102035301L708.9320515454101,259.507362824535L707.4768569408961,257.8684283310372L707.155775893978,257.2655232225229L707.1919693549999,257.1974540809068L707.1817792646862,256.6785085876086L707.082301614736,256.47513906362497L706.8932878663618,256.34449928574463L706.816489380828,256.20278052367985L706.9960586552543,255.1357193616725L707.4063029924155,254.2189930851738L707.8844605534332,253.32745655774602L708.2912874822568,253.26289447479076L708.4917650822354,253.08244898438068L708.5965863161291,252.8987352911264L708.5476552422151,252.81965643381295L708.5898447015006,252.64422068149145L709.3114770728434,252.63723108078295ZM711.6543279591733,269.41707532264286L711.4726771723981,269.50096846563326L711.1626871688995,269.4472624178825L710.3473556744302,269.7849807521178L709.8003839364483,269.364993868258L708.9522763892946,269.67777312148974L708.6041978165158,269.8986210240221L708.445226194156,269.7748306216814L707.7820936400703,270.0162721827844L707.343112005532,269.94870685172793L706.6989616013898,269.269952130139L706.7427044281012,269.0969815525566L706.9167747818392,268.7919298897493L707.4313122079702,268.281810672918L708.3177568631927,267.99801286509876L709.4662856705017,267.2833878175635L709.5863299051698,267.06232641570944L710.6383635279844,266.6375003331983L710.9406798964001,266.6930948376986L711.3612075259198,267.0304988851667L711.6895893997398,267.51549024116L711.6966106205045,267.72923143351704L711.5070687272046,267.89793492667604L711.2861177445557,268.7583880167351L711.3794129921507,268.8670416476948L711.7779760062695,269.0210106401878L711.7949387785593,269.2564504195086ZM735.4498975451961,278.59960633655453L735.6207679620366,278.61066612624427L736.4235793150528,279.0438997800843L736.730804324533,279.3601598354487L736.7675259304797,279.70301782702666L736.8643939231542,279.9355828021089L739.3105748106509,281.194462803502L740.0432671580647,281.8710435248387L740.2239859243855,281.90430105349253L740.7449232243107,282.16651510811766L740.9589151208929,282.5441938092175L741.0482648152265,282.6114940925887L741.2691536631792,282.679058196538L741.5563091655176,282.6420006190009L741.9698777089698,282.41276713255616L742.2629981422242,282.37885109611204L743.3588056590988,282.76074936531154L743.5721140740143,282.91949587089186L744.0143267127987,282.9550626257925L745.081490134342,283.28123972849903L745.8349976052614,283.57825178122766L747.0310283884519,284.12558537719065L747.1260634075643,284.23245853458104L747.5865436472768,284.51102624861323L749.3688152969744,285.45695996772304L750.4477843109544,285.9225215109517L750.8470308067399,286.0041616091024L751.2295630690242,286.2502975892113L752.1424149704853,287.0554155092607L753.2747266218685,287.7408512287541L753.5820759007429,288.10675468031934L754.0373368259043,288.40408603808726L754.991850041727,289.27985253670715L755.1416257289247,289.3574747146887L755.5504409680543,289.8108920853481L755.7560136131879,290.1252079808688L755.8451147687338,290.4948758677574L756.2865507238057,290.94522154982656L756.5607200744635,291.0990279263086L756.6751721863993,291.09668254511746L756.9451785123565,291.5090240628323L757.0068161318122,291.6960749698336L756.9659004338164,292.06440999151823L756.8632228469696,292.45834658569447L756.6943718077828,292.84624351569767L756.7671936727047,293.3581007632429L756.7937251883386,294.1188436229012L756.7222392194026,294.26859541026147L756.7262779747089,295.3936114571253L756.9210391825591,295.71501935560707L757.1600092273475,295.7750872560554L757.6401240313226,295.6851831770955L758.2176660402465,295.32518845340564L759.4280188711018,295.3429461731056L759.7121297732856,295.6963057545287L760.0262206667876,296.3582054048096L760.2146752028902,296.94680261077406L760.1023356706537,297.5580664786471L760.1315389782594,298.56471944426767L760.4246904788615,298.84331808403L760.7480705095695,299.02789893099987L761.1697786983341,299.0656323225862L761.2469810593966,299.1385585968635L761.2518275657658,299.214518276068L761.1494295850553,299.48935590704434L761.2708407830587,299.77819546612056L761.6798734936265,300.0206199106532L761.8580447373697,300.17900933204373L761.9755725168079,300.38177914704363L762.6242587538327,300.90708480608714L763.5109830151923,301.3629055531334L764.2063324096898,301.6142908742206L764.6796123969907,301.9709244480748L765.0105417933892,301.99492333482044L765.3931361903706,302.2433450145504L765.5439992347665,302.4975894380202L765.5496534921967,302.6060673204969L765.1274792932054,303.8517401522595L764.6435432053631,304.43327974158535L763.7116780866099,305.27397496416575L763.1127928092556,305.65945258970726L761.8404295507598,306.60742960290554L761.3615885080744,307.12761091396794L760.7267583084877,307.66130916628026L760.2221624338817,308.1998605181219L758.9895343141397,308.7916614204247L757.709808094045,309.2749907003588L756.1085037494568,310.1316157438241L755.4738599539605,310.6093283907528L754.6681282701848,310.8635382594209L754.2711496908396,310.8409942381569L753.804704520212,310.936567076978L753.5302866307657,311.0965424786393L753.2310459298542,311.10931134558984L752.0483430391769,310.7668451357142L751.4065537535234,310.6714009377622L750.4079870375044,310.9321899832727L750.1890554325082,311.07877132486203L749.8919894459932,311.4452730754888L749.0252725570781,311.9934490234365L748.7804618507671,312.5291986916983L748.4237154877519,312.8195730308896L747.864285743015,313.0332477959648L747.4895203178594,313.07483032610344L746.6610162676207,313.51277629536844L746.358917370645,313.78619083911155L746.1903459375944,314.07968823379804L745.5380248207921,314.69376771330155L745.1606497383618,314.85780867317044L743.9298235248343,315.15562176979734L743.635957475216,315.333427079182L743.7167325813589,315.4757131715228L743.7168257834046,315.60323148979523L743.4833546593018,315.8423120504482L743.2819139715211,315.87966435545286L743.1959816855251,315.9513103559483L742.7018865747177,316.69602432933175L742.5054477300464,316.77094708351933L742.2976693031678,316.98956177488185L742.3750580683227,317.40878431298484L742.3796871032528,317.916456341228L742.3115253406067,318.1585905369452L742.0295891528185,318.6198220071649L741.7141623633315,318.7880497215982L741.5493811467986,318.9580139319294L741.110430579608,319.7271574615754L741.095238646184,320.32443661176035L740.9291836683624,320.622805351764L740.5532687513123,320.6613404501189L740.2025183865608,320.9388639939003L740.2104716277809,321.00512197469607L739.804918460246,321.60331282225684L739.1701503953554,322.157987751366L738.7501509107597,322.39999999999986L738.4450695483283,322.35967083971354L738.2620517982177,322.2064961502982L738.1857814576088,321.91626042760777L738.0942570488796,321.64210379195765L737.0713335316232,320.69294362760934L735.9045992580841,320.2855706028215L734.5838952052982,319.2298733747306L733.0978196563574,318.9079979444913L732.2401433658606,318.48465111069595L732.1616361761598,318.39847914914776L732.0932569420738,317.8563730542211L731.5522190676584,317.03403974942125L731.4073830888747,317.02217241702897L731.0024512683094,315.7055925333764L731.1297341951822,314.5618538730645L731.563216909034,312.52801426410144L731.5144101045144,312.12150996718185L731.5872630367849,311.1909260700909L731.808773231709,310.6573803719042L731.9514655634448,309.8586745023689L732.0597663403723,308.60122809319205L732.0179807566183,308.24134862964615L731.7044801427392,307.2549972526559L731.2366990761248,306.49343352755284L731.3846417897603,306.02082294328056L730.9925718514814,305.5235618009401L730.9129773045815,305.2519675408056L730.8851098929626,304.2870110973113L730.9645491031197,303.94002304701155L730.9174820701164,303.8479174930027L730.7186821069599,303.7320830282474L730.5596794172516,303.70878401427L730.5360060976818,303.83147343618725L730.4508194280497,303.8422823610024L730.067293010613,303.67513702671715L730.0235812512501,303.60408549207864L729.999783662287,302.90544954306984L729.7887120964651,301.6986877410892L729.732573397695,301.5283431575276L729.6410179216173,301.43055822056715L729.5124301661081,301.39040191651975L729.4621321288587,300.38919861448665L729.2372977276455,299.6692641023524L728.6308009499053,298.526157810152L727.6598220393689,298.28594120432706L727.5372302821224,298.1603526000679L727.4730451400865,297.9803931534552L727.5248654774132,297.65476811049746L727.7081317663124,297.5582974297208L727.650532902162,297.3354579452299L727.4393370669468,296.96115621114086L727.0702258992224,296.67453877226114L726.9555252484988,296.5190804174274L726.9296461471849,296.0234706625348L726.5605971141558,295.6241571047716L726.7825422519581,295.23567279175245L726.9349275964323,294.76364396410077L727.0176910128803,293.9840105450072L727.8850603161136,293.26594306280094L728.3655168609221,292.75807262867045L729.093921914241,291.8309998311249L729.285607454588,291.669849269362L729.6532584569331,291.51615874221943L730.1368528039411,291.4550181885538L730.2596930999753,291.5736321941408L730.4145948996793,291.61122081204735L730.864077298017,291.39245655948173L730.8300585513916,291.019416512729L730.8750440720432,290.8615444910322L731.1803739732641,290.4609464067621L731.6052199642281,289.63642919171036L731.8502792093259,289.27116168891655L731.8386289536329,289.1458532572026L731.8989306771036,288.97285526810094L732.6946897420057,288.2454409131517L733.0156465195305,287.75913048398195L733.508996013973,287.4924717753495L733.5716277885822,287.5395768534328L733.6766354265692,287.5213629404043L733.7811459869781,287.29998112484554L733.8738198876026,286.87791807654855L733.9823070686234,285.8727233974771L733.8981456214924,285.5592422455903L733.2083572823785,284.66360039547453L732.6943169338238,284.1295547074744L732.1581255657766,283.2000530287446L731.6933890993178,281.9103568789617L731.4794593374327,279.94336237430207L731.6218409956837,278.9292705781028L731.9570266188293,278.2851208667556L732.2065595621143,278.02727942752574L732.4771561676935,277.87103168622775L733.1180134328924,277.7450497594738L734.4176848907337,278.11689288134176L735.2943122638253,278.57801649894054ZM35.61841667732915,0.7764731692361693L35.30886161670969,0.7644314009482969L34.80873944029008,0.7039394687479898L34.45034650780326,0.6520985530137295L34.521459668558236,0.5339353088202188L34.722434346111186,0.5172311183539477L35.11686540287701,0.5150768727201012L35.515521619041465,0.4411960917727811L35.79332584947679,0.25486313298483765L36.03555796585988,0L36.05357702800029,0.4680716306405657L35.92797173794679,0.6621984062494448ZM115.38113113424606,16.880132755240425L115.4887484295059,16.92032340901028L115.44795700090435,17.01715898664895L115.37308469098025,17.122114152426093L115.25978207093976,17.182378556028652L115.23986790054096,17.05411338059082ZM115.24744833357818,17.353919431862096L115.34416098951078,17.400679590737468L115.26214318942766,17.494303654216083L115.27018963269347,17.617386082595658L115.17018383781851,17.612112709760595L115.16449851303878,17.4298956086393ZM111.51383652355707,22.024286031337738L111.47543728079017,21.87974927652192L111.6086230038809,21.86514078697303L111.61005210191252,21.976774917415014ZM113.05496341406888,22.180931570276016L112.96962140769392,22.12769879241705L112.86582539630035,22.102100444430448L112.91227108233215,22.007922329343614L113.0521362853533,21.998897682580036L113.19576063754539,22.0542040348098L113.19243643125537,22.13967272071261ZM110.16231366104148,22.556770391424948L110.46950760317304,22.61891506471966L110.45338364929376,22.725787495147756L110.16610387756009,22.70356361236975L110.11347578917412,22.618774625919855ZM108.95916845504053,22.862322858328298L109.25924797436255,22.80730906758265L109.32514182056639,22.920600802889908L109.3896065687386,23.198462037659283L109.20472477771546,23.22236804304248L109.00657722887809,23.047334711443682ZM169.88220782864482,81.1319224600386L170.2979510864925,81.04001332203359L170.6207719049271,81.33247569054231L170.6875977715872,81.96461341877387L170.42451946434903,82.16716576662895L170.0358047997097,81.9297181980869Z" class="state" fill="coral" stroke="#111" stroke-width="0.5"></path></g></svg>