<svg width="800" height="456.79999999999995" xmlns="http://www.w3.org/2000/svg"><g transform="translate(0, 0)" id="single_state_map"><path d="M710.3998544578826,456.7272292216735L709.3149827714733,456.72434939103186L697.8347879576322,456.67074005624045L695.7075972457551,456.65556545117397L691.0654646516905,456.58268266050345L682.7054149498126,456.5696124277115L682.6984260512381,456.5619696550725L652.3741259363069,456.4983903791176L648.4888291309762,456.21704078429457L646.9141152748143,455.95894411172185L645.2589848515036,456.0450141385677L642.764832730898,455.95894411172185L642.0700123586357,455.87431326632077L639.6484032358985,456.00557933196524L627.4732111156536,456.1217785556005L626.9252460805383,456.1193416007318L626.8218280750407,456.1245478216397L625.475093859739,455.9495284183463L611.875670370373,455.93534947199305L560.8014188530451,456.18081911033323L560.7026011352173,456.1780498627959L536.5076535377193,456.37765489306366L515.0383763845093,456.5543268754982L507.22699945431305,456.67716433336045L491.2654167136352,456.6515779591773L481.9499226495918,456.5839010710015L481.8624287167986,456.6700754755684L480.13873631379647,456.69455416236224L472.4419242399872,456.6869115030827L472.4340506707067,456.6828132626415L448.68648104908607,456.7071811494625L446.14977626753716,456.7664391255462L438.0486696812204,456.46748669013505L429.21850596632976,456.49617506468394L426.5040708400047,456.44788106522856L411.6403644451093,456.4200786601423L409.5924402284654,456.40479283657487L409.1681521580067,456.4022451966184L407.5822029838837,456.4051251373835L403.72026148518125,456.4157587562936L403.3974451446684,456.42882922781155L401.50097655284117,456.41797409187757L393.2250590350777,456.4396843497602L389.929660656313,456.41808485863885L385.3514012871983,456.4208540272657L360.60822325337176,456.46859435119904L360.4920659897143,456.4687051172955L359.68153068914216,456.4769018045231L342.44504899446656,456.6121459922392L338.35468551955273,456.59619593070784L338.268872461098,456.59375911309326L334.32288724535647,456.6378432500687L329.91191910669295,456.60018344892296L315.9827788453076,456.65135643178746L305.6701724288632,456.7400776848549L305.6731803092607,456.735979470277L304.65342038679046,456.71703904728474L304.6462545540744,456.7185897267923L301.76125491568746,456.7095071713352L300.4977682137942,456.72279871258525L293.86583426845027,456.79612333816567L283.3201171210494,456.8000000000002L282.6569679600507,455.94565136507254L234.56441058924247,455.960494930795L183.27916510860086,455.96093802190944L161.2743083101559,456.0701592699729L161.16133586103751,456.00967790192226L157.84815560108655,456.01034253470016L157.82037694092833,456.01421955819615L154.98376879014359,456.01654577143654L154.9610327530063,456.01532727886524L128.51220959857528,456.0442387368457L128.45736001481964,456.0400294119718L98.90095407244553,456.08223333723026L98.50603706941729,456.0814579389348L90.86646319027022,456.0625160441368L90.87150581329297,447.8993565920837L90.88106025691377,447.68657721172576L90.88663368235939,446.3816195397944L90.86947107066953,445.29008109940423L90.87088654379659,443.8266736690762L90.8682325316804,443.55000300320853L90.87239048399715,443.53824374336955L90.79816661178847,436.3004018325023L90.79967055198722,433.5738964887091L90.84310788364019,432.5727782064L90.83452657779344,428.29426856596365L90.79427406068316,428.2229174740237L90.81453301984402,414.318964356602L91.05100549948111,400.391932478944L91.15911225971831,396.9722131553208L91.1635356132465,396.9640695550406L91.16875517040899,388.76678394588316L91.1400033724749,387.26015763505075L91.14371898943864,386.57515589255263L91.1277949167361,381.852209969265L91.1753017336323,376.80507594152505L91.17282465565586,376.58499673006145L91.18379457240735,373.56189445029713L91.14292278580433,372.46772210221206L91.1992763097569,366.85865715287036L91.17335545808055,362.85830122210064L91.1760979372666,362.16097209644386L91.16539342172837,358.7169273443137L91.23492853919561,354.8553613336103L91.05242097260998,347.33689288938467L91.07913802792245,344.77682291149176L91.07904956085076,344.52613841584935L91.1726477215143,325.9377064055211L90.0326610501379,316.90518227285656L89.55370033006875,313.4611698189724L89.56254703712511,288.1230212755986L89.53680311958851,276.88562764594735L89.59979167383608,263.2270404883202L89.79026127677389,254.65397687419636L90.0732674355313,245.62183536430803L90.09503033489091,242.2768546161542L90.10794652719414,242.17795029800482L90.15784195499691,237.94973713355057L90.1526223978326,237.9029884533652L90.22835021024184,231.4047869555011L90.31009378344788,217.03613055439746L90.37617868516645,189.55327069180476L90.32327537696438,174.54903483857424L90.389448745751,131.17520929666853L90.36662424154383,109.9424720902125L90.37193226577801,109.86572304490164L90.36034307953378,95.85191594218713L90.35777753448747,95.83605234222705L90.36016614539221,65.2629246733386L90.41607733399178,59.36425872205518L90.38210597889338,58.79757823914406L90.44783701232882,54.149734194490065L90.43730943093033,54.096534111869914L90.61689758418834,44.90936142034798L90.59876183472261,40.90253117096654L90.52453796251211,33.79066036708355L90.58053761818337,20.76368587476736L90.43713249678876,0.32646791176512124L105.1171812531793,0.3926976002508127L127.50200411972583,0.38542994535328035L136.7415934372184,0.44966640021129933L139.04244500862478,0.39058763662933416L161.1600973220502,0.3903531961909721L167.30165829522048,0.3503809975190961L179.21711109626995,0.1617703843471645L190.5513352436683,0.16505264694023936L216.4542281056074,0.15473695981290803L239.29474485266655,0.04349077682718416L250.46362404516913,0.07502436756249153L271.74773961967367,4.547473508864641e-13L284.3837567105238,0.09155307560286019L320.11684505308585,0.16259095012583202L321.38157029396643,0.17185161501674884L321.57124369326993,0.19330349231313448L322.143537172793,0.19834408871747655L325.60242269797345,0.2658643188392489L326.08863771783035,0.26961542543631367L331.8558945154182,0.5065175616559827L341.02037528999426,0.6693322847813761L354.85591739071424,0.755485555818268L384.1172856527355,0.7687308034496709L384.6142051881325,0.7659176554102487L424.21790480231175,0.6178742945853628L426.0412995938477,0.6157643924580043L426.1959400332071,0.6135372729195296L461.53906552869194,0.6325263768044351L463.8187734702333,0.48928642906867026L477.3989111382143,0.2915359181756685L493.2212467098161,0.18943512539999574L493.22929721323817,0.19213126011845816L495.8289905490328,0.23104927387430507L518.209390062053,0.20948027841859584L518.2537120644083,0.21991311526335267L518.4941655622206,0.21721699023692054L526.2692709934818,0.21311418947971106L527.949791466046,0.22284368487180473L529.5883785471597,0.22049922927317311L531.278718864558,0.2274153712505722L532.4917793362256,0.23890318660915L533.7312914619943,0.22764981662976425L535.1339368658955,0.18251894942341096L535.5904269500406,0.21416919559669623L539.6228444937315,0.21440364138288714L539.7351092062854,0.22507091703346305L541.3140694818358,0.2166308759765343L545.4898036798495,0.2411304141414803L546.3848250328156,0.19857853498342593L547.9984644000288,0.20760471075254827L549.725164683432,0.20666692674694787L559.2752734186288,0.16294262114888625L574.8433546294073,0.20197800501546226L581.6619540936572,0.21205918321902573L582.6129751022927,0.1793539176737795L588.3387408437811,0.16845213172791773L588.3431641973093,0.1729066267671442L590.5490021349251,0.10386166500029503L593.3513735293982,0.18732510626523435L593.5579441391819,0.1875595528640588L618.7865409892293,0.13433999244898587L618.8987172347133,0.13961507537806028L620.4024805002773,0.12613430073406562L620.5387197889559,0.12613430073406562L621.8262695340454,0.12894768173146076L622.2456034485513,0.1398495234229813L625.4903986629488,0.11230182925510235L625.6606093067276,0.12238312447561839L627.2009979395061,0.15086857358892303L627.3077776936861,0.15614364523162294L628.8837300888354,0.14746908106371848L628.9852018187794,0.1608325947809135L629.1458580189374,0.1623565027693985L629.2415793892942,0.15813644913714597L630.5503612313205,0.1337538719017175L630.7026130597715,0.16329429215556956L632.2544139446563,0.13645002605198897L632.390564766265,0.15262693120394033L633.9371460939838,0.1369189223291869L634.0920519345545,0.14500737864955227L635.6304058247115,0.14840687225432703L635.7773496289301,0.15391639319932438L637.3630334018417,0.1478207527752602L637.5433292916641,0.1706793795692647L639.0048937645661,0.13398832012398998L639.2533092987287,0.13926340329362574L640.6822294225894,0.12812711237938856L640.9496653769274,0.15250970737452008L645.7033549469816,0.12074198428945238L646.3069657694869,0.13703614639507578L647.3779481258189,0.12695487029805008L648.7043349148862,0.14231122748287817L656.3267461823434,0.13035437184680632L659.1957332809561,0.09928990551270545L662.9411636477162,0.1351605611407649L663.2028492424652,0.137856714800364L663.2242582735416,0.14582794620946515L664.0600951562956,0.14582794620946515L664.8792117627127,0.14360069120357366L670.9687540983869,0.11710802978041102L672.5096735335919,0.12449316134416222L672.625919264321,0.11956974108488794L680.5552227995886,0.13398832012398998L681.9288510043425,0.1488757678098409L688.2306258423159,0.14500737864955227L688.2492923942082,0.14231122748287817L688.2553966220767,0.14500737864955227L688.3614686396922,0.14500737864955227L690.0648136164637,0.14055286752227403L690.4441604150707,0.1243759370886437L693.6184473742233,0.13094049265100693L695.3639911436585,0.11511521529018864L695.615149157009,0.11745970287120144L697.2209149549399,0.13105771680830003L703.0807967754135,0.12965102682119323L707.8911052706335,0.11968696541316604L709.570564138352,0.12507928259447L709.5990505350746,29.701138973869547L709.5607442935179,54.389770316930935L709.5789685100553,56.45514932715605L709.5837457318685,65.76973883125902L709.5505705804026,70.83746779652301L709.5742797553157,71.22265377743588L709.5542861973663,75.05617200629376L709.5975465948759,77.57374544966478L709.5433162806166,89.5233862666937L709.5457933585913,90.23616837810732L709.5444663525341,97.94030499683367L709.5363273820403,99.5972606749574L709.5590634191776,116.3937693318021L709.5745451565272,134.07556659840156L709.5927693730664,134.80541550861062L709.5967503912416,135.9759829832392L709.6024122837571,137.62542878677505L709.6608005503331,154.1249347905623L709.7045917502655,156.62819210254384L709.676016886473,157.52026518766024L709.7174194755007,163.68953405646062L709.7305126019437,165.78705375708932L709.752806303728,169.8175420141606L709.7422787223295,170.07461347562594L709.7417479199066,173.57344747570414L709.7691727117835,183.06742340292521L709.7690842447137,183.65410922870842L709.7870430600397,185.3273527503029L709.8053557436469,188.74820653484858L709.8505624167083,196.82081158753226L709.9566344343239,215.79015390148106L709.9668966145091,216.6248940929063L710.0167035752402,226.04668745553818L710.1213601197251,252.61783340136253L710.1261373415382,254.19913580255707L710.1160520954927,256.01630387840396L710.1228640599256,257.535669774074L710.1302952938531,259.18487288817505L710.1225101916425,259.31975775803903L710.1369303241463,265.757585841553L710.1418844800974,266.77905795766037L710.1444500251455,266.9864650070799L710.141530611816,268.2901745207423L710.1466617019105,268.3213367786261L710.1491387798851,268.9251810417154L710.1302068267833,275.0832087116132L710.137018791218,278.89112842480927L710.1389650667697,281.47969873904594L710.1359571863704,283.1691741653194L710.1457770312027,285.43253258578216L710.1325069706181,287.4961830593802L710.1324185035464,287.5116708970445L710.1270220122424,293.3596720649066L710.1613472356239,297.19597629235113L710.2050499684865,297.6338509870511L710.1606394990595,301.17651983542464L710.1899220994183,309.30914494585477L710.1939031175953,314.21278398011555L710.2089425195918,316.33135590885286L710.2219471789649,328.51534765200677L710.1920453091116,330.40092753163435L710.2215933106818,331.75054108577524L710.1871796202304,339.33436630427695L710.2579532766867,352.5154367258815L710.2578648096169,352.7360455199273L710.3132451957954,359.26146817258405L710.3297000709208,364.1665447385408L710.336777436567,366.4746191800814L710.3619905516789,368.1289904060641L710.4071087576704,371.3293161219535L710.4320564715708,375.3891084700085L710.4587735268833,380.24618471334134L710.4481574784149,381.8953489575051L710.4580657903189,383.145388109534L710.4578003891074,384.2865297488788L710.454880975778,388.3539434797285L710.4304640643022,393.9234953251989L710.4300217289474,395.797109629008L710.4196710816905,396.45814670343634L710.440018507923,399.71459142624644L710.438691501864,403.7927479222776L710.4427609871109,407.6522135516193L710.4503691551799,407.6650260565534L710.4497498856854,410.43228869378436L710.4631968804133,414.3161812512699L710.4132129855388,416.7871023087532L710.423386698656,416.81002828564806L710.4372760287351,421.6078524914187L710.4508114905329,422.924678089802L710.4243598364319,427.3147494486475L710.4209096206796,440.2450031149292L710.409143500292,442.10071662704195L710.4129475843274,442.10071662704195L710.4379837652996,443.54833895800357L710.4225904950199,444.14981435867776L710.4281639204655,452.07391048002137L710.4432917895338,452.14993535250915L710.4280754533956,452.3958478385234L710.4255099083493,452.54800189829984L710.4253329742078,453.21986271977676Z" class="state" fill="coral" stroke="#111" stroke-width="0.5"></path></g></svg>