<svg width="800" height="353.6" xmlns="http://www.w3.org/2000/svg"><g transform="translate(0, 0)" id="single_state_map"><path d="M242.90821491911447,0.05474024100749375L246.73178904067026,0.035929952129208687L247.69778693398257,2.66185104154647L247.2380124235424,3.0163107890753054L246.3453621526769,2.6612173019120746L244.97616031595498,2.8636932331778553L243.37353556357448,2.784372604085547L243.3275026511892,1.6862241662529414ZM247.41860841264133,29.98253405015248L247.8198018824678,29.630932500604104L248.50696788781534,29.52805362548952L248.6647554007468,29.88827854733563L248.83287258829296,32.464306089780166L248.1837669276756,33.447700079464994L247.71470264275013,33.8217282579335L246.25038460754695,34.4257667625734L246.2983586668397,34.1139390549215L246.71244689826744,33.40863665537654L246.66475014567732,32.91191795640725L245.92309337356346,32.31411342143883L244.3029982990156,31.873068474211323L246.39999157279453,30.052935614575745ZM270.26722472378606,27.953410177211026L272.1362718892542,31.172089479181977L272.53060201823246,32.17704575965172L273.80330112296906,32.77444570126954L275.65265951265974,34.94459892676514L276.2522659271308,37.64218889190124L275.7406350635847,37.58500413702768L274.4689758589775,36.92570846767012L271.81799312305884,33.8854637178747L270.5522960125254,30.66213267665853L269.82935744273345,30.083617794051406L268.6778413663815,30.103161829221335L268.45960099261174,29.41413841836129L268.4401201968576,28.54718847003005L268.89441789994817,26.75503406672442L269.77133101552863,27.28807638925855ZM270.0343564215291,40.14963115312048L270.11796439191494,39.94354601488112L271.77397068425853,39.22360091226028L272.96340845198574,41.32662730990069L272.33024792667857,41.51567313288524L271.59212681500503,41.309431459197185L270.9446156679169,40.97263317293255ZM268.9774019302549,41.443117242476546L270.3528431677514,42.719829912256955L270.55576234628825,43.34769440379205L272.019040481362,45.63211566631344L270.71556033280285,48.24112376350104L268.78564434643886,48.67714243453156L268.4300678289419,48.586360523802796L268.31748130829146,47.61247751159908L267.8703935794292,45.96840826548441L267.47391432352015,45.6118955244292L267.24922656894887,45.09976589012831L267.21747495167074,44.04601449734082L268.25515662721773,42.021544591689235ZM273.4910537775195,43.57356066883358L273.9630297828062,43.5859280098357L274.8834107237835,45.27715190979961L276.1645676829048,46.435201491590306L277.408288237375,47.221931567514275L278.02640487414646,47.441977217480144L278.3819813916416,47.79847157646145L278.7902461823487,49.79854251039387L278.0555220777642,49.451814317413664L277.59595554735097,49.0415109296614L276.9197431566972,48.9739790047247L275.539449051932,49.775721122450705L274.4385414485314,50.11332108139732L274.1143699149343,50.13017434538506L273.5013834521378,49.82565586653618L273.3083086614897,49.55765675938528L273.14878798167774,48.86383206554956L273.1993964546309,47.70997859275576L273.39531363896094,47.18171281234436L273.28446028519465,44.10019517314049ZM296.20829603901257,102.82319233338058L297.4746170896251,104.31281000771196L297.25457422229556,104.43777227056262L295.90367462784525,103.82661061936005L295.32070661544094,102.93316091515044L295.74921479532895,102.68243753815614ZM282.49450909575353,74.93806803959842L282.2712078746863,75.23083582639174L281.7013426039084,75.54952807053041L280.25816920466605,75.64672592763372L279.8048420750292,75.5895325482361L278.65817886594596,74.2515112858955L278.0194028799433,73.93013602475457L276.94858305361413,73.89720542678515L275.63595178391733,74.32903859813086L275.0611643191951,74.8675304744047L275.47774831093375,75.49577158003558L275.2676191581686,76.90513724955736L273.26685130967417,77.35817997826507L273.21201390952956,77.95603321300496L272.11803897365644,79.90564501931749L269.69631955287696,80.17242998074653L267.7424165368684,81.06678552358653L268.54071320268486,82.64041586364874L270.47076784239835,81.81781158923377L272.17523348076065,81.63820767388961L274.748986300423,81.97961641999518L274.9505882721278,81.79429485102992L276.4720314877577,83.2722137189885L277.73849119172155,85.59381481505716L277.90210214537365,85.96689065885175L278.1227689527823,87.20696181117864L278.655891085662,88.74843545991325L279.13902868566765,89.47261101818367L279.81364656278856,92.48973003774654L279.69537525476517,93.04975304803838L278.8839758473223,93.99178412733818L278.86747609860686,94.30011704129129L280.06641162085,96.86896926211375L280.72078610879,99.446023841248L281.14832371522243,99.68642465022049L281.303615467843,102.18168110425677L280.9700155064129,103.05452794791972L282.26864278770154,102.91201727309499L283.05501526536864,100.88111216129482L282.7178103168226,98.96570836703768L282.87864820346476,98.76904763213452L283.08059680854603,97.08593296300796L282.6767689250555,96.48575932036783L282.08638295839773,94.88205984939941L282.92842475631187,94.77815355933535L284.4655358005566,95.12027892276183L286.51053406788014,97.79144501972587L287.42474493475856,99.26213791992586L288.6139053957868,100.22889422291973L290.73793607292464,101.10382271817389L291.656237213645,101.36643920570168L292.4273578227512,101.32216958528306L292.6350605418829,104.81139822598107L292.91943856386933,105.38080119651977L293.99746836442864,106.8166788637136L294.2301980133325,108.06744886006345L294.27574563899,109.16067507527805L294.19643592247303,109.73634346751624L293.63690032631166,111.37315573339265L293.0085233416012,111.89105619921474L292.38728700444153,112.7924249327807L292.4605653002109,114.1838062360248L292.35518875378875,114.62966270937613L292.1335513729282,114.82801605187524L291.4456227741539,114.65500022463812L290.96525824116,113.96153637704674L289.44527088570976,113.99008341811486L288.62991985777626,113.72043192425235L287.62579229306175,112.1175507570756L287.6091538909968,111.50043661788413L287.95363814044686,110.42373106949753L287.95571794070565,109.88022500780244L287.5451653697146,108.7093930327701L285.744196999367,106.08998361352315L284.7150425048785,105.85380710492382L283.7616620664685,106.230855861274L282.82186965641085,106.84578190425236L282.6161774108641,107.49160078872274L282.3777629745873,107.69032249660177L280.6026534541179,108.28903184763294L280.24014426909343,107.62332335048814L280.31092680455004,107.23995196806209L280.8633910798344,106.34541540829696L280.9673117660768,105.61875968508866L280.873027487698,105.26591017615738L279.6879573005117,104.21965630398608L278.17927019313174,103.81718048380844L276.4071417196992,101.68139607950798L277.13895410392433,100.86835890140492L277.3583730311766,100.00085838315545L277.2681790266397,99.05521979468995L275.9436235687972,97.3466720292954L275.99984750244585,96.65178920909784L276.4106773801377,95.76461083612776L277.0339241908787,93.42043871046371L276.7699282114245,90.86218321966226L276.2528205405324,89.13635805969534L275.70541711254555,88.38864917341562L274.6167803306689,87.94943173317552L273.03245782056183,88.0292543464443L271.9776524562203,88.56979244410013L271.5546210836801,88.8529788581518L271.4007851912411,88.79831725749955L270.91064559703227,86.76733512038163L270.46293392809093,86.05454097743086L269.18565926278643,84.80005793857617L267.55495720692124,84.13536588537772L266.8906690044132,83.12782127552055L265.6129783790584,82.53564648683778L265.12748367209315,81.59366996055996L265.1348322996728,81.26555705699502L266.33945260928704,77.88095378138996L267.76349184615356,75.86413850166446L268.4173810473676,73.27555004125043L269.4928457609403,72.12709426289985L271.8046130747298,68.01853732538984L272.4148957971938,65.91698939292473L272.4335446728437,63.131209729587226L273.8104417705217,62.71559254538761L274.49032847496346,62.84550251601968L274.65310750851495,63.17715536166634L274.55736736995823,63.407921730031376L274.3275494414138,63.49448263736076L274.2892117899846,63.73964387302021L274.43285666116026,63.79738250082892L274.98823265680403,63.58104213415254L275.72552184837514,62.54254836483551L276.2426295192672,62.08093039362893L276.77887135253513,62.254094054547295L277.142697744388,62.701181114910014L277.2384378829465,63.58104213415254L277.95340388507975,63.79341494793107L277.68628820523736,67.15026260117475L277.94480737734557,68.1624014027575L279.3061752997619,68.69306864711598L280.289990148618,69.32715018767885L282.74103475303855,71.59197386370579L283.39346809407107,72.67383516667996L283.5209598499059,73.68148412680375L283.4447698337772,73.9624411601435ZM670.9697230379234,308.6897079789801L669.2579087719814,308.60378691851656L666.1242737227822,308.5339314125508L661.5887839728048,308.5464056748565L660.2893940980866,308.48044145631775L650.4055593305093,308.3995069740213L650.2725907673275,308.39960677065847L650.1202800617448,308.3960140904992L641.7361199337611,308.3654762147653L640.6088681937554,308.5963024422881L638.0569532768059,308.3718632354221L634.6457342197973,308.368370334415L632.205088616668,308.44221977094367L632.1903913615097,308.44601201264595L631.8615749406699,308.4445150754418L630.1471262610676,308.3999061605673L623.3302342810721,308.3430217866312L615.3792272202209,308.2453190118904L596.0329945440744,308.15340297455805L587.0700260042004,308.2038022941583L586.7357327760155,308.2040018945081L585.6952087067821,308.1619858614845L579.9471260795326,308.18993005207085L579.4172623003906,308.1902294533452L578.311779136422,308.1861376344991L578.045703356709,308.1881336440724L576.1629295095336,308.15340297455805L573.9821896120175,308.1867364374466L570.3211865439862,308.1698701295768L569.5884035863073,308.1746605654539L563.1828960974071,308.16887212158053L561.3616150112011,308.17006973115485L558.5821699459921,308.14811351434264L556.344790154777,308.15480018961534L555.9067842203749,308.16028924535794L555.6158894909149,308.1503091399509L551.6074904530669,308.1351393451905L551.4960824858972,308.1327441106296L550.1521848856519,308.13663636626416L548.8243710740699,308.13863239373086L530.5656659529941,308.1746605654539L527.3844728045551,308.24641680547757L525.8988714800435,310.3004055888109L524.6164666407676,311.3115037055654L522.2312130511855,312.3693874624364L520.0294671710599,313.94302247537325L517.74868888112,314.9285347414566L514.7415750143009,315.45242158718975L512.9367243501383,315.42580981071615L510.8420188566397,314.9418916818822L508.6648146195639,314.22405991414007L504.13369245012836,314.8962387222955L501.2298060027988,316.05020594043526L495.27741766350846,316.47383824745475L492.67260649332275,317.57457245146406L490.12117686310194,317.3456154640139L486.866150805492,315.66640750814895L484.85810365608995,316.25191118545536L483.27440508606196,317.6411256201568L480.05182391248127,322.4981420115673L472.90771002517795,323.6217629456846L470.8467666225424,323.42749206496046L466.30725592539784,324.57868640024026L465.7520185831054,324.70246932580767L463.58091509345104,325.3574578316493L459.54034847827825,325.7325264980209L457.0859068667687,326.97226108602536L452.30222761930054,329.6322329974496L447.3660296862199,330.8250766940396L445.3485541089831,331.93826530451224L442.5546197686417,335.514539479178L437.6045565005079,335.98137111424467L437.15393311120715,336.09060066952134L434.35306610333646,336.9941445216791L429.16029014505875,338.16565304278174L423.72494014998483,338.64208776109854L422.09569395429753,338.0863425430289L420.9794651556622,337.1134807427393L418.3796455060965,334.28327004385073L416.1819205731372,333.4687955747536L413.1452735426501,333.538337033523L410.795029924082,335.09782356030655L409.3737637542272,336.51786617171365L406.96112612790967,337.45122209407054L402.47562091080727,339.45620019559647L397.8444603489479,340.9149125203803L396.8483746785678,341.93700326977023L395.0782566787184,343.75166104645405L393.83723986458244,344.0392224990055L393.6708558439186,343.91031748160094L391.72270694195504,342.41281693166184L391.09183419693545,342.38306117459933L389.3655306558612,343.1169899904867L388.98423394183556,343.21626129417155L387.3224042087695,342.73297879238044L385.5106902037551,342.95305457316L383.37626052532323,342.79923055316885L381.95069610159953,343.2609873457941L379.5151806724425,345.7158060291167L379.72399261837563,346.21310213730885L379.36709889404847,346.416289854827L378.6909558300722,347.0411694308759L378.16892596523576,346.82313854172435L377.74943025313405,347.22708356100065L376.20219751429977,347.40427098536065L375.0937333032962,347.3702807707218L374.212244627146,346.35464051284L374.30396381853825,345.08344120731726L373.94804066766665,343.06899004252637L372.8795779482971,340.9453706275681L370.4251363367857,340.23576246779885L367.9196702922727,339.37948836879514L366.19516924475465,338.09855186773666L364.422347504571,337.5998336895682L362.0095018982265,337.7822919160835L359.98758941376946,338.79711874002305L358.47259357893927,338.6876446887936L355.75103628758734,337.9554132181679L353.2342006683284,336.0214884007805L351.62311806156686,335.64105761254996L350.8803520626461,335.4559469014116L344.0821089583005,337.6288209250574L341.5035032713695,337.5866305492441L338.8000402422658,338.6063565757722L336.8765023100259,338.6827813308987L331.5938096539139,337.41995061024136L327.7210135929108,338.7584110266771L325.3162098808989,340.99715894745805L325.38532857615064,341.86092088242776L324.87168723902323,342.61574694405454L323.0080475542236,343.63028581454637L321.8510546705256,343.5527391391388L321.58095794364635,343.69077543643243L321.0393086297063,344.7591516019329L319.9127501564526,345.5467925359417L319.6880624018813,345.7477247158881L318.2563279040587,346.4298684765222L316.94737094815173,346.50707767293807L315.4358414470844,347.0655487168815L311.46335362703394,349.6416186439169L310.722875408399,349.8503271192344L309.7633248958882,349.73066987215134L309.7633248958882,349.73502829388417L309.53503215420096,349.6960004867369L309.5310112070347,349.69817971161365L308.7544137905825,349.54335356472075L305.7771797208061,350.21809855043375L304.52895293244364,351.5605104504393L301.2502864785656,353.18384643383206L300.30522524118715,353.52279022448283L300.0226497127587,353.5703040592671L298.0676374699451,353.60000000000036L295.5302118281288,353.1347453876715L294.053553644726,351.03566646459603L292.14707007460856,350.39192226056184L291.3498133089215,350.5305811540243L290.0392618394817,351.21471314789596L288.1003333853332,351.6155666856048L287.0453893676422,351.2464022260856L285.605612975487,350.1577789676503L285.2828279753976,350.0135639799637L284.3854634906111,349.66489691131665L282.20798194683266,349.0357550814083L280.51079560937615,348.3287647603056L278.2051983696856,347.61811718975196L276.7354728538121,347.25156113089497L273.872211838192,347.0434487995476L271.71608291039956,346.22083331811154L270.6068561059674,345.55670549269234L269.0608019206138,344.2977176252193L267.3415003737409,343.633359893186L265.55973549244663,342.34408089164344L264.8178707403058,340.0326462343801L264.9565240908596,338.12713944978486L265.8163828443212,334.67412366061944L265.7232771194249,332.21531027722403L265.1630482565106,330.08643850003546L263.35549385201193,327.1614347259042L263.3306749022613,325.6669659291683L264.0424518773325,323.7573106189284L264.0550000055573,323.1283095372942L264.0889007497681,321.4197929053621L263.1831477372725,319.7634329107932L262.252853081729,316.9351031375977L262.6214630141767,314.9726922647769L262.08036831364007,312.12435783939964L260.441485710091,310.14577186225233L259.157555683958,306.7877556105932L257.6369443884305,305.10922947465997L257.194224240111,302.2127412753921L255.8325790109957,299.8689877528591L251.77267025341826,297.76131722939726L248.89200824230466,294.8602654778856L248.53130155083818,294.6381679686174L247.65009018139062,294.33131852647784L246.8408399008822,293.80842450832597L246.32248434983558,293.6067978840315L245.64537071240557,292.88148138672614L241.90471129447724,290.4713796798774L241.15022908743776,289.71120354435243L237.6485387191915,289.3401890588234L234.41514258427014,290.98548040823607L233.1574180413936,291.6252610293591L231.76831944886544,292.59595187947934L229.76249075307533,293.75769334287406L228.31578169339264,293.7788063698713L226.14578743054517,293.6287120036495L223.43525308056087,293.60469652551683L219.31627799564922,290.05575897479275L219.5393712366913,285.2954601878323L218.15540281813446,283.2422550050628L216.68907430934996,281.7684343005981L216.2661122634836,281.4374997683972L215.93334422215412,281.3071261491814L214.43581870949492,281.1192824131367L213.39987020082845,281.6057774534029L212.69253013297566,281.8814488941025L211.88133870555794,282.1616187990453L211.21809040318294,282.312126514149L211.21968491671578,281.661735160897L210.36786805758493,281.71157514837023L210.05714589899435,282.00499013958597L208.86216199724186,282.17244827254126L206.65050240255187,282.22398825220534L202.77118963407338,281.5376847794155L202.10398971120776,280.9690429202765L202.03778273631724,280.42331205628625L202.17719868029963,279.5680475079703L202.12929394768253,279.14146892433746L202.00353535873,278.6093028384089L201.50514589016348,278.2872089594416L200.60382978488633,277.680798434038L198.97402897579923,278.0939435682285L198.9903207444877,278.70632866457026L198.67509235200305,279.34172019132575L197.78126352765503,279.18631540834804L196.5276985852961,280.71117905138317L196.03395400397312,280.86904813794854L195.45355107855175,280.7587207909214L194.9266683464466,280.19421131108993L194.0322155820195,279.7654743637195L193.29853137756436,279.8570627680074L188.4882306867894,284.2492071633492L186.14630626925282,283.6774373416574L185.43397468078183,283.1034024372648L183.02334752804745,280.5177982861919L181.97831722492083,279.073546371294L181.8753671121358,278.82592794583115L181.91398207026396,278.27546873242454L181.62599906116338,277.90307979632735L180.88455026907468,277.30335110373153L179.77116386412308,276.8797080957388L178.43406027805395,276.63108740254984L177.78426135068366,277.3763135642189L177.39083246848713,278.52722587941344L177.16912576095092,279.84833535168536L176.80717118932807,280.62572324516987L175.6325693301078,280.34126218651227L174.26614056039762,281.49686888422L174.1610413206763,281.30431806798106L174.19279293795444,280.74718644041786L174.57180187169433,278.5618428392513L174.90997739369595,277.65811820475164L175.3786257185675,275.51059888082636L175.8135119525814,269.52342464668163L175.87770845388877,267.2302478363363L175.90550845067446,258.77555121530986L175.56379726823434,252.44513375298993L175.11546165921754,247.88304081143542L175.0348347358704,244.9304581362403L175.07178585379188,243.2536168390343L175.7389857766575,242.420507794488L176.50033132455246,243.39812797565946L177.3717676327833,244.91319455354596L176.20472238117145,245.7234136276893L176.3340859572363,246.2659489565085L177.8622538603704,248.92798233710073L178.22504035209568,249.78350121892618L178.25401890236026,251.6437751651806L178.0549820176402,254.92227126286753L177.65857208840498,258.469712907955L178.05408077086213,261.8319889744098L179.77067857739712,262.13250700968L180.50942362914975,261.8278625236485L180.4917453269536,261.5542014497005L180.2622047051118,261.23915724972403L180.3662640447037,259.250941294491L180.6639527883417,258.40596507083455L180.98964950879417,258.2514767127195L181.3109786487039,258.3687029582543L181.2998863806588,259.11681719839225L181.88105189950693,260.5846528897664L182.07419601682886,260.7732008442963L183.76417238005888,260.40072933189595L185.32228940690948,257.3259659432233L187.02003035777125,255.82148827067022L186.98266327979582,255.2355629840281L187.18981138552408,254.37414396315262L186.56122642078662,252.8740966873088L185.6197008438503,251.7930053369073L185.38780311504706,251.3180762598372L185.24325699709334,250.3384426038392L184.79062313421127,249.14638892699804L184.0780835657133,248.39469060614329L182.93994753768857,247.6637764985312L182.68905429986262,246.6535133094103L182.5873520672285,244.35366341172266L183.97568806632808,243.8994944183828L185.2723048740354,242.95024210011707L185.34142356928714,242.6155408327072L185.1782979023592,240.68288122392187L185.71024148176184,240.08259928746565L187.09642835392515,239.57502108662402L189.22468795825807,238.05766394362217L190.16378710156096,237.66595094408967L190.5205421725368,236.22673288438773L190.34618558421425,235.91295620370647L189.41554429529424,235.1189791446086L188.81704710762642,235.06052103805268L188.40815837684386,234.8248617646218L187.273003395856,232.8474513134688L186.88567526108454,232.847350133286L186.04855565711478,233.20045753304112L185.65651330842047,233.74605962787246L185.69332577299247,234.15069865539408L185.90061253207205,234.82587319956383L185.62164199075596,235.22112761957032L184.775925879052,235.3688855441237L183.41642977686752,235.35968239532485L182.03814614568546,234.2737029701916L181.59237562365342,234.5483284165448L181.2692439901857,235.43158790294456L181.58107537558317,236.51228128374896L182.15447630679955,237.40068209827723L181.6846494284473,237.58578530862633L180.72392036245765,237.16583157827017L180.25797577792036,237.12316716183477L179.6190611385664,237.68849415782643L178.3049740086899,237.01761679305082L176.91393426925606,235.89859667148403L176.93937715908214,235.62120758705032L176.64210437549264,235.3276229535495L175.48310101821153,234.5207147703618L174.24451063771085,234.38527438628353L173.46853716133592,233.71550816248964L173.1677287173079,233.25235935825413L173.26991623666618,232.17881169951943L173.15802298276867,229.3890279975899L172.84071479002523,226.72747327192064L172.3661043710781,224.12035621713858L171.33306758277467,219.71819115774406L170.2761130914987,217.10842458772368L171.69821118145956,216.4136961433096L172.18842010234403,216.39948809174393L173.38423592419895,217.55143761591444L173.59013614977084,218.12650928105813L173.66889125288617,220.94457734476828L174.79011157214154,221.57556214318583L175.2590372037157,221.37166359734965L175.62632992933322,221.20709943003567L176.03993287403682,220.66946819317263L176.44244355069532,218.5573673580152L176.64591734263195,218.28152878448964L177.34639406963288,217.824878177561L178.91179039738927,217.3016257270301L179.19887215971175,216.62224577240522L180.89300812345755,215.4458400097451L181.28844747923904,215.3319513152951L182.80566176767752,215.51232473143955L185.7338125513561,214.3243080321613L187.97805568342483,213.6154146176782L189.5520485189154,212.74110050963463L188.44587208819576,211.4717238967787L187.5261844139677,210.67427619682758L186.91312862449377,210.3671514302273L185.2928255699171,210.37355215656544L184.07288406506814,210.58944525583274L183.464057202782,210.37822569801938L182.68836103310787,209.36813930143944L180.440304933898,209.52503456918294L179.01175946313924,209.02090095645235L178.4911854584825,208.40980106079314L179.1608118149852,207.7295120507115L179.49496638982237,207.116233645987L178.67781286832906,206.32302666055512L178.68030862863816,206.0046742803388L178.03238152149788,204.4447726996318L175.29321525462728,203.33063158460754L172.48395971904756,203.17803351112525L171.39698677737942,203.27874872100665L170.0478896764871,203.94077754129694L169.52613711835147,204.53559873777795L169.37049873235628,205.36771013390035L170.17156846518265,208.69630398379923L170.2892851598026,210.46549826633054L171.23552495065996,213.2169641641558L170.06522134530678,213.58292230022744L168.86191824252273,214.6821717044022L167.3722959708448,214.99504200616548L167.76107996579776,213.44513240862125L167.99276971457584,211.73693821338156L168.134750745543,208.0724623566698L167.83054529442597,200.76336091594158L167.60564955982773,198.05241704445507L167.11426208546436,194.8124520233464L167.1857378876739,193.87151336380612L166.9774805551424,193.67013901361634L166.7057893147321,192.56835840442773L166.27818238162217,189.79783247390378L165.36833909528468,185.2932256863387L163.47350240661217,178.23192514997527L163.06551492260587,177.43325123750765L162.27824119816069,176.6789305981888L162.0105015782392,176.51750314227684L161.0578837332596,176.41874273942858L160.00578210925414,174.3595964287665L159.52611084301134,172.91249920361088L159.06474181904196,171.98646863375052L158.5402161938964,171.5865822426258L157.71730855835813,171.24980745354424L157.39064126445192,170.01724343550313L157.21323430241682,167.85120788198856L156.5148373756765,165.06142657339478L155.93034417641502,157.57370428073L155.18161608342416,151.7567098167401L154.96857521029597,151.55971631911825L154.46990843502863,147.98186942672282L154.08687855412245,146.22037815581007L153.86635040006695,145.77662495556206L153.36109759064675,142.85460970752865L152.40660792543167,139.43474761731977L151.28885393993914,136.79210537727658L150.72640662341655,133.279441010538L150.38143708723692,131.9250683356786L150.01047004782959,131.11939462813234L148.38954305317566,129.15135149562002L147.15830130025643,128.98911170009524L146.81977914487834,128.70401984295404L146.43265899013204,125.83750960164252L145.90695481150397,123.82117188241773L145.3350097404691,123.2412337279643L144.7323529522855,123.10648746689867L144.30946023309298,123.25021669159241L142.4274489793479,121.75811553202175L141.15689900154393,119.79417501534317L141.10282419482792,119.05994000260216L140.87203569282974,118.73639415148136L139.0827835306045,117.5311146069339L137.60154978663377,117.31218804777336L136.49412547575957,116.48860085036131L136.17238037579773,116.02294460129679L136.20336939964727,115.55755805181252L135.1124448374867,111.58860013842423L134.66015760797927,110.77737884866838L133.94137863870674,109.92100799222271L133.2416645051344,108.57904318482588L133.352379205553,106.72004734733991L132.7843164283331,103.26678407418058L132.56711595468914,101.16354240609371L132.3427748334925,99.78950951652541L132.1371519146196,99.19949287757527L131.76854198217188,98.8084633386411L131.5698517308283,97.71124959552435L131.66885022312454,95.86195963525961L132.1203055325277,95.3046189342358L132.22436487211962,94.6619961808974L131.6706527166807,92.9778972730769L129.8239980673261,88.99867110974583L129.13225650141067,88.2486564402434L129.03027696207755,87.93779083555273L129.12927545437378,87.25134868157193L131.04220640529275,85.75165778230757L131.5997315278728,84.27733884059035L131.96099283274089,82.81915369863646L131.99641876380883,82.07752936778843L130.98133758440053,80.09717361774938L130.91970617007973,79.98059181303097L131.35348317728858,79.36453950542682L132.39241273299012,78.38420523855757L132.65585409904452,77.33016535102433L132.97184508495593,74.22650223450819L133.4608754523615,74.10041314332875L133.69360510126535,73.79080485463146L133.95981953432965,72.63120286288904L134.17667337459534,70.48278023243256L133.40492882541184,69.41027716599956L131.55869013610936,68.53336288658329L130.3722334154154,66.8055008753222L129.45677466838242,66.30543141104908L129.19049090864246,65.77327326110935L129.12359066700083,65.25588387553125L129.53878812523726,64.74909195000873L130.1552409217984,64.35615140722348L131.71065420831656,64.43674625751555L134.57162744365087,64.2606261346964L135.5320792029379,64.80003429182216L136.10617340090903,65.73966587796258L137.44598072731242,65.5664070519415L138.31284147497718,65.26861829205154L138.44782051174298,65.1802074100633L138.9052379152199,66.04421197716465L140.14403627574757,66.8139532310679L140.70024419149559,66.63728576507447L141.98847247149388,68.13214749659983L142.50412428220443,68.51823701062995L143.43088327730766,68.60909593551605L144.4618402653541,69.21262682653924L151.15706393023902,73.62791719225743L152.43364532878877,74.8903484892453L153.45406466219174,75.31470405692562L154.8075293436268,75.01433507866432L156.12050724670007,76.04435397924499L159.11999517923869,77.02928520758496L159.36659016319754,77.57666818294274L159.27403905170286,77.7002797965497L159.2241931721801,77.81691154309874L159.35938018896923,77.96207284387174L161.0007585528292,78.46937737639792L161.43009865281965,78.42439666165546L162.17293397841422,77.99435351335751L162.36996038955112,77.7827553676384L162.46597783481047,77.39025602468837L163.3186959407194,77.62998710799957L164.75438205903265,78.58557579717171L166.50009706918536,79.31207079046317L170.06362683177576,81.27960607316481L172.16533431947573,81.99303923661637L172.8032090587003,82.37531517898697L172.42593329184274,84.12309258779715L173.56968478056478,84.50001554129449L174.85867565399167,85.18171657528455L176.34157323816726,86.44567465307364L181.1737811583298,87.79560353473835L182.95443681282268,87.72346905355153L184.3705034820323,88.2031346259123L185.71072676848962,88.35778249468103L188.17327960100556,88.22589558166146L189.10163310964163,88.83125977213467L189.64626347061676,88.88560928041579L191.53541537191632,88.50483931122199L195.24085683880367,88.76163339759296L196.74711751254654,88.18058143693133L198.66462402403522,87.99942494202196L198.6955437212091,88.201263858105L198.8992254931727,88.37451495886808L199.38465087346412,88.42419240030131L200.2251674845229,87.93706327860764L200.21088618941576,87.68532261491964L200.46663229451406,87.58543378081185L202.56709190205947,88.00825945201314L204.0255171698609,88.60720508949498L205.0266636875367,89.29648610864297L204.73958192521604,89.73205994941327L205.59153743769457,90.44353153612064L208.2245645647181,90.89334704325393L209.3771205412013,90.2900869451787L210.32155783850067,89.25720790188188L210.9773881866222,89.18602840373387L212.10408531322355,89.76811372786324L212.97475902802944,90.83205801710619L214.02055192458465,91.2197252163669L216.36767584276458,90.98372110200808L217.6100791904064,90.36374505536787L218.672857122403,90.15939064347049L219.68100563428197,90.13788466532787L221.4681086695764,90.38784734725186L221.34900544144693,90.60206206922203L218.74225312435556,90.2358556411923L218.54501873319168,92.0036991374327L219.74464752218773,92.64695363224973L221.79810364389414,93.04383432858094L224.16387643772396,92.87551150571653L226.12055252074424,93.17601749905452L227.37682120343925,93.09762174832667L229.20101401000647,92.33842131834763L229.76165883297108,92.72545984860744L230.54234652326522,92.85162813335L231.94981668474065,92.88786851292889L232.60744952642017,92.63116917413481L234.12840745532412,91.69793393159125L235.90795388301194,89.97165195670004L237.78816264320085,87.67783881291416L239.1481440321113,86.63322564950386L239.93416987640194,86.4946423180877L242.20732223206323,85.58154487606544L242.2549496579777,85.79605677323616L240.00543769858632,86.76203318210537L239.53117391301748,87.61692858922197L239.2558776854912,88.64035663090453L240.07441774048857,89.0453291989702L240.53238975737077,88.96884712836072L241.11036624915505,89.30802013027642L243.2820243522092,91.70478891426546L244.5953488886571,92.39730449409035L245.68821459772698,94.2293162442079L246.50065390529926,96.48025949194334L248.03110958871366,96.04004729977987L248.89928754320863,95.50701195195325L250.6126963226816,94.94402897145665L252.9208586493569,94.67289577429892L254.10107596927446,94.91247359553108L254.87427637863948,95.40124958367778L254.66844547974142,95.74748639679001L254.2709956503786,97.2105456215454L254.17872184558473,97.9834734105466L254.2566450285958,98.19686476876905L254.82852077295502,98.85607297513934L257.66821071898084,100.01900620309834L258.8222918823176,102.27290084151582L258.8342160704651,104.10743450248492L257.8811129387559,104.99768338471495L258.0598371076212,105.56748088878294L259.5252643696276,105.31822785413533L260.45451912504177,104.17862256674925L261.14556742420245,100.04565746118988L259.6348698432412,99.3155515726562L259.04878213044685,98.07434991729679L257.62564414036206,97.00593446104722L256.78970308986936,96.92354823979394L257.5522271912414,95.28271851163981L257.17093047721755,94.14107346660376L257.7624256706822,93.39333903457782L260.7510293152027,90.94975310091559L264.1547610912803,90.05965204228323L265.7928811014026,90.03201580817677L265.890007773467,90.36281005047294L265.653742464121,91.28568400629092L266.59263362739694,92.75484746048551L264.91035252512484,93.80999432032104L264.5436837395864,93.88568026371968L263.54288385528525,94.81531508226408L263.1572888873943,95.30617583289359L262.95381509545587,95.81370059107985L265.09184976100005,99.35454838754913L265.0962173415428,99.92857759697335L265.3629863880087,100.30262269135301L266.2496052381266,101.16416448266318L266.6189084373291,101.7699290002297L267.6077841334809,101.27105689744849L267.05164554440853,99.78059078378146L267.20991834406595,99.28360716105726L267.26094277706943,97.72380290444562L267.12832084726506,97.536537670303L266.69814882717037,97.55344887259207L266.631872525606,97.41836525874669L267.6778734021864,95.43269827914446L268.6969062020835,94.77514325704396L270.0898870884248,94.20055964049152L270.86807901841166,94.35005076293464L270.5630416471922,94.86244133417085L270.5228321755312,95.86351637135704L271.2130485545913,100.46511208006632L271.56737719193006,101.12632135953845L272.1366185226325,101.5742008605871L272.0724220213251,103.10925103710542L270.8917887413554,104.03282590654908L270.672161834078,104.02090915934286L270.1786252327802,103.34129972839082L269.8559095593664,103.2243957070823L268.6324323940753,102.43792168175787L267.9652324712097,102.84765302419373L268.36302893394895,104.05458685462327L268.72990569951617,106.16352767655826L269.8937619240678,107.69218644847615L271.14656427299997,107.77016118657139L271.4531961577504,108.21499930068876L271.6324056133417,109.16616186741749L271.045000693719,110.68713206150142L271.0615004424362,111.14828543716567L271.23661962418373,111.47715375554208L272.5915401658003,112.06850706577143L272.91446381923924,112.02132536888394L273.37611014991126,113.07360600922811L273.1731909713744,113.60065141404948L273.09727826194467,114.72098061995757L273.69286372925126,115.78472468070231L274.32158734734,116.28369227725398L275.6077358270795,116.25298633111697L276.19923102054236,116.55269778479533L274.7075982752831,117.84770503372965L274.5674197378721,118.51059282982214L274.395420256511,118.73949433221605L273.4440502916823,118.97985621588668L272.31166837770616,118.6040147599324L270.41606909560505,118.55182682507666L270.609213212927,119.3665206729197L271.25894281362343,120.3700440780135L271.1105837285322,121.57158658406115L270.77407204673545,122.32912641849362L268.6240438663681,124.229166255775L267.76806740672146,124.56930989369312L266.6515613013835,125.51839781984245L266.47970047337367,128.26098343589365L265.97049604346284,129.93411792987445L265.9279987915161,131.14135509269045L264.79728071774844,132.22318334261308L264.32072915189383,135.48178299165875L265.0831839265902,136.68550749159886L262.2238052047869,137.9597029459278L260.97800485005973,137.00673663418138L260.8227130974374,136.34798506260768L262.00903116478,133.20709275411582L262.3802061842125,130.9994868446788L263.7011566549427,126.33874096292811L262.17617777887244,121.44185941234082L261.6519294604259,121.86790223730532L262.00903116478,124.80135908746297L261.7472536389341,126.76429161548185L259.88867480143017,127.89910023994116L259.6171222143694,128.54568623674504L259.55507483999645,131.86888644030796L258.95727091908157,132.40996065684703L257.9262446043631,132.83915277166852L257.47264016802546,133.75874934660897L257.34889205265245,134.80079588835042L257.63756832850777,135.96522111609193L257.6011718239879,136.82701958713642L257.14271452037974,137.55810602716292L256.35911510972255,138.47689495353916L256.11168820565945,139.45677704339414L256.15293757744985,140.8037974927397L255.83791716498854,141.42691310381497L251.09611122938804,144.64455945732288L248.28435993350104,149.520235396099L245.28202960727685,156.36715430496133L241.80314771519807,160.7388571288916L239.65693250197,166.51616042696878L238.37189324903375,171.23077306446612L238.83208371952242,171.75358036496436L239.4680173118395,172.07487350150132L241.46954775376253,170.52727228747608L241.47148890067183,169.80535695960862L240.85004458348703,167.57154708749204L244.48199977457807,160.29783694075695L246.83265935319832,156.75873036942676L246.87855361223228,155.44997915289468L250.39993275625602,149.88734351826315L251.45355956711683,147.64824186099395L253.10526760559333,147.1485840692044L254.4579696935998,146.1212668535045L254.58989835665307,144.65319815608973L254.93244145919562,144.04362162600182L258.1530814858688,142.30347485674838L259.12615070005813,141.0732228183624L260.891415832637,140.4915436063352L262.7389717287715,140.68750202172578L266.22693541531225,138.80903302644583L266.5129079508297,134.2776855713455L267.19938068942247,132.15247014671468L267.6948584376296,132.00846386294415L268.4107256865391,130.85359371004915L268.6169032188136,129.6008115859495L268.9573665210992,128.85822299996653L270.63777580314127,127.80645916839603L271.086804678911,125.72192149919238L271.2303108967335,125.48371958695361L273.58097047535375,122.98123752133779L275.3083139165574,121.83743484467095L275.9050086106672,120.32861745862601L276.3542454664639,119.71678853770936L278.7413708762797,119.62855212447084L278.78116438788857,117.92356819373663L277.8632098805447,115.03484174104369L277.7317665042192,113.90754481785962L277.17763838872816,113.1537781863176L275.75831336578085,112.64386266696829L275.5076974346539,111.98024798260303L275.7360595030168,111.21099757000366L276.087268439971,111.02627408229318L276.64846787633905,111.05669956606744L276.81166286994085,111.9623476627271L277.4579954635483,112.91491328108532L278.17469463256384,113.14632998305251L280.4468070880939,113.2714998001311L281.93587474637025,114.63576440768793L282.8792028168664,117.22835685868631L282.9629494405999,118.97789285640147L283.42438779124495,122.29742239935149L283.69462317147554,122.8498923074817L285.06001204105814,123.97365721923643L285.0663900951822,124.61947796361983L284.8738699179394,125.1486915368273L284.17145204403096,125.88023528734902L284.163687456401,126.94806044604593L285.8314099568652,129.08627051407439L285.90552017273694,129.9996011177036L285.8007675663921,130.7513114936619L285.41947085237007,131.1431078019532L284.64668640305536,131.39198670537053L283.31928855152546,131.45023548616427L282.7955255198085,131.36043931414997L282.5090676975633,131.1223845558202L281.26167282930146,131.02753086553548L280.07369092175213,131.1755843699907L280.8565970656582,134.75845026785237L281.7038383642175,135.38968479356845L282.05664181470456,135.36073637595655L282.18759990430226,135.05795336058554L283.0726242408891,134.98779262769312L283.52962568431576,135.97459483245257L283.5401633389574,137.33906859321587L283.2450396823042,138.8882036407549L283.7146585806295,139.77979629370338L283.28282272032993,141.6863260678765L283.70211045240467,142.15788845554607L284.31988045579783,142.56449162838499L284.34733381920887,143.1334992437719L284.22885453116214,143.74719045226993L283.8240560742179,144.3446645972531L283.9708206457799,146.35742428220055L284.2694106361978,147.31130430233088L284.9715512034036,147.5417562493808L285.2984958040106,147.8569927696667L283.59423814567344,148.72808836662443L282.57548265247897,148.84092172231294L281.4456658254858,149.6586359412163L280.8595781126951,150.66504095650953L280.9124743659304,152.5637122009175L280.57610133748676,153.54770529769166L280.6174200359528,154.0309594520163L281.5673341405982,154.17119462594837L282.2508258321541,153.9847611207124L283.8111613126166,154.87991156367616L284.2036196213594,155.3946583481329L281.73337152788554,159.6240861284914L281.63804734938094,163.74669650196847L280.30371683032354,167.2678053261152L281.2806683383278,169.16821438540182L280.2759861602117,170.84239547528978L279.97760414981894,172.0725201499281L278.9030406830243,174.14920989449547L278.58101827636165,174.23093125695414L278.7367259890343,175.04920179963847L278.91004267722747,175.33553142524715L280.37318215894993,177.90394549726443L280.5543327614487,178.43050209926014L279.4164047134527,180.52998410100508L278.42669709719485,181.55076921506998L277.8987744649621,181.64800598024613L277.5359186465612,181.40501293272246L276.90906684870606,180.7730164646573L276.5461417036295,180.09241658688006L275.91928990577435,180.18957740954147L274.8965134654118,179.55754105304095L271.76225447613615,178.58492308462155L271.0694730100895,179.16853529822993L270.5085508804241,178.9739708303764L270.1652451844511,178.5710243545932L271.9761965960406,172.4556936686049L274.5019753564102,169.71210380282582L274.6655863100641,169.11723154072843L274.2036626726931,168.97103709930389L271.9602514607268,170.09155527333905L268.19914067359423,173.8166863210531L266.84643858558957,177.2229843359305L266.54341168795145,179.34367820608531L268.7269939791531,182.03683343054354L268.66106431096523,183.73776538334096L268.9499485668457,185.00977056777128L267.407360715255,186.5064948765953L267.0444355701802,189.32246018138312L265.8897304667644,190.58428260888104L265.01836348520555,190.50056454915784L260.77695749175655,182.71422726006085L261.89769252428596,179.33867128224574L263.1183966225635,178.02557318066738L263.3493237779112,176.3229454690818L263.28332478304765,172.67259159513696L262.7308605077651,171.1192261023657L262.09562018220095,170.52993335923748L261.53476737920937,170.48121506844745L261.30120581019946,171.47094938944974L261.68243319754947,174.07301051419063L261.5017678817767,174.91175818970214L259.8714817859618,177.09551179425262L258.6324754454108,179.9758417292851L259.1566544371781,183.69692559182204L260.39573010440654,186.29321271093113L259.0613302586735,189.7995662162366L258.89536219805996,190.65708873675294L259.4426269726955,190.7809792679068L262.0637299115733,189.2387226144965L263.96993617499174,192.95344651090772L264.78008770227825,194.98494991521238L268.49731470396,197.01569221346335L271.499645030186,196.9457214230929L273.4058512936044,194.00429812539505L274.6985858074968,193.20417736430818L275.5563647606996,191.84591310152064L275.88629040834167,190.29315028626115L277.55193310854884,189.37896445833894L278.2668297840082,186.08267762303558L279.55353287714934,182.644071456863L281.936360033098,177.79815784994935L280.5386649328357,175.25536065947654L280.56216667575427,175.11925169925962L281.0592389374924,175.0388731974681L281.537592996905,175.23317032662771L285.8140782880455,179.25038516959512L287.7172341777514,180.33322102163902L288.72905700342017,180.0283569192252L289.5284628960417,178.7962611358962L290.14373713912573,178.10222787781322L289.82927134006786,177.55386735313186L289.1013412496595,177.18587756301713L288.53979517991684,177.33920968685334L287.6870770740079,176.88942312235895L287.7998715746835,176.28501459713016L289.1498699223539,174.97741249310138L293.26558665352604,173.25581965906213L295.15362932802236,172.6964293737501L295.99255142555194,171.96999488154097L295.9300880911269,167.56837253172625L295.7429060678769,166.63640606517174L295.27148467599363,165.83744953540236L294.3840339057733,165.06911051620273L293.8918145113057,162.40468762999126L293.06675774883297,161.82038818718092L291.95059827687146,161.5230887292537L292.99743107355425,160.6310919831899L293.46191979791365,158.35429328544387L293.19154576433175,157.63628688245626L291.70788558672757,156.22030594304124L291.0214821748068,154.8860703403866L291.20173153052747,153.90057647573485L290.89669415931166,151.30252522090814L290.09936806694714,149.37114515492112L289.3159766363169,148.6415606385658L290.65398146916596,147.8296531312708L291.6730835957369,146.61670230044638L292.4854535766335,147.70004491000373L292.8496959285403,147.9152689036382L293.67669383792054,147.73714956511867L294.737461296334,147.07930055563338L294.9748358324832,146.26787690856145L294.5988079457802,145.2389518341306L293.0124749620918,143.68670907991464L291.7493429385431,142.91448319194978L291.21552753891046,142.9864950906258L290.48752812182465,142.6881538020848L289.76618406556736,142.0866885819969L288.71269590805605,140.11566219470706L290.23788276415144,137.933136692478L290.51518946526085,136.97542819432965L291.2495669364689,135.72057163396812L292.1375029934188,134.94616967449838L292.4148096945264,134.18371195989266L292.6435877229396,132.87491723225776L291.98491498113435,130.82348664720985L292.1512990017982,129.85419642085935L291.1667908861891,128.44119381177916L290.9864722037928,127.66749456087246L291.13198889520027,125.23229569068826L291.33303625350345,124.77813397546242L294.0229112542547,121.38102289736116L294.4873999786105,121.19510057411844L294.94495603543874,120.75092668674142L295.22184677649784,120.17365220172769L295.6658841316457,118.40549121067261L295.62428812647886,117.79571644385669L295.38871608388763,117.28634626750318L295.73514148024697,115.45942984046678L296.1995608779289,114.02194008128845L296.9690869735041,112.64613872164955L297.0384136487828,112.23229468376985L296.9412869767184,111.445902821044L297.2255263453535,110.1625942188748L299.23606925506465,109.3966020548728L301.24931590511187,109.0870686968351L302.5638189950387,107.90570819103823L302.82032769356374,107.33615984975904L302.40124794151416,106.16622082022695L302.55175615354165,104.15209553864815L302.6524878127184,103.60142272692246L302.91509725866854,103.17050292109843L302.4449237469398,101.79708985980187L299.0253161622222,99.73195231637465L297.30941162244017,97.28161815006115L296.20912795911863,96.02686735570796L295.90339732114626,95.26195973427821L294.71638598705067,94.7684998252821L293.2881871496684,92.03786814137811L293.20249937902554,91.841367414675L293.29130685005657,90.08198949527059L293.22565448856767,89.19413356240784L292.84373383446655,87.79061443777346L293.31335273279365,86.78968637082744L293.41283651181766,85.42452875622939L292.68851140852166,84.85736047506634L292.02228205910797,83.39246841561499L291.77263670143657,82.278760317663L291.05039139839937,81.09020140384155L289.0086514848135,80.70991476762174L288.66160214837873,80.36124278532043L288.440519380918,80.32866420708933L287.3425234978804,80.73999316156369L287.057937495867,81.12912357256619L287.0643155499929,81.34027658408377L287.3489015520063,82.59869563377606L287.69588156176724,82.62096033576199L287.8884017390101,82.90664774004836L287.8662172029217,83.15903034841904L286.97335895202923,84.48119082766516L286.4909839454522,84.84540083140064L286.2890353403709,84.675882995542L285.91127428678556,84.75492265750381L285.3369027821136,85.37055989576766L285.3041112647097,86.65817650421832L285.5263032589701,87.58449828860876L287.8432007467309,91.32006535136043L289.97388678469724,93.15109712039339L292.20398727501015,95.83207021416774L293.5306225331133,98.51491306570324L293.66719608340645,99.07440802827477L293.339142255998,99.23900912396493L292.36808351539,98.9255677609899L291.63488459766086,98.1350371341141L291.4201798843278,97.69018901921982L291.23812803504916,96.75690421286845L290.73349916570805,96.05301965390026L289.1382230409072,94.21727378642026L287.33871053073926,93.06480941004338L286.10192264379657,91.37075406012718L285.3751711068671,91.50630244164904L284.76835471816776,92.34735249439882L284.54304302351557,92.3819346978471L283.0147364670338,90.99909492741745L282.28368667623727,88.11250556440064L281.26846684347765,85.82205132693662L281.150888802209,83.12438826634025L281.46181894082656,81.7383121095686L281.40788278746186,79.94738634984833L281.69995607040255,78.94716988969685L283.5863349046922,78.19500993002794L283.8732086869895,78.24020083506957L284.0063852301955,78.5756844532998L284.30303407370593,78.71582746371905L285.1712120282009,78.75091469796735L285.6170518769086,78.38430936180794L286.1502433364658,76.88711889085062L286.34720042092704,76.78952706734526L290.3297406088932,78.73800428851564L291.10536745189347,78.18022388241297L291.3320656800497,76.88461922933493L292.7439034220679,74.98755838756006L292.38860421127174,74.12688167969509L291.86920876009754,73.29066239159283L290.1770832699349,70.96702519529708L289.110561697471,70.13979884300579L287.8227493775248,69.76561209337751L285.54529876799825,67.4729868926056L285.06736066863596,67.28256836649507L284.0092276238829,67.27213427750075L283.33322321325613,66.97694541281908L281.52968975592376,65.02081359064323L281.1139376842857,63.582086269051615L280.5563432350318,63.3002668120821L280.068006134381,62.65794658885079L279.79991988108486,60.49389086227893L280.2978240629236,59.166171031912654L279.8765258572639,58.64646538133002L279.1104660954552,58.588775230109604L278.6316960759905,58.76194831113162L278.19126370795493,60.23416161565865L275.9122879115712,61.734690582070925L273.46096600044984,62.3983231680063L272.38647186032904,61.570388499421824L271.7750105843861,60.70617821964561L271.4443223433136,59.16606653156441L271.5729926526292,58.686074741693574L271.7729307841273,58.76257536090861L271.7800714316818,58.90345066587133L272.253988583876,58.84868949299607L273.11398599068707,57.637947031671956L272.9123146923066,55.66686872219452L272.4360404331528,55.1243356125583L270.73767554221376,55.25809169961485L270.2798421786865,56.51956259840972L270.2894092598726,56.96148747371626L269.9416666566849,57.26737370050978L269.2651076326547,56.85422449165662L269.1292273491126,56.586684857602904L269.0835410701038,55.055103225080984L269.8694975877188,53.085261965213704L271.0565782484882,51.88188885464069L271.4308729683089,52.020644869159696L271.58339165392135,52.36730975352066L271.9671841282543,52.42004519645525L275.86355125885166,50.59419379279916L276.43355518298085,50.518307985154934L276.91953517667207,50.644539501694L277.0222773094338,51.56313391249705L279.1296695845049,51.97742788743062L279.908693434596,52.960762499572866L281.2591077423149,56.314217580380046L281.5717710478166,56.38657019402581L281.98093708529996,56.182997534224796L282.80502327431896,56.43916114229705L283.06208658624746,56.82902887635464L283.79882116441695,56.92709246512322L285.80159948649634,55.898589164138684L285.95397951875566,55.74560879811088L285.95148375844474,55.454065990569234L285.6677296765356,54.954704200097694L285.31499555272603,54.74699768585424L284.9926265126869,53.62842208413076L284.88898313314894,51.82988057436387L284.96690631616,50.54562700103361L284.86873974396804,49.895061239036295L283.95536079719386,46.95264861321266L283.5418271791641,46.055044676507805L282.0899879455119,45.785911939929065L281.631877275282,45.64971655601221L281.44185285834646,45.06277916129966L280.5600868754973,44.97602174158828L279.933235077644,45.17541499585468L279.7682375904824,45.275161195930195L279.6693084248618,44.12817607883062L280.0651637406954,43.579639534968464L280.1971617304225,43.72919840601526L280.5600868754973,44.377587358938854L281.43713864442725,44.88318553765521L282.9910960707639,44.66240486949937L284.13276775922714,44.88664334868781L284.65153927032407,46.06656815526594L285.06853922211667,46.591593166498114L285.34411275634375,46.62825498101347L287.6922765746531,45.49560201839449L288.48960266701397,44.291237891920446L289.0295188140735,42.413732084186904L287.40512548565493,39.99137106720718L286.32723433844694,39.66697029689112L284.7585103302772,37.84112406888107L284.26545901570717,36.95194335189444L283.82745308130507,36.47266396843452L283.3830690927789,35.05262131921609L282.5196746788806,30.494342561101803L282.7734796370696,29.6645594821357L283.4547528750172,29.293389821802066L284.17457174441734,27.94762868334965L284.51427245327613,26.496799356243628L283.09300628342135,25.80278359984777L281.89358547445227,24.677443069876517L281.3667027423453,23.867470197399598L279.1693937694381,23.545865995331496L277.13493315675805,24.355151861496324L277.0525037398547,24.56584249815387L276.4456180244779,25.653978957846448L274.98830198347787,27.176846356491296L274.34092948974285,28.1179173064329L274.27603972168254,28.456586147235157L275.09374785657565,29.671074685066742L276.045256474752,30.301330061786757L276.51868834022025,31.758048323360526L276.4928988170177,32.021698114068386L275.8645218323072,32.51713508409739L275.50617224779853,32.53688017907598L274.8070820543053,32.2245209382063L273.70471859072495,31.029529253487453L271.8225686836249,28.393941405542137L272.2745092797559,26.778901214243888L272.6795157167253,26.198804365979868L273.6270727144147,24.091540057134353L273.74492806238595,23.298311049920358L273.6732442801476,22.932901689001937L272.9972398695227,22.93732084182875L272.776781042141,22.773809724092644L271.35294978529964,21.066110169112562L270.42140724960154,20.88454186430772L270.1762681258224,21.059794854645133L270.0753284866187,21.300613497420727L270.0176486927867,21.89166723268454L270.0317913345443,22.506541267904595L269.7681419884648,22.79506435131816L269.30302932403174,22.807269940160495L269.2070118787724,22.254307407068154L269.34781435626064,19.47872868027389L269.16506924022906,17.943528609819168L268.79985631487034,16.386496033469484L268.41079501321474,15.789662699668497L264.04501696431726,12.394804009248219L263.52395767293456,11.56596681120891L263.56492973802233,11.375635331603917L264.17756956744597,11.38544205220478L266.4277747935903,9.634706066343824L266.68948299276235,9.176571134029928L266.8380500578787,8.581031126985181L266.7531248806663,7.578219662461834L266.1272436562649,6.741447741571847L265.40125471276224,6.393677092922644L265.1006542487612,6.333197486384506L263.914682814795,7.475754166818206L261.78683917051603,6.69901989661048L261.55119780124915,6.455528118959592L261.49344868074513,6.0816666474274825L261.85658180584505,4.914207874840486L263.26661705430524,2.9019272507257483L264.8341625089961,1.2104929548072505L265.38662678427863,1.1435089137589785L266.07913094362266,0.5931298407699614L266.098611739375,0.3151184571847807L265.9611369423001,0.01447768668685967L290.23871468425386,0.03180858772202555L290.3662757667644,0.026947487092911615L301.1067802607413,9.094947017729282e-13L311.6933795356035,0.03677535981523761L335.75701515765286,0.5383951991207141L360.41713749378687,0.2792960820729604L363.9006642731092,0.1744693241494133L370.026507953944,0.2542519758990238L370.4209074095943,0.24590391402398382L370.58001212935415,0.16580411565291797L371.90061596670785,0.14118216486394886L379.08701912593096,0.11434093706793647L383.6815752032435,0.19792871946265223L389.29779849411534,0.22476952097031244L407.48572107973087,0.24368480674002058L431.08368942394554,0.18905220380111132L457.0823712063302,0.32505146197627255L465.74848292266506,0.21621006763962214L477.8237338957515,0.23512538417116957L477.8790565826239,0.23628777570684178L494.7613498927458,0.2359707598602654L496.77334866263664,0.23681613541020852L516.9754191450793,0.23216656819249692L517.3339767096113,0.23586508790594962L595.6770020665253,0.21737246335214877L595.7421691412874,0.27295581329644847L603.8331467595226,0.2728501420824614L604.4084195109726,0.20585416721996808L623.0418353119203,0.1744693241494133L646.5526600253097,0.27115940241901626L646.5488470581704,0.2827832266457335L656.4051591356638,0.3810563509264284L662.9027324493318,0.3493555435820781L662.9196481580993,13.463738846144224L662.834515000859,26.623710255837523L662.8112212379656,36.39510624935701L662.7635938120502,39.372653529236686L662.7538187508362,40.1859180872043L662.6896222495307,52.845467110699246L662.699327984069,60.143368306776665L662.699327984069,60.174399105975226L662.7014771110016,60.87144724493555L662.6990506773664,60.914487385772645L662.7067459383225,66.29290819946891L662.7067459383225,66.32870363418397L662.469371402176,83.30581456924483L662.4002527069242,85.75529705777399L662.3991434801192,85.79397720346242L662.4014312604031,86.09457059600572L662.4014312604031,86.12274710827342L662.4013619337284,86.17889174395305L662.3989355000922,86.40460800543042L662.4131474685255,86.49734540326699L662.403511060661,86.83937858251966L662.2957080806063,91.93671063742477L662.275326038075,96.0275938101654L662.2562612023721,100.17092696278587L662.2088417564828,108.37931910517045L662.2012158222033,121.5472113359956L662.2338686862577,123.26250370942034L662.2293624523663,127.77984261809434L662.2001759220739,129.02851177093908L662.1976801617648,129.19652610259845L662.190608840885,129.57533837443543L662.1882517339245,129.61308406168564L662.2297090857419,131.23785635072682L662.224440258422,131.3409540681032L662.2591729227352,132.24812859176382L662.2561225490217,133.54574015310936L662.259242249409,135.22629417057533L662.2662442436131,137.6164939059031L662.2732462378153,137.94539013578105L662.2732462378153,138.13227742475874L662.2732462378153,138.13691091131477L662.313525036152,148.83640021258088L662.2910631933619,150.43862650749816L662.283991872484,150.47150033975004L662.3208043370569,153.07005522196823L662.3346696721119,153.6190616779636L662.3368187990454,154.15405040455835L662.3762656772769,158.72336408030014L662.3744631837217,160.2119050688907L662.3760576972527,163.12585136502867L662.3759190439014,165.4286043532411L662.3806332578197,166.79372510277926L662.3602512152884,169.27017863029369L662.3833369981548,172.10505770249983L662.3711355033074,181.094386755075L662.3794547043399,184.54153184545476L662.3802172977676,186.8106880567334L662.3813958512483,188.99637614779385L662.3838222848844,191.76231648542807L662.3962317597561,225.19346588525514L662.3843768982852,226.24255804859422L662.414187368654,237.90593535364997L662.3883285187758,260.94613981869315L662.3888831321783,261.168496287019L662.3904083190328,261.8595656631255L662.3854167984146,265.6102118629765L662.6107978197388,265.89473327486076L662.7401613958082,266.32495712399714L662.6813030484973,267.16016679903623L662.618215773995,267.3833773166507L662.4915559382634,267.5595262305301L662.2520322751816,268.64977419827574L662.2372656933476,268.9548439780301L661.8930587505956,270.21947129204773L661.7156517885624,270.49651871344713L661.5561311087486,270.6149906531605L661.1581266659832,271.0415287445321L660.9134728289309,271.40815419068076L660.7928444139479,271.65530359183003L660.7954095009345,272.82690153054773L660.8035900486184,272.937589186537L660.9371825518756,273.28982624846003L661.2644044591843,273.63973085250336L661.5589041757621,273.81025606988624L661.9933051230473,273.9451259152688L662.7572157579243,274.06261965505337L663.0191319371215,274.1635417574421L663.2221204423331,274.3205949514977L663.4924944759132,274.5992428555651L663.5406765152311,274.7214418182284L663.5713882323789,275.3006700773908L663.52161167953,275.5579848559041L663.55523511704,276.1856096657916L663.600020149268,276.4571365607603L663.7130226299705,276.72583961152895L664.0076609998969,277.08285205637503L664.626540230096,277.67838991855797L665.3354748114798,277.8942489250453L665.8530677690987,278.27115394183375L666.0683964225082,278.5453872681478L666.21107072023,278.94241434061814L666.1916592511516,279.2400905755162L665.7768084262934,280.1796665018137L665.7402039417475,280.3707521340157L665.7601700242267,280.58389755996404L666.0196597697886,280.93263580289204L666.8056162874054,281.62011792376325L667.0456945638907,281.8947858667775L667.2046606303002,282.09914836419284L667.4511862875861,282.53131292572243L667.6150052212661,282.89637025617094L668.0017094159612,283.9953061984311L668.246917866416,285.14192732391666L668.193744306478,285.6333777404934L667.9582415905616,286.25103577507934L667.4936142128545,287.2888938195674L667.4631798024093,287.4844408658323L667.5136496220111,287.89354448346603L667.712963813432,288.26786167272076L668.4443602376041,288.885424373163L669.1856010496676,289.7346351986407L670.4172587626399,291.1477600760404L670.5620128606188,291.45929159850766L670.604440785889,291.7608957820994L670.5080767072541,292.1663787250718L669.6189620968235,293.9973364550524L668.727213072736,295.6543409079568L668.592719322698,295.8965021393674L668.5439133433019,296.3576893263721L668.5241552408479,297.1269488880862L668.2469871930916,298.01928347282546L667.9499223895291,298.3371252782449L666.9439923312593,298.4721949982568L666.74301429963,298.57586951101393L666.6136507235633,298.6697447504275L666.4109395250525,298.9546598103775L666.3588751919197,299.10800799661683L666.3601923987499,299.30373566523167L666.396034289869,299.7509443143372L666.6056781559064,300.241492686529L667.224696039455,300.5651027878148L667.6974346381703,300.65144890739793L667.8897468353889,300.6073765777801L668.1007772349303,300.6970199254697L668.7114065907726,301.44808798499525L669.12098858831,302.14080663526966L669.880115682593,304.27337030587614L670.4833270841791,306.4060086411773L670.7831649547525,308.24442081697225L670.8871549676687,308.57374915924447ZM252.7895539263809,23.34870672883426L251.40745732805772,23.023177934217983L251.19323790145245,22.87829328100861L251.19323790145245,22.552735483878678L251.19323790145245,22.444352060974325L252.74192650046643,22.806007294347637L253.14707159078534,22.552735483878678L253.40940373003468,22.842203021261867ZM256.34018892737186,27.03575536571543L254.48154076319406,26.132031835403723L254.38635523803896,25.987653068993495L254.83912775427416,24.831008333491354L255.24427284459307,24.469491757187825L256.3163405510768,24.505676084349034L257.84125010047137,25.120351023938383L257.29329205908107,25.192500167394428L256.72155496807136,25.445329912856778L256.6977065917781,25.662286889329607L257.6508097234855,26.49343465130596L257.2695130094635,26.818749647571167ZM260.9153335356077,27.324872198468256L259.8188628394255,27.03575536571543L259.7713047401867,26.854812746360494L260.0812643053505,26.49343465130596L261.7726965287584,27.180105492830535ZM266.0395454120371,32.425235400586644L264.6574488137139,32.35318493172235L264.75263433886903,31.3421691998592L265.51536642026804,30.981097822977063ZM240.1324441676952,36.5191560750236L239.77492650329077,36.37506069998608L238.1548314287411,35.509041440217516L237.6068733873508,35.6895831483007L236.8441413059536,35.83369719428765L236.510957304572,36.33906248087942L235.2954527069378,35.79769529138093L234.00861096044355,35.04012904649744L233.3416190176049,34.46303786798853L232.6979901643317,33.56058335267653L232.7222545006789,33.019456786140836L233.3416190176049,32.91086776174188L234.15197852491838,32.838718888782296L234.8189011410832,32.98291063228908L236.1533703134919,33.416407359503864L237.2255073466531,33.8854637178747L238.8461570346044,35.112142919357666L240.3472182077021,36.411058674164906ZM278.30149312164576,37.66925962456571L278.0375664688654,37.61921013806477L278.1692871518917,37.31942793765984L277.93863730324483,37.16968787077121L277.4107839976841,37.119633658865496L277.3774378668768,36.96999287670678L277.80643133349076,36.5704753300497L277.83970813762426,36.02115503868163L278.0375664688654,36.0712196436848L278.46649060880554,37.36948025965194ZM241.8959068067179,38.86348673436032L240.9665827246281,38.86348673436032L239.6083345026018,38.32237776841794L239.01274903529338,37.889807487938015L237.82109281395788,37.3490186757972L237.84487186357728,37.20452616227249L238.3214234294319,37.20452616227249L239.82303921593302,37.70965561540834L240.32336983140885,37.78173808494239L241.1093956756995,38.21431719872726ZM246.05904298378118,41.375173830912445L245.56446648235578,41.02590157603845L245.46505203000925,40.427125488801266L245.82839313513432,40.07789555730096L246.29017811915583,40.32749767691166L246.55410477193618,40.72673172670875L246.55410477193618,41.22554845994182ZM276.7247965458191,41.808717514999444L276.1641517228545,41.65910439535173L275.9001557433985,41.20992510451606L275.9990849090191,40.86074680947104L276.22973475766594,40.710687440124275L276.85644790216975,40.86074680947104L277.05479152013686,41.15990908616595L277.0215147160052,41.559080372321205ZM257.1113095364799,43.62009525945132L256.2867380607331,43.47063811759335L255.82502240338727,43.22107930966558L255.26382296702104,43.37064830616782L253.87805205490804,43.22107930966558L252.88841376532764,42.8720336158608L252.39335197717446,42.22346030449944L252.2289091034163,40.427125488801266L252.36056045976693,39.72853770064785L251.89884480242108,39.32880878983042L251.4370598184014,39.37884211153141L250.44693624209503,38.28083241241575L250.15021807190897,38.48047794664899L249.85294528831946,38.92946928953552L250.21635572012383,39.22926519821522L250.24914723752954,39.528519686270556L250.24914723752954,39.97784165544181L250.74420902568272,40.427125488801266L251.20592468302675,41.375173830912445L251.17313316562286,42.12386628899094L250.77700054308843,42.42295720882157L250.18300958931468,42.32336694540618L249.91908293653432,42.37295264752038L249.9852205847492,42.622551424617996L249.9852205847492,42.971613561564936L249.5562271181334,43.22107930966558L248.86337632541472,43.22107930966558L248.53331202442132,42.77203250182902L248.63272647676786,42.4729612979354L249.39122963097543,42.17345385927683L249.68850241456312,41.87424400422924L249.68850241456312,41.774328889004664L249.16057978232857,40.77633238360659L248.8966531295482,40.1774231914078L248.79723867719986,40.1774231914078L248.63272647676786,40.77633238360659L247.74153206608207,41.52510951955628L247.27974708206057,41.425082965145066L247.1147495949026,40.427125488801266L247.08195807749507,39.22926519821522L247.8409465184286,38.28083241241575L248.43438285880075,36.78256864833929L250.24914723752954,34.43500582163642L251.766569505995,33.48529310223603L251.9316363198286,32.88555800718996L252.82234544378844,31.8859883896298L253.05348057916126,31.586196202964857L252.52562727360237,30.78631704712052L252.52562727360237,30.586380879431545L255.59388726801626,30.136260433642747L257.67250897284794,30.536264322623538L259.6850623561404,31.536194170204908L261.895404744002,32.785893107204174L263.4128963391395,34.08496019289987L267.0751472873271,35.83369719428765L267.10793880473466,36.03354003748382L266.2833673289879,36.63291833305084L266.1844381633655,37.18207018137309L265.557655692186,37.88141382694812L264.73252960303944,38.23078870964946L264.0730249411281,38.630180928560094L263.3801048217356,39.27919456774316L263.1161781689534,39.87820538750657L262.55497873258537,40.377102074458435L262.55497873258537,40.676711143314606L262.9178345509863,41.275563858216174L263.215107334574,42.07385890321939L263.1161781689534,42.22346030449944L262.3899812454274,41.973842714842704L261.96154239221323,41.774328889004664L261.6976157394347,42.27336144365427L261.16920782047237,42.37295264752038L260.8724896502863,42.17345385927683L261.00469562004037,41.22554845994182L260.93862729850116,40.676711143314606L260.5424253492947,40.52706603104116L259.75064539095365,40.22744849263563L258.66214726242833,38.28083241241575L258.2992914440274,37.731269966983746L258.1015024394619,37.88141382694812L258.03536479124887,37.981087691548964L257.5403030030957,37.33180989786388L257.2763763503135,36.03354003748382L257.2435848329096,33.735206404501696L256.78131456216033,32.73579739541174L256.48459639197426,32.43605338912721L256.2206697391957,32.83588332345198L256.1878782217882,32.98574611878166L255.59388726801626,32.785893107204174L254.96710479683497,32.98574611878166L254.8681756312144,33.33544446300675L254.9998963142407,33.635557516021436L255.49495810239387,34.734531573466484L255.56109575060873,34.93441594411752L255.36275213264162,35.684020036511356L255.3960289367733,36.133248717279L255.75888475517422,36.93231967075417L257.4085823200676,38.3804987545318L257.9031588214948,39.97784165544181L258.33208296143493,40.676711143314606L258.56321809680776,40.676711143314606L258.7610764280471,41.0759188603588L258.7282849106432,41.924253275207775L258.1015024394619,42.92203346475435ZM258.0104765148244,61.407648176944804L256.4433470201857,61.09729963005111L256.56709513555506,60.84856896981182L257.5154147266694,60.289012977432776L257.4329159830886,60.10293396296311L256.85535545135644,59.54329937760758L256.896604823145,59.41895134577362L257.72173091229524,59.23242383662091L257.969227143034,59.60547230131215L258.1337393434678,59.60547230131215L258.4638036444612,59.23242383662091L258.4638036444612,58.98402380725611L257.59798279692404,58.610931666695706L256.77285670777746,58.548642581195054L256.31952957814065,58.48645727846224L255.82446778998747,59.23242383662091L254.29851834046167,59.41895134577362L254.0097727379325,58.92184360483452L254.5873332696683,58.548642581195054L254.83489882708272,57.98926219784971L254.83489882708272,57.553903896082375L254.5873332696683,57.30500715153903L254.1335208533037,57.24280727601399L253.72151242213295,57.553903896082375L253.22645063397795,57.24280727601399L252.97888507656353,56.434456207916355L252.93763570477495,54.755050909695456L253.35019874934733,52.51473748313083L254.0097727379325,50.83377647688985L254.7110813850377,50.460424700959265L254.79358012861667,50.33586359175479L254.79358012861667,49.713328202568846L254.5460838978761,48.77870743523408L254.7110813850377,47.53319765176593L255.5769715592487,47.53319765176593L256.23703083455985,47.03455565070317L256.81410607956605,45.28982959636414L257.1028516820952,45.16514689805308L257.4329159830886,45.41450936028468L257.4329159830886,46.90991400409712L257.5154147266694,47.03455565070317L257.8867283994532,47.03455565070317L257.969227143034,46.162316818554245L258.2574874588354,46.09998610193088L258.5463023880402,46.411632352659126L258.5875517598288,47.34625167490822L258.09304458507904,47.657824639289174L257.969227143034,48.03137385830041L258.2574874588354,48.34290654730512L258.9588654326144,48.21829566914266L260.0310024657738,48.28060147444694L260.15475058114316,48.654525633345656L260.0722518375642,49.40177135879412L259.86593565194016,49.46406325414364L259.4539272207676,49.21489128055191L259.08261354798196,49.339478731427334L258.7938679454546,50.21129955591505L258.5050530162498,51.70566557541497L258.09304458507904,52.32796709740114L258.1337393434678,52.57699281669693L258.4638036444612,53.13694407825869L259.5359406776188,54.755050909695456L259.4539272207676,55.439216537896755L259.12386291977236,56.62108207261326L259.08261354798196,56.93221514010747L259.2476803618192,57.05662144283815L259.9897530939834,56.807701374065346L260.0722518375642,56.99441865602512L259.6184394212014,57.98926219784971L259.65968879299,58.23770878192636L259.9897530939834,58.29989699894668L261.0618208004689,56.99441865602512L260.69106174108674,55.99928401777288L260.56731362571736,54.31932256029313L260.23724932472214,52.51473748313083L260.48481488213656,51.082872375123316L261.0618208004689,50.39814451217262L263.9074728405667,50.1489117623255L264.8150976732941,50.95832588884332L265.18585673267626,51.830194509176636L265.1446073608877,52.016668502986704L264.15496907130546,51.89203930457961L264.0312209559361,51.95440659116002L263.57789382629926,52.82611146849604L262.8353358074073,53.7594961161426L261.9281962614059,54.69282113498366L261.8869468896155,55.128100489906046L262.01076433166054,55.376994787796775L262.13451244703174,55.563657849008905L262.13451244703174,56.061080224706984L261.7219494024557,56.99441865602512L261.9694456331963,57.553903896082375L262.71158769203794,57.80268444135527L263.0415826663557,58.3620844873617L263.0003332945671,58.67311551120338L262.4640221346235,59.481125725768834L262.4640221346235,59.66764449691118L262.8353358074073,60.04076686468352L262.9178345509863,60.66209168132309L262.6290196217815,60.66209168132309L262.1757618188203,61.09729963005111L261.26813698609294,60.84856896981182L260.8148098564561,60.4756078434898L260.0310024657738,60.53776985051036L259.3301791053982,60.4756078434898L259.2476803618192,60.599931129781L259.3301791053982,61.22160836122839ZM252.58275245403092,92.65567660222814L254.10072933589618,91.02454474370916L255.0903676254784,91.51907808849273L255.5192917654167,91.61775075283094L255.5192917654167,91.86494372965399L254.85923249010375,91.76627563771262L253.17667408112902,92.45805629582401ZM284.85584498236676,153.4946237511599L284.0725228784104,153.18906099873902L283.41246360309924,151.9061448100697L284.44328193779256,151.78392680830802L285.26840802693914,152.1506751888246ZM284.32535726314563,173.8387801861786L283.50820374165596,173.7951038007477L282.5418592149672,173.52505929099198L282.2282253360154,173.08457136092784L281.89864632174795,172.27470000568928L282.0441630131536,170.9072805259625L282.6148602040357,169.9070020894219L281.9954956871097,166.84524199388215L282.82956491736695,165.26110308076431L282.9247504425239,161.66835744340824L283.99688747568325,158.9191726476388L285.0452454592232,158.17887834896374L285.6037411552534,155.31244586147568L286.02850569467955,155.41385134476013L287.1487554404812,156.09192579390538L286.59123031790114,157.08810014734627L286.6197929081154,157.7965360672547L288.4667941908483,159.8917506428079L288.0489623189533,160.69138331018257L288.0129817744855,164.95784595619398L288.17111592079164,165.9394767273966L288.8867751896778,166.48184793489054L291.12464026762245,166.77406047389604L292.6098256320802,167.85540626758166L292.27345260363654,168.20232499240592L290.65918096981113,168.61239348863955L288.4705378313138,170.0217472123636L288.16002365274835,170.22175206055954L287.42640877496524,171.3082405621749L287.03817939341207,172.50030168949343L286.7953973765925,172.57918332007011L285.94912665148695,172.3687274309982L284.4565233327703,173.33581551022235L284.468170214217,173.61640540304688ZM260.41285379320107,181.50215017695064L260.1489271404189,181.25904843058333L260.18227327122986,180.57871403796298L260.2478563060413,180.14104829992903L260.8090557424093,179.703347136528L261.2046337515403,179.80071929703627L261.23797988234764,180.0435800987816L260.94070709875814,180.8214377493614L260.74291809419447,181.45353070179408ZM276.32755469647964,185.41979069635L276.1213078375331,185.29822710177632L275.62617672270426,184.56970693639641L274.84285461874606,183.35498234182114L272.94566082311394,180.74277848047132L272.1623387191594,179.95275123143074L272.1623387191594,179.46629530201471L272.28608683452876,179.28390136359576L272.4923336934771,179.22310201681603L273.48197198305934,179.46629530201471L274.5128596444283,180.134816109035L274.9666720607929,180.25639361838967L275.4204844771557,181.1678313847674L276.41005344006226,182.07921771217343L277.68843733217,183.35498234182114L277.72975603063605,183.598092020683L277.6471879603814,184.32674299701648L276.74011774105566,185.35906027462988ZM271.42019666031774,188.1511385683566L270.47132245579996,187.90874341972358L269.853067165679,187.3622943465798L268.862874262697,187.3622943465798L268.120801530531,186.69476808245918L268.120801530531,186.39107863317395L268.6158633186842,186.02715949282083L269.02794107653244,185.29822710177632L269.564252236476,184.20525693629907L269.8117484672148,183.96258291651066L270.5538905260546,183.96258291651066L271.0077029424192,183.84108867939995L271.37894728852916,183.96258291651066L271.7910250463756,184.44822633032027L272.24483746273836,184.69118481541273L272.78114862268194,185.17676284855497L273.52322135484974,185.66270556885547L273.8532856558413,186.20891801645666L274.0182831430029,186.63405196449867L273.9770337712125,187.05905048997465L273.6057200984287,187.4230022974093ZM274.2039399793939,192.62197474637378L274.1705938485866,192.52513876159537L274.2367314967996,191.70033182018915L274.5334496669857,190.82676196524517L274.69844715414547,190.48720624940097L274.92965161619395,190.6812552603501L274.9624431336015,191.11806952975076L274.8635139679791,191.79759033685104L274.46786663217426,192.42789330469668ZM269.8943165374694,194.82274295528396L269.1516891919018,194.51950888520287L267.8320559280037,193.18613736097632L267.00741512558125,192.0946563784205L267.0899831958377,191.73061060217424L267.3782435116391,191.54862951606037L267.7082384859568,191.2453141204296L267.91455467158085,190.51749181297828L268.32711771615504,189.5469439084536L269.2341879354808,188.63681437442756L269.6055016082646,188.45472930597225L270.388823712221,188.69750803661236L271.25519917315796,189.06175772330516L271.7910250463756,189.7289922562518L271.87352378995456,190.5781644023009L271.87352378995456,192.27621137185315L271.66720760433054,193.12549397163366L270.96638424395496,193.30701442840564L270.5538905260546,193.06484990360104L270.306324968642,193.24637239182312L270.2650755968516,193.73159159498027L270.47132245579996,194.21676735747724L270.3475743404306,194.7014921200639ZM261.5426706201906,43.64095184642747L261.5426706201906,43.31666979316333L262.04300123566645,42.235830798801544L262.7337722281263,42.59613497506098L262.7813996540408,42.74048039575564L262.75755127774573,42.956414638307706ZM252.69062476076033,48.05734434177202L251.56878050142768,47.70861715069577L250.71086289487357,47.40930085903938L250.0840804236941,46.86120869847309L250.0180121021549,46.362922466635155L250.38079859388017,46.262987234161756L250.24914723752954,45.9141419321536L249.25950894794732,44.617556034558675L248.20380233682954,44.56757218932398L248.0387355229941,44.31858902833528L248.23659385423525,43.81964436354929L248.26938537164096,43.67008804650186L249.19337129973246,43.72008036167654L250.0512889062884,43.321071944925734L250.5791422118491,43.07161090700765L251.50264285321282,42.92203346475435L251.89884480242108,43.420643447850125L253.2846157145359,43.81964436354929L253.38354488015648,44.26860236187713L253.5151962365071,44.817067565231355L253.77912288928565,44.916925294326575L253.94418970312108,44.767085602542465L253.81246902009661,44.36815605359152L254.14197870768658,43.91962569886118L254.8021073096752,43.72008036167654L255.923882242334,44.418036989195116L255.923882242334,44.817067565231355L254.76931579226948,46.31295508601215L254.5053198128153,46.911170909284465L254.30697619484636,47.110491351173096L254.20811635590144,47.110491351173096L254.07639567287515,46.41247036828645L253.74633137188175,46.31295508601215L253.54854236731444,46.61180956987437L253.35019874934733,47.40930085903938ZM262.5179582879882,49.55838958791719L261.8996336711916,48.873360075628625L261.1570756522997,47.129239446278916L260.95075946667566,45.0104943647093L261.36332251124804,44.07546286377237L262.35296080082844,43.63896051754682L263.6725940647284,44.44926473080477L264.78598046968,45.758254083735665L265.1985435142524,46.63066417708387L265.1160447706716,47.37819529217904ZM280.55467939482514,50.819751401840676L280.18870387603965,50.42682489167373L280.18024602165497,49.9600690669663L280.46954623758575,49.81068596117848L280.8324020559867,50.10944796346985L280.8879327228824,50.52511158464904ZM251.618002440875,58.11333016196659L247.70028269429167,57.42950925018886L246.62814566113047,57.24280727601399L244.64838379524372,55.68820081035983L244.52463567987616,55.25254909839805L244.44213693629354,54.94173585414728L243.98880980665672,54.87950826925271L242.79292465812796,54.94173585414728L240.97822960607482,53.82173684072359L239.28728266939288,52.26570884040348L237.84383196344788,49.77519769496985L237.26675671844168,47.408567733301425L236.97801111591434,45.66354578546952L237.1017592312819,44.97811734817924L237.1017592312819,44.6662819705748L236.52419869954974,44.29260021240225L235.20449610897413,43.91836808372318L235.03949862181616,42.920775612709804L235.61705915354833,41.54870041265576L236.7304455584981,40.05188591985461L239.08096648376886,39.73976030185395L241.88529982540058,39.989378365320135L242.2153641263958,40.363468776844L242.46286035713456,41.112304302785105L242.33911224176518,42.23499212213392L242.33911224176518,42.4841780832744L242.46286035713456,42.54655136275096L243.90631106307956,43.23271376994171L245.5972579997615,44.91577269748677L246.71064440471127,46.162316818554245L247.6590333225031,46.2869760520357L248.4015913413932,46.59861130490981L248.85491847103185,47.470883058914296L248.81366909924145,47.90675565506126L249.1024147017706,48.7168263107892L249.72129393196883,49.028004613505345L250.4221172923444,49.028004613505345L251.28793813987977,49.21489128055191L251.37043688345875,49.40177135879412L251.37043688345875,49.96205802175837L251.12342593944777,50.70953814023096L250.4221172923444,51.39422579222628L249.143664073561,51.20741593590992L248.85491847103185,50.89605154858782L248.11284573886405,51.20741593590992L247.98902829682083,51.45659893410402L247.98902829682083,52.20344985248812L247.98902829682083,53.323790593077774L248.56610354182703,54.506127430820925L248.6898516571964,55.87485292343581L248.7311010289868,56.061080224706984L250.092052991351,56.74549566945643L250.6283641512946,56.74549566945643L251.16467531123817,56.62108207261326L251.20592468302675,56.1856115110445L251.32918751167017,56.123293953072334L251.94799741519455,56.62108207261326L252.0305654854492,56.807701374065346L251.78299992803477,58.051557848157245Z" class="state" fill="coral" stroke="#111" stroke-width="0.5"></path></g></svg>