<svg width="800" height="749.6" xmlns="http://www.w3.org/2000/svg"><g transform="translate(0, 0)" id="single_state_map"><path d="M69.35332127177753,749.5742699735056L69.33921619005378,730.6776740148989L69.37529895725311,728.1758769114444L69.37857920881652,728.1742098130248L69.45522775368408,710.5836656207484L69.44615239102495,690.0236708241573L69.49338801353952,688.1935013947514L69.45588380399568,683.9545314627362L69.4927319632261,681.6801861025383L69.51230413088706,680.4689463911536L69.51132005542058,662.0611034775052L69.4968869485383,660.188176509068L69.54445059621139,652.9739295976974L69.54554401339738,652.3259422650617L69.61924033185642,608.718345538698L69.61475732138751,575.6386591271817L69.61475732138751,574.9958569295777L69.61563205513812,574.520227930218L69.61639744716922,574.0718638075609L69.67336448265632,563.135946355304L69.6336734387387,525.2493208072956L69.63662566514358,525.1179303928848L69.6965449270374,522.181281891656L69.68473602140875,522.05259711796L69.67336448265632,516.2247700276989L69.67347382437401,516.1678374342969L69.66024347640086,506.8968471272883L69.63476685592468,501.5246749035741L69.70507358110262,486.451510698741L69.696107560163,486.41249655245065L69.68123708640815,485.9267723352882L69.7003718871947,485.48502025044536L69.73383045314222,485.1699962939733L69.65357363155636,480.6226509523658L69.72311496470138,452.38979893022224L69.67030291452829,437.28460691647206L69.74891961033427,419.51408180622684L69.68550141343985,403.04019777912754L69.77559898971776,333.93471811616246L69.77559898971776,333.9134842397043L69.77844187440678,326.3811120780606L69.7860957947214,300.8901176278159L69.86514985740178,298.974495378362L69.784127643783,297.03390489727053L69.83661166879756,295.1369207547368L69.7876265787836,293.22695432835644L69.81179109863479,275.74315769763007L69.7863144781586,236.94264206350272L69.70846317438554,221.72438457401768L69.74290581580135,197.1974631939329L69.73984424767696,197.18214330182218L69.76313403377753,188.06549692098451L69.76324337549522,187.76071798975045L69.79287498128542,152.28988980983195L69.78948538800432,151.08594728113803L69.78959472972201,146.0723576789169L69.79429642362993,146.06749670701538L69.79845140894395,135.74076537668589L69.82513078832744,120.22822252389778L69.77548964799826,111.46403019385161L69.85771462052435,68.26372238971908L69.85749593708533,17.1877357356816L69.86033882177435,17.131831199017142L69.8750999538097,4.292783433917066L69.87816152193773,4.208206913339382L69.88045769803284,0.15717273647987895L79.32266182355306,0.18058415183350007L79.81076325620052,0.18154251274427224L116.34128479306491,0.12938016920361406L116.40907665871237,0.13458272438765562L149.0987516398818,0.09884933242938132L149.126852461608,0.10035533993323043L152.63278533267294,0.09748023451447807L152.66711863236924,0.09268839038486476L156.7620753425199,0.09186693116953393L156.90170471740566,0.16661945427676983L184.0988171389381,0.031626412075638655L247.48530493473663,0.03107876939156995L306.9257594413666,0.012732722908367577L307.7453849653648,1.0686730584502584L320.77946455291385,1.0638816613191011L328.97626650149505,0.9732553916983306L330.53788492915555,0.9568275846486358L334.1036277203948,0.9680532556049002L334.1124843996149,0.9661366784921483L335.3728663920301,0.989546274753593L335.3691487735923,0.9946115021084552L348.1151129321461,0.8849556240475067L365.3309665545585,0.8217078883017166L370.7827446530864,0.8682538783486962L375.6598226776914,0.8137676692222158L375.765884144912,0.8167794771698027L380.82140785456977,0.8364931076921494L402.1250016336908,0.6693367652824236L403.1267904611832,0.6592059916047219L403.27035613794396,0.6590690891935083L433.85192278097384,0.6000639809590211L439.5104660697234,0.5966414006106788L443.58344509439667,0.6233374974608523L453.8121442031261,0.5965044973763725L456.15610262867995,0.6099210060619953L456.5550905605196,0.593766432254597L461.32829395228146,0.5806237096458062L463.2884629449072,0.5770642194165703L463.8128658281912,0.5802129992944174L466.3440172763021,0.599105658575354L484.71495681594024,0.6334683060422321L488.06988877336335,0.6931577348132123L498.983613750268,0.6577000649467664L508.99625362268125,1.0271931759016297L512.1315180670717,0.9539527157530756L541.4825530069156,0.9238349938605097L541.4922844198863,0.9289002531822916L551.0052326374625,0.9383462707373837L553.1356466862326,0.9080916045622871L553.2437856461092,0.8015835281712498L564.7573592922599,0.8852294229354811L584.4852295619949,0.9168531458926736L594.1397753053934,0.7650310194567282L620.674932961414,0.5466715994425613L650.5789089731443,0.2999678604537621L650.7010436730234,0.30339053833267826L713.8267514695235,0L730.6350885060292,0.01752460384159349L730.6298401035292,12.129418487136718L730.6607838099444,12.404833000316103L730.6351978477487,38.37465140154018L730.600208497739,44.40778270939063L730.6292933949353,52.312789251889626L730.6362912649365,54.28300372548074L730.5950694369549,64.64670079272582L730.6093932021176,68.20985778516115L726.2914887273691,68.20414485639594L726.3110608950301,92.95450945422272L726.3188241570642,93.05397969667047L726.4117646180293,128.58946390654364L726.3591712512953,157.97051817530246L726.2628411970472,159.65324301112014L726.3142318048758,161.15610248443681L726.2922541194002,163.53314284598582L726.3765565845824,164.18801367820924L726.3319451633179,186.95770655600518L726.2431596876668,236.93849141141254L726.1984389246827,238.11922099565345L726.2288359225058,242.0511596903525L726.2419569287595,245.8931128465647L726.2431596876668,245.94167549947997L726.2461119140735,246.05726176779444L726.239988777821,246.5052807265074L726.2210726604717,249.08079758315034L726.2054367946876,251.0309897786783L726.2175737254729,251.29427839715845L726.2263210629753,252.25297490530465L726.1452988493547,253.66185150761703L726.2129813732827,255.686341206193L726.2262117212558,283.7681176593446L726.1977828743711,290.3391301963911L726.1989856332784,298.0667544802309L726.1990949749961,304.038387391226L726.1927531553065,314.1702150079027L726.142565306387,316.5748767500859L726.1659644342053,321.0025002500561L726.1088880570005,341.85914055181775L726.1094347655962,342.24186536046955L726.1095441073139,342.25671789302305L726.1102001576255,342.78781544993853L726.1150111932529,349.4418145272507L726.1100908159078,350.0759325310887L726.1070292477816,350.549410164072L726.1098721324706,350.9984862779879L726.1068105643444,351.4323064832088L726.1068105643444,351.6659051425577L726.1067012226249,352.15746651388326L726.1049517551255,352.1944321083374L726.0980632268402,352.34176328962076L726.0733519983969,352.6944492303064L726.0706184554274,352.8608516263821L726.0703997719884,352.8747625416736L726.0667914952701,361.7200315359851L726.0714931891762,363.06743907850387L726.095220342153,364.8070859859804L726.1034209710615,369.1124154260915L726.11162159997,391.4414540277885L726.1174167110657,392.5722063164035L726.0988286188731,394.7243463072441L726.0924867991816,396.4522002145868L726.0899719396512,397.30217157084735L726.095001658714,397.463818496602L726.0895345727768,397.5670073947417L726.0922681157463,398.1270083006225L726.113152384034,398.7313133784887L726.115776585284,400.67067483495657L726.1063731974682,402.5676258655785L726.069962405114,406.3924725349102L725.9668531643019,410.21706913807066L725.8788330806819,415.39820631971634L725.8847375334972,416.02555750800775L725.7466389426718,422.7733620500521L725.6986379281261,426.146601936995L725.5072899202551,436.4614566767791L725.4513069602381,437.57966403725595L725.3922624320967,442.28520300757646L725.3502752120821,446.17001752295937L725.289590558159,448.03842622506954L725.2406054681433,449.04974996588317L725.2594122437749,450.17104578748877L725.2265003864213,451.8075414692762L725.1230631204508,459.53832959602323L724.6807758679734,483.4182203304076L724.5898035579467,491.1368190355374L724.5494564637156,493.0005899813955L724.3979088414817,500.17685666506713L724.3456434999043,500.7141463049961L724.3037656216093,505.55593585998713L723.888048406794,528.68881409605L723.8798477778873,529.1273358017302L723.8282384866197,532.8314070358738L723.8093223692722,534.1862124384356L723.803417916457,538.8169792734343L723.8058234342716,539.5045400009008L723.8154455055246,547.2013502015261L723.8010123986442,549.8914098991236L723.7834083819198,551.3246630357962L723.7894221764527,552.7110089188623L723.7775039291064,552.767760940651L723.7804561555131,553.7961477679846L723.8041833084899,556.5145996777769L723.8012310820814,556.6367842043674L723.7999189814564,562.2225820126168L723.8013404238009,562.3514692044714L723.7894221764527,563.1706691645227L723.7872353420789,569.7589654405851L723.7902969102051,572.0896814066587L723.7904062519228,574.4197989911731L723.7831896984826,575.4739347146765L723.8084476355216,580.1792218039363L723.7885474427039,583.0205375077744L723.7944518955173,585.9638249480822L723.7914996691106,586.1540991785928L723.7944518955173,587.7652051515165L723.8015591072399,596.2998004387578L723.831518738185,645.1103696484797L723.8396100253758,647.9465449557797L723.8400473922502,652.5921879337634L723.8314093964655,663.7545165917068L721.4857015034104,663.7613500981861L721.1771391730053,663.7628973066517L707.29697336551,663.7551612622974L701.6120787225354,663.7600607576423L701.6038780936287,663.7795297848693L701.3113889958822,663.779271917168L700.4215660884256,663.7672810628733L695.1753504212102,663.7735988263316L649.0532639709636,663.7957754386762L635.149480352211,663.7498749624133L623.7010743704577,663.8051875929718L618.8526438761746,663.820014944125L563.390697149187,663.8062190614805L563.3709062980888,663.7812059247876L551.4547364433802,663.7702465440984L551.1695732407934,663.7641866468875L521.1283733719902,663.7573531420476L503.76775131390787,663.7466516076647L503.5972875743264,663.7525825797243L499.2853968941108,663.7587714169595L497.82710639069956,663.7537429869512L497.6588294854937,663.7545165917068L495.983276986859,663.7587714169595L495.7569396289782,663.757224207955L495.35412473698125,663.757224207955L469.5055237331999,663.7430414493006L465.49782171463994,663.7390444869707L465.33020085974385,663.7439439889945L465.2537709983153,663.746909476074L432.2237152465732,663.6196507310565L430.12818120609336,663.5368737907443L418.80759569359725,663.518306920811L415.2979452040945,663.5673027645253L413.71894144314683,663.5505410513692L403.0687300085083,663.5211435278293L389.12427127037154,663.4947114815236L382.9676764525666,663.556987866933L380.9056009780343,663.5911559307306L380.3352745728607,663.5941214561403L368.59284870929696,663.6263553799745L361.6437451137517,663.6701933753425L359.7371535633283,663.629965573969L357.9027275473036,663.6493058801761L341.05677695953636,663.726408919747L340.9568386285682,663.7234434275219L338.56050551971566,663.7247327720602L337.7556411277528,663.720993672519L337.3941574054552,663.7240880998102L337.3441882399711,663.727053591871L335.2240523127657,663.7574820761379L335.11886557929574,664.5003769585192L334.668377697908,664.9817767986265L333.8358498510952,665.1351914834027L333.2552453243552,665.6624587127508L332.92317452441057,666.3548318846438L333.07002045273657,666.809602710513L333.95262680675296,667.5265273347072L334.35150539687675,667.5997383359872L334.70686598292195,667.3135941716314L334.85371191124796,667.3106295787516L335.1056352313244,667.4852815006861L335.1957328076005,668.0811409438752L335.1272848916433,668.361853424688L335.0088678102002,668.5389385891526L334.58844890147884,668.8416784862516L334.4533025370638,669.3027974291058L334.49835132520275,669.6823242773362L334.7502746452774,669.8936684187934L335.3091201699808,669.4919824521439L335.6378013766407,669.4930134249103L335.4810053519068,670.4673714188216L334.6584276015001,670.844799224175L334.79860368497975,671.4435819863697L334.82703253186264,671.9901526000695L334.7819837437255,672.2166589126036L334.47659232316437,672.8363724755081L333.9927552175486,673.285097006757L334.1112816407094,673.6659133357884L334.6284679705532,673.4442013934995L335.95008132548537,674.1310955645317L335.67672702852906,674.3887350215882L334.68182672932016,674.9000039359312L334.40825374892484,675.1327663260327L333.56402633819926,675.4466727245936L332.779827531087,676.115418913007L332.272591297653,676.8789181266789L332.2543312306134,677.2679901591882L332.2926008321883,677.3697314845376L332.55458359039403,677.6177706014714L333.073519387739,677.7813241899294L333.53570683303406,678.1005691443347L333.8894272932994,678.4576651567086L334.0528931628796,678.8045775637825L333.8777277293884,679.3222230910933L333.4322695670653,679.9942272056492L333.3221624562502,680.3758581212251L333.3171327371874,681.0555273194436L334.20476881026843,681.7818895933174L334.4283726251797,682.3376387193248L334.85546137874735,682.778151506137L335.64490858836325,683.5973433936902L336.6062409799033,683.6211562659246L336.67184601117333,683.6726433939789L337.0217395112795,683.865718135758L337.03267368315755,684.4835362135809L336.6694404933605,685.9884322969028L336.94716845906987,686.3600902633893L337.9204190979581,686.3759189283369L338.44318185546217,686.6583862729681L338.55252357424615,686.7355971346606L339.19774905678423,687.5848835008796L339.2852224318103,687.7907619640059L339.73352347882246,688.2411086682782L340.422376307155,688.2668422502479L340.8706773541671,687.8679654681591L341.2424391980294,687.9580355891226L341.29700071570187,688.1512980306543L341.78914779194565,688.2411086682782L343.02470921419444,688.6401015915767L343.2215243080045,688.9357671657635L343.29040959083795,689.0284023861532L343.5714178081125,689.3088768462217L343.57655686889484,689.3038592419962L344.26037997816456,689.7591660385842L344.31505083755656,689.900681976816L344.3357164224035,689.9544575916948L344.38065586882476,690.0807907348517L344.566536790755,690.6211006403364L344.5712384846647,690.6311347349492L344.6280961784305,690.6202001442521L344.84295265584115,690.5958867241966L345.1241795565511,690.8011984865889L345.14659460890107,690.8971637964746L345.1591689065608,690.9797499445117L345.1182751037377,691.2594065667022L345.0585745252811,691.5858787013758L345.0585745252811,691.6501944561669L320.78427558853946,691.6760492915892L320.78427558853946,691.6513521365678L294.21456594938354,691.6782360163834L293.7016439465733,691.6805513716145L293.44742445040174,691.679522324901L293.44742445040174,691.7008750259429L261.0534094768209,691.6688459600055L247.33955242359843,691.6898127880181L247.31232633562104,691.6898127880181L161.3807788856393,691.6898127880181L161.41434679330632,713.5511163191086L161.36689248735456,728.1395854088528L161.36131605969604,728.146766774973L161.36120671797653,749.4599563058273L106.79050434079363,749.4860706099348L97.92792066654147,749.5918073607108L91.10565346478324,749.5999999999999L90.02065558929826,749.5982078606303Z" class="state" fill="coral" stroke="#111" stroke-width="0.5"></path></g></svg>