<svg width="800" height="626.4" xmlns="http://www.w3.org/2000/svg"><g transform="translate(0, 0)" id="single_state_map"><path d="M736.3407026398017,501.8956104203003L733.1034586990172,507.1069853919739L726.4696524689352,516.3097238929477L725.9334773849332,516.0725181864868L725.6863044738675,515.5031791897632L726.3045645670627,513.6539250466631L729.1067317338875,510.7128238128803L730.219206523001,509.9536838004915L733.0634652041208,505.4463657084634L735.2203602779227,501.0907151905758L735.959649865501,498.9413490802326L735.959649865501,496.06205838285086L736.838982248315,493.87162943145177L738.7757164108789,492.16769260912497L739.2329535147946,490.82873949635996L740.1133349073116,486.4053754574188L740.0433135096937,485.83733860279335L739.1979428159884,485.1067364764049L740.7815540875727,482.8341138981514L741.1687697938705,476.4996899734624L739.9713252188867,472.8439095671001L739.7961405986316,470.2033152598324L740.2183670037393,469.390673237991L740.2183670037393,468.4154145761813L739.655179919906,466.95233228295183L739.5140881149673,465.1643477638336L738.5297236357292,462.481669166561L737.3502433518934,460.28635257280985L735.7305723717964,457.8671344615841L734.1919373911933,456.442563909397L735.6314409549468,457.0470079603092L737.5843036416809,459.28854050722475L739.4670138045858,462.56359357571546L740.4504604003341,464.6786332650199L741.7049448778744,468.9719993993158L742.6413171632412,474.45213258098374L742.4932756690287,481.2809304288585L741.3928644914904,487.63436047256255L740.5835535062924,491.11561403084215L739.0929107195625,495.3997953515154ZM583.4872697962874,558.836223837006L582.87740178071,559.8604581225418L582.7516517426666,560.5435438491063L583.3494561466687,563.4636176935528L583.0268856632647,566.7110012466633L583.7794189983306,569.0536841842527L585.7145796463428,569.7112494144449L586.252197118687,570.9028548554365L585.385452852297,572.4857051695471L584.9620463112751,572.7929949644636L583.3136586905839,573.12162587786L581.8443894765333,572.751802853656L580.0347166141382,572.9255907170536L579.5150634329457,573.6145590663796L579.6941818395826,574.2308912141007L579.5866583451152,574.9703068444705L578.2608412078316,575.7507207736971L576.1464310269675,576.2437199355836L575.5731472247517,575.9151557882351L574.7130903952166,575.8329385008637L574.247198961255,576.1615044056657L574.928137384155,579.0366825417591L577.9024732683392,581.048882285656L577.9024732683392,583.5535838536853L578.2608412078316,583.8409727056169L581.8946108160217,583.3802165258667L584.9286091270187,580.3545370716934L586.7714569212421,579.0435951861987L591.457514386886,576.7703698652699L592.0231928687626,576.2634095127673L592.8306680869791,574.9781232051032L593.9234739441763,575.2115599893341L594.0873817101347,575.6579810545218L593.9784158273251,576.0116515681866L593.2304719097028,577.0723136994952L584.6326572648031,582.7342032241963L579.848779644437,587.5978669853766L577.126074962549,589.6579042059489L573.862868031636,592.5954252402998L564.6694781283495,599.3662753191188L558.2031200719721,602.4014311300139L557.1020532633702,602.0030502758491L555.3582057597869,602.2890452547122L542.5065256465186,606.6041363081231L541.7886096316215,606.490880930246L541.6413548946857,605.6112109270389L544.8378185832989,603.8923797581278L547.6419526433147,603.5632041144395L549.1104351000904,603.3488010766687L550.4147475384798,602.8139057968292L552.6036374081959,601.749311579902L553.6716604111807,601.4182896082875L554.3278159798647,601.096414209434L554.7651218994415,600.0238979927312L554.7339138608022,598.9511572264119L555.5462407488922,598.593510384937L556.8068881584313,598.6208257106996L556.7845967022622,595.8356144260538L555.6005270009773,594.7116912984284L554.9194574518679,594.4025868275075L552.2469741094701,594.2716771908222L550.7382359053736,593.7794049801569L551.0261890686124,592.5527846600239L548.5767514141298,589.4556221543698L547.8101875742959,588.8878066058473L547.7968127005934,586.9578882973633L548.0673260775311,585.7227639042617L549.0772601682602,585.1792958181454L550.4387436354173,586.267414448856L551.3499396879324,586.0987340581387L551.9531202666585,584.4507360946209L549.9377103764364,581.2874857852485L548.1435104071479,580.4540102199321L546.6540477563321,579.4452746027409L546.6724054261194,576.6770351058549L546.0731586337752,575.4140293318719L543.8829575019317,573.5832908252582L539.3761495691397,574.0084131928415L539.2465968709257,574.518303996952L539.3963430059066,575.3871237599992L538.6681991464138,576.2939207924687L536.6542316445302,577.2162947836978L537.1875219518497,579.7981066784628L535.1409040229883,584.9904744731548L533.9459508460441,585.6852114471117L530.755125584581,586.9302519138741L530.3624025773443,586.882639115172L529.3072299432097,585.7739853082035L525.565543461913,586.2459352141132L525.4627405111023,585.8650117816637L526.0528084685538,585.3775782706716L526.2547428362159,584.7646969855518L523.8219582107522,583.6689606813502L522.6232023736411,582.6368481712079L523.1399707781529,582.0103356439649L526.1122086429368,581.011318425321L526.4473672427703,578.6943524803801L526.8273710073663,577.6637096522154L528.4260617934178,575.5700506581065L528.2277989597151,575.1926206271014L525.5275168602093,574.2447208225872L522.5745545487025,572.0316747485458L520.5740930467346,571.483212154355L519.6926626445147,572.7169247756556L518.5205254285956,573.6530429680893L515.138911527556,573.3493783103609L513.3777553638847,572.3573151466694L511.1369395139136,573.7214418523463L510.1929619082075,577.8572798030254L510.3573941790164,578.2567359672857L510.9534939422556,578.7041205640357L511.9261881885577,578.5388136970046L513.3853606842258,578.7658847647472L516.1168508223691,580.5378556671048L516.2875771513918,580.9645888550631L516.147796608584,581.4981389483983L514.5493680749569,582.1560734481595L514.4327968718062,583.9637084947713L513.9739862533352,584.5075199261296L512.0873423040484,584.1220467333656L506.43108199014205,584.6533843112343L505.67736851916015,583.5903903574795L505.2500281917528,583.4945430332041L504.4109515562577,583.7763745288421L503.5712192897008,585.665233502591L502.86458012910225,588.7723186829858L502.92266904135795,589.2091858674899L503.48729851353164,589.4640318545412L503.997379481194,590.4685075029738L502.67706964484387,595.872241503947L498.65385518473704,597.3489608839341L496.89873082685517,596.9016670206211L495.6157919611451,596.9394923724299L493.3680264218983,597.6688130791154L491.63663590852593,596.726948716655L487.31602719786315,598.1546575384209L486.1006183317277,600.1418529095449L482.6931725667746,602.0560182657059L482.3510642776655,602.6644618999653L482.1352305314522,605.6070104727596L482.78810794481615,606.937297321068L484.9830296203181,607.7487941251329L487.18503211131065,607.7529939978767L489.16451341923675,607.1764008025007L492.4153944861464,605.1709071009991L494.53898350190684,605.5176005325411L495.03136243084555,605.7615264328156L495.4572603699107,606.1221576773828L496.7550164976619,606.2223648664858L497.87745687894494,606.0217998268517L498.7542978637157,605.6205119288793L500.24507177666237,605.0787942550137L501.9813139599046,604.777698436912L503.051172729869,604.4366894661039L503.4369460478283,604.3162168352446L503.7001163568493,604.235951236361L503.91214744289573,604.3505733848037L504.12063812119413,604.6944347319277L503.92893159812775,605.1721072647529L502.5438454126743,605.766026874538L491.6812188208678,608.824524283189L488.43217352093234,609.3137677793002L482.9244792060945,609.2021820281698L481.11585535340055,609.6762659380156L477.4611055511705,609.2882711059965L477.01304728214564,608.7213342256177L476.739386876101,607.855290546297L477.2144571449535,607.0235490030136L476.77295518656865,605.0712931847647L474.39117865787375,600.9326978559288L473.73436745812614,600.8470124367336L472.44710142739495,599.4278066972142L471.4285130066237,597.608025161579L469.74170540559317,595.4576299140517L466.1249822050613,592.1886833549297L464.0164727037718,590.7987132641429L463.20165441763857,589.0370836010134L461.4724930498869,588.0289101670569L458.8263660762532,589.4715405115285L456.38243572270767,589.7313377906316L453.2538954123065,588.9349626740291L452.2270460401305,587.82300219326L448.7070939846217,587.8911879247512L444.06719294586946,586.993485087823L441.34697966202475,583.9581501019725L439.46125359622783,582.7645514327223L430.2160688388976,581.9496361926404L427.6741872044149,581.233845396463L419.83808472947567,577.9692427918644L416.70613513754324,575.236511811881L412.482822076754,570.302928786889L412.7627765410107,569.244205067369L415.8358504634107,569.26194880193L418.12964130333967,568.4109782979731L420.1193504558614,565.6335297280189L420.4260546675214,563.3692994275389L420.99881396488854,561.5109457566805L421.4382179038694,560.9111035877704L423.73030410303,559.6102365000238L425.119455201082,559.2889898801282L425.5347319169141,559.4937759746035L425.6624488481484,562.038703196803L427.1601724503689,564.1864042828811L427.9089031252679,565.9042583343812L430.46743778877135,568.1230000359101L431.2162995898816,568.1230000359101L433.89953528172737,565.618037890999L434.39873277373044,565.689631103965L435.1475945748425,566.2622143780786L435.5219599122902,566.9063638147454L435.7092081441224,567.6936542631929L434.7732292373912,569.8404133883846L434.7732292373912,571.9154588442257L434.27390061917686,574.5624977450548L434.39873277373044,574.9202519792511L435.2100106521175,575.7071316723072L439.016473482523,577.2806199262554L439.89016743818684,576.9946114477193L440.20211669835953,576.0647089585455L440.01486846652915,575.2062990577197L438.6421081450717,573.2032563458606L438.7669402996271,572.2732747261625L440.20211669835953,569.6974157230002L440.20211669835953,569.1249606241831L439.57808705180287,567.264146086547L439.3909699461856,565.3316616972138L439.016473482523,564.61584823256L436.6451870508499,563.756948305197L435.584375989567,561.7524105808675L433.2130895578939,561.1080445764032L431.9026141875038,560.1055600067871L430.50218623515684,559.6075281257681L430.1583733052812,556.647891646368L427.7487980194801,553.9861679689593L428.59639785880245,551.9245001987688L427.8818911254366,550.17541723561L427.39436386637317,549.592445491583L424.7096857861852,548.899836528044L422.5348264212389,548.0064751852001L422.299061490683,545.7253284870535L421.5614765438713,544.1800752126614L419.50922018785604,542.7965944659923L417.8013012665724,543.4974632542057L412.3704469124132,542.1429936525556L411.3443842975139,541.1326365175901L411.0410893673834,539.3330499377421L409.63213821120735,537.7279318735273L403.65422529738316,538.2217048515722L401.26313880758244,537.6444544835272L400.3870845800866,536.9708927584252L399.7043103902124,535.0698416132523L398.70722666833353,533.9238219645854L397.73636818901105,533.2734581739169L394.92987385716333,533.3412841995141L388.5668432564471,535.5355193464898L386.76425120954264,535.2638003785182L386.70524441379894,534.6864380042884L387.44361611788554,533.0930394760253L387.48518312733177,532.1949837952047L387.00080289737343,531.1859268866401L385.9218964187294,530.0869525840603L385.3280258011091,525.7950674140061L383.8118134028864,520.0013260162227L382.845282088585,519.3097846884975L381.57584922278875,519.164653563932L380.1001548243112,519.3376943612011L377.6958245870228,520.2442028276014L374.4261924716866,520.9925708796313L371.97177202111743,520.3243060675109L371.30184820009345,519.8702312669425L371.33908804451676,519.4058842647992L371.6248120621367,518.996438519549L372.0549060400117,518.8686541871457L372.8225188895467,517.8211442201155L374.14138633755647,515.5706318105445L374.4261924716866,514.1299174929563L374.20170439542926,512.1567303487695L374.5946896550904,509.9699870674244L375.29621489339297,508.222418614655L375.34722299015993,506.73102905988435L374.89850909007146,504.5060523427246L373.41455374018915,503.42674165231756L368.9170557685047,502.93651861479793L363.1728097658324,503.96784126283865L359.72183009823857,502.40066825518124L357.7541501494634,502.56770819756093L353.63482017539536,503.7117161426977L347.4948352625943,506.9991819999009L345.46723063458376,508.5323640314127L343.80481250912817,509.3841151478896L342.7720624573758,508.7758773441965L340.90561194485235,508.2189462238716L340.8729615178745,507.84165867795764L341.2228062535378,507.42661643225074L343.7677037909125,505.257764093642L343.84572388750894,504.35942041138424L343.6116635977214,503.6408883255017L343.0656540477594,503.3713167379692L341.21965922442905,502.15070902226125L341.6909268331128,500.7825810872546L343.7378070144023,497.2706174313639L343.9418394014665,496.00479334347574L344.4697535340674,495.19384270980936L345.01576308402764,494.9242716966046L345.4837525373896,495.73312141549195L345.7958329237754,496.90166890343926L346.41986257033204,497.6206720672485L347.3558414770632,497.8003042099249L347.97987112361807,496.72187499959773L348.13591131681096,494.74445427870796L347.7458108338287,492.7667748693211L346.73181183050474,491.23834267358507L345.4837525373896,491.0584813915193L343.6116635977214,491.41820181424373L342.31548098452186,490.47081884482486L339.8083477964228,489.30766930809114L337.47797274313234,490.07600801824356L336.2848553331678,492.38638154506225L335.87128325810227,492.42794266425517L333.0415795865956,492.1817480401969L329.9612937224938,491.0584813915193L329.2592439793407,490.3391659986455L328.635214332784,490.42910118998225L328.01118468622735,490.96870109315387L327.6212153294582,491.8676891613404L327.933295715844,492.67685359296684L328.35316184912335,493.50486475553953L328.10362866622745,494.87032669581095L327.3837457581394,495.5806626725316L320.5920635678849,497.5227724067722L317.87355492480674,498.9351553710994L311.174578966984,503.1468966188354L306.330121036317,507.3766414992597L305.2345615286504,507.6828297393831L304.84446104566996,506.6051042514355L305.4684906922248,505.7068404593342L308.1206494716462,503.6408883255017L308.43259873181705,502.20341980204466L308.3545786352206,501.03528172393135L307.73054898866394,500.40631667300477L306.6385298887435,500.40631667300477L306.40460072516726,501.3048949062927L305.54651078882125,502.20341980204466L304.2205625253264,502.6525867388482L304.0645223321317,503.5510316628179L303.6744218491531,504.35942041138424L302.3484735856546,504.35942041138424L299.696314806235,502.92217112112667L298.9163760927004,502.92217112112667L298.68231580291103,503.6408883255017L299.4623856426606,505.5273021106141L300.554404742581,506.24589572057585L301.568403745905,507.59314802556264L303.5965328787679,509.29942527036974L305.68524232192976,510.3002754045142L311.64912473098593,509.9843278895928L311.73933956536894,510.8923007553026L307.6523977658544,514.4563424910889L307.8547255121539,515.8226333576054L310.6106051258703,521.6600521095929L313.0191314019703,522.1240285722392L316.66168646641745,521.9320140230461L319.0180245098363,521.2441808058502L321.94869536517217,521.0752345522496L323.135387590708,522.1169393115033L325.2684176937837,522.9808997608434L324.3451580296969,523.302157447587L323.3311590263711,523.0329349172671L320.4450710833753,522.7638584487063L318.2609017573195,523.6609625863939L316.77891330063176,525.2758579676488L316.8569333972264,525.5450407960511L319.4309409538382,525.8140680625634L320.0549706003949,526.083241367689L320.2890308901824,526.6214229006955L319.1955694019198,527.3016245530353L316.54459075841623,527.380032010969L311.3795292375362,527.0041248891266L304.46904669851756,527.7156716783447L297.39268950034966,530.6008723875093L292.24336312500054,534.0865969710853L288.50207002233947,534.9788142710199L284.7039992695518,535.0403029988643L279.73706945616505,534.0805682981463L272.5344377151014,532.2907005416073L263.1694035993023,530.811621225846L252.02144636851517,529.4768293173729L244.4596599306842,528.1509669062275L239.55803097125317,526.7432612999628L227.69438687118418,522.2878348251415L211.02745847125698,514.3790756269095L201.95050864490986,509.6993203749498L197.51188634275604,507.74473094948826L185.57297579656006,503.6698839751489L182.57962661151942,502.4376709329558L170.94243748090048,499.2109995687606L164.38560233771568,498.14868477475693L159.07210594398384,498.05894657595354L155.3852302196192,498.51850931008084L149.28379641337233,500.28124557909314L148.90497278469047,500.8528180892358L148.59839969924178,500.9392167069868L145.35984449632997,500.3345670776489L136.5817313088737,499.44333322255943L131.82460343591083,499.3990722748931L123.53611552692928,500.29680399609924L116.67506757012234,501.4523116240812L110.83759083017321,501.8817150503305L104.49947420988246,502.7355014380969L96.8537669958805,504.3680280922981L93.6936252682026,505.40136729785945L89.33997275192269,507.5514775537308L86.75088568084539,509.2399458222694L84.26263466738419,511.2713237199814L80.9539269406414,506.22294473898364L80.06017067442372,504.4980487826856L79.54602479416462,504.1525325738462L77.59486674819709,503.4783908449467L77.2256153330436,503.11835304092256L76.93818667466076,501.84742968074534L77.33261432266227,500.5424133919996L76.93385950963966,499.6940924611167L76.32962992121065,499.0463396176365L73.19086176621204,497.01120615843683L72.65363767251074,496.3294938221179L72.35152287829442,495.1932382958712L72.29907239318709,494.30593258201316L72.45852186791126,493.295259355722L73.14667223251308,491.9097051162671L73.98378197481543,490.9786767082096L76.03354693278379,489.1649713696852L77.35123424487392,488.22893620320156L79.74205848225029,486.9452703610432L80.90593474677007,486.1096421426346L82.01132872039125,485.0630383323296L84.20979080363941,482.22677317859234L85.25880050577143,480.4868848627302L86.75049230220611,477.3915227546222L87.07148927105845,476.4983283563297L87.44060955999703,474.31958324771676L88.21687673957604,471.38034991706354L90.62750103508006,466.34541032439483L90.95479206214623,465.92634888390876L96.9678468009879,461.23366741339123L97.14408043094772,460.8677731939397L97.2196091295009,459.5592043426286L97.4440972057564,458.8539838279585L99.62616851240819,456.4666512434851L101.83761209071781,456.2775873551991L102.24672587455098,455.9771708430917L102.43344960153263,455.52630754052643L102.27819616561464,454.85725959825413L102.06839422518715,454.5833291841336L100.20312384858153,454.03060479574833L98.21000541452668,452.1880429940866L97.88481240686633,451.4533795449788L98.09461434729201,451.03147732511934L99.23803492261868,450.24098486737057L102.03482591471766,447.42315220344244L102.19007935063564,443.6853826580518L102.58031095982733,443.4985833939236L103.01250295710634,444.0175824066346L103.289441518471,444.01273061490247L103.89996516511383,443.07888303496566L102.64954560017031,441.3247477417226L101.86069030416365,438.14106107153384L100.98162017377763,437.1194744776103L100.0730466455152,435.1825912027398L99.6076797164078,432.69239883233695L99.83400355964295,431.37377751329313L100.60253429266959,430.3541560448939L101.68773482952565,427.6995356026L101.40083067599153,426.6089265888413L101.15680479403454,423.28575820491733L101.41145189922827,422.7261056634752L101.48776735505635,421.8645701380028L101.22066325964988,420.7818861239666L100.89638813547936,420.3179630711684L100.47665312841309,419.876045842042L99.90428720968703,419.7654885534794L99.17837249580953,419.74665728517084L97.2797960611606,418.4314468974744L94.44366720522885,414.46233057559857L93.92742330556575,414.4169067000448L93.72325979228845,413.9467082682204L94.96502502718795,410.4751355971257L95.02508083263638,408.26501964174986L94.67628510667782,405.77716314898316L94.79429869816704,405.2685361031581L95.60951036293773,404.3769526425731L96.40990476566549,404.26536792543993L99.42829905734288,400.66091287980544L102.00479801199617,399.25915510605046L102.64272703710594,397.64160106833606L102.63905550314848,397.14653587148223L101.58781665539937,395.03072534572766L100.16732639249494,389.51420363451416L101.02764547445804,387.62803061162685L100.47625974977382,385.7769306578566L98.71929962491231,384.69480813762857L98.05422747376178,384.0419039745975L97.07602592652256,382.5790443587048L98.52601958729429,381.77622931423684L98.96503014763766,379.9283558166253L98.71602146959412,378.4803178604834L98.70317110074211,377.32547096405415L100.72120351522426,375.1308150343184L103.2893103922579,374.23162624264023L103.72661631183473,374.47885911314097L104.02191254298668,374.6552556357301L104.40912824928637,374.5052120954315L104.81483275158644,373.96961276614456L104.99932733294918,373.41266634481144L104.87016801337268,372.9198365446291L104.53133787958541,372.15077589625434L104.30527628877644,369.5361574088911L104.57028236477709,367.16462060469075L106.24161707270105,364.532197741818L108.25873160369156,362.6800290508063L110.45614467723681,362.24187706083103L111.54567237911579,361.1926375782168L112.70102543980283,358.87206170077934L112.74285470167524,357.5052224105775L113.34472401827406,356.00175079981545L113.99930607240458,355.38052112623427L114.21540207104408,354.60474794226866L114.19245498381133,353.68294929026797L113.1475101942724,352.26467292194775L112.95855732167547,351.7271963117237L114.44972461325779,349.33859737872353L116.40730784365223,348.3728248780035L116.79176989948428,346.27076455025053L116.85929989906072,344.90916355059926L117.53014160357452,343.38547370768356L118.29985247251352,342.5635741115484L119.49205199898825,342.4228207149008L120.28667684835455,341.92681452184115L120.49346288588822,341.694606413359L121.49120223883074,339.0681546296855L121.5477176365348,337.5107192294845L120.95161787329562,336.77248682522804L120.89326670861556,332.2741770108669L120.00016607346151,331.52773635164885L119.73489774503287,330.8839274516404L119.6907082113321,329.3899494926309L120.1548950045235,328.3595995020105L121.17177878453003,327.38067687930925L121.28231818189306,325.88649399765836L121.76853417883285,324.75272653676075L122.12231270087614,324.3920055950257L122.43177056300738,324.31481627147787L122.67487856147636,324.417837178632L123.00807026811526,324.5359893431696L124.5229714042107,323.852741759556L125.150934837151,323.0118601292879L125.13808446829717,321.57853536244875L124.31146482301847,319.85319211571004L122.04403035185533,317.34209812172503L120.6420288849531,316.7046990145436L119.66658098818152,315.68079550371476L119.1507304671577,314.2074413129276L119.43160281490418,312.81531911956336L119.66553197847861,312.0781334878002L119.92293273413998,311.6141417712661L120.36758172163354,311.39567963067384L121.29136589057453,311.71327477254545L123.39659723654586,311.0127510509601L126.35782049945556,308.6926283176608L126.42810414949781,307.79165285450927L126.35782049945556,307.3273716749545L125.53106972796013,306.5227254240481L124.48586268599865,304.4051518174401L124.37440540514399,303.8562710717715L124.7432634416582,303.50375811144113L125.25806495297911,303.0393402561713L125.56227776659944,302.3290614921152L125.16444083706483,301.4821924734797L124.50933427808013,300.88114888771906L123.3175281302465,300.3753099893238L122.46324085406923,299.6119253877896L121.88759678002498,298.3683158173899L121.80118460581252,297.4270400168325L122.0602900022368,296.21693566626163L123.15414486913869,294.9393408886817L123.38440249875566,293.66163383683397L123.2979903245432,292.58571188349833L122.71788795926295,291.51016985466777L122.69349848368984,290.39977033264404L122.69349848368984,289.5253935404262L122.80862729849832,288.8863159842331L123.30126847986321,288.34022023981197L123.75011350616478,288.0274777104687L124.41702142429313,284.6257951829866L124.21207115374091,284.0669707091065L123.97735523288793,283.89055182103584L122.16335520547364,283.73926823377496L121.67582794640657,283.89652955956535L120.58826713772032,284.37060236503385L119.45795918367003,285.12283353657585L118.19232897804613,286.6786696484014L116.9744287138692,286.9607926734461L115.62055056705321,285.566521293963L115.42648377215846,285.3398514193768L115.1465293079018,284.3615594140738L114.51122280704658,280.85706820568885L114.90053653275027,279.3418516372067L114.90053653275027,278.49732142166613L114.77714676653704,277.9822687636306L114.49535653530074,277.5084470876527L114.17816222661895,277.1376593207078L113.367933357933,276.47840652262585L113.32846436788896,274.84739752345104L113.59333931768015,273.7682388075027L113.63870898729692,272.58039639034996L112.79937009937566,270.7932339372428L109.89190858370057,271.0259610629764L107.99215201313746,269.1499235776937L106.42860305210706,266.6581365696902L105.57470915457088,266.18778068172014L104.44715485098823,266.0755989266272L104.07462528051838,265.55457923130507L103.94730172792151,264.83801220119494L105.33383030171535,261.6686686856947L106.49272377014859,258.2098097331427L106.83548769032132,257.8763005630062L106.98759409713057,257.49026789917934L107.11439314487689,257.1338618328964L107.08895465959904,256.8368756498785L106.93684825278979,256.5400369221725L106.42965206180816,256.153968523784L106.3282914993415,255.32236607226696L106.53114375048972,254.81739183791524L106.48039790614894,254.16403216250455L106.26417078129816,252.96182834737556L106.07246425823178,252.01437138427355L105.74818913406125,251.34936320140514L102.89632513259676,249.5502002825524L102.1430050402505,249.55911138563624L101.71448457693077,249.3214288709305L101.74084094569662,248.0893194599421L102.66855890102124,246.6281368709424L102.23230199114732,245.1874000609996L101.1195649496076,244.3865186008261L95.86664886617473,240.43678842748614L95.81498513834231,239.42424095950355L95.81498513834231,238.86258923894093L96.08104022404768,238.55061936777474L96.37384505715454,238.3945550159251L96.86202794728706,238.15438174036626L97.48055029290663,237.98724214596496L98.28959902567658,236.83443346921376L98.58227273257398,236.11674533265432L98.95480230304202,234.9931616102058L98.84845894448881,233.8384209834021L97.97030669758897,233.58878917896527L97.19862893545906,233.30777517675324L97.065666955712,232.99568476895638L96.9635196359668,232.5308436130299L96.90595522856165,232.15289913562992L96.66651876405012,231.74710152835723L96.214133330006,231.6221910877639L95.81498513834231,231.59096330794728L95.54893005264057,231.68464644380128L95.29179154940357,231.72633447371481L94.4785467778238,231.94138740786275L91.75466196002162,231.7181814736914L90.85618515014357,231.41667105385204L89.49247253737121,230.3859498929496L86.80504080671562,227.1883976121735L86.51892341046187,226.66596972720072L86.23123249965101,225.14104863666944L84.66217623768352,222.35810009592024L84.077484454956,220.37780064148956L84.25135781308563,219.18924333845462L85.5895008143707,217.6870861689631L86.09761488884033,218.04477891437637L86.78733876799379,217.99427441021544L87.03372492178096,216.76963968113432L86.8765045926757,212.86036351608527L85.87679834654227,210.8377724848624L85.77176625011452,209.9292850117845L86.35016397462823,208.84339966471725L86.95675383488924,209.1239690264274L88.65431378536596,207.0410609889077L88.92010661864333,205.8819094938126L88.88837407515348,205.17345863230184L88.79330757089701,204.7260546779762L88.2883405255343,204.1795339861128L87.89050359600151,203.98702919546486L87.32889002671982,203.68447239208854L87.16511338697455,202.99687552647265L87.18858497905967,201.89659007072532L86.74393599156974,200.38352068004951L86.01867690875406,199.52956391285989L85.22300304968667,197.76968768013012L85.29315557351765,196.42134067888855L85.65624405666676,195.6788010789287L86.27843793624743,193.49043633782367L86.16763628645822,193.2530567048807L85.6420824256893,192.8453838309415L85.15088363266477,192.4619169878688L84.69823594619447,191.98650251110303L84.40726688006544,191.14962964251572L84.40726688006544,190.31270766406396L84.00300476610573,189.62801496104748L83.18517057707868,189.09973926500516L82.24079959273331,188.5680495091001L79.94255046157014,186.81361035435657L79.43850129969542,186.06918146140288L79.43050260071868,183.14448324955902L78.21168445305011,182.06473970158913L77.6829835631761,180.62783602677064L77.54556329219668,178.96366843548913L76.5248768520214,178.0852664295844L75.88144052597454,177.05362682056875L75.97519576810191,176.14329444257328L75.50405928563123,175.42656938311393L74.87583360026656,175.03352123638524L74.0376748482613,175.0772281094014L73.56050656000116,175.4035582192946L72.99128767038383,175.54224238755523L72.50048225599676,175.28788408679884L71.87225657063209,174.66362906956238L71.53854035914082,173.39186792794044L71.14594847811713,172.90623953680188L70.41964038560218,172.65183407228233L69.10772262686987,172.34305046644113L66.72568384575243,170.82591259509627L65.97183924855563,169.89355171033094L60.56904590392878,159.9367243442266L59.17661665055857,159.16027295948243L57.97956545421221,159.69028062100188L57.53098268033682,159.6956919156155L57.41467372961233,158.63457484549053L57.4172962538687,149.8576384513999L57.46489506910075,139.96753423398968L57.41047769080433,139.1548396144608L57.419787651910156,137.17392319682767L57.43158901105926,134.05465151723638L57.43840757412363,132.70256199835785L57.43486716637926,132.69202854367268L57.42227904995161,124.75066370514651L57.413100215058876,116.77039355709985L57.4129690888476,116.7586075542049L57.412182331570875,102.19488227967486L57.40903530246396,100.67764128330873L57.39093988510285,97.73506435520721L57.3880551084203,96.5493811999786L57.391202137527216,96.43430170157899L57.379794157017386,91.02123660088L57.39002200161303,90.34010600843158L57.39067763267667,85.60126074409527L57.39434916663413,85.45174229056556L57.39080875888976,85.20958739384241L57.378614021101384,84.4171924641305L57.3838590696123,84.06636695957695L57.36851730271883,83.43852744902779L57.366288157103554,83.08705559406735L57.38962862297376,82.10907482446146L57.393037904506855,80.19784297873957L57.367337166804646,78.88114407280682L57.35933846782427,71.7436526705942L57.36707491438028,71.00323767224472L57.38857961327085,63.86296136659075L57.387268351143575,62.59920879069523L57.38766172978285,62.01461830345397L57.40103660348541,59.16682151475652L57.40680615684869,58.67458724282733L57.389366370549396,56.858573473484284L57.358682836760636,50.95399611002995L57.38490807931521,39.269552771970666L57.37441798229338,37.88597269143702L57.38608821522939,37.30970021808662L57.40038097242177,36.57368982738626L57.411133321866146,36.30915949662449L57.37454910850647,34.67086196604214L57.40615052578323,23.121010644170383L57.374680234717744,21.722077294459268L57.392906778293764,21.641040996516494L57.39644718603631,19.79753219729355L57.393037904506855,18.838673102544817L57.36589477846246,17.10350012890558L57.369172933784284,12.747897025930797L57.366419283314826,9.983887496882744L57.3826789336963,0.03721947969916073L57.58199077710378,0.04206738772609242L58.31695319966093,0.04879190248902887L59.34708072715512,0.0497302066123666L59.80707148154215,0.03909608946014487L87.333348317954,0.013292682855535531L99.30254901929766,0L124.44914734642407,0.12729646011575824L125.31235120506426,0.1282347588930861L125.82964411443027,0.131518804128973L129.77365834202647,0.15872943455815403L129.95553039913466,0.1585730517781485L132.9011496427247,0.13230071954512823L144.69044518015653,0.19125701426037267L149.5133984119293,0.17514961659708206L153.7035365408883,0.19985804413863661L153.73199092905816,0.2034548368637843L162.85496605608932,0.22910150560073816L165.8648371439358,0.1663921886074604L168.25802165314235,0.2355131653321223L173.90313623895963,0.2503694386150528L180.84076190402266,0.268509708496822L180.9013422143198,0.26131615605390834L183.46525305254727,0.23910994875222968L184.54848669621424,0.24380140397806827L184.87381083008768,0.26037786632878124L197.9272941848012,0.35420652283301024L201.15090099945883,0.4144129077840262L211.5155102351764,0.5309154256292459L213.265127292123,0.519968922226326L214.5607854004702,0.5296643971050798L214.5887152837895,0.535294024554787L216.32941575826771,0.5936230847664774L220.82245543871977,0.7226342048052175L229.1274652505108,0.79910204438238L230.20309357383667,0.7984765422997953L230.3920464464336,0.8020731788747071L231.39765337214158,0.7911268907373596L232.00017831980585,0.8053570636238874L259.2105721096632,1.1409346863820247L259.5243571368119,1.141091058022539L263.6706991107094,1.1645467838179684L276.7140857470404,1.3667334860101619L277.6876978768323,1.3806503270780013L281.2244340875768,1.4242771872686717L286.89288913926794,1.4627437667113554L296.0506127126828,1.622707293800886L316.2073341391824,1.7660943329756265L331.5683765861613,1.8810217995169296L331.8249905845478,1.8666363731463207L341.6428035130284,1.8341127451731154L357.38581661780154,1.946381482534889L359.9476294366232,1.8589745638491877L374.22216008462055,2.0043918508363276L375.40950794122364,1.992195621153769L376.53902913799357,2.0173698782691645L380.36778342457,2.023311621692301L380.3891569972511,2.030504255044434L381.34808299121323,1.9623304490860392L383.03069455343575,1.9729630832034672L390.8164445626717,1.981719363972843L392.25122758276484,2.0758490311118294L396.9464638833033,2.1288553217273147L399.25258058723193,2.088826991305723L400.60527859813374,2.1018049392851026L407.0894698194443,2.13651698110516L412.72855259947755,2.177952412133891L413.153926033694,2.194839269075601L413.5959524969294,2.2018754533655738L413.7741530200801,2.203751768570328L414.10603346459175,2.20734803866344L415.48154743651503,2.2197004375020697L419.10299118070725,2.2595720291483303L421.6442171841245,2.2475323842136277L434.6185003063274,2.400450729871409L434.6025029083685,2.6925231857794643L434.23823428930336,4.272546716240868L433.6698021569591,5.217410009764535L432.50933517397607,6.381829069124251L431.8766511973772,6.764007225942805L430.506382273963,8.54173904430263L430.2161999651107,8.738503974939704L429.9282468018755,9.105613891378198L429.9035950738744,9.711972456892909L430.01374109259996,10.079212766497221L430.2464901202602,10.49613588615648L429.19420226280636,11.733860861334506L428.7660751781241,12.444475209172197L428.4887432381238,13.033344938764458L428.330473899312,13.932615741161499L428.3376858410156,14.420347249939368L428.4865140925049,15.216115652009648L428.64911059633596,15.60351674723097L429.0862853896997,16.270508519350187L430.1992846836638,17.339190315569795L430.5913520598351,17.60908110251694L432.5784386881023,18.442772965581753L433.394830488789,18.668913760956457L434.07275300879155,18.763710632684706L435.41810795177844,18.68749837185169L436.5044886245505,18.36640275960235L437.37175739579106,17.810558638188922L438.8187351536726,15.907806446511131L439.0712842394605,15.057090607835562L439.1776275980137,14.463932924320943L439.1795944912046,13.974953143044331L438.6265041257557,11.457136371196611L438.3175707684768,10.427066284083594L438.4088346125609,9.838866808462626L438.4795116412424,9.709315789285938L438.911310259884,9.442552504771811L439.18562629699227,9.149997741027619L439.2540741800567,8.942298850190127L439.22443965596904,8.698807383894746L438.9486812305222,8.272765130972402L438.36202255460375,7.802477987981547L438.2228976428578,7.520829430194681L438.6251928636284,6.2227022827346445L438.7698250763078,6.085770494984899L439.99021673852985,5.439234022870551L441.74075167896444,4.862077715214582L442.4194609562437,4.771875320184336L443.68496003565633,5.166760475030969L444.03441139268034,5.485818175834538L444.47735573940736,5.985571830627123L445.013006318557,6.752753051067884L445.8583770122641,8.858374484400883L446.0486411469883,10.573643444639856L445.83844582792335,10.838509741854068L445.65683602324316,10.946017444619429L445.5005335776241,11.184469043471836L445.6540823727737,11.675266358482986L445.8484114200928,11.919330356067803L446.94410205397253,12.758990076290502L447.1444629070793,13.039594416596628L447.89752074699936,14.535013209555473L448.0193369986591,15.124262509787513L447.890964436363,16.088377660102196L448.0443821052995,17.674678761974974L448.0279913287013,18.089342480557207L447.94407055253214,18.502432015120576L447.4540518954218,19.929018767520574L447.1372509653793,20.439649535805074L445.02861033787667,22.823436884948023L442.5440308583711,25.164510728322057L441.1724506728333,25.594559611184195L440.0403069518052,25.716313311935664L439.6258169932498,25.685406704659727L438.31403036073243,26.635050955705083L437.57067586055746,27.296204659925024L437.3814607355325,27.587907628096218L436.7649052831057,29.406035409284414L436.4410235375726,30.115586742264895L435.78788387178065,30.56030569713039L435.63302381450376,30.797327268633126L435.1959801473531,32.33248603914035L435.2296795840339,34.276506103279644L434.83826783892437,36.48884102543798L435.60063563995027,37.22579170234894L435.81896078420687,37.3432322897288L435.72769694012095,38.015416261460814L434.76339477143483,40.2062604964749L434.65246199543435,40.85211071569756L434.7161893348384,41.87196897236845L434.9704430613947,42.541127427644824L435.5970952322059,43.09613654214354L436.1411378889752,43.269182601616194L436.69409712821107,43.35539303213409L439.12688175367293,43.14945366592747L440.2465684844865,43.19762597897443L441.49226750576963,43.6384962159882L444.5185293702125,44.24178606650548L446.27522724264963,44.79766251632009L448.4270083941519,45.583271620696905L448.9209608376441,45.881604394790884L449.251136641391,46.39922929421664L449.21599481636986,46.87148090311257L448.9151912842826,47.90835199210869L448.0100270375533,49.41216857953441L446.42143296988615,50.841812303248844L445.75478730417854,51.250655594728414L443.4447368138681,52.15991489620774L442.69980879913965,52.60501897067115L440.8883001697668,53.907221053145804L439.6471905659291,55.26740061527198L439.22693105401413,56.275611026263505L438.34707416634956,57.56033879630468L438.20624461383704,57.6922467936065L437.7701188301762,57.77151557937668L437.4673484048981,57.96400136180364L436.7584800986788,58.58504576308951L436.4532182753592,58.97949112944116L436.3721822758689,59.09643666129341L436.23515538352876,59.95738093569889L436.2250586651462,60.57179696360072L436.2598071115299,61.366013316862336L436.5532675757004,62.96365079835414L437.2238470277898,64.79661381419555L437.503145860981,65.34622225722524L437.88682115953816,65.87604234506944L438.6562697760546,66.74108135425195L439.62240771171855,67.54381695312804L439.99008561231494,67.74706140646958L440.6790227341917,67.80806528941321L440.8380788302784,67.75453128401841L441.60870758270903,66.96908288208124L442.5344586448409,66.86123006415528L444.8842403776198,65.89767675638359L445.96970316690386,65.33579375149293L448.3499061810453,64.60546765272284L449.86546294820073,64.32279067587751L449.9829520348412,63.33150805695641L450.72211049620637,62.20704546939669L450.96010457237935,61.52886800732358L451.09739371714386,60.37888010014285L451.35781037569905,59.768192642604845L452.43750361162165,58.58333279004091L453.01603246234845,58.190744954772526L453.8885462820981,58.61556779302646L454.5217547635475,59.139259346805375L455.50074306806346,60.57506671792362L455.9360820944494,61.574018588351464L456.00662799691963,61.93054734843099L456.00203857947236,63.156843230905L455.7919743866187,63.919312286955574L455.05386493495644,65.14169760192635L454.59557882133595,65.68771259861933L454.2667142797163,65.91588699025397L453.3865951396274,66.71042147885146L452.3312913792797,68.03340385055526L451.652188723363,68.62334413042754L449.92892803518043,69.54640823073987L447.30089647891145,71.19134009766094L445.8527385851139,72.21971301544272L446.51164780426916,73.73241926056107L448.30650340461943,75.32988566005497L449.68555778428527,76.19433900447348L454.9165757901883,78.41728448360027L455.6780257077262,78.8455348811749L457.1187094073939,80.01343796427318L457.72910192782183,80.97617326553245L457.9457224313119,81.49591704804061L457.9906987222912,81.9010643728152L457.93208530518496,82.3674512118514L457.61410423922644,82.90237776750382L456.86865171964746,83.49682024655795L456.4969089064525,83.70045451285569L455.8435069882362,83.77429063289219L454.1519788435471,83.52557793719279L453.23409535417886,83.29240576894517L451.94905846906477,82.77941331694637L451.3983283754442,82.48404549157021L450.38852541093,81.69134068809399L449.7197817258184,80.97617326553245L448.45978994734105,79.07582678312247L447.1549530041011,76.61721420329559L446.58455397856596,75.79353668321346L444.10312152817096,73.35752482170028L443.5606523859533,74.03823855667724L443.55134242484746,75.21074305945785L443.4455235711448,75.87114734356783L443.11141398101427,77.01721530076429L442.36648596628766,78.67572910389481L441.0915457995561,80.97617326553245L441.01287007189603,81.76907407372437L441.1833341484926,83.61884571625706L441.6947263782822,84.70692386471364L442.1274428804136,85.34418748785538L443.89764675276274,87.4110533830617L445.6679817513268,88.70084436163779L447.18904581942115,89.52438367675768L449.4575293002854,90.56523700622347L452.51290118396173,91.32652275237433L452.9456176860913,91.18669785993188L454.23065457120356,90.270033441132L455.7648312605761,89.43115524200402L456.5295593334322,88.74373175542223L457.19974540688054,88.63728997493217L458.56870306816745,88.9127938252841L459.20807448161577,89.23055662205752L460.38257196936866,90.402409704001L460.5176319685197,90.62085887609828L460.7393663943076,91.0224795096392L460.79339039396655,91.27587523032525L460.8551508401797,92.68368386210477L460.8198778889455,93.27072095161748L460.6216150552427,93.69758508580526L460.17919521336626,94.26345515993125L459.74385618698034,94.67273755754923L458.9227438426369,95.25642969071941L457.1712910187125,95.93685543304218L457.21062888254164,97.03702203495868L457.0918285337739,97.73599609037137L456.8884517777751,98.3906800274317L456.3155613541967,99.38708884241078L455.80416912440523,101.48308955078846L455.80416912440523,102.01092186032747L455.93529533717265,102.41438970095078L456.3811244605804,103.10517919925132L457.23095344552166,103.6714459991781L458.1426740028892,104.026437687824L462.35038304435875,104.94235860925437L463.87170936487746,104.92730328313701L464.9317336688837,105.08080476900886L466.7317031915336,105.52996934710427L467.8865317473701,105.93644004320413L468.4906302095842,105.29126515062399L469.80110557997614,103.62286095519175L470.5487872451722,101.10505626958002L470.95698314551373,100.69099334692964L472.35452632118177,100.4888479539868L472.70305979471595,100.8170610422867L471.8468056253496,103.12737703959556L469.413234242611,107.3447956227219L469.34504861197274,108.4299478586936L469.17222426354783,109.01942986625636L468.829329217162,109.65403802740366L467.38903889613175,111.50261707548725L466.59257827978763,112.26943841591765L465.0505340176496,113.55632599002365L463.23535385432115,114.61990491063534L462.77418296401993,114.66441929399662L462.55690682946624,114.53351248238414L462.2425972974652,114.19259068403517L461.4865235546531,113.09950679357189L461.23633474069356,112.63460628411303L461.0960296930316,112.54354789443005L460.1133698545582,112.44659410561326L459.7253673909818,112.50476645912568L459.51595882919355,112.60901071456465L459.0863893561691,113.0352872177009L458.9195968135318,113.39081799875657L458.4829465250168,115.16771672035884L458.6261363493595,116.665869976473L458.88275034774415,117.21809927868617L459.0617376281698,117.44776197920692L460.15257659217605,118.61230043598425L460.4070925711567,119.421993296045L460.32671220273005,119.55223444837156L459.523826401959,120.1085366638572L458.97952149276534,120.80481373339717L458.6064674174431,122.7007578162038L458.5896832622111,123.50215539941019L458.56726067982527,124.26103843750843L458.23223320620673,124.7956110411269L457.8804215773562,125.11240819827071L457.5453941037358,125.29064221593944L457.1433611353914,125.42919823415286L456.7413281670506,125.40936031957335L456.4565220329205,125.29064221593944L456.2387213935144,125.2114445959287L456.0712732198117,125.11240819827071L455.76968293044774,124.30056247591892L455.59436718397774,123.83556676826447L455.13542543929543,123.51006064173453L453.57489238115886,121.96008330117093L452.90614869604906,121.55702094698336L451.89647685774617,121.1229408956051L451.2801836577419,120.9989155662497L450.29673706199173,121.18495315067776L449.7984574534785,121.68104136145394L449.6017681343292,122.22361783490032L449.43130405773263,123.23104940460689L449.169051632196,123.72706556166759L448.34282536555475,124.67254799394232L447.07090110171885,123.52556110400201L446.546396250651,123.37055571387646L445.4187108208571,123.46355915260301L444.31725063361773,123.86656695953661L443.22877194144166,124.79654098449555L442.1666496180296,126.29986919762086L441.5765816605799,126.54782545681155L441.4356209818543,126.52504465745278L441.01785286798076,126.52953883167265L440.1297350289133,125.84206849332713L439.54596112967374,125.52203310394452L439.3227843155473,125.44500655233969L438.87826645426685,125.48127262706839L435.67367294046016,127.25974562748979L435.1444475457338,127.71238666602494L434.8679023630102,128.04507863612707L434.3562478807944,129.63374113585724L433.96640965023835,131.1999162229631L433.6231212252151,133.10453134279487L433.5066811482775,134.53774156894724L433.6452815551729,135.46221119561505L433.88039085466335,136.1992344978953L434.6999296844551,137.74160887509152L435.04479162403186,137.98874477499703L436.0648224331435,138.05858001327488L437.4603987156188,138.3455047636071L438.48764146643407,138.81296439239304L439.1646461029486,138.992264113871L441.46420649623906,139.06689424261458L441.8014631154765,139.17450338151775L442.79776008007684,138.40480904458855L443.1275425051863,138.22999231618724L444.3765196817876,137.8478344847299L445.69119109098574,137.78775362581564L446.2926670289471,137.8650225184865L447.3366939349962,138.1770358918011L448.32354981227763,138.8848084227584L449.42238747526426,139.2982141701841L449.68044386198744,136.21441129130017L449.81157007475485,136.04405859258895L450.0344846364587,135.2851897829578L449.87713318113856,134.17004323767742L449.09037590453954,133.17872790070214L448.67077202368455,132.01709653261332L448.8359910517702,131.07164172666853L449.81157007475485,130.90169171488287L450.9130302619942,131.50588027054619L452.2111797683847,132.54378482534958L453.11595063647655,133.36460482999883L454.217541949929,133.62792628939678L455.58335258210536,134.23122370008969L455.8566196095144,135.90467758315663L455.73860601802335,136.41573455840808L455.5550293201504,136.86482996559153L454.84694777120967,138.22735998399276L454.0864157371634,139.1563879435662L453.77171282652307,139.40411841530204L452.85369821094355,139.7911885819558L452.3423059811521,139.86875616797624L452.3947564662576,141.78830215907146L451.84402637263884,142.88736831673214L451.3326341428492,143.32062457890697L447.65165909806274,145.32095402030245L445.90387780809397,146.27675281359188L445.70718848894467,146.49340806903274L445.6809632463901,146.8029098212237L446.0218913995832,150.74830919486521L445.8776525655412,151.04224763737784L445.6022875187318,151.16600936649138L443.4518176293568,151.04224763737784L442.7961865655234,150.74830919486521L441.40611758398154,149.51060669595336L440.12108069886926,147.40641876445716L439.53101274141954,146.6791099328666L438.7049176009914,146.09104566792303L438.12796226481623,145.87438424994343L437.36729910455506,145.9362878508491L436.88213211732,146.1219970281736L435.96424862795175,146.83385962404554L435.374180670502,147.63853073452356L435.2037165939055,148.04084912997678L435.15126610879815,148.41220980454818L435.15126610879815,148.87624221786064L435.2430544577346,149.2785254289347L435.5446447471004,149.8664572482894L435.89868552156804,150.3770098074683L436.5412039641269,150.90301439899304L437.36729910455506,151.32071000662563L439.98995448610367,151.8930876793802L443.8714215102118,152.72840816856115L444.84175548468374,153.1924538191097L445.3269224719206,153.6563295926153L445.5629496549027,154.08941096768103L445.7989768378793,154.8936698262096L445.9143679051176,155.68860391099406L446.4414952804382,155.91872436521135L444.57989643779,158.4966531713917L443.7927457825499,159.31612324285106L442.74373608041606,160.01186254465028L440.99962632440656,160.52204967322905L434.8365631981578,161.21772981903086L434.0760311641134,161.75879078872094L433.13192243219237,162.65536067941775L432.1615884577168,163.8455469735036L431.7026467130345,164.55636517527182L431.5977457428198,165.09729885640627L431.6370836066508,165.76184630266107L431.5452952577143,166.81269505293494L431.06012827047743,168.46607901963398L431.0994661343084,168.57423761790778L431.3354933172868,168.69784643599723L432.174701078995,168.55878644001132L432.3058272917606,168.85235594590358L432.1484758364404,170.30450870474306L432.64675544495367,170.8761208486776L432.7123185513392,171.20053913371066L432.3713903981443,171.47860605460846L431.58463312154345,171.7721152351096L431.37483118111777,171.97293381336385L431.1388039981375,172.40545649844444L430.98145254281735,172.49813821853877L430.4962855555823,172.63715966554537L430.03734381089635,172.55992569618957L429.8013166279161,172.74528651761466L429.49972633855396,173.33224650611737L429.0145593513171,173.90373689294847L426.635798725516,176.27502213923435L425.5936075864465,177.54776079953172L423.85684089835195,178.63093508564998L421.7236796690613,179.30843682686736L421.4483146222501,179.49370971762983L421.29096316693176,179.7407364867786L421.1204990903334,180.35813026873439L421.1467243328898,180.89846294174367L421.23851268182625,181.2226527010671L421.43520200097555,181.51596088392762L422.15220013238286,182.2942788852679L424.1872789545214,184.29375291238284L424.26293877928947,184.55890833108697L423.95872596567096,185.96702006688156L423.5989156378382,186.67086943635059L422.8777214676211,187.457855627752L422.03851370591474,187.96705883092636L421.09427384778246,187.99791904645554L420.1108272520305,187.6584530006876L419.6518855073464,187.3807020402237L419.3896330818152,187.13380775330643L419.0355923073439,186.57827996826927L418.65532629031986,185.6833717505997L418.4455243498942,184.98888794239792L418.3507200980639,184.2176625821876L418.4586369711724,182.1797413018894L417.9208883726151,180.1267072302535L417.7504242960167,180.08039129368535L413.5280291187173,180.92933847500262L412.62325825062544,181.19177780396876L412.02007767189934,181.5005237617952L411.41689709317325,182.1797413018894L411.06285631870196,182.79718367787518L409.25331458252185,189.50998777261702L408.70258448890127,192.44093861701822L408.4645904127319,195.33057294184528L409.8171572974188,195.88036237645065L413.6514188849287,195.34877107968805L416.88472903933143,194.54093647810714L418.887026308279,193.72133398506594L420.4829634438629,193.8576806072615L421.90319145434114,194.50284158303202L422.35321661655325,195.3826997492979L421.85559263910545,196.4347569270103L420.2638515423296,197.81532940359648L418.14249167218986,197.85464901460819L415.6496512412832,197.2670022900902L414.45876297693576,197.12544535785855L411.9874272449215,197.12297812219367L409.662428366355,197.26160526503463L408.5294978880502,197.4037776441728L407.64177342762014,198.21114188028605L406.44708250310214,199.8275835107488L404.3228378562817,203.08026440042886L404.21793688606886,203.38853697513332L403.9425718392595,205.16097528089267L403.9294592179813,206.65581765802835L404.20482426479066,210.58465891115065L404.50641455415644,213.43443154596844L404.4539640690491,214.18914119019428L404.16548640096335,216.19123939996462L403.81144562649024,217.09979167472557L401.78121847422335,218.21338260138054L401.1756776236689,218.45481346868473L400.06110481515134,218.4856079297324L399.1301087045067,218.2854427502907L395.5764572123171,217.09979167472557L394.19950085205346,216.32983584365957L393.47830668183633,215.77544202431272L393.11115328608867,215.3750331455176L392.46863484353344,214.52797748203648L392.1396391757007,213.92191691525477L391.7828447507618,213.41687252161864L391.5559964026761,213.3038165334683L391.1380971625895,213.24867446063308L390.92659058139543,213.358496312213L389.8733848404536,214.21948276673174L389.21434449508706,214.888829318862L388.804443953979,215.55876060897754L388.6474858772981,216.0269238791907L388.4820045967863,217.36510886963424L388.5722194311693,218.16303266694467L388.6595494888734,218.41585838067567L389.1259654276837,219.17538651937866L390.4669932056495,220.89322206644556L391.6032018392725,221.74944574158235L392.32439600948965,222.16491594023955L392.7702251328956,222.36502696951902L393.53075716694366,222.4727779058585L395.2486416804004,222.38042000998303L396.4025523527471,222.14952266850014L399.1825591896122,221.01052865572183L399.91686598110755,220.77960925812204L400.9658756832414,220.6872404578644L401.700313600948,220.8103987259883L402.2379310732904,220.94895051328876L403.431179609468,221.81086651051191L403.2344902903187,223.85807499399198L403.07713883499855,224.55067338181107L402.906674758402,224.95082610240206L401.9887912690356,226.05888310252521L400.4807086960045,227.22840603319037L399.0120951130157,228.52092580866247L398.1859999725875,229.09021308826595L397.3859989484972,229.52101008375575L393.4914193031127,230.95177881360632L393.2816173626852,230.90562720784692L392.9406892094921,230.6133302616745L392.19326979672223,230.3517963737595L390.8164445626717,230.6056381564622L389.95088043219766,230.5517933046467L389.3610747271741,230.6062535250294L389.001002146917,230.6874819446948L388.75881203193603,230.8705518883162L388.01991582299706,231.9446177922091L387.87685712486746,232.22673522384957L387.82650465916595,232.57083715604585L387.83410997950705,232.9320045728373L388.1334711232539,233.5912501421244L388.63437325602354,233.8119660622433L388.87590773993907,234.06713097529337L388.8444374488736,235.10266336521636L388.58441416895766,235.86945987225226L388.45223894648916,238.1623773300671L388.60290296495805,241.68446379649595L388.84797785661794,243.43188841083156L389.0792844959378,244.17119054291743L389.47397439636734,245.01158188584031L389.98969379117807,246.15927929830013L390.8258856499924,247.8403956788925L392.137934534936,249.03949268787164L393.42428268217554,250.3185322272675L393.85752368915746,251.33169682322932L394.4949282094167,251.6191184269519L394.4839136075425,252.30899907233834L394.5045004229487,253.73612236917143L394.621727257163,254.5387883915846L394.4424777243112,255.39746565799214L393.60261433153937,256.37587465266006L390.2860390320311,256.3766424880123L389.773073287688,256.17301112125097L388.7367828281913,255.55718535892083L387.96864547380574,254.80710172911768L387.2980660217145,253.93395158969633L386.59182023975336,252.4870323859077L385.6579393524298,248.83898430861973L385.651907546644,248.24143743188324L385.97998533098325,247.4310450011717L385.9622832922614,247.28091610637512L385.50203028545,246.2671593832747L385.37365772315206,246.12147497482147L384.9295332405127,245.91862081309682L384.47688555404056,245.97363760287953L383.9150097323345,246.27730191382398L383.64554536509786,246.60339583331643L382.2852420338568,247.39063174730927L381.641018950535,247.99912350016712L380.8315768391258,249.38027371113094L380.57181581163604,250.40026398987357L380.5602767049113,251.13644349776678L381.1376254197239,252.39317730637958L381.4912728155541,253.34890375338L381.7903717068766,254.4294343009351L382.6293172161568,253.57085302141877L382.8956345542865,253.36503166991224L383.53080992892865,253.08025609217293L383.9567078679938,253.19622525028717L384.7729685424674,253.6843607045821L384.7205180573619,253.88126907314654L384.28675254552945,254.63124724300997L384.1442183522522,256.5770461188695L384.16165813854786,257.04863632995875L384.4206324087627,258.05841103699004L384.4110601952307,259.0937560288048L384.85033300800205,259.6300548978579L386.1033750971983,260.4601810994791L386.47774043464597,261.24773593091595L386.680854938224,261.46634003004056L388.40490238367966,262.7663827451097L389.5142301436863,263.7656276183725L389.69636445321885,264.02517439299936L389.7859236565382,264.3609973664634L389.7440943946658,266.98745331664486L389.67040146309046,267.62964544159604L389.24725717449473,268.7753926948644L388.78451276963824,269.69091256328466L388.3958546749982,270.1399824984428L385.8840009432388,271.35410455483816L383.7635589565889,272.0166586657497L382.41466360585764,272.2340262607404L381.06393248814675,272.28679531865146L379.3257234117118,272.0913647633806L376.8444220875281,271.57945919407393L374.91870252683657,271.28629804754746L372.7795094917619,271.3063945794347L372.3099465238429,271.42344481751024L371.3375145299651,272.1412197475238L370.98347375549383,272.55692693115L370.63494028195964,273.1359825431373L370.5061743410224,273.74001640906044L370.5195492147268,273.9915619338617L370.8982417171974,275.13941300638453L371.9030618856268,276.4087837502493L374.42553684062113,277.68816379933287L377.5073962192764,280.3710754862723L378.3711245827708,281.3835163882404L379.0238708699235,282.6521871879304L379.16968321852073,283.3778366208189L379.20167801443495,284.59391548466556L379.15565271375453,284.9677311968044L378.83360673519746,285.8057545563679L378.1045449922167,287.280913681072L377.7544380041272,287.87853573534267L377.1689594641248,288.65188345806655L374.8776600222409,291.35988481887944L374.5438126845347,291.84106720667023L374.4256679668342,292.1244686703758L374.3484346275127,292.601796155177L374.2475985698966,294.07810331467863L374.3108014044483,294.41951054816036L374.8954931871758,295.43633277736626L375.28428240802896,295.88491271921976L375.78347990003385,296.339910876457L376.47058125493095,296.7687079583038L378.4151829902603,298.31732586280395L381.9614914145368,301.57205600181624L382.42017090679474,302.08581366595536L382.79610975879586,302.9926527374855L382.9765394275637,304.0315294417933L382.91648362211527,304.737286562573L382.80279719564714,305.23975989464634L382.38778273224125,306.35086387636693L381.43082363147005,307.75615132214534L380.54991773410256,308.6363189827289L378.9698468702645,309.6706622855463L376.86828705825246,310.59691869659764L374.4256679668342,311.49068352667746L372.8752316270802,312.4021387338007L374.4256679668342,312.440229529333L385.753792613963,312.4064220410701L390.81670681509604,312.51304539178363L391.1741568711004,312.46485846466385L400.5681698799199,312.4647054900388L400.84720646068854,312.4682239060112L424.0737236542682,312.39326616473136L426.91273728687884,312.43778193100206L427.0138355969211,312.43778193100206L433.2894050137238,312.44374795121075L442.1952351324144,312.48413325461206L442.2184444720733,312.4876516659033L445.7981900806026,312.4796969956906L447.4430372935494,312.4780142764321L470.19868025708456,312.369401986678L479.20744445279524,312.41070534708706L484.75172298099824,312.39739649927833L485.2614105700213,312.395866745881L485.76978689691896,312.3906655831224L486.6415139593919,312.40856369423636L488.0259445137817,312.3765918393019L491.20221476563165,312.4318159083532L491.2125737364404,312.4330397080721L502.1327647356502,312.3877590501843L502.4569087336113,312.39143046011304L510.3303821791869,312.366342473847L510.50123963442275,312.3733793523943L510.884783806765,312.35899964043347L511.00673118463783,312.35899964043347L513.1471043556285,312.3536454887426L523.6956836678582,312.35976451908846L523.8101568516031,312.3525746581672L524.9367932716978,312.35609310118616L525.1146004162074,312.3525746581672L525.3550858904218,312.3437020589554L529.5006411070408,312.355328222342L529.599510271466,312.3542573918903L530.173056326108,312.35410441610384L531.5501438125848,312.34706752825514L532.1706330513971,312.34186634810067L537.6229921044487,312.33238183833055L539.0870162699885,312.2615537720267L541.9902817468592,312.2578823294107L542.1506491050714,312.2572704222184L565.9278963922716,312.16288343037104L565.9800846249527,312.1559994281388L570.2919078793602,312.17145018416886L570.6838441293203,312.15263391475673L580.872350861293,312.12693360512185L583.6433099894803,312.1307580588282L584.6122015756137,312.11362449840635L586.8220716393698,312.1041398402358L590.7430076535184,312.05396283632126L591.0876073406707,312.09985644419885L597.0723388175556,312.0929724122225L597.6023509695606,312.0915956054396L600.9595753950271,312.0201544528172L601.590030226007,312.04371324416843L606.2903804488433,311.9953717870849L609.0859913050299,311.99781945964696L610.5185451795041,311.99766648012246L611.5922066096391,311.99399497108516L619.9563543433906,312.0293332072197L620.0230975856884,312.2848062204839L620.1085918764111,312.3602234462587L620.4091331560721,312.3808751540764L620.666140533096,312.28465324396984L620.9302287256087,311.9682943819398L621.3752710917379,311.78640022747913L622.5969740160854,311.5737540590553L622.975666518556,311.7120509124434L623.1682909251103,311.94091096629745L623.1710445755762,312.1665548969022L622.9253140528526,312.3511978758834L622.1988748341264,312.35639905271455L622.3710435514895,312.9855747928832L622.6584722098742,313.1680658645346L623.113742420599,313.170054438664L623.227166594641,313.333269560173L622.9344928877472,315.0523477578108L622.8596198202576,315.4168170986077L622.6410324235749,315.6644308167106L622.1500958829765,315.69853663899084L622.0227723303797,315.81217115786967L621.9878927577847,315.9713803484474L622.127279921955,316.2214316237414L623.1374762651103,316.72687387487167L623.3074158368563,316.946173783439L623.3092516038341,317.2997382476997L623.1821903036634,317.43385194010443L623.0135619940447,317.4760585029462L622.7426552384695,317.4931857690126L622.4095946580419,317.37252986872227L622.1797304070606,317.42544119742524L621.2031023743748,318.4316374895225L621.1430465689282,318.66268584734917L620.1459628470511,319.73958903949006L619.4723674920679,320.9537048536058L619.4433885990456,321.1905228885498L619.5376683460254,321.55835529864635L620.2932175839869,322.13622791704984L620.4474220102002,322.4228626028689L620.4534538159878,322.5867386814998L620.2932175839869,323.04549020868944L620.5377679707963,324.0308171928946L620.9373095410974,324.17648587012536L621.0308025307986,324.4575779873667L620.9860884922473,324.70885967720915L620.7331460278201,325.18695549348286L620.2932175839869,325.62636800967266L619.7670080921544,325.6462367853592L619.3302266774281,325.3110622099284L619.0698100188729,325.2895117349826L618.650599516659,325.50318099791366L618.4405353238071,325.7828720962625L618.4078848968293,326.03199135748036L618.5165885272108,326.42079232640117L618.7826436129144,326.59516864908164L619.0173595337656,326.6524785554029L619.428046832154,327.4390534336053L619.3817592790456,327.76332942358204L619.1595003484072,328.0121093352527L618.8996081947025,328.1669069855925L618.3226528585292,328.07323397330856L617.644992590951,327.695632437787L617.41984888363,327.73582278541926L617.2739054088215,327.8563931658864L617.2143741082236,328.08194421344433L617.41657072831,329.0938248910634L617.676725134439,330.31403975641297L616.9645786729034,330.4296997239153L616.7479581694133,330.4921893392984L616.5548092580084,330.8260229853131L616.4746911420079,331.3940574306762L616.6306002089877,331.6650806232201L617.911441055292,332.73736051449396L617.9701855986132,332.8618614975858L617.9484186472928,333.12445580609165L617.4544662038006,334.52686494722184L617.3410420297569,334.682204699011L617.0588584198831,334.7442179451873L616.5322555494131,334.3553325111134L616.1535630469407,334.2311497166547L615.9252723105164,334.3214229226469L615.8349263499185,334.4362875175302L615.789950058941,334.6693743394417L615.8719039419211,334.91574582786416L616.2448268910266,335.46391898032925L616.3391066380082,335.8162724490712L616.2903276868565,335.9273070920026L616.0216500768984,335.9645730009106L615.3855568187682,336.1405156842775L615.0418750151075,337.0765502277018L614.9521846855732,337.9702249279053L615.0010947629362,338.1452272986162L615.1330077329785,338.2238707900633L615.4724934978312,338.19760543789926L615.8464654566415,338.69495937688316L616.2158479980062,339.8038284176082L616.0537759990275,340.1318006021911L615.5961455164706,340.43915335200836L614.8289260455731,339.76351848092327L614.1878499913564,339.57097592885475L614.0754748270174,339.5969334385909L613.9229750415689,339.6920596844657L613.7400539747578,339.963387496261L613.7893574307582,340.55977189624537L613.6911438973966,341.2845310457906L613.2134511042877,342.3803807056129L613.1391025416488,342.4927395991581L612.6743912436032,342.790272784664L612.4164659830913,342.8995754051357L612.2816682363682,343.04078219402527L612.2412813628343,343.18198762401516L612.3220551098984,343.276174706697L612.6186626031777,343.6526116942223L612.8192857087106,343.80602302537136L612.9286449701594,343.8879943926804L613.1038295904145,344.0134692301035L613.1307104640309,344.15466530082085L613.0768175905832,344.31158215110554L612.8596725822408,344.5446646869368L612.3490671097279,344.7038669371632L612.1603764895572,344.64113260368504L612.0929776161938,344.4214840044415L611.9716858693864,344.09192861980046L611.9177929959387,343.82525657166025L611.5936489979813,343.4784382787111L611.4440339892135,343.4784382787111L611.2335764177224,343.60437456614636L610.9826008464879,344.0174380030785L610.9291013516795,344.2219810033657L610.9757822834235,344.6148787397733L610.5476551987413,345.9855118902278L609.6111517871614,347.8197927247347L610.0898935899695,349.22232350178274L610.366832151336,350.9181219333532L610.3302479379727,351.67837543585847L610.6660621688679,351.8818963910371L611.183223952019,351.9302589022609L611.5482793283609,352.02103353311213L611.6386252889588,352.12935210690284L611.5830277747464,352.3459868598502L611.4543929600204,352.4437765721468L610.9226761672526,352.548583232654L610.3142505400137,352.55224458720295L609.3120528958407,352.494578147197L609.0997595573699,352.60319834328766L608.9118556944741,352.8471331899391L608.9020212285177,353.8325948671918L608.9825327231556,353.9857473770853L609.4107909340528,354.052560422484L610.0669465027368,354.3181316493001L609.804825203415,355.646373422338L609.5555542729471,355.78761026653865L608.9922360629007,355.6654389502464L607.7407674882561,357.01841823458744L607.6391446733633,357.18694092656096L607.7243767116597,357.49988473282065L608.0287206514913,357.750905996696L608.2745823004279,357.720100458504L608.5916454828966,357.5020198041566L608.7551598702194,357.51833783912025L609.0458666839222,358.2016964955683L609.0943833826477,359.48094521667554L608.9214279080061,359.5713682940104L607.8503890021293,361.9929143291729L607.5571907903832,362.7022869459606L607.7399807309794,362.8710494813067L608.0010530205964,362.8969658692122L608.19407080579,362.75015655171774L608.3244102612807,362.40881542081297L608.4231482994928,362.2690142015708L608.6498655213654,362.1392738239483L608.7775824526016,362.3248128844143L608.6582575989851,362.84680999488137L608.0615022046823,363.6686435385909L607.7616165560848,363.68846088390274L607.5944306348065,363.6300758593625L607.33716100536,363.43952260265087L607.1180491038267,363.50370121479955L606.8934299013581,363.7852606105507L606.9424711049323,364.0497416599919L608.3718779503015,364.45887763019346L609.0197725675844,364.6443874766055L609.3850901963524,364.61115745398274L610.4701596069954,365.8447336906611L610.8790111384023,366.66761932488043L611.3755861061491,368.1924045034175L610.6963523240174,369.9015614398286L610.9372311768711,370.3568562139344L611.0101373511679,370.5947070986613L610.8106943815492,371.17248135925183L610.6941231784003,372.12198104836443L610.9553265942304,372.28956932196525L611.5297905323605,372.0625629306696L611.7297580068298,372.07079006892764L611.9212022774718,372.19952894974995L611.8368881226597,372.438568934097L611.4908460471725,373.2400635299973L611.1638172725325,373.86556775251665L611.1451973503172,374.0856914033702L611.3171038152559,374.4896745046299L611.596533774662,374.6484008879452L612.1586718487906,374.67475356758223L612.8131227767099,375.30476663173977L612.7286774956883,375.53507417519904L612.4694409730491,375.7042991877488L612.8491824852226,377.6347893308712L612.6733422339021,378.1288324111265L612.6939290493065,378.25020853108435L612.9358569118594,378.3195005990792L613.2543624826703,378.2273649209528L613.7534288484603,378.04415788999177L614.4683289604654,377.99816541071687L615.0160431511922,378.3223941069373L615.0977347817443,378.46615504696456L615.0475134422559,378.6560574493151L614.7391045898275,378.998088818631L614.1795890399535,379.2065626483518L613.7101571982475,378.90550052072194L613.5505765973103,378.9042822497804L613.3749985984159,379.02976362945446L613.2367915701598,379.379704856854L613.2441346380729,379.63751091182166L613.3807681517756,379.7875023236338L614.463477290592,379.99291956359684L614.8395472688062,380.75883117370086L614.8007339098276,381.1754216981244L614.5346788241259,381.25231303695L614.3718200678686,381.27530423087774L614.3512332524624,381.37884029022644L614.3581829417399,381.5141973681739L614.5571014065063,381.6098144445041L614.9205832682965,381.7451694075544L615.2489233050637,381.8337813217813L615.8452853207273,381.8930078892736L616.3367463661762,381.8120090278135L616.4260433170693,381.8518995000113L616.978084672819,382.6888133295779L617.4648251746094,383.99790916261463L617.5827076398873,384.367826862177L617.680790047034,385.2694434709474L617.9250781814189,386.31605964297796L618.9167857285756,386.2032734142349L619.1407492999824,386.61407903604504L619.1783825230468,387.6977353278726L619.2363403090876,387.77961512109505L619.9184588679,388.22264086747055L620.7702547460322,388.2034651736212L621.2448005100341,388.7992697703021L621.2998735193978,389.0104969064214L622.3201665809338,389.40509399370603L623.4296254671535,389.7342465729171L623.6315598348137,389.8343756794093L624.0817161232426,390.3356197203302L624.2822081025624,391.1636851843459L624.7760294198433,391.9805974553792L625.2209406597594,392.02426424824716L625.5263336092939,391.9028489445509L625.6067139777188,391.97207709054237L626.1329234695513,392.80933166456725L626.6232043790878,393.9100295868575L627.4014384518578,394.1908580102545L628.1569876898193,394.7403292178469L629.0344843056555,395.9365604212371L629.1106686352723,396.8465989312399L628.850120850504,397.8046419637194L629.0199292960369,398.4969374425973L629.2264530811444,398.63168188289274L629.4140946916123,399.4147266437112L629.6764782433584,401.68226655268336L629.4640537786781,402.07941532378754L629.3288626533158,402.0654271096637L629.1774118775684,401.83750858943677L628.9416469470143,401.8899651299953L628.9982934709315,402.91974830722666L629.5926885934023,403.8140037487565L630.4307162191926,405.4428940789221L630.775315906345,406.4836789301917L631.8151467735843,408.1802132108105L632.0682203642264,409.3625961276839L632.4724824781861,410.4221015255507L633.0622881832096,410.5708699751058L633.8481275763206,411.03220985784355L633.9901372647455,411.2124263584774L634.044948021683,411.69684234776287L635.2119713153079,412.32832205677914L636.0737327856095,413.0398441820935L635.9856159706305,414.0051990278862L636.054063853695,415.81541233439475L636.482977695654,416.65998167275757L636.5334612875686,416.84256032669145L635.8224949619489,417.59031958204287L635.4861562262013,417.75374926617405L634.7434573570918,417.9018368822599L634.6740915905375,417.98172764089304L634.5031030090886,418.4306875045713L634.2755990299393,420.87831348818236L635.0352131804975,421.2807201603837L635.8529162433097,422.09612978737914L635.9697496988847,422.5668301135174L636.0697989992259,423.98901396765086L635.9528344174378,424.76495564791276L635.8786169810119,424.8226448661226L635.7461795061172,425.0605346261109L635.8033505348849,425.54829544182485L636.4415418124227,426.33447824687573L636.8435747807634,426.6153019880885L637.8532466190663,426.99478512922724L638.1154990446012,427.4197947846469L638.1286116658757,427.89032706335456L637.8925844828973,428.8313470985513L637.7352330275753,430.01512671907767L637.7483456488517,430.3034690704335L637.8925844828973,430.6676830253682L638.3253009850268,431.22901037902284L638.5745719154966,431.441456425694L638.967950553797,431.5932017508012L639.8071583155033,431.7449455334181L640.4103388942294,432.397426223868L641.4332544800236,434.14229264079677L641.6299437991729,434.916037719453L641.8397457396022,435.3863337713992L642.4953768034338,436.28122075753436L643.3214719438638,436.9638413481316L643.8853146587608,437.1762058390641L644.9213428658295,436.8576579709661L645.9179020828578,436.3418994061376L646.4161816913711,435.8261230381977L646.6522088743513,435.46203488152423L646.9275739211607,435.2344752776753L647.648768091376,434.8855438191449L648.0160526133368,434.82485925521723L648.7110215410012,434.97657020279166L649.0912875580252,435.37101145593624L649.4191030899419,435.9019736207365L649.8712262715635,437.10703602197736L648.9915005101102,437.66129569255736L648.1680278939348,438.47338398988177L645.8706966462614,438.61701922195516L644.8463386721287,438.94023136572105L644.1323564436134,439.6583713006594L643.6310609322063,440.1997971891351L641.6682326532991,441.67292235341483L640.6245991258911,441.7877150808217L640.230433730314,441.4058780030946L637.671505688173,440.79731448985785L634.5969893774309,443.4979768990097L632.4993633518025,446.5651623043077L630.9001480608986,447.7345024588558L630.1853790751065,447.77406500247434L629.7225035440424,448.0954120594042L629.1956384211444,450.63411458824066L628.9948841893984,452.9857060980885L627.0563142598548,453.8231763781305L625.1620649902288,454.03575637807626L623.2592925167701,455.0095251703651L622.7943189663001,455.7791623183284L622.7227240541306,456.97444566249214L624.7217431677564,460.24333957717863L624.7116464493756,460.52928281219647L623.6269704173683,461.0999413794225L622.4895816478293,461.1605195718039L620.7610759111394,459.5634452592476L618.5698257695949,458.12313078392435L616.0367295913675,457.6287055565663L611.3126455240199,457.93832914344966L608.5102161047707,460.84369292226256L606.1991166047574,463.82798943769467L606.8870047169312,467.88378644796194L607.9504383024705,471.21447790532966L608.6981199676666,472.70196367997505L609.9408030860559,473.69888579669896L611.3822735430003,474.46802026521345L613.1612628716066,474.7036099581501L616.9644475466921,473.9730731991949L620.5005281263711,472.6996937455351L623.1963519346427,470.7400072643277L624.3589169370334,471.5089902730324L625.1662610290368,472.6213051327095L622.0977765240841,474.14753973578536L621.2564707429701,474.2033746530378L620.791497192502,475.36436112503907L621.2889900437367,478.3978158734899L625.3959941538033,482.7663639542552L627.9075856331365,484.36400202561254L630.5889855580044,484.5434894544687L632.0296692576721,485.24297105442656L634.9868276079887,485.0681792970263L638.2462318787293,483.8441266386162L640.2170588566114,482.4454549509064L641.1264191421487,480.0847037322328L640.9753617450406,477.02375213915L642.1878858344953,474.83721506311485L642.1878858344953,472.7375259415585L643.2502704103317,470.63784655613654L643.3252746040343,466.96217242215334L642.4159143184952,465.2992488492937L643.7044916113555,464.51132460436475L646.3586172839659,463.63568698893687L652.8762456895347,459.3456423493253L653.8627081881805,458.29520633095126L653.7875728682648,456.80644517517794L653.1794094934521,455.5803936722177L653.938761391586,453.56559144161565L655.4543181587414,452.51444750281644L658.467598528121,454.8899854635829L660.3463749046405,455.26738831493185L662.3881411636339,456.58829926440103L663.7757187471307,456.96596236467485L669.819325893548,456.2112326372144L670.3094756768696,457.3433129913301L669.819325893548,458.94668223031294L668.6757741920101,459.8902951569198L667.0420727071469,459.98465318729905L664.1028786479819,461.39934671427545L663.2055819740199,462.15381562616585L661.8979913803123,463.28544793726905L661.8159063711173,465.83172537381597L661.8979913803123,467.7169675971654L665.4915052411834,469.6968759733163L667.0420727071469,469.6025789093828L668.92084908367,469.9796122619355L669.0029340928613,476.6704963022976L670.3905116763599,477.89543409934686L675.1274461125558,477.2360042316823L677.2832921766549,476.12281991078544L681.465038227996,468.53923642451446L682.8086885302182,465.4358141468201L685.7958747832563,464.1426333327954L686.6912045640274,464.9186157385875L685.8699610934691,468.1945610955818L690.0526250283037,468.62551754983633L689.3053367417433,470.2634027107497L688.3339537575685,475.7784695292139L686.542114060112,475.0891399237016L684.1531255897153,475.1750808939423L681.913227623234,475.8645578627502L676.9091890916297,479.9136335899657L676.3869133861808,481.54953523376025L677.8066168918049,482.41112544960106L680.7187989511422,482.58307463409074L682.9576479079205,481.63574184259505L686.9903034553481,481.2051575999267L687.6625875482023,481.63574184259505L687.6625875482023,483.09996899650105L685.2735990778056,484.99454237085774L683.2568779254543,485.68326796030215L679.9715106645854,486.1138755847569L676.9852422950371,487.0609272168167L671.0107386627478,487.83572970399564L668.3226513010286,488.868536278439L668.3976554947312,490.15989862473L669.7411746707385,490.93454211896005L673.3257719491412,491.7091458906434L673.6998750341645,494.9792742443251L675.1174805203882,496.1838403049701L676.9091890916297,496.4420570418665L680.1945563525005,494.290670226339L682.2864128247675,493.6023370766943L682.2864128247675,494.80716395725176L681.3900340342952,495.409465839467L681.3150298405926,499.2813949276833L683.331882119157,500.6573620537165L683.1077874215389,501.34567631407526L678.6278603623632,501.25943105921397L677.2082879829522,500.6573620537165L676.0138593108586,498.93696816427973L674.3711101173194,497.90454728430177L672.2052984610509,497.56054241257925L670.4885940835102,498.50687689500364L668.0244702931977,496.4420570418665L666.9039968051056,497.0444448927192L666.3068480321654,499.1951379083407L664.2909136370909,501.94741587201224L662.4982871823559,503.58168870176905L663.0223986547844,510.211816802007L659.887170907532,509.3546775435634L656.7569259563679,507.04764832567116L654.7940976774626,505.9419433893986L652.2890625087657,505.0765593697856L649.1167260433012,503.2494416215818L647.8221169446551,503.2494416215818L645.1930363786832,504.49955888867817L643.5223573018229,502.81660335494325L640.2250575555918,502.6725225549926L635.5071364202431,501.8552836048634L633.2532079489974,502.38420581028413L633.4611741224453,506.8551409766869L634.1284754192166,508.20113133690256L637.5529675918297,509.7393244011919L640.0989141389091,509.11434378453714L640.8923588523612,509.5470021920878L640.0159112462279,511.3252103258824L640.3910633409541,512.2383856025267L643.3963450113533,513.7758674635784L645.5681884734076,514.3525150514979L648.6575220461928,514.3525150514979L654.669003270481,520.3574937268113L655.0031128606133,521.2698242694719L654.7980314638462,521.8596119922308L652.4630669931084,520.1911021420451L650.0660798237332,518.996438519549L648.4684380473827,517.6174575282571L642.1568089220691,516.9736387393646L638.8014202635841,516.2383513188765L637.2037784872318,516.3297926535543L636.8836994018693,515.502424684481L635.6841568074797,514.1231263296795L634.1665020209166,513.5712209686276L633.448192627382,513.9394619393097L634.5656502125785,517.7088905589385L634.5656502125785,519.5476941462102L633.7663048195536,521.110381561502L632.4087551387784,521.2942609416009L630.1718730751945,520.9264999566853L628.8933925007168,521.202396951855L628.4141261930545,522.672908318852L628.8933925007168,524.5111114599231L630.651008256642,526.7164207462897L630.9701694585165,527.9107795652749L628.8933925007168,530.4826829212707L628.8933925007168,532.3202444867457L629.338434866846,534.8201179521079L627.3534462579864,536.2492295173784L626.8987005521103,536.4874770998204L626.7482987860676,536.8850001981418L626.7934062032582,537.6110031267967L627.6619862366242,538.7272141807521L631.3419122717096,541.5202467675699L634.1970544284904,541.1702982640054L635.3390326154768,541.6296134444824L637.6694076687672,544.7921708428967L640.4263362921884,546.5986437231509L640.9585775898086,547.5746074248168L641.3438264029173,549.405594729667L642.9750364897354,550.0033284573738L643.2977380993525,549.6958824413487L643.2953778275223,548.887941447816L646.7003321944358,545.1799894083942L649.356555886452,546.839741618971L648.8686352487457,549.8715881448738L648.8957783747901,551.2097158067431L650.6758167130974,555.040527793878L651.9630827438286,557.1568550170414L652.4237291292775,557.1761176390537L654.7485968816327,556.0766045026994L655.1359437141455,555.4557796262161L655.4029166833352,554.1386444826203L656.0818882130425,553.3831709366104L656.9995094499864,554.8537435750281L658.6830388956969,556.1064034634592L663.2623596241483,556.4856578968788L668.8193573949902,556.3115331192757L669.7230792533774,557.0053115126589L672.0284092000275,557.8489398003207L674.0246746631874,557.8725655388876L674.511808543617,558.3516936712331L673.0660109216496,560.3420818641962L672.6622733125423,562.6673848208684L676.2713911927331,563.5040826090667L678.815764225259,561.4772456905071L681.5350596256139,561.6258864963775L682.9099179664736,562.4190142814141L683.859665125543,563.2979962384152L684.8362931582287,564.5735812530852L685.4010537566155,566.6897954602664L687.0630785034336,568.602860552528L689.2500014799552,568.0448013503178L689.3480838871055,567.4020532086174L689.8345621364715,566.4476563883518L691.8055202405685,564.3025283166198L692.3711987224433,563.4384962982144L692.3436622177614,562.9489969420383L693.818176480323,563.3417710204085L695.1041312489269,564.1620361745299L695.3920844121621,564.8235714456018L695.2780046070548,566.0629331575915L697.0096573728533,569.6617788734884L697.982876124006,570.6162765550807L700.2537198767004,571.4591563290073L701.0323473281096,573.2249041320097L700.6859118739794,573.8414022370498L701.6419530912608,575.2855134659771L703.8377926502526,576.5967757774574L703.9047981449767,579.7519744947313L703.4056006529736,580.4670829272491L702.6567388518633,581.0391156907899L702.6567388518633,581.3967192761856L705.0280252835382,584.1851412134374L706.7511548455059,585.1488021538707L709.6961184580305,584.5217909619655L709.8133452922466,583.8502868389828L714.8312832024003,581.9993676915201L715.7823416235988,582.4191492274626L716.655379948199,583.4108639251872L718.5590703051457,588.1379456603413L717.9537917070156,590.4118958005356L716.9095025485403,590.6625173837438L716.2420701255578,590.3973298912174L715.4651473149152,589.6469416980608L712.8885172340488,590.7754384194318L709.39610168322,591.1181006486145L708.7722031628764,591.403997049259L708.3352906219388,592.7616322923695L708.584954931046,593.476137061898L708.9593202684937,593.7618396247649L710.3946277934392,594.2619189738812L711.3306067001686,594.4762980722362L712.017052424002,594.4048387037387L713.5689311520964,593.8005734587905L714.450886059165,593.445209404545L715.4808824604497,594.5635200882257L715.5080255864887,595.103655086562L715.2341029280215,595.6401684672328L711.8350492406826,599.178227905295L711.3732227193177,602.5376735251821L710.4736968997386,604.6281234966086L709.5196225756481,604.7527943847604L709.0217363457723,604.046762821079L708.7097870855996,602.6186981686669L708.5225388537692,600.6906465765151L708.0233413617661,599.9050417456879L707.3368956379327,599.1193969592805L706.2760845766497,598.61947495397L705.6520549300931,598.5480347628882L705.4023906209859,598.7623543446971L705.2776895926436,599.333708612483L705.1528574380918,600.5477850213601L705.1528574380918,603.2613285843686L704.8780168961312,604.1169773484521L702.7101072204587,604.8021523768057L699.8370007725298,608.0247833388075L698.1473083948167,610.8457408110266L697.8517499112404,611.8986125495344L698.038998143069,612.398105496226L698.787859944181,613.1830761207602L699.9110870827426,614.5387999004038L700.3478684974689,615.5375994589172L700.5351167292974,616.6078417429349L700.5351167292974,617.3212455819876L700.2230363429153,618.0346165954256L699.848671005464,618.6766074592069L699.1622252816305,618.8904985828121L698.787859944181,618.8904985828121L698.6630277896274,618.4625634937865L698.787859944181,617.7492121691494L698.787859944181,617.0358280236619L698.4133634805203,616.2510525547455L697.8517499112404,615.4662373508904L696.5414056670616,614.1105947228766L695.4888555571833,613.3541599492933L694.2499750989646,612.4636336967774L694.7628097170964,611.3400190969396L693.7474994516433,610.2679130882284L692.7013745261884,610.7079219344919L692.086130335887,610.4226824517459L690.9609363041363,609.0414011441108L690.3109436674531,606.7077905033966L690.3856856087295,605.9518939737027L690.1667048334093,605.0720432919525L689.0306273259994,603.363954922977L687.6610140336488,602.4719532245877L685.2461936993368,602.6736146299672L684.9109039732939,602.9999584283519L684.9651902253809,604.0931224486371L685.388596766401,605.4202391204763L684.6393415866551,606.4097265667197L681.5105390238277,607.1647007181318L668.3193731457086,623.0403319811207L664.6916353433062,626.4000000000001L663.5921420492577,625.696152577736L664.5725727421122,621.5312938281008L665.1273677483296,620.3567799620214L666.445579565272,618.6069085931626L670.8317513823185,613.8966376320009L672.6414242447117,611.0421943249744L674.087090740466,607.330301088597L675.0127106763866,606.3312719436121L676.6351353069476,605.9743958922472L677.0719167216739,605.2604690652233L677.2591649535061,603.975347718274L677.2591649535061,601.904616362101L677.5088292626115,598.8337935443578L677.4464131853347,597.4052469453991L676.6975513842262,596.0480202461249L675.5743242456665,595.4050896342897L674.5759292616603,595.4050896342897L673.9518996151037,595.9765681551758L672.8909574276076,597.4052469453991L670.9565835368721,598.3337122066778L668.1485156904764,598.4765942413187L666.1515945962492,597.6908767825789L664.9681805260316,595.981071447984L663.8736700280679,594.3545467228682L662.3988935130801,593.4807912185574L661.8787158270334,592.8032213107085L659.9721406934041,588.3654759197884L658.8763189333167,586.5008302154356L656.7152278207068,584.0134334870299L655.333944295422,582.8862441431079L648.2851236019342,579.7070443196121L639.0996012714149,577.330967688863L630.5593510339186,571.7684211617166L627.2186485112616,570.6180808423292L623.4285764574506,569.513366294023L616.0872131832821,568.4448135092462L611.1424436998495,568.5788002132917L607.150175025954,568.3491724527917L606.5202446998246,564.8556096052662L606.705132659823,564.0068013899145L607.5672875087657,562.7212405304658L609.1570617123489,561.2383341677732L611.0159069045294,558.4633476338436L611.528348144022,557.4251751397519L611.6281351919388,556.0507184897037L611.528348144022,555.2489829128663L611.2289870002769,554.4470548196259L610.8298388086132,553.6452352227066L610.330772442825,552.7286679786957L609.1056602369445,552.2847400758483L608.0355392145557,551.8121963543058L607.8359651187238,549.864361214884L608.9245749371148,546.9394324540785L609.3329019636694,546.5409663983496L609.3329019636694,546.0824013293459L609.4326890115844,545.5093638896683L609.3329019636694,544.9363049508984L609.2331149157544,544.4776917035892L608.4346874062176,544.0192153017365L607.2371117050188,543.3314748864618L605.540600764245,543.5607251335737L603.7515147172544,544.2092949022599L600.3481338648926,546.0402337353698L598.1425909661575,548.4130340998013L596.3594055987451,550.6663790357679L593.3655319088539,550.7809495760162L592.1679562076552,549.864361214884L591.0702986805863,548.4892250486068L588.575360230272,545.5093638896683L585.8808476841295,545.6239730973966L585.0825513008058,547.2285623150424L584.5834849350176,548.374637331463L583.2861221859021,551.0100880812302L583.3860403600302,553.1868832007408L583.1553893517739,556.0874404951433L583.6572093680334,556.8606891528889ZM467.21844369332393,608.0438324127044L465.2036894341636,607.4527002231744L463.21489816512803,606.3594736512682L462.20745547244223,605.4140883789437L462.3364836658038,605.2072120133344L464.37733204130564,606.7437917980028L467.32150889655713,607.7187950009293ZM661.0826485893285,445.17863158960154L660.091203294598,444.76155573188225L660.6774685918772,442.62505361146304L662.6603591813382,441.99940451100247L663.876817057173,442.7292248300646L663.0654080525728,444.3449230969445L662.3902391830379,445.02217265177933ZM690.3668034340899,465.4807804976008L688.5539835425916,464.4345588307151L686.8063333788359,458.5969396749333L685.0596010985719,458.16433215089637L684.1232288132032,458.2362827962279L683.0626800043483,460.9753009798824L682.4794306099611,461.0049845710764L674.9534416282168,459.23507359873383L674.0519489154449,458.0375467005624L673.7809110336548,455.5381246951929L677.3213187783567,453.5502877267063L678.64897168262,450.59046769569886L686.3071358868347,445.83264862953456L692.8597749912115,440.34842047429447L693.6711839958116,439.9877789664979L694.2953447685813,440.70950824079137L693.7332066944491,442.00835120460397L692.4226001978477,442.8743354933449L690.3007158228556,446.19330088010247L689.3653925471899,449.8722458817574L689.4274152458311,451.0981580639318L690.1135987172365,453.0454078982157L695.2307991704602,454.48742205454437L695.6049022554816,454.99225333245704L695.9100329525918,457.93348185667764L692.2145028981868,464.2837515534693ZM348.6644810804737,543.9446588694232L346.44556330803425,543.1992251493352L345.1130587338994,542.405401397752L344.5968148342381,540.7724348793458L343.32226804614584,539.6560721507144L341.1683888752377,539.5742626008146L340.10993808578496,539.17650826115L337.5718591114746,537.2969787048519L336.37244764329625,537.2273620503661L332.21771359178274,535.0202589064997L329.2924189111727,534.4573557732051L327.1406377596686,532.8273061245804L321.75331730815014,529.9487083622466L320.6189444415031,528.1643859239584L321.3031610197213,528.0565811213851L322.3946556147912,527.877156050622L322.3946556147912,526.8905819227998L322.86277619436805,526.083241367689L324.11135999233375,525.634616546527L324.267400185523,524.2889643186986L326.57036986034655,523.1947706568499L329.8546881115126,523.7341101360648L333.1491030810648,523.3914447635511L333.7893923780048,523.0974884290413L334.50468586864736,522.1021574380538L335.3890010475461,519.9399273504155L338.51334531913926,519.3609272388353L338.8064124046723,519.7217865950183L340.7001371694496,520.4532849732664L342.82503744733367,520.1799389061339L343.2312664544843,519.8545420612159L346.0794589219913,520.4759127385923L346.3824915996938,521.2520246934341L346.12850012556555,521.9401592299296L346.47257530786555,522.5241893555285L348.6495326922177,524.0312213083366L350.9914468522329,525.0095357028208L353.4644872250119,525.6668878156056L354.3137917051008,526.5690984371881L354.7980408088479,527.640733903912L354.8129891971057,528.5040791403153L358.5325153484446,528.8131587022558L362.10203311238,530.1350437911619L362.5552053037027,530.0935858630355L363.0334226016621,530.26017067158L363.39952698770685,530.8220229170156L363.0783988926414,531.838339409846L360.15428434794376,534.0641401522848L358.4365309607001,534.7209507524781L356.0244642768557,536.8761095370751L355.175159796765,539.2828784299827L355.09609069046746,540.1649990555993L355.4193168049369,540.9488458615447L355.3603100091914,541.6809823707131L353.80357961122536,542.5955010911985L352.9212313255175,542.7163080654973L351.04245494899806,541.997628063265L349.57882416209577,542.7191700645167ZM594.8353256277569,574.3708402647476L594.0239166231568,573.8026181549817L594.0469948366044,573.5700619348545L594.9933327141389,573.6474808476305L597.4724048927073,572.1489421694073L599.7702606452312,570.6243958460318L600.086405944212,571.11545460873L596.8410321782358,573.1823601900201ZM529.4672039227844,606.7554922007089L525.4565775791034,606.2399160588452L518.1325229650192,603.4556278744676L515.3603837009196,601.341010112526L519.3040045498765,602.8881770755484L525.8847046637857,605.1314516657421L531.2699270959038,605.5440035216925L531.9683053050976,606.0339508120096Z" class="state" fill="coral" stroke="#111" stroke-width="0.5"></path></g></svg>