<svg width="800" height="422.40000000000003" xmlns="http://www.w3.org/2000/svg"><g transform="translate(0, 0)" id="single_state_map"><path d="M633.2657751370425,198.23587824586093L633.0971272418956,198.47518210624457L633.0832502530448,198.6121912464887L633.4849041191901,199.52428308859544L634.8178738597071,200.9611233106516L635.1731530947382,201.24441451954908L636.7864946508616,202.4380411162797L637.7268730485666,202.57643967193508L638.694439016268,202.5001231616534L639.0393105096573,202.3905894243153L639.3606760831535,202.03449165770144L639.4229809310673,201.90952602621564L639.4636206841369,201.631804016939L639.5787430508481,201.3937177670241L640.2773361580712,200.58961020780407L640.4910842669888,200.45511997099902L640.9442812345933,200.2848271314042L641.2235202347838,200.27533330705546L641.4688455734413,200.35672256849966L641.6080402677544,200.4695580426319L641.8707826434438,200.79252635011926L642.1512252600132,201.24293135546668L642.2214598158425,201.4006390165914L642.4087283643985,202.29756321239074L642.5099737422588,202.50289113549616L643.2996168885893,203.3281828369777L644.0831003510939,203.90885147680137L644.6446935938711,204.57751223136938L644.8459099322445,205.20696738885954L645.0922972853532,205.38462544811L645.3027885499523,205.40893196852767L645.514837435745,205.31881948057253L645.624508128265,205.09521195791285L645.8531952404901,204.0309080610923L646.3086578389266,203.63260869245914L646.5910120815115,203.45173421327854L646.8957394285771,203.42741950994605L647.0572364264062,203.4645834056746L647.4144980884157,203.70594526590776L647.6488492777244,203.77236249642192L648.7760714182004,203.77285666939997L649.7764890329854,203.7638627146148L650.5528215981722,204.02408877295102L650.7201242750107,204.30713192255462L650.8322730012515,204.73236254287622L650.691591486704,205.69526698867367L650.7088669218065,207.46503416951055L650.8523096739336,208.52782116031676L651.1649667289148,208.79198165253501L651.2896472257053,208.8369124308283L652.5574800797676,209.11952401026883L652.7228003296259,209.07874268350088L653.0571224794494,208.87799169597383L653.417570184818,208.85310717575294L654.1291906693314,209.0918756843348L655.7321244838167,210.2842879011514L655.9196762362262,210.54254422848635L656.2273772237604,211.0937686427751L656.3458980367232,212.18698128873166L656.3298970189626,212.39196048311214L656.215057856105,212.76883888183056L653.966631657051,217.19373212046776L653.9228766615852,217.40198634946046L653.5406930604076,218.1204654815715L653.2482142800363,218.42569617650315L652.8731815761803,218.70991310321506L651.8906766051714,218.9383215897965L651.1689315828717,219.01787307032828L650.669784789934,219.2782068201882L650.4504434048959,219.56711340162337L650.6865646182923,222.6909441743078L650.7454002189916,223.10843185234035L650.7936156751603,223.1728550862872L651.9446977403513,223.75233669635008L652.8569681555291,224.46570068834626L653.2831191550613,225.083064905446L653.4682636747111,225.63153759174247L653.4853975078877,225.88330572958603L653.3239713110233,226.93092661706578L652.9288311335204,229.04725421870216L652.8864921573258,229.20411263897677L651.8540017060604,230.68677753487964L651.2318736394573,231.03689875971259L650.9820878400969,231.164389223969L650.8692311042196,231.41916507392943L650.8409815197683,231.6347813616626L650.8833204959628,231.8895367039081L650.9538382556457,232.0463188341423L651.0243560153303,232.16395184881912L651.2359800953418,232.32072661751954L651.4193545909038,232.63426353918567L651.5040325432947,235.02438057015115L651.4193545909038,235.70982993631878L651.2359800953418,235.9840658201656L650.4517886232024,237.23821165775098L650.5157218932763,237.68227265681844L650.5443962835088,238.24675828349655L650.096721791062,240.87028754768698L650.0547368196858,240.98126162338758L649.5833440044535,241.31603703989595L649.454698653708,241.3589505446448L649.0315920956091,241.25976782587895L648.9133544864999,241.28304154543366L648.0843460044434,241.51557725761086L647.8589157365386,241.8014224812523L646.9959227919808,244.24374503674608L646.9443796905289,244.44014292285965L646.9508225782083,244.6990522121423L646.9611595188853,246.83201749880345L646.9599559025046,254.10408971161405L646.9465037194332,254.20501501169701L646.9547166312041,255.97729396325803L646.9476365348492,256.821803824841L646.9645579651369,259.0928171584451L646.9552830389111,259.82489271609165L646.9592478928698,260.91510305992415L646.9561326504754,264.117221480833L646.9419724577674,264.78030359421336L646.9351755652679,265.1566591691926L646.9397068269336,265.49093817779385L646.9501853695383,266.17009782599143L646.9522385974797,267.0263432910647L646.9477073358139,267.1783756748073L646.9431052731834,267.6011125953396L646.9407688413885,267.8358338325793L646.9512473839895,269.29791380529923L646.9532298109698,269.4101108433856L646.9598851015435,323.15159046668896L646.9576902716708,323.1759960417344L646.9881346859947,344.19625941099457L646.9845946378155,344.2229915706416L646.9826122108389,344.2379499470903L646.9589646890163,361.78938123806074L646.9670359988595,385.4443592399002L646.9969140054709,387.4916300034529L646.9922411418775,405.74380254517973L646.9642747612816,408.9091554264278L646.9991088353399,410.39938964388875L646.9903295158638,421.59423898552905L645.9506881672805,421.6287275219752L645.3839972551268,421.7151385458742L644.9243573998428,421.6287275219752L643.9890058705514,421.6149130765125L634.8425833959827,421.58204409696054L633.4440519632299,421.62901333775653L620.2706830855459,421.68589040996267L617.4776558749636,421.65073529765823L604.686116593637,421.7642979613106L604.5273808333859,421.79907133811184L587.0045671636799,421.7768735616978L564.0847376454494,421.90453348311075L542.5744845102836,422.0521011920064L535.4374641818667,422.1998558352575L528.7394806283446,422.4000000000001L523.1136360656692,422.31445608688136L523.0174175562224,422.31645657079025L521.7158126425493,422.3428438444098L507.17258672234857,422.2095726488624L492.4985206215297,422.2682542510197L490.82790108590234,422.16965740337537L489.47156702741813,422.20480950688443L481.74406666310097,422.1532720713976L475.7669785203143,422.0490527023967L455.86256203913945,421.97112516635934L451.30602442876807,421.85223134781745L447.1415117535016,421.8772868896949L445.4407310074075,421.8429903043334L445.2194779963538,421.8850988625645L437.3871922060007,422.0143760252031L436.5028881714188,422.138410918054L436.3690743503339,422.0813475613072L423.589146427028,422.1338382481572L416.1648865895404,422.2795904041627L413.3625136517694,422.27349365216514L400.9678137710707,422.2103347512302L390.6235097944136,422.2771135994035L387.43420959091236,422.22062312384287L387.31229033169984,422.220718386468L378.93384590861933,422.17242004219406L374.175879556984,422.21071580238004L363.15117832073156,422.2543460005627L358.9221659676841,422.127169765045L356.7155123371176,421.99837133806795L348.11156684516936,421.8989126923957L347.8649670891682,421.8497543684716L343.6960647541655,421.8457530920041L341.96823804000087,421.9369243789083L341.87272754018704,421.9499759556579L341.5340865315884,421.97836541973766L340.1367587152163,421.9345427012913L339.01470504507597,421.9015801869423L334.84622751585266,421.9019612574957L334.51820665178275,421.8964357321206L328.8088169521343,421.810408368533L324.51721654731955,421.7451487015287L317.82772910942185,421.5848070035522L316.8498970020082,421.56260844260214L315.7251528952529,421.54526873759096L315.50184665625784,421.54060034700024L305.69499279381125,421.32575521681565L294.81946918773247,421.2402914229201L287.6258788894502,421.0688838167339L283.8390185536937,420.91042989516836L283.7499509415611,420.9147176384913L283.48288970709837,420.8906109532909L283.41987684955166,420.8906109532909L276.3540114894895,420.9166233012161L274.34326412502924,420.8785099328802L268.06562589202804,420.7113799832432L266.664404022662,420.78379717485586L259.3612138328226,420.8121921007023L249.90192190038215,421.15539810035307L244.36507414887092,421.22218856946256L238.19561978815545,421.2303824993037L232.80993209379812,421.3088912191247L231.54875453030763,421.370058716052L228.17607983124253,421.3243260662898L220.83706435385648,421.327756026988L219.39265389673164,421.1468229511561L218.0969254630345,421.0991830125017L213.7070533208298,420.73720252844987L213.0734554981318,420.85259270552524L210.42174701076874,421.09937357300305L207.7029192099726,421.2519153319022L199.43336666881441,421.703229712778L197.01098250234645,421.68798637227974L193.25895624064833,421.4619040787975L188.72344651644926,421.5682295451211L188.718773652854,421.5730884600466L188.49921986492518,421.56803899935767L186.85323906461053,421.51849689784194L184.91931074558852,421.5948106203309L179.8220661766809,421.6337769321167L177.52499971567704,422.08153809093665L172.48694475228695,421.9033902718602L168.15824464258003,421.98874945225407L166.40967324609846,422.0854439470463L165.88008203883874,422.04952902899913L164.97836096722676,421.98827312087633L153.15601607576355,421.98541513182363L147.10444531933717,421.9165371882059L147.02189139585425,421.9144413049007L146.1447382585884,421.9191094076332L146.09482357929664,421.9082489181774L144.30547082781595,421.90481928588815L138.25828973112948,421.764964849865L138.0736408182256,421.052400228386L134.0910158182869,417.27676330715485L132.89377152487032,417.23262055273153L132.0246896974495,416.68724508123114L130.9881635912625,415.1492505587735L129.09629104458327,412.758232234537L128.01877118050834,410.6566185904644L127.9555459200692,410.36416894783315L128.3511109033534,409.2396714453221L128.33348146343087,408.74618203923364L128.05650809407234,408.07791657671896L127.6411188410002,407.90575392860774L127.32499253880633,407.0867922507209L127.26806856412077,406.50353909132764L127.51183628158105,406.49035865782434L127.72926604060376,406.138487763028L127.6803425748003,404.37309325453634L127.20300247862906,403.64987770686866L126.81897805240442,403.4686063882755L126.69337714308858,403.19042985808665L126.60374312325075,402.8796520556966L126.65061336111285,401.690769803246L126.49421403265842,400.73588169565755L126.0785415757291,399.93746056766577L124.14220602394744,397.70091760144487L124.10312389207502,397.35963012884076L124.31694280195916,396.7404233797529L124.55525884522467,395.06423809849L124.1723672344142,392.2575292526071L123.46428679807832,391.01465210902234L123.13102666270788,390.8601003535118L122.95274983652052,391.1635504534911L122.57884994808046,390.67336896623874L122.69390151382868,390.183243362902L122.84619438639857,389.929258724635L122.84612358543382,389.929258724635L122.99239837610185,389.62909866829614L123.11049438328337,388.0012312518056L123.21584621702641,385.57039325696314L123.159417849085,383.8273434578391L122.93250076095137,381.4390323048724L122.45006299540546,380.04024042250285L122.43427438053732,379.5368719709745L123.35943057107943,377.51577870991287L123.28537276321913,375.81435927134225L123.40594680412323,374.58689954264537L124.98594110642443,369.9579307354102L125.58074000109991,367.3950986202394L125.62938026304982,366.61012335756413L124.85474692098796,364.4214561096378L124.96073596340284,362.44356366442935L124.83640947143249,361.5667177687196L123.9909043648695,358.6077986870223L123.73212684313876,358.25542607259285L121.32730131563221,356.88771574462453L121.27462539876069,356.6961689803916L121.55761685001744,356.0265256983339L121.4917011529651,355.5286508477061L119.69009983479373,351.408251443931L118.42878066937556,350.5293049058805L117.94775892310281,350.5979441200657L117.90180909776791,350.8361507841105L117.13043260002814,351.20823932529083L116.89317857121569,351.1772007003042L116.80106651765345,351.00966645737344L116.69012140778977,349.3874839295545L116.1093411038928,345.8997369544609L115.2856426940998,343.54693033184276L114.71173008366713,342.6991638984355L113.16869388433588,341.4927978848341L113.26809843714,341.1200069452243L114.12677252292269,340.9990210925066L117.82966291592311,333.5658027229224L119.18925381873305,330.27850711772135L120.48625666977023,326.4142696693875L120.88989296289765,325.5541874587466L122.35688892739199,318.67709158212074L122.63740234492616,316.1497352247511L122.48057821069233,314.345678506867L123.21251857173957,313.2909973776764L124.79753974245068,307.6582338920307L125.25236513221353,305.11316080537154L125.23077083833414,303.86892591140395L126.16159110595981,299.3725595503656L125.706270109451,297.39287735956077L125.34539759830295,296.5429746303457L124.89113861624719,296.26464069287704L124.72050829412183,295.89970277806333L125.7947005129081,293.9441625777613L126.82874858537252,292.68024916172044L128.2238815718756,292.3186919879063L129.0554388886194,291.47458308890964L130.93697449462525,287.8658506405882L132.9276143854422,283.19660830796465L135.14276413163316,276.76998170906745L136.7056954017189,271.403108707354L138.8655495953899,260.57841037839535L138.7338598032111,259.97632835670765L139.20206657508243,258.45836924473815L139.54332721933133,256.83238146610984L141.31781176846926,246.75362855369713L142.6010792325833,236.7431112129443L143.13654691981537,232.0895954693674L143.78487134292664,224.446003833561L144.57366487769468,217.6863517923216L144.33166718432585,215.54755186300918L144.95599008079807,211.0300014394088L145.1387981686512,208.43815199418987L145.05050936711996,207.6095356167757L145.37739741577207,204.79224611412565L145.52671664787158,201.78702941731171L145.4701466780043,201.2806036059037L145.10729173987602,201.07058511126024L145.0305434954007,200.88073135251807L145.0838566209477,199.70933489396612L145.51786652743067,198.00586420923491L145.5873930736252,197.39056898466515L145.4834572591517,196.93353231477658L146.1184711011174,195.21341025859147L146.71928807769473,191.40518010037522L147.2644554969338,186.92432410587026L147.50602838452141,186.51622503544513L148.16327372903652,186.12623905497503L148.4561773151927,185.63847181285837L148.00503357553316,185.05359269261362L147.62554041097246,185.41232026521038L147.42644810150523,184.35580494179885L147.43012975161037,180.71993980793195L147.26247306995356,179.8510335592223L147.3210962677622,178.44200885770806L147.83185441872047,175.45419031536267L148.47869202159745,167.81891512531865L148.34494900147547,167.3277122677573L147.41136749627185,167.7372663604151L147.2591454246667,167.51896710084293L148.62376319588475,166.38616479240864L148.63749858281153,165.38546557215523L149.1137766645279,162.7620722316774L148.98902536677633,161.7173387759617L148.25616459320008,160.30816707546455L148.7509217263978,158.34980970448987L149.05741909755125,154.9142306363883L148.5442537138315,152.4203871759446L147.89656649939388,151.54960561191092L147.99618345509043,148.88578434379315L148.51444650818303,145.58382444220615L148.76869276824618,145.1702972434755L149.40618464393629,144.88075061111294L149.78404938633685,143.70504156843072L150.9535397020445,138.6293797502649L151.4604746009718,135.89336567163173L151.42210047873414,135.05658463950658L151.55265745549877,133.72790553033155L152.1609085332475,130.41772444313892L152.92959459437043,124.07873202659857L152.909628722653,123.88131785754467L152.54840220668666,123.97160812575157L151.96634748544784,123.71686766606808L152.1178615474164,122.21835973133739L152.37897550094203,120.9990984299393L152.81128618430012,120.21549435851784L152.89582253476328,120.26603328645797L153.98148450964436,119.28194813996242L154.98006129937676,114.12148301404068L155.49251867345993,108.52330247094824L155.15748851399985,106.9588978699494L155.8677637802084,100.57966980086758L155.77699694495277,96.87481012918124L155.1589045332712,94.87442611957795L154.75024137173386,94.6766053728702L152.69099534725137,94.88218168117692L152.70954519969928,94.58736219947332L154.67632516580125,93.78310337957828L155.12357485246685,93.07112282324124L155.666618242798,89.90144334564957L156.0327300252502,85.41001947620498L155.78372303648757,83.56001890859079L155.1550812812402,81.70265294317824L154.90083502117886,79.45899522169111L155.30794056151717,79.07782879958768L155.62328805311336,79.08691891617082L156.24435410526166,77.37145760950943L156.95321335219705,71.86468613203579L156.30503053101347,71.2148911851591L156.69195779674556,69.75098733258073L157.55863239140672,62.04207114029123L157.5272675645574,57.29172493965325L157.26721562548664,55.442481008169125L157.06146802544572,54.811799085674465L155.4658975111688,52.40019798675985L154.47362200719363,51.91349209823284L154.52417389515904,51.25683966771521L155.40245984784087,49.826961644648236L155.96284947423737,44.2678559886117L155.87845472570189,40.926208936094554L155.53195481015064,37.077914692956256L154.69147657199755,34.7796704103107L153.7329023266666,33.919140171980416L153.68596128783975,33.14645488491851L155.3647937352398,30.833774162980262L156.25355823052269,30.290806584696384L157.35854886844936,30.16947216475637L157.66724106947186,30.001779829639418L158.34551430015927,26.714370173406678L158.24363171362893,23.409130833086692L157.95787902479242,20.379546214390302L156.9549833762867,15.840486674655494L156.12951494240406,13.230905105832335L155.072173352939,10.458686837979258L153.46909793652594,6.859704797722316L152.50776245361521,4.862048547136965L151.51931020167285,4.274403519716998L152.43618267948113,3.561307573760132L153.09866729529858,3.4494271221619783L153.37804789741676,3.65302126809911L154.05936556953748,4.798804437401486L153.93985354308643,5.464162313242468L154.1466631575786,6.089232220221675L154.503995620551,6.279430397555188L155.94904328634766,6.458061446393003L156.76969725470917,6.848758708883452L158.40590752205753,8.125317668110256L159.44193802149675,9.36958133931148L160.02285992732322,10.408080619260545L160.94426366679727,10.869653808380008L163.52035672510283,11.629761328462337L164.3665698413006,11.303998939087705L164.46059352088014,10.353793441955077L162.91529169071146,9.073036544128172L162.68193171489474,8.528580481746758L162.85426126014318,8.339072039729672L164.65317214169954,8.064564942274956L165.85445209003774,8.26073047200407L167.82965737080303,7.648074030407315L170.23405809253018,6.521082271281102L171.87869367453823,7.197590867021063L173.5755803676384,7.395627876699109L174.00838665774245,7.302134000944079L176.22353640393158,5.999195335041804L176.3332070964534,5.690501107308592L176.83447791829713,5.402971507623988L177.63884766504452,5.428962332558967L178.9781186913151,5.798858089360692L179.25948172041353,5.561268093407307L179.70220014541155,4.5632189801181084L179.77498353593,3.802359894111305L179.94540145516476,3.518623345994456L180.60760286712866,3.2537077434840285L181.1720281484486,3.2463374244298393L181.54706085230464,3.705530778352113L182.53721232737553,4.3360160013317L185.22842775239224,2.3306023977356745L185.26630626788392,1.2182109031468826L185.94365908604595,1.0645025187977808L186.77210116039714,0.7783745724505025L187.4944833913687,0.4968407538553947L188.55246218950742,0L190.08183380287664,0.19183838620938332L190.42167842785602,0.3249845067098249L190.85363510639763,0.6629566314932163L192.3511462861752,2.1681193345984866L193.76454592127084,4.264987599215601L193.53670842060637,9.126518020159438L197.7432768682138,12.750926620756672L200.51145294059643,12.775452807607508L202.7275939002775,12.92873905287388L204.20506840737653,12.907177040147872L206.2535526854008,11.720730197559533L207.67219159179876,10.729396815268956L208.9566626722917,10.076010737731394L212.25881961167215,8.395730926642045L215.83497627994257,8.774635337631935L216.6055031661199,9.550977238323412L220.42571075570413,12.012331722522958L221.11722376657417,12.753072666372645L221.64660257094147,12.95898704518595L222.4730622183124,13.493000830862002L223.37301326583656,13.806375676511834L223.74139067912074,14.033196270353528L226.68331231602315,16.99594125210524L230.82955834269706,19.148433107281107L232.22016006753256,21.54202845894224L232.6722950206822,24.50011284079119L234.22524335491107,26.214334203227736L235.53647719962282,29.643761407709007L237.21021197764458,31.664423628471923L237.76281349805322,34.57333020717715L237.386364774924,36.57747334683518L238.33644290463235,39.46594985812317L239.26145749324678,41.15753369813092L239.2268358220772,42.902383328909764L239.2140208476776,43.544760631265035L238.48710735503846,45.49502631830046L238.51245409998592,47.021276212190514L240.358447622295,50.0084825758463L240.93059020864166,52.182626546691154L241.02567590267063,54.69372860094518L240.14753155191647,58.220175585535344L240.00592962484188,60.16620452514735L240.76357073565487,62.52679372452485L242.58322629952818,63.84349029496934L244.33909019525345,64.5219761357148L245.91802248309978,65.80773740643235L247.0508378996965,66.48598845141169L249.25281866667137,67.3260975216017L252.1769692617254,67.53863553131441L253.6779496887175,67.91298670355536L256.03257733307873,68.63874677396916L257.7658557214345,69.36077182054169L259.9896431851794,70.00329286429724L260.90609085720644,70.35937462236916L261.2357401434365,70.5066564593235L262.7061345541806,71.61843017872252L263.78351281632604,71.99544522139149L265.7636741645383,71.58606720645457L267.1020955792501,70.88738658807415L267.9163066599285,70.74577900021677L269.8633331572055,71.40321294948717L271.37139368054886,73.54693049689058L273.96277974698023,74.02207912779522L275.9593669187325,73.99175167867634L276.24795164610987,73.94322742346549L277.2131103810516,73.59707571682202L280.5615003496223,71.93921817050705L281.8362716981119,70.56825878720338L284.87681907722254,69.87916479936212L285.66993147076755,70.03728345047239L285.6740379266521,70.03505788260281L285.90718549958,70.07491564788143L285.90718549958,70.07046454075771L286.88714163589975,70.19266639673697L287.6433667274432,69.97951956556653L291.70033273909576,67.34866741169208L293.24400614710066,66.77832002577134L294.58079913964866,66.69946891285781L296.0429806386219,66.00281880911552L296.2724465614465,65.79761364257593L297.42296221892684,64.99322288207304L297.9761301470444,63.90212682654419L298.25197070098693,63.76115507487066L299.43356798146124,63.84035084354173L301.33683948327234,62.80423697698416L301.8614038221185,62.03335892387349L301.79081526147274,61.151228387275296L304.2467590846554,58.86487166708093L308.20191331074057,57.49794779886588L313.5969467322848,58.78763364417364L315.56139026659184,58.70958365433307L318.3223446406937,57.66817232263793L320.9557864794642,57.71125991118379L327.8985997648979,55.492177950242876L328.65716128823806,55.68122519154349L330.30250487988087,56.06974615058789L332.8728630601381,58.044797455623666L335.65229648572495,58.79260042533815L337.1995099419055,58.90440253150291L339.26442004347155,57.867994587933026L341.72857677842694,57.681656238503365L343.53909901800216,58.19098006525246L345.3002729859927,59.49915672513998L347.8590198082311,60.37364019083634L350.3656571213087,61.09833874654851L351.45684157134565,63.267118659398875L351.8203337181458,65.32440877025556L351.7266640433845,66.62264116520646L352.62689829476403,67.65987984105459L353.75893490076123,67.69459288531425L355.3390708049883,67.51363742594367L355.76748743535063,67.10110218656337L356.3006186907878,67.32376968029757L356.9911404881659,66.68560153070348L357.355623848458,66.47809286074744L357.14237134628274,65.97022134545205L359.6296799963129,63.463198941823975L361.08556020953074,62.9916225146103L363.26538027491915,63.1487177277736L365.11562185504044,62.923961856124606L366.8127917519905,63.417521754256086L367.2021970514488,63.31613936537906L368.96521184449193,62.566602954971586L369.60950061267977,62.596991492463076L371.5990784890437,64.12633761225925L371.76900080153246,64.2579838999336L373.0364088498154,63.96430721869319L374.8441698518127,62.111059265199856L375.86143809591704,61.06723292288416L380.59108406213636,59.577499891468506L385.1719772039669,57.52988429628931L387.63592153602804,56.576679799433805L389.0874120895078,55.126438824371235L391.48763555438563,53.53378854540642L394.5888593592481,53.462768230830534L396.83332070434517,54.29456316341839L399.48842763795983,57.184960599817714L400.62839395187257,58.17851109930234L402.2922873959651,58.7460746924412L407.8432245392178,58.25950820148137L413.1464291110533,57.06308659674187L416.00685883892584,56.140328148059325L416.4670651019187,56.028775737253L421.5223955004094,55.55201654693656L424.37574513192885,51.89968998680615L426.4361239718273,50.76282851313499L431.47729417761366,49.54461802301057L436.3627022636156,46.828079640657506L438.86933957669135,45.56198108609033L442.9958321345366,45.17893627879721L445.2131059096355,44.51001890847601L445.7801508266057,44.383603638097156L450.4161979190303,43.207928216900655L452.5209689630683,43.406330426259956L459.8170082555898,42.25881477707799L463.1081202446585,37.29850997298854L464.7254974557054,35.87975276093766L466.7762473645653,35.28179787067029L470.10049420456926,36.99671555249506L472.7061820656327,37.23054149691325L475.366386668622,36.1063992828108L481.44535739793537,35.67375808946554L484.4109973576233,34.49525081779484L489.03847753346054,33.80877757936878L491.26198179335006,34.541874624780576L493.40123290662996,35.03608366708204L495.2444651913611,35.06326136467442L498.3155277857568,34.52823363812922L500.6448086851706,33.52176365038349L502.8933764861522,31.914664006174462L505.32935443761744,30.8342834888972L506.639030661132,29.801683546510503L508.15622450877345,27.70401501742481L511.40506832261053,27.63073282246569L530.052059691363,27.593938482303656L531.4081105459936,27.59190000768558L532.7805872241643,27.587924980062326L532.8943643725688,27.590371151238287L536.9880052833341,27.605863544049953L537.285086126336,27.61605588453358L537.7324066139663,27.610450099546597L540.0173661102053,27.603621226673567L542.8559183403431,27.626044360333253L544.7159304534343,27.624821282615358L551.2576562804279,27.63073282246569L552.0060224650169,27.625840514065203L555.7448797474972,27.643065497720272L557.9719948565271,27.609023171572062L559.8948074242744,27.64449241708371L560.1665415223306,27.642453960739658L561.2955336868963,27.646632795449023L561.836665451212,27.646327027162442L567.7069857409824,27.617788580585056L568.7696374027146,27.6606981187997L569.1110396488912,27.66049427378539L578.2646130207795,27.609023171572062L598.0222591045422,27.70289387836192L606.1423508116732,27.80267438224837L613.1042095562989,27.860768448764702L614.8551173845772,27.906326008576343L615.1909263546349,27.907854779370155L615.2059361589054,27.903981892557113L617.6984840802361,27.828561987563262L621.1822454910907,27.832129167957646L623.7884289589001,28.06134125750532L624.939652626017,27.82560632210061L633.5021087533314,27.856793610654222L633.6576584702216,27.860462692085548L633.7934547182867,27.860360773191132L643.8874772888394,27.943016393226117L645.2144997484193,28.01038339464185L649.8464403849594,27.997643856980176L653.0467147378095,28.068984897221526L654.7949321294727,28.156733139073367L655.1192005424746,28.819234160324413L656.4271775428624,30.29824345419547L656.8584970127322,31.905497887759793L657.6470073436467,33.29134779698461L658.0754239740127,35.4504530057402L658.2956857715762,36.146700091681396L658.7735214744898,37.13316607225988L658.9534267228391,37.44909589881763L659.9236831271537,38.658318122591936L660.8828237801936,39.255203690900544L661.648961006631,39.811243310925875L662.0057978628593,40.15570208812733L663.2866580942136,42.095547543648536L663.7043837790843,42.97201161071962L663.8714032520675,43.539577182463745L663.8906611141501,43.95251038107426L663.7913273623071,44.30444022520487L663.7812028245207,44.6367362027554L663.8333831346481,44.7935284113305L664.2336209815239,45.45926259709995L665.5983803546715,46.35288145293134L665.85418423593,46.39483621285399L666.1727177708872,46.30401849526925L666.4778699237304,46.15407464313694L666.8856126727424,45.86382650340329L667.2207136331654,45.55232908196376L667.5193520973662,45.37767576173019L668.987834882093,45.317323098824545L669.2501524519994,45.36873466712268L669.4888933010479,45.48557740257593L670.2231700938919,45.91889047336099L670.2859705485498,45.99173257683833L671.0070783621777,47.395156832384146L671.493339379751,48.68785598068507L672.5408396352868,49.864829746732994L672.9454671419026,50.066044205800154L673.8861995444222,50.08644951080578L674.360636801086,49.93833172042787L674.6315920885427,49.69792393045418L674.8993613326438,49.562182420379486L676.810420940441,49.964321140172615L677.6625813375776,50.21578291742162L678.7658019514147,51.33346995844067L680.0386616738906,52.58589834022223L680.4561041549059,52.76864995564483L680.7720888551739,52.83490991185636L680.9449848081313,53.01379777461034L681.6154699328308,54.402092072181404L681.7199013540485,54.71218995588379L681.5559263224932,56.669766507077384L681.670553082462,58.52296886760723L681.7412832450336,59.02127037234686L682.2456693092736,60.06121709453919L682.5508922630852,60.44974194459655L683.3746614738411,61.20107794191108L684.6360514402222,62.67458281966128L685.104470614986,63.27319562942239L685.4867250171228,64.27104709573905L685.8437742762417,65.14682020822556L686.1673346796069,65.79305794294942L686.3846228367038,66.22633923087733L686.7133517104085,66.49135339777922L686.8313061156605,66.71414603224594L686.8220311894365,68.02987150983199L685.5258071489952,70.54782590521108L685.4530945594433,70.63785141792732L684.9356103169484,70.89163476116664L684.0522266948938,71.68972920148781L682.5737609743064,73.71182168238556L681.7351943621707,75.88811901672852L681.1436523118155,76.98813047909698L680.80104644926,77.37287205291432L680.4614142271712,78.51219296970021L680.0839742905537,80.32192869675373L680.0840450915166,80.43421655900056L680.3547171751197,81.16877897427185L680.3654081206132,82.16530993535662L679.8758194577531,82.33863257777693L679.7171544984667,82.44401662443488L678.8700917707065,83.21586499882415L678.4854301358064,83.57293689065227L678.003063171227,84.18489270289729L677.7042123041356,85.75525137776276L677.348012656581,87.22653994285793L675.8180038345381,88.69482696699606L675.2816157347806,89.7204873392102L673.3969648863804,93.44460382869147L671.9426422943598,96.42321405037183L671.8821074705356,97.1450458488539L672.0275326496412,98.78783180910978L672.0580478649263,99.70218729787621L672.0176913157102,100.28132075773101L671.8930816198845,100.96895915444884L671.8156253657744,101.11806735303026L671.4314593376203,101.53528802351775L671.0056623429082,101.82331045287992L670.6968993409191,102.23756243756588L670.3670376518021,103.14885127551315L669.831782367457,104.64944523525855L669.4235440117009,106.68962875839225L669.3968520484486,106.91276419711312L669.4820964085484,107.90641521423777L669.4120034546468,108.34263445171382L668.3734241205166,111.50842190310186L668.3746277368955,112.36973436759081L668.0511381344932,114.23140121396136L667.9909573154873,114.46126898105285L667.8770385651551,114.67777790533637L666.2183843923667,117.28307194026638L664.7879217250593,118.12937177236063L664.2466483588141,119.10693516282254L664.1726613519186,119.3260766424155L664.1226050706991,119.87534775229233L664.1604127852279,120.9939850463843L663.1961744628115,122.66862481618637L662.3998760259074,123.6322857180271L661.2276244726199,124.91611340262989L660.874894072278,125.16889697895249L660.0819940816236,125.61071546730955L659.6125836933716,126.44266444836421L659.6059992037608,126.53020991689891L659.7610533139086,126.85654040256395L659.8354651265854,127.1728368842405L659.8475720913502,128.5625118586222L659.7429282672438,128.7184124471878L658.9888272046064,130.2781863856021L658.8784485024516,130.83241472789769L659.3674707576047,132.72581630332388L659.4148366022109,132.89871319183612L659.7175815222963,133.55823498979908L660.4793290889938,134.64740063752652L660.7421422656444,135.41013374756494L660.7289732864265,135.5735490925431L660.6258870835172,135.81326319055734L660.2835644248134,136.35075843939876L660.0257781165747,137.21854462024203L659.7459019077105,138.18556334496498L659.4307668190067,139.35760421133045L659.2951829738322,139.95182937306163L658.9687197309631,140.63212477054276L658.3810717336037,141.64822105471922L657.0882461394103,142.87998451676322L656.1925431497002,143.87251539751696L655.5183763748973,145.2241113737973L654.4756905848844,147.2618887581575L653.9375324610373,147.86058704272045L653.7251295704245,148.21983599846317L653.5410470652278,148.81853444171566L653.5339669688747,149.0180867543918L653.58352764335,149.24756336370183L653.7462990585209,149.5967493518874L653.7533791548758,149.7064891461664L653.6754980949845,149.97584159264352L653.4701753007248,150.30503302917214L653.3214932772989,150.40478429476707L652.4576507211787,150.89354052212002L651.1973935702154,151.17281117298944L650.9070388187483,151.30246794367758L650.7654368916737,151.43212179570855L650.4185121703413,151.89087353176456L649.8025437875658,152.44930459856369L649.4130676871464,152.76828405302194L648.9245410387393,153.04746383039537L648.4188805571557,153.08315798367494L647.8696774829968,153.00169921537918L646.1373195071646,153.86528301136877L645.716266177009,154.16823446753506L644.437883979379,155.96199084191085L644.566670932054,156.50757196535642L644.4714436360973,158.00344499573112L644.3280716849331,158.30538214738908L643.7335559941093,158.61477412567L643.2451001466652,159.44564751616235L643.1435007639902,159.98950497135775L643.1281369549015,160.24373900100773L642.388196084974,161.7724918930203L642.0593256093434,162.17766198903428L641.9939763199982,162.90948437535644L642.1230464765267,163.44435678412356L641.8927309421379,164.5710694490922L641.1840132971302,165.92209828871546L640.7221786119753,166.143641226643L640.5058816683704,166.61554809566223L640.3137986542934,167.16071963998138L639.9778480823079,169.23311537432664L640.0141689766042,170.2256927110434L639.9253137673641,170.4524385103232L639.3621629033896,171.07994418467342L639.0716665499949,171.30297905384987L638.7591510969396,171.45862128390172L638.5076660744562,171.7395816718231L638.3502755325117,172.16015196343506L638.373002641807,172.38155522022134L638.727290663348,172.86914910066344L638.6401346772345,174.02055008584693L638.2803949815006,174.96383455570276L638.056380732869,175.39579079723444L637.445580820433,176.05483685583658L637.0098716908233,176.22713383488735L635.9906210197387,176.27390636551854L635.7213649554087,176.64122143821078L635.411752341859,177.22466724374362L635.2792837390807,177.57206558790404L635.3005948291047,177.88003033257473L635.2181117065848,178.22867985699622L635.0890415500562,178.56499952877402L634.6698998459142,179.34487227615728L634.0540022641035,179.97667379776976L633.8973905327603,180.00664444712447L633.52752629924,179.9271524179435L632.9800932491689,180.16790769485442L632.911274712611,180.30564776112033L632.8506690878239,180.59907874779447L632.8629884554794,180.8140072614674L632.955950120604,181.14531495125493L633.1610605119713,181.51619037968248L633.4820012796845,182.61776267051164L633.5840962691054,183.1430785506045L633.6503659709779,183.71000122475834L633.6195675518375,185.77925437784734L633.3920840559931,186.42343969768535L632.8840163416498,187.70554997191311L632.7764696780359,187.91823291956143L632.2203281094517,188.50430948360736L631.6652485553186,188.81357626214321L631.6403266161524,189.3658751907692L632.2003622377324,191.0619779988283L632.7086423549681,191.64417147556378L633.4893645798929,192.41782986121007L633.9371098733027,192.66143364893787L634.1937633661255,192.90869093716037L634.8750810382462,193.68099266859053L634.9593341848558,193.78435448634718L635.4110443322243,194.752242638619L635.4058758618849,194.90844388807182L635.2852310200178,195.441555408338L635.238714786974,195.53964021992851L634.4514080724384,197.08403483109123L634.2972743748178,197.20623485956594L633.6097970188712,197.47071243144728L633.4975774916638,197.55778060162174L633.4233780818759,197.66226068276592Z" class="state" fill="coral" stroke="#111" stroke-width="0.5"></path></g></svg>