<svg width="800" height="562.4" xmlns="http://www.w3.org/2000/svg"><g transform="translate(0, 0)" id="single_state_map"><path d="M79.14200973198967,0.017097479364565515L84.40332107243557,0.06345783669894445L105.31998068283247,0L138.32277584634357,0.1648910793583127L138.4284989718417,0.16653504745954706L139.80567483537016,0.15289010576907458L140.02557893640733,0.1519037238749661L142.86675578028007,0.14302628338828072L157.82248126724335,0.14516344555340766L158.44756924675312,0.14516344555340766L163.38351766847882,0.1449990484788941L165.459919853276,0.1449990484788941L188.99732359088011,0.09255627261518384L189.05943592711083,0.0895971126801669L190.20375660672835,0.06937616803861602L191.38481607245558,0.06921176998275769L192.67794205121209,0.07644528241689841L207.99325831877832,0.11573633498301206L217.21350424743287,0.1182022965822398L218.15232560186269,0.1132703729062996L228.78001063871852,0.16686384105651086L232.86488790017938,0.1530545027444532L233.04474936743281,0.17771402493781352L243.53525864895528,0.1959620406069007L268.5609796857698,0.2875305170628053L273.4481633158557,0.23278678535825748L273.62696755185607,0.22374500521891605L276.0219928061233,0.22325181702854024L276.1616794856909,0.22193664842143335L299.1721855965916,0.28490019299351843L299.2164571553931,0.28769491230013955L306.50144127179374,0.257610548726916L306.5351405180445,0.25004834779429075L315.2953586968724,0.300517734175628L342.79592594770656,0.2235806091566701L349.0602854413228,0.1417111064920391L358.6687995483717,0.17656324829658843L361.8069262209883,0.27717361290160625L366.49257514309284,0.2885168884477025L367.78345450543384,0.3947157604943641L371.07170801625944,0.2980518078975365L375.2823957970613,0.3105458294676282L376.4705915737595,0.28046151990110957L388.7624907598747,0.19448247274158348L389.06234797457,0.20188031033922016L389.4183705996875,0.19809919387989794L391.0112216392354,0.20533263308152527L399.15917076751794,0.1469718132602793L401.46327413385734,0.12099705248056125L404.3640523897302,0.13102528918989265L407.45936119651924,0.13792997216569347L409.80588596696543,0.15289010576907458L409.9894477436119,0.15289010576907458L413.5499383025981,0.15749322026567825L414.8017001085027,0.17689204163070826L418.8487813525953,0.18116635423211847L419.2385032239654,0.19218092238861573L435.0714663447543,0.13431323392887862L435.2842341348205,0.1333268505995875L443.00255091185863,0.1007761577166093L443.523369458846,0.10472170067896514L443.85904038230547,0.10653007413202431L445.81320020324347,0.08647355422363034L448.27152717890385,0.07989763917703385L453.4847344972477,0.06427982733112003L458.6450802528434,0.03337294319408102L458.85507281086575,0.037154108578761225L460.66333471861435,0.022522636286339548L464.59530990982057,0.0435656473173367L466.0689581253664,0.06608820652400027L470.0496981082106,0.042250460151080915L470.72421164889056,0.07200653663585399L476.94205296728796,0.07217093465624203L478.23768987027506,0.07956884333361813L478.5666209444844,0.0729929247245309L479.5043850676575,0.09502223870458693L483.42063394394427,0.12954571377849788L490.53791475252183,0.35032934278387984L491.8306442695575,0.3654536210169681L492.254065387182,0.384358943539155L495.6949566604435,0.40720968719597295L495.711343744897,0.40901801768086443L495.9751229430167,0.4003051502722883L496.0049897259705,0.40770286826318625L519.4645548124281,0.3259989444513849L520.621297959291,0.3347118627116288L520.7911157296221,0.3434247750110444L532.7947872448458,0.31038143452587974L536.7927072355815,0.2806259152239363L536.8451723366106,0.2844070071723763L547.1407546054961,0.2528430747515813L548.3851157926165,0.21864872631067556L554.3974577858244,0.19431807630007825L554.7166094709228,0.19300290470346226L565.477637799815,0.20089393223679508L565.7885959426876,0.19349609406617674L565.8282421147524,0.21157969089836115L566.1972158227418,0.25087032637293305L569.2818201630744,0.17294652103646513L578.2656427523343,0.1770564382959492L580.4834496174844,0.18182394065752305L587.6787012311179,0.21075770978313813L590.0866775682571,0.17919359474672092L595.3409847516414,0.18281032023242005L595.9689801171025,0.18955057861785463L600.7185915301343,0.17113815702214197L601.6574128845623,0.1875778204348535L603.1309289462024,0.1875778204348535L604.3147636439753,0.18133075083915173L605.5345442044181,0.189714975120296L615.5718977392717,0.19744160829486646L616.2502437432522,0.20204470668159047L616.3099773091599,0.20253789569414948L636.7519400860656,0.2280193020860679L651.4142838997705,0.3006821292447057L652.503364246315,0.2863797503496244L652.9499122976413,0.2964078567792967L656.0396706403408,0.2921335828741576L661.519035927131,0.27092658727178787L661.264243194677,0.4550481616088291L661.335341996577,0.6996627056023499L661.1845543888339,0.9784649491557502L660.8745213233087,0.8839424669422442L660.6511812206918,0.9643277181839949L660.617217666626,1.176055766931313L660.7146150959907,1.3193976023776486L661.0543827905622,1.5148461973694793L661.005221537207,1.9483072709326734L660.5964695032453,1.9711552078442764L660.617217666626,2.262914826726046L660.9038594906342,2.5122612707446024L660.5967338110604,3.001077903796613L660.6078347392395,3.208005721679001L660.6789335411358,3.2944574917555656L662.0677389484663,3.851613566933338L662.4571965120249,3.795406006327539L662.6817259998024,3.8744580893880993L662.8685916241211,4.5139237431594665L662.8748028577429,4.774236727180323L662.3323110700294,4.944160388825367L661.4652492870318,4.712445742772616L661.0936325009043,5.5056811652748365L661.0798884945889,5.924381749641725L662.5578977890618,6.050252155149792L662.6597884512612,5.974500010491283L662.7505781852833,5.903841421847574L662.8413679193054,5.94623662205413L662.9662533612991,6.016730654283492L663.0229473873496,6.214243324540803L662.9612315128397,6.382668931639273L662.9835655231,6.529238477456602L663.1630305286362,6.856384823989174L663.5222248475184,7.262553833834318L663.6932320030137,9.311275411676434L663.962297357406,10.138392453873166L663.9433993487237,10.352596341191202L663.4902436020548,11.122813557896734L663.2954487433235,11.227936632644742L662.8089902121228,11.24649733550359L662.6665283005113,11.686197412303045L662.6214638182682,12.125882327346517L662.6737967653899,12.351385369237505L663.234657946161,12.840153219744934L663.4630198972372,12.881539959738802L663.7512475681306,12.603654986063702L663.8560456162795,12.547321773923613L663.9308447275707,12.615151529395916L663.8404514552676,13.588214243295624L663.6682549146135,13.843743806174643L663.3464601513751,13.974955262151525L663.3650938522442,14.072665044053792L663.8289540653714,14.110599228267347L664.3528121522177,13.889232786698813L664.6592770622574,14.449210195110936L665.620564580855,14.56875644001866L666.3614193827889,15.011461898369816L666.514982222574,15.37205187568452L667.1998037679932,15.694866496914074L667.9730362771097,15.58863084728182L669.200878225869,15.71292811134299L671.0413856868981,16.238345704143285L671.2733157934599,16.50876313797835L671.5352448368831,17.042192748736852L671.8606077556069,17.462977290740128L672.0363724517483,17.511736834205294L672.5636665401726,18.225377926610236L673.1442186530676,19.30471094213317L673.2265505370506,20.798882517805396L672.908588237111,23.04432489697956L672.3329258187732,23.569933120472342L671.7087629166072,24.546099062557914L671.3985976971744,24.655049584756853L671.4022980065693,24.82011441889881L671.802327882675,25.4245682312594L671.8808273033574,25.73613626637325L671.7499949355533,25.920054641923343L671.4696964990744,25.99142279012449L671.3314635124825,26.783500440593343L671.6416287319153,27.001198351575113L671.6828607508614,27.18887164487296L671.495995126541,27.721855332161795L671.2456956269252,28.183461284542318L670.9093639339317,28.566151802891L670.8385294398449,29.147957228476116L671.1001941754548,29.718419047986572L671.2196613072701,29.752042368872935L671.4550274154117,29.601966862863264L671.5596933096549,29.617056501601837L672.5162232876046,30.61506534646287L673.2147888393374,32.27370345694817L672.4079892378741,33.6392863196661L671.3884218463481,34.68223238494011L671.6350210365708,35.807554689666176L670.6046170246809,37.307994418725684L670.2425153198456,37.43929296628903L669.6113482606197,37.48437018450113L668.4314781800531,37.85612824314376L667.7633080269006,38.209026145658754L667.0911732565419,38.18689860210179L666.7438727892804,38.25459237412815L666.4826045153877,38.412269941687555L666.046893084429,40.39602218177697L665.220006089121,41.918864659811334L665.0241539991348,42.047002619283376L664.5275196171042,42.076660966835334L664.4153209501674,42.26394938748945L664.4749223621675,42.55642845085367L664.851560996758,43.20526572354083L665.1956897702548,43.33601228607131L665.1939717694659,43.62469859131306L664.9702352051281,44.34884332921138L664.1786333029577,44.82803425370366L663.8576314631628,44.83540628178798L663.4209949548531,44.696483794901724L662.8724240874199,44.6511043071132L661.6589869145082,46.01864372556338L661.5169214646194,46.60702737599877L661.0354847818799,46.91431277601532L660.8712174756365,46.895476196413256L660.6026807368708,46.63290777377733L660.3712792459355,46.57672431217634L659.5018386926131,46.97753796253164L658.7702346641618,47.47202678418671L657.9225995054767,47.80598840164657L657.5052574675701,48.322555344402645L657.1171214430833,48.39363489876632L656.8000842204929,48.281283164231354L656.5537493380798,48.91459997090897L656.1620451581075,49.087049321799896L655.9979100057699,49.04577960281313L655.8673419457791,49.11701891541361L655.6136064445836,49.81383315829589L655.2517690475615,49.675292144128434L655.0204997105338,49.80269752926961L655.0129669378421,50.27480696151906L655.1623008526094,50.439541715123596L654.6512616947311,51.29773297570955L653.7485183568751,51.878670154201245L653.4539472984561,51.904867377569644L653.159111932222,51.68382662639124L652.5399708785171,51.654026767037976L651.3619509526507,53.47529317310364L651.1049116037811,54.19462544205089L651.2317793543789,54.55051138294857L650.5649307402946,55.84677602415741L651.083634824774,56.71180718347205L651.091431905279,57.77889869827413L650.5365176503165,59.06747349480156L649.8358376360738,59.419787979336434L649.3825497354992,59.55380567473276L649.1652887126002,60.150241090093914L648.7890465397286,60.64471331623827L648.2088908885562,61.04590577754607L647.8919858198733,61.09449960888924L647.4745116280592,61.0118736245704L647.2247407440682,61.04165176335664L646.483225172602,62.162372173605945L645.6741789547214,62.56629837387209L644.8355302617038,62.67819791770762L642.934496311329,63.17519025333695L642.7517274581223,63.407320638934834L642.2335519892713,64.42167630835775L642.3042543294487,64.7360596000135L642.2893209379727,65.001856330372L642.0357175906829,65.81393351267525L641.197201051571,66.38276587967539L640.3886834493187,66.42381635023139L639.4906976521124,67.16482839625678L639.293259715243,67.62894086742654L639.3714948281122,68.59439811833727L639.5465987547195,68.90851585003384L639.5950992385442,69.34264302926294L639.5801658470682,69.52969745366772L639.2821587870658,70.21445040304025L637.6282526425457,70.83932922695931L637.3368532778895,71.7859088612804L637.1148347143408,74.06787665621778L636.8244925809413,74.17281128628565L635.6925943685692,75.01830473638165L635.5363884506442,75.31379756290698L635.6411864987967,76.14025889635468L635.2874104900948,76.7125567660114L635.1758725926957,77.22502121451726L635.2430067773857,77.47928490571212L635.1872378286862,77.72978528947442L634.4395110235946,78.88940946926778L633.5091475192057,79.64506157079359L631.7303559326901,82.57608203286509L632.9424715665318,82.55501086265303L636.3919528437436,82.54145342483844L636.8124665754149,82.51891211110797L643.0313651250672,82.4594551233622L643.5039474960467,82.45586156036279L660.6823695427138,82.29970394554402L664.8427066849981,82.2572339739454L664.9723496676397,82.26360447861134L667.9468698035471,82.17425377926611L685.2959025439905,82.03524442080925L686.252168214125,82.06481057915789L686.8140866261529,82.0122121730792L686.9702925440761,82.03099734276475L687.0384839600229,82.03099734276475L694.7290484166169,81.974641751538L695.34686793125,81.96369730378683L698.1117919708577,81.94246178162211L698.1780010782004,81.93984817647288L698.2434172621033,81.94033822748042L698.9808360624575,81.92972045152055L712.0316951357454,81.78531782961818L712.0689625374853,81.78335760189657L716.3408375771705,81.77829367889535L716.351938505346,81.78564453420677L716.9425343151634,81.77159622929048L717.1905871983654,82.38072319535877L717.5574464438469,82.92154630465939L718.7830417761907,84.16154790654218L718.8315422600135,84.31849955931739L718.6770543428793,86.0161010628799L718.7155111297798,86.61718946535166L718.8322030295476,87.05088322286247L719.3913462095315,87.90794066895978L719.9646298575462,88.43171530463314L721.333215717128,89.37259491814712L723.0442123494176,90.40874018694103L724.405794051936,91.58028236573773L725.1331691553678,92.35461383327947L727.1115131412625,93.98424693928519L727.6226844530502,94.6938115429939L727.8789308784762,95.29221116565259L728.3585174065229,96.88916756036087L728.6060416740966,97.4858338927279L728.284643372579,99.02444338742953L727.8339985501407,99.68348839660484L727.2033601065395,100.33075531610302L726.8968951965016,100.52029659584878L725.8527471782927,100.91975960054333L725.3398578657179,100.92302180371189L724.3541218743467,100.52519005161048L723.7187258901013,99.82866953444682L722.8833810447522,98.69392944105584L719.3425814178936,97.17649104925022L715.8660085897736,97.09458574317796L713.8743170592825,98.51219210704312L712.6351098745326,99.61513850941719L712.2315118429378,100.37137153875665L711.837296738735,101.50319153628243L711.6880949778752,102.07077685759305L711.5943978579016,102.81235148706673L711.6300794127565,103.50887424974917L711.73937069374,103.888513087908L712.1429687253349,104.4657775791793L712.812989033182,104.99491404825221L714.7845931698266,105.86855329942773L717.415380993958,106.73642722899513L720.0922905315874,108.15819285363159L720.7411662143331,108.67739749620523L720.9351681496246,108.93381332451281L721.1302273161691,109.45021578818978L721.1780670304597,109.89976907562868L721.0848985261127,110.54994740661459L720.8040714740073,111.19487768440194L720.5120113398152,111.52425726851106L718.684322807756,112.61664225367076L718.220330440723,112.97108123951057L716.8171202575413,113.49384065640152L715.6302460199095,113.55201426093845L713.6678926567456,112.80274430170448L712.6677518895285,112.67253833388986L712.6657695809245,112.94973369486979L710.5069033582422,113.67145672460902L708.5865749374607,115.67183196952283L708.1891881394931,116.3730388407048L708.490234739349,117.32687337802327L708.4667113439282,117.73917532050564L708.2000247598571,118.50119074659688L706.8743889200086,120.30261372081713L706.3971811622905,120.82784585626541L706.190360298031,121.02539277401229L705.2969998875669,121.55059561113467L704.8071053547883,121.71360772858134L703.7535744091929,121.84551413474674L701.9763686695587,121.71083930813711L700.4745716718462,122.63171360361503L699.6595785281606,123.03635650363049L698.4740258295988,124.06101540453437L697.891094946377,124.0496180869286L697.0613005651194,123.46101441973497L696.4496922841099,122.63171360361503L694.1535181521831,121.16838033750992L693.5643760353414,121.11414947695903L693.1499413833844,121.45516498831603L692.8381903170721,121.84355997556577L688.2409523586648,124.51787676991444L687.7513221336976,124.8977139650251L687.451200611189,125.34933616463331L687.1296701557658,126.27402179775618L687.103900143924,126.90433308225238L687.36146810842,128.88313564643522L687.4069290523857,131.51808632320171L687.5174097185318,132.30972010736514L687.8411867903706,132.99359424246268L688.256414365771,133.64196411513694L689.2424146649519,134.83156133141438L689.9450769877985,136.3623240734105L690.7838578347237,137.2841108258308L691.8790172609843,138.05685181528406L692.8466481671112,138.46524255606073L694.0730364228966,138.7314784316577L695.028641323499,138.77067335637457L696.1395270646772,138.52606907083737L696.6061625098482,138.3261862185127L696.876681557218,138.08710342157792L697.146143373333,137.70391120275872L697.7222022533952,136.507257293998L697.9040460292545,136.2931914960609L698.5753878761698,135.91075969563826L699.539582780717,135.6020081538045L700.0027822243082,135.65422639611916L700.3122866742069,135.8175493873132L701.0292216189955,136.79776951893382L701.3376688376393,137.70895327902963L701.3790330104894,138.88386633398932L701.2519009520765,139.85084545232166L700.9790031343837,140.8266960862411L700.6183551225276,141.4473581539878L699.6594463742531,142.04181307771069L697.9846599124467,142.71411924002769L695.6325846779109,144.52161307470578L695.2819803629773,144.62776585534448L694.9132709627993,144.5986673998559L694.0886305839085,144.42244966362432L693.4730576856928,144.19632174510843L693.276809133984,144.27451595616276L692.2926589894978,145.0578952050564L690.5903845150606,145.76840651684415L688.8849383468587,146.78493424668068L688.1261106135898,147.45455733394738L687.7299132007865,147.9790171701943L687.3857844272861,148.58893720463766L687.2342038961033,149.1170889274772L687.2305035867084,149.40341945330783L687.393581507793,150.0652706120336L687.7231733515346,150.93880410890233L688.6859145631079,152.96479916853696L688.9709705402329,153.49634725914257L689.4151398212343,154.10600879909543L691.039575644525,154.91982104713315L691.6945304069905,155.0796536451635L692.5827368150858,155.120748498166L693.0118405507037,155.21739398524005L693.4595779871925,155.57440756637334L693.574023270543,156.13930715202332L693.446891212132,156.62086551584252L693.4598422950039,157.003176072295L693.7189961063832,157.1147488732331L694.1477033802821,157.31889052000042L694.3049665294602,157.4931473265142L694.3723650219654,157.74096799675863L693.8730875617966,159.56472467561525L693.6930939406375,159.95376839442633L693.3086582255419,160.4632746986863L692.8502163225967,160.83524393746484L692.3307193146775,161.03802845781684L691.8245698513529,160.94743336142164L690.443165062803,160.2801274980693L688.935024677563,160.14211593905293L688.5406774194544,160.02813352603243L688.1127630689953,159.7397633118262L687.4389102978494,159.13442489884346L687.2581237532468,158.87493914688093L687.2549520594803,158.39866054991035L687.5138415630463,157.89703088838814L687.5322109561021,157.6852655962657L687.3914670452832,156.8974489991997L687.1546472441642,156.51838359137037L684.8007218549337,154.5418351367125L683.0757169085155,153.53939650600842L682.598376996888,153.42064521942302L681.8026783236019,153.3579389047245L680.5740434514028,153.53582261168503L680.1816785018927,153.69177345135085L679.3821473653079,154.1968139240971L678.511120965104,154.14158369095912L677.8877509863833,154.3181571724117L677.3171104165049,154.61200782394917L676.6990265940567,155.11733746787013L676.4176709263229,155.48897208605194L676.1245535608796,157.20618263959295L675.7563727763281,158.14987803627173L675.5609171480628,158.4852136657173L675.1825605126833,159.6762755438831L675.025693825226,160.80991594547868L675.2580203935086,162.5824318727955L675.6166860967642,163.85249474949978L675.91905423569,164.5399068899651L677.0477807542957,166.4214615842111L678.9759062555804,168.116949241592L679.1593358783211,168.51514917513668L679.1799518877906,168.99982031063792L678.7541519998467,170.2071199919901L678.4656600211401,170.7124945090345L678.154173262641,171.76244283380038L678.115187860114,172.23596266487402L678.1568163407774,173.00906570788175L678.0529433699758,173.3680256058633L677.7965647906422,173.79704516564288L677.5379395948894,174.39213440938602L677.496046806411,175.0269312585324L676.3085117992468,175.7951661040488L676.0349532120181,176.06891081650792L675.8266786547847,176.39421846069763L675.6826308962936,177.0097834428725L675.5118880486116,177.41014457469646L674.1842699001609,178.89862152005298L675.709325985481,179.94742574067823L676.177282969722,180.0604237397174L675.7421001543862,180.6531203449813L674.4563747944139,181.19780687862476L672.5139766711891,178.16575427640964L673.4740748046243,177.0511335810461L672.3466698250868,175.73581074736558L671.8797700721025,174.00173686642484L671.8822809963349,173.08887147268615L672.2438540855383,171.3487680834687L672.7884603357634,169.62595566888376L672.7974468014309,168.99706193863585L672.7102252228942,168.77136023033927L672.1345628045547,168.03662626632558L671.0807675511442,167.0480452382617L670.4357243316954,166.72493890694204L668.6238942684613,166.76388735698583L668.2221463915648,167.04074257179582L667.4339804909723,167.03327761962828L666.5500030078947,167.75833172978037L666.0242947663519,168.3548321627659L665.729723707931,168.84973157503373L665.3962994008907,169.8050777499766L664.5629368641476,172.71254733346996L659.3357212316714,175.96901412166244L659.1246714423978,176.53676098286087L659.1113238978032,177.8805410695868L657.9794256854293,181.9126735194668L658.101535895381,182.415488274366L658.8882481029996,183.13045043304646L659.6999373990166,183.60631380473296L662.5177230013724,183.62446628806902L663.7618198806795,183.2946382189375L662.7092140124332,181.52233848353353L662.3927054054693,180.31024798656108L662.3502840013625,179.59869835380687L662.496446222367,178.90332341172598L662.7127821679169,178.43085591073304L662.9490733534076,178.12408337752186L663.4484829674839,177.6462367625145L663.8126991348254,177.4083608949568L664.4272148017881,177.28382701649116L666.2209397797815,177.61672547230955L666.8021526622088,177.8662721384926L667.061306473588,178.11889477380555L667.5592623946886,178.97109531761907L667.8147158966749,179.27136278791204L668.8973207017825,180.28139117922092L669.3018438107229,180.59330070876422L670.0744155503035,180.99776690143972L671.106934024705,181.9000299592144L671.3658235282692,182.02500615257122L671.7595100168473,182.08157734413817L670.5923267113394,184.57014341158265L670.0532709252057,185.46600205405502L669.7111244603093,185.8523302646936L669.3146627396891,185.91714931670595L668.8741937680807,186.44703302454764L668.4157518651336,187.3539432054249L667.488295746698,188.72723265592958L667.2894041168511,188.8173112604236L667.0943449503065,188.78507096781777L667.944226725409,190.46680660527636L667.5527868532517,191.7281690559721L667.2529296385546,194.9075203535367L666.1790469912994,195.16710118101219L665.5651920938744,194.98071521852762L665.321632443507,194.98152489395488L664.173743608404,195.63605013735287L663.2339971766269,195.90484618467508L661.8741334748993,195.1826467192477L661.3983794101532,195.29599904467977L660.6690219981192,195.6119229935466L660.3634821654286,195.88492955826223L660.0216000083474,196.3441377350755L659.8389633090464,196.81806385633172L659.3530333934741,198.6299001240286L659.3632092443022,199.10082969188534L659.6539478394243,199.82928831032314L660.6753653856485,201.77342716123985L661.5701794890902,202.8396595211898L663.1163801995099,203.4384466129195L664.210350240608,203.294254706253L665.3366979888906,203.00149656561098L666.274990727692,202.87218892744568L667.1190577308917,202.9259189143586L667.7815452660507,203.11494314338415L668.5220036062619,203.58344607911658L668.7259170845664,203.8116227973669L669.6582628975593,205.0728344306226L670.2622062519731,206.11970659411054L670.7092829189241,206.74989307876785L671.2628756348167,207.39994848555307L671.5101355945772,207.9501568888245L671.7690250981414,208.5896380028289L671.8701228368991,209.13672310255242L671.8547929837041,210.03705067045485L671.5179326750822,210.47166389609538L670.9426667184616,210.57906144976096L670.5532091549067,210.21190051918165L669.9615561138344,209.89600450768467L669.3420185984123,211.36688623129066L668.921637020645,212.73087103300713L668.7971480403721,212.73960370209534L667.255176254972,212.04242735254684L666.3160905927307,212.1405938319458L666.1363612793812,213.42267449935844L666.1560522115033,213.85604380821678L666.5761694814573,214.85839813050643L666.9888861326217,215.3518666399741L667.2418287103774,215.38226317693716L667.3874623157535,216.00958026466287L667.7244547782793,216.6362207418124L668.0295981492509,217.07514229521075L668.484075434988,217.64191949788255L668.9106682463771,218.20737907780494L669.3870830806536,218.81322473498858L669.7271150830402,218.9680762162152L672.4982503562715,219.39221122841263L672.8212345046686,219.68428100641813L672.8841397643428,219.8079278513569L673.1312675701938,221.49732836215207L673.028187522832,221.97083229078726L672.8697349884915,222.2457153194864L672.2616948629675,222.95657078436307L670.6457168897177,224.5596117075529L670.2109305361046,224.8651384272971L669.6955302992974,225.1061941654316L668.3762378469783,225.36404782949103L667.2132834664935,225.00860913037195L663.2974310519239,222.56810167736148L662.7992108230137,222.39099215480474L662.5485148616754,222.40828306174808L661.0547792522812,223.0535246798654L660.5177057747496,223.402714373683L659.8212546855266,223.98473046540494L658.7276811061492,225.14076882215704L658.2995024478769,226.10769147915562L657.6989950950447,229.44928819003053L655.8824074911627,234.2304306569349L655.6907843261961,235.14357238012326L655.6163816766275,236.01629334824975L655.6541776939921,237.15658752352738L655.7552754327498,238.16814479249388L655.2228273419569,238.90848387480673L653.9973641635206,239.91990679867376L653.3385769377564,240.04110450232565L653.090656208462,240.00011365925093L651.9629869211094,239.36877403576L651.1938511831067,239.14944422672215L647.773179457592,238.6373376928923L646.9933392531348,238.33067755598768L646.8611853462589,238.15313421777591L646.808323783509,237.8141812078511L646.6100929231998,237.70119493530365L643.081583609679,237.45907823446214L642.6058295449329,237.73347682623535L642.3811679032497,238.08857241130863L641.9317124659719,239.5572753285569L641.1123582433556,241.2677046243616L640.7185396008736,242.63020894484453L640.6629028060797,243.51034035260727L640.7951888668613,244.89794072137283L641.4390427011494,246.632841003071L641.6972714351796,247.09447481696498L642.4966704178569,248.0188230261092L642.9379323129069,248.30461433578603L643.7102397446743,248.63410533344086L644.3716700485784,249.41949615571593L644.899492752631,249.83620201996018L647.3545158806191,251.01077738671665L648.107000226355,251.46306748884763L648.6241184639512,252.07448105348521L648.9180287528379,252.60331807590046L649.1448048570328,253.18372460064165L649.3615372643035,254.26708193892773L649.3286309414943,256.9372110120257L649.0879786770784,258.04330699854563L648.8551234931674,258.7570709764914L648.6189644615824,259.14689329659905L644.7509517613053,261.92527348621115L641.7651985433113,263.54018165753223L640.7016239007953,264.33854114907354L640.2429176900368,264.88605648719385L641.535118591446,266.81788476979636L641.6903994320219,267.3385636679059L641.6711049616188,267.6775656848931L641.502608730354,268.29740965173096L641.0479992907094,268.9933911048847L640.528898744511,269.31093458975374L639.4867330349061,269.2093279434421L638.9754295692146,268.96182957201563L637.7555168548643,267.9732392221167L636.6874489795136,266.7127157776049L635.6516266574381,267.557265249442L635.1288258018467,267.8659858584879L631.4730522760074,269.03590243851704L628.5926257217925,270.7468704265848L627.398879481003,271.27447899576055L626.8440973799497,271.30378102279246L625.8541324635607,271.0093088060157L625.6527299094851,270.8594136562806L625.0084796134779,269.7654980508014L624.7343924106226,268.5445983657546L624.6137358936467,267.56725006610577L624.6162468178773,266.9452782500848L624.9607720530967,265.9509001391798L624.9786128305241,265.61571959126195L624.8311290704514,264.9643401492749L623.9767540625162,263.10876398075834L623.7452204176752,262.8107263823158L623.3565557775582,262.5316926684336L622.8871451003433,262.26086968111304L621.6832230087257,261.7569082920736L620.9031184964551,261.6241480069366L620.0659234964096,261.7783367084421L618.8062324560924,262.5321759882627L618.2530362019206,263.02289762015334L617.7116016454584,264.00364196892133L617.63376299431,264.33870223370286L617.5703291190111,265.28004734146907L617.7238919587999,266.5555244256675L617.9777596139029,267.12372369490276L618.9757859186102,268.4619879274487L620.3776745627238,270.80837485650136L621.2842503638767,272.66625376183674L621.3072451436728,273.1472635150849L621.0081808524174,274.10585039751277L620.1699286211206,274.7252329148223L619.4857678452336,275.61948783121716L619.2563486629024,276.0332776150626L619.0452988736251,276.68765393965805L618.9510731380251,277.5243266779644L619.0915527410307,278.2267434336545L619.5033443148495,279.5072508702042L621.0268145532864,282.1795381369866L621.7992541389613,283.93529687283353L622.0461176370009,284.8303790906839L622.0346202471028,285.3614487837285L621.8731281729051,286.0991533169299L621.5441970986976,286.7972571674409L621.1501141484005,287.2171310401418L619.5712714229812,288.16843157437233L618.2752380582751,288.5281263591851L617.0645761174055,288.69888551853L615.3727418016133,288.61768675679195L613.645754546591,287.7461757453402L613.1723792521716,287.2422169181964L612.8172817043996,286.3059669884742L612.6988718038428,285.5139142949474L612.6988718038428,284.72165354337085L612.876486654679,283.92950638720686L613.4095955150078,283.1340948578554L614.8669888000077,282.1311167646627L615.417938437764,281.268350220711L615.4616813809371,281.0662845425559L615.3917719642013,280.4858112523434L615.106848140982,279.62647755781836L613.9066263587592,276.9951964446891L613.6495870098897,276.1454541075291L612.5677751282237,276.06546608870303L611.452660462026,276.3360071229399L610.76810322442,276.659812220234L610.2775479221054,277.11106618335L609.7694161501768,277.8527694727818L609.300930550311,278.9099750138357L609.2271886702747,279.3442577278174L609.2682885353133,279.77804354182445L609.4842280191442,280.70333082443267L609.9591891604487,282.1587861418966L609.9507313104077,284.05207112760763L609.8032475503369,284.5907313632051L609.5377503514283,285.12920892539205L609.3017234737526,285.38042665367084L608.947815311145,285.6318004581235L608.5643046734003,285.7752566973768L608.1517201761399,285.8349224574058L607.6776841121846,285.9560222193504L607.1954545060034,286.2964787178553L606.9452871602916,286.63982114670034L606.7070136661987,287.1339935288379L606.5838462249922,288.11150982677736L606.5958722305168,288.5266792382936L606.6750324207369,288.76947176187605L606.9176669937551,289.12947185127723L609.5069584911271,292.18031840524145L610.4424759978847,292.7096478811227L611.7326945906898,293.02533876117195L612.6745554849749,293.05973639829244L614.2917228433871,292.8350249931418L616.0487090352708,292.421115294278L617.3155363865608,292.27660553482565L618.2307021916586,292.27049719005026L618.8712521782745,292.38125068987483L619.4010571909275,292.66415820086604L619.9456634411563,293.2143639300548L620.3857359510439,293.9456860107275L620.5419418689689,294.5109463236058L620.5070532375539,295.073771941411L620.0808568878856,296.64255081997726L619.5813151199054,297.42606750149844L618.2733879035768,298.95279627261425L617.1934261766091,299.7646130464718L616.0372116453727,300.8512422258409L615.188519255431,302.02821671256515L614.5225957186958,302.688060828762L613.3242240911677,303.61223739486195L612.3577825702014,304.0015480614993L611.3392724099267,304.16488169904824L610.6815424154174,304.1199129523493L609.818445249628,303.8321093797467L609.3006662424978,303.49531348833443L608.7526239906947,302.71986359007315L608.4396835392163,302.015205825699L608.3108334800145,301.1534070566986L608.4617532416651,299.742603230603L608.6361963987365,298.98926723507793L608.9644667034136,298.3886886191476L610.3849890483943,297.1905031429478L610.5631325148606,296.81609827814646L610.4580701588966,295.33267658817294L610.2971067003236,294.928005283783L609.9420091525535,294.31727866224355L609.2402719070578,293.61201525280376L609.0043771832861,293.24088510367073L608.6791464184716,292.98226122100823L608.2417169867203,292.84418712037586L607.2156740537557,293.1769127281641L606.6945911989515,293.57954780548243L605.93179884848,294.69593246988825L605.186582967619,295.1107356691382L604.7556290773045,295.6907313247939L603.9081260725252,297.18070126142175L603.8926640654227,297.5530070030354L604.0529667544597,298.07344630395164L604.1834026605429,300.27741539283215L604.355863509014,301.0191124226594L604.6126385500665,301.5752376148175L604.621625015734,301.724786672773L603.9297993132514,304.3047656515464L604.0660499912392,306.052629151628L604.7969932501564,307.8999699989481L605.7096481310255,309.342339646264L606.3246924136147,310.59224576104043L607.0207470411169,311.37157180835675L607.9722551706054,312.2821457838909L609.0852553742934,313.69900564194995L609.52836742404,314.4763849943747L610.1812077239938,316.46680897760416L610.2096208139737,316.9109391972961L610.1374647808207,317.3528084327545L609.8267709457596,318.14746238782755L609.5499085108622,318.56907666121333L608.2881030080316,319.6500040511255L606.4285653844181,320.6357245906702L605.2198857521525,322.0104787681985L604.8803823653943,322.56829574129915L604.5542265232307,323.9688301644028L604.1584255721446,324.6073853801481L603.8390095792311,326.05147888678584L603.7096309044009,327.062219484711L603.9177733077286,329.34364067948263L604.2969228665479,330.8367501305502L604.5295137426456,331.2243062169282L605.4313320031488,331.94200865268704L605.8190715659148,332.3388280454983L606.6951198145798,334.18045452989463L606.8938792905192,335.1425122824321L606.8041467877501,335.91976729047747L606.554111595944,336.6764700673166L606.1909526598574,337.3951619364243L605.6370956361516,338.2229074875477L604.931261619542,338.95945710054L600.5348975995803,342.13570395104034L599.9354474780012,342.44894736718015L598.2034383745195,342.7010101186079L597.7601941708654,342.8339256712725L596.9067442402775,343.2333049579038L594.6410976608386,344.5405723994163L595.0634615472063,345.1584537028393L593.55135654476,347.72414189018946L593.5415771556527,348.8848321227588L594.3950270862388,350.93496352678267L594.7958498857879,352.2909288437313L594.7803878786835,353.09999386579966L594.2640625645272,354.1933383533242L593.2137033126983,354.5738199195248L592.0568280119296,354.5720599370934L591.0120192241848,354.13365712976065L590.4831392888791,353.6835593603928L590.0702904838054,353.0457483487826L589.9966807576766,351.90798213938706L590.2788293488502,350.4775563962139L591.5912497980116,348.18996674628215L591.7376763268294,346.6501218551284L591.551471472043,346.0947482125066L591.3795392392003,345.64342015035163L590.418119566697,345.67720223738525L589.1428343653679,346.1176424203959L587.5647845633921,346.4458418048489L585.8704393233675,346.4692156986157L585.3124855285478,346.38164343503286L583.6625440012322,345.8983046967878L582.5404251779692,345.7871935616058L581.7356078851099,345.89334153891923L580.9574856814379,346.2939105026471L580.4712914580505,346.7173606896549L580.299887840838,347.011606672605L580.1169868337238,348.10048480715704L580.2112125693257,349.15646171998924L580.2936766072144,349.41384049661156L580.5492622631064,349.8053412859226L582.6943844794769,351.6895391981998L583.2532633516457,352.6773850888394L583.5200820896207,353.41490156552027L583.7954908315478,354.50198044918943L583.7586198915305,355.61088946561904L583.4688063737558,356.2957722488836L582.2002610216787,358.3738842563671L581.8579824028766,358.7606454026163L580.5504516482706,359.7721219440846L579.6120267555598,359.86504473517016L576.2681364499422,359.471757822982L575.559923663006,359.46168159394347L574.2514678310527,359.94581187175936L573.1823427244453,360.20138468318964L572.7120069698831,360.45727249302763L572.2112758167386,360.87148056293427L571.901374905121,361.2560909169197L571.6641586422829,361.856412909161L571.060876057405,364.6365106183939L570.6632249516242,366.87302733537126L570.6437983273117,367.8337041691175L570.7256015956682,368.4575479291434L570.6595246422312,368.95685784672696L570.3764509737084,369.9472715395141L570.0232035806348,370.88711427921226L569.6288563225244,371.6012614117453L568.9739015600608,371.14215975928437L568.4526865513526,370.7913910761308L567.084100691769,370.7046163658506L565.4908531905039,370.1758059068716L563.4503968683766,368.74860119183995L562.9579914113674,368.2894022649343L562.7211716102502,367.91090700135464L562.1659930474725,366.09836176494264L561.9472783315996,365.68767181430303L561.7955656465074,365.5337198017187L561.0932997853815,365.30350789847853L559.6718523630516,365.2079048533924L558.8970340070518,365.52588626696706L558.302870041749,366.2169783279114L557.920548789165,366.7796733853511L557.8216976668227,367.1933671309498L557.8433709075489,368.3232873016059L558.0770190149033,369.60046722336665L558.4126899383609,370.2758484023443L560.6106737174796,373.1374522858305L561.172063513879,373.6198126772342L563.80575872396,375.0786121054316L564.3326563506653,375.5236814425698L565.0176100499903,375.1428333551212L565.7082463673087,374.94010404003257L566.1899473578633,375.32559065968417L566.7422185346877,375.36632730849396L567.4142211511407,375.219834549559L568.1382924069003,374.83546320808546L568.5991130801667,374.7408863677656L569.7213640573354,374.87300619545294L570.8979302902317,375.23229528240245L572.1952851940059,375.0757365199306L573.7568157576261,375.3570617286023L574.3115978586775,375.71745614129304L574.6232167710878,376.08966188590966L574.7991136211349,376.498437382259L575.0001197134898,377.84304400231485L574.9143518279288,378.79910583487435L574.5085071799222,379.6888245029568L573.8485305689956,380.6508236630398L572.96111708434,381.58097839106995L572.5494576644269,381.90719600835746L571.9445892326676,382.2581545633293L571.1762464181065,382.5674312183728L569.7134348229247,382.7258189957611L568.8804687479023,382.6257091954021L567.4123709964424,382.13967912923727L566.9762631037611,381.88564002153726L565.7926927138014,380.9301163442069L564.9684487966333,380.39164637914746L563.4735238020785,378.8823148257243L562.2587650900987,378.3426450771085L561.408619007183,378.15481768864265L557.7011733037543,380.83047227759744L555.5555224717555,382.46811857891225L554.8925063209717,383.76902429763504L555.0048371418143,384.6063721066794L555.3342968316501,385.40136542131313L556.3201649769253,386.81499692054695L556.609714186885,387.11746546686027L559.9201695540669,389.57782332255283L560.3005084980468,389.7220857157763L560.8726027609027,389.7696409015607L562.5821457002185,389.46467839849447L563.5870440080853,388.9654889137728L564.3060934153818,388.96309505785575L565.0272572851918,389.1538042496659L565.5183412031329,389.4796793314972L565.8230881123836,389.7449058426L566.4419648582734,390.7436874727764L566.6351738701196,391.3680680050147L566.6263195583597,391.722769675167L566.4397182418561,392.38555656917833L566.0959859300765,393.07495447351175L565.0950522394178,394.3732436718137L564.5352482898998,395.22492895538835L564.3388675842871,395.7291511293479L564.2344659978571,396.20512216129464L564.1775076639933,397.17120889903526L564.3974117650323,398.21058821075894L564.4506697895031,398.9682624626066L564.3949008408017,399.3811300219104L564.1909873624973,399.81439617923934L563.7332062290861,400.28129390083086L562.8019176473499,400.76986087911155L560.7964821105434,401.0745684933645L559.8218470473512,400.862342198875L559.5934850962767,400.87398204433794L558.119836880729,401.4927928391253L557.0935296399512,401.6860358648246L556.082684406274,401.7223882048793L555.00629083479,401.3346248768921L553.3847623974525,401.1168220164718L552.5664654060929,401.1622643374885L551.7968010524601,401.30034427844294L551.108807813278,401.5285079296109L552.1664355299872,404.54673034553343L552.4910055252658,405.1129307985793L553.3555563840346,405.85714870749143L554.5976709547394,407.7601458160325L554.6407531283767,408.36477754346834L554.3106326690086,409.7133883765091L554.1167628876246,410.0682468857194L553.79364658532,410.4087557227931L553.3675823895592,410.64074935682856L552.573601717062,410.85823978246844L551.7152620919223,410.9087480486569L551.1477932158068,410.81203331732377L550.1958886245957,410.44157923910643L549.5018163056975,409.9141626303899L549.1214773617139,409.2012412133681L548.8578303175018,408.2277258004533L547.7174742550906,405.4411313149212L547.0197016267994,404.0613285074696L545.0539122620557,405.3091507132749L544.2842479084247,406.26964682272137L543.8663772548916,406.6658754548507L543.1242009138896,406.942081076515L541.2876580700686,406.9412841843814L540.1063342965281,407.0385046787651L539.5545917353302,407.1798715953255L539.0423631922877,407.41654233026657L538.522601876557,407.77289531387214L537.8969852814189,408.4948160551203L537.7386649009841,408.92221325385253L537.6544828623046,409.3894344396658L537.6503860911907,409.98172409140807L537.7945660035894,410.72583393892L538.0506802751115,411.21402428831516L538.4026061291152,411.5471754288574L539.1425358536999,411.88477935132323L543.3411976289772,412.9448551921114L544.763702282562,413.52599775687577L546.8601918612021,414.5822816659529L547.7988810617244,415.35496870500447L548.1525249165188,415.8206940742675L548.1892637026285,416.1948237007273L548.0847299622928,416.4259220314343L547.205906481584,417.45618089364507L546.0296045565028,419.22427251907993L544.669476546962,420.72879235855726L542.2067884923745,423.1957867277424L541.4220585933617,424.0760653626403L540.1486235467273,425.79363832748004L539.8955488150641,426.480861361204L539.8674000329011,427.26814897329314L540.107391527783,428.5268868522735L540.5942465207045,429.9742117830401L540.9291245207223,430.5019633346383L542.0240196391696,431.80510531835625L542.5358517204895,432.56138269239455L542.950814988073,433.42864777198884L543.3248105445255,433.9637411987005L543.9064198886754,434.3629797199701L546.1893786299133,435.4607457361508L546.8600597072964,435.7002639036782L548.4896495329522,435.9954411854769L549.5019484596032,436.479225450631L550.6067551210654,437.58477175808093L550.9302678850909,438.31321918418143L551.0403520895179,438.8675191425209L550.9111055685953,439.4962072758208L550.6764002299878,440.09799712964195L550.3298926861662,440.6051652879496L549.5020806135108,441.31039971535847L547.828483536865,442.02418187422154L546.4388852060911,442.2918802835575L545.9767429937547,442.18839417059826L542.3948435018556,439.7943231427116L541.5176058680281,439.9630140834661L538.2156083508889,440.158572125365L537.7549198315301,440.2553961653366L535.3335959497908,441.0792470973429L534.781721234689,440.4514269663141L533.943601157298,439.7426501933269L533.1995746616012,439.2529398929955L532.5710506805099,439.03971961312345L532.0473247475693,439.04401267182766L531.826759876998,439.1403676332857L531.3646176646616,439.6000318356837L531.0318541271536,440.04616634198374L530.7489126125383,440.57034776420915L530.3389711934178,441.6005272644852L530.3786173654789,442.1321202861418L530.5342946677756,442.4343114976882L530.842213270791,442.6346028734297L530.9146336117592,442.8094580164816L530.8093069479801,443.40998886619946L530.410466457035,444.1014090261888L530.4146953820564,444.4620462191824L530.5801520734622,444.81123056511933L530.1525020308181,446.5018746891983L530.1399474096652,447.14498910677503L530.249106536743,447.7062393681472L530.3891896780297,448.0432644521434L532.0271051998188,450.0383904108139L532.9272054595331,450.9067677245466L533.9572130097058,451.4529306303066L535.2902494683385,451.55825272511265L536.1551967888263,451.5061477783056L537.6390208552002,451.131717049142L539.5531380423545,450.01344717955726L540.4912986272502,449.68393804754396L541.0910130566426,449.77688140032933L541.6012592910811,449.9478319648897L542.173353553937,450.3180056781939L543.3341934719119,451.29867915699197L544.0632865761327,452.3121636220667L544.3587827119027,452.84238616206494L544.6065712872896,453.4281802840287L544.7426898113699,454.0307849880346L545.1066416709,454.0847862193832L545.4983458508723,454.2447239071753L545.507596624353,455.22050968647454L545.3585270174008,455.77316991488897L544.9481891365576,456.5868737455694L544.6475389984207,456.8571448141911L543.3825618018273,457.3405069962828L542.8392770906703,457.3735350623965L541.6949564110528,457.63775671613075L540.6472402373602,458.2269970552152L539.1410821607224,458.92655794593884L538.3985093580013,459.0791355785732L537.8598500335866,459.0688156051219L537.088335525259,458.9157615452559L536.1711874115554,458.5664616255972L532.2766117759948,456.34803986537827L531.8846432882092,455.9878755566142L530.4610814033676,453.9540711067939L528.2570185445311,451.17429178640486L528.0458366013481,451.2149600680914L527.5988920883028,451.48613180072334L526.292682872765,451.8065427721385L524.3919132302035,452.0060611228055L522.9912139712542,452.05768760949104L522.3747159956874,452.17142404180595L521.4892848196359,452.5796601325401L520.3669016885597,453.42563893216266L519.7445889410919,454.2474239315043L519.4038961691731,454.9900691725388L519.2508619450109,455.8682950942757L519.3548670697219,456.8555568681877L519.5783393262464,457.27810278796915L520.0456355409497,457.89276387389236L520.5680399348203,458.41530725535813L521.5940828677849,458.8879766513255L525.0074861284193,459.6694250851524L525.9515936391272,460.06553029168117L526.8955689959239,460.59624564172464L527.8148315721337,461.3087021640449L529.6270580970904,462.93810048964224L531.119075705692,464.10546521022843L531.7560575368207,465.0808644517938L532.2168782100871,466.4444975378847L532.2772725455306,467.21964322078475L532.1262206299743,468.26431461214815L532.0123039622467,468.6547765602463L531.8017827885978,469.05141483574516L531.2236094460277,469.6214432320294L529.4091363046555,470.9183161312467L528.7112315224585,471.1323081791743L528.2716876281957,471.13548075664767L526.259776549954,470.8791341263386L525.96361964465,470.9364000956848L525.5872453178745,471.10883108302005L524.5466654551528,471.948746740708L523.311951503234,472.6092221260087L522.6688905923875,472.8158917168885L520.2484917879992,473.2270010766815L519.8976231652523,473.3534083796285L519.3203749000295,473.7819474163407L518.9332961067958,474.428061235707L518.7854158850059,474.92586844909965L518.8173971304695,475.66580585556585L519.1426278952822,476.57616264918397L519.6063559545019,477.50326581506124L520.5351336120093,478.9041872782245L521.0143236783315,479.3704423028921L524.7548078584787,482.3618020859067L525.1188918719145,482.8670874043937L525.3450072065771,483.6571527671549L525.3226731963132,484.25399043006837L524.98343411737,484.6048541968885L524.4894428134776,485.1427011063879L523.6622915103562,485.86164620856744L523.139094193044,486.7082639232549L522.3371842861343,488.22485144713664L522.1928722198281,488.73895116810763L521.9573739577827,489.0085883794545L521.0358647651537,489.61469829209545L520.4168558653582,489.88954590450976L520.0010996743331,489.9340596111442L518.9011827074264,490.83127309773045L518.7788081896615,491.3289605305217L518.6684596774212,492.9001532571383L518.5511070081193,493.17541025864557L518.3372819867964,493.4429015665328L518.4360009552311,493.7024692664163L520.7892655749256,494.37915931924545L521.7274261598232,494.5221578902401L522.185735908859,494.5142399573406L523.7912737234637,494.1164371361747L524.8060835743472,493.76264899694615L525.4922266588328,493.4161368329487L526.0861263163206,492.96350403371434L527.1345032595491,491.53946643334257L526.812179880686,490.00090910591007L526.305237493918,488.5087572787388L526.1269618735441,487.37785195292145L526.105288632818,486.2257790380945L526.3246641182286,485.4968698657394L526.7574681632395,484.5585799951459L527.3931284553018,484.30295976014986L527.8403372761622,484.43861498507795L528.3526979731105,484.85365459244986L528.7257684522119,485.15569537901774L531.4564646299386,486.9937855775597L532.9824457926079,488.33749559074295L533.7016273538102,490.335468512294L533.9252317642422,491.3528782184276L533.8565117326689,492.0958897534347L533.5122508052627,492.9753822718012L532.5225501966852,494.128156014478L532.2631320774944,494.60656277146154L532.2619426923338,494.8224025396139L532.0869709196322,495.11329787675004L531.126872786197,495.6054464633653L530.3700273615323,495.48652800441687L530.0018465769826,495.5710853099472L527.923858545304,496.36517020562496L526.2199982239836,497.1850167121256L525.8119069595596,497.1577842798524L525.1433403446863,496.77383290892976L524.1461069634188,497.0664285752664L523.1706789767868,496.97253897772134L522.7443504732128,497.2082908992852L522.3885921559104,497.62009500136173L521.9353042553321,498.4927432884724L521.866848531572,498.877279899506L521.8916934660665,499.2978990299125L522.0131429064822,499.5552982953441L522.4565192640421,500.059318330299L524.2579091686366,501.5138128068811L526.1325123376355,502.5889540321896L526.7898458704221,502.8755703166007L527.5383655989554,503.08463342711184L529.1621406527101,503.2104495896656L530.8905816007064,502.963089174018L533.1788264982224,501.84745902658324L534.4817318660862,500.9614110983657L535.3531547280108,500.01895308445455L536.3962455149631,498.5679417012152L536.9335833003097,497.1044275555887L536.9171962158562,495.80670292273044L536.6345190090542,494.8488478246836L536.6269862363624,494.5334013471229L536.7337665931173,493.919273428417L537.0567507415144,493.1166533294281L537.4152842908625,492.53888987110895L538.0850402908982,491.7062532440268L538.7014061125574,491.2925295351388L539.2326648181879,491.0612696587159L539.6633544006872,491.03545067745745L540.5794452831342,491.147438177386L540.9655989990188,491.35794686217196L541.6095849872145,491.9151694784032L541.9012486596821,492.69378607677936L541.8310749351331,495.3283379404411L541.2854114536531,496.510681487629L539.565824817415,498.9285717429848L537.5096421803701,500.54084283441443L536.1082821518849,501.90063908065804L535.4076021376422,502.85800317326994L533.6035691549132,505.6007381954714L532.9825779465136,506.18776314499155L530.9891684152353,507.5558613651983L530.7775900103297,507.77355475851436L530.7212924460018,507.9455237782986L530.8866169835001,509.92230139708863L530.7643746196427,510.4806707160096L530.5714299156061,510.8670869998705L530.5299335888485,511.20272100413877L530.8196149527157,513.4295294370304L530.8011134057524,515.7665006787247L531.0070091926627,516.2283452095253L532.9256196126516,518.8152424973268L532.9270733056255,519.688287931699L532.5900808430997,520.6730257521031L533.894439903941,521.6894607234626L534.0246115022128,521.908511544716L534.4075935243309,523.1304542336238L534.9050208298013,524.2402549294602L535.4890089442761,524.8930093283388L536.287482849606,525.4735255718915L536.4205618338274,525.4659414124362L536.7062785804883,524.9200289980463L536.9947705591931,523.5182546183223L537.4254601416942,522.8325643091321L537.5770406728752,522.4395294137621L538.1327478512794,519.8590019300682L538.4555998457727,519.0836588696593L538.7793769176114,518.6579525030784L539.138042620867,518.3329335280723L539.926076367552,517.925226235303L540.6571517803768,517.7204985646249L541.7546899769604,517.7646061728228L542.5953209785821,517.9995281906713L543.152878311681,518.4135566532041L543.5505294174636,519.0112596792032L543.751006894192,519.7034625948418L543.7032993338089,520.4623325406137L543.543921722121,521.1626814238098L543.2192195729331,522.0185097804651L542.8546069438671,523.4071621411131L542.3631265642052,524.2126018591307L541.0698684315412,525.5950295588382L540.8429601734406,526.2861125355112L540.4360582941772,526.2933802569305L540.1227213809798,526.7420756537012L540.1732041734067,527.1834892307279L539.7230879665949,527.259479193327L539.2512985190551,527.1545781788755L539.045931347775,527.3101915969964L539.045931347775,527.7226771634787L538.9920125537701,527.8275738655375L538.5634374337824,528.0809656261772L538.1529673990317,528.0773322360046L537.3961219743669,528.2086075963689L537.6342633145523,529.8860105395997L538.0235887242034,531.7315662549827L538.366792420351,534.5192545724358L538.2976759270568,537.5278685265157L538.2087363477331,538.4715569453883L537.9408603785014,540.1518197987671L537.6404745481759,541.0233610516398L537.1992126531259,541.4856249806553L535.7301898243222,542.2949048134769L534.4390461541661,542.5732810975633L532.116837702586,542.6889539515232L530.5739408398385,542.5810136922773L529.6451631823311,542.437407657706L529.4481217071825,542.2627112769114L529.2945588673974,541.7433434434897L528.3320819636374,540.7769928534353L528.153277727637,540.687819427335L527.128424179833,540.5524009849278L525.244438083444,540.7020240823258L524.5762679302934,540.9987402116267L523.987390121265,541.4843624166806L523.7069595308785,541.8004732801674L522.8500735987109,543.3170107078295L522.8092380414873,543.9279973991925L522.8920985410969,545.760007007987L522.9366344077134,545.9892475590668L523.0632378504979,546.1872464979324L523.6201344140627,546.5609913693161L525.6179050242699,547.5386123454173L526.4257618569864,548.5992933693769L526.5813070053773,548.9655596736538L526.8498437441449,549.202160671005L527.589377007007,549.4614707282863L528.2847708649751,549.5526381975733L529.716394138135,550.1824344683027L533.0445581288368,552.9385017510303L533.4996961841098,553.7207806926572L533.6188990081082,554.2324470596595L533.6075337721177,554.4517719216419L533.2028785092716,555.7056885849179L532.9101576055473,557.0143522052113L532.4566053971575,557.7587267232284L531.352988120856,558.5181935354849L530.6942008950919,558.7554198843545L529.7249841420835,558.9002757093622L528.8789348302798,559.3308936829071L528.0591841459427,559.9449583070718L527.5412729849068,561.2614176276402L527.5688931514433,562.4000000000005L514.4929248358476,562.245883165655L511.9317821206405,562.2580171706104L508.2819555206079,562.2178330876714L506.8956610375062,562.205383877621L506.5611794992092,562.2017594219687L506.3815823397672,562.1998684012524L505.9360915196976,562.1927770712746L505.5073842458005,562.1757578645693L499.82410548070584,562.1339976857471L493.2890947858141,562.0990135903075L491.92579508250856,562.0859339284107L489.6016043223244,562.1262759785577L484.869569378905,562.0728542542056L483.42354132989567,561.9779868512451L475.5767709553784,561.9691619436317L473.88097202237805,561.9584459768603L472.9145305014117,562.027154091079L472.8929894145913,562.0199050858791L469.03422748779303,562.0139167743855L467.89585373398586,561.9885452154858L466.6992001072467,562.000837032414L452.3127936510955,561.8542800458517L449.73090277250776,561.9423720112063L433.8645047132777,561.8292233741104L423.9697452439432,561.8620019041355L423.7111200481886,561.8765000754538L408.22968631968615,561.7606718715424L387.9149877550972,561.6161610447425L378.68549105296006,561.4549438127642L372.9726098127285,561.4161757537304L369.4081546365378,561.3722069705464L368.4269118780012,561.3581810570422L355.28129845348485,561.1544097282676L351.1024597642372,561.1307701695787L350.7862154650902,561.130612572385L323.3625617880589,560.7924048794212L322.7553145859729,560.778063178378L321.7418262741612,560.7890952574153L321.55139249435706,560.78547043241L320.46733399627374,560.7861008368291L312.0972341505367,560.7090336849824L307.568980531516,560.579011447754L305.8146374177704,560.5202252369063L305.7864886356074,560.5145514875776L304.4806758817904,560.5047800249758L302.71734630237734,560.5158123209667L292.2715050413808,560.3983967213771L289.02263339480123,560.3377184723668L275.866844119455,560.2431544391957L275.53897027650237,560.2264480597796L274.4472468518197,560.2217198355447L271.8632415107222,560.2441000827112L271.8021864057482,560.2513500142059L264.81018750088515,560.2330675710082L259.12082965607806,560.2180948625437L256.70888870172894,560.148432154162L253.67542792335553,560.2116329517994L244.48095200654097,560.1857852787798L244.4522746087514,560.1821602964001L240.2292965146098,560.157258217987L235.36854366589614,560.1734918564471L223.48685020671473,560.1140734951832L220.51814484271017,560.1405517352996L220.33484737387698,560.140709343721L216.35992216293744,560.1132854515499L215.8385750003199,560.1099756677995L214.9686058313746,560.10903001516L189.62492249462048,559.9807358764028L177.56191387521176,559.994132739891L149.81990143652183,560.0201383792019L149.3563055312079,560.0308558406323L148.31810443881113,560.029910182604L147.57738179078478,560.0231329648459L147.37650785233745,560.018247061621L147.36699277104344,550.5164845962727L147.3889303195847,548.4278294627102L147.37082523434037,541.9331966597392L147.36157446086145,541.2589929028736L147.34730183891952,540.4202957040234L147.40888555952188,537.766085674355L147.3882695500506,531.5300438672721L147.38602293363328,531.0750283643338L147.38813739614125,529.0922747480608L147.40743186654436,524.8892170897661L147.371221696063,523.5768820091926L147.36514261634693,521.8738998496128L147.3730718507577,520.2423103902247L147.36289599993142,510.8705667534441L147.36289599993142,508.2046597913404L147.36289599993142,507.4538164025871L147.3548346116113,506.400098620873L147.3890624734904,504.43594963216765L147.36474615462612,503.40004208725895L147.38668370316736,496.6710746200297L147.37333615857278,494.96112095338685L147.37333615857278,494.20100287166406L147.3469053771987,488.7364163630855L147.3348793716723,485.45566949557906L147.3705609265271,485.13731323363936L147.32219259661179,477.32647571251255L147.31518843954836,475.881943766567L147.31228105359696,475.7506439601193L146.97000243479488,475.898435440743L146.4186563353196,475.93617592810006L146.197959310839,475.69799682438315L145.641062747276,475.992786464205L144.87457008740967,476.1453324586937L144.400930485177,475.9637676471866L143.9235905735477,475.5678052976464L143.51867100288655,475.495176600155L143.29797397840957,475.1827736639598L143.30881059877174,474.7940837191645L143.57629010628443,474.5725366166125L144.0698849484579,474.3696997276393L144.2416850273912,474.37080986734145L144.96919228473052,474.65547843542754L145.14495698087376,474.6412055004721L145.595337495497,474.36383184486385L145.69828538895126,474.2228433109667L145.641062747276,473.371964936925L145.57472148602574,473.28108514710766L144.95558043232086,473.1256523460761L144.22040824838587,473.1091573330359L144.0942012673204,472.9153394414052L144.03089954592906,472.6241316252972L143.99402860591363,472.37098515852267L143.86742516312552,472.27597471902754L143.75139403288995,472.21268693187994L143.62479059010548,472.1684328918818L143.57721518363178,472.20634227542996L143.53505808734008,472.27597471902754L143.53505808734008,472.3773297386806L143.50875945987173,472.5229370453226L143.45074389475485,472.5817822604149L142.13303728931896,472.06501429087984L141.30020336820235,472.0919793388184L140.17729162149953,472.34624126782455L139.82483715186936,472.52880571694095L139.4192568116705,472.8806041938651L138.1417249939259,473.4133602433594L137.20885056530824,473.41209142356365L137.14898484549303,473.64983447989016L137.1008808233928,474.43408768161316L136.81542838454516,475.61442700971475L136.68076355344056,475.7749059756552L136.28430183282035,476.0053136940869L136.05171095672267,475.9569490091353L135.6917237143989,475.64265368344786L135.47155530554846,474.8467343289394L135.3050413828878,473.0615754533128L135.19482502455685,472.7722740659983L135.07535789274334,472.71596743849113L134.96725599692036,472.7775081914415L134.10323375378175,473.64904148122605L133.86046702685417,473.7311958988321L133.42687005840162,473.62160369915637L133.03886618782235,473.19194940962825L132.99935216966696,473.0192274413039L133.06516481528888,472.6517300173182L133.29656630622594,472.3647991900425L133.80364084689973,472.0478835269514L134.15318793058032,471.71081552486976L134.30807230943356,471.41498194631095L134.26736890611755,471.1294528588196L133.97359077113651,471.01714311912747L133.75355451619544,471.0366546230898L133.39885343014612,471.31869585843924L132.88424611678056,471.99664972544906L132.33501447981325,472.02424938227705L131.74098266841793,471.4655834244877L131.64411385468156,471.2108292555349L131.76675268025792,470.0853174524036L131.61028245451962,469.93714593224195L129.75206636997245,469.59272820300976L129.1503696319778,469.349203297219L128.74954683242868,469.02079477038296L127.82737687026747,470.16432045525744L127.35505880710298,470.89214192987583L127.08136806596667,471.07726384297166L126.65636110146079,471.175772426589L126.14941871469637,471.2205055590284L125.85868011957245,471.1310391479765L125.17425503587583,470.85137352866604L124.90598260492334,470.79680396114236L124.71647390246471,470.8443937123957L124.3508040421475,471.23303715502607L124.32305172170163,471.46732829970915L124.49049072171147,471.92225726989454L125.12641532158705,472.33751744954134L125.34631942262422,472.3793917266021L125.6449872521589,472.24567909801954L126.0599505197406,472.14226108048933L126.4774247115547,472.0080702798505L127.10370207622873,472.1779499018048L127.36378096495355,472.35274447420034L127.61698785052431,472.86870854089375L127.96045585448883,474.13292073212324L127.76896484342979,474.89224839779126L127.51589011176657,475.1320273367146L127.1000017668357,475.2955249869319L126.91207891126214,475.2772881973242L126.69151404069089,475.14296952942277L126.46011254975201,474.8668747195243L126.14862579125474,473.4839381592801L125.87903182123046,473.37561280420414L125.5560476728333,473.4260484348388L124.82576518345013,474.025076296346L124.08345668854236,475.14122512248014L123.59448723310925,475.4596550009064L123.13578102235078,475.64614236941907L122.41527792207853,475.77680887701626L121.61442524642553,475.6837249756163L119.9898572692291,475.0351330459771L119.80854210899815,474.8094665989702L119.71418421949056,474.4515326416622L119.70784083196304,474.2279182889979L119.86946506006643,473.684726375669L120.76044670020929,472.3732057619127L121.48702888019943,471.86991265591405L121.60504231903542,471.70573961388527L121.75556561896519,471.2049600189375L121.81807441691672,470.3994230793378L121.73759268763024,470.17431477854643L121.31377510828861,469.8372006390646L120.97043925822982,469.8097552165427L120.55349368204588,469.9041482018629L119.66489081222608,470.3753101755374L118.9849589613641,470.95210457173744L118.33026850671195,471.7696642304727L117.94517202208408,472.36686117984755L117.26008616885156,473.7635500129745L117.24343477658476,474.01127849108525L117.10876994548016,474.28136403721237L116.78168902596917,474.7358823577979L116.63261941901692,474.8449898842673L116.17153443793359,474.99374264085327L115.05060499983301,474.9696378262215L114.80374150179341,474.89716454252357L114.61066464385112,474.70099313978335L114.50679167304952,473.9700435879149L114.68057406058688,473.26839682131504L115.76423609695121,472.46202960217306L115.97132126902034,472.15764693930396L115.93907571574346,471.7961539965254L115.70133083727887,471.1948078199621L115.57789908826089,471.04997953664406L115.12289318689363,470.96765039897036L114.84484136683204,471.00984612676075L114.29917788535204,471.2834806785813L113.62069972746212,471.9498570766891L113.27300279847987,472.45679535613453L112.93548172032206,473.20892013745834L112.45919903995309,474.55429886442744L112.58685971399245,474.8906625442787L112.56108970215064,475.2173444917353L112.14189750954756,475.8426173865L110.83225229243362,476.28804546876927L110.28143480858307,476.13407392463705L109.3656082339512,475.681029180294L109.20134092770604,475.5770027908202L109.02029007529018,475.2569898290385L108.92883957173399,474.9247583543829L108.86474492690104,474.11991600695455L108.79073873905145,473.9524394183609L108.3305788353191,473.39892741126187L108.04578716600554,473.2726791325849L107.59038480291747,473.28124375110656L107.39347548167825,473.36229015378285L106.47897044611273,474.17764420492495L106.44989658660234,474.4252066025101L107.15863798916325,475.75952417993994L107.14634767582538,475.93696879436993L106.93992327328851,476.36812267336154L106.01484592517409,477.18932307534396L105.61508035688166,477.1813951352751L105.30042190461609,476.9621064948742L105.04325040184085,476.907561269968L103.94624082088376,476.9005845394877L103.70902455804753,476.98462219300745L102.61558313257592,477.0537546687574L102.03159501809932,476.91295237744635L101.5784392714304,476.61881679669204L101.17431262421269,475.92682010269436L100.4627959896061,475.41176412754794L100.30592930214698,475.2360571052368L100.2730229793342,474.98565484593473L100.29496052787727,474.53748839308264L100.53667002354996,474.15512389290507L100.89903603619678,473.87837478147776L101.20285786809836,473.68361618035397L101.77178043718777,473.64808988276855L102.50100569531423,473.40289247654346L102.82385768980748,473.1037647283065L103.02605316732297,472.72532545741706L103.13190844673045,472.20507334378635L103.09014781215774,471.8228023322172L102.88226971664517,471.2536587437189L102.4543553661897,470.83154449586436L102.05260748929504,471.05045542617154L100.54407064233419,472.6810730742536L99.75114720109195,473.18608102221606L99.0165036327835,473.22208433241576L98.5838317416783,473.14373339524263L98.45432091294424,473.03635699002734L96.75918274947617,470.33073291915935L96.54826511410829,469.8716263224469L96.22303434929381,469.5852718044034L94.97034746603822,469.1045634911925L94.70352872806143,469.52530317429046L94.59423744707601,469.56639281956177L93.70246288349335,469.621760524833L93.37075657724199,469.547672455933L93.05702320232376,469.4109178363706L92.49721925280937,468.4515346530161L91.19497465447785,468.26653588188765L90.78979077600343,467.92509075810995L90.68116026455209,467.7542063327728L90.6557867144329,467.51080737522807L91.01458457159424,467.01622131700424L91.95485961900158,466.5003539256131L92.95486823231113,465.77214010972875L93.19380249593814,465.48173241581844L93.2778523807101,465.1911598574716L93.22684097265665,464.58746015656834L92.89064143357245,464.5404834576102L92.22577512809039,464.3017885479903L92.1143693845952,464.1440317795723L91.9019980562498,463.27189285517306L92.41990921728757,463.0284141117463L93.7898166159357,462.7025521371661L93.91364482667996,462.42350779911976L93.99861978879744,461.80079616854255L93.76523598925814,461.3899782662793L92.94812838306098,461.05074258343393L92.36955857876819,461.0121672861169L92.07155151876759,461.2550469723219L91.71037489128321,462.2012841153073L91.46073616119975,462.42239668968705L90.09426476412773,461.9962001958784L89.44697492826162,462.01651824472265L88.84408880510637,462.167632785372L88.88347066935239,459.7161010049149L88.8899462107911,458.1160103166758L89.02315734891818,454.2220119167123L89.01047057385767,453.63704602330927L89.11302200559294,450.50134121432984L89.10852877275829,449.6432652016556L89.24121129525884,444.2671857037176L89.24226852651555,444.2328543617559L89.25350160859853,443.7785917035044L89.2660562297533,443.35769382250874L89.37706551152587,438.1554796728333L89.41657952967944,437.0883047907564L89.44063154073046,435.98621699232444L89.44142446417573,435.948365927371L89.54463666544143,431.6092681216869L89.62657208770179,428.24189079752523L89.75343983830135,423.48837029632887L89.77352723214608,423.44252519166366L89.96581116664674,414.481610890567L90.01193288014656,411.92014841210766L90.022637346603,411.35821552867856L90.29513870257506,401.4301317606678L90.29500654866933,401.0820625240658L90.29500654866933,401.0758440733498L91.49086725196867,348.32394842679787L91.54663620066822,347.1273501954629L91.71169643035319,340.21540667105L91.75927183682688,338.3329599919416L91.77843415332427,337.5127507382613L92.11172630645888,323.42807095436183L92.25590621885749,317.36355815570823L92.25669914229911,316.9455961363965L92.59395591264001,302.96705519191073L92.58999129543372,301.6794884243236L93.55431835389027,267.5089515141199L93.56660866722814,266.9805487948406L93.57652021024478,266.5552023103246L93.6340071597333,264.3134119229826L93.70959919446614,261.848099658263L93.70589888507311,261.26871767949797L93.68382918262614,260.9920683395476L94.74383566965662,224.8740246086163L94.80700523714404,223.40659241173307L94.96611854102048,216.90426371248668L94.97153685119883,216.45644458953484L95.05730473675976,213.9703668364873L95.03140257101404,212.9346317992622L95.02770226162284,212.33466049584695L95.10884476044157,210.50886495536906L95.13831508167459,210.11986606014125L95.22672604537183,206.8935616542458L95.2008238796243,205.54498896935092L95.22672604537183,205.07073089398L95.35663333583034,203.7936600932435L95.46010984491295,200.36152315246454L95.47411815904161,199.88125014527668L95.52565818271978,199.61803947774388L95.5304157233677,197.74141766338926L95.54495265312471,197.09234056712376L95.68437502487541,194.66364247622278L95.98832901068454,185.527419927349L95.96189822930864,184.79816535160353L96.02797518274747,184.44162609624982L95.7768827596883,183.35574213023665L95.87335511170386,182.62393514404994L95.7108058062513,181.5565418947508L96.06762135480858,180.43815744990388L93.62528500187909,163.82230297237493L91.8250844824488,149.86475260256975L91.72213658899636,149.11643890776486L91.67456118252267,148.84927805632378L91.5668557484205,148.01590896263497L90.59222068522831,140.7787264712906L88.61810562435312,126.52781042347578L88.53550943255686,126.02429805787597L87.85465250434208,120.70765507890155L87.69778581688297,119.66351185548683L87.10362185158192,115.5654420141027L87.02406519964279,115.00333661923196L86.90790191550332,114.06937305037536L86.87644928566624,113.87742313139461L86.82385203073136,113.45212496948079L86.57949945692235,111.69538140215445L86.39091583181471,110.20261378784016L86.23180252793827,109.01939280959868L85.96894840716595,107.01864082217253L84.6553385728439,97.89126410838799L83.9830716485776,92.60678384289713L83.9830716485776,92.51717836514854L83.9862433423441,92.50199923350738L83.94976886404584,92.30042520080497L83.76026016159085,91.00717533232546L83.72114260515445,90.73342653034615L83.25569654514766,87.47835774672785L83.23679853646354,87.41484161128028L82.73910692317804,83.85515186676457L82.5309645198522,82.39297404564422L82.37158690816432,81.43345217452497L82.25634870137037,80.59556810138838L80.67169120405197,69.24241082375374L80.65107519457888,69.07726307129178L78.8942211566009,56.99953783339515L78.67775305714349,55.42185005371448L78.30085011473966,52.68961314142689L78.1775505196274,51.81612406702061L77.56105254406248,47.373752949418304L77.48797143356205,46.907433332762594L77.14582496866751,44.245794460658544L77.08173032383456,43.7960722876569L77.0564889276211,43.64190159934151L76.93332148641275,42.595261303227744L76.68275767898012,41.04218310261422L76.6848721414899,40.95500326318597L75.58574809802485,32.77695935138581L74.63463643025716,25.26902747474196L73.79863081537405,18.401524740551395L73.49983083193365,16.015538448392363L73.4153844854427,15.496187050613116L73.0473358547988,12.759350149813145L72.22784947827677,6.257459082899004L71.93433565111263,3.838465621767682L71.73861571503039,2.4013133899898094L71.39395832590526,0.030578168059037125Z" class="state" fill="coral" stroke="#111" stroke-width="0.5"></path></g></svg>