<svg width="800" height="309.6" xmlns="http://www.w3.org/2000/svg"><g transform="translate(0, 0)" id="single_state_map"><path d="M673.6445345710054,268.51264225606565L664.8485896755201,268.4616449924224L654.7945925202011,268.4465848296909L654.7806522499286,268.4465848296909L645.9384073748179,268.4196961465241L645.8794925932398,268.4359198705438L643.0823430837181,268.3777468254789L641.5518842310194,268.4069627356621L641.3138484028923,268.3994002323461L629.7421900200425,268.31834473988465L629.6944731604872,268.325325665508L629.4210610399305,268.327846552083L628.8205324789151,268.32429145513424L591.8143710730283,268.3209949076436L588.8290050619271,268.2857669129803L588.7889667774716,268.3474964809261L588.1524677485731,268.75721252954827L572.8226496176821,268.74809960341963L544.247975024814,268.61256641732143L544.0604898161,268.6085591613196L536.8423549864356,268.5777289983848L535.7365030544952,268.5402412427811L535.2820502436125,268.56641807761343L534.3338376302618,268.4284220626978L533.4220982486386,268.38614965511624L533.03145074038,268.3395460288534L523.101362020172,268.2556450958209L516.6747146013531,268.25092641986294L511.3831708291473,268.28654257885637L511.33609385084947,268.29100265449006L504.85501081926304,268.2963030272422L493.5794346358389,268.24543206356975L493.42814842403004,268.2675387181325L486.6304612869435,268.27794560632265L483.4726929825056,268.3116223546249L482.5741168724844,268.3332761481083L482.06193763093324,268.3816250569116L481.0629915749496,268.33036743694174L470.5745150451721,268.36656456877927L467.592576969384,268.30923073384884L467.0183749515718,268.3153067403641L444.90691242085813,268.37095991069964L443.9586083958984,268.3718001960633L443.02461028764446,267.9649505052207L435.7123215013853,268.00108656511884L435.44434837152494,268.0050944784816L430.5803823973465,268.04859945250337L430.0904618824279,268.03069330665994L421.50284404235845,268.1765256795388L417.41893902798347,268.1826665444132L413.43992883418287,268.2428464813165L411.24801558350737,268.2051614150887L407.72647478366434,268.1348968112675L402.27308675888435,268.1414255932873L400.8793339664644,268.11375899250106L400.8426322057139,268.10968655483885L397.0144968714858,268.09417246558087L392.9283979785105,268.592982528266L388.93978956583396,268.5501949252334L387.2180062168718,268.4011454267902L386.4094705410698,268.40780301285486L385.46943926666427,268.30826115741866L383.63074047062946,268.74667772639987L379.7392111860145,268.8403265515094L377.0382266884708,268.8339928891987L376.797448512094,268.8483405576844L369.81181910825217,268.84271782936L367.7324335474477,268.4792258774528L367.23940503784434,268.3508576425229L366.1674211067948,268.155775944997L354.3174143765382,268.25965273369275L353.818124171763,268.26120407622057L353.7720527211577,272.48749285435906L353.79847067596984,272.6374756551045L353.7409270685166,276.9555148909708L353.76250020808584,284.4755661095405L353.80386396086124,286.05745860305933L353.8177128195257,292.5116361715177L354.1026428027335,302.1868017233869L353.4739594663479,302.05863042247574L350.7350391513428,300.9319942899356L350.3362560099413,300.5304848155274L349.9671359354488,299.42896365672595L349.77965072673487,298.2352342741465L349.0468495684454,297.55267529018465L348.7131057863817,297.49854746007804L348.30838089043846,297.17793299977484L347.99739859885267,296.2378652945745L347.67444138657356,295.9691760291271L347.1331932535695,295.67185021920704L346.04772611028875,295.3311218963563L345.8204768519454,294.9448613317895L345.77262287497706,293.66816498318303L346.0955800872571,292.60956848587966L344.7920962580756,290.83097361326736L344.3277709934928,290.92310370382893L343.682542155997,290.53966306677466L344.057603985033,289.72658440017767L342.80023731226083,287.541387522278L341.5474869257114,286.1133610670954L340.73931689634173,285.80289556748585L340.4270091364351,286.0499963003699L340.0803763175945,285.91213399933804L339.5796692328904,285.21991470568537L339.60037396218104,284.9706996735408L339.212331684761,284.45194683622503L338.7440757210179,284.1408921129596L338.33962505990075,284.30688130704175L338.159041427617,284.680860833098L338.3119730483768,284.81986273978464L338.12384795840535,286.1861166412082L337.40644965612137,286.99668865165404L336.9519968452387,286.78554013255825L336.7056425607525,286.3915743049565L336.2856519262159,286.366037448076L334.1271496183899,287.1952203634305L333.97540634853885,287.36936903979677L333.93477388862993,287.6732093911155L334.1783858248664,288.4860935176557L334.4945785781283,288.8194127901138L334.9126495688897,289.0159832477357L334.71405784976196,289.9065270014644L333.2623500976524,291.8167887101945L332.4968692893799,293.2536742490229L332.31057243157466,293.7986147406373L332.38146213384516,294.3954668958627L332.6139675596687,295.2085547579891L333.85268626433754,296.62687869806086L334.8965611258218,297.18915721577423L334.96278883606647,297.6716383199787L334.78243373280384,297.90871937093425L333.4519377733577,297.95758300165653L332.66109024376965,297.69369897190154L332.39092323530895,297.4238318080761L331.3565551810925,296.8649241250828L330.90223948762286,297.03195097934895L330.61717238700294,296.9861540372308L329.5682698870596,296.49646365026956L329.2938065330072,296.58248805713674L328.86046980365336,297.0502311144669L328.25916424396564,297.38496625105427L325.1892882009506,296.68756215931217L324.1541888538677,296.6656880021246L323.91034838861015,297.3070415142879L323.6397243221081,297.73435692490966L322.6471313729053,297.76533106198576L322.2261809164811,297.9124386723993L321.65188748705987,298.3612926788678L321.5176038344025,298.6129479253045L319.4787593218989,299.48331990747374L319.4146797844505,299.7748302649884L318.7942691986191,299.9305751554898L317.8319791975837,298.8547774462377L317.5234193136175,297.97201111677987L316.55395350132585,296.42012414915735L315.7610492105505,296.4598978655931L315.04282820379194,296.85652127096773L313.01463314366083,296.8856425318868L312.8509606589205,297.3162771236175L311.5112778328348,298.17431948121794L310.8532056643671,298.25370087822785L310.0022092964882,297.8109901908815L309.1403349472175,297.5356161298464L309.03438889314657,297.7889943600112L309.0751584704685,298.10801740866873L308.9467251607457,298.58204493333824L308.1929907441454,298.2764634068935L307.48103143255776,298.1472601702112L306.3707003318077,298.60262558506247L306.23381144831274,299.0379342939377L305.99317038934805,299.1895431603484L305.7559115598906,299.190697030871L304.9173928765522,298.69719254228266L304.73562089335974,298.19881375951945L304.398494881787,297.9672658761806L303.112196434975,297.85472495647537L302.42176455715344,298.40906039279344L302.2282461822897,298.40611099459875L300.5023493109511,297.73589601853337L300.14680386029704,297.35270624870554L300.2672843600949,296.984229783664L300.1175521456271,296.501852261933L299.5385510183769,296.1597882924643L298.8127428481257,296.0683649113339L297.55482770570416,296.13534478677457L296.57420967719463,296.82951655064335L296.3339342646623,297.0934616742884L296.23575819730104,297.3171108927795L296.2375407236632,297.83971924419666L296.0460334041827,298.0186295787448L294.69332442390896,298.0454974512836L294.44578178851316,298.24126157857336L294.23064456827524,298.676676524472L294.33654491654306,300.9660815210382L294.23023321603887,301.4047666853353L293.78057951459414,302.6299548780162L292.9293089118919,303.85269290328506L290.73757848443256,302.946131339942L289.5947048511116,302.0818822141882L289.00692820946006,301.80534947083424L287.7681637989872,302.89265796130167L287.24698051401356,302.67529841531314L287.23221753926646,302.4207142275177L286.91981836775085,302.0771421912523L285.86319158690276,301.5526919880108L285.4715842567575,301.49138281772866L284.422361816185,301.7441085052337L283.9340410044124,301.71944528063204L283.12660226791013,301.10140219807136L280.43759269105976,301.43833708140755L280.2644133990525,301.39387546151784L279.9589158039662,301.0853843812065L278.2839809042807,300.3319568491065L277.76773384615717,300.24730049564323L277.0376293303143,300.57957047824584L276.4010845956118,301.0874346655969L274.9255641195268,301.4939453946213L274.1682646502013,302.6966250583655L272.782099021274,304.2103138235566L272.42362839915313,305.47886885680737L273.0698170585365,306.45257177861913L273.4943325676859,307.4224395025003L273.4654464994492,308.3288125127888L273.1341251250069,308.7864564692791L272.0202746773348,309.60000000000036L271.53871832457935,309.48787255451043L270.333273445347,308.18735807397707L270.13801824992424,307.1922298147674L268.7869089727965,306.75563046128445L267.16234186930797,305.8598826158686L265.76666943311193,304.73477546117647L264.76744914230403,303.67623861817947L263.973402206424,300.9212298365619L264.0776571457409,299.23973619854587L264.0255068231809,298.69860301436665L263.433845188174,298.14514414947143L262.97230797764496,297.52824090481226L262.99319553015266,296.3428849470056L262.1381313457032,295.56706834380293L261.0984157123976,293.9695663481307L261.5581703965645,293.21791134967543L261.9314496992365,292.9955572972476L262.33471200944587,292.9142660199768L262.4828445207677,292.7518065771487L262.67389478220593,292.22565908863L262.5753987742164,291.73945411327395L261.9316325224536,290.9415422977636L261.8074498525184,290.49160170541063L261.7108277824991,289.7545403388899L261.83258804481284,289.43557311238783L261.83240522159576,289.0070484520106L261.18585091577916,288.24089034324334L260.4473365319691,287.8496504805521L260.3061055970775,287.1357970158242L260.2611310857719,285.8204588532635L259.5876103554938,285.2364512344261L258.76719117060657,284.2931081543834L258.63555845459086,283.8202847995585L258.9242820195459,283.5223095574638L258.921265436471,283.00090809447283L258.5023717412341,282.75231697208574L257.6984980574571,282.48516439364084L257.442545554095,282.60918120997803L256.73136324117786,282.07979500374086L256.5472145561689,281.66613742789195L256.0460504134235,281.11310522488566L255.34839701854253,280.6673861456875L254.0181295881166,280.3404872100109L253.63250971831803,279.77308112169567L252.20575733528585,280.4331351185101L251.3625766599207,281.0353546403544L251.14876490800452,281.3170397914869L249.31157440350762,282.22720131484084L248.74802183806696,281.7833547421669L248.71470230682553,281.5435705353816L249.08359385229687,281.32264364718367L249.1106516883665,281.2123041061245L248.6553304672061,279.97618714926193L247.69134935141392,279.00566280528983L247.3791330031163,278.84182152843186L245.62439576934503,278.50696213414403L244.1300445019424,277.0350920610649L243.23868990897972,274.1048306178777L242.4823502615418,273.0267698961634L242.13388921053502,272.0734106887162L242.33037846267052,271.6676776571617L242.9524344574511,271.5570507126704L243.2291831017128,271.65489082357726L243.56347535342593,271.7022922984752L244.40944408284486,271.3481873399692L244.64601732523988,270.93830558307354L244.59665505673365,269.888463097534L244.4983418719603,269.3394884868735L244.50423792069796,268.440638310803L244.92281167530564,267.89623283883793L244.3659778630772,266.07277713510075L244.4020397425702,265.3657200863063L244.27177820067936,264.5150156482032L243.87834263836703,264.15058076666855L243.6728950486131,264.28802455864434L243.2753916697302,264.35629158737856L242.74940927531952,264.2385867959101L241.1562877651004,262.3282560175062L241.58203733096252,261.8835097489409L241.77313329820572,261.40522964541697L241.46672158703677,260.8912005723337L240.33801675300947,260.9038303402763L239.9517570019516,261.08161403251415L239.5744098827081,261.0417186912837L238.66367602877745,260.0370690362611L237.75129676589586,257.59892926921975L237.96798798347572,256.8888878030957L237.52852667636125,255.97273775705253L235.81990659900111,254.5541630914904L235.33953859715348,253.56143977426427L235.2177326290348,253.14425923680392L234.89948311458556,252.70768782090636L234.5061389638813,252.39421506507142L234.10502482646825,252.18997929847865L233.90666163636251,252.19913314616952L233.62342276790878,251.91113311957815L233.29923149891601,251.16538378962332L233.32126169652747,250.79384887607148L233.48031789504512,250.43695566084216L233.42172305409713,249.972975289877L231.3081952575758,247.26217014729673L231.16522750212607,246.9711834707996L231.09799426418977,245.94064828255796L231.3114403696727,244.69522026670938L231.45495659477274,243.3731016643237L231.42287112024405,243.0402198788106L231.36299651677837,242.89833735227694L230.62512201422578,242.2235394379095L230.15078717852884,241.97739972774843L229.9552120424778,241.71047478412174L229.82472197156585,241.21915202663695L230.03908219313234,240.59497457074076L229.98318399463096,240.3558901171241L229.12935386689423,239.02465238890727L229.08876711278845,238.82221459265384L230.19365922284214,237.14149156661097L229.91777898885994,234.54052184947386L229.353815071182,234.35825576937532L228.52114673077722,234.35518965553774L228.23457133861848,234.37495625934298L227.946853301356,234.58703282474517L226.7854231115416,234.53347665735873L227.45670425741537,231.55782659665465L228.14558213789587,230.6416154532999L228.2157405472999,230.39117155615713L228.22972652337648,229.84006943701615L228.05723281843075,229.21852695667258L227.3104456840647,228.54297398117706L225.55826797532882,227.81279245804444L224.43381378108916,228.24671060097126L223.57980083013626,227.92081935410488L223.67815972071367,226.94447512205306L223.8452601407671,226.4723535348171L223.76733174465335,226.20482146340692L223.6304885669624,226.01481736638289L222.89142571350203,225.53283226507938L222.4046131932655,224.66024580084058L222.23015413874145,223.98293557868374L220.52327088193852,222.7787225440461L219.8335245911794,222.521653789001L218.50910750368894,223.0737926980437L218.3408187327268,223.28253277252088L218.28514906324563,224.0489451482622L218.30631085057666,224.7613671332051L218.5935261239938,225.55231953019802L218.53927333444153,225.8289228817771L218.36751092236318,226.1814801285159L217.6944929559304,226.18063016113092L216.13304556800358,227.54836472762918L215.4853486170823,228.6185715416591L215.42323442921224,229.0976683076001L215.47117981778865,229.5574325492198L215.2662349918819,229.93484295517737L214.6389685354261,230.25004035301026L213.63280096238395,230.38679598269255L213.21472997162255,231.0277944962054L213.17405180590958,231.15270302278168L213.34581421798794,231.3835081592406L213.32305272751,231.61234021246128L213.04196203185256,232.1362824616367L212.14667673973145,232.43321077019937L210.99461623977277,232.53007116998515L210.70086503635866,232.91468092682726L210.4114558843421,233.49827353267347L209.9149537336216,233.5652211940037L208.80535392573893,232.85698877062305L207.88305650335224,232.8926222683467L207.71325944085402,233.41892657450262L207.88022274349441,233.71816526440762L207.89663112719154,234.3016301049097L207.26625667605094,236.15827478709798L206.8502881522827,236.7907035578496L206.46178881682044,237.14924881163643L203.9936296857295,238.5374666623552L203.4542554906957,238.49836911368538L202.73667436519554,237.5729389903504L202.5126702189482,236.51036197543226L202.38012338684985,236.36040304103608L201.4615281346023,235.69614171711282L200.2189701423822,235.24940778410428L199.15918966104618,233.53220427391943L198.61657035391727,233.1110493514475L198.34686040349789,233.0162273599608L198.17418387533598,231.88705039148772L197.5700902615945,231.75681369637277L196.4540916411279,232.26630986267946L196.08090375006304,232.0219824805581L195.5589434664198,231.44011359400383L195.17894541053374,231.26761772123018L194.1079213013718,231.93228942442147L193.67234498761263,231.59830384992165L193.70822404388764,230.33167637122733L193.90265653483493,229.92837674891325L194.62787052963176,228.91225686016878L194.3183051179749,228.2693853320734L193.90549029469366,228.09778575306427L193.477318321211,227.29306863776128L193.46145840716235,226.91394791476068L193.58056773283442,226.75091393911907L194.73582763908598,226.0509097495792L195.01426739810177,225.93929682678436L195.35870633834202,226.1341431830474L196.02130338142342,225.50582457517385L196.387315461232,224.84619962812212L196.58001113162118,222.60300412902143L196.48256635712733,222.1215513355928L196.1481826938043,221.3688107673879L194.74204362845376,220.2609877123923L193.34627978064964,217.98332731732444L193.51370014133136,217.58600471907403L193.8346462982272,217.17166322837375L194.32804045426383,216.8309530701008L195.77778285679506,214.38002357784626L195.5918973512271,214.0964520605835L195.58718965339813,213.90981941619793L195.7036023366245,213.59544155866615L195.94552315810597,213.28405482953667L196.42515986708713,212.9464595586469L197.72836946144253,212.9026912767563L198.40316995423746,212.6619235311723L198.7163461244245,212.40735785422112L199.89176229031546,212.63770807094352L200.50815076537856,212.8832020827872L201.4786678111659,210.86810082375587L201.5278929622591,210.4200326124428L201.1671370499298,209.61266175360515L200.74412983231832,209.4787393802212L200.33945064217914,208.9544309579901L199.5171575193217,207.36054858551734L199.50943323841693,207.21031002538393L199.67447689728124,207.10502104400848L199.85894552291938,206.81089244629902L200.21106303826036,206.56170258159773L200.39589731033175,206.26805603821958L200.7261217454743,206.0351992640458L200.83796384828383,205.66773914551868L200.77164472642926,205.30214890876368L200.51381828509602,205.01537160664793L200.3977712483029,204.58966854573055L200.03180487429745,204.37768629781795L199.76012957429975,204.12260721729763L199.0589111266927,203.89441535293463L197.69779227845174,203.41489613989233L197.40870306706347,203.0819783248785L197.37981699882675,202.5408890284184L197.56771355977799,202.04144677627755L197.27382523895176,201.13893369091102L197.0200666141891,201.15888078664557L196.80163857605112,201.00055181803918L196.67155985737736,200.68828451510262L196.6137420151008,200.33430966010883L196.72937769965574,200.02191931101243L197.8091316174141,199.0212203732358L198.11376080221999,197.96140695600798L198.1967168367928,196.74006767710125L197.54010725405897,195.72415803414424L196.9053450457177,195.68519302527648L195.39719062545464,194.88199880859884L195.13227978447412,193.5014297259272L195.69857469816452,192.0822558656214L196.86187882595004,192.08502771471194L197.36103191331222,192.5343032806286L197.62109793905074,192.4468018530165L198.31098134722288,191.91693103858688L198.84212849750566,191.6725928967253L198.96612834422467,189.7573150388812L198.86182769910374,188.61572212023248L198.66428721347256,187.4996731700562L198.56862496534086,187.2264888090308L197.82170071356177,186.72797672920115L197.72000529927936,185.50344635722058L197.96933046103732,185.11948900853076L198.5071506587292,185.2641637828251L199.0524666083047,185.07498779074103L199.32149097166075,184.8891744239222L199.69312486538365,184.42532681105922L199.77183026016792,184.14258474466033L199.4111657594467,182.97811624996348L199.4920650328304,182.63127665118054L200.3124842177176,180.9633757432157L200.45307527135174,179.32603252292665L200.41148298955432,178.92764244000773L199.91484372142168,177.575570893418L200.5311407848767,176.69147254772588L201.63804395031366,175.93941128110873L202.01936747452055,173.87060154052733L201.88567799731754,172.73068862594573L201.7159723464274,172.31690607124483L201.19510900208297,172.10807253579333L200.93819667683238,171.60163259067895L200.80331884872066,170.17471070319607L200.92955827984406,169.94443850497055L201.16050970832475,169.87770462980097L201.58708197866235,169.79655988777586L202.06804415596434,169.9635620149279L202.827126151652,169.73440523472982L203.15095177421063,169.54760281148538L203.58895049559032,168.77983830170524L203.26279387701925,168.12651211456387L203.2845041340015,167.8422932499584L203.43958392755667,166.86868390996733L203.70499753238255,165.83212448215545L204.06072580625369,165.30858031748676L204.07955659757317,164.91848218785844L203.96104144735455,164.58925626195924L203.91254758912783,164.22867582379286L203.96104144735455,163.96210774717065L204.48263608456546,162.70455574653533L204.46467370352548,160.5833383931772L204.5673746454995,160.31536864477675L204.38935053825026,159.87485628496688L204.00875830690984,159.39692998422788L202.73713142323777,158.84394263598688L201.19204671320313,159.12454288042L200.78668193600242,159.47171628514252L200.44279146541248,159.6160234834042L199.82498611041956,159.4041223228828L198.50797336320375,160.16203437692275L198.46176479518635,160.71408707772298L197.88349496080173,161.3317505237951L197.00064164741616,161.25627066201423L196.46181592203266,160.93503091592083L194.20787989509518,160.48034716180382L193.55606942179838,160.6429215035423L192.5595457734371,161.22977911864473L192.10673837150534,161.2550059947739L191.11291136558975,160.79670128935595L191.05267111569083,160.5362037930563L191.26648286760792,160.26603340727706L191.12753722292564,159.76318822767962L190.818246046093,159.57094059131168L190.16785245272695,159.48889760235215L189.84791182352183,158.57178013397606L189.8921550419609,158.16269837267419L190.3422200956411,157.85064318299874L190.73986059193885,157.3481934676438L190.8467664678965,156.2882949033783L190.58002739474887,155.92341603026534L190.2939547664364,155.74969562026627L189.5428255806737,154.58990026187485L187.38240362907345,154.0775910165512L187.27490357765964,154.10086725770088L186.75308041142944,155.60243333848666L186.6118037707338,155.773494345774L185.97516762442137,155.80909214551502L185.3960750855622,155.99794124802338L185.0467456242759,156.60595068829798L184.9782326238228,156.80328838654214L184.85647236150817,156.96862785180974L184.17230217885754,156.98901985934708L183.25018757968792,156.03233698168742L183.1774696452503,155.84715606976852L183.58827341314827,154.75520812127752L183.85807477517665,154.66225255932886L184.15904749564834,154.19390402352064L184.25288151161294,153.7567103427018L184.25384133350053,152.90484700412662L183.11421281227558,151.531834857999L182.26650726229946,151.29015552469582L181.82891989315613,151.37098408668226L181.32816710264797,151.2799433639675L181.01736763427925,150.70534576145747L180.6116372106435,150.49211783864985L180.05951109624584,150.0028607977224L179.91357246352618,149.77884055493178L179.85374356586453,149.3132611025021L179.7181801506904,149.1865051259192L178.97564365611106,149.3245473766783L178.6301991881801,149.53944729818886L178.18635012386585,149.231518034469L177.88249793773048,148.58585605310054L177.15330753797207,148.26214649611438L176.8160901147903,147.70811193385816L176.7880724568322,147.2235538939326L177.01477324552525,146.93273421107688L176.7805309991445,146.45014340756234L176.24197950858616,146.36759991433155L175.9213532923195,146.14876692366306L176.11020967515833,145.57074036359518L176.31899378861544,145.50054460695355L176.6437335272576,144.98051841590905L176.66887171955295,144.62552282289153L176.406200462975,143.6042716286388L176.4870997363596,143.3118874460929L176.8110167705272,142.7633770432658L176.8346009654797,142.47989025277093L176.71736557777785,142.1158809566905L175.318767970115,141.42088189917968L174.1330679982866,139.94216359564507L173.47622988653075,138.89720698553674L173.4595929738125,138.6160265323506L172.22041721110145,138.3642983899781L172.19262808216445,138.53176186996325L172.07118776047992,138.63967118880328L171.3304794980695,138.77463699061536L171.25364804125638,138.69151473349166L170.90811216171642,137.62073297248935L170.49104669864664,136.97632767636742L170.26110079785758,135.2531448539071L169.50457832720258,133.6815288789844L169.03243737010598,133.4549435884378L168.82470449014363,133.56615864725154L168.62126795577478,133.44528421630412L167.9912134452643,132.62709440339586L167.27116420633865,131.4836900675782L167.14117689927298,131.06190913358978L167.1018699076849,130.49446682957887L165.7279077284711,129.6046906492902L165.61355180643295,129.1603910863323L164.858811862141,127.94117125429966L164.3516602590489,127.39547408345743L163.3141842101495,126.73558114273692L162.37899775098595,126.64330737476212L161.8561690570632,125.80117389325642L161.82691734239233,125.00456368515597L161.54815764274827,124.53272582555746L160.4298280262674,124.4299716188907L159.78304519142966,124.10252372755622L159.7692877443742,123.7130307789098L159.98954401467927,122.9240949431769L160.16669971164993,122.64131908813988L160.04443668548902,121.89757149965408L159.86120211656453,121.60609966959055L159.4752166003318,121.2933348808856L159.2633244921899,121.30807521870611L159.0234147260917,121.06360658481572L158.67111438753454,120.2870113684794L158.57645766709447,119.54156057010687L158.01436768738768,119.1569571800701L157.09572672933427,119.30256047147941L156.77670021621452,119.16625118483034L156.52326153208014,118.91516984741293L154.74713398195672,118.98151145811516L154.2461983682315,118.47580231560278L154.17635989945757,118.17360888396843L153.93932959902213,118.00518858749228L153.2442814349788,118.10038071682402L152.62675031481103,118.06770713022615L151.99226234129583,117.59077341078591L151.24474391406238,117.47993562858937L150.1228492448572,116.89361716631856L149.44224411493178,116.35445058140567L149.2036598171544,115.61956994554748L148.44096706293658,114.39969206336946L148.33031331103575,113.20968608114345L148.09086060297886,112.99245678139778L147.70473796933402,112.96547084970643L147.4249727419974,112.76988419620739L147.07157546413964,112.0524837253156L145.6605001719381,111.12164489884799L145.30605166058376,111.00540792986658L144.3033120228556,111.2697369075504L144.06769860234908,111.05232168149132L143.8785679846851,110.48074179823925L143.45798317469507,109.7813817074234L141.954764981283,108.80834164832731L141.05116123280277,108.62427963537766L140.65836555174792,108.40926963271795L140.5419985743265,108.17269632592752L140.20738638198327,107.87165396695309L140.0909736987578,107.5705861200463L140.20738638198327,106.77468752490495L140.68976543921326,106.23391813175704L141.84689928343596,105.9583313304106L142.84063487774438,106.15077793318824L143.1752470700867,105.97867830259793L143.61169179412445,105.22549229477818L143.66992098864011,104.68739487997209L143.5680884569456,104.5583015892962L142.13146362021143,104.04079936474318L141.79314925772997,103.15887006143157L141.1239248730435,102.21121831367282L141.05116123280277,101.06945129776659L140.74566363771737,100.85398365602487L139.63286442354183,100.45103828663923L139.36356582535973,100.14284086395719L139.30538233664902,99.73331395778814L139.37810027108662,99.32373979162594L139.93895619408067,98.50363673562379L140.55447625886427,97.89920756106312L141.22790557753524,97.83308128577846L142.00805794894768,96.60633730123345L141.78501362458792,94.70415698810893L141.13356879772346,93.89736447868017L140.82935096515575,93.8306208956501L140.15578452907266,93.41670121885318L139.86600973062195,92.580845809126L140.3073906815116,91.4046831604769L140.43733228277233,89.73603527820887L140.11766588839419,89.20937012076138L139.13110610534113,88.37272487678865L138.84434788996623,88.21660890749627L138.62491432413663,88.33400223671924L138.2434536825176,88.32727668237112L138.04010855975594,88.163821401929L137.70714177636455,87.51923400911983L137.8471386545425,86.55814798154915L137.07663020781092,85.60149194757014L136.77414919580133,85.5362235290545L135.82895316552367,85.9662930356285L135.50179101926096,85.71944796156004L135.3367930662007,85.36781184902839L135.35032198423505,84.74882833307583L135.24204493415073,84.42334764689622L135.10483611002746,84.06110805236949L134.78274730802696,83.71726577376876L134.7360359761642,82.07724602050212L134.87475309182628,81.69366663451774L134.56317662478614,80.80710954956339L133.7144198413107,80.33406103880316L133.51326859715027,79.76663246534008L133.22715026303376,79.33076799856917L132.3399091924466,79.78079715821514L132.08966991460693,79.56307683200839L131.50088774526193,78.80398125305328L130.55468618729356,77.04970671024557L129.64271827665107,76.0280280425236L129.40472815432713,75.21062213728919L129.2254242845611,74.92933726950969L128.59856918034166,74.81081586436085L128.10097009032143,74.11590573507465L128.035016614901,73.59447980637196L127.89264303490563,73.25664415787242L127.48083373931695,72.48506775354645L126.40651881225403,70.89730551770299L126.05965746439233,71.0359611740887L125.5988972525347,70.66032894242335L125.5792894625447,70.6353399913155L125.56544060388023,69.08260514763515L125.5843628068078,64.97022466328417L125.55780773458446,64.5221998080101L125.55346568318782,63.79878363513399L125.57650140849,60.53348948484927L125.52777902124308,52.809970086520934L125.55629944304656,51.96361050830728L125.53883982585285,50.265609106663305L125.57481029373594,47.84894133429998L125.52659067033528,40.71921137536265L125.56534919227215,36.0504924530901L125.56361237171404,0.03330169744867817L127.76494101804838,0.008360288822586881L128.23776756220832,0.0335107029077335L150.6184829852973,0.0484893947659657L164.01503701132242,0.15062144919238563L188.2251729521995,0.04632968039459229L188.39972341833254,0.049534417366885464L202.03929520513975,4.547473508864641e-13L207.7527949614614,0.033789376836466545L208.9438425123799,0.11864454667966129L210.03186918069423,0.14915846008489098L210.98693766467204,0.11752987809677506L216.518391202977,0.17653715399092107L223.45200740167093,0.17639782276364713L225.43381107056848,0.2169429742543798L233.2561309255816,0.26180681655114313L238.5974940243359,0.20287065576803798L247.74747607893732,0.19701878375508386L248.61821735421836,0.22056554205391876L256.02868220783876,0.17284487454071495L259.61128596205526,0.20398529693648015L259.89470765372516,0.19785476607512464L260.04389139854266,0.20126835845894675L260.21204305209085,0.19924806949484264L260.44354295022276,0.20175601423989065L260.5674513853328,0.1990390740170369L260.72198270923764,0.198342422335827L260.9135814403271,0.1973671097462102L261.01811061446824,0.19569514466729743L264.42479272842684,0.19137589782349096L264.47717158000796,0.1930478649833276L304.0641569242689,0.17228754899906562L310.45853604534204,0.1964614620960674L310.5951049882078,0.17200888619527177L317.3042599826131,0.23150288727310908L317.304168571005,0.23345349298824658L321.52788764034176,0.26306076654509525L321.53090422341756,0.2605528661065364L333.45102365727416,0.30841165338142673L356.1620549271147,0.26842488083957505L361.4848157635706,0.23010959680459564L361.5192322341127,0.22753200796387318L374.96775375948073,0.1656693013514996L377.7489519433457,0.20900117776773186L382.0207992244759,0.1534080934047779L392.1682190435222,0.1498551216418491L392.19651093630546,0.15278109865130318L394.2039555613419,0.14825279985416273L402.24712586211535,0.1217795501506771L424.8660599365485,0.06618506834092841L427.00116087263905,0.01797459606314078L427.7610655728022,0.0528784875718884L430.16679057539477,0.069180783675165L430.1985104034902,0.07078314197724467L434.68192985213227,0.06346802196412682L436.29319656660664,0.09607243807204213L444.98424664151753,0.12010754865286799L444.9969528550773,0.123242550802388L447.72028749086076,0.15020345236780486L447.99388243463454,0.1499944539355056L468.63133278080113,0.1402411798085268L471.1511394706067,0.14086817682755282L506.9555581673985,0.10575616931646437L519.0072189056618,0.1412165084548178L522.5464478517206,0.09551510019900888L556.2766457435791,0.12191888357347125L556.644943113597,0.12588988374500332L561.185266288433,0.1272135494587019L561.9900997940977,0.11383753585596423L561.9900997940977,0.1356431982126196L562.9491446830389,0.14058951149900167L567.7479341804674,0.12352121752383027L568.0434222044387,0.131463209654612L572.3344659233217,0.14476948906303733L573.6168336709743,0.14853146456562172L573.756510608524,0.14051984516527227L574.1754957153689,0.13703652661297383L582.5599512558938,0.15208443768324287L586.4150530145835,0.135503865341434L592.4489504581516,0.11725121089602908L595.116935365083,0.12212788369697591L600.8547506092254,0.13557353177748155L602.5775394858792,0.11752987809677506L602.8076682098854,0.12303355074800493L604.1297543013643,0.11961988139682944L606.6883652189117,0.1253325506627334L611.7463523318002,0.1259595503743185L611.9320550141501,0.13306553919801445L612.6875719571135,0.13341387160880913L612.8653218295385,0.13989284808303637L614.3097166529815,0.14163450636215202L617.8915434085275,0.13466786799926922L618.4550502681632,0.13167220920104228L636.2650024508375,0.16713228349544806L646.6922332030254,0.14254016832228444L651.4343475032811,0.12881588096433916L674.0541499879946,0.1054078341294371L674.0659420854709,1.0019068376136602L674.0596346844959,2.413475569414004L674.0624227385506,2.61982527329792L674.0512248165278,2.952228575711615L674.0591319206496,3.0826055169623032L674.0558868085527,3.4515742679591312L674.0479339986268,3.604203526729634L674.0525959906527,4.044654093003373L674.0557496911415,4.251324389947058L674.0509048758995,4.717157279874755L674.0537843415614,6.214287783860527L674.0536929299533,6.579725326814241L674.0584006277832,6.875176604509761L674.054926986666,8.452346016587853L674.0469741767402,8.742982063609816L674.0474312347815,8.863274092403117L674.0501278772281,9.31278614721532L674.057989275545,9.438199994456227L674.046654236111,10.712717838762728L674.0617828572913,14.206961811074052L674.0632454430252,14.79668370565605L674.0771400074937,16.386076408142344L674.0627426791789,17.376132397686888L674.0722494864476,17.668866050784345L674.0931370389535,23.41333409154049L674.0946910362954,23.484472843564618L674.094142566646,23.782506296832707L674.0939597434281,23.879792410041773L674.0929542157364,24.401396211173505L674.0960622104203,24.489948337232363L674.106894486009,25.50308756706545L674.1051576654509,25.985033001635202L674.1067116627928,26.079837505931664L674.0909888661572,26.456955526940874L674.0780998293803,27.917954954285506L674.0889778107739,28.43273638367691L674.0964278568545,30.424803751813215L674.0977076193703,32.015168755186096L674.1038779029341,32.58449439298829L674.0934569795827,32.63218708070872L674.1100481864978,32.96933028315652L674.1026438462213,33.52559723029799L674.0853213464407,34.755474134531596L674.1081285427217,35.16138273778961L674.1155785888013,37.0267838941254L674.121657460757,38.00170033784434L674.120057757611,38.030092560562935L674.1247197496368,38.39379585146298L674.1293817416617,38.48667952942833L674.1353234962044,40.19769607370017L674.1273706862785,40.88688135817074L674.1349121439671,42.29003664818811L674.1374716689998,42.37552131763232L674.149309472281,43.38438564861508L674.1622442148619,43.426977279525545L674.164026741224,45.61874960010937L674.1774185418471,51.49511504189741L674.1855541749892,51.60934446317788L674.1954266286903,52.22147942528591L674.1915873411399,52.330812323827104L674.193278455894,52.54843848592054L674.1993116220456,55.80689386090398L674.2055276114124,55.905625156355654L674.2021453819034,57.01780607863475L674.2066702565171,57.83053670626987L674.2651279800521,69.34325177872006L674.2632083362778,69.56665759091766L674.2736749654332,71.02251229212789L674.2936026960515,72.18459310786466L674.3012812711531,72.52143962221362L674.351511949938,76.51276415578832L674.3774728467079,78.47182137010395L674.3680117452441,79.87375154587698L674.3361090939316,82.15169752131351L674.3422793774953,82.34761861174366L674.3444732560956,82.49065660638189L674.3072230256948,86.29679780609467L674.3052576761156,86.30944093775815L674.2824047740305,94.59863874894336L674.2595975777476,95.46168030529589L674.2746347873208,96.07581174411007L674.2656307438983,101.46982219561096L674.242229372162,105.81346563338866L674.234185150628,107.2284080482591L674.2217531718934,109.99678144028803L674.2311685675522,111.51204372231405L674.209686839592,113.64167664407341L674.2106009556755,114.41709100355502L674.2193764700769,118.12328573298964L674.217822472735,118.32800962031524L674.2208847616139,118.49803131580074L674.2223016415437,118.80369969143976L674.2207476442018,118.86532863744742L674.2176396495179,119.00535372529657L674.2012769716248,122.25072457915576L674.2345965028662,128.18315408618173L674.221204702244,130.5078936903119L674.2240841679068,131.28730367037178L674.2087270177044,131.46368948552072L674.213069069101,132.4483504378709L674.2145316548349,132.87768323553655L674.2159942405679,133.13684138616009L674.2225301705639,133.99381475031532L674.2214332312642,134.2133912024483L674.1990373872204,140.66978343389292L674.2004542671493,141.1532194604738L674.2001343265201,141.16138550186406L674.1837259428221,148.05552090800438L674.2065331391041,155.08780131589174L674.2064874333,155.30422375323633L674.2079957248379,155.36056079139462L674.1987631523943,155.85728860519748L674.203242321204,156.20011145680655L674.2125205994507,160.68246550413005L674.222850111194,169.4367652365613L674.1744933703794,177.78634154061L674.2029223805748,178.91552115637978L674.2037907908543,180.5694692830666L674.2034708502251,181.71796757258926L674.2140745967927,194.90079324788667L674.190216167015,194.97043074378462L674.1416308971802,203.12165372561867L674.2046592011329,206.73135862486424L674.2692415024276,210.8920654069134L674.2702013243161,211.5486337396228L674.2791139561295,211.78422374470574L674.3347379198067,219.54690271014942L674.3649037505602,232.10690816350052L674.3781584337703,232.57843514272372L674.3749590274774,233.33344396763096L674.4011027474644,235.66588291595826L674.3952066987258,235.88584045815605L674.372810854682,236.48604296427857L674.4161399570366,238.31642971441534L674.434696513531,242.8253763627631L674.4482254315653,244.078724465081L674.4413238551351,245.95586555104L674.4370732153484,246.5677557263739L674.4544871267381,260.2588150105339L674.4734093296638,260.32028999317845L674.4475855503069,268.34743184317267L674.4680160447724,268.4732147754157Z" class="state" fill="coral" stroke="#111" stroke-width="0.5"></path></g></svg>