<svg width="800" height="349.6" xmlns="http://www.w3.org/2000/svg"><g transform="translate(0, 0)" id="single_state_map"><path d="M626.5281125971778,338.5664374672115L625.1835282699467,337.5664073417083L622.5245680192365,336.0714126945295L621.5313115657655,335.5999679121205L619.6793915810185,334.8860200944682L617.8585076275231,334.32021100555176L615.8307167990188,333.91617520050204L613.6683330483247,333.6601914029425L610.449068980095,333.5529455595588L609.4781584691264,333.6177512994773L608.0487423231425,333.76204685703306L607.8325246387612,333.8023306491659L605.6087929996256,334.2276575122669L603.8030132480053,334.74430163665875L603.0982884317309,334.98691908069304L600.8943163991607,335.9585375301631L598.4974037056454,337.31833574802386L596.9231527471584,338.4560166066194L595.2926231186657,339.8843838464263L594.2498124686335,340.9442063000042L593.273212018601,342.07053863454803L592.4554125951372,343.13441798685017L591.5582643851076,344.5103884599721L590.8051233600836,345.90983588552353L590.2141973250646,347.17722999012767L589.4382965437908,349.24881760844164L587.9070822153017,349.32951944959314L586.7479899015143,349.3199697683531L585.6612115405414,349.3167417048653L566.1518588427225,349.3611274793475L564.6602671807996,349.31485866731146L563.1549162116889,349.3265603944874L541.8787857081879,349.39757745652696L526.69120036207,349.3977119580204L526.6394736433194,349.3977119580204L525.0876720807682,349.41116209772736L522.6977942210033,349.3977119580204L522.6874488772528,349.41116209772736L515.1246922354458,349.3977119580204L512.5176656103613,349.3977119580204L507.1068439220626,349.4112965990271L492.36421181064634,349.42474671903074L491.9814340918856,349.42474671903074L484.5842029500818,349.4652314625473L482.58755160626697,349.4921315266356L482.2978819812588,349.4786815043435L473.9281885269247,349.5191660124474L473.1558051625261,349.5191660124474L469.1175002295822,349.4788160046637L463.4997716662747,349.60000000000036L457.6855850251486,349.5731002487382L456.53725186886186,349.546200419466L456.46483446261027,349.559650343851L440.12932977395485,349.5733692466383L437.7497972579413,349.5733692466383L437.3877102266797,349.5733692466383L414.023992807799,349.57067926729815L407.37959233070706,349.5509078952209L407.23610241289134,349.5550773717505L393.01218583711943,349.4684594743567L392.77703617367297,349.45917893737624L387.6464698475693,349.45285740686813L386.76711562879154,349.42595722887654L385.6716471790669,349.4110275964267L383.0511716071078,349.39044887447017L372.06596834581524,349.2746422740056L351.4769755742118,349.26186445367784L351.2664478288916,349.2636129985549L338.11503303971494,349.2481450901496L337.9541629443984,349.2341566985988L334.2418397930278,349.2371157831867L333.95537722457993,349.2394023479019L331.2816231323077,349.2247414231797L331.2741744848072,349.22164783059634L324.8916146580368,349.21142551733556L324.2299264717676,349.24209242331835L323.97874152550685,349.22985257388154L323.8795296789431,349.23496372176487L323.67034682831127,349.2316011247858L313.70581518142444,349.2394023479019L311.3695262022866,349.18721473046116L303.4780979895322,349.23819181371346L302.57670818856514,349.18721473046116L299.5271077578418,349.22864203844074L284.2536560585968,349.1638109097421L262.77186012133916,349.19985814926713L250.93968356720598,349.1853316666102L206.3394583113859,349.42810924598507L198.91119113833338,349.4684594743567L192.72902062000867,349.4178871602644L192.48073237000062,349.4056475428051L176.6367349629254,349.46872847529175L167.41593007825213,349.4772020006976L167.39244614793824,349.4772020006976L144.3413650171933,349.39152488720447L120.2673362964124,349.4005364889763L120.18395282578604,349.4030920162468L108.60430611259835,349.4131796169977L98.4706280953942,349.38439630050016L98.46224836695728,337.9745932007163L98.51728559570984,326.5500381242591L98.4803527185195,320.3451954691727L98.49411202570809,320.045523510601L98.48790481945616,317.6893663636447L98.48500812320708,317.31874991242603L98.48345632164637,316.9097858644027L98.48459430945695,316.78061424563566L98.49359475851998,309.6201665259241L98.50518154351994,301.4318158493252L98.51014730851966,301.2847154879373L98.49525001352049,290.2477819918704L98.50021577852021,288.4781080884659L98.50021577852021,288.47445250355304L98.5019744869569,265.5198327682592L98.61039368946149,262.0081974955692L98.61039368946149,257.8115284175783L98.64153317415003,249.16779318289719L98.50704370539461,247.64475488921562L98.50042268539437,241.62422719588176L98.50011232508223,241.62422719588176L98.5003192319582,231.78652726000928L98.49711217539516,231.78816206258034L98.49711217539516,228.21487301604066L98.5019744869569,228.2140552940309L98.50694025195844,225.1593510232442L98.50000887164424,204.2085621860524L98.50683679852045,202.98917514202094L98.49762944258327,196.435595445324L98.50394010227137,196.31031818125666L98.50580226414604,192.552562813431L98.42697074476746,189.49883702531952L98.42428095539253,189.3752431079738L98.41383215820497,188.567666566968L98.49659490820704,186.59632970863368L98.5071471588326,176.40643266148527L98.51356127195686,173.67261547052476L98.51014730851966,167.34157463569045L98.51345781852069,166.05065439770806L98.51014730851966,165.92550434986606L98.50611262446,165.49350378420786L98.496905268521,164.5245835750793L98.49649145477088,163.34636812810822L98.49307749133186,161.95149916918763L98.48614611101948,161.3283303145099L98.50683679852045,159.87286624829358L98.50021577852021,158.6233139114729L98.50476772976981,158.6233139114729L98.50476772976981,158.6152109625973L98.48873244695824,157.4852589331931L98.49411202570809,155.81252696448428L98.4911118760192,152.28348195530543L98.52359625539611,147.05807092312625L98.51707868883386,145.6631526244355L98.51707868883386,143.84749573749377L98.53776937633484,141.6050662331454L98.51707868883386,139.36193962013112L98.50673334508429,138.94903322577193L98.50642298477032,138.9290756027376L98.52732057914545,133.80620832627574L98.49266367758173,132.85604540065196L98.478594010081,129.9512204103703L98.47693875508048,129.61187024115952L98.47693875508048,129.44832174872863L98.47693875508048,129.44432600268738L98.47383515195725,129.18556321212873L98.47569731383192,129.18528763542326L98.47569731383192,129.10261424209057L98.47031773508206,129.0349592818784L98.47031773508206,128.9529734632315L98.48024926508333,126.15673970902117L98.48355977508254,124.64373653951316L98.48024926508333,123.69081054149228L98.50342283508326,118.51633087706705L98.50673334508429,118.51646882945624L98.50673334508429,115.89264408055897L98.48852554008226,112.14853085564118L98.48273214758228,106.99182539122558L98.48976698133265,103.00657537900679L98.47093845570816,101.55157526759558L98.46907629383168,83.50054561411253L98.4621449135193,83.29820372199629L98.46742103883116,79.10837592721236L98.46380016851981,73.85726209504355L98.46783485258129,72.03695908064401L98.48128379945774,70.28244368167452L98.47031773508206,47.50238910686585L98.4745593260177,45.44078856086344L98.46411052883195,40.96575553152252L98.46204146008313,40.77580254725126L107.14944042098796,36.866180732818066L109.80560742888701,36.03540046703256L113.6033831196346,34.29144125255516L113.72721688432648,34.31038101275226L114.61877860872846,33.75233741305783L116.07560991565151,33.43618530141703L118.0611917416536,32.610933310714245L121.49770802864077,30.81280144599441L128.35377423886166,26.78824811881441L132.74030344244238,24.516042443573497L135.03707320845206,22.898656953501813L136.25782377099313,21.657531239286982L138.106640152615,16.74989140931666L138.70491138169564,15.857630134687497L140.056220182365,14.46058711823298L143.04147257496334,13.505418410973107L144.19228861375086,13.773708001371233L144.60682653782533,14.137184119486847L143.91917153874056,14.839666792671778L144.75166135033214,15.993554390812278L144.04817797530632,16.537788669466863L144.30681156906576,17.040129010523742L144.7517648037683,17.291288468306448L145.8794072725541,17.45872413959023L153.31708870841976,12.965603984448535L159.30311150923808,8.820482638034264L160.068666946765,8.707492934567199L162.43506087621608,7.428750874863908L163.97268931782673,6.278772303333426L165.8563695078883,5.431279597921275L168.26869676359092,4.80433966010969L173.04969392437124,1.9460073650652703L176.82533057949513,9.094947017729282e-13L176.82398568480494,2.5868474327280637L176.80453643855617,3.7468102095772338L176.83753808511938,12.04755050881522L176.82760655511993,12.596774630442269L176.82843418261837,13.48657362238373L176.84519363949585,14.972257093577355L176.8346413888703,16.641747556668633L176.8076400416794,19.35764114653375L176.85036631136973,21.067168377186135L176.84115895543255,34.9960844575362L176.88502321293345,37.77720663114269L186.3247355713629,37.73989873074515L190.96369116245114,37.786115957245784L190.96224281432842,37.77706742284681L198.60910710082499,37.83302897971953L199.94779458211815,37.852378789021714L206.77292821452647,37.89024304178929L229.81200874652313,37.81340071271097L237.17810040363565,37.72277602236227L249.3137058899647,37.750478599055896L257.40376470272804,37.793633194180984L268.6083927049658,37.98713024580775L281.5405896600723,37.9105671695379L297.3797247555849,37.66444719824631L327.2283174509257,37.72876201361123L331.0482321772997,37.79098824117227L346.2014709821651,37.58440105070895L355.8798504209153,37.72876201361123L355.90198945654174,37.73196382122023L359.3630242082163,37.8202218884453L376.4822921393952,37.85279641034049L377.4372708209885,37.849594646400874L384.9757159049823,37.8168809050685L410.2828061473647,37.63757961545707L449.6587362627024,37.731546194204384L455.97115465884417,37.583148148735745L461.76878874996964,37.529273196312715L461.77903064028123,37.53331034881012L466.10855699979584,37.46996860626314L468.4984348595626,37.42820457219932L469.0675322192683,37.4142831837562L470.6400244693177,37.4142831837562L470.7538232505731,37.40036177342881L479.6203001117974,37.40050098764186L481.60670956529793,37.4144223977446L488.4556374883332,37.41219497360089L508.27286761616233,37.62574671635866L517.7469265158443,37.78305337740949L518.2005698392959,37.79572131442001L529.8139423731091,37.86866600582016L530.4528708031294,37.877575239945145L552.4388987947796,37.79293715399308L553.2153168432424,37.79293715399308L555.0625814233017,37.80630111606206L567.7623185043385,37.781661295312915L568.0552986393468,37.781661295312915L579.391002146901,37.8104773500736L592.6806307285824,37.944672621604695L606.3262425887124,37.792101905693926L619.4211718010092,37.75256672946762L620.103343767908,37.72987568595181L624.3374860580443,37.73739297061093L624.7776804346204,37.73600088133844L632.265847147989,37.72458574107259L632.8943267808208,38.04963306657555L633.6118798233438,38.29824793906482L634.1749768836753,38.65347948017643L634.5394433439997,39.49862830601978L634.519890644312,39.82068785406773L634.0368665446085,41.2238902408717L634.0633506246104,41.423017594062L634.3443301608677,41.7132818784612L634.7288665880696,41.778819622426454L635.3964516202777,42.06865483267575L636.1137977559265,42.97845041480923L636.3562926134337,43.09336824904767L636.5499574484393,44.01585683916255L637.1035367925215,44.57979218366745L637.3579287953407,44.74253942504038L638.0192031678616,44.85326148187414L638.2573529809952,44.83044951289412L638.3019414125592,44.75811849148795L638.2646981750577,44.21408684377457L638.3871870450621,44.066631964311455L638.5764033822552,43.9762103064013L639.0799112625846,43.96619431217823L639.3160954604045,44.26054853356436L639.281748919153,45.009605348442165L639.3640978554058,45.29516225284988L639.5278646469733,45.59392310178828L640.5922970654456,46.146631955828525L640.7837893782644,46.88635118030288L640.8605518288923,47.8484918711647L640.8552757035804,48.470163649070855L640.977764573583,48.83777906816704L641.5604143336022,49.97792955961813L641.7853221067344,50.57693297883543L641.7634934314201,51.283479840724794L641.2457089767167,51.95883768855492L641.2660893039047,52.50698088246554L641.3994407848459,53.3141240491841L641.7618381764214,53.50561522135922L642.2567594214361,53.62692788341701L642.5031855095704,53.81118655657065L642.8196495748934,54.738674975101276L642.7291278170778,55.019472961992506L642.4136982861291,55.27094704619685L642.1729621370596,55.62105380176672L642.1876525251855,55.98948457746792L642.277760469251,56.25232253154809L642.5131170395707,56.58752688169079L642.7926482277044,56.81617538860792L643.4783376114765,56.8320110939876L643.8044228464869,56.65698330816576L644.2906540027525,56.16035791644117L644.519389553072,56.12660027347738L644.7667467221427,56.32372642492919L645.1989751840329,56.897437261656705L645.5044731849794,57.190529465006875L646.1140208387496,57.46527726034037L646.3194793656312,57.46874975140145L646.6928428215806,57.041206446631804L647.226145291911,56.080617434038686L647.7671033166162,55.83041660395338L648.3608225944472,55.74469931814929L648.9987164900931,55.89196027135404L649.3560446632291,56.10312266012534L649.660301222927,56.41207752953778L649.7883765785564,56.77450234480966L649.9244178488716,56.93980426814596L650.1204621129418,57.10024142835391L650.3003676407598,57.12510545616806L650.4366158179519,57.04384566596127L650.6089692448322,56.81006335441907L650.7924956429633,56.32636585745786L650.9335026782801,55.735252305725226L651.1922397254766,55.39682034985981L651.4052503532948,55.3566689048439L651.8199951842471,55.502824849671924L651.967209425814,55.68593318064359L652.0798702192551,56.13701931277228L652.0095218817523,57.21844911826247L652.2698107305105,57.96794094240067L652.4817868239561,58.28405307803405L652.7535590042762,58.52710177244353L653.2738263414813,58.7366738510018L653.6477070646197,58.70375927921668L654.3151886433898,58.37946784399446L654.5864435565236,58.26308113620598L654.9571172230981,58.21572047616792L655.9148891475043,59.17857836086205L656.2324912006379,59.21218553551989L657.1764003644203,59.08497754321979L657.506520283493,59.24898663468866L657.6305609550591,59.39549515970066L657.7371179956872,59.796124620687806L657.7296693481894,60.40710184481486L657.5685923459951,61.2399072345097L657.5531777838078,61.658502013408906L657.5852483494336,61.8827163160413L657.7407388660013,62.28365014601968L659.1177041191704,62.89931491761308L659.7888065682546,63.58947510494272L660.2081033504555,63.83917996223954L660.5903638020309,63.83223995534081L661.208084277363,63.38959512375186L661.3896450601815,63.3483693186181L661.7676639208184,63.351700703909955L661.9990892605138,63.53992194521379L662.0426431577025,63.79406982056571L661.999503074263,64.29012999846964L661.7673535605063,65.14172333724582L661.5110993958106,65.65269570618875L661.3682301986182,65.79729472415056L661.0428691376692,65.93384288600737L660.32769552421,65.78799716128287L659.8571892904438,65.94730331283336L658.9688346226039,67.11911496593257L658.8792439457256,67.31863364752371L658.7531342054081,67.94227410605527L658.6401630516557,69.02504317750845L658.6718198035314,69.23450667127872L658.758927597909,69.43633603524177L659.0177680985435,69.72998611596813L659.5907966888735,69.83471018216278L659.8640172173191,69.83540371491563L661.2432584461149,69.44091355535147L661.6090698011267,69.39749637591558L661.7860786326946,69.5362086664727L661.9481901692625,69.7735403806164L662.372038902713,69.98284755115856L662.7512992046004,70.06773414553754L663.1798033427385,70.35179320020143L663.937910132764,72.02988679370719L664.0023616243288,73.11326791891679L663.7944202149474,74.43829966136491L663.9279786027637,75.5498044242895L664.3239983615258,77.22095925425128L664.3071354512131,77.46820311101874L664.2215794583981,77.6539086699022L664.0625715249544,77.73331740262802L663.1368701661759,77.52003475349102L662.5724282111569,77.568124269711L662.3642798949013,77.90654516603172L662.3448306486498,78.1816239328673L662.5053903836551,78.55951426411411L663.276015039618,79.3518263352289L663.595065440878,79.90784378585886L664.0098102718302,80.92058483231176L664.1651973349599,81.74537807547676L664.1599212096471,82.08862694065829L664.0183969071413,82.29986109681158L663.3860894971222,82.85721821231982L663.3274313980564,83.14696366191765L663.420746398685,83.51633390536608L663.5427180015022,83.6160487831703L663.8799762077633,83.71839386607098L664.301135151838,84.49916924073023L664.4291070540303,85.3630940969415L664.3672418984033,87.3643808320785L664.4316933899681,88.4829951634556L664.4791785177813,88.72798910754045L664.9588921074856,89.88656707777227L664.8904059318575,90.67012395986876L664.7575717181035,90.9157497587521L664.5723900649718,90.97276165362018L664.4599361784058,90.94577791382017L664.1008492968322,90.64535343364696L663.8945631424504,90.57643842355992L663.2481860649305,90.73876148339605L663.0969371392994,90.88447608892875L663.0850399939873,91.0174576174959L663.2628764530546,91.45499575938902L663.2867741971177,91.66324088349029L662.9773449655459,91.82402216730588L662.4519049564651,91.75428606250807L662.0513332464534,91.84311648194307L661.7452145248808,92.06394341393116L661.7465594195683,92.36750234766077L662.5388058439694,93.23675280331281L662.8779262121052,93.88541887185056L663.2570830605546,94.42849693452445L663.9971889524531,94.84913149174099L664.6280480143487,95.47347654303667L664.9260973677956,96.60255333978967L665.2767010674943,97.35012168753474L665.6388915521939,97.71503290286455L666.034807857518,97.9856300413212L666.4435523890952,98.04854235604307L666.6368034103507,98.20008316788062L667.5491592756925,99.82304023471897L667.7763430244513,100.55582509492069L667.7953784569518,100.86752728363172L667.642060462571,101.07652062333818L667.1038956806788,101.25316594486867L666.9000924087968,101.48191506648436L666.9043339997361,102.13177942268157L666.9613368437995,102.28117796875995L667.0842395275549,102.40155185422827L667.7465484344493,102.54486514729433L667.9221089178918,102.64312394638819L668.4773435169736,103.04913830652731L669.0672350176183,103.65840164030305L669.3313516435646,104.12848301027952L669.3712846704393,104.31612175889404L669.3688017879404,104.54465435699876L669.1973794419955,104.96992498752206L669.0821323126183,105.44546358064781L669.0833737538687,105.69731471435443L669.1395489704319,105.86226438349331L669.5056706857577,105.95910527615979L670.097320894838,105.77205359295294L670.7436979723589,105.77426397541512L670.9497772198656,105.88644016817216L671.0823010733093,106.06810183124526L671.2878630536279,106.84582070166562L671.3103124495647,107.19045424579053L671.2797936855022,107.46932834486142L670.9917793154927,108.48502509951231L670.9557775192407,108.93386169159294L671.0169185008053,109.2321529423316L671.1889615673745,109.62005479296113L671.3636944233176,109.75110078177931L672.5808241155437,110.09727942700556L673.7836772333958,110.24115987063578L673.9749626393386,110.19435065195103L674.8368332271784,109.65720079499806L675.089880335313,109.29981948125715L675.4867277215753,109.2543862901357L676.4398442412939,109.42272270243393L677.0347015069383,109.97452355383666L677.3184742860094,110.13870397611117L678.0229921954078,110.15209787263393L678.5159478251107,110.35038042881479L678.8610684926216,110.78793969075105L678.9694876951253,111.38425061149883L678.9725912982503,111.86441839929194L679.0983906782549,112.34870185601176L679.376370064826,112.5316128221184L680.3210034026688,112.7546901195683L680.6267083104913,112.92461717771585L680.8083725467477,113.15030734974789L680.9368617161272,113.53541689236681L680.9411033070646,113.71333466774377L680.3352799770446,114.42359026571012L680.1834103307892,114.96459443100139L680.2221019164172,115.2671008809375L680.4405955764232,115.4129682685807L680.980829427066,115.50556591674194L682.2191670739803,115.21866189468801L683.4640222874586,114.71424605595712L684.0961227906046,114.65434910072145L684.5490419399939,114.82838038931277L685.128174283137,115.24060437391017L685.4416381987721,115.59968057812966L686.3372346072392,116.42100292244959L686.5731084447461,116.53539147437459L686.9831978710108,116.57582037194607L687.1982775675788,116.5489137880686L687.4632218210254,116.40568661220641L687.7892036025987,115.70800781309936L688.2945736448028,115.19561533347041L688.9020522298224,114.85377404558767L689.3718342895254,114.87240521499461L689.5711890635939,114.97535897818125L690.029487791734,115.5275076930684L690.117940480799,115.80902005428652L690.1463901761126,116.27804967504653L690.2031861133019,116.46722766394123L690.632517878942,117.47583353331447L690.7918361726952,117.65643236466985L691.1476125442687,117.79591453191824L691.7764025374154,117.69423486783398L692.4291937280605,117.32075569573317L692.9247356937021,117.14856648189743L693.1925766433978,117.16539922728043L693.91147458061,117.52660576516064L694.4405354600012,117.57144513281946L694.8779365937671,117.31482294934631L695.258541790341,116.92339097757304L695.9681289181763,116.55760669323445L696.2670058991234,116.4851655590819L696.5232600638183,116.55677879786799L696.7060622878871,116.7517460439858L696.826999356329,116.99500071312923L696.8917612082059,117.22224400252435L696.9085206650816,117.65256932616558L696.4995692266302,118.92672984054116L696.251074069748,119.20951482690089L696.1857949506839,119.69684966965815L696.2637988425613,120.07754002563706L696.5130181735076,120.61944416479673L696.7665825488266,121.00464650223785L697.0213883653978,121.20089610751165L697.3582327579088,121.3822473340415L698.3403162401282,121.51601737035162L698.8484795251443,121.80644317536735L699.1141479526532,122.188422904459L699.426577333913,123.25181287459145L699.6265528286076,123.69315437838759L700.1620278211249,124.21815840531963L701.0221397005271,124.86086046033051L701.4192974471016,125.2891650622596L701.586167841795,125.76900183095586L701.5602010289813,126.08396260081372L701.4247804792903,126.25184526725388L700.874201284897,126.66547379925396L701.027726186152,126.6538963190551L700.4400072076951,127.0494517604393L700.0433667283078,127.11974027523775L699.6207594361067,127.30014494261468L698.3370057301281,128.03743723415664L697.3593707457203,128.23050133655124L696.8163436522645,128.15677642013998L694.9938044437704,128.21134669688763L694.7111696525099,128.37243732036495L694.2607333856213,129.01015692836972L693.9323721749852,130.21671198229433L693.5997693734134,130.63139768650308L693.0955373190209,131.11067334220388L692.7542444286964,131.21440511829314L692.0614167577378,131.22776755741052L691.2843779886498,131.3583602451463L690.971845153952,131.47076761948665L690.6693473026926,131.75425937850196L690.5884467145652,132.01473881233778L690.9448438067639,132.6246526268842L690.9847768336394,132.96196069866164L690.9261187345746,133.10120504772658L689.4467345782768,134.13038934168253L688.9113630391976,134.81864991335533L688.531688923561,135.09487571859427L687.8922432263525,135.41336481896542L687.0467182816374,136.327323147686L686.6318699972489,137.16561021198868L686.1871236694233,137.69216703171878L685.9004541940994,138.56019569306773L685.3643584809579,139.6479349952515L685.3450126881444,139.85451213414763L685.4976065084611,140.3390758522528L685.4094641797083,140.76705559296897L685.3009415237693,140.99094555767533L685.0883447097003,141.2834940470948L684.5005222778045,141.37733872346598L684.3625153921757,141.43458074299087L684.2437508459207,141.58855446266807L683.7754171343449,142.60672358831016L683.73703590903,143.15235975137057L683.3094628518293,143.90582253564298L683.1829392977615,144.50585126487658L683.2414939433902,144.6303363927691L683.8624214752845,145.25589965851486L684.0190499796636,145.50484743113884L683.9870828674748,145.70152505370606L683.907837534347,145.92474206868428L683.1951468033867,147.12118988392194L682.4971464605533,148.52523163670685L682.0584004321008,149.63252519408798L682.0359510361641,150.04287937961544L681.6586563495885,150.9594757047762L680.9049980573745,151.95404484347546L679.8418070801545,152.9736527964542L679.689627073587,153.2912345500672L679.6267273835847,153.63147847145046L679.2671232348239,154.41827766052484L677.4139618088248,156.8255167945863L676.5892310050485,157.47921529356609L675.1485384343778,158.07463168028698L674.8746971853061,158.45369981773365L674.9140094915574,158.70818842966492L674.8542134046793,158.82890663444323L673.1594391915005,160.10918917693562L672.9521185027434,160.18718399577028L672.6403098421079,160.159721108369L672.2673601999086,160.2341453393774L671.5477380886359,160.63289496047673L671.3057604983142,160.93194560206848L670.3223321214082,163.1231706483768L670.3122971379698,163.55583380094959L670.3952667948479,163.63187714691685L670.6797637479822,163.68074220775088L671.039885163932,163.63640678447518L671.3986616851935,163.45590582992645L672.0210375652132,162.87759213092795L672.3585026783494,162.6731899309807L672.6276885227326,162.60290415507643L672.8314917946145,162.70544982047795L672.9044264680542,162.96654476437743L672.7357973649241,163.73907795895957L672.4670253342911,164.0827708188781L671.2666550989388,164.92286904035518L670.5691720232908,165.03993582092062L669.9986263154606,165.2818873181668L669.5051534185686,165.64047961478536L668.8059116344848,166.51830500230426L668.3137836322803,166.52173544828747L668.1651210425889,166.69188393237164L667.8856933078914,167.38698949105765L667.8240350591404,167.79928006333648L667.6820969428854,168.17231476885354L667.4806731000663,168.5184453548609L666.806570501295,169.40819933011971L666.7368428844175,169.68830415318735L666.8347098362956,170.19993254347355L666.7988114934806,170.32392605079895L666.289406767215,170.51457646200743L665.8968009718892,170.74239156555814L665.2582863556199,171.42813382296845L662.1687528980192,173.22933067177655L661.7066263926909,173.43363103944284L661.0753535170461,173.4736678853642L660.1767569588919,173.78751221749917L660.1224439042035,173.95848354946065L659.5799340779349,174.5655633032511L659.0496317572924,174.8614107817839L658.1773123722651,175.21975985855443L658.0240978313223,175.4840571851173L656.696997135029,176.3126778841215L656.3066673153289,176.61079825655906L655.9570981500065,177.0029315022166L655.8490927612529,177.30349607701373L655.8583001171901,177.8497770905824L655.7987109371888,178.17155486812953L655.6973265684337,178.49866559354632L655.4454174481152,178.95279131456937L655.4449001809262,179.371816475581L655.6255298828073,179.7601304973332L655.875473387815,179.99250804580151L656.1123817596981,180.0337489559506L656.7818289537827,179.87262061072943L657.0061160062896,180.12609502928626L657.074912542229,180.3716159065052L656.983873517227,180.71166227001777L657.0184269653528,180.90318960349214L657.0621877694157,181.03799610932765L657.1645032191072,181.76199870095934L657.2824401378612,182.2192480497506L657.9115404913191,182.892066646692L658.4836380007127,184.04801430415046L658.5487102129009,184.51048895352505L659.3560608391781,185.8271180746915L659.58303768106,186.1731207901703L661.2638456801778,187.57808175642913L661.5041680154982,188.12702790177082L661.5935517855005,188.51551380870933L661.6870736930032,189.45832359047017L661.6075179995632,190.06874329421225L661.6713487705038,190.27841159771742L661.8182526517576,190.55020675417745L662.6957447086616,191.43888985800095L663.0360030646088,191.90317635716565L663.397469375247,192.53737541920964L663.9138054818259,193.08383193785085L664.1368510930834,193.55391687546762L664.2060614427728,193.84900720896985L664.1864052896472,194.17801407320712L663.9520832537028,194.9662139343127L663.2075288639908,195.90725829086114L662.8105780242904,196.5476049824747L662.6361555286594,196.64976632017806L662.1379237736437,196.67698179686886L661.8571511442588,196.46527332074857L661.5323073504987,196.33739791125572L660.0551991698248,196.43149250559236L659.5563466941858,196.7193776027625L659.4076841044925,197.0489640394817L659.3699235998029,197.271872552913L659.3713719479283,197.55562852676758L659.429926593557,197.77866132440158L659.6436613954384,198.08400634066857L660.6185031370323,199.04359515190936L660.7938567135998,199.3553234346482L660.782787195787,199.81113839201316L660.631952083907,200.15277950987183L660.1011324960773,200.98105882109394L659.5187930963702,201.48709355167648L659.2982303676126,201.7502149858792L659.0915303994807,202.12034899575156L659.0437349113554,202.40600339568118L659.1031171844825,202.7460434121731L659.0915303994807,202.99532510127483L659.0374242516673,203.18378516436496L658.2403155157062,204.37308421117177L657.94671466007,204.53678339811904L657.3778242072394,204.6113898942067L656.7316540365937,204.96719705170835L656.4441569337714,205.33883940007672L655.8650245906265,206.44219958030953L655.674877172496,206.6916529649634L655.5613887515556,206.74069584145218L655.0745368746648,206.7624166965079L654.0118631646301,206.60121665938186L652.5353757045823,206.1094022431862L651.9277936661247,206.09751639829392L651.7142657711174,206.1969744825783L651.5319808142367,206.4177456757916L651.2970380576671,206.8557201556041L651.1692730623508,207.42972707093577L651.1049250242231,208.0438551521238L650.9432273014063,208.3618304135889L650.5297239117044,208.71052501681152L649.6235752526136,209.1904533053157L649.1335163191598,209.76390293181794L649.0995835916592,209.97338942932856L649.1550346341601,210.37760004181928L649.2560051891642,210.6048240537657L650.2459511326333,211.7254304785656L650.5538285626426,212.21912522085404L650.6283150376457,212.50964985081828L650.5852784076442,212.7280833029199L650.1847066976306,213.54060963844768L649.8702082476202,214.35961506490185L649.5391572476101,214.6457035626754L649.3521134326047,214.89902631657242L648.907263651341,216.0891119800781L648.369305776323,217.97218605390754L648.6796660888322,218.79079226532667L649.0934798388462,219.36363634477493L649.7493746326181,219.62555826645712L650.3767162776376,219.54479981172608L650.78556426265,219.62774091744086L651.0935451460973,219.85036856603256L651.1746526410998,220.12537166640868L651.1034766760977,220.55095530987L650.5587943276432,221.45443610657003L650.0224917076257,221.7490300077652L649.7212352976157,222.00433700509438L649.1187224775967,222.93385579532242L648.7280822975845,223.73892560405784L648.7264270425849,224.0552614549615L649.4481182226064,224.68571873097244L649.5739176026109,224.88640876812497L649.6998204360534,225.27250650099268L649.9563849610604,227.09138999927018L649.8835537410587,227.51882872582428L649.7378913010543,227.72817914788448L648.9930265510302,227.81322638182428L648.7015982175826,227.9462473854892L648.587385622579,228.10543390101247L648.635388017582,228.45432611842625L648.9301268610288,228.88170086720856L649.1055838910333,229.2785308891298L649.196622916038,229.52272538486795L649.5723658010502,230.08303979115772L649.7942734244943,231.7611877826348L649.7270286901157,232.24085485342403L649.3276984213544,232.9080691232175L649.2803167469765,233.21468795997043L649.305559385728,233.36424773584713L649.3908050182308,233.68229246855753L649.5660551413612,233.95456263068172L650.1469461929437,234.6152504501988L650.5179302198303,234.89471066076567L651.3294189836051,235.21583418212504L652.0223501080036,235.33635472127935L652.6159659323976,235.33839742854616L653.0737473933505,235.17634122942127L654.2198045740115,234.10506365645506L654.7848672496539,233.81618121367137L655.3184800802974,233.75379992712806L657.3312701603618,234.09702791789186L657.9922341725724,234.44296685972222L659.0865646344828,234.83247294423472L659.5650367829357,235.2968622907665L661.344125547681,237.48979495507956L662.3670731377142,238.31658631263508L662.5075629058438,238.67584211738995L662.5960155949087,239.09130333176472L662.7317465049127,240.50470986105483L662.6528115320971,241.4101604099078L662.6375004233469,242.6048147820984L662.7126076189743,243.42583634896073L663.0128294946098,245.19348971579802L663.0579351933602,245.91811098009111L663.0279336964859,246.59425439543065L662.8106814777266,247.21934667145888L662.4538705717787,247.75899157218646L662.425524329903,248.33681689844616L662.5029075011544,248.8296190269839L662.1650285742699,249.99978156918223L662.1650285742699,250.16062300985232L662.4901827283429,251.09081018306642L662.9559301039835,253.1183498456594L663.1042823333628,254.55336835483376L663.3775028618084,255.20332676033286L663.6615860011934,255.47495573094784L664.6577391509118,255.78394255734474L665.0096877452997,256.0813698805732L665.1565916265536,256.31357114779894L665.6774796843838,256.7344803553251L666.5362466690976,257.13023689882357L666.9024718378596,257.18838300145035L667.6839591047601,257.02766518561566L669.1188582829318,256.59128101121223L669.6050894391974,256.286533386663L669.840239102642,256.22743046458345L670.6137604548558,256.4658778462481L670.9690195592411,256.8514565235346L671.2516543505008,257.0556517539444L672.6108256124207,257.68899478297135L673.033846718371,258.01950580661014L673.190164862438,258.30354827775864L674.2557352687227,260.9065205322131L674.7704161203019,262.44269403274575L675.051395656561,263.45580552207775L675.14636591219,264.8097947426404L675.282096822194,265.4569889549357L675.7026350456445,266.07563562411997L676.3854277331675,266.7406545398235L677.0372878428752,267.24277968286606L678.0097501554064,268.1926708718147L678.9511764366871,268.93880917170554L679.4684436242042,269.11519232358114L680.1823757964139,269.18303109316093L680.6789522964309,269.4679484401822L681.1444927651974,269.83425772477494L681.8169401089681,270.47187228816074L683.0997627340103,271.88260640853787L683.4636084737085,272.49607235406074L683.8981129112226,273.32336578375634L684.3102714062352,274.296628387905L684.6620130937463,275.34069940002337L685.3344604375179,276.8183312818055L685.7793102187834,277.9434441014482L686.4001342972406,278.5262796162533L687.6829569222828,279.1632900386503L688.1381520472978,279.5698693134764L690.6418286883172,280.80304959440673L692.1005221571131,281.87347834762113L693.1191247027709,282.70114583929717L693.2178192821502,282.82185522608506L693.5800097668498,283.74290635877423L694.2317664231205,284.9348930324086L694.6145441418812,286.2215231872642L694.7490336106357,286.5871641319809L694.8835230793902,286.7902917013971L695.1525020168992,287.04758017484073L695.9387481419244,287.35902500182965L696.652576860698,287.8194023634378L697.0044220016462,288.23913808857014L698.1941365329358,290.1209432337L698.2768992829378,290.41874758019094L698.2665539391883,291.0412628632903L698.1631005016843,291.55559463052396L697.9872296579288,291.96162569967964L697.8466364363621,292.16666457512747L696.300835173186,293.558507285652L696.0628922669302,293.6667604063068L695.7525319544193,293.69382348735326L694.7800696418872,293.6261656354018L694.4100166959379,293.7173683030751L693.9980651078004,293.9196617932121L693.3127895377784,294.3791694678639L692.0074140633606,295.5068685244287L691.6970537508496,295.5745125425774L691.3246213758384,295.56098377874423L690.0934220161107,295.2362874771843L688.8312900785695,294.6815714444401L688.4692030473088,294.5868604853831L688.1898787660502,294.600390682107L687.8484824222878,294.7086315393144L687.4760500472757,295.08746450829494L687.217313000081,295.5745125425774L686.762117875066,296.73791180610715L686.5241749688066,297.7929606706266L686.224160000048,298.19871648528624L685.6655114375299,298.6315029684465L684.8689199687551,299.01017444606623L684.5274201715556,299.2535978830001L684.310167952799,299.4970148819066L684.1342971090426,299.83508336776777L683.9687716090384,300.36244541330143L683.8549728277831,300.5247045799424L683.5549578590235,300.7275245163928L681.8583214839691,301.1872331631539L681.071971905506,301.592839377603L678.8786555769975,302.34992317337765L678.578640608237,302.39047947719337L677.6579050144583,302.228253190151L677.1923645456945,302.2823289367343L676.47853582692,302.59312313251576L675.2163004359418,303.2960552178374L672.0815578261536,305.2558709709838L671.1297862011215,306.0667072646056L670.5089621226653,306.7963989212476L668.646800247604,308.71494201732L668.315645794155,308.9581091018654L667.8604506691418,309.20126977150085L665.3981554031234,310.0791614937243L664.6015639343486,310.63295078178726L664.1669560433975,311.22722423612777L663.3600192308713,312.8477753861007L662.0151245433271,314.45454079543015L660.2976940273338,315.18356893000146L659.7700814960672,315.29156819885884L658.2802485425809,315.84504461130837L657.1318119328562,316.50647287624633L656.3352204640796,317.0868708715543L656.0041694640686,317.4107980676481L655.6524277765575,317.99113919689535L655.4248302140504,318.97628594128946L655.3834488390485,320.75738031583023L655.4972476203038,321.64779868661753L655.7248451828109,322.41672728966114L656.0041694640686,323.0370846058977L656.2317670265766,323.7384603980581L655.931752057817,325.30287608748404L655.662773120308,325.84226836599464L654.9591862918478,326.9209584871287L654.7315887293407,327.1636464157855L654.4212284168307,327.46025634235684L653.8729251980621,327.662484926479L650.531172259829,327.75685675172736L649.8794156035592,327.93211615694054L649.2585915251011,328.43091320221083L647.6963411653633,329.9271428990005L646.599734727828,330.57408617063174L645.1512831493428,331.18055438896045L644.2817570071275,331.45223925273785L641.4132000920345,332.1471825240369L639.1147750710224,332.23584905584994L637.4286909465927,332.04760010194695L636.0260692409229,332.0970545646369L635.2811010374608,332.20485629179984L634.1087666836729,332.5996693917268L632.8016325008184,333.43033886394824L630.9979218179469,335.08808638565097L629.0632390831979,336.74486359005186L627.6975502547148,337.7953491686394Z" class="state" fill="coral" stroke="#111" stroke-width="0.5"></path></g></svg>