<svg width="800" height="364" xmlns="http://www.w3.org/2000/svg"><g transform="translate(0, 0)" id="single_state_map"><path d="M686.2115659081546,362.99395889728066L684.9849993564412,363.34680556444073L684.5363894686234,363.6432102607437L683.7919167698528,363.9590880338137L683.549101589043,364.00000000000045L682.7436053043912,363.95133411540564L681.8539100152993,363.6822877187751L681.5241117700289,363.4808781026004L681.3071808229333,363.28007434742176L680.7575923256809,362.5066963980521L680.6322343798402,362.2380993626771L680.5423167656254,361.836305262259L680.39701893044,361.4360168445637L680.0615020753949,360.87738779462825L679.7897928662524,360.56717597686065L679.574366816466,360.37352837678645L679.0912947802708,360.07125487604526L678.2820362523489,359.82460705479525L677.6060363811366,359.84165627972607L676.8444830979079,360.0971850118631L676.4973032887192,360.31564732577044L675.606554571511,361.1223617895603L675.0969210978128,361.36977597761415L674.7304033582013,361.45030600150085L674.1678727440903,361.4667384924214L673.7604217976741,361.3893727309887L673.5643336783096,361.30057446073397L672.4756157201009,360.5362458373984L672.308496873934,360.1904917939296L672.0590601449649,359.43950703284963L671.9546202717202,358.9628982482873L671.9199323887469,358.65688193123015L671.921587775787,357.8167676568246L671.770420841096,357.05804741324937L671.5670339697826,356.61680634328695L671.1489734973366,356.04028703846643L670.806910338998,355.7059350707914L670.0078851127746,355.1390391831392L668.7138239167507,354.61040854286466L668.3062224806026,354.3155251635635L667.9768757045249,353.9621784580886L667.106518345855,352.6880056953246L666.4215643356556,351.7679861013762L666.204558143696,351.32433400861055L666.0770180967575,350.877072794563L666.0355581758931,350.19922049439583L666.0531654744082,349.9316381161957L666.190637843587,349.4656682495106L666.355800323252,349.11951757994893L667.1412062288273,347.8637069741726L667.4612226415902,347.40914453342157L667.7257835885157,347.2003663397795L667.8232256892752,347.0048799113106L667.8838730508278,346.6170604367312L667.876348564283,346.3807357407177L667.8321798282632,346.2750517702416L667.5612983126393,345.9605471696236L667.0819885197188,345.65943076769554L664.7956732829934,344.86753813337054L664.2361524635016,344.83868064154467L663.3716642043364,344.9349741020883L663.1893458953491,344.9851157095168L663.048863731552,345.12561243489927L662.0841493116068,345.36863476894814L661.0215413217102,345.2654921080657L659.8886546274816,344.95533778215486L659.4742811534443,344.72826371051406L659.3056574099683,344.57322650848573L659.2159655303512,344.31953042111763L659.3653265882713,343.0801732143964L659.3433550875598,342.2489551939302L659.2555443295778,341.6031507201783L658.9116000496015,341.0523017855062L658.3905293563548,340.8226307787586L657.9161857245526,340.6816293531965L657.156062093768,340.6133290632324L656.1127920342924,340.24642004197676L655.6209163488393,339.9381714196161L654.8323501589139,339.3479513582465L653.9028503360005,339.01005821641684L652.8452085072231,338.8947259198685L651.343922951748,338.01604223632876L650.3132940296664,338.2586194250807L650.0377473323861,338.371812114598L649.5794308569248,338.7698655941899L649.0883828649921,339.0784781632756L648.7619706386668,339.2688824909428L648.1757378919383,339.48437356751447L647.6520336284011,339.51376745884454L647.2220844672156,339.445864291597L647.0749807552584,339.363724045681L646.9813008977717,339.17813643851105L646.9133547842703,338.9654004884842L646.90176707499,338.7027739217983L647.2435292538685,337.7323749832826L647.2755083216853,337.47420526030555L647.2481191906609,337.3170444263519L646.6724959699623,335.9178957263598L646.1864893840147,335.5035738026286L645.9019885477455,335.32228024434744L645.6704600967532,335.27472697874964L644.8711338910689,335.38469336502203L642.4610408506778,335.0824605759649L642.0593085140363,334.951068352957L641.8305641230645,334.7264039003785L640.4045986779047,334.2874038358841L639.3954145424786,334.08219190042564L638.9246074193525,334.07030129525947L638.3597442144128,334.162452902769L637.9002238211042,334.30031905051146L637.0977373310716,334.3742222733563L636.7112044572496,334.33762952296456L635.9318933857749,334.3690972509871L634.4488923326035,334.1088431759249L634.2133759037424,333.84591319979654L634.0147294589533,333.3909622393044L634.0202223341303,333.18274825373055L633.9308314339751,332.930032296189L633.4508444372641,332.24462416992174L632.9867341071631,331.68547727390114L632.0014778389504,331.1018734747754L631.7666386138781,331.0167536928543L631.3825135757506,330.9308123208143L630.9005702125387,330.8995326542199L630.2149389985498,330.7349272776055L629.2494721299508,330.6682634490571L628.9262954328387,330.5636511060684L628.5199731594039,330.27739420074204L628.4049990049953,330.1350301711009L628.2973988474005,329.8967581521024L628.2317100798618,329.1647567884229L628.148790238135,328.8740254100685L627.9402867159706,328.38270628060627L627.9072542200374,328.1985415687823L627.9718143145947,326.76628603039444L627.8654180748472,326.5272716436125L626.8794093579791,325.9641308479945L626.4325301020654,325.778972116937L625.6283129801277,325.5483372420981L625.386927451761,325.54361565722684L625.0116060628916,325.69952874166665L624.1693150390356,325.8360393534185L622.5204743024105,325.53673855992884L621.6012830260634,324.49369417973685L621.2550061552583,324.29411962333324L621.0912733280375,324.3246105873245L620.9228753191583,324.47716586721435L620.3980423826379,324.7414083826111L619.9171524475423,324.8696246541913L619.7748644069743,324.9424059953226L619.6121097630039,325.12594676615754L619.4437117541256,325.2383474664225L619.0368627666321,325.40299293035196L618.6587573177412,325.4974260545155L617.2751547318312,325.60684354543946L617.1084873548571,325.57533232284413L616.5923828227305,325.2370130405743L616.0886936934021,324.76768831014533L615.9865111661202,324.5414309893931L614.6869570949175,324.63844339788875L614.2853752480069,324.57838827249725L613.8986918844548,324.2791307455004L613.6072685205636,324.2191748796354L613.2229929927062,324.32009341672847L612.9488007030022,324.46720779476027L612.4880011469822,324.95482698697833L612.3452616372215,325.2573373422383L612.310949978576,325.4177738600506L611.8287808807672,325.94288508203135L611.2898019095428,326.3977547164818L611.0516519103912,326.4886836758087L610.3068782321579,326.50674615806247L609.9903983280719,326.4155095705996L609.8106383445102,326.27336671396597L609.592879703896,326.1857189164007L608.9259844614044,326.05445021768355L607.8430603578354,326.0633794491041L607.3487768366886,325.93436622833633L606.9921161744523,325.7695292872604L606.7770663489928,325.5677367604185L606.6827845325824,325.360086980847L606.3437311688622,325.23105944491954L605.5084379174914,325.7160538668559L604.3106149043788,326.0903723365773L603.1363435341536,326.30354026552186L602.0486790040623,326.3523923778366L601.0988630674747,326.13676288608303L599.79223597892,325.7073294272477L599.2396376870502,325.4618085088032L598.9008853027899,325.2462513675905L598.2952393807755,325.24235074227045L597.6582915947338,325.423932570583L595.6685916176166,326.34726087112676L594.8313419997448,326.6526809169204L594.045183645515,326.8163660482087L592.6748241559244,326.8775288120719L591.5819677301151,326.737756663053L590.1207124430603,326.3639895676938L587.8714176801368,326.153184238181L587.6112209354087,326.20255067177277L586.7888698008956,326.19351900371385L586.0570382395208,326.1243442103096L585.0031586540163,325.75474917779L584.0338542972777,325.2797145282857L582.85017731887,324.8919005553953L582.1933648883496,324.30151138565134L581.9908057105567,324.1716409732567L581.5637158542586,324.1719489694797L580.7286483374837,324.2807733639779L579.7740167295096,324.55190224148646L579.1917719606499,324.78113619966643L578.4656590090499,325.2057052766577L578.3409030221319,325.6501583905424L578.349631426524,325.8278282718975L578.4426340802202,326.0696401670839L578.4277355968616,326.3346373469499L578.1924449025973,326.7504820082313L578.12457403396,327.5999436632965L577.7494031348233,328.5401910818173L577.4711476223856,329.46142447182456L577.3448114932926,329.68073626651994L577.032620546538,330.03266558747237L576.2341972792392,331.3464583007353L575.9345722250127,331.75284821560535L575.4105669820128,332.26636151029015L574.9976984052837,332.4251853841156L574.1302755963661,333.4656961696628L573.8478063714638,333.7167506263504L572.8371925835945,334.3456245956786L572.5854985086607,334.4049723206854L571.9420044193248,334.43900219945544L570.7723982307571,334.31446425543345L569.6498200830956,334.8076816935177L569.0598250930952,334.99780411980737L568.8954903069498,334.9969841970369L568.65418002345,334.9044347339568L568.1043657915998,335.09588661725456L567.7896917642847,335.08440786615574L566.4498816900668,334.9005400425881L566.2933723699289,334.74485292326517L565.9248982638155,334.5816797056282L565.723467759005,334.508598883544L565.2015693722369,334.4327497354061L564.8252698001179,334.22651747018017L564.5835080474235,334.02243113364875L564.4769613179451,333.4912223722754L564.352130086163,333.1667551688438L564.0154093132705,332.7935717478658L562.8570898545195,331.81098968620245L562.478081467244,331.66260995758375L561.9698024011232,331.30164409258805L561.2078728935676,330.3616008154654L560.9830412356005,330.14026118261427L559.493117654808,329.1663981415795L559.3765633582252,329.05345153654616L558.7088404222131,327.8735983629622L558.0300564909803,327.14557074448885L557.9452555276184,327.12607343630407L556.8013830830341,327.42057902042507L556.4807647113485,327.44294857203295L556.2106356443792,327.4235547910166L554.8071684139904,326.9603438959766L553.6979838523803,326.42495143808674L552.5452325136721,325.7771246078901L552.2137788813607,325.53448040694866L552.0421453432682,325.3065054590452L551.6350706211788,324.9577012625682L550.5133201670369,324.2127070040451L550.2883380193389,323.8589144191419L550.138600737092,323.75819388137916L549.6520674370868,323.5974073198331L548.8930724792835,323.6218438545543L548.0169212659739,323.53518613787537L546.7032964049322,323.01531763127014L545.0442976114728,322.5551732598874L544.5664174709937,322.3538945164696L544.2805622271462,322.15456064182035L544.0728863985014,321.94299902431794L543.9920734130073,321.8371128625763L543.8153232240629,321.4137559343785L543.6539982325367,321.1974447472403L543.3215664169747,320.88035986900377L543.0339805412214,320.6851912153993L542.1448119661891,320.1952913977989L540.842248100369,319.6183341430369L540.0080082771156,319.07636148532583L539.0408860214748,318.6593962512311L538.3993482986407,318.32183774394343L537.4274856164784,317.6873640021081L537.0101023478219,317.6692763547344L536.6604394580718,317.7305274972259L536.3918905332775,317.96453017948943L536.1825593175936,318.05023650732437L535.9976074383148,318.0705838823287L535.6663795406002,317.9629886881489L535.5372593514876,317.82137541569L535.4480189410624,317.3592090434654L535.3530599208634,317.224468397314L535.0587772520857,317.0229173469056L534.5851108240722,316.51053149277504L534.3474875389775,316.402293024983L533.9198709686216,316.08065041365353L533.0498145894126,314.4374378446646L532.1796829653395,312.9556822984723L531.7835939936058,311.9184833974682L531.5726826357468,310.83543490185457L526.5672436962241,310.85189599396836L526.2764975361233,310.8378011864829L519.1450901681519,310.84736919791067L519.0020496789311,310.8379040684031L513.2246736647476,310.85776024767847L511.57049054267645,310.8598178792704L508.791998641037,310.8682541617932L507.0850688682849,310.8611553394462L501.36984511296487,310.88049703957904L501.1283090948682,310.86156686559843L499.9257456552323,310.86815128036915L499.9183716584175,310.8682541617932L496.69435490844535,310.86362449594844L493.8133042551972,310.8649619553212L492.192605098252,310.8554968521553L492.1631843558589,310.8686656874834L487.82072792582494,310.8563199051655L487.6800952722979,310.86341873294487L483.61077770384964,310.86208127324835L483.3787225387996,310.8407847614935L482.46841015657446,310.85765736608346L481.69752651003,310.84520868046593L479.15342236427205,310.88204025778623L476.1990832120746,310.8641389034342L474.7066013058575,310.878850939745L474.07356625281864,310.8689743317309L472.167237586621,310.87741060203734L467.7098822470425,310.870723315526L466.103780593995,310.87864517723483L465.9161951444248,310.8834805944384L465.67939955285146,310.88821312684104L464.07668391874904,310.8755587387868L458.3742517905557,310.8964436095421L458.13512360815275,310.8847151684504L456.91111538186397,310.8783365334566L456.64858604630535,310.88090856446934L453.55692501466,310.88913905668096L451.00597358614505,310.8935629418147L441.2273766067474,310.9053942473138L441.06093496437006,310.8936658228281L439.72676825506096,310.9034395114136L439.1540795841147,310.90415967734L437.92382603399255,310.90210206018173L436.013659879658,310.8801883958913L434.5296053983702,310.89140244015834L433.62222756589836,310.89592920468795L433.3948375825066,310.8864641478881L432.93998237085543,310.8747356882818L431.9997977770481,310.8935629418147L429.8802251621619,310.8754558574815L429.13469903527584,310.89695801435437L428.3867650726934,310.8833777132568L427.7989521837917,310.8833777132568L424.73618518047897,310.8871843157508L424.0406216442516,310.881422970549L422.32759703739794,310.86362449594844L422.2892221560178,310.8631100884236L421.5154792045869,310.8585833003958L418.23833957960596,310.8527190474492L416.503343472039,310.8494268328841L416.0086837265653,310.8493239511513L409.6197926908644,310.8221631151273L409.0832968001987,310.8200025890683L409.0480069583018,310.81989970685845L403.6651397736787,310.8372867768571L397.6937824963643,310.823706347574L397.2483328928947,310.81413830033216L392.29458717593843,310.81691612199074L391.8538027541272,310.8148584764349L383.0248712215853,310.76053639152224L378.3903142238705,310.78841767144286L377.66171819171086,310.81125759509905L376.97601173285693,310.8188708846483L371.5370871234709,310.8329657343411L371.06199104301504,310.8835834756128L353.3233902373022,310.8656821256318L351.7865138604684,310.90529136649184L350.3707064721457,310.90230782192793L346.4842339267425,310.9140362303806L346.04593258549085,310.9047769623576L343.31913390641876,310.9414024321527L340.1048237440882,310.89716377626837L326.30890339826965,310.90323374970285L326.2818904915721,310.9037481539631L326.10506505776266,310.9080691480999L326.0206403187276,310.9034395114136L305.6970774053161,310.9840975855491L296.2914692239583,311.074322298537L289.6587095793302,311.0350227528784L279.3946327280455,310.7563181797932L261.89538583933154,310.7535403315055L234.9576487630584,310.7275108049166L231.43754346753576,310.73265498863157L208.5042628856918,310.68934083100066L182.94892447748316,310.60672416824036L182.85750196596018,310.60662128255444L167.2160508052275,310.5968471350502L162.4191906327369,310.61145690783815L154.8465473737615,310.6080616819618L154.77641915916047,310.6079587963027L154.74594498865372,310.6079587963027L149.49588499155016,310.60425491138767L149.4479540122593,310.610530937327L146.335224418287,310.6174242701113L143.73288074667016,310.54231740320074L139.05528368591695,310.58614699835107L131.61695251177207,310.54550689103417L131.49400240162504,310.555692663987L123.26612685430518,310.592834585912L120.15482691277793,310.5115541959899L118.28822753553777,310.5133032786739L113.61928363431252,310.6270955004493L113.5629252300896,280.80062410112714L113.56232327116686,280.0515367922585L113.53719148610526,279.29439857024545L113.52327118599715,277.0663964019386L113.50739451938716,270.33591572072373L113.49595729983776,266.403574072277L113.49445240252953,258.71531006015675L113.47594216562811,252.95199794725113L113.49038917979487,250.79552795926384L113.48700316084978,250.3650796120428L113.48572399813747,250.32976158880138L113.46834243421836,233.3484985838386L113.46796620989062,233.00309539323916L113.44163050698353,222.25895836903373L113.47255614668302,213.58620031990768L113.48211224459465,213.42371474337597L113.5169506172997,188.05403222255563L113.44907974866237,180.74692302192352L113.40859801104943,152.5567842728774L113.41123158134087,149.85351732501113L113.41740166030831,134.20840821904176L113.40777031753078,133.9397711251745L113.41988474086702,133.24272045029147L113.41288696838092,130.81210862522494L113.4080712969926,130.780549648513L113.405889195893,126.09340150765684L113.405889195893,126.06436183297319L113.36578368260871,115.58433804116748L113.40957619430083,114.74004596994655L113.27533935433621,101.72486601456467L114.631026095165,101.65995707071625L114.59739164030816,101.45288228045456L114.63990498928706,88.23790402112809L114.60875361499257,88.13669856415208L114.58008532125496,65.5972873803994L114.58708309374106,64.58994061672684L114.59844506842364,61.499627887214956L114.57617258825121,59.436257358448984L114.54562317287673,52.01323767798567L114.47429104043022,48.99989599781702L114.51116102450123,48.011790490548265L114.52086761214468,47.649677276101556L114.47782754910622,43.809813652243065L114.48309468968819,42.56685253442538L114.46127367870758,41.79058385803137L114.41161206750985,21.113211749155653L114.32003906625687,8.333615265191384L114.30536631749328,7.9457665322961475L114.30378617531824,6.8648667046045375L114.19746518043576,0.015149744855989411L142.5620706402542,0.022508178550197044L143.14145610422565,0.022616390743678494L143.14145610422565,0.02369851256662514L149.43915036300132,0.018071476963086752L150.82162427592903,0.03451972004404524L160.14137806580766,0.017205778708557773L160.3263299450855,0.0148251078658177L161.40631949890212,0.028568058347445913L161.9115887704047,0.020127509814301447L164.61024586979875,0.070662411543708L165.0851914605255,0.03224726809139611L171.48393957360076,0.03224726809139611L171.48521873631398,0.03257190413933131L176.42850541697317,0.026187392013525823L177.01255606260202,0.024672422037383512L180.72837325316323,0.015257957182711834L182.25674696019996,0.020884995424239605L185.4973175805726,0.020343934285392606L186.95669174599152,0.017422203281967086L189.26655862560165,0.012444436081295862L190.90095234805904,0.015474381825697492L193.21194790065238,0.03073229964593338L193.6215057033014,0.025862755621346878L198.84500426290015,0.04458342548196015L201.87210519998825,0.041228858876820595L215.06862494762572,0.040904223300913145L217.38571533431877,0.0190453873478873L217.5063328536371,0.02229175415732243L217.9420006245973,0.015474381825697492L219.0754892777495,4.547473508864641e-13L219.7575839830606,0.004977777529802552L226.0763468041623,0.03473614399536018L226.65061561728362,0.0470722962650143L232.28818667145788,0.02889269459137722L232.92483347803864,0.03148978391664059L233.5250617697393,0.03993031646223244L234.51581091313074,0.03971389270145664L236.09760847463804,0.04425879008476841L236.1005430243913,0.049777589422774327L236.49068765175343,0.041120647021671175L237.23011894453884,0.04014674021937026L237.54389003347023,0.049020107461274165L238.11582625576193,0.06297940253352863L238.28256887760017,0.05778525002324386L238.55284843430036,0.05096791802498046L238.55819081974732,0.05399784431438093L241.4485718363112,0.05940842316522321L241.5162169703508,0.05042685959961091L243.40892631590214,0.0696885095376274L251.71317540165546,0.07996857829584769L254.788734032094,0.08959936356768594L254.81093126740143,0.08959936356768594L256.10958240021773,0.08754335452749729L256.2204933318926,0.08754335452749729L256.33877826038224,0.0851627115980591L257.1692558403629,0.08559555583588008L257.9282507981661,0.09349495771311922L258.668660274202,0.08635303318169463L258.72893141142777,0.06893103008951584L261.51848430828795,0.09219642661219041L261.7015550659298,0.08743514350499026L263.52187885091644,0.08959936356768594L268.05718787110163,0.10117792764049227L268.07456943502075,0.0940360122540369L268.20414109332705,0.09663307338087179L268.69443663660513,0.10593919984330569L268.89654434520617,0.10583098915230948L270.0818014657889,0.10756235995495445L271.30904522129185,0.10453246071983813L276.62140796698804,0.09641665166236635L279.19448138594544,0.10745414929351682L280.67311823691944,0.10669667461434074L283.56139239725144,0.1139467854745817L283.9039070247836,0.1090773089981667L285.70052867715367,0.12206257081561489L285.76704513821187,0.11719310092757951L285.84349392150943,0.11232362708778965L286.26983132915393,0.10518172497313572L288.4174702788532,0.11838341615339232L288.9207831838539,0.13667095676419194L290.01898199510833,0.11924909980962184L292.0480350368571,0.10886088772849689L292.14171489434466,0.12130509798134881L293.86805784238277,0.11502889081975809L296.0527172658831,0.12520067153946002L301.05206137130335,0.13126044759837896L301.4192563147035,0.14608523108245208L311.7568473995352,0.18255187835393372L315.2272158389942,0.1282305603349414L315.4588947797174,0.1354806451663535L315.86574376721,0.1469509107378144L318.2293354807525,0.13894336915973327L319.77930446417577,0.1391597893434664L321.7393579643049,0.14532776128135083L322.920627107017,0.13429033333341067L326.4961126235112,0.15420097294509105L328.0174885580618,0.16826823283281556L329.8748328168522,0.1681600232668643L330.13141780803926,0.15874578359489533L330.47897384155567,0.1613428167033817L331.0683668726333,0.1661040411513568L332.3599449880967,0.17400333701471027L332.6236782415017,0.1741115464756149L335.31330595704276,0.15863757385614008L335.7265507580996,0.1741115464756149L344.8041665709552,0.14954794895356827L345.1147773755374,0.17162272839641446L346.0293034702263,0.17616752584717688L347.9421784397182,0.17335408021335752L348.19853769631027,0.18320113415711603L351.61510605697185,0.1719473569010006L360.67646897889153,0.18222725042323873L361.2514149957997,0.182119041108308L361.25427430068794,0.17822350451433522L362.1320056561726,0.19488772665863507L364.35488947132126,0.1543091827625176L369.6254160718272,0.19153324410490313L371.3665070134948,0.19564519020241278L380.0864839808637,0.19434668121311915L383.7700963690095,0.20386907394185982L386.19606607601145,0.1960780264685127L386.6594992023238,0.20354444716667786L386.98124624699085,0.20743996731880543L387.71684005163934,0.216096669711078L396.46480810895446,0.23600703781221455L397.1255332724786,0.25104797859148675L397.2166548045416,0.2704171921041052L397.857741058182,0.27355521522395065L397.9218496835465,0.27106643840170364L405.742500019046,0.31770378026976687L407.15273928732677,0.3207335718411741L407.93182462420464,0.3185694351609527L410.293836195573,0.3336101689415045L410.434393604236,0.331013210407491L412.26344579361376,0.3407517991172426L413.4028787911366,0.3549268277661213L418.18348607269127,0.37873214403362L421.17153492461057,0.3925824663938329L427.60369175794585,0.40881327221859465L430.73478109908774,0.44982291262112994L437.377698800552,0.48855999358511326L437.44556966918753,0.48628771361791223L437.45828605144834,0.48855999358511326L437.56776733068,0.4887764011564286L439.8098385865187,0.49158969886866544L441.6983342196045,0.48704514036899127L443.281260454095,0.47481809683949905L447.8544928864676,0.47092275030536257L449.5384729752577,0.47027352563736713L456.7348919069782,0.5482881869252196L456.95204858866873,0.5505604434097222L463.6483901446027,0.5500194300398107L464.8293583078539,0.5456913213197367L465.3620167103809,0.5461241323309878L467.884676069486,0.557377207695481L467.8986716144591,0.557377207695481L469.9226832502218,0.561272498098333L471.47295321310594,0.5718763313730051L472.4740109030645,0.568630261952876L473.05354685676593,0.5693876783084306L474.44715700978213,0.5832375605145899L477.1165438565167,0.5820473375188158L477.16146504119115,0.5822637417159058L477.76553082103055,0.5771782409838124L477.8462685616596,0.5780438584324656L486.13817748947804,0.5726337473179228L486.85330469072323,0.5698204876098316L493.4166133245408,0.5957889886462908L500.95351527242474,0.6416663991049063L501.0323718914178,0.6416663991049063L522.0294515954802,0.7814604960717588L537.8956591693131,0.9679918187757721L555.1183059326286,1.0025059694798983L555.193024084022,1.0027223585143474L563.7801186190045,1.0030469420476038L568.4688519198444,1.0121352739065514L570.0722447577373,1.0267414926947822L572.1922688418144,1.0357215947428813L585.295635446023,1.095336148278875L585.8626055071963,1.0881954162887268L591.9084552013073,1.0926313265540557L603.503162253227,1.102801449913386L605.2761570178445,1.0978245831897766L605.2830043005997,1.0978245831897766L607.3185284007768,1.1187057571992227L608.0653336903779,1.1157845610623554L620.3353634097175,1.1248727221518493L620.8406326812201,1.1223842984609291L627.1507423427947,1.115459983627261L633.4213484500078,1.1006375953229508L635.447993656061,1.0782416544816442L636.5642512350241,1.0234956693716413L642.8563773737551,1.0893855388767406L644.3037123607037,1.105506267052533L644.4323058357586,1.054980081526537L658.9919615659037,1.0840840818900688L660.0190539793075,1.0379936666254252L666.8055388840512,1.0434033581177573L668.3606245183246,1.0532489841184542L669.9220307212945,1.0701271625316622L671.489306023771,1.0963098838019505L673.0522171240509,1.0866807144698214L673.8914231084254,1.098149161578931L674.6220507519529,1.1081028903590777L676.1672040639851,1.1026932572017358L677.1918133968302,1.1049653037234748L677.0986602534012,2.076673187241795L677.1137844713567,2.6372106410176457L677.1374866039741,2.8009702885674415L676.9448597484206,3.085321702526926L676.9096451513888,3.220408239580138L676.9469666046525,3.632030292611944L677.0216847560459,3.7394194221296857L677.1060342502169,3.8981744544735193L676.8917368734128,4.3331071277712L676.8129554992847,4.602464098044038L676.8326696540325,5.057132006290885L676.8155138247112,5.867339471646574L676.7785685957742,6.205812507203518L676.5842863531807,6.357043573325882L676.4866937626903,7.4594343188123275L676.5453847577419,7.959599405945482L676.3350001139406,8.503162890514432L676.3538113303048,8.698315035824635L676.4616372224946,9.066558293432081L676.3462868437591,11.065569705569033L676.1937655014899,11.40612612963514L676.1192730846933,11.623756743561444L676.1230353279661,12.144526149844296L675.9532829115087,12.931534556821589L675.7015888365768,13.557352982163593L675.4000074158484,13.943760087312967L674.9392831046935,14.221430997039988L674.6768290140008,14.445113009868237L674.2886407531396,15.034289603411708L673.855380817874,15.819300916091834L673.4873581809543,16.318770787799167L673.0597416105957,16.683418033911494L672.5215903328917,17.02214569814805L672.3386700649799,17.203965200179027L672.2146665267173,17.42278874338581L672.1329506028387,17.752303852699242L671.6713985981623,18.556594504709665L671.5148892780244,18.93750269633756L671.4427294520565,19.45213813661212L671.2729770355991,20.048482022356893L670.4990835944382,21.457081473044127L669.718869584578,22.333326696467793L668.961153789488,23.01745756351056L667.8656637933882,23.70787011022503L666.0648284285535,24.609976101175107L663.5118453886716,26.33243994255463L663.115756416938,26.633456875563297L662.6022854551011,27.476418171130717L662.324481411857,27.846852928821136L659.3681106482927,29.910594585515355L657.4114431671087,31.438425976914004L657.316032677717,31.55651506459253L656.922426786542,31.701943387947267L656.688415254991,31.92454634373098L656.313921559643,32.39319127102772L656.0531981008544,33.00784234091543L655.4956336478645,35.17826154933846L655.4376198566015,35.67010463777979L655.1167005054531,36.29388730410437L655.0343826226508,36.625060753281105L655.3432627953262,37.018164458060255L655.6594417199503,37.37984026559252L656.0439429824037,37.87118132071009L656.0723102966795,37.91118369012929L656.7123431222035,38.757838311599244L659.2303372996521,42.059344869011056L659.4474187364776,42.18711230220924L659.8433572184804,42.563306683446626L660.5188303756322,43.57583118093271L660.8067924757133,44.14820202025567L661.9923505757561,45.71184722644921L662.3451737498553,46.41190861878886L662.9265155803287,47.77893689911252L663.4816721976249,49.222828054460024L663.6174139348987,49.68143902502743L663.6322371733922,50.08818164051172L663.7057514069384,50.294869381879835L664.0114712952654,50.85544480244107L664.1325402837756,51.57690529174897L664.4408937423941,52.43924023337331L664.5419475966937,52.62342796805751L665.0796474052058,53.2174676078148L666.0927442736356,54.77812588683037L666.7533941922948,55.92358937114477L667.4655868437858,56.87867346516896L668.1268387213695,57.49844873552138L668.3750715324913,57.611742197339936L668.7518225738031,57.64207490250055L669.1390326514138,57.60681177860715L669.7442271042355,57.771228359260476L670.8254958207635,57.651721313986855L671.3720745233986,57.74807740289316L672.0808811559464,57.74689841663303L673.0950314524916,57.86972611455758L674.3400329962424,58.3960563812534L675.5752527074837,59.19719947603153L676.0180687406619,59.56258669065528L676.5835339045243,59.82230894727263L677.2774420537135,60.227406286951464L678.4940762831875,60.767351090857574L678.9644319371218,60.84362512738926L679.6249313660492,61.04105472460515L680.3139485989823,61.34634555614548L681.3414172367138,62.18319201608483L681.8023672824665,62.4358405879575L682.7761110862657,63.335608042256354L683.2658799154851,64.49176620294884L683.5091465654878,65.2014339875036L684.2673890746364,66.77516762108735L684.3042590587074,67.24358032940927L684.3591125656194,67.4517164703002L684.4631762145391,67.60762662640855L684.8193854075835,67.95838307094027L685.1300714570307,68.62966448889256L685.1932771440088,69.05310918994564L685.4074992759479,69.27840652354826L685.484775752765,69.64543283277544L685.5055433356292,71.12518685603573L685.4936546468889,72.75276682181448L685.5413598915848,79.17210990666126L685.5536248046528,79.61393611538506L685.5528723559983,79.79975624884128L685.5421875851052,82.4204963143261L685.5385005866965,88.2344914304067L685.5336096704432,88.38315063913387L685.5631056577004,91.31922548325838L685.5485833986677,91.45800335835293L685.5492606024582,95.95793600641719L685.551743683016,96.10885636450257L685.5470032564926,96.94359036090964L685.5581394965802,103.84796521046383L685.5389520558892,105.4157712452361L685.5615255155262,110.94725560188317L685.576123019423,111.37467166084252L685.5643848204118,113.13714144199776L685.5982450098654,122.11707561638741L685.577928896193,122.94179302673274L685.5734894491325,123.51352619448153L685.5783803653867,123.70734348965607L685.5936550730721,125.22119734426633L685.6117138407808,126.74771152710719L685.597191581749,126.88314305837139L685.6228500808675,131.34657439073726L685.5994489277127,132.96017270111633L685.5830455470441,140.5714960451778L685.5861305865283,140.62288250931715L685.5734894491325,149.7778201407109L685.5638581063549,149.83324704069946L685.5473042359554,151.59207889136724L685.5643095755468,152.64131146719228L685.5670183907023,153.70492517545563L685.5558821506165,157.27069861298423L685.5486586435327,157.49951428952272L685.5789070794453,158.60350946232347L685.570780633976,160.59074997427751L685.5595691490244,166.05375243209664L685.554979212231,166.68665835085176L685.5490348678604,169.16353743624722L685.5438429721453,169.72046135235405L685.5421123402393,170.72273454650258L685.5536248046528,171.05026631694273L685.5464012975699,171.21618245631453L685.5418113607775,172.53619829803893L685.5370709342542,172.75740060881253L685.5464012975699,174.08560472748968L685.5372966688501,174.22136433935611L685.5470785013586,175.63199392333854L685.5399302391415,175.80504091635794L685.5274395914757,176.99521208768374L685.5186359422178,177.30895774150304L685.5375976483119,178.43662875347673L685.5372966688501,178.7524027890472L685.5335344255773,180.19109823246436L685.5144222297531,180.26316603331452L685.5068224983424,186.32110464001562L685.475746368912,202.9383285845197L685.4662655158645,203.13929240321613L685.4593429882425,204.2923011251869L685.461750823938,204.46695535319122L685.4858291808814,206.02146480458032L685.481088754359,206.23184872777074L685.4674694337109,207.50310214222873L685.4651368428831,207.69680604121868L685.4700277591364,209.01387410421285L685.4605469060898,209.24569685043798L685.4678456580386,210.38324910881465L685.4774017559512,210.4501574582332L685.4680713926364,212.09399463240516L685.4633309661122,212.27083330020923L685.4760473483739,219.63171885211523L685.4669427196532,219.63871293800594L685.4646101288254,219.8009317683268L685.4699525142714,222.66307469592812L685.4831956105918,227.30242848188436L685.4686733515591,228.72938721300216L685.4612241098794,239.33147864199373L685.4591172536475,240.85358480420928L685.4606973958207,247.61881965838074L685.4630299866503,247.8682272057763L685.4609983752835,249.8798548437485L685.4633309661122,249.9985934784977L685.4861301603441,258.99093515668255L675.0899985701917,258.98066556447384L674.509484433238,258.98657836204575L674.4903722374129,259.447759375274L674.5495147016591,259.5449495120797L674.825964337324,259.72750108207174L675.0551601974867,259.61828194686586L675.1472599127992,259.62543881460215L675.4616329606524,259.9572388209672L675.5538079208309,260.08294276671586L675.8587001156375,260.96477007702515L675.4548609227622,261.2896552831762L675.5471863726707,262.0268841509219L675.5873671308209,262.18562067793255L675.3371027083322,262.67621658347844L674.4258873877225,263.4846000210928L674.2136216222843,264.12445312418095L674.2325833283785,264.2548412260303L674.8611789343549,265.86073491285333L674.9626842578482,265.9625920719409L675.3404887272773,266.1164626691657L675.7865402896696,266.061857172243L676.2963242530996,266.1091059790815L676.6693130511403,266.43600409021474L676.7141589909488,266.5472802570039L676.6268749470255,266.9380781157802L676.416866527552,267.40706556250325L676.7991104440416,267.6153895817097L677.2333485625586,268.07479676760886L677.6202576607066,268.69522793068336L677.9647286547406,268.9722787913779L679.1605200564873,269.9099145650089L679.6087537199774,269.8532710080217L679.6866321557181,269.77042759077176L679.6866321557181,269.6520631607218L679.7597701649374,269.63321577507213L680.0381009222401,269.7800581942065L680.1441209376599,269.9410838362328L680.3301262450541,270.8856153636184L680.3508185830533,271.8891149681558L680.3488622165523,272.02783024034125L680.2826467349541,272.3031813263806L679.9618026286726,272.67923343092343L679.8957376368071,272.70045232506027L679.904917510391,273.3061438824925L679.9491614912768,274.38490020292375L680.0338119649095,274.7468588358206L680.1116151557853,274.7658978204922L680.1256859456244,274.862850885198L679.5526210503513,275.7447756743222L679.326284495075,275.9741344628069L679.4626281912715,276.78990936483797L679.7849771948631,278.0337466884571L680.0297487421749,278.45712890490313L679.9966410013767,278.71234407332076L679.6664665317776,279.74271646913394L678.8654849390532,280.2056828074351L677.9587843103709,280.4843973281513L677.7963306458623,280.28352976102406L677.1735288945247,280.2834263792538L677.1158160827245,280.2834263792538L676.7531358312526,280.20785385107774L676.632969781127,280.087308102376L676.5623148524683,279.93367612224984L676.418597159457,279.8320453667966L675.9076845230456,279.93191853413146L675.8545616480378,280.0441964115448L675.9029440965223,280.17487458347523L675.9729970662574,280.2517914780051L676.0018910945901,280.3875309598202L676.0222824531274,280.6668576719949L676.1152098619596,281.9377305756648L675.8656978881236,282.3511352838832L675.7173150134558,282.3724248905837L675.7125745869316,282.17172097822186L675.6678791368531,282.13627157839846L675.4583974314392,282.40084536973336L675.5409410488373,282.96313106222715L675.7152081572222,283.0858950809925L676.174201836473,283.0220332894396L676.7933165894028,283.60544556210425L677.1252216909061,283.8558023203068L677.43116731383,283.95499167677326L677.6666084978251,283.9738994703771L677.8174744530543,283.8805998060425L677.9490024778615,283.96925001820273L677.9961057636347,284.1110051042342L678.0383181331526,284.7982446877968L677.9681146736857,285.19452010251325L677.499865875986,285.4141343626443L677.0433552772956,285.50854754478905L676.596325531651,286.05392638634976L676.7986589748489,286.8189264901134L677.4055088147106,287.5763987679502L677.5142376452877,287.58600212580404L677.6404985295139,287.518675050243L677.716044374426,287.37854568365265L677.8195813092871,287.3124555851773L678.3277098856761,287.2983080833046L678.5746635340865,287.3999215513709L678.9368923163665,287.4236724303669L679.2639817464815,287.2231295837478L679.9318551722235,287.5916815240903L680.291600873943,287.91292060225396L680.3761008578449,288.1937719395387L680.5031141907257,288.2505602092042L681.0159079487739,288.1611442656349L681.8961976296832,287.932849069668L682.220126775449,287.63494804465745L683.062116819844,287.58011619853596L683.7067395821614,287.80408734077764L683.7914653006592,287.90321448646864L683.8410516669919,288.28556217843925L684.0482760264431,289.0926185130161L684.1635511603145,289.3309885252156L684.1518882061691,289.5504585222884L683.9264545892784,290.2041777764084L683.9221656319478,291.1291576808003L684.0304429933312,291.55847064308864L684.3007977948964,291.6739467085613L684.4254032920826,291.6763201890485L684.575893022984,291.83430942269297L684.5947042393473,291.9309997686746L684.4144175417277,293.78485593922187L684.4074950141066,294.24472758638285L684.4712274151425,295.2067596765014L684.5794295316609,295.4920301284624L684.9647584876348,295.9044427865779L685.0493337164016,295.9209428567701L685.298394221043,295.8383389473156L685.6883883586752,296.0363390155844L686.2098352762496,296.9037535226016L686.2640115793747,297.4176289876036L686.344297850811,297.8458952860519L686.4077292723869,298.00651342326773L686.4969696828102,298.1267166187795L686.7246606456647,298.2422785944909L686.5180382451372,298.956221159121L685.8559586740357,299.9316539811234L685.574317142652,300.34161232349516L684.9242767500227,300.91188211906183L684.748279009732,301.27468867880543L684.7647576352656,301.4606691861886L685.3139699081921,301.61367397071854L685.3749934940724,301.74792359840785L685.4079507451406,302.01878387770785L685.3236012509706,302.96078024118515L685.0984686135407,303.73320713673684L684.899144964962,304.0958515723146L684.7302954868901,304.2041979844271L684.345568489839,304.3196487216055L684.2141909547618,304.29616738674986L683.9725044469342,304.14559640111884L683.6910886501482,304.2657857054878L682.9524098060165,304.97482514487365L682.8445839138249,305.1277447829175L682.7931164258571,305.38908977397296L682.6782927611803,305.4597272647784L681.8217804577516,305.6818286298758L681.559100632463,305.67214982727137L681.2824252622004,305.54251422216703L681.1815971424967,305.549516054361L680.5664703674356,306.35766067897384L680.650142657817,306.54513875018347L680.768051361978,306.6335737562222L680.9094364641596,306.5897167368503L681.0800918190034,306.5780832510354L681.2651941880122,306.8488393585949L681.2651189431463,306.9123572667213L681.1405134459601,307.40421338480564L680.9814458003966,307.60390962692964L680.9687294181358,307.76088291209044L681.0651180907789,308.03241175422954L681.1259911869292,308.14542524788294L681.711847709329,308.64932966891274L682.014482558172,308.7102565653622L682.3734758112378,309.1900353485107L682.5800982117662,309.68850565297225L682.50312271441,310.1636828959313L682.3791191761466,310.5001337030326L682.2016917834135,310.8100230067412L682.1173422892425,310.8783365334566L681.7480404896105,310.98913868101226L681.4012369047468,311.0454134942047L681.2019132561682,311.18872167954623L680.9837031463603,311.5695579397243L681.035095389464,311.83763151189805L681.0325370640385,312.13398051051536L680.6949133527605,312.5946773894607L680.3902468925498,312.70503805725593L680.4299009366423,312.98705069775815L680.7552597348513,313.47627474321007L681.1487151362944,313.64348874717507L681.4907030497689,313.63443914793424L681.5749772990739,313.6862684955686L681.7176415639688,313.9589825899093L681.930133064001,314.8639348234806L681.5878441710647,315.3504435209543L681.3461576632362,315.9801144699604L681.2405891170101,316.32787157987605L681.1445014238288,316.4053767676346L680.833062925728,316.48031125216175L680.4488626427355,316.88200252457636L680.4393817896889,317.04409027299744L680.7178630367225,317.3262178918658L680.7341159276602,317.49774944759474L680.6825731948265,317.62693461443314L680.5794877291582,317.69507179068023L680.4952134798532,317.68088945245427L680.4063492937557,317.60093335683723L680.3596222323113,317.38706125252975L680.1840759612151,317.29065714335275L680.0318555984068,317.31871520721916L678.8608950022608,318.4506978187669L678.8164252867791,318.6479904585067L678.8210152235724,318.8430164102847L678.9262827903376,319.04974968977467L679.1062685084962,319.8672664149685L679.2020552222157,320.38636608018123L679.0522426951029,320.49433099936005L678.7574333122657,320.4496454568307L678.7199613692719,320.4989536236935L678.7292917325876,320.5834956913409L678.9888865183939,320.97105988571275L679.2439666122718,320.8748130534659L679.7797852991471,321.1779291296193L679.9545791215896,321.6087994317854L679.9700795638719,321.8042477385584L679.866015914954,321.93406398496154L679.3652613353779,321.9267721618967L678.9347854601338,322.02752181905134L678.9137168978077,322.10978411224596L679.06104634436,322.3938426941145L679.1052150803798,323.17796723201354L678.6494569303441,323.57440814223764L678.4623981948334,323.58980938646755L678.3921947353674,323.6672257404466L678.2167237091353,324.0192836738611L678.1557753681209,324.69059336990495L678.1580327140846,324.7492102474707L678.4502085266304,325.35464673205115L678.5460704852139,325.36645103955107L678.6583358244679,325.25394996315345L678.6864021592801,325.12953951344434L678.7402022380775,325.1037743378465L678.8149956343359,325.1906159057053L678.8336563609682,325.31266427769515L678.6183808009127,325.9695705737222L678.5295166148153,326.10566483399L678.127332808981,326.3425398812883L677.9072415775381,326.35762651039886L677.8367371386094,326.49709915689937L677.8748110405277,326.75304759892424L678.0267304238732,326.93612547034354L678.1928710867878,327.05506168071315L678.227709459492,327.2153500930385L678.0943755579137,327.47568185624095L678.0336529514943,327.5320155453269L677.8910639314636,327.5343755978797L677.7274063491095,327.46860163040674L677.5451632849872,327.1800500479858L677.3955764924713,327.1917483405041L677.2249211376293,327.5061575206728L677.2085177569597,328.04566540578253L677.0168690846558,328.10897094854L676.5843615980448,327.4193476666692L675.9508750758141,327.3230961081722L675.8130264823085,327.38179126223395L675.7546364667187,327.77827716264846L676.0982797672323,328.28493036139935L676.0889494039166,328.3951205339572L675.5960202903489,329.2841641219975L675.5048987582868,329.3803859219238L675.1030911767803,329.654887001087L674.8063254274412,329.6057525910728L674.7291994403549,329.68781402320883L674.7550836740693,330.16149289096165L675.0191179069361,330.21298205280164L675.112572029826,330.30908719908484L675.1243102288372,330.38416512649064L674.9936851424136,331.11571815061325L674.7837519678069,331.95044501064876L674.235066408939,332.48516625215234L674.1440953666079,332.90009529713234L674.0857805958849,332.9704265163232L673.2565821786166,332.76927305551135L672.9622995098371,332.86790261319175L672.7828405057371,333.3578493935356L672.4419060203791,333.9459611330494L672.1480748207932,334.21585717099833L672.0103014721526,334.21811223577834L671.9331002402005,334.47825933302556L672.0050343315716,335.17654475629706L672.266209259551,335.5844317251722L672.6139157828002,335.5561469415943L672.7329531599426,335.49045607047674L672.8309972196257,335.52786203203095L672.9034580250545,335.6262437831715L672.9619985303752,335.86522310576584L672.8826904421903,335.99413703371147L672.4643289902833,336.07662827756394L672.1349822142056,336.31753756522266L671.9973593552959,336.8029148719934L671.7285846959048,337.2782146512927L671.4412997996142,337.68094677213094L671.5227899888969,337.9012041122901L672.0261781387635,338.90865604196915L672.4486028134042,338.8200558477329L672.5699727813771,338.8665583002562L672.5893859566622,340.01395485889907L672.3796785166505,340.4591131154725L672.1882555789443,340.57124261206354L672.1250498919653,340.87556950420503L672.1996927984928,340.9552327514193L672.958838246027,341.4582759330583L673.2808110252909,341.6196344973646L673.3365674705901,341.61543676934116L673.3820153693223,341.6103175850758L673.4198635366438,341.6103175850758L673.4462744844177,341.62065833304905L673.4841226517392,341.64123739530123L673.5106088443781,341.666935533739L673.537095037017,341.72867207127L673.5333327937433,341.7750508667941L673.5165531887487,341.82777690107923L673.521293615272,341.9190994054975L673.6635816558401,342.0337625759562L673.9668184636066,342.02424151642117L674.064712033558,341.97735264962967L674.279159900092,341.74085549623624L674.3694537386327,341.71331477964213L674.4980472136895,341.7544722376879L674.6827733583705,341.9770455161761L674.7638120784623,342.3763064811201L674.69932722877,342.6535221678578L675.0607283175314,342.6978468936404L675.5108431026574,342.80072410795447L676.2874453589766,343.25223814891297L676.3803727678069,343.7286934914964L676.3612605719827,343.8323728145888L676.2894769703435,343.9940805270885L676.0730727373066,344.2654946105058L676.040491710567,344.33570013884355L676.2060304145589,344.41521770953386L676.5160392602165,344.4690475727966L676.6302609659706,344.3754078788411L676.6675824192343,344.1321429089944L676.7468152625543,343.9846647477002L676.8307885323966,343.9097473976026L676.9356798748358,343.94034899011604L677.3972318795104,344.6305344293405L677.7212362701421,345.1219286565133L677.7049081343393,345.1686920182551L677.5184513577524,345.1990829027518L677.4461410420545,345.28329661537373L677.4414758603962,345.72082160865466L677.492717613768,345.7863045194231L677.7234936161058,345.7815979576917L678.429817168093,345.4191822481307L678.665258352089,345.4308469939833L678.7654845128691,345.49643521060625L679.103258713878,346.03922593344714L679.1241015416081,346.3737788634262L679.0587889983972,346.79005273465145L679.1029577344161,346.95843693614324L679.4174812720021,347.25560474476106L679.9393044139033,347.4967045398016L680.7239578708231,348.5961142942192L680.7982997978897,348.8814449846791L680.7555607143131,349.15254842657623L680.7043189609412,349.4217996787811L680.5581181873704,349.62743738266863L680.3612776193513,349.7420639705829L680.14758220147,349.80321094059764L679.8325319498281,349.82202527476693L679.6285431195902,349.95679154308664L679.5752697548514,350.1593445824583L679.7039384747723,350.64151963271706L679.8518698802491,350.78935479673737L680.0216975415706,350.7560257302239L680.2746707792166,350.42415685875267L680.4849801781529,350.2387894217063L680.6705340163535,350.13940653284317L680.9572921985873,350.1853150765387L681.240890096472,350.40657121113463L681.603118878752,351.1967527546485L681.9395386721817,352.31044679343904L681.9350239802561,352.4509863571284L681.8454073455032,352.6677689422154L681.8752795570881,352.8070741781735L681.9619616420869,352.8794340230652L682.1946940109265,352.96978047228095L682.3463124148102,353.1653904530299L682.3539121462218,353.3404532270529L682.2866432365072,353.4739187536925L682.2493217832434,353.6629730990512L682.295672620362,353.80583314816704L682.6002638357068,354.0562903538571L682.9611382104104,354.154488146557L683.0220865514248,354.2629024743078L683.0114770253958,354.41382113950476L682.9424022389112,354.5493077021579L682.756321686652,354.6921478819195L682.4590292232551,354.6986869837524L682.1650475339393,354.6243043044715L682.0504496038566,354.6849957316067L681.9974019737147,355.0239988300227L682.1007131739789,355.98420539359813L682.3521815143158,356.12803492453713L683.6875521414722,356.19606679654225L683.6867996928177,357.18122175960616L683.6305917783257,358.28815207509206L683.4725775608786,358.90081804720467L683.5327734532393,359.22754916874646L683.4650530743329,359.45216710624754L682.6454107549771,359.846658738275L682.4822798866799,360.15792645282045L682.6990603440445,360.6521054896152L683.1879262348775,360.86605751978914L683.5045566286954,360.7851118177723L683.6497792190157,360.94322548001173L683.9594118403456,361.56094381930734L683.8563263746773,361.9122367946984L683.6907876706855,362.14696565719987L683.7208856168672,362.5755786949094L683.8788998343134,362.7490567412565L684.7712286936949,362.8620190283L685.2378973492214,362.68956450720634Z" class="state" fill="coral" stroke="#111" stroke-width="0.5"></path></g></svg>