<svg width="800" height="927.9999999999999" xmlns="http://www.w3.org/2000/svg"><g transform="translate(0, 0)" id="single_state_map"><path d="M520.0739170270681,353.10872503219434L519.3068516661624,354.5251329428229L519.2604071146125,354.9249202377123L519.5186271370912,360.6738750298264L520.7232644365467,362.0507659795694L521.7798049584053,362.56275556044056L521.937249067134,362.9628161400906L520.8263771830862,365.743521202161L520.4370024206764,365.7760754810806L519.8852177798726,365.35286641626226L519.5288507805162,365.3589704461192L518.2196402140362,366.0678412377729L516.4927207876608,367.70361713729835L515.8112419274148,370.85441007180634L515.7656736881581,371.6721491165972L516.4784076868673,375.3532577858314L516.8856007992435,376.2643967138556L517.6634740117661,377.0547004262153L518.663930546838,377.25928845778617L519.0807630944437,377.01768729623836L519.238207203176,376.75737356419086L519.3407357415126,375.49318493621104L519.8317627299693,374.70323668480523L520.1930954989839,374.42459272261476L521.0083580360333,374.5271015337421L522.147564017574,375.1226202697817L522.6567014600951,375.75473263008644L522.7212564657129,376.6194874927696L522.470339045678,378.49694792945957L522.1735612822813,379.27741749463166L521.7657839617095,379.8069347967321L521.1812836619465,380.17376713724843L520.094364313918,380.3665348831837L518.2766005131161,380.05094806304623L517.8533416753562,380.3213932077815L517.5329034800343,381.0257563650157L517.9640491284335,381.74107867048224L520.1612561523216,383.4127922020198L521.9267333196149,384.4053552711921L522.4320734088615,385.07869715406923L522.4644969637229,385.4580535749719L522.0111514038872,386.15332152024894L521.079047227704,386.3696230057085L520.3677737494909,386.15779393907906L519.831470625868,385.28809613243357L519.4879562068163,385.1461929461366L516.8362352067088,385.62679003958874L516.7088778200523,385.8841616932841L516.842661496863,386.4302033363292L517.5945374446783,387.4429700325418L517.6766186961686,388.3467398863286L516.1597221161319,390.13791712398233L515.324596500428,392.23057176786824L515.0815658910324,392.6110348813745L514.5879099656995,392.90572706977036L512.6740439167079,392.73378985901763L512.0322912137781,392.8597959729541L511.5830351113109,394.1673753156192L511.8006526641948,394.4909058998328L513.46330918905,395.46756795528927L513.6277637961284,396.1531992478849L512.379895090191,396.4100519413514L509.908986526636,397.7946520849L509.18135521894146,398.32335569562747L508.7090228927482,399.01622025029064L508.5320078094628,399.6082887053999L508.5898444208324,400.37954066860584L509.732263547452,402.37744784591814L509.8730577226015,403.11895144218215L509.68494268360155,403.5800942171063L508.4148740662349,404.3479687567087L508.01732038908085,404.8497148182523L507.8692236114839,405.4903907454245L507.9250154941692,406.83668905291233L507.70330848391677,407.43953330103614L506.99086658930173,407.78319651666243L505.3530389127627,406.5681666425171L504.8996933529306,406.503168332114L504.3078904507238,407.0231499033034L504.0029337725864,407.5707433580792L503.8367265409215,408.4432923652803L503.9757680914918,409.6687884997118L505.34544420622115,411.265048922829L505.5490407624093,411.85884705170974L505.47543052975743,412.41567180632046L505.13337663119455,412.7316468689896L504.5412816248936,412.62970678108104L504.50418440446447,412.19351205069506L503.95999447020586,410.9222477160092L502.8938145131251,410.15173951931683L501.84866605108255,410.3934144849827L501.02580880749156,411.2946985610088L501.1283373458282,412.62199018316824L501.527059439366,414.71918931499386L501.47185176487983,415.2852880743394L499.93713683487294,416.2200934915363L497.61023559155,418.6787590853437L497.6917326348448,419.70438092836594L498.82889388770127,421.30160054371845L499.13764791910944,422.5508009783789L498.92324351130446,426.3215563854519L498.751486301775,427.4840430205586L498.2771092469011,428.82830124155043L498.2700987485514,429.2934166121104L498.4024219048697,429.6258103184482L499.3745443424523,429.85065034904983L500.5146266362826,428.8140960061155L501.1192821187942,428.6367327903263L503.69301132479086,429.3745876593093L505.17018174751865,430.0600662531251L505.4301543945912,430.3153401565014L505.38838350860533,430.4797042758455L502.99137728179994,431.11929324607627L502.4130111680897,431.66918009610526L502.3104826297531,432.3294335661103L502.87687247544454,433.12966737549505L502.9545721654722,433.624321949208L501.28023147669956,436.514946900892L500.85551211845814,436.98802854369933L499.39586794159186,437.68424502543166L498.1117783275258,437.6943878908969L497.36077869200017,438.0193630424201L497.1098612719652,438.6149365972469L497.0260273958884,439.48108850845165L497.6742063889724,442.70484758924795L497.67391428487826,443.2544703259755L497.30995257897666,447.5662419701621L496.9661460558309,448.51520685173455L496.4368534305577,449.32463628887854L492.3138040896738,452.94645988166667L489.4149630227912,454.8666330798533L487.57967297611685,456.31963557657764L486.29441494566345,458.1779242394514L485.4587051217677,459.94446305627025L485.2743874360349,461.74775587197473L484.80614456721014,462.1895400423273L482.9352178206027,462.6394220362108L481.94790596993334,462.5279655666709L481.64294929179596,462.94420219105814L481.3108269325603,463.6108953663879L481.0797725911798,465.2505985587741L481.5681706427531,466.6774468858039L482.18859974654333,467.7812614776685L482.86160758795086,469.5134679007351L480.7298318819776,470.6333593256604L479.38264778278244,470.7164172216817L478.33983615351826,471.05917995626623L477.8047014462936,471.84597625053357L476.8909998282761,474.7899551922874L477.0478597288129,475.8083336224299L478.36670973052605,479.25243546845195L478.5597905391878,483.7383881727401L478.22854449224906,485.08802030321567L477.38115050443594,486.6137062776743L476.79197653911615,488.2506343097484L476.6999637482986,488.95306633983455L477.3268191422394,491.09707844315017L477.9811323213835,492.44629974822965L478.22971290864007,494.20588208087975L477.78746730451894,495.61402238743904L476.0620083986323,497.1888243307858L475.3521954409007,499.66151376850394L474.660492937237,500.9584617205928L474.22701045605936,501.5597687473255L472.17235023191097,503.1414666535893L471.8130621915807,503.79815043856433L471.74850718595553,504.6862434016366L471.97079840441074,509.1428043721644L471.16020953292536,509.94737372316195L470.20210809203854,510.58567064535055L468.5441252327473,511.06660694869424L468.07442184343745,511.38129348532857L467.4852478781104,512.2318974063764L466.9147685750431,513.7667917294366L466.45441251686134,514.571207340492L463.80561255773137,518.4355884881315L460.196666429023,520.5353434972221L454.5949861449117,524.1477250654607L452.5692442264517,524.1558103737025L451.140270979864,527.019456709455L450.0352411777676,527.9980475772754L448.58932589349934,529.7251376894055L447.96276260365266,530.9812728252309L446.4248345285705,533.3733268360429L445.6422876504839,534.3148882958521L444.234053794833,535.3028823177228L443.31334167846944,536.8544971063038L442.5950577019066,539.6616975393026L442.3923374580081,544.7956733184674L442.8798591972918,545.5711892176951L443.24761825646056,546.8083280498595L443.15531336154527,548.433112788447L442.88833021613027,550.2698001644567L442.465071378374,551.4699525232336L440.9841036023681,554.22014487466L440.38645861819896,554.7369572385396L440.0555046753616,555.6599244120844L439.7520085177093,558.3821902926029L440.10136501871966,559.5355184940181L440.03710211719954,561.0484468990253L439.6970929473209,561.7128461409193L437.57349615608473,562.626264472121L436.1486123668692,563.4847575416188L435.64298017351757,563.9735239877791L435.48699658527767,564.3428166278372L435.54220425976746,565.0712954586579L436.1582518020987,565.7448666652363L436.19505691841914,566.0031514413331L435.68971682917254,567.4329500645035L434.69831552113465,568.2081457517306L434.1021310574615,570.556583251202L434.0016472478055,572.4654291274164L434.59900012786966,574.1623239054898L435.5273069507821,574.9369011881336L435.90412123698115,575.5638065719249L436.0697442604542,577.2419291826063L435.82174788139673,577.9978532363184L435.4986807491914,578.2414864945131L434.6918892309841,578.5791000626195L429.56721493863006,583.2729345381376L425.4806786099689,584.9158444688019L422.7903998689435,586.622756088711L420.9460545952352,588.7799142466374L420.0157030436458,592.7880906539067L419.9695505961863,593.4604899670794L420.4357487363268,596.5013728476188L420.6706004309817,602.1576760200696L419.8156117366307,604.4504512344247L418.125205322478,607.2401727344532L417.6569624536569,607.6450667006739L416.62934023748676,607.5890668426728L416.12370804413877,609.0071530015448L416.159928952271,610.3445902598924L415.36014793240975,613.2145949858004L415.41477139870403,614.2642271691911L416.0197189853134,615.3786565538612L417.9911295415768,617.0552388509132L419.38826344150584,618.5210964450598L420.5213352369901,621.2854472725503L420.6767346170345,621.9941013176976L420.6574557465792,623.2458721239636L420.2791809398914,626.6413132012967L419.9204771077493,628.2881367313475L419.47063679709026,629.0147002745762L417.41568446884776,631.1942607062756L417.13117507756033,631.7641744957091L417.0937857530371,632.6842190071693L417.6958122986689,638.2588802608752L417.5120788211316,639.0314171687569L416.69535576359704,640.8978777997982L416.2084182325125,643.3619981593802L416.13334747936824,646.4058984432231L414.94857325856356,652.730217652057L414.90212870700634,654.4400153896313L413.8271856269894,662.1036779660408L413.4059715179137,662.8847038617932L411.09805704095197,665.1717638388727L410.44754121508595,666.8159830976401L410.2731550686767,668.2949220178161L410.52991457067037,672.5684707037071L410.6488009384884,673.2205881160244L411.0329178271386,673.8361259453977L413.7868752614886,675.701528494159L414.8115764366812,675.8674512066154L417.2275694298478,675.7951363618195L417.8313486000625,676.1723764428043L417.5926995521331,676.9525498680105L416.28319688155534,678.7883898596738L415.14808035738315,679.9263805624905L414.6538402238548,680.6518068507266L412.30064961172684,685.2223797792522L411.9162406189789,686.3146921725947L411.96180885823924,686.8287046067417L412.4002571090823,687.921346612713L414.2007867681168,690.8500764335095L415.6358942007573,692.1814200187837L416.16577103422605,693.163821486778L416.2659627397843,693.8153883808609L414.45374891683605,697.6686312979691L412.64971400863215,705.8969348206065L410.4273860323301,710.5181443413203L408.6359116003332,713.7000836533043L404.65219591411005,715.6891868366583L404.31423147291935,716.1019084599084L403.63801048643654,717.9263833641999L403.56673708657036,721.4012921668673L404.23361074191416,723.7754955071232L404.9457605324278,725.1230870696672L405.10115991247585,725.7369162484938L404.8727345079715,726.9376674741761L403.94092243588966,729.0086743403499L403.1101783816557,731.5007857704677L403.09177582349366,733.0219030943899L403.66692879212496,735.523223804701L403.9225198777276,738.0331045827061L403.557389755435,738.7203413831066L400.25340030486404,742.1462191731898L400.50022826753775,743.4743689859151L402.16113216780286,746.2582414187782L402.26161597745886,747.2564963755103L401.82375193480766,747.9614994045205L399.5885713782045,750.3054883753721L399.7895389975092,751.083697520944L399.72177084681243,754.5919398736442L399.88155178832676,757.0982629370574L399.8088178679682,757.7665457047551L399.51700587423693,758.3707473083305L398.42570496473854,759.3512919173008L398.24956619374643,759.7656793186798L398.3225922182028,760.5403847694015L399.75507071396714,763.5965287306972L400.830890106281,764.291854281124L402.0253037623115,764.2185998431232L402.70006422830556,764.5208230235403L402.9918762220368,764.8498617664936L403.0739574735271,766.2868526136663L403.02838923426316,766.5794440344289L402.45411257792875,766.7075267296004L402.3994891116381,767.0917707942917L402.97376576796887,768.125997771911L404.4433414841624,769.8177292182099L405.30913803013027,771.3088533401151L405.3999824045568,773.5409676728214L405.26327768677584,774.11717067264L404.76202705489413,775.2055171274733L403.08476532515124,776.7147175393275L402.5472937851373,777.7209328423414L402.36502082808875,778.8367232657074L403.4858242514674,781.2325604283978L404.66095903704263,784.5245041447779L404.6244460248163,785.7587690230375L404.3691470433114,786.4810611071116L403.2942039632908,788.3554817158783L401.73670491365556,790.6312283365896L398.9593791514744,793.7759775723007L396.3006476530136,796.207933522659L395.51810077492337,797.2773100776103L395.263386001614,798.1091928133446L395.41849327756427,799.4886727985886L395.69190271313346,800.1649933664849L396.75749846202234,801.4804074248987L397.34053824129296,802.8964671117828L397.1497942654096,804.7788245974189L396.5407572214317,807.7479398413616L396.7139749514463,808.9350857360787L397.7068367799766,811.4010967963331L398.28023712401773,812.2412898926996L399.46355082433,812.8621273594235L401.90232793712494,814.925480063559L402.1389322563664,815.565024249865L402.15733481452844,816.6515320582112L401.8024283356681,817.382101617708L400.71083532207194,818.6790187097431L399.81027838845694,818.9154680264019L398.3091554297025,818.6242995398752L397.4284615747383,819.1139718590784L396.555362426323,820.3668654384528L396.0371697567716,821.7091519155347L395.85577311201996,823.316124918505L396.23813737608,824.6941881948769L396.9476582297102,825.5159578682069L396.93889510677764,825.9723515917412L395.66590544842256,827.7435420577713L393.3752251132355,830.3086668937813L392.52958375001253,830.4280334926134L391.792605111179,829.6890690702003L391.0737369264207,829.5341671711485L389.5647271570233,830.410867094397L387.89243119693856,832.0639760927388L384.49555264326045,832.7956838081973L383.4220700837286,833.4519268461645L380.3488428704477,833.8514920283305L376.3283220678968,837.1343863670736L375.7642690549874,838.2566564008921L375.6366195642331,839.15020529711L375.8273635401165,839.6701966822002L376.4723293881252,840.5006435951855L377.03609029694053,840.6562744436305L377.39041256761266,840.9755141239966L377.7172770530815,841.8422289345908L377.9530050600333,843.1378546889791L378.03420999923037,844.8072636970537L377.81483982175996,847.6530572815172L378.6487970210692,851.6752256757991L378.5938814506808,852.8423011815012L378.3482219043981,853.3257078874376L377.2031738409023,853.9814027799694L376.90318293243035,854.4372679359749L376.50300031840015,856.1968361206964L376.5377607060436,859.8711039267037L376.15568854608136,860.6183319230713L374.8382990648606,862.2953255336233L373.8390109461834,863.2884696809924L372.1497729484181,864.181108977049L370.5332688710223,864.7826952996911L370.29695665587496,865.0470059095605L369.5430359793718,868.8498938911725L369.625993543159,870.591691321386L369.30964480520925,872.2289481691678L369.3394394231873,872.5071275243936L369.62570143906123,872.7147636462923L369.88859512711133,874.9835025192824L369.0079012721435,877.7803827222979L370.12403102996177,880.2944744325796L371.54833061098543,882.1621468206158L371.8836661152927,883.9284966587566L371.8743187841683,885.9137958781394L372.2543462154463,889.3649833513809L373.23260283908166,895.5197611263193L374.16266228657696,896.9730135274203L380.36870594910215,902.6183841837337L381.10363985924414,903.4506892537465L382.2989298275679,905.2202889450891L383.142526462103,906.8898689376019L383.3791307813517,908.0973087460188L383.2844890536544,909.0026508069004L382.76395955131375,909.555390552965L381.39632816526864,910.265696646964L380.84279089988195,911.3663322074935L381.0323664593743,912.4490135947472L381.9019603586203,913.2953102508018L382.5545209131742,913.3231615509685L383.39753333951376,913.0597665679379L385.52843273319013,911.7694087844102L385.94935473816804,911.2135354148286L386.0845989354639,910.0488266492357L386.3290900653483,909.6759649627784L387.0903133442953,909.5295246786318L388.32328474124006,909.8562285742591L389.3032939894656,911.0838165609475L389.7026002911989,912.0387860006886L390.14718272810205,912.6117499049942L391.76076576452033,913.5750154508023L392.2687347906467,914.3206152283037L392.7585933627124,915.7301907544297L393.11349984158005,918.5041496006943L393.5960558111947,920.4186476013074L395.1278497002204,922.2908375371389L397.12175227201806,925.4724786737552L397.8558098698668,927.1088754870489L397.84675464283646,927.9999999999964L295.4368105677713,924.1314669779567L232.98787549241752,922.3210650592773L162.28291019596145,920.4091013355464L158.9342288184198,920.3776781846282L154.69200100561648,898.1323687474942L156.0377245843265,895.6965449035924L156.7933978854162,893.376754143057L155.8256570092999,890.8775383187512L156.31493137316647,885.320294230034L156.6295274865297,884.9773313851583L158.27641039010632,885.5923507885891L159.11445704678408,860.1506192989073L159.50529232967892,842.9543085362184L159.52661592882214,842.1079834277552L159.55553423450692,841.6411155152382L160.8740921321223,804.7940107581635L162.10268196759716,780.684126818227L164.1053476623274,727.1533554326888L164.75527928000156,715.381947358157L165.75106214950938,677.0610169048796L165.82467238216486,673.5339839924163L165.8708248296207,670.8048938938264L165.8976984066212,670.5187878354755L167.11898563965588,630.5249169407034L167.51040513074622,612.6168563275351L167.6100126281126,611.0233517981906L167.34390579498722,610.8763219753764L167.32433482043052,609.2919688506572L167.58051011422867,608.2417190462438L168.58972977223675,607.4577285399482L169.02058331653825,606.7760471729998L169.16692746955232,605.5967577142492L169.10879875407772,604.537886709355L168.9764755977667,604.5572272327499L167.64944668132011,601.7647798176858L167.29103495327945,601.3783249442513L166.61335344630788,601.130490898604L166.53273271530998,598.3110495259571L167.11343566179858,597.4437112919768L167.04888065617342,596.9278076903047L165.89185632466615,595.7210341285754L164.1307607188428,592.4567215543102L162.53353551189866,590.870360369232L160.99093377125246,589.6249841480385L157.9688247750928,588.7105656015701L157.6107051511499,588.240441075639L157.51022134149753,587.3646788354672L156.45397292373673,586.6820300979871L153.934867184038,586.9860591361175L153.61793423788913,586.8038034589354L153.40674297515943,586.2937222222117L153.67080507960054,585.3828074110188L154.35053131525274,584.5702538479873L154.277213186695,584.3303134754733L152.94521850058663,583.4354561117707L154.02074578880274,581.3242040270543L154.14956369594438,580.7986814118212L154.32453405054548,579.0647390611048L154.31577092760926,577.293965264329L153.87498584398418,576.2237744051945L152.6250724093661,574.2773017836298L151.96345662777458,573.9634310614874L151.44029818856143,568.4930370566617L151.30125663799117,567.9506915245129L150.84177689210628,567.4063161441627L150.2257293497787,567.0185068093033L149.80276261611652,567.2307736649291L148.9486502340551,568.5939184446343L148.30514490653513,568.3969975854889L146.91560571315495,567.2860595942766L145.0674630861722,567.1754876095602L143.95483857753425,567.867966623804L139.72546334503568,567.8046112651864L138.13641705283226,569.2415669632392L134.93145089142854,568.210163407306L134.78043307285043,568.3986116973992L132.89577743364134,568.8658925764448L132.42695035662473,568.7924517909269L131.92102605917898,568.3534165235815L131.04763480666588,568.4425962053447L130.8732486602603,569.1439163932755L131.63739298018118,570.3705726949611L131.61899042201912,570.6199314231053L130.26830107365095,572.4016823126785L129.83627911295844,573.2412709235523L130.9056722151181,575.8966165552793L130.87821442992208,576.3669802142413L130.5937050386383,576.9946554244689L129.33619689746774,578.4613190406399L127.67178774802596,579.6221632086836L127.67762982998465,584.4823431968689L127.9338051237828,586.7138847778897L127.69427976356019,587.6908757372876L127.45504650743896,588.1981052298725L125.18481345909095,590.4547045105192L124.07277315864485,591.191672388999L123.38399169596596,591.2005416692755L122.7501258036682,590.8683445965889L121.19204254583383,589.9451031378139L117.88104259692045,587.3037936379078L116.88379920692023,585.7880658967388L115.04792495205038,585.1892487321693L114.4716035670317,584.7779314154013L113.79655099694355,583.5511966187096L113.71417764135549,583.0474995861514L113.97823974579296,582.1413025471848L115.54041246099587,578.8166771655688L116.52217433380429,577.1031657525509L116.36502232917337,575.6961242998059L115.8798374226717,573.8896022683766L115.91109256114214,573.3380981115679L117.6289567604872,570.0175118597999L117.67540131204441,569.5732531542162L117.48524154435654,568.9122973537633L114.6836711420583,564.4316074623421L114.4870850842126,563.5779912077924L115.10634577161909,561.1340206051573L115.47030747751342,560.4510371414963L115.96045815367324,559.8915576309519L117.35554732492164,559.0018536707139L118.30488564286861,557.1569460560495L118.58735030547541,554.8318395614351L120.48164537991033,550.2976644024529L120.56489504779165,549.0534343809686L121.63107500487604,545.4912152883207L121.82152687666166,544.1360613573761L121.30479472759907,542.6523737366533L121.45201519290276,541.9066581489387L122.22930419723343,540.7379471911099L123.32352614771298,540.1242806693936L124.14579918310847,539.2330427542856L124.66983393461851,538.2759152987637L125.2344711557198,536.5462023925793L126.95993006161007,533.3721145015516L127.81228981908498,532.2720980015856L129.33386006468572,530.7953624666461L131.42065173959782,527.7167219112907L131.62395619168456,526.3181291354194L131.3879360806386,523.5764912037357L131.51558557138924,520.8685056724917L131.67974807436985,520.0578300046673L136.0986988663608,512.0130810899464L137.23498380692763,509.4664151708985L137.26828367407506,508.8693498729481L136.0516701066117,506.93485417861666L135.82178418161493,506.2280895447493L135.23699177776143,503.20782368070286L133.7907843893954,501.47681678267327L132.1298804891303,500.2082232419416L129.74134528115974,498.0148359481864L129.4869226119481,497.28676544830705L129.18371855840087,495.0890656123029L128.88898552368846,494.1192619771209L128.44352677449933,493.08303480377435L127.72641121432025,492.12812833180396L125.66912205329572,490.484175965159L125.02941407904291,489.10448129035285L124.9537591177068,488.5307998491244L125.70066929586392,485.62858088934445L126.2279171924456,484.3976238446303L128.1336043266965,482.40892885610265L129.67211660997782,481.5819787922592L130.52213953466344,480.26455081617314L130.9430615396377,479.1600915013678L130.88025915860635,478.7838266883173L130.5063659133848,478.20584984031666L128.39007172459605,476.20489817488124L128.08073348499238,475.242843184149L128.2399302183112,473.53049305093555L128.87291979830843,471.337519165274L130.38718744146536,467.48221537095924L130.41610574715378,466.91490905702994L129.7556583819569,464.9985308180767L127.65864306362346,460.6785236572923L124.04034960378704,455.77639153354903L123.63783015697481,454.71257076626716L122.56580811793538,450.09835407454193L120.57482658711888,444.8915011928839L120.3274144162533,443.6560317881758L121.22242137201101,437.21401709916245L120.84327025302264,429.70535685057257L119.55070962012178,426.3450989196026L119.15198752658398,424.56554323939235L119.16133485771206,423.453254212478L119.55772011846784,422.0396799958562L121.09039031979046,411.77314931999354L121.0839640296399,409.8462913876847L120.57570289941214,407.7815716430159L119.68858275429739,405.49364080179475L118.6405132512773,404.444662333226L116.94747790024849,403.43789254107287L116.0828497706716,403.1311403516229L114.66117912652408,401.12029313434505L113.84766921406117,400.6985180570009L112.06349738450808,399.1413807530589L111.81228786037173,398.1547082262714L113.4915943188098,390.65825229274014L114.01270802934232,387.29782704098216L114.2954647960396,384.16789204471024L118.06944974001817,376.0309206529746L119.53084654146733,370.63512109160183L119.41225227775067,368.66020962460425L118.81957306324693,365.1900917150615L118.22689384875412,362.9701417040924L118.23244382660778,362.4398464968999L119.41283648594253,360.4052438926392L120.4649954463348,359.77516999028194L121.88170032081689,357.77168570332105L122.14079665559257,357.1362507793274L122.9432066123336,353.28094580248035L123.20785292496657,350.46255850857415L124.14141762163854,348.88506191946L124.18026746665055,348.56702540757215L123.81075578289165,347.7818929165278L123.60014872835745,346.6558671360999L123.7441560485895,345.7395323347664L124.04502326935472,344.9498273189183L125.64546162137049,343.44243276494126L125.85723709229933,342.72434042834357L125.52219369208615,339.53767389560744L125.58704080180541,338.79868812995664L126.19490942938864,338.2153051322275L127.12263204410192,338.1016415714348L127.51375943109815,337.8730906322362L128.0205600408408,336.2352822767898L129.35226262285505,335.3083636106294L130.05448087403784,335.1392734886449L130.89690909218552,334.20334830931097L131.40137286913887,333.23315835413996L133.9324548768418,331.6035910564169L134.08931477738224,330.85824821073766L135.13154219844364,328.4867710978069L135.90036018393585,327.11692131777636L135.90737068228555,325.7653356466599L136.054883251687,325.46818854069716L137.2060655012392,324.5127276409912L137.47392495894746,322.71379804963726L139.68719770821554,321.01176337655306L139.41904614640953,319.57747610180377L141.3037017856186,318.9626388121542L142.10289859728437,318.386112608192L143.1375313118042,317.04749090830956L143.4816299390477,316.94555198845046L144.83728505708132,317.3084525691229L145.1542180032302,317.19305893485944L146.26246095040187,314.88914758017563L147.19252039789717,311.5360514380227L148.29258443032813,308.445584044337L148.82625861706765,304.81743726737477L148.45411799642898,302.457256186477L147.1282574963734,299.3325656781253L145.5424243492489,293.6844027285024L144.9693161093055,290.21485652705815L144.87701121439022,286.44921808937033L145.08440512384914,283.92961667177406L145.03708425999866,280.4896939669834L144.70700662945092,278.5735113631381L144.06204078143855,276.1903209865013L141.92909665907428,271.0808763190562L141.84088122152752,267.9904974482615L142.23931121097485,264.7840732045006L143.17579694861706,263.2724467976368L145.92595702969993,260.54155113871093L147.0724656136881,259.18906613222316L147.66047116262052,258.15288582491667L148.41935760878914,255.61967542097773L148.98224220530756,252.39360318459148L153.20606745994883,241.86812849684247L153.8416859768331,238.0977381596531L153.91237516850742,236.86917505908423L153.44413229968268,234.69049880321109L152.01340642850482,231.0785729630643L152.41913902039232,227.29461074274332L152.35662874345508,224.28739447916269L152.08029826690836,222.09815509548935L150.7561903914393,218.37787103285882L150.60926203022973,215.72865262905543L150.0875641115017,212.40135848428508L148.28703445247083,209.57043873286784L146.41932085093867,207.63955236539368L145.96042531324565,206.95506194090558L145.7910049365055,205.79863406789445L145.88009668634186,204.40453761211938L145.6128214368291,202.17905828876792L145.05519471406296,201.42885455842952L143.7182342582928,200.8724348131127L143.44190378174244,200.5753718318465L143.1118261511947,199.82511768895165L143.02273440135468,198.49951544256328L142.81767732468143,197.8213195143362L140.65610700072648,194.79768344353943L140.5670152508901,194.316112102666L140.76272499643528,193.34597249201033L140.7273804005963,192.8533051659142L139.50609316756163,191.27071674689796L137.43361459345397,189.842157118077L135.92664955274086,189.21659733213346L135.45869878801386,188.80665410547954L134.49475526516835,186.90934509373074L132.39540311405653,184.8597702170464L130.31737456208793,181.6163342471591L129.94435762915964,178.91668825144734L129.32276010897112,177.64939369140484L128.1385700963583,175.93167140199694L128.19932774870904,175.4119827039558L129.2926733868917,174.072716913739L129.6113589576271,173.41351619702618L129.7498162999982,172.6903024055464L129.59879848141645,171.71394949156274L128.46631089412767,169.39966924828877L127.82192925431445,166.55010045314702L125.80991622844886,164.4876945712149L125.68986144424343,164.0186426130731L125.76726903016606,163.49869408785162L126.53258176648887,161.83576754258502L126.78057814554268,160.50107422414476L126.95525639604966,158.8100269695551L126.584284191802,156.9636931593359L126.69703637356724,156.62421158591678L128.7519887018061,154.98584736580597L129.09871626593304,154.52810332004447L127.75620583230193,152.76724623316477L129.27047347545886,149.8298682454806L129.25849720744736,149.44881195502603L128.97982989811499,148.9010328544482L128.94886686374593,148.24729497625958L130.39186110703304,145.96071378670604L130.70470459580974,145.80752799611582L131.42707802974473,145.88761184335635L131.69610590384764,145.49335030180555L131.5804326811085,144.42840081635404L130.80489630136435,143.33259897893186L131.0610715951625,139.9573931052255L131.2813180849298,139.72159961333819L132.41468198451548,139.31778756339372L132.35480064446165,138.17614959971434L131.6914322382836,137.16304896853035L131.55794066557428,136.7131790228068L132.9731850195676,135.60675036972134L134.13838826581923,132.73998574421057L134.13400670435294,132.39235113334325L132.89636164183685,130.36725801605644L133.04007685797478,119.94771399516867L132.89606953774273,113.31109117622327L133.41309379089944,111.88483897270453L135.20077086963283,109.51414283751001L136.16763543345223,107.75447608593822L137.82298935586368,102.42696746203L138.2967822025421,100.47585435338442L139.11993155023083,99.12043180265937L141.6147926498088,96.73200063656441L142.18205880779715,95.45373742991978L142.36228703616143,93.98566647031839L142.1347379439503,89.68794032567712L141.98956220732362,88.45787614987785L141.69366075622384,87.46406291707171L137.38308058452458,82.6088479831651L136.42731597642342,80.96496479309462L135.99704664031742,80.50620553424051L135.08130029361564,79.76080578980145L132.86189335829476,78.46721400164279L131.7025321939982,77.36136571278075L131.21121310144736,76.6998914257747L130.03812304456005,74.40765392378125L129.05314802667272,73.97471952829801L128.83845151476635,73.70613970230625L128.28140900019935,70.8178906440844L128.2703090444811,69.25888929533357L128.73037299856514,65.86696596004549L129.93179715294536,64.33895870842207L131.0248506870339,63.65115849595895L131.8614368232229,61.893035694856735L132.6337600578845,58.4472975966637L133.8693603917127,51.676777879330984L134.42494238579093,49.29635090233933L135.08130029361564,47.610156442129664L135.62519812378014,46.3040877597341L136.37327671832463,45.127038429900495L138.07332256770314,43.492517368918925L140.0394752502034,42.12187447856377L140.66078066629052,40.86417906173483L140.80595640291722,38.21120874638291L140.4785077092456,30.264959527543397L140.97420836326273,23.177601460591177L140.87576928229464,21.440006230273866L140.73234617026174,20.971011186871692L138.97796895868305,19.079248512221966L137.37782271076503,16.703390086251602L136.5984889777501,14.87735981647711L136.24036935381082,13.465826981109785L136.08818311883806,12.107074864848983L136.43987645263041,10.945259308260574L137.3865858336976,9.235680126479565L139.45000918077858,2.4043918632305576L166.84966566145158,1.850316690008185L169.26302971773475,1.6143866340753448L214.56516214629664,0.48139376916333276L214.8581425564189,0.7884063115016033L220.66254308442512,0.7739441680951131L222.2437025659856,0.3264397621151147L224.36058096296983,0.38759506477617833L225.5441867673835,0.772291351135209L235.1389300688461,0.6557674649702676L235.36472653647434,0.6937824128872307L249.01387471583075,1.058226966402799L258.24407210319987,0.9883961884788732L258.2659799105422,0.8276606562230882L259.9502521386348,0.6227109388801182L284.76916891496876,0L304.72776560749116,0.3247869139067916L334.6789513827207,0.49585609137830033L359.47566824761816,1.4139888545996655L360.38936986563203,1.5610851223118516L361.6690779182354,2.113927525240797L369.3978602427487,3.4521823797585967L376.23572506888377,3.63562358143281L391.27032298426275,3.218334101500659L400.6667276033004,3.35591649557864L414.56124322484175,4.160736817946599L429.95951074201366,4.5590053345840715L441.2084395495003,5.303881676210949L446.5267788587116,5.025433696666369L452.6600886008746,5.153503649025879L484.8975731498358,4.327646846157222L501.67836936204185,4.570160061693969L516.5432547965793,4.251628563448321L521.9632463318412,3.215028808928764L523.0951497109381,4.08099968103852L524.9783448296585,4.076868215850482L535.6655574570104,3.6306657298155187L547.2048377377396,3.4294587085023522L556.6082528551233,3.6641312080992066L599.710257218816,2.157724652264733L621.7798902263639,2.165161892209653L645.7493682862041,1.6321537779767823L660.1436740191311,1.6957848350866698L677.1076195006863,1.3602736974589789L688.187712139621,1.2487110584097536L687.6934720060926,1.9420436774144036L685.6423170311209,2.509338272149762L684.7955072515069,3.1423122553824214L684.2875382253806,3.8037767671867186L683.7897928426719,5.682714393829883L681.466396848522,6.496130788023947L678.5900477971809,5.280746657290365L677.5259125687844,4.097525534594752L676.3735619028375,3.5153953868612007L675.5653098641342,3.507545414769993L673.5667336267761,5.248109717160332L671.9855741452157,5.936367807809802L670.5268062806463,6.105743980975603L669.0443779841517,7.024898418045268L667.0320728541919,9.288138245787195L666.5612010484874,11.76427705774222L666.7972211595334,13.368362860204797L668.6021323800342,16.78556226665023L669.8996587826005,17.757980234357092L671.299713723507,20.796787070676146L673.0952776128797,21.514730815160874L673.4983812678838,23.920653879045858L672.922644091057,28.524169644233552L673.3070530838086,30.203055964066152L673.1183538366058,31.306565898124973L672.8832100378495,31.777832339801535L673.3973132500287,36.88894425149738L675.1446799632613,38.49297975695845L676.5245797214156,40.29450234023716L677.6039043629025,42.16188533983768L679.4689890275513,43.27473769746575L679.6100753068058,43.6517262415764L679.048067022577,46.10283048844576L678.7197420166158,46.414201158444484L677.971955526169,46.187787659702735L677.5162731335549,46.32841997799915L677.1117089580548,47.03486824093852L675.3097187785388,49.10377863253416L673.7825985550735,50.36351106439179L673.6423885881159,50.64555000750079L673.7183356535534,50.981600801209424L674.412959198191,51.63224757421631L674.2435388214471,52.17856266722447L671.2929953292551,56.06837461268333L670.0530134339606,56.77453277783752L669.5552680512592,57.3017673433169L669.3954871097412,57.66905205002331L669.3180795238186,59.05775729813831L667.7307858562017,60.64916548174915L666.1160344033924,61.091410441556945L664.4262121974389,62.11806290202912L663.365290114114,63.57780295271732L663.1774671792118,63.98290404751424L663.1400778546886,64.83058558638186L663.702962451207,65.87561944257504L663.7123097823387,66.48794833714055L662.1609449187563,67.89179484865053L661.5930945525724,68.541153929551L661.241109114686,69.25765325996872L661.257174840066,70.05941467235061L661.7578412637486,70.5245557175167L662.4536332247844,72.04227762025039L662.6432087842804,73.21263694634035L662.5809906114409,73.80294413097909L662.1445870892749,74.50733893639335L660.987854861869,75.18452686594173L659.6488496774073,79.21636091131586L659.2267592560456,79.51741329120159L658.9174210164347,79.51741329120159L658.8046688346731,79.19741631104625L657.9981694205599,79.54582980293344L656.1266584657569,81.91498832323668L655.7802230057277,82.74720570437785L655.8856725850492,83.77374540200435L656.550209407611,85.08392935942356L657.6158051565035,85.73034798749904L657.6502734400456,86.45868012457868L657.2693696964743,87.18657822503519L656.4728018216883,90.20374145300957L656.8884659528994,91.48681506444336L656.4383335381463,92.7002581966517L654.7759691173851,95.09238719715904L654.4642940449994,95.33520857432814L653.1828333678131,95.23108377923745L650.6783328330057,96.44803954286363L649.5148822113479,98.00731448289116L649.5934582136579,98.65379303398913L649.8175020566996,99.1245467422159L649.7818653567629,99.47431400041023L648.1939874809541,100.85481568109026L647.2756121973762,102.63597640624357L646.2184874673221,103.49174188887082L645.1864836896821,104.0319279850446L644.4562234451041,105.56355417059058L644.4646944639426,106.36902734647083L643.3830329896737,107.5130156226478L641.6353741723469,107.82070246240619L639.4939590311478,108.5948380983391L639.3105176577083,108.91978656505853L639.2859809134898,109.79589131115063L639.5366062294306,110.47207402416643L640.763443440319,111.07461723176857L641.2684914254714,112.40961761000835L641.3038360213104,115.23853426691676L641.1347077486644,116.0749309825369L641.1425945593037,118.02928708790387L641.3438542827134,118.55557476805734L641.8275786687191,119.06417140519261L642.0241647265611,119.07321667944416L643.0541237755133,118.45237396129232L643.4662826575513,118.6024466997278L643.5320060795675,118.95932820264352L643.2150731334186,120.6601979094994L643.2621018931713,121.19588295289941L644.7988615518589,122.70749395269013L647.1888572803182,127.13982057575413L648.6966986333209,128.30377055819008L648.8558953666397,128.89558769421637L648.3981682453341,130.15438310367426L648.3981682453341,130.52999508154244L648.5763517450141,130.93354532554622L649.0162605163459,131.30914500381004L650.3365710385442,131.75007666666897L650.2711397206331,132.1347037654832L649.5414636842506,132.5764419617717L649.195612432417,133.44058143792245L649.6644395094372,135.80683986627628L650.3108658779383,137.13963129073272L650.1802953462029,138.03195177702037L649.6752473610541,138.8396126553489L649.7032893544456,139.08363094786182L651.5377030888267,140.5378295019218L652.3144078849618,140.7912781812629L653.5868133351141,140.8282477793091L653.886512139492,141.3634789714597L653.7276075102673,141.88925077376553L653.1577124153991,142.72799706342994L652.8168269332309,143.11162533102106L652.8168269332309,143.7823438413725L653.1296704220076,144.72411081118662L652.9333764682669,145.47486913185458L652.544293809955,146.4654396193273L652.544293809955,147.1360636565514L653.0496338992052,147.81857772889816L653.5996659154189,148.30930229168007L655.6303736035443,148.69119809186122L655.7188811451852,149.1498755970133L655.5430344782908,149.72269678010343L655.611094733089,150.2018849915312L655.883919960459,150.77673387707546L656.7549743801901,150.87486740734857L657.3181510808099,150.82970139761892L657.7732492652322,150.39692456160446L658.0747006941929,149.56625021182117L658.5131489450396,149.44183134111154L659.0193653465758,149.86723442844232L659.7902280607559,150.93604668393164L660.7252532779166,153.33833818618223L660.8844500112355,154.39837336280652L660.6411272977421,155.08355302735254L659.5378501202322,155.33684693068972L659.5378501202322,156.2559897056708L659.6874074183215,156.53759580276892L661.8752671110815,158.33675850955478L662.7258742439626,160.2244402395918L662.3069969676726,160.61558497803162L662.0902557270783,161.1224628877644L661.8659197799461,161.13190261698946L661.5463578969175,161.65231320694147L661.3126746186535,164.57879545554897L662.0321270116146,167.61734387958495L662.0975583295294,168.6488440083358L661.8171383956069,169.4271580295317L661.5402237108647,170.12011101188L661.4721634560701,170.98165855999287L661.929306369173,172.2021309475549L661.8811091930329,173.27855624152835L662.2219946752011,174.2355658074648L663.4426977000403,174.34919019532754L665.974363915946,175.46530566493675L667.2450167415154,176.2905658233194L666.8147474054058,177.79007081250165L666.1139896747081,178.71819089883684L664.7121821092151,180.0485837250253L663.9743271580919,180.34836298277878L663.4421134918448,180.0953347738705L662.8944183084095,179.58639956407205L662.2941443873642,179.47239002617607L662.1483844425493,179.90504923039225L662.1320266130715,180.40618590807026L662.2649339775853,181.0139332792587L663.535002594952,182.5885912503909L663.6004339128704,183.08516103996953L663.3296534141809,183.56285880041833L662.7410636570494,183.99380367746562L662.4609358272282,184.04054699236985L661.3310771768192,183.53456623827515L660.9002236325141,183.66823804815976L660.6043221814107,184.3538068436701L660.7270059025032,185.66871528762385L660.3528205531838,186.26443884326727L659.3149746935851,186.63383737322692L657.5039292870351,186.81463967376476L655.7746730278704,185.99548359519576L651.4950558905439,185.6186951515847L650.933923918612,185.85485487231563L650.3987892113837,186.38989558934554L649.7520707387848,187.58498150823107L649.2671779363845,189.11247242003992L649.173996729176,189.83395853759248L649.5572373055293,190.64888365818115L652.1067218714052,192.93364096487858L655.8698989637633,195.79891087286342L656.4862386101886,196.97877252952458L656.5049332724484,197.662319734196L656.0851796838651,198.74907030161557L655.375950934329,200.11645347511148L653.7340338004251,202.54206484491078L652.7917059808169,203.2541316460938L652.3906470544971,203.3479524428003L650.7107563878671,203.11442401210843L650.3006422345134,203.65768136290717L650.3847682146879,204.45328934687677L650.9263292120668,205.25829309172332L652.4476073535734,206.53108585638074L652.7277351833909,207.0365791849108L653.0172103443438,208.3846456047213L653.5213820171994,209.15183386042008L655.1168545995533,210.53705207974417L655.3222037803316,210.8831392936263L655.1542439240802,211.43563972705306L654.827963646796,211.75386434473148L654.4733492720297,211.80997300738454L653.33531170688,211.2206206924784L652.523846523105,211.36150957383325L652.7478903661431,212.5148012539412L652.4292047954114,213.14179832077934L651.655128936156,213.14220784973259L651.6548368320546,212.79574384349326L651.4699349381335,212.5148012539412L650.9847500316355,212.13884083873563L650.2877896542122,212.23139809152963L650.0763062873775,213.08323560793178L649.9428147146682,214.82162702087408L649.232125444647,217.2985649744951L648.775566739736,218.08471078262664L645.8288206008147,218.9473941384822L643.9724990590948,218.2939358539934L643.4785510296606,218.38769757109367L642.8914217930214,218.9216000714423L642.1713851918685,220.15968386935128L641.3155201852242,219.99714808841418L641.1236077929461,219.41700506026245L640.5455337833373,219.00512361616165L639.5664008474087,218.95762987165108L639.0441187204851,219.1349120742252L637.1404763149185,221.61344969060156L636.0307728472544,222.09938322169728L635.2190155593889,222.71671333391896L634.6923518709918,223.54197853884943L634.5506813835455,223.9930787180092L634.6424020702652,224.8309890224864L635.0259347507163,225.2841114674702L636.6920965247482,226.48502857147287L636.8214986400853,227.20088397835934L636.1067199126956,228.2044370385247L635.4591251278034,228.69105505690095L633.3407862103268,228.45695578378582L633.0405031977607,228.709881122586L631.8823104498551,231.368300078444L631.3833966507664,235.0800156906007L630.5628762399574,236.97800137912418L629.8732184649743,237.772500327319L628.4848476879852,238.52033617920642L626.0194891022838,238.8562001385526L625.4706255024612,239.13601498612843L625.2749157569124,239.52709574734763L625.5012964327325,240.29942054968342L625.269949987247,242.04442274759458L623.5465358100446,243.88623135167836L622.0655680340387,244.7741590080459L619.5785937451074,246.88648449805441L617.0644537750741,248.55985366687128L615.0062883017563,249.1679136055336L611.7604275666527,248.80193452632375L610.2061416620891,248.95323381913477L608.9200073193388,249.3429273198126L608.3612121801852,249.80948799642283L607.752175136211,250.68574694663585L607.05492265469,252.48968436287942L606.8224077928135,252.77956098338836L606.2653652782465,252.90139806306797L604.9444705478563,252.65772328312414L603.5403261495812,251.17681410392834L603.0288518742782,250.83989650719923L601.3127402995196,250.58393409261953L600.4332148609501,250.76384406302714L599.5828998321631,251.23078589926445L598.1477923995153,252.19080930302152L597.388905953354,252.9966595084934L596.4500833829188,253.53919278236572L592.9229264016067,253.35071803611754L591.9776775410246,253.75505791242176L589.5155321004058,256.1633755874809L589.1839939493693,256.77246861748426L589.1837018452679,257.38808648631675L590.2323555564872,259.2001021306678L590.110548147688,259.88473282192535L589.1918807600123,260.2693436195477L587.6241580669484,260.0539459854954L586.3675262380784,260.48760034493716L586.0000592830074,260.8427741683936L585.5954951075146,263.48618079312473L585.7479734465778,263.84171877481094L586.57375173115,264.68436356317216L586.6289594056361,265.1093525888791L586.4545732592342,265.5359685974945L585.6781605671968,266.1946749318413L585.4833271339412,266.716478433309L585.8239205120117,268.2989812709402L586.5594386303565,270.4272070253919L586.6374304244746,270.885185946172L586.4341259723842,271.6242253347009L586.0108671346279,272.035201436076L584.7001960476591,272.6896438459298L582.5362888909222,273.07078090118375L580.4871786446383,273.834670772394L577.257091530817,276.25771523289586L574.8299985819394,277.61822154384936L572.1096331188346,277.93025712517556L569.7818555632148,279.2155231257675L569.0334848645762,279.35192798814387L568.0429598688279,279.0488957725647L566.2809879507076,277.8894150028664L560.3112565033298,274.9118366238963L558.9742960475596,274.5911836717769L555.899900417884,275.30560074393543L553.6641356530818,277.1481183767846L552.4892929716079,278.96435645150086L550.6534187167344,279.70232973178827L549.5860703432627,279.672108804416L547.8001458891194,278.8961530136148L544.0156451976181,278.97783375456675L542.5510352510901,279.3813325273313L537.2969588433989,278.9958034801839L536.2754708132816,279.50916017390955L535.730112462632,281.56125183580843L535.1978987963848,282.153365000775L531.1061045939605,284.1529658920299L528.8677108922784,285.34521534679516L527.5339635815835,285.72043500443397L526.1940820848286,285.98541248400943L524.2507135219603,285.30316098187905L523.293196289269,285.1627070338873L522.1028720906033,285.99276158650173L521.9071623450618,287.2241127015095L522.3350948483821,287.8760989192742L522.3421053467282,291.5806931435127L522.2766740288171,292.7746138566854L522.0067698424173,293.5395082041741L520.9654187336528,295.19002946775436L520.3888052445327,295.7495646579755L518.2570295385631,297.57785989766126L516.1968193365574,298.1826357933478L514.5829441960341,299.92138350551613L512.6684939388542,303.5955574885156L511.9849703499276,306.14899092942323L512.3676267180854,307.2279683774632L512.9284665859232,307.3642138727919L514.0086675397033,306.5585593530832L514.623838769734,306.545097553957L514.7012463556603,307.4094928929426L514.5569469313305,308.21511882134655L514.3048610949008,308.5932437840038L514.1453722574843,308.6067044332776L513.912857395615,309.24872783855244L514.3194662997957,312.25018356919463L516.0113332344336,315.95794530327294L517.1441129258237,317.13230375948297L517.6266688954383,318.2878489806353L517.7934603353024,319.3964513747778L516.985208296599,321.3990633150297L516.1305117063457,324.4731876969454L516.0376226032386,325.83340586486156L516.3992474763509,327.40752674932264L516.2324560364905,328.20840569346365L514.6632728229415,331.73806816476826L514.8207169316738,332.613373476328L514.5516890575709,334.2241289335925L514.2362166319108,334.9037676715416L513.2156049140867,335.71417504422607L512.9188271506937,336.32858331608077L512.4546737392375,339.25210381261786L513.8649523235654,341.21639882624186L514.9872162674328,343.4595396375953L516.2943821052286,348.15980221522295L517.8799231482553,350.64457067989315L519.4006170815665,351.0452369092891L520.0490881787555,352.59001955636995Z" class="state" fill="coral" stroke="#111" stroke-width="0.5"></path></g></svg>