<svg width="800" height="679.1999999999999" xmlns="http://www.w3.org/2000/svg"><g transform="translate(0, 0)" id="single_state_map"><path d="M276.9286221813609,142.39128000776736L278.6974073176352,141.88599221300046L278.9539174346746,141.64822040372474L280.84853947753527,141.4245752169213L282.7426964911747,141.8335351291239L283.6897749979944,142.4564732516069L284.2926388771266,143.32963927663468L282.9754901180595,145.70867608290473L282.4342891133274,147.3812220963364L279.8584922709042,147.87030981789349L278.19991905946245,147.12441808181256L276.3608215053182,145.53231060922508L274.31376288456704,144.06551861910793L272.47373527198397,143.1334319705702L270.7780527288887,142.56138109080484L270.9847117136824,142.33668437657388L272.03967699924306,142.1614412341478L274.2908834470063,142.0613468943152L275.7930208292755,142.0935698796652ZM312.1970891690562,139.41809113161662L316.6029619987785,136.04637608700932L317.79734304410795,134.95537300443948L319.6823854850609,132.72010407100925L319.9242936846331,133.2919289659976L319.84858692782655,133.58645457971988L318.0993330187366,135.77762577140993L313.32162282573427,140.2397884083889L312.2207126533649,141.04632698962314L310.1583080683977,142.18392218779036L305.0708884157357,143.98706289694883L302.20602941096513,145.32190967100996L295.40293095880224,149.560492901031L288.1075525757169,152.0973031044391L286.7297640065299,152.31024565670714L286.395780021654,151.75878959489046L285.01659636481054,150.34707911718124L282.6229049644353,148.50616557366993L282.4469379080765,148.2146159751287L282.6515507643071,147.94263856202315L285.2884524460669,149.84751312339313L287.89568526367293,150.96000535606163L289.2904008964224,151.22516806306612L289.8759656886177,150.44367346967147L292.6131276699325,149.80953660364185L294.42311439498553,149.06805837622915L297.7454691451203,146.928814918419L298.3732585903763,146.10302654107636L298.88562778354844,145.70824801486333L301.15943465134023,144.76581497334246L304.30173008799284,143.14659820288398L308.83548595286175,141.5990809550458L310.2484307309833,140.28293809411525ZM494.0814563244048,324.479976983353L493.3173203122242,324.05602762307444L493.4266951844638,318.6498649995269L493.94752790941675,317.50143743530634L493.94399368735503,316.01958329467743L493.64460787635016,315.103588224591L493.12907648449254,314.108366069107L492.71045718181085,313.02272275636096L492.60694167772635,312.3336541667559L492.7942554470219,310.7406351872105L493.65920979381735,311.90535007597236L493.94399368735503,313.54289591204997L494.38809659122035,314.66484967945144L494.83945395089904,316.8202279681932L494.67827482369376,319.4134522900349L494.097918358746,319.8516910996L494.06564533096935,320.4724653308631L494.3162960798527,321.12722789631334L495.1026604886865,322.70815107511226L495.1026604886865,323.52254080019156L494.67827482369376,323.5029531641144ZM526.031009778183,328.3504952825515L524.9378190908465,329.2010052608284L524.8169114939819,329.7378043343115L525.1610331158254,331.78993277374866L525.7187891607437,332.4112130606186L525.6868881563396,333.56855189599173L525.1176923926423,334.20257096090245L525.1015093758315,335.09746052368337L525.8381156582636,336.18310104113334L526.629874406035,336.8041419386723L526.8888026750119,337.22982574753814L526.5539816375422,339.4106934038605L526.2904960822225,339.5755877491215L524.9348429038455,339.4056455802129L522.9497261750266,338.8369098243252L518.9734473375456,336.68633190093897L519.069057344911,335.18835532219737L520.3990409104154,334.9570140108822L520.901272466619,334.34681431678837L521.2081917509668,333.6313661785989L520.3339368197967,332.8422168762231L520.0084163667007,332.2529497541218L520.1080256253481,331.9262090440898L520.6594572728909,331.4743338224007L521.0779835697285,330.85342339408817L520.8547695447487,327.7905765977871L520.1572257166872,326.1062331442163L518.9760515011694,324.210929980728L516.922017442138,323.95546105979975L513.8856556615092,322.49993680314356L511.9381132935614,320.8959164782759L510.83162277056726,320.79563793261104L508.66281950035955,321.04633263579217L507.37933885672464,321.39719059002346L507.0251726037577,322.09887397234615L506.80391170149596,323.70272440591725L505.37710905265703,324.9154931900134L503.85292928542185,325.11650314094504L503.48090591045457,325.39026686930765L503.14608487298665,326.2009900078915L503.5181082479512,327.4326521141538L504.45746726974176,328.2853360176905L506.16886780043023,328.6432336761395L506.77340578475014,329.54845398263024L508.066187012756,329.8956815969341L512.080133216954,330.16964607670434L511.50749623703814,330.8744717596014L511.70280850889503,332.20044036546915L513.758237655582,334.05222346334176L514.8349663085783,335.72697629696904L515.1720194862974,337.2185711539382L515.6835516268757,338.02845281756663L515.943967989353,340.0265111455524L514.0000528493101,341.898052548574L512.5767844225347,343.8993236913375L511.8516178588807,346.6282718083512L512.363149999459,348.85599752361895L512.2980459088403,349.45491583259263L511.5632997432822,351.1778396903733L510.9866635120843,351.88168550568844L509.8053962907243,352.2598534668077L508.8381355158117,352.04976169531756L508.0289846752594,351.67158680277726L507.49885136593366,351.64007166517285L507.31935008751225,352.85250160456644L505.9710443707918,352.2693075059933L504.1219951913663,352.43275610641695L503.63901584481573,353.13169317838674L503.24839130110195,355.31614836540166L503.3785994823402,356.08274638283183L503.87153045416926,357.3951903404359L504.221883467545,357.89517952757524L505.56711999142135,358.71294356764065L504.9229615176682,360.13520407679744L502.3133105481247,361.43028642662284L501.99002223527805,360.9732769436728L501.75099721686365,358.9175592030897L501.85330364497895,351.5770411299891L501.63929719852877,350.3795001503877L501.0905627204538,349.00310316796276L500.39301889239323,348.4777171888909L499.72337681745375,347.5425755806732L498.8770236394066,345.1569301040181L497.65855408054813,343.4855573404284L496.99821258998327,342.66565441864805L494.1885990563951,340.3378776597592L493.43264755846394,339.44276806446715L491.7617975756466,336.0721221841641L491.51998238191845,335.1359646587366L491.3339706944362,332.7055306640814L491.640889978783,330.1904852102534L492.2867225577247,327.3523281018024L493.1697200382059,324.7249042538874L493.775467098495,324.9266546529543L494.0451840453461,325.27760336409756L493.2226403632949,328.00879973457813L492.5097505710173,330.30499451591504L493.09838455605677,330.29120715131467L494.1623714084599,328.3938644087025L495.5809895430484,324.9266546529543L496.7739755007224,319.5595688893982L496.7739755007224,317.33158671620777L497.69575641804477,314.84601713846496L497.59344998992947,309.5333082333368L497.825964599283,307.2873224826867L497.333033627453,305.45215616220094L496.951709668112,304.6611497390909L496.17976116505633,304.7349891943127L495.3008559416994,304.41715964897185L495.6149366760146,302.58384800991826L496.29713453985823,300.93701064693414L499.5634067662186,297.64176999932806L499.39441514813916,297.53030766432676L499.42761823435467,294.9676364736638L499.89553063421954,293.9461424308315L501.09381792498425,293.18885725175505L502.33972420774626,289.94236450782773L502.0913055991141,289.0490740123637L502.46360799160993,286.4412567052759L503.9180333760405,284.2829184586776L504.8211201187705,281.89902881594935L504.8015888915843,278.3820883692124L505.62831783660295,276.3898145096023L506.86492353499034,275.5593225669036L507.4506743388756,274.8879464649731L507.7345281739754,274.0852670707277L507.2128583964286,272.47338822689017L507.9556030645481,271.6744499751676L508.63966104526753,269.59135622652L508.69406946385607,269.1306277356912L508.51549824387075,268.22668121423885L508.1661682947788,267.8627326620208L508.2340625607103,265.8401097616593L508.36203860169826,264.9593975024595L508.7652189343189,264.7483126272641L509.4172829047893,263.20041127986497L508.94899848155274,262.67853769160274L508.95634594320745,262.2126530294436L509.3841728244179,260.7423415879448L509.6550058413932,258.32662807074666L508.7326668890082,256.6585489631311L509.42146816775767,254.842307347521L508.01094154157454,254.43151147898925L507.65928644638734,251.37194521401125L508.3625966367599,248.5300361751979L508.2986086162664,247.21823021210412L504.2388105311047,244.53932342487496L505.54944888111186,240.71129670724122L505.67733191625575,239.54434948819562L505.2937758166645,236.4441645593074L503.85525443151437,235.05789977101176L502.5766100917572,230.8251131881475L506.4445371212787,226.04309614477233L506.42528491162557,224.9351567555982L505.1460825368031,222.02948726378145L504.57177145169953,221.7081228426082L503.170359398202,219.8453209854997L502.064240898585,217.69771772887634L501.8672545215395,215.35925224314906L499.7579749913248,215.63741896392185L499.4320825148561,214.9334819025039L499.86707084603404,214.1984469374438L500.41255011957855,212.08441564763507L499.8367509409745,209.1381107659804L497.63958088842537,208.02867987149102L497.897207075589,207.07514144981678L494.51486355624,206.7947357923349L493.8885622044845,204.3801835741051L495.20701304536396,203.77153923992182L495.9805426477633,203.72012544682684L496.17111162159017,203.1299672362934L496.1935260299306,202.71937124026726L495.558575134708,201.08577699294938L495.6485117856055,199.29944628904332L493.57104025395074,198.0426854229886L490.678000478526,197.63264406942608L487.97785482302334,197.6895182560056L484.6852619428855,196.83445714359686L483.7745487209677,197.03448864192796L482.57505235423287,197.0419444843269L479.8430987001693,196.71292397213574L479.39239238139726,196.61631425589303L478.6818277352122,195.73464457357068L478.26413849096934,195.67392530529878L477.8464492467265,195.94982242249534L475.79399628703777,198.789027735359L475.7141042672647,199.86382881879945L474.65551175379824,200.64124471240757L472.53925678530413,200.9802621023482L472.1988553972087,199.33788911733882L471.14026288374316,198.60606782192417L471.81939155474356,196.70770472592994L471.79939529833973,196.15871132167013L471.41993145587367,195.26645833017983L470.1416591394909,193.9395553390641L469.31827840484675,191.8643415749475L470.53711998707877,188.50124421978808L470.30172219657015,187.7171007554839L469.20908954429433,186.5261736169723L467.4918296454498,186.27168149007548L465.8093539321653,185.2101496112814L465.58055955656164,184.7955739283516L463.8675779265295,184.1066055250094L463.55889153115186,184.04539495682093L462.5389894486816,184.38204882537502L461.7162597549441,183.9827977308123L461.05033791375445,181.43754784201928L460.90859700789406,179.9765732750634L461.03954923588117,179.83223592018294L461.16361903143206,178.18699611685315L459.8556778508955,176.18871012555792L458.8213598626453,175.07475189191155L458.65915767116167,172.87947799107587L457.20556933932403,170.09618852006997L455.11907624082596,168.74154548007527L452.93753117002507,168.46089986133393L452.1884621045301,168.84000466479074L450.0746252879735,168.23481894144606L448.9262821352959,165.914146628681L448.85801584598994,164.93031695784885L448.5122201189588,164.20333654333126L447.42702793418357,164.08336138858203L446.69079367512495,164.21102858271388L444.92954201219254,162.74046772443216L444.31058812209085,161.61390691274937L443.04887084589427,161.61390691274937L442.2149804509072,161.22311475599236L441.7760858742913,160.21459846810876L440.2620437440237,159.76069805533052L440.14113614715916,159.1141750331235L440.30129221008247,158.0718972530749L439.79664250194037,153.23095191581433L439.81412760056355,151.38593114582955L440.33384425539134,149.5261526609611L439.90592436833595,146.54722872500633L439.0979826037528,143.58407190338312L438.91820230780195,143.36453447313306L436.9131823284206,142.6309622568342L436.1341653812415,142.65601136648684L435.80315758336656,142.85950646000174L435.1370497304897,142.7321217650583L432.5526963504435,141.22972497459705L432.5132618726975,140.3663460529765L431.56822949443904,139.3120818282614L429.8022345334748,138.4455504341854L427.4836918548426,137.74087998618688L426.5976251815164,136.75951193093124L425.87022647761387,135.648014806206L424.8448370503638,133.6303809522292L423.64162044988007,132.88639393481208L423.1058137840846,132.0611337204964L422.9781167606279,131.14343669392883L423.261226548977,130.85806020950577L423.36743922252936,130.34837156453887L422.99578787093833,128.23787844100343L422.1034898060816,126.49802490777483L421.1965898237586,125.59711356670232L419.9573799617456,124.95925725770257L418.15195052303534,120.2685755452444L416.10851913018905,118.82557646900932L414.3164825329786,116.78813906000005L413.6464684346638,116.22777297683979L407.059236545826,112.55622924526142L404.131412584843,110.51222664494435L400.4148060630878,109.84598117137966L398.85816725638597,108.24800346739312L390.8519452095834,103.84402926910616L390.65123859878895,103.62012983658587L390.81762605324275,103.29533836360861L390.67318797791177,103.06648496286107L388.2319705913824,101.06375399722674L385.2625730182481,99.0242085595878L384.4153827876071,97.70324447281155L382.22435112074254,96.9440646045723L379.95119529385556,96.9508374770121L378.62353687444556,97.14757141135806L376.757188608085,98.1249518001041L376.38730436752485,98.14462318383539L375.6719964233098,97.83707897026034L374.92748464415854,97.98252129616003L373.8941897201894,98.856745757113L372.86656815268907,98.30607764615388L371.86266307534333,99.12115950266389L369.8542018797434,100.22861619407058L368.86806091855306,100.36747005626648L367.82007107127356,100.17778147071567L367.32304784231746,99.74067880002485L367.53472914267513,99.19199117374228L367.982273262759,98.85954040832439L368.2060453228005,97.75118859094846L368.01417426716125,97.71420929020678L367.7585012027166,98.15762992576083L366.99129599769367,97.9358681726867L366.47976385711354,97.52941835626507L365.68065764768653,95.97754218467571L365.36099656274655,95.75584244046513L365.16912550710913,96.56875471802778L366.0175248137184,98.59243292370729L365.7333919610883,98.58759590537147L365.5693296527279,98.81407349158872L365.13582941504956,98.93220108193646L362.4382879231698,98.84793185232456L361.6334153514308,98.04594341667871L361.4638656982888,97.17315730563087L360.6316494084904,96.88816136557307L359.4296418839749,97.54726334521183L359.1368594878768,98.11721222930964L358.99809476901464,99.11460298117163L359.3361710110139,99.93252469751542L359.2967365332679,100.72512862155554L358.70373127357107,101.56667499681589L357.5356708820218,101.89613983880417L356.7814864951215,101.86884600923167L355.1531401828952,100.57488769650809L352.67193028355814,101.18035211545703L351.1000385184816,101.7857820734771L350.45281085188617,105.39959205688046L350.81739375935194,109.35719573192728L351.00117330658577,109.67933276568374L352.14384310279365,109.74547703224653L352.5771573287866,110.71429319408799L352.6696981433097,111.57308700353451L345.1093461114033,109.8280494125679L344.50201795177054,109.90181639490675L344.2143508770778,110.04945620235185L344.27824589172906,111.00890408723762L343.9585848067891,111.89451298640643L344.15036285658516,112.0790547910924L345.62264536301245,111.74496629720807L348.75536119775734,112.18780306267445L352.91337345391094,113.83746323409332L353.1844854884175,114.21302370878902L353.44164664636264,116.22927533807615L353.2363827492245,117.38377748406765L352.54479129516403,118.8239671872825L352.0167971202436,119.11653062384721L349.2386195618401,119.5134685811754L346.8185145018424,118.64265322817528L345.0629361953761,118.45307493003247L344.0907461107463,118.09558140733952L343.21974638410666,117.29546928994114L342.47077032445577,115.65364089221839L340.73918752567715,116.14310384855798L338.4848188792239,117.27701353627253L336.8633549994347,116.99620316582013L334.6426544684182,117.69172380013879L330.77668056161474,120.08031334901398L328.3712704249274,121.33651193031983L327.45506985822976,122.20882400323171L324.21809447264786,124.44800123847972L323.44056561897014,125.43028173078801L323.42828884759456,125.82334024715692L322.19335725439487,126.39874932899784L320.8721162382035,126.13962072457161L320.1170017928662,126.38277509487034L316.557296129502,128.7581716401928L314.2072244698411,130.725925003685L313.51870220862384,130.69313207276082L307.8268375774851,133.96742952755767L306.62045877831224,134.22047684376548L303.7276980204206,135.66365389820203L302.47156109484695,136.58182150068296L301.8899025480878,137.8109207275852L301.4749104733128,137.78371841434318L300.61107219664063,136.3846341655062L301.70063565607325,134.23376112744063L302.9055263617447,132.40316045560076L301.3354947135449,131.08642630199574L300.39260146969355,130.96822521959075L299.37139730541094,131.28714011572038L298.83131237080215,132.401767511682L297.2080813799821,134.83271526142744L296.4431083152076,135.3875027469321L294.82369056398056,135.6670816413498L294.37410031533364,137.31034430177397L293.61489361287295,137.939113379442L292.10261859363527,138.60821779407206L288.01519777288195,139.02445940316375L284.7682707620197,138.17279062069565L282.0191110268652,138.20266924170255L280.1784323733773,138.51258810384434L277.22410174692686,139.3288934743814L274.9876832283171,140.18957180679354L270.3219520711791,140.89194050615015L267.320746499483,142.21271915027182L264.43561222077824,141.91457586331444L261.7872708202385,142.19152288054056L259.5175562095692,143.20739815622255L259.1369762969789,143.722685381284L259.4106924951102,145.04953816128045L258.6808756392702,144.5150492525895L257.1180054410379,142.23926795447687L256.10572983775546,140.3724490489608L254.47180317490438,135.87317268817515L252.97329302054004,129.51219824100463L252.6023857156997,126.40464585235395L252.73473303134324,124.92794781724024L253.01123940478737,123.82219407363982L253.73296475222014,122.44123549723008L254.9742207427944,121.89457247007294L254.39098109669158,123.1436945625419L253.80774145058967,126.2657014573656L253.72440821459622,129.2908725479965L254.68971586679072,133.53031427124733L256.3236425296409,139.18005059809275L257.6406052770226,140.90339644476035L258.5627582177185,141.84135018028155L259.3904172211742,141.81458628289465L261.93180190141265,141.14321890071415L262.51504154751547,140.4718096192796L263.4505873297112,129.80672045641768L263.3333999665974,128.63019085892392L263.12078860780366,128.30840998352414L262.5122513722026,127.95714115111468L262.2214220988235,127.10963223782164L262.19947271969977,126.22024394925438L262.37357965918545,126.0381975615187L261.9501240526288,125.3283157494966L261.248487967443,124.67725454440506L260.5713124191607,124.57656812630785L260.1653419112299,124.21305975976111L259.19901119475526,121.7801311379394L257.6470226802394,118.89091310251433L255.6939929675109,116.52673870026047L253.80392821099667,114.64459603992373L251.85973405342247,113.42088584580051L248.6480562573406,112.38060576348926L247.8168630318214,112.5728682394224L246.11122886344583,112.20369116750271L244.12239190087712,111.10445762200197L241.14360073752414,108.49253180735332L238.2854381535035,105.20064739046484L237.40346373730154,103.9820839137492L236.5052132984456,102.79045757697259L235.56306410134312,101.98801422302449L233.9748963136135,101.00593805076915L232.20490210136813,100.1635949929182L230.71997080019173,99.67780418136181L226.66872925265307,97.63003790203948L223.5768429833106,95.34404062466592L221.7282588331018,93.36716956591908L219.35893496378685,91.24267656018719L216.02802367602908,88.87278352243766L209.80416561868878,84.85910838311702L205.66893979425276,82.44741702166584L198.476146856814,78.92054647253872L190.10320276813854,75.38894394602721L177.7708138996977,71.07734259483959L170.68944196306165,68.97951912215194L164.59988434408478,67.74255180920136L160.14481142302247,67.11490381001977L154.67857896880014,66.73174201252914L151.3953796788801,66.90424201388578L149.26396475785623,66.40872816396904L139.6019596749229,65.39487904745693L128.6316413880777,65.87124825724504L119.35719165601677,67.04795392094957L113.86482455970327,67.96904356573395L91.0120796764395,72.78394141463468L86.28161645205728,73.51716503536272L80.5549676353603,74.10575428483571L79.16360021298715,73.75409150775886L77.98847137731264,73.24133670366291L75.74740256651694,73.85429073506566L72.86719759752941,74.36604614917269L66.41510319964709,76.0827774605491L57.257282795637366,77.88075866558347L57.252074468388855,77.50746550420126L58.45184985265314,77.16280921552425L58.96338199323236,77.0766433867525L63.39064616701762,75.7517552947038L63.60455960762192,74.57763629710689L63.09302746704361,74.67459574245959L62.721004092079056,74.87928498105703L62.40478422335582,74.93314991068974L62.144367860880266,74.95469580560894L61.8746509140301,74.89005798896414L61.20491583324656,74.92237694674668L60.64688077079791,75.1269536547511L60.47947025206395,75.25622599235612L59.4378048021581,75.23468071264733L58.7029656307559,74.98690683652376L58.526254527647325,74.81453897200026L58.42394809953112,74.42680872341953L58.40878814700136,73.68384374040625L58.52430140492834,73.18358423409927L58.722310846254004,72.82090012115304L58.96338199323236,72.65366902333562L59.71682233338197,72.44430315932595L61.23281758636949,72.39042552796536L62.228073120247245,72.18568801989068L62.40478422335582,72.11025741024605L62.6838017545806,71.86241018167357L63.39994675139042,71.02194920913735L63.52234244175452,70.78884117052667L63.42784850451335,69.27593853046528L63.43714908888796,68.76932576404397L63.483652010757396,68.53217950781618L63.697565451364426,68.18722997429131L64.37232284770835,67.55066064816401L64.66482622627609,67.06617382017157L64.66482622627609,66.92601993827202L64.46021337004368,66.43007584678162L64.43231161692256,66.22522256083812L64.4788145387929,65.91254407523456L64.79503440751341,65.43811761265033L65.0740519387382,65.26559360031797L65.30656654809263,64.6509538354776L65.51117940432323,64.29509336222827L65.82749227888962,64.00392584661358L66.15301273198475,63.90686821855206L66.47853318507896,63.896083982418986L67.03656824752852,64.02549408688947L67.43649337561692,64.047062282978L67.93872493182243,63.896083982418986L68.09683486618269,63.7666722871345L68.37594540325063,63.36764287790356L68.66426351885002,63.09812769917744L69.52921786564548,62.785356335037704L69.92914299373388,62.52650403848111L70.94355773142252,61.70751814301002L71.22052913408606,61.392871684415695L71.3693384840717,61.043265456264635L71.33697245044914,60.62989314743572L71.17504927649588,60.18209077215579L70.98085307476413,59.941082998683214L70.01284825310086,59.59239948741242L69.00838514069346,59.43056843430213L68.55256350051604,59.53845607978974L68.27354596929035,59.495301154435765L67.82711791933161,59.290312840147635L67.52949921935942,58.91280021860575L66.89705948191659,58.815695609085196L65.92970570116086,57.92013303746626L65.51117940432323,57.3806006797131L65.41817356058255,56.73312528285442L65.32516771684095,56.61441713206068L65.03684960124156,56.45254021941901L64.95314434187458,56.312244877544344L65.19495953560272,55.83738520197812L65.41817356058255,55.168228310989434L65.36237005433668,54.66104374117549L64.70286561636567,53.628897677844634L64.57070431240936,53.489428202221916L64.2423936840014,53.475070945124116L64.10344295345112,53.39821070853213L63.825541492352386,53.078241540678846L63.818101024852695,52.92116808629817L63.86246481231774,52.8438719701403L63.93742752237267,52.74239296454334L64.05991621858084,52.69802258039135L64.08205160938996,52.594059120782276L63.94412394312258,52.01506205248688L63.92933601396817,51.28498142444869L64.96597914831091,48.90155472630795L65.01034293577595,48.85198423991096L65.33790951743322,48.78027401474492L65.6680802627161,48.35950654554608L65.84051309701317,47.720763071470174L66.0893037290216,47.574734409370194L66.14110798398451,47.57970287361559L66.17803130395077,47.681231844557715L66.31595897021907,47.65649774970234L66.52782628226123,47.53023414630661L66.71262889377795,47.047523762710625L66.68556419324796,46.86421976788415L66.54028906532312,46.69592724260883L66.55507699447844,46.643861870233195L66.74973822542961,46.38407123934667L66.9123124402895,46.27518410277662L67.07981596486752,46.29992145834831L67.44960719958362,45.16842473525912L67.65217392725299,43.41519519405074L67.83455838683221,43.04121701496342L68.15254536658358,42.93229511378195L68.33000051644285,42.80111187500552L68.51247798186341,42.46428543569118L68.72471731728183,41.7561257124803L68.72220615950027,41.68923007648573L68.59413711266825,41.58018603093342L68.59413711266825,41.491026279046764L68.66584461819366,40.881693598552374L68.77559151380683,40.68498763867228L68.84106762780084,40.488926479234124L68.85845972058178,40.07020362740741L68.63961697025843,38.65545786152916L68.52391770064332,38.20693224846991L68.61766759113561,37.95428353503712L68.51675625067583,37.532972547449845L68.24564421616924,37.223113803079286L68.19635111898606,37.230573873797766L67.71578992437298,36.206872654950985L67.60009065475879,35.64675708209188L67.65189490972261,35.40637394972737L67.61497158975726,35.28244958014557L67.07730480708778,34.96992871573093L66.44598113976917,34.76164837247461L65.94784184069158,34.394714485322766L65.43733276439252,33.82465987492242L64.91194275309772,33.82217237435316L64.5591715877863,33.62630688196941L64.32981917711913,33.388364841397106L64.20891158025461,33.18016110717099L63.67115179174198,32.71409416416691L63.481233858821724,32.617503540472626L62.96560946111822,32.860438613273345L62.092284588386065,32.50620147820155L61.96402952986591,32.414476437591475L61.71477386863717,32.025285046286626L61.33977430667255,31.884121157703248L60.86079421140312,31.204885219121024L60.838472808904044,30.97932886671606L60.707706592605064,30.810780456920384L60.16724963462275,30.595276854655367L59.26174473995434,30.394806906521808L59.19264139805455,30.419690056075524L58.74602733640768,30.26097781885528L58.48226276355672,29.749988070557265L57.87065633511247,28.968578664557754L56.765374888088445,28.45233160623684L55.92888032947667,27.891475030656693L55.67237021243727,27.211221448299966L55.667626914407265,26.67172692985605L55.56420441616592,25.95491898914679L55.512400161203004,25.830774056625614L55.03109491984014,25.292398704430525L54.66837212924747,24.803572213284497L54.7424047808654,24.57787730778682L54.772166650863255,24.084145883867677L54.12047470376638,23.262687730212292L54.03649042686811,23.188311606067145L53.861267417259114,23.168391272998633L53.42916226723719,22.808736094443702L53.3748468544909,22.61266357369641L52.989709655556,22.180879589502183L52.62410368381006,21.87316302049294L52.26110187568611,21.716810933084616L51.8141157906648,20.89050960835675L51.34722645508191,20.43136479889381L50.78909838678919,20.146121710169155L50.19134982906235,19.935270709176166L49.61573666214463,19.54073935341148L49.509337976905044,19.051967567025713L49.328906640046625,18.67462393371852L49.12373574875255,18.384350282195555L48.639547326233696,18.24051018648288L48.18000545230825,18.017272482695716L48.2317167014271,17.764025654937996L48.053703516506175,17.404183580611516L47.41605545181483,16.82355721869635L47.23581012664454,16.738952050620355L47.11973883365408,16.58003113419727L47.19656166058485,16.155471791417312L47.300449188042876,15.887337217073764L47.22158023255088,15.5870182788276L47.03398744572314,15.261554620801235L46.41149933356246,14.638009711682116L46.87197126592582,13.359381785502592L46.9215433806412,13.096159936881577L47.391594914910456,12.599715555213152L47.60904257757829,12.522553764166787L47.72753202250442,12.296483754349993L47.715069239445256,12.033234954503314L47.56653890698908,11.626047765118074L47.59592875361068,11.211149097306588L47.73432144909748,11.057021071990675L48.17163492637155,10.783552000345935L48.270407132424225,10.482977005275188L48.33941746847995,10.015784014884048L48.55909727139897,9.364822273194022L48.71227789603927,9.138575045469679L48.892523221212286,8.567026764957518L48.93446885673893,8.286228039219168L49.41130981760216,7.225087122664263L49.596670464179624,6.921806601146727L49.81914044240875,6.73540991509617L49.950185676239926,6.481887692660621L50.39986893073001,5.358312725685664L50.666609690581026,3.951422036536769L50.50570958090793,3.4145146672676674L50.307700139582266,3.0292258002355084L50.2086489159974,2.6637738718686705L50.203719606278355,2.529587186491426L50.342112301767884,2.2510113762518813L50.275241100117455,1.9451985357750345L49.965810657989095,1.4406255675553439L49.73794634082333,0.560520272386384L49.76063976669411,0.3722730446929745L52.33197232861767,0.3274621048694826L54.446739203612196,0.3212775289275669L57.1460478065228,0.3582764281559321L60.799038331158954,0.2914396106011736L60.84926148677914,0.2919821189743743L60.94198831298945,0.2902460920786325L62.0419684269209,0.2940436505359685L62.046804730794975,0.2940436505359685L62.51592620662814,0.29154811227817845L62.5294120539711,0.2914396106011736L62.80656946832005,0.27147528265732035L63.08121572488926,0.2788534083401828L63.62939216790164,0.28384449037957893L65.25876154440812,0.2911141055619737L65.86497363391663,0.30359179135848535L71.25298817355088,0.2816744550063959L71.60929356092402,0.28970358361175386L72.38635738538596,0.2868825391351493L74.40300309523354,0.28384449037957893L76.42960043036055,0.2661586888275451L77.18787707438605,0.29263312898547156L77.41695046752102,0.26626719077057714L78.4002082475572,0.27516434615608887L78.59459046097709,0.2759238590656423L80.76543985974786,0.28438699915068355L81.23270121870519,0.29219912231656053L81.31184919172938,0.29469466041746273L81.47265629555841,0.2848210061474674L81.56175589386203,0.2923076239862894L81.69289413353908,0.28992058700168855L81.74981370990827,0.2824339674384646L83.35834977741797,0.48771728381916546L84.56175238958986,0.4035212365506595L90.34039147293879,0.1988872656447711L92.37340621128533,0.14713137302305768L93.84159646058924,0.2263383992190029L94.40856008403716,0.158524201795899L99.08117367361137,0.1893390282011751L99.50621037951078,0.18413089497335022L100.46658872198623,0.19064106109863133L101.74523306174342,0.14040417299702312L102.08219323361936,0.1670959408907038L102.94333434082182,0.1771867132533771L105.05903127425609,0.17056803571813361L105.60609164714333,0.24163722071216398L112.1785356068267,0.3454733049779861L115.86854245727045,0.359252936901612L117.27720896658047,0.3533938830491934L121.09556388138844,0.3808446067141631L121.22921327884524,0.3783490893893031L125.37532078699951,0.4242448117465756L129.15861249871796,0.49889273859207606L130.72557495407455,0.45017634737496337L130.82778837634578,0.43466083386783794L131.00580156126762,0.43574583556755897L132.7838872819184,0.671080016146334L135.37670419374535,0.6890906181583887L136.65107026469195,0.6894161106788488L145.68147266277538,0.6270298574468143L146.06744691430413,0.6146610599557789L150.11301510537305,0.8292684491525506L150.77372861931235,0.7799026339434931L151.97201591007888,0.8189613203717272L155.84394219088153,0.7475706097661714L156.1801583160077,0.7700294426422261L160.81110528758563,0.7420372666429103L162.01785611013293,0.7286921328259268L162.3238453360418,0.7277156589461811L163.63541374448505,0.6959259589111753L164.12601957022252,0.6956004665953515L164.53180406646607,0.6979874099970402L170.14107950836114,0.744207205474595L171.56862620395077,0.7692699659978643L174.61912487282916,0.7633026475705265L176.30373972051893,0.70720968614296L181.70765825943272,0.7468111314733505L182.1752916417663,0.7692699659978643L182.75425301905852,0.7792516545873696L183.32093762497516,0.7818555717653908L187.59623025008568,0.8648550885491204L193.24214999441483,0.8414199983144499L193.5910149142892,0.8290514570726373L195.21145572979913,0.8211312430735234L198.59649641861597,0.8699543835623444L208.37141059585156,0.8051823006007908L221.72807282141548,0.6565413145485763L221.7571836505076,0.6071746753432308L245.13392345741067,0.4296698245761945L268.8169315077548,0.00043401892799010966L277.1111926526237,0.005750749298840674L277.3189677075434,0.00585925397263054L277.3313374847612,0L277.91262400814503,0.020941392450367857L286.1251330163659,0.03287688213686124L286.3792249814687,0.03287688213686124L286.6316428413829,0.03287688213686124L288.5785341684241,0.026149607825573185L288.6760042926644,0.02549858104748637L288.91735445717495,0.023654004951367824L289.2339463492708,0.022460455538748647L291.25589339221096,0.022351951039127016L291.29942012708216,0.022460455538748647L291.3069536004259,0.32540057996584437L291.23989638708827,1.5177614067006289L290.9242345534303,2.2874609739183143L290.9245135709598,2.587297437320103L291.00133639789146,2.840698039772633L291.1016897032887,2.9747722196680115L291.48282765094154,3.22230590954905L291.49212823531525,3.1897645703470516L291.69674109154676,3.22230590954905L292.5896901973092,3.482632941897009L292.8873088972823,3.62364068537363L293.1012223378866,3.8297254723429432L293.32443636286735,4.2961127437474715L293.3709392847386,4.545567082798698L293.3709392847386,5.011922125555884L293.12912409101045,5.857814910439174L293.05471941601627,6.324110894986461L292.9989159097722,6.931348633337166L293.0454188316435,7.169896583445734L293.2779334409961,7.397487896862003L293.78025800304385,7.603497640689511L294.17088254675946,7.885399077691545L294.3196918967451,8.55759465318215L294.57080767484786,9.067133232933884L295.556762624351,10.11865499696205L295.91018483056905,10.693152791187458L296.1613006086718,11.224263964245893L296.82164209923576,12.188757386792986L296.9332491117257,12.275458776454798L297.0589000066202,12.3794994881614L297.2344020337614,12.498819895684846L297.3514963910311,12.601124402808182L297.48309965992576,12.839758751925729L297.46849774245857,13.24874056162298L297.27830079200794,13.555520528786019L297.205198198827,13.862291432822076L297.26369887454075,14.135029271606072L297.4538028191473,14.458794571326962L297.55620225310577,14.680375112202455L297.61479593466265,14.918961685931208L297.55620225310577,15.208573719483866L297.48309965992576,15.447148162469603L297.49770157739476,15.890262358852397L297.6866894518771,16.19793933979463L297.9804949122563,16.486540734465052L298.09749626368193,16.708078034149366L298.1413950219285,16.980632849116773L298.1413950219285,17.168145545015705L298.03899558797,17.406566681681397L297.80489987927194,17.713332221257588L297.6001010113532,18.088111166985982L297.49770157739476,18.428758343470236L297.46849774245857,19.11012752342458L297.424598984212,19.535974128907583L297.48309965992576,19.910795688502276L297.90069589832456,20.6386322053404L298.1425110920527,21.223268642599123L298.17971342955025,21.47231660299576L298.07740700143404,22.067841907062302L298.1425110920527,22.522583739627407L298.29132044204107,22.836560553817435L299.10047128259066,24.146499576115275L299.1562747888365,24.38465260341627L299.10047128259066,24.79599500563336L298.90515901073377,25.45627384202271L299.3795818196604,25.975699862088277L299.4446859102791,26.79824279510194L299.51909058527144,26.93893442577246L299.74230461025127,27.05797970669346L300.18873266021,27.122912923148306L300.486351360184,26.993046085673086L300.7560683070342,26.982223776171395L300.9978835007623,27.03633521130496L301.13739226637426,27.122912923148306L301.93724252255106,28.075220292161248L302.15124896900033,28.811034588323764L302.2814571502395,29.070721354154557L303.06270623766886,29.62253426000325L303.5899563658377,30.227763704962854L304.06047292932635,31.348005498263774L306.6989557104298,31.43811725947262L324.5104118395284,32.38105284386711L328.08453340867163,32.611121821649704L328.0972752092639,32.61036466831001L334.31741303285344,32.94534557559109L334.71994232456655,32.97260218648398L340.3591656481494,33.376034969689954L349.6136191238056,33.70039227387815L358.32780165316854,34.19118119975292L361.23981462071606,34.311333369285876L372.8660101176265,34.9709019786128L374.46533860660657,35.103697441456006L379.159436546086,35.332192522928835L380.1474376241513,35.38680135038112L380.5934006448924,35.42162108734601L380.7889919342788,35.4280010886805L383.7945687806314,35.614208902582504L395.6131933682427,36.29434745317485L395.62221493508696,36.29164428743479L397.9477330519994,36.44518299320043L401.14062366764574,36.63980627903675L402.10323415037146,36.71895204510474L414.54397482676995,37.473077330568685L414.7964856925282,37.49015939492028L420.5992132894062,37.867687513037254L430.99642956711614,38.47135820884114L435.73796048690383,38.82387971896833L436.56329434426516,38.86571450936799L437.5339963353954,38.922683063300155L437.5439479606757,38.92019677615099L441.2097732917482,39.156499512410846L442.19582124709723,39.22708662235573L445.7718029331154,39.47938029928309L448.50282652874193,39.67059625906904L448.70669533822274,39.68789091625331L460.0593606486891,40.46547238991434L461.266576500454,40.549669083595745L462.29912737767336,40.60900626933744L462.963096096144,40.65126624557479L465.2696410209337,40.858888866381676L488.7620800974528,42.42603112187817L488.90344897993873,42.43229878739385L505.491692252147,43.59423751550821L505.51810591176945,43.59845151032869L506.3874315332223,43.65388159202212L517.5512949808935,44.38362961114535L517.9010899592049,44.42068830307835L519.0466429365706,44.49502137723766L519.8003622942506,44.55692918888599L520.6208598477397,44.60835669129028L521.6749880807056,44.68355275278145L527.7533849984329,45.10673660949624L535.6309799633418,45.67585250192451L543.7690842965685,46.27496805574765L546.4888541851024,46.48010270536224L547.2569894485641,46.55528533104325L550.5123799912053,46.800705319811186L550.5546046442641,46.977097386214155L550.164538135612,47.25307534193871L549.7510341543366,47.38193457543275L549.357712441154,47.616210212584974L548.9241191976307,48.131511778122785L548.5812066517556,49.36106953872695L548.5610243836636,50.19235680276688L548.6417534560305,50.63734593942445L549.032377999747,51.31845266201526L549.1582149063288,51.95924431262074L549.0672551911493,52.3353875185544L549.3875673169941,53.09734928507214L549.5649294610103,53.361939390189946L550.1705835154553,53.755195836442454L550.6971826027193,54.341976583764335L551.2930710435712,55.08393310485417L551.760797431748,55.80846123725769L551.8052542250571,56.96600519495223L551.4633647434612,57.56706619477791L551.1756046629271,58.46967222435569L551.1929037498621,58.85540071337118L551.3307384102864,59.008717113468265L551.4439265221208,59.40435156926287L551.5227954776128,60.19546794425423L551.2892578039782,60.9965569254432L550.9745260287573,61.45640578654229L550.9353705685426,62.343901484289745L551.5064264491148,64.852387099932L552.5491149633017,67.28383988389214L552.8367820379935,67.59011720596845L553.39946739263,67.83008751541229L553.7509364761281,68.37846276636719L554.54241620637,69.32228699359212L554.6776467031696,69.42360618019666L555.1298411154403,69.51996629050973L555.449316188694,69.53979868715942L555.7886015066633,69.31754436951496L557.1675991518177,68.94243916240566L559.669177330934,68.51751938232792L560.7434878319928,68.41144845519284L560.9605634712852,68.46491523480518L561.0613818059019,68.60149144266643L561.025853573592,68.73299961535986L561.6872181284389,69.22398489470925L562.9503304922919,69.43686383151407L564.1196929656544,69.3961207524103L564.9101496316134,69.27281269655032L565.8369528644989,69.05615781165307L566.037101440229,68.95623637196604L566.7040463457006,68.21320937912742L567.0687222590122,67.38032736433479L567.1574498339396,66.58220378844135L566.6651699030162,65.33643661487031L566.5883470760855,64.64362107435818L566.6651699030162,63.92110339332885L566.7761258746004,63.455862033493304L567.3309987383627,62.58474636033043L567.2883090560845,61.97092079787899L567.0330080150134,61.27302957463826L567.1265718938184,60.847800199206176L567.6975347685475,60.15814127638396L567.8697815911564,59.88379699028337L568.1260126906645,58.766171912862774L568.286261759431,57.73745048265664L568.8401115589113,56.896616585831L568.9142372163742,56.49754225144807L568.8849403755958,55.541450428429926L568.7989099701354,55.06148305109673L569.0156135860534,54.69299309842745L569.1199661427308,52.80284866049851L569.021751971738,52.24610331087979L568.9134931696235,52.11741179830278L568.7388281950771,51.63480456860634L568.785982157855,50.84055964440449L569.2644972239041,48.79884960207073L569.9842694486197,47.35115108029913L569.7411521730801,45.89039727840418L569.3674546929269,44.08024040224518L569.0327266613003,43.223291273272025L568.9587870155265,43.13900803404249L567.9879920185531,42.74254353899232L567.9510686985859,42.68062499711186L568.0251943560488,41.96988628355348L567.8430889140036,41.04845844652573L567.3382531941734,40.20823053932918L566.9958056775167,39.811763062280534L566.7789160499124,39.39312119224314L566.8578780112493,38.96203118117046L566.8110960718459,38.72669696287312L566.5622124339943,38.062608634941625L566.2047909764951,37.81233487344116L565.8892221486803,37.40355952751361L565.8031917432199,35.1633899659123L566.6049021162717,33.42113627172648L567.1058315906639,31.884229329997197L567.0000839463291,30.58013085172024L566.8521116489364,30.08917207532886L566.6794928029531,29.883390942502047L566.4204715281321,29.38991081070435L566.6647978796418,28.89142997409317L566.7710105531942,28.534352863587173L566.807468843941,27.43285523554823L566.8695037417165,27.26673855715262L567.1488002904716,27.078866602122616L567.4574866858502,27.113930518983125L567.8522964925323,27.080706378469586L568.8272767524759,26.617288920673218L569.3162084730257,25.96509296336899L569.4150736849233,25.766698673955034L568.8306249628495,24.389632108587193L568.2582670004649,23.59807739302596L568.2756590932449,23.216026788671115L568.3669908317988,23.074635280498114L568.9078198131565,22.6777327766049L569.7621714937659,22.53914895991602L570.0311443938654,22.668313466254858L570.9612958371245,23.282283098070366L571.3442008958091,23.765335146904363L571.5534640442265,23.933672762490914L572.2353828905407,24.289716799416055L572.4411118168964,24.327821125744777L572.9252072335721,24.10352319974254L573.978219396412,22.150563090166543L574.0289075812516,21.726447660139456L573.9868689398809,20.860405923163853L573.959153198447,20.29784081874368L574.0116084943156,19.825132662630494L574.236310612795,19.48214860050939L575.1637648865863,18.797121315718414L575.7793705663116,18.803511502056153L576.2245895403021,18.986442459263344L576.4977477033708,19.486155741998118L576.571129314083,19.562724338191856L577.520439961153,19.872241999308244L578.7780649802262,20.05385461778178L579.2102631360931,19.931913519482805L579.4459399441339,19.718459008250193L579.5768921721219,19.52016223195369L579.8519104520665,19.42864769865446L580.1923118401592,19.489729677700325L580.4542162961361,19.68791873519922L580.605164780528,20.047790085393444L581.4009227795814,21.21958701934409L581.9443559245638,21.826820679964385L582.7138862756801,22.55896222799356L584.2003056703579,22.376527159676698L584.7899627196784,22.79780116981965L585.1831914270188,23.168932586901064L585.3397202620354,23.248613686346744L586.5823713402642,22.97265032066207L588.3015843618277,22.855615393597873L588.4761563305301,22.891451389838494L589.7673564591933,23.459938866257744L590.5503726576544,24.633624945503925L590.7082035744843,25.02904574142576L591.0320499223917,25.232000216230063L591.4180241739195,25.202991498837946L591.6421682573364,25.072559513849228L591.8414797804753,24.753670787202736L592.0531610808303,24.594222762578738L592.5014492476639,24.60872797912316L592.8766348213176,24.87317402000781L593.2732117390324,25.204182156737716L593.6257968926557,25.338076181575616L593.9709415787802,25.405942584628065L594.0881289418949,25.466989497681425L594.2068974043523,25.559208624123585L594.2861383832205,25.685954471762216L594.3554277368085,25.858806912626278L594.3874217470557,26.114129723654514L594.4207178391152,26.191082510432807L595.3981162509954,27.226480566167993L595.872446054077,27.5186721306236L596.5420881290156,27.767569595428995L598.881092093272,27.358508880076897L599.0636625645366,27.50070799668447L599.1563893907469,27.837259820575582L599.233398229364,27.96159727938857L599.4254552966913,28.11385183439461L600.9229423867728,28.38426862178494L601.1740581648746,28.243596498487477L601.2484628398679,28.124564757725693L601.3460259699532,27.76659566040962L601.433358457225,27.656540417135602L601.6880084573913,27.554924957241383L601.9135476284637,27.563365895789957L602.4373565404157,27.715734482956577L602.8482563580656,28.005531657845495L602.8854586955622,28.243596498487477L602.8447221360038,28.73994420858253L602.8810874209075,29.10393915307486L603.0047851930831,29.383202522634292L603.121228509448,29.49323954149986L603.4049893387028,29.61171467974509L604.6020675534992,29.394022339969524L604.9421899240624,29.090630405951742L605.361739285182,29.02462742531543L605.6564748039991,29.222526914034006L605.7594322730192,29.401379809347873L605.871876338103,29.908383504890026L606.0532377334002,30.211643461726453L606.8129094650803,30.3567247540077L606.982924147439,30.22484258890836L607.1643785485794,29.85558529405762L607.3230465180022,29.644606168927112L607.5838349038531,29.552206787672276L608.2867730708522,29.842385699588704L608.9218169719188,30.028909566693983L610.1402865307773,30.180268420238917L610.3541999713825,30.25600111797212L610.8378303588388,30.667111883387406L611.2575657316438,30.909335088758326L612.1076391434426,30.76036686050884L612.4219988952882,30.868766609909926L612.6316340670819,31.044778574276734L612.8411762330306,31.085454549289352L613.0275599438892,31.126130365717927L613.1905061821244,31.153175368660868L613.3419196957357,31.139652875952834L613.4932402035038,31.044778574276734L613.6912496448294,30.82808979006404L613.7863016171341,30.656293386600737L613.8309444221286,30.448900634161873L613.9473877384935,30.259246792729755L614.1570229102872,30.12379310773713L614.3665650762359,30.06958950299031L615.0046781701476,30.15863040560589L615.4977021478207,30.191087410721593L616.3254541571205,30.115354241678688L617.9697044686272,29.773033457463498L618.1747823540782,29.77508914677901L618.5045810759857,30.012031674214086L619.2516040129167,31.000532453302185L619.5452234616087,31.1565289441387L620.3015469829143,31.401769751956635L620.7188642037818,31.467865869318757L621.7661100043124,31.584804128248834L622.1933788504612,31.545752737015846L623.2535524632704,32.27018093322022L623.7469484643198,32.81068389403799L623.428589461193,35.906598214327005L622.2887098402971,43.30606107596168L622.3384679666979,48.24826386309769L623.1290176385,51.7707357855993L621.9178025354558,53.81003251256243L622.566890318928,54.4577960605493L623.878086703995,54.55915054705656L625.2918685347104,56.14572266701589L625.6453837467725,62.61893661022623L626.5369377648776,64.92830099215234L626.5427041271896,65.3228503202431L627.2468513701588,65.27378855483857L626.5699548394059,67.20492432687797L626.6313386962756,71.45937660427444L627.0778597520793,75.40273272868626L627.6452884047467,78.5909055029656L630.4274652144295,90.56790802072692L634.7627466087552,111.3219729260195L636.0378567264515,115.70418721741089L636.6250026179914,117.14578362445309L637.7796701680427,118.72515682519042L638.3468198031787,120.5868437552308L638.88151039885,123.25683442161471L639.0021389781814,127.2828699676038L639.6238830435941,131.13818574944617L641.0921662987403,136.01027888668887L642.1997728918586,138.63691724399723L643.8227248651492,143.73392423370842L648.2855172712434,155.69344730268813L651.9764541801251,164.33164331908984L659.1581794221593,182.11633932765108L666.6453358550389,199.15717470244863L668.6728632486047,203.10718632169892L672.1234730572605,208.06666646120948L673.3883525321444,211.05612847964267L674.820642525764,213.77901259485543L683.3077977905541,228.158378647473L690.496777488399,240.74503332885752L696.3037833540893,249.1035646387163L699.1402755765193,253.69432954599642L702.2007258706781,257.59913182610853L703.039266557852,258.92729568381856L703.7374614268192,261.34330254217684L704.3315827566403,264.6908299458464L706.6435220203684,270.2036914935866L707.668539424244,272.2343051695402L707.5161958521949,273.0540425663412L704.1544996301564,274.52707045635L703.1073468354716,275.58629099245445L701.8353059106175,277.37431130643927L701.0576840510939,279.5073375870402L700.3880419761554,282.32963760885696L700.0625215230602,285.2357619351619L699.9509145105703,287.89815938354513L700.3099170674132,293.55409638369974L701.6342272764487,301.9709546226545L703.8238638556559,310.6574517408135L705.5683744667158,315.5941585292153L709.1773732272613,323.8445735451169L714.9342489431756,335.2670460672007L714.9150897393638,335.5009058649366L720.8194727234522,348.08481779900967L723.7936135946193,358.3176649714869L723.9018723967338,359.8149273764129L724.476927528588,361.08873810561454L725.7245079165368,363.0498262914234L726.3064454808282,366.0260323179441L727.5101271105304,370.69954615723327L728.4947799782221,373.24891901065894L729.2387337223108,373.24891901065894L731.8090432199524,381.6102580716597L732.9130225851641,385.87936629224487L734.7849512021503,389.9093345738984L735.4159958519358,391.8536027210239L738.5468515698067,399.512973512969L741.487696348915,405.44653958765457L742.2405786540021,407.9041334062799L741.6658955455232,408.5295839868736L742.5712144285035,410.5958520449153L743.6142749660648,413.94408595474306L745.6448715524739,418.0308923778093L747.7712641579365,423.6500114874152L752.2026205888451,440.2743085264192L753.5885006664384,446.8298790076933L753.5180022368813,449.41456641875993L753.1234714477305,449.44477628187406L753.0211650196134,449.95520713402266L753.4489919008265,455.2767524628466L753.4489919008265,456.77599313385645L753.1791819481305,459.35747050243845L753.216384285628,465.98550441268617L752.8908638325329,470.4577066237789L751.821296629505,476.67433564793464L750.8725440174976,483.41739855493825L749.9424855800817,494.65107055832186L749.7843756457214,494.76512148665324L749.5053581144966,496.4980642554806L749.077438227443,502.13078944758263L748.5473049181155,503.69664989051444L748.1938827118975,505.5008860399885L747.0777195811561,514.2172485544415L746.7149967905634,519.551736404102L746.315071662475,520.4940239880862L745.5513076736688,530.9275106954401L745.5395889373585,538.2297429648006L745.263733604821,541.602329942029L745.3740385354968,545.9546089628079L745.1534286741435,548.3446076074865L744.6569634802518,551.1017740313087L744.6018110149116,553.0620641844043L743.719278563648,555.328210501028L743.1125084390787,556.3080052922219L742.2851284531544,560.2265057332534L742.1748235224759,562.2465377478597L742.3402809184936,562.9198079988128L742.0920483215468,564.0826706815742L741.540430662315,564.1438600741681L740.0511280864821,562.0629403367639L740.6578982110514,559.4306631337267L741.2095158702832,558.2674634484015L741.0439654684242,557.5327162008907L740.437195343854,556.6141428532601L739.3340530312362,555.8180660503613L738.1205127820949,555.9406301361978L735.1970600957684,557.1652744627322L734.1489772426457,558.0224837602032L733.7628169794307,558.7572016998433L733.2111993201988,561.7568353528764L731.7770492097052,564.8170264907835L731.6667442790267,565.490156087682L730.7290593624257,567.0198310802957L729.6809765093021,567.6928402669855L728.9087489887161,568.5493161109302L728.4674362601627,569.4668953815249L728.0813690027908,571.5465645518257L728.0813690027908,573.3812089213534L728.4122837948225,574.1761505441077L727.3091414822056,577.1109081676896L726.3162110944204,577.4777554029902L725.9300508312062,577.7833672232964L724.9372134492651,581.2062189883368L724.9372134492651,583.3450078477067L725.1578233106202,584.6892121885326L725.9852963023886,587.0106295698074L726.7023713576364,587.6214783451533L726.1507536984045,589.0873515292856L726.2059061637437,591.6521617102003L726.7023713576364,592.3238322665325L727.6400562742374,592.5069807677864L727.971064072115,593.0565130238278L727.6400562742374,594.216545470495L725.3233737124801,597.7569144028885L723.7236732001247,598.6723330361474L722.8686704786096,598.9164058695555L721.7103757006525,599.95386784313L720.8829027088832,601.6013030415374L721.191961127638,602.9256366034033L719.9133167878781,604.6225613785382L719.8174277629814,606.566675075424L718.1231403075417,607.0261262057325L717.5478061581571,608.3691115191127L716.269068812554,608.3337418859487L715.3420795679822,607.6269451493004L713.4591762614345,608.2955960356758L712.9949840953213,608.6767408517785L712.8072983026495,608.8923441972283L711.7568903034326,609.3444102895219L711.0533941013737,609.2529085791157L710.639518096722,609.4358085205286L710.639518096722,610.122044991273L711.3170656683797,610.8623157063871L711.115242987461,611.3083485266352L710.4357422930862,612.0771241738876L710.1285439912072,612.0065085651531L709.2478716568185,611.33127165521L708.8000485192024,610.3032873791781L708.1089220943595,609.8849763945786L707.8456225507271,609.9577628945194L707.1930005451923,610.3559222260433L706.780705639887,610.8652968496986L706.7289013849231,611.208329182773L706.9875506363678,612.1802201914152L706.6254788866818,612.2945190706564L704.9701608797695,611.0940203821647L704.7115116283248,611.208329182773L704.7115116283248,612.2945190706564L704.1425018763139,612.8662033753276L703.5734921243038,613.0377446881134L702.1182296872785,611.9535722944024L699.808150540427,613.882158258215L698.9325005216015,614.3521315566582L698.4524973620519,613.7236808891994L700.2112378672027,612.9804959912321L700.2112378672027,612.5232164824224L699.6939393643133,612.1802201914152L696.4351076054536,613.1520357380655L695.5557373528763,613.6092922813327L695.1936656031921,614.1237758608981L695.6591598511177,614.295299947692L697.5731271094746,613.8951076822295L697.5405750641658,614.4034133839473L696.9560333362497,614.4248920828936L696.4401299210149,614.6911632302476L696.1212128828247,615.2379724926423L696.176458354008,616.3527893276237L695.8660978534417,617.0385440681007L696.0212316008019,617.4385332222491L696.0212316008019,617.7242613045078L694.2624910956511,618.4099410502558L693.6417700945194,618.4671649502639L693.4866363471592,617.9528596313548L694.9867276008663,616.6385421532441L695.5040261037566,615.9527655301399L695.4059049386096,615.288531361994L693.2753270701787,615.4390763807537L693.4219972857582,614.8953588439599L693.1115437793496,614.7667992356851L691.6373081502015,615.8383972735501L691.8628473212757,616.3806353586792L691.2831418972355,617.5011042220085L691.0554635917551,618.2786435749604L690.5510929011443,617.7242613045078L690.2018559578955,617.0385440681007L689.7363617099691,616.6956713867066L689.2319910193582,616.9528524638381L689.6199183936051,617.2957181123593L689.3658264285032,617.6636435211494L687.4134477566813,617.9158732183091L686.1937691218545,617.1563947543095L686.1332223175777,616.5536698257251L685.4057306078321,616.2187987043731L685.0420777588033,616.3527893276237L685.2845439934381,617.3573651218985L684.9207981385644,618.4957254346605L684.1933994346609,618.6965716090303L683.8902933899071,618.227891287434L684.3752258591758,617.223385234734L683.7690137696691,616.0179128395694L682.9204284513717,615.9509159170425L682.5566825964979,616.4197841021519L682.5566825964979,617.6921030932149L682.2535765517441,618.0939206998855L681.8899237027144,618.0939206998855L681.6473644622374,616.6876568696539L682.4524230456645,614.8534306754327L682.2535765517441,614.1425829904624L681.4048982276026,613.8745530346937L681.2230718030869,614.2764930474359L681.5261778478407,614.8123244916387L680.6885672191047,615.6232218216519L679.6332299101696,616.0836763416091L679.3073374336991,615.301068285838L678.5453405559247,614.6128548195584L677.7856688242446,614.3796737264724L676.6908040317194,614.4294139095573L675.082453975896,614.6611553406929L672.7939521847929,615.9237882269153L672.6497001211501,616.769548552611L672.9013739343145,617.4015452923113L672.7464261986415,618.2217270279993L671.3190655147391,618.0540580095776L668.7807500273448,618.758622666965L667.4590439819358,618.6290753250128L666.1255261943679,618.80844821153L663.5761430115681,619.8086156454847L662.6068361080952,619.6872972006199L661.3613948545526,619.2774150332948L658.8022460581597,619.3924710282959L656.0721525209719,620.3658847159677L654.7082218225014,619.5176959525461L653.0881530303677,617.6257315721218L652.2815133475979,616.9237747240304L651.0769946653008,616.5134939836289L650.3834500885196,615.7353313647982L650.2668207604684,613.7692099365831L649.8521077032246,612.727139100095L649.038864605549,611.1895176443941L647.498408815658,609.73199999694L647.6041564599918,607.3074648410898L647.84597165372,606.5546435631727L648.4260491011355,602.7847129659617L648.6843263292058,601.8833812125358L649.3347161944912,601.1686061799355L649.6495409755562,599.880096994289L649.3704304384883,599.1908277496209L649.7250617206737,598.3648685449439L650.46948049398,597.5082908875961L651.0448146433655,597.314925044288L652.2076667076672,597.7518720050884L652.5054714193275,597.0860517455385L652.5931759299747,596.0843728197324L651.54899932229,593.4536682716334L650.3489449204926,593.3664763843249L649.5013826664754,592.7594103662018L649.487617801602,591.529025033456L649.8142543248223,591.0048568450452L649.8495035396008,590.6671370836334L647.8138846376305,584.871855312042L646.8136997940319,583.6790121499221L645.6494526420765,582.7190088406169L644.1355965234952,580.6384371759673L643.954421139887,579.4068484666068L644.6030438941407,577.6266970146653L644.4901347998366,577.1372959692039L644.031429978505,576.1370970412681L642.5213870995176,575.1207344785535L641.8565813284531,573.5849498109678L641.8244013065178,572.2216983786966L641.1298336654563,570.9373965180957L641.1151387421451,569.4328587013833L639.8805791723207,566.9002659754392L638.4880026739784,564.9662242397985L637.702103294363,564.1352956412443L636.4973055945338,561.8107087314179L632.9066289852044,558.7423364079723L632.3391073266948,558.9058536288944L631.3122298059434,558.3046280815438L631.3220884253797,556.7495017478991L631.5069840427377,555.600091007133L631.2481487796058,554.943251265845L630.4716429902091,554.2863763436062L630.0649284355268,553.6704660504115L629.8430164923593,553.0135229281927L631.4330443969639,552.0279905676025L631.8397589516453,551.5762014878387L631.7288959859052,550.7549025278995L631.0263298422815,548.4547450140667L630.6934619275307,547.9207863129741L629.806093172393,547.6742564949564L627.5874387699387,546.0721048971022L626.8109329805411,544.8394264164504L624.6662182238615,543.4834191495734L624.0375917260126,543.1957650259455L623.5938608455208,543.4423851811134L622.4475638214071,543.6067269457021L620.8575359168017,543.0725564443937L619.6372992469132,541.7573927652688L619.4154803095898,541.0586641236928L618.158227313892,541.0586641236928L616.9010673240373,541.5108419524195L616.1614848546042,541.5108419524195L615.7916936198872,541.264182780898L615.9026495914713,540.1955099995839L615.5328583567552,539.8666290090537L614.4235776584501,539.7022368850226L613.1663246627522,539.8255828811853L609.8013732361824,540.976476368031L609.1358234183681,541.0176220054564L606.3255588438751,540.4832348248724L605.5120367286672,540.1543615900382L603.5523105951897,540.0721677434499L602.6278325083986,540.5243821253607L601.7602739979775,541.3487462939056L600.9407065029272,544.3412766005918L600.4148514624121,545.5145833724382L599.8091044021248,545.3178171567292L599.36825670279,544.7488928146345L597.1703426034892,540.1119723798129L596.750421218997,539.6497136513904L595.87625929367,539.1153699483671L595.4238788697112,536.6026687132617L594.8502188255125,535.516418337942L594.1563022253567,534.7268273772333L593.7707930030483,533.6076180768696L593.9465740477199,530.1096841424073L593.6829954865561,529.6800548357787L593.0510207783336,529.4783763048358L592.588223699875,528.8889467022868L588.9401624849561,520.3840476120877L588.2733105853304,513.7526562035096L587.7360158260362,511.5847715029713L587.5314029698038,508.06088263950323L587.1719353837434,504.99531238848476L586.0124315298181,499.00239960797126L584.9509558351947,495.5583629558714L582.6790090842778,490.2715879164757L579.6166056673992,486.92712458744654L579.5422009924068,486.37673694343766L578.7051483987325,485.2344460977015L577.5982858523648,484.24774477532947L576.2217993649892,483.37522531806735L574.529093008894,482.6169126879113L573.8221555906148,482.0352647143941L573.5524386437646,481.52620862835556L573.6361439031316,481.29764578578624L573.3295036363152,480.108217336478L572.2875591688799,479.6456298639823L570.7715639158923,479.2404874480462L569.660237089025,479.3240316608244L569.2213425124091,478.61981047225163L569.6491693936196,477.1260216745968L568.205346675376,476.34922753572437L566.4407468020681,475.63204597819094L564.248320047549,476.28946405172655L563.8204931663386,478.4405532099645L561.681544771971,479.33670871669756L560.6655489349369,479.33670871669756L560.077379979115,473.4206727112278L559.4356396572994,471.3284669092386L559.1148625022361,469.4152893833452L557.6710397839915,463.3746687073062L556.5480872266562,461.6396205579572L553.6070564358606,458.7673996437643L553.7674915163152,457.2112579927598L554.3556604721352,456.67250997271276L556.3876521462025,456.43305855214476L557.5640830636876,456.5527848668112L558.7939923413269,456.91195655851607L559.4356396572994,457.80973410725437L560.6120705747862,460.26338920410853L561.2003325364512,460.74213265918206L561.8419798524237,460.44292026172616L562.4302418140887,458.40828412523024L562.5905838886993,456.612647570852L563.071889130063,455.1161975354189L564.3017984076996,452.4219445814447L564.7830106432184,449.1281939190985L564.7830106432184,447.5707853406061L565.3712726048834,446.1929187496835L565.1038808041276,444.1558325236638L565.050402443976,442.41796652304674L565.2108375244306,440.32028388270464L564.9969240838236,438.4619443736665L564.3017984076996,437.86248816014495L562.0558932930289,437.20304067780944L561.8419798524237,435.3442095241635L562.1093716531814,433.6051483243227L562.7510189691548,433.12530452925785L564.1948416873975,433.12530452925785L564.7295322830678,432.76540884144697L564.7830106432184,431.9857014069553L564.6225755627647,430.7859943893336L563.3927592909704,429.9461579422391L560.4516354943316,430.0061557027889L559.596074737753,430.36603149504526L558.900949061629,431.2658292836877L557.7245181441422,433.3052482453286L555.4251346693209,433.3652288725475L554.7300089931969,433.6051483243227L554.1952253916825,434.26479729371385L554.4091388322886,436.30359241558426L555.9599182708344,441.03949861122055L556.815479027413,447.51087690697887L556.4411305063531,448.169748799819L554.4091388322886,448.6489810679818L553.8744482366183,449.3077895602469L549.8638502427957,449.3676888922355L548.7943760456119,448.1098434008045L547.9922936491848,449.1281939190985L547.1367328926071,451.04464293088586L546.3245128592107,455.0522664984783L545.9583488524013,454.19364133701765L545.8766897215964,450.945171884448L545.4286805722932,448.04524941314594L543.606975110928,443.55301773420706L542.4304511875971,442.1142254015904L537.7882505089265,435.14959095790664L533.233847346748,427.1625511454863L531.5039386531544,423.4256533964199L529.0392837940035,419.25947597225195L527.681305469534,415.1543974528113L527.216276250826,414.0261077398932L526.884152382825,413.72518423369183L526.1281078790498,410.8389552581366L522.8450015949738,403.9079012955167L520.296641476456,399.0128980367617L519.7943169144082,398.3119192483955L518.5015356863996,397.49580117917094L517.5032109596777,396.38390509842066L517.5502719166116,394.38126123239454L516.9204363427943,393.2575531931748L514.9106730653839,390.49073325924655L512.4707577606687,387.7209495955776L510.70755297501637,384.8392618744647L507.70346422216426,381.2146112088926L506.1502666316801,379.8628553834874L506.226252406017,379.1174359288052L504.6621731318173,374.58037564380265L504.0390339787473,373.2383288115575L503.1088825354891,371.854284401762L501.3887394554895,370.021918641341L501.13474049623073,369.2092584715392L501.4426828448595,369.1540861249391L504.6342713786935,370.81606345253385L504.40175676933995,373.1020184506233L504.7551789755571,373.44803391535925L506.2804748129183,373.65773520885887L506.6524981878865,373.5738551486702L506.60599526601527,372.44141466017845L506.91291455036117,371.90661245858655L507.7499671440355,371.22507074100804L508.92193378102274,370.8894760853168L509.9728998153014,370.8579087104954L510.4105853159499,369.7645335064635L511.7090399004255,367.8378431583469L513.572318973942,365.81063132944473L513.4808012237008,364.5928527163542L513.600406738753,364.3361857091818L515.0167927330931,363.41671258884617L516.1197490340228,363.20934351067444L517.4238769749672,361.85956909556853L517.8833258430495,361.14258459643224L518.5463645030841,358.731841008434L520.5359455124026,355.13499272308854L522.6640122230529,351.70509780403836L524.4659074397014,350.29996781925684L525.6230861475333,350.2029943620296L526.0705372617749,349.8754008164133L526.1952580982315,349.1477902334018L526.1178772362382,348.59225338708893L525.6364789890322,347.81117784332037L526.0053401653104,347.4327578951552L527.9394896917602,346.7684697948771L530.0700675601911,345.52995977589853L530.3169980753255,345.137169387639L530.1308933819982,344.5070158736248L531.518075541404,342.4381443248294L531.5799244274913,341.44772875399576L532.283420629552,340.64008749548884L533.0256072626098,340.4504974998822L533.9067446262161,337.8373469622911L533.5272807837509,336.35298601484556L533.0481146767952,333.0946453779243L531.9971486425147,331.1164199271102L530.2857481118281,331.1269438716686L528.493060473711,330.4739146885786L528.2940279681025,330.3644589123883L527.5329611487659,330.37656224707916L527.4822729639263,329.13279838923245L527.612853168539,327.2471585832386ZM546.7049067601156,456.505831473567L546.7623843715464,456.01411104478166L547.5644667679735,456.1937064086924L547.9388152890333,457.4506937024562L547.617945128125,458.04915773794346L547.5644667679735,458.5878432429686L548.410354916803,460.82153976169957L550.186580520578,464.52269553668293L550.5590689247638,466.96352291049016L552.2167120777694,471.4480433026647L553.072272834348,474.79538363624306L553.9813119510763,477.4248151668962L555.0507861482611,478.7393138194875L556.6015655868077,479.99392290575315L558.2592087398116,480.0536678581502L559.3286829369972,480.41202740054723L562.2698067336341,482.3235470719392L563.339280930818,481.18866132852327L564.6760539229163,480.77048009791724L566.921959037586,482.1443453424936L569.0421202515181,482.357205532066L569.218273319565,482.41953576369815L569.1996721508167,482.6480771677211L564.6236916328899,485.41090126758854L563.5168290865222,485.7640115155705L562.7820829209641,485.7640115155705L561.3683940960909,485.46282989827796L558.7125192222093,484.2871105225663L556.6622053969277,482.29487497564423L554.411370972538,481.02741653440216L554.030047013196,480.62221705374213L553.6859253913535,480.1339853844279L553.1535599417775,478.78690699364324L551.7620995135603,471.81331575970717L551.3788224315022,470.75001216208284L549.8341813786419,468.26804659544314L548.2771705485648,463.4795501483036L547.3669223558663,461.6165181716051L546.0323815040201,459.63381217673486L545.5674452911553,458.6550861321375L545.9074746558745,457.0202264709983ZM713.3519405236002,622.9939096416447L714.6156109225167,623.4518345214819L715.128259133221,623.0189680841581L716.1803412376239,621.6477664860581L716.1874096817492,620.7903171148032L715.6383031802989,619.3739799573882L716.8117579107848,619.4927332494831L716.9407570160556,617.9559418275176L718.0697549532342,618.490485926206L719.0075328756793,618.0029965949047L719.724607930927,617.0889929281329L720.4968354515131,615.016929186409L720.3865305208355,613.7978839017896L720.0555227229588,612.8226239016858L720.4968354515131,612.2130092752277L722.0964429580245,611.3595400294798L723.1445258111471,611.2985830555185L723.9719057970715,610.9328349750322L725.1302935808726,608.7987828778914L725.4612083729044,606.4813230713426L725.2405985115502,605.6884470611749L724.63382838698,605.0174968290703L722.2619003540403,603.5534989235507L722.6480606172536,603.1265271824486L724.9372134492651,602.7604369085461L725.3785261778175,603.187524040095L725.9300508312062,603.1265271824486L727.1435910803448,602.3334380219017L729.2949092519302,600.2589267582844L729.5706715786237,599.1604739207537L730.8393642931023,597.2075897541213L732.6045222014736,595.4374016058291L732.8251320628278,593.4228886787691L733.1560468548596,592.3238322665325L733.5973595834139,591.5911083098094L735.4728224224627,590.797283835288L736.1347450123694,590.3087116456572L736.5760577409246,589.6980980923877L737.2931327961714,587.926839960589L737.955055386079,585.4223437423116L738.6169779759884,583.8949459807873L738.8375878373427,582.6117533671654L738.6721304413268,581.6340475324982L738.9478927680211,580.3506205844847L739.8305182251288,579.1892904348665L740.2717379478372,579.2504049439381L740.3268904131764,582.917238414037L739.3892054965736,584.3836678152256L737.5137426575257,590.1865913371057L735.8588896798328,591.7132148105748L734.369587104,595.3763667910262L734.1489772426457,596.9023531806806L733.2664447913821,597.3296411241081L732.7966722746442,598.0002848487097L732.3110887644689,599.2036895192032L731.566949008693,599.6117608507984L729.7025538650496,603.5045383188772L727.8982404964636,606.1039162546776L723.823189452929,612.9865600487196L723.5795141423268,613.6349861297081L723.9667904756661,615.2259493168558L723.1562445474592,616.741806135236L721.4343343564278,619.165028962529L719.3246828028387,621.4198517204777L716.6692729581737,622.7539006340348L716.4168550982586,623.4005896644148L715.2688839689572,624.7526034471484L713.53562706499,625.3839931634216L712.4326707640594,626.3780930493185L710.5715308249473,628.6110918063473L711.0143316470012,629.3502728078465L710.4878255655794,630.2003645746568L706.4686710341339,633.5639361776348L703.879760367744,636.8562375066581L703.3368852578242,637.3174543253017L701.7926162283411,637.5745220485423L701.0670776413126,637.8802063070889L699.6143263620697,638.8806037844397L697.3935328252091,641.4873376089495L695.3033194929621,642.9935770643183L695.3820024367678,643.5816067864334L695.3500084265206,643.7225863135013L695.2222183972199,643.7930242236334L694.9664523269312,643.5816067864334L694.8065752815392,643.4758967438661L694.6787852522384,643.4758967438661L692.2566340636777,644.7568666536854L690.8101141759653,646.1801968651207L690.2992330762927,646.5809025215999L685.6945137526491,649.3583292092039L685.1731229926345,649.3651956629301L687.1724696155461,647.8797004238809L687.6242920044415,647.1858835802141L688.3196966980986,646.5008444098758L688.6786062490964,646.3719918159427L689.5433745842056,646.4454902340926L691.1196376239368,644.7817793829186L692.1675344653731,644.2808498249315L695.0024455884586,642.8510513622914L695.103077911388,642.3100543046871L695.9804020354004,641.9879675519501L696.860144311353,641.3532039764782L698.4821662262038,639.6174397869518L698.5723818946335,639.1711791248399L698.4537064380193,638.8151644345385L698.687523129186,638.2810723064676L700.973978791727,636.8216660834569L702.456770958498,636.1808978832601L702.7307661741606,636.3785895236065L703.4164052542246,636.4397327566057L704.5350795427466,635.4866443351029L705.8999402996533,632.5714295259154L705.979553301896,631.8098596157179L705.7268564244514,631.0470120973746L707.7239709071137,630.8237834867441L709.1527266786707,629.6565670108835L709.8791023182912,628.3099049356551L710.4145369607113,627.6876961513199L711.0347929326235,627.419441892489L711.7512169469655,626.7527339444928L713.6620220066352,624.4630304746811L713.667602357259,623.7206868808075L713.0550658703769,623.1936569035452ZM683.1922845326271,650.5887998778617L682.9845094777083,651.2475911805845L682.4677690098806,651.8469191333252L680.0227383837591,651.7763210204616L677.8046420163673,652.7661957428768L677.4189467823726,652.8038998276315L677.3698396968766,652.6910946101607L677.8091993027119,652.3030820939684L679.295804709076,651.6071503604062L680.7473469123506,650.2060519434767L682.7721771364468,648.5698921290227L683.9083365235929,648.9181510244571ZM673.6799258522742,653.9228815339484L674.2349847277237,653.9348678948168L674.2863239534681,654.052374611666L673.4837765278226,654.5054875509991L672.1607684006003,654.7356746204973ZM671.8743104018768,655.0009941090552L672.215269825032,656.157169271607L671.6801142001441,656.6505629621543L669.215366335151,656.3960327962836L662.0176440879914,661.2761843476101L661.2865251503399,661.5812981153922L660.838050971819,661.200723876229L660.4817455844441,660.514187118968L660.310335814429,660.5123440174762L657.4956069594355,661.7295521010519L656.8929290919905,662.1115438928664L656.4445479193118,662.8748788843454L656.1784582003675,663.6640676185698L656.2042208190842,664.091451951143L653.4510618326467,664.4794123953443L651.9580390230649,662.8127367708466L651.8392705606057,662.4628106153787L653.5148638414539,662.005271260497L653.7071999263108,662.1567965174495L654.279371877009,662.0837984259497L657.285227740892,660.8620165543543L658.7962006783173,659.463780825306L659.6121409454609,658.9124313273473L660.0863777426994,658.9265635405482L660.2264445433748,659.2179089335286L661.4375666405758,659.9235618365583L661.9260333319071,659.7612579631082L664.0179207693409,658.807360902561L664.2981473765358,657.7719714489676L664.6079498420368,657.2358093867629L664.7407621869006,657.0407985181423L664.9620230891624,657.0407985181423L665.1391062156463,657.3820655768309L665.4732762122094,657.5676487426585L667.0422847961299,656.7483790354067L667.6619827329787,656.2121738341439L669.1668172847176,655.6759460267454L669.8638960835606,655.6696975847381L671.8299466144117,654.8811400451132ZM640.2667394355349,666.038812489322L640.6112330807537,665.7854933062545L640.8775088113853,665.9732058620743L640.7353028763055,666.4640703605642L637.2925055585247,668.0454345810072L637.6148638129325,667.3599824683174L639.3174287884649,665.8862074744002ZM609.2842607449811,667.5355959799108L609.506451705679,666.4704158581194L611.1449356548737,664.0371979671354L611.6385176676104,664.0806011728009L613.0795502105411,665.2538649041453L613.7113389070764,665.4059657034982L615.2313334113451,664.5586408612053L615.4682192953542,663.276696607692L615.8433118631638,662.9290354380869L617.8371711412965,662.2770940029914L619.1690148236739,662.1604822445051L619.3974371759032,662.6633692327518L619.8541888745194,662.8728313730776L620.8058246676828,662.5586368721097L621.2625763662963,662.2024585052122L621.4719325205579,661.8252814862612L621.3957607345346,659.6042769177643L621.0341540140671,659.2061323597618L621.5290381086152,658.4516921028298L622.4996470939022,659.6881437443735L622.7090032481638,660.5472605059276L622.9754649904844,660.8615045957208L623.3180055129833,660.9662509032814L624.155430130033,660.0443923992884L624.2887075041153,659.4576366459451L623.7747572115986,658.6193379781098L623.4512828870656,658.4726863620813L623.4131504911311,658.0116239768081L623.9271007836478,657.8858581702043L626.0396355183921,658.2840440196587L626.9531389156209,658.8708538555211L627.2005344599738,659.3737683012582L627.2767062459989,660.107162400227L627.6383129664655,660.6310187303275L629.9792700534399,662.4119282183374L631.3305519571613,662.5376493454296L633.8044143948418,663.1848682976647L634.22247566246,664.1547138524156L634.3019026530146,665.2865165744424L634.6989445999479,666.8923843679281L635.781160597724,667.7359725502392L635.749445605009,667.9864900102739L635.3082258822988,668.2587993729398L632.544278217988,669.5007470994515L626.7532693574212,671.3900935555589L626.1161793277925,671.13411809031L625.9884823043358,669.4223678746484L624.9776947945511,668.719082122725L623.2916848592049,668.8437178625145L621.7749455594685,669.434851282057L619.7485342360269,669.249338406406L618.7682526429917,668.9284449127258L618.6865005063428,668.6984117100969L619.0506183845919,668.4401310617322L619.1905921794223,668.1020252063868L618.8098262551439,667.4306989221827L617.1286526236727,666.8961710704702L616.7183108410845,667.3160787131219L616.477146688263,667.9575292968843L616.1837132512592,669.0216644843968L616.1569275682605,670.3205281542805L615.958174080185,670.9733890707189L615.2671406611853,671.4676422657644L612.6764628837655,672.0210072122509L607.417168431869,674.9312781847284L601.724187730606,676.2916191180448L600.7490214589752,677.1899111006101L599.7646476088157,677.7646049622817L599.1789898107754,677.647316332338L595.371702591372,678.0014286028972L592.2576809312177,678.4431604932324L590.3823110980129,679.0078802853045L588.1338018197175,679.2000000000003L587.8959858772705,679.0193318869947L587.7512687844082,677.269572161495L588.0358666662587,676.6386102669976L589.0319592527303,676.5119028285849L588.9666691504235,674.6736347567476L589.2067172331217,673.9870035140607L589.542933358247,673.9342235421482L589.9497409187716,674.9934636743337L591.5308402623768,675.0813206195412L593.9245316627539,674.5472147281516L594.745773262991,674.5703304576823L595.1799245415768,675.1661086483155L595.5612485009169,675.389889073449L596.9125304046383,674.7766313817629L596.9556851161342,674.312066064012L597.8965322314225,673.785395123954L598.4559623815285,673.785395123954L598.9315942664216,674.3699586543062L599.6029104465497,674.3083838409357L600.3862056625403,673.785395123954L601.2813869085521,672.739353587011L602.5123192504716,671.877783232509L604.2466922245649,671.3546951753515L606.3168162945631,669.1696274137926L606.3447180476851,668.3694201957505L607.9113084796682,667.8768892260373L608.834484484646,667.815385479561ZM691.4157682304103,643.1739364256246L691.0957351220959,643.1033925357415L690.9679450927943,642.9623035764976L691.0637411118478,642.39844471466L691.4157682304103,641.9050091458294L691.543465253867,641.869836258144L691.6711622773255,641.9403870246006L692.0230963900422,642.8919635805537L691.7989523066244,643.1033925357415ZM635.2952050641761,661.875347156451L635.1184939610657,661.6804073245162L634.6756931390119,660.754709575438L634.4103474668191,660.5110128884567L634.011538408854,660.4135329083647L633.5247458227113,660.3648950343127L632.9493186674827,660.55985499294L632.5512536562692,660.0237079266471L631.9758265010396,659.633871013657L631.6656520121624,659.3901528808751L631.7103878230018,659.1951750161256L632.1084528342144,659.0490420645228L632.2411721732342,658.7566687208541L632.7726075643732,658.2204457268463L632.9940544783221,657.9769053644795L633.0820380065015,657.3920002850705L633.0351630612558,656.9305914742786L633.3062750957624,656.4293217392606L633.9540607974222,657.445360801763L635.0737581502271,657.5381522614443L635.7380058862291,658.4154385199686L635.7380058862291,658.7078197002388L635.4725672081904,660.2674139360761L635.5165589722801,661.0957747165089L635.8394752617505,661.5986013283054ZM555.7380063276669,678.8917277475557L555.2398670285884,678.6484788402363L555.0191641613892,678.34428340347L555.0191641613892,677.8576579507189L555.184528551561,677.1886839687145L555.5718978907453,676.8235047494022L555.8486832817189,676.8235047494022L556.0146987127982,677.1278385315686L555.8486832817189,677.4318583111485L555.7380063276669,677.8576579507189L555.9040217587462,678.0401830049941L556.7896234028522,678.1010241123754L558.3385427245248,678.1619671843146L559.1680618448545,677.9793416089315L559.8875550520388,677.2493245960236L560.2196789200398,676.3368215624268L560.1643404430142,675.6069155322475L559.7215396209613,675.3026479010105L559.1127233678299,675.1201861306281L558.3939742073953,674.9376194820325L557.5083725632876,674.9984753207095L557.1209102182611,675.1201861306281L556.8995563101553,674.8159069371959L556.8995563101553,674.3291474738812L557.3423571322091,673.7206465503868L557.9511733853406,673.5991270164072L558.6706665925249,673.5991270164072L559.3895087588025,673.8423695063034L560.2196789200398,674.0859142320733L560.7170741723703,674.4508646450108L560.9938595633448,675.0593308702396L561.2152134714506,676.0936264421061L561.1045365173968,677.0669928055981L560.6063972183174,677.9793416089315L559.7768780979868,678.6484788402363L558.3385427245248,678.7700527463621ZM492.31583338681594,303.54358337753L491.676511216936,303.4165658150114L491.4047481415246,302.54628827766237L491.21250506251,298.57480161442845L491.9958932843447,296.4708326790933L492.5556954578242,295.90827926268685L492.47552442051983,298.42968016271243L491.9958932843447,300.00765693905214L492.3314583685633,303.14480250952283ZM493.0751330951216,309.4886016612236L492.113638682521,309.0131616404283L492.16404784982933,307.5181737418511L492.9466920249133,307.0058441938245L493.09075807686986,307.1327159425723L492.56992535191785,307.66191291632504L492.51877213785974,308.6680359715615L493.2348241288255,309.41616398649467ZM530.5217039374002,335.13238777735114L529.7865857484658,334.93355348842533L529.9944538092304,332.9266058512985L531.0013350735744,332.9266058512985L531.0169600553236,332.9447041535868L531.0333290838216,334.6081521154656ZM530.2946766728273,339.43908737028687L529.4140043384386,339.30815904829524L529.7035315300054,337.61815501834735L530.3875895107258,337.7228081271719ZM500.1879410069432,365.35725836059146L499.5167178326601,364.85234710511804L499.3726517807045,363.9146559666242L499.59688886996537,362.52592259727453L499.91617793153,362.74243456916383L499.8040128839766,364.5999881032931ZM322.11644142162186,131.9306206452943L321.73251329865525,130.97304759204462L324.57793408208454,130.60471925945967L328.23799305084503,128.39448356241382L331.0989458101776,126.2205655832422L331.3870779140898,127.08647648748502L330.5397946776038,128.7628878206956L326.368203568265,130.73374813906184Z" class="state" fill="coral" stroke="#111" stroke-width="0.5"></path></g></svg>