<svg width="800" height="779.1999999999999" xmlns="http://www.w3.org/2000/svg"><g transform="translate(0, 0)" id="single_state_map"><path d="M651.1377865382201,721.5224762874841L650.489163618784,721.5817589326334L648.8993738771969,721.4042387703639L648.2658581959822,721.3039004073098L647.117708091313,720.9316083243148L646.6719739692726,720.6947951322918L645.5379427788266,719.1941842944652L645.0372860804564,718.8344895606488L644.7259640218235,718.8313688856515L642.2298811762175,719.3510349189755L640.9732978103111,719.4660029763136L640.2248541673143,719.4167310539542L639.2561554624281,719.2815609597046L638.9380563249688,719.3638456866902L638.6198159983669,719.5694735142279L638.443047192286,719.8573808339888L638.3752764040146,720.1722170168032L638.2309811006471,720.4330155415901L637.9303894168261,720.7619637274729L637.7006746824045,720.905989314846L637.470818758844,720.9265173706053L637.2234553816434,720.8854612324776L636.9405123406013,720.823712600346L636.6224132031439,720.7619637274729L636.304172876542,720.4947656969771L635.8269535757827,720.3302075679285L634.5364848157369,720.556351383425L633.8992982168238,720.1886402244218L633.165114677191,719.5645463610881L632.8403796500479,719.4495790192304L630.9906606976019,719.2198060733353L630.0266212344104,718.9366502656585L628.959513697384,718.4961391104398L628.5636193425526,718.636407601728L628.3227506658968,718.9566881401188L628.0472906493924,719.5172456129321L627.7891968973854,719.717451632443L626.6359639835955,719.4972084478459L626.3606451562318,719.0368393843755L626.189947483268,718.2671735869944L626.0336511028145,717.995662831755L625.5862227110665,717.6952380634048L624.949318490435,717.7954350386299L624.432989797273,718.2560044523598L622.6157443475458,718.5864761032572L622.1849762745824,718.4066228545553L622.0082074684997,718.2395792400584L621.8204259093254,717.8156386141782L621.7652209547105,717.2630697440518L621.8270617990111,716.5095804511184L621.7705861421146,716.1481819701767L621.1468125117135,715.7082503175061L620.3516352626375,715.4769445278862L620.0092515927136,715.4641306139929L619.622675721268,715.6183897340998L619.4900991167087,715.7854610144777L619.3419917065003,716.3288822422646L619.2290403927127,716.5095804511184L618.8478297086731,716.7231302198861L616.5745433295197,716.312619302269L616.2829877507993,716.0814866211585L616.1660831410281,715.8927339745342L616.0253175662183,715.3818256119866L615.7481632800082,715.1659577644086L612.197397541895,715.7869395135103L611.1808357177906,715.4090963786375L610.4607710923829,714.9655298811504L608.977014396618,713.3937258150627L608.9264686836959,713.2769062957623L608.8778996187666,712.8893090520596L608.7727137078,712.626907391289L608.6524205586138,712.4344986480282L608.4721220239771,712.2945037957006L608.2942237047591,712.2018304652574L607.7702707979188,712.0988046891543L607.2350227597017,711.8955445308993L606.6329922572004,711.393051859276L606.063435257418,710.9916049374651L605.382903591837,710.969585040656L605.0615571041071,711.2116378937062L604.7589887722934,711.6957324836048L604.4187229395029,711.8937370319209L603.8327879992194,711.9377742209963L603.3411674059516,711.6296756429074L603.1015694315756,711.0294002112478L601.9128980430833,709.2476656006302L599.952769181411,708.3846632779914L599.6877571614332,708.3302618192565L597.0778758671859,708.5079287302715L595.1914477377632,708.9268597277478L594.953826411378,708.8058984458476L594.3568787179993,708.2424959291147L593.4617395562182,707.6029735749707L591.20525468499,707.879922310377L590.0370557221249,706.7684820717459L589.2120875640358,705.8466604288114L588.004073263055,704.0677936681386L587.7749232852057,703.5214846922136L587.3773346606667,703.2206203389296L586.8605824000824,703.1278937759444L586.4430861064884,703.2668190083705L586.2442917942171,703.5678468860533L585.8865185077902,703.8918852274637L585.2304125638148,704.0770000372395L583.3212529824905,703.8012998361546L581.8801354076786,703.3314311556269L581.7687371744541,703.215194863541L581.3540646637048,702.4565964043977L580.6781922398186,702.1788948762178L579.7436613073532,702.1691941424633L578.3357231809678,703.209111752557L577.9946102133235,703.7297846864685L577.9149795371031,704.4473875424283L577.9570539014894,705.3013993050245L578.0208713937791,706.6161090594414L577.9439233112589,707.2599448805686L576.3453798428563,710.2246700161195L575.6104903575142,710.5651693923282L575.2981799748868,710.5073244555642L574.2629811840052,709.9668255992592L573.9453056139737,709.7112777476977L573.3640299153849,708.9779721650921L571.9519973038732,708.0459248636735L571.5436783045279,707.8498444334155L570.2467148439409,708.0602240119342L569.4256999818335,708.6627487762071L569.2870522441572,708.8773906197239L569.2606498745572,709.4573691990245L570.1295278558828,710.6590026322328L571.0167604257003,712.7494825348449L570.866676367501,713.0506584440154L570.1244450467639,714.0407358851489L568.6443592686937,714.7442348345876L568.0450113599,714.7946713202091L567.5764045968153,714.7414419300349L567.1524136026783,715.0266442260845L567.0582404448069,715.2788205452316L567.0028943010493,716.9509682192083L566.8416563006158,717.4930353508689L566.4707524239584,718.2497628736919L566.8639641850896,718.9988989894082L567.1260112330801,719.3112886249783L567.3506431583774,720.0565971531705L567.5111752131015,722.0363065792999L566.750730493015,724.3694349513571L565.5336800869336,727.0142935402919L565.664280043502,730.4150219907142L566.1433348031132,731.035570529787L566.685924676729,731.4155029758476L567.0637468213517,732.4236338375022L567.1347649598993,732.7808870495983L567.0148953781409,733.4353107550523L567.3441484578343,734.0708373430289L567.8640068795503,734.6727017072171L568.6303815436149,735.9482243273887L568.9068298841121,737.3470139164019L568.7943021377487,738.4259632090998L568.8503542272192,738.5199597308774L570.3240864938853,739.1218195681904L570.4363318619635,739.2497672086083L570.9444715848749,740.5506737709575L571.5117695583813,743.2986139688783L571.8808379761867,745.5161367396167L570.7881752044159,747.7138407148041L570.0617570676095,750.8132942327402L569.9901741724952,752.019011584066L570.2553273816156,752.7516419012272L570.419671543179,752.9470042950607L570.568767277382,753.7921812774384L570.4103530597931,756.6615479877328L570.0813823583812,757.2209405833728L570.2119823149496,757.9495634266377L570.2564568947546,759.4009752837974L570.1439291483894,760.0067970332002L569.3031478063695,761.2832395864916L569.0598789142969,762.8449080848177L568.6709028274345,764.5415383144382L568.4094205360125,764.9580114399314L567.5426603918222,766.0049601888695L567.4006241147308,766.6504870542349L567.7881883101709,767.7099329903176L567.8529941264587,768.6417615847267L567.0106597038739,769.9641739164153L566.8422210571844,770.6704416721359L566.7255988256966,771.7672722317175L566.8422210571844,772.8190129391623L567.5895351870422,774.710171511435L567.4548407453512,775.9217769175684L566.9012381186403,777.1861479777344L565.8887707796584,778.3141130555969L565.5849317455668,778.4658005388019L564.1779819431758,778.794697263238L562.9780154233067,778.9818872067663L561.2028443379622,779.0437379481746L559.2853545972466,778.7205733675573L558.2813586068005,777.9752246060862L558.3352928591357,777.7755863322673L558.1822438289491,777.5682544393221L557.8527083709705,777.4870882625746L556.2218325889935,777.6481110823897L552.4242682302502,778.2931679611311L550.3308568183074,778.8626029590805L549.815798827427,779.2000000000007L549.3308141238413,779.169893084576L548.6443525142877,779.023611939504L548.439063501477,778.8698025822277L547.2375439010393,777.4370137626938L546.7039901325279,776.604543154488L545.8497958219941,776.240252043418L545.413097805058,775.7753024160511L543.8302263314417,772.0841931357509L542.9633249981089,768.2761428225904L543.0227656269908,766.9288645090683L543.5005496843187,766.230782930048L543.855075620475,765.0146758387164L543.7353472278573,763.8137078360514L543.5635200417564,763.2131080542977L543.3542777329621,762.9803634207383L543.3280165525066,762.3948015645201L543.7648557585835,761.0245847483811L544.2838670454494,760.1121336207598L544.2163786354595,758.3549038391302L543.5063384391506,757.2550212787955L542.6017396048392,756.1286812492299L541.8023266814944,755.2379085078355L540.8829029872486,754.6409187049176L540.613655293002,754.239253083887L540.1273998871402,753.0825437427957L540.265482868248,752.5115329926375L540.0744539588013,751.5387680580716L539.4814595614043,750.5048021257635L539.3589073859439,749.8292786104466L539.3895454298108,748.5673284894592L539.9101097972361,746.7007768990807L540.5683335783451,745.9185143755158L541.1654224608646,745.5628681609787L541.7931493872493,745.3672511554832L542.3852966497907,744.9482980093426L542.3211967792158,744.6805229583251L537.3792944226425,744.307958866566L536.2132132969091,744.1938265711742L532.0844192104796,743.8824183407132L519.730228075623,742.9729205313051L507.7715077281682,742.1089642307907L498.54409133728404,741.4665426007678L496.94385359917396,741.3523899089114L495.6982829863591,741.274319492476L494.55408617767534,741.180339259914L492.81505951274266,741.0674966410188L492.2840471487907,741.0112390477761L475.3365496495444,739.9034323474216L474.01685473705584,739.8192857457288L473.97675702066044,739.8128886174391L448.7946851787401,738.0489872779708L448.58007768254174,738.0394725390852L412.9169710558126,735.6604449219449L409.4154803283418,735.3452597834485L408.4075310419139,735.2811062899063L406.8400491848006,735.1910284408095L405.0074141185669,735.0632121823701L387.77330266058016,733.8827910725904L387.4638160607974,733.8565366167959L383.31793808815746,733.5662578960391L377.88935675829634,733.1832590821568L376.39246947230095,733.0761030895319L370.82749943103954,732.7173796018615L370.81239219281815,732.7211539534055L369.3388011152947,732.6346718471141L368.0858886670867,732.571163814343L360.887925006713,732.0360123912442L345.104249606924,731.1195995691542L336.2953178336302,730.5464864289161L335.9119893124571,730.5205547033775L317.0261060794419,729.375741668945L315.5647984572897,729.2555930592089L310.7177752043026,728.9601417877502L307.1874818918168,728.727059679195L307.1737865450177,728.7311632670644L289.23231748442413,727.6986670851356L284.6696491638995,727.4159910675326L284.3727283977769,727.4063057952999L283.69572646075176,727.3534470866725L282.19587420277094,727.2705472042953L275.06991700493927,726.9236762630662L272.64202851503615,726.7220837959967L254.99267978972966,725.7208141719502L250.57204774629645,725.5384150766695L237.34333106442318,724.7933643930146L223.2944466552981,724.3009681336589L214.73372539405318,723.6885299650494L214.12265878645303,723.647152591785L204.6800701428001,723.1386289865786L204.6607272303154,723.1397783964039L199.2349696832989,722.7905181744472L172.1959782426784,721.3590783746522L168.1905834665631,721.2222826448497L167.47630759598724,719.5216800640756L166.6759063486479,718.6029009556596L165.4899175538594,717.7652117555226L165.2922527547271,717.370989734165L164.96737653843957,716.2539740162119L163.75314991520463,714.8083072154213L163.5413662018509,714.6768764108583L163.1742744320345,714.5947316035608L162.76482591954664,714.6111605991382L162.31302066438911,714.8083072154213L161.63531278165283,714.7097342143588L161.29645884028469,714.5290154506292L161.1835075264953,714.3154360683548L161.08467512693096,713.0667604315004L160.3644693123806,712.278236707848L160.66096651107728,711.2758889112301L160.74567999642022,710.6514434076116L160.66096651107728,710.2899110533745L159.43262097361912,708.3013352875905L159.20671834603854,707.8246973120149L159.10788594647238,707.1343685466791L159.26319400293323,706.230320978495L159.20671834603854,705.852249381167L158.83962657622214,704.9647318470397L158.20568732757965,703.8598269360482L158.11687935711234,703.2908225341516L158.1835206322503,702.6443586719488L158.22785402291265,701.6099943116651L158.38330326851428,701.0928689277289L158.69420175971936,700.5239292165552L159.04957483073122,700.0582384421032L159.20502407633103,699.696299079771L159.20502407633103,699.411642163308L159.1383828011949,698.9978855756617L158.96076686026208,698.6615770163544L158.51475035993644,698.2234606386874L158.22785402291265,697.7563862347833L158.20568732757965,697.083709005231L158.31666199337633,696.7215369135683L158.40561115298624,696.28188631793L158.31666199337633,695.9196958109815L158.16121274777652,695.5833216086294L157.8726221410452,695.0918240519741L157.7838141705779,694.6777896218318L157.8947888363764,694.2120907037688L158.1835206322503,693.7463780272665L158.20568732757965,693.1255160622695L158.00590469131384,692.7632530290584L157.82814756123844,692.6079478887941L157.5617236498365,692.426811464331L157.370977118675,692.268870648435L157.20155014799093,692.1372520926043L156.19910723811154,690.6730860408361L155.81789655407192,689.866823467004L155.28137781357145,688.994697076655L153.78463171672047,687.3984161341486L153.40342103268085,686.6249022116081L153.1775184051039,685.6044640014825L152.58452400770693,685.1765186113389L151.82196145048692,684.8637819288533L151.46898859489738,684.5182829684754L151.39839402377766,684.1561510947868L151.48310750911878,683.2343232615831L151.59605882290998,682.5264545144355L151.96315059272456,681.2423322279501L151.96315059272456,680.5343738264582L151.89255602160665,680.1556853189295L151.5537020802367,679.4476779921779L151.22896705309358,679.1348273891435L150.77716179793424,678.9207681263133L149.42160484331907,678.5255741372084L149.11098873039919,678.4761741900193L149.09686981617597,678.5255741372084L148.51827671128922,678.1498013046312L148.3659336268156,677.9462676588519L148.24931139532782,677.5615884573817L148.24888782790185,677.1064164877935L148.72808377665388,675.9379606434768L148.82988114820728,674.1278765069219L148.81844482768247,673.6679929706161L148.75236830911672,673.6678282534685L148.89383982963773,672.9493156241724L149.1395089371308,672.2846374633291L149.16746438729388,671.4998362461474L149.0782328494006,671.3120316494424L148.44443478989888,670.6205948384113L148.3735578404976,669.7109886169201L147.75825555862866,668.4460853895289L147.87925465352782,666.7247832596959L147.84198071997707,666.2717689505771L147.47827748957388,664.9578051323933L147.30179106177638,664.6519174122632L146.524403644622,664.0172143198861L145.05250683680424,661.4903435052192L145.08639223093996,661.1164704903031L145.40618563810676,659.9082457784007L144.88830386438167,657.932583632075L144.45118228001593,657.2059296936077L144.05825289717177,655.949086699411L143.85155199293695,655.6920002452516L143.36670847849564,655.3898894082422L142.00211541877798,654.180563145941L141.62245781530328,654.0860625585365L141.36690546785576,653.8668783715475L140.46400090325187,651.6555686733973L140.2722660480922,650.7824713422242L140.04664579879864,650.2913842294756L139.17790900661566,649.2710548562909L138.2676626066168,647.91045713528L138.10204774277372,647.7517377708446L137.28583331150185,647.4644879220641L136.0823370630751,647.3550973042911L134.93856382181548,646.4976001381074L134.90467842767976,646.2934900721048L135.19002168413863,644.471231724011L135.17858536361746,644.0779735990427L134.67806985438983,643.3219594459724L134.34316920900346,643.1707852329009L134.0496369822922,643.2277232905517L133.9066123812063,643.0385891162196L133.8194986804483,641.52246227661L133.9846899768636,640.3577867780614L134.17275391432304,640.043824521822L135.00026347697167,639.1926942422042L135.150771102597,638.9392940878897L135.15034753517102,637.5814283953596L135.4248192276791,636.5676984489828L135.1310046226845,635.4328701749137L134.85978028044883,635.054905988025L134.61877041464868,634.5517651402015L134.366324228331,633.8897477481787L134.09495869695093,632.8645478811304L133.6760505119346,631.7857693219394L133.3143239295241,631.2220728807306L133.2238216893511,630.9647443776757L133.09548075905877,630.1780327577007L133.2759204828344,629.5761211805584L133.2869332359296,628.8344363625747L133.1964309957566,628.5204072762981L132.91377033299796,628.2025723410798L132.90628730846038,628.0322537593829L133.16593414103227,627.5855509816483L133.5122711069398,627.3053640052631L135.0938718782745,626.9035776603432L135.9335237071573,625.991094274761L136.41159014277036,625.1091248924486L136.70512236948343,623.6175279702866L136.71133469174129,622.8534154412673L136.74620840987336,622.4326748414005L137.16059854233754,621.6111567811595L137.25844261790735,621.2779759633322L137.20535550042587,619.6081632462501L136.52327075428184,618.619876293651L136.46284180140356,618.3320893467808L136.6888856181249,618.0100790301694L136.7943539073749,617.6239223445345L136.96363968891637,615.9917423973429L136.9560154752362,615.50303045905L136.74493770759364,615.2910741591522L136.23990414581021,615.2910741591522L136.12681164287824,615.1622787090128L136.0099070331089,614.7874596913753L136.02854399988246,613.893445955182L136.07372452539857,613.6131776873126L136.8159558461375,611.9764423413098L137.4483420142151,610.311749637126L137.73467359467213,608.7583606561766L137.98344886329323,608.3567565415806L138.12675584266435,607.9399241529409L138.1605000476593,607.2842175428632L137.79467898012263,606.0223510121432L137.81726924287977,605.8139048755547L138.2510022878323,605.1126119638166L138.38075510954695,604.1968633212164L138.53112154602786,603.6387843941329L138.7942981071592,603.3743806696066L139.14515312561707,603.300916006313L139.40875325417255,603.2363859475217L139.6312673423381,603.0240967063746L139.78586945308598,602.6944883244541L139.8311911677447,601.2123223144763L139.77457432170922,600.6437101550891L139.66896484331482,599.9309296678475L139.3068146934802,598.9071295714239L138.97459664179587,596.438874365299L139.81241301182854,593.8334719932136L140.31815251931948,593.1885929162772L140.76741636991937,591.8686180435916L141.61059792735796,590.1250919054373L142.2467962022747,588.938341891725L142.64254936796533,588.4201245692475L142.73516944527182,588.1854387881258L142.79588077643348,587.7418944725123L142.3591827594937,587.2710080830893L142.2724926261617,586.8965081838305L142.4231414409296,586.456074101854L143.01797129717124,585.3745639166837L143.18316259358835,584.9514805407644L143.2548866778452,584.4159006862628L143.17356173191547,583.8034317035526L143.07952976318666,583.5931953456302L142.63464277599815,583.1369278839857L141.90893058490292,582.002993568115L141.76279982268716,581.6185901767158L141.61342171020078,580.7869537469232L140.90338151389187,579.4695659568215L140.9374080971702,579.1013401284436L141.28120365851646,578.4334734107824L141.2624255025985,578.1676444807717L140.8356107256186,577.3399657616656L140.88234433169782,575.740003687125L141.1229306300702,574.4768894937988L141.18350077208925,573.7781539805073L140.99458969977604,573.5236837246048L140.65827716296735,573.4326702171502L140.5374192572126,573.2731880593574L140.55633860227317,572.7680398290959L140.85114153126415,572.2250740824011L140.96451641248132,571.8376086769558L140.97214062615967,571.5489514028968L140.87387298316207,571.2831697121901L140.6811498040115,571.0361196184003L139.87608931497562,570.5993784324464L139.53836488674642,570.4474943937021L138.66285101573703,569.7344816485411L137.78747833386842,568.5239426747485L137.3921487356056,568.341524454946L137.155798111502,568.1659034210725L137.0612013862028,567.8801625638616L137.03409307089532,567.641847654435L137.0612013862028,567.3242545590856L137.4261753188839,566.434959088343L137.5898135347379,566.185675155456L137.6695854001009,565.9584467680688L137.65603124244626,565.8313964433864L137.50735907566923,565.5613695601478L137.29105730976516,565.3389421433012L137.02068010238145,565.1802056259148L136.68620302442105,565.0412061626639L136.03673297013302,564.6928726453225L133.63637636296517,561.7899529942451L133.18457110780764,560.5124220364005L133.00102522290035,560.2303554664813L131.81503642811003,559.5002768238664L131.36323117295433,558.8863202630255L131.17968528804704,556.5630197695973L131.2220420307167,555.2686233352006L131.33499334450607,554.9200686969052L131.82915534233507,554.2727319908172L132.26684168326938,552.9115762209494L132.2950795117158,552.6293703162528L131.5891338005331,550.155696933698L131.20792311649348,549.3422861037961L130.84069015753448,548.3128006047455L131.3491122587293,547.3496710930149L131.40558791562398,546.917903785391L131.25027985916495,546.6189808497829L130.62890644418076,546.0543327703363L129.25937176448315,544.8253210897856L129.04758805112942,544.443310941162L129.7252959338657,543.3802761724837L130.31829033126087,542.7158420724045L130.4171227308252,542.2508872119515L130.3324092454841,541.6362414568002L130.31829033126087,540.1078264115868L130.51595513039138,539.2771022203106L130.5441929588378,538.5294119969894L130.2194579316947,537.1170088237004L129.89472290454978,536.3858313928067L129.42879873516904,535.7711168518408L129.06170696535264,534.9235381491917L129.13230153647237,534.6243815395901L129.55586896318164,534.1091536966069L129.64058244852276,533.8266020449L129.5982257058531,532.9288842720816L129.28760959292958,532.2641636038043L129.2170150218135,531.8984635223478L129.30172850715644,531.6823639181785L129.68293919119424,531.3665205539983L129.908841818773,531.0672945202323L130.20533901746967,529.8038312898516L130.89716581442917,528.7565740463551L130.95364147132568,528.5570566892038L130.95364147132568,528.2078950608557L130.82657124331308,527.7423338414783L130.50183621616816,527.0273372700767L130.20533901746967,526.5617401609652L130.12062553212672,526.2457912028785L130.1488633605768,526.1293873117966L130.31829033126087,525.9797238657957L131.98432220965333,525.9464651235694L132.56319769282345,526.0129825357708L132.98676511953454,525.9298357253683L133.26928459314877,525.6970222540849L133.4669493922829,525.3477954091777L133.36811699271493,524.9320387782582L133.8340411620975,523.9674399062151L133.57990070607048,523.4851176738839L133.17031100444365,523.1859039324281L133.11383534754714,522.853252550136L133.67873310563846,522.4374281534856L134.62470035862316,521.9384239614337L134.780008415084,521.7221837575898L134.93531647154487,520.8239225027246L135.0341488711092,520.6243017279148L135.21769475601832,520.4579490923816L136.12130526633155,520.0254237733361L136.8837266344126,518.8442346327101L137.12374817621458,518.6113133298231L137.94264520118668,518.1454600806328L137.94264520118668,517.9291662477071L137.44848320335768,517.2804327784452L136.8272509775161,515.2170809999261L136.8413698917393,514.984104428373L136.98255903397694,514.7178411405766L137.33553188957012,514.4349313141374L138.6485909123694,514.1520162500756L139.17099073864847,513.9023809612627L139.5099858691574,513.6194560369468L139.77824523940762,512.9870166738065L139.77824523940762,512.7706498288353L139.65117501139503,512.3878394423809L139.21334748131812,511.7886387088374L139.0721583390805,511.2393507201996L139.43925010889689,510.3905787062622L139.48160685156836,509.2918823934815L139.97379220140465,507.77155583322474L140.1295238252933,507.4966755501064L141.31071218924444,506.40210011084673L141.48861050846426,505.937872520828L141.35405725591227,505.2876304340025L141.5092241232287,504.7456020891623L141.57346518294798,504.5933977332388L141.59351404114568,504.33461353740586L141.57346518294798,504.1582580858012L141.49369331758317,503.93460513330865L141.29066333104856,503.65465962405506L141.1443913796902,503.4676378400527L141.11460047067703,502.8875726100596L141.25437772149235,502.4875262561409L141.37396492496737,502.0756440879668L141.34403282681342,501.72254578730644L141.27428539054745,501.42840199829425L140.89349827393562,500.89939526555554L140.78054696014442,500.41634411907035L141.09116307306795,499.167169515521L141.11940090151256,498.51747163446726L141.06292524461787,498.2342613265346L141.17601774755167,497.6844851159285L141.43721766068666,496.86311582505186L141.45063062920053,496.49240220162756L141.25197750607367,496.084690106989L141.20651460227418,495.7877715313125L141.57092377838853,494.7605085795076L141.86332649195901,494.44006834426636L142.3463345475502,494.04329966794194L142.44191959684758,493.62985604299956L142.44191959684758,493.12257654253335L142.0907822001027,492.30112787172493L141.49397569586836,490.2473956014146L141.3149478635096,489.2494303531694L140.73113076036316,487.3353275511463L140.3979243846843,486.58175646218115L140.32450603071993,486.1127563151431L140.45383528501043,485.8494896747552L140.7919832806674,485.5238597170601L142.3286859047712,484.52091565375576L142.64946763593434,484.2332760976369L144.2878264424471,482.13375938406807L144.80359037903872,481.2366653687186L145.33347322985355,480.50664292684996L147.018565642451,478.70887358809614L147.24206805461108,478.33688324382456L147.4959261323529,478.1065115615529L147.88221962551142,477.8712986358578L149.66148519598028,477.3793415274813L152.79602534278092,476.26157709340896L153.77023042421206,475.86116384738216L154.0238061236705,475.4123547831505L154.03623076818621,475.03227487326876L154.0238061236705,474.7544668126775L153.83828359077052,474.40357044661596L153.75611150998884,474.1093985788575L153.73931000206358,473.87712725671645L153.77644274647173,473.70158651427937L153.83828359077052,473.5115263301559L153.92483253496175,473.3798677923078L154.0856469679693,473.2190058739461L154.25888604549436,473.01425488713085L154.4198416676445,472.7657799304761L154.64249694495084,472.45855980253054L154.8775768667747,472.2537985553399L155.1497895330067,472.06372023845233L155.61994937665622,471.9906253966865L156.28805639771963,471.87363954048305L157.65293183572248,471.8566172722576L158.95201313344296,471.67304257793785L159.2202725036932,471.53953231429205L159.61560210195603,471.25581910319124L159.9685749575474,470.721756312606L159.88386147220444,469.88724556081615L160.01093170021886,469.5534284047244L160.29330998469413,469.1862210471927L160.9004232963107,468.75223725288015L161.4087042083629,467.6173109248575L161.33500347611698,467.29345991906666L161.44244841335785,466.9307051922824L161.77989046330367,466.7854673185684L162.18524449066354,466.6657702319608L162.62857839728895,466.36727463540774L162.85321032258798,465.97010611303085L162.98691644028622,465.57493063491074L163.45495844680045,465.37725555412L164.29065697970145,465.14000866230435L164.45782492410763,464.902758056759L164.49128675081738,464.58652944874757L164.35758063312096,464.27029424211105L164.05854202986484,463.86154962561614L162.63761450239144,462.5419038154296L161.6346068359435,462.00753395806805L159.97634036037016,460.60739553050917L158.4334254140067,458.4483167577364L157.74442239989185,458.0394149962858L150.5672135434288,454.93086593609587L148.8221157453827,454.4799329666648L148.08383772062734,453.41946074741554L147.94363690238606,452.0300577888456L148.43977554820412,450.60643486094796L150.95350703658914,448.28964859323514L151.42112547567558,447.59965833476326L151.45275184353886,447.27604740040715L151.40898320944325,446.73294715379416L151.49412026221398,446.228777530142L151.8986271547201,445.9011251216707L152.09022082073534,445.42217144357164L152.00508376796824,444.9432025803935L151.8986271547201,444.4137278778044L151.85612922290784,443.8591555341236L152.0477228889231,443.2540682974868L152.36695153952132,442.67420511306136L152.26063611541758,441.96824011839L151.92488833517746,441.4286278473719L151.75546136449339,440.9711044728301L151.9908236646006,439.3972586397431L153.06400233474415,438.72827010474066L154.24999112953265,437.6745530176895L154.30646678642734,437.3902040529647L153.74156902833784,435.53360810655795L153.06386114560337,434.2789089606322L151.36959143876084,433.81046118307677L150.00005675906323,432.9571796187747L149.74591630303985,432.53888670292054L149.36470561900023,431.1166039622485L149.33646779055016,429.7612946215677L149.76003521726125,428.8575757612007L149.81651087415412,427.04997539173655L149.54811031476493,425.99544165613406L149.32220768718616,425.69413273975806L149.25161311606826,425.2088453157221L149.11042397383062,423.98676906182754L148.87040243202864,422.24555755147594L148.0842612880533,420.71731103807906L147.90128015971277,420.5485196108175L147.1399883047725,420.34221640590204L146.85520980488218,419.95371567808525L146.22945952649025,418.8953352137387L145.97418955732428,418.00838182647294L145.9086777953271,417.52619620807036L144.04258090238363,415.6770326431615L141.04937108696322,412.7824004894828L139.5514954769733,411.3910900340061L138.29999492018942,408.8576157063635L137.75091034603065,407.364041354429L137.68313955775557,406.2620327961131L137.47530914038362,405.23755318926214L137.2810328806645,404.9800813500606L137.03479901660467,404.8567078617116L136.7617392155189,404.532512366397L136.61702034472728,404.1030347465221L136.55913279640845,403.81100976583L136.57353408891686,403.50171189808316L136.7761405080273,403.1925753004916L136.93526067132552,402.6943222149148L136.92085937881893,402.40226981342767L136.7617392155189,402.1960525805234L136.53018902225085,402.0242027208651L136.09617359901313,401.85251855368097L135.44500927501758,401.5602820975919L135.21360027089395,400.80426360790716L135.25694533755814,400.34047292598734L135.531840597494,399.584392939124L135.73444701660446,399.1718781362206L136.41695533017628,398.6365981075951L136.59386532539975,398.28057264346444L135.88043658967763,396.27204826348316L134.39780940704804,394.61149168305656L133.1835827838113,393.97405744819207L132.88708558511462,393.6050041782246L132.5623505579715,392.53151072819855L131.75743125808003,388.5559454676941L132.02569062832845,387.3468246555958L132.18170463050046,386.75808758378935L132.22561445373503,386.2618051891204L132.20373013668905,385.89591854991613L132.20373013668905,385.45180742362845L132.18170463050046,385.13826978512407L132.1157693010755,384.87709530060783L131.91796331280239,384.58956310422855L131.56626115948893,384.19778529601626L131.12673935970815,383.85803479246533L130.42347624222566,383.38767575406837L129.8741092897817,382.8650932072569L129.58834246589504,382.15950225190863L129.4784973132355,381.11423303800166L129.54443264266047,380.3563419697848L129.80817396035673,379.54602425505254L130.18176043071617,379.04950244827705L130.2916055833757,378.8664719869548L130.3575409128007,378.65741151564725L130.44550174841606,378.3175350772517L130.42347624222566,377.9516219104862L130.26972126633154,377.6641244167795L130.07191527805662,377.40265139035273L129.42117452148705,376.93998238242784L127.63823803332343,375.39770484314977L126.19472024309289,373.69569071635397L125.3755408398356,372.45680881028875L125.27600249455827,372.0143140710388L125.31864161551493,369.61681951032006L125.83977073950882,368.56243839940544L126.4145517375564,367.98136274645185L126.57070692886919,367.73165121839975L126.59400313733931,367.45487992337166L126.57070692886919,367.2611201563486L126.54755190954165,367.0119007276244L126.4776632841349,366.76284518979264L126.43121205633906,366.4858878591285L126.38461963940244,366.26438551582487L126.26842097534063,366.01531749484275L126.01258624960792,365.7660772477593L125.71015910693495,365.65532114165944L125.40787315340822,365.6000268142261L125.070572292605,365.58691749072386L124.07829500096523,365.35195612284133L123.7640079703433,365.12102481898364L123.05142636947494,364.1044811853317L122.98252606806454,363.7619199492956L122.97885515036432,362.82244150134375L123.08940624873867,362.5566738370235L123.00342206111418,362.5563376320424L122.43852430302832,359.3284202218201L117.76135158814941,331.4229804505994L117.56467511301344,330.2366738130404L116.2774537032401,322.5698869902317L106.10322292451565,259.2585124150737L104.75345472473418,251.31317504617073L104.7404653236481,251.24356255267594L104.61297152820771,250.2814873917987L98.62542238423339,213.9530931083882L98.18928912386218,210.92104422361263L97.9982602144155,209.903143632524L95.79825100008202,195.9521033997862L92.77525027565207,177.56464653254807L91.7754899594729,171.43989889076056L91.65830297141656,171.0628385340924L89.75450857749456,159.14239031340912L88.62640733102307,151.9614188499918L88.4502032815144,150.13675073718787L84.83759669910069,128.7001101807009L84.79326330843833,128.33030045521627L84.41205262439871,126.12969309781056L84.32423297792775,125.49739603722992L82.66427223265055,115.4476358012189L78.16513902613406,90.51330101774693L78.14565492450492,90.41516507991855L77.308403311039,85.84416088433136L76.78261494535036,82.9245304220176L76.556571128629,81.91040168728796L76.52536832819533,81.7352609734553L76.08146966500499,78.75205489682594L74.64317587303776,70.85055437196297L73.64553339399208,64.60666831576782L72.66610431429763,59.18052030938543L72.66568074686802,59.166445569409916L71.08619781266862,50.34897291196921L71.08224451668502,50.31754267352699L69.82086071994127,43.14378939298422L66.75296184827857,24.178874697292486L65.05615073687659,13.19673720164883L65.05219744089482,13.169185064476551L64.5453284202631,9.624154433408876L64.46005017835341,8.444059815896253L63.643976936225954,2.7735447989552995L83.1918960571893,3.067533056697357L94.73354367847423,3.064948192497468L97.70529274427463,2.99808620726526L105.56416277945755,2.8257600423985423L105.95949237772038,2.8085273101523853L106.51987208325772,2.8085273101523853L107.50650180921002,2.778197650273796L109.89881063526809,2.7223633331914243L110.13883217707007,2.7223633331914243L111.66381610236931,2.7051304746573805L113.08982643896161,2.687897595074901L115.82889579835319,2.6361988300259327L116.56322052712676,2.6361988300259327L117.7633282361403,2.6361988300259327L117.94687412104759,2.6189658662478905L118.3280848050872,2.601732881416865L118.51163068999449,2.601732881416865L122.83893671040823,2.5465871885162414L123.59458099965923,2.5328007316129515L142.70735518425136,2.3935567617090783L142.72585096188413,2.3976927410149074L151.93025352258337,2.2618941201480993L155.35225476297455,2.230356943749939L156.9339967234555,2.2244975698777125L157.65603799685232,2.215536169841471L168.66766157818347,2.2370779872535422L169.13104434300476,2.244833033470968L172.834859111299,2.200370710647803L173.93458134018147,2.251554070079692L174.43326139056262,2.216053173842738L174.88492545657937,2.243626693229089L175.8078788793773,2.2674088104176917L176.02785156298341,2.2753361739041793L176.177088486329,2.271372492716182L187.06347729849585,2.1858945753074295L187.57006394083874,2.197613352681401L202.04209220924895,2.2048514161961066L202.52919474996634,2.1443617712211562L218.28547945616447,2.1993367014738396L218.40323120078756,2.1953729989354542L234.51983059797203,2.1958900036761406L234.6565016876575,2.1893412755425743L244.8314384120913,2.130747256963332L271.9840871122142,2.286537875580507L286.0466668681347,2.3180749263901816L287.2604699239455,2.299290571284473L299.2207433519634,2.289812217473809L314.1231161259111,2.3235895947000245L325.5882392321055,2.2543114175068695L343.92983832179743,2.443705429018337L343.901600493351,1.4960205705801854L353.8983565202834,1.4269106735182504L385.89365160998204,0.8440301909431582L404.58116409815557,0.2266538683206818L416.1410251187899,9.094947017729282e-13L416.56515730206957,0.7630247876804788L416.6966043934917,1.3767583915723662L416.71213519913726,1.9715081653312154L416.3590211544051,3.1109587044848013L415.9306532968585,3.4702491153830124L415.6488397689536,4.2868468680981096L414.46765140500065,5.577385076552673L414.26772757959225,6.40195825367573L414.3613359808969,7.203743149207185L413.9041655383353,7.845620626938398L413.5290259874091,8.097471183128619L413.567711812384,8.964960328931738L414.1071955248699,9.693396449604734L414.3508879843703,10.008426113180576L414.45141465364213,10.253348639998876L414.3652892768787,10.620724467229593L414.15731767036414,10.804494912688824L413.79163779197006,10.979307128828623L413.38289522519517,10.795711187603956L413.18198307579223,10.918166156380721L413.06013684604113,11.303091529163794L413.1266369320365,11.788065343963353L413.03218139587807,12.032440372115161L411.61083030098234,13.06861930791274L411.23809096547666,13.095999439253319L410.2942415496236,12.672031958920343L409.8273290562465,12.822884559314844L409.45656636873355,13.174523295252584L409.1544216043476,13.894821553101792L408.74243168729845,14.213029124436616L408.1656740412636,14.11247079615805L407.6712296651476,14.28001021662476L407.35637787796077,14.908308400229544L406.89327749142467,15.47993389380008L406.20173307274854,15.938078481657612L405.9279673259516,16.547881876670544L405.1274248894697,17.43860896023034L404.58130528729635,17.713011834400277L403.9633204117272,17.729709955357066L403.56220205863247,18.21119265195739L402.7540354084704,18.43996434795372L402.58164346579906,19.030897734434802L403.0601334688399,20.000126503126012L402.43268892073684,20.776528773480095L401.8600257598264,20.752949903904664L401.3460972820849,20.319745721873005L400.38939965428654,21.12383924823007L399.0987897051,20.816974188153836L398.65559698762263,21.13640284692974L397.9311554988035,21.307473203823065L397.7093473563491,21.54772546391905L397.78333046688203,22.028389837948453L397.80281456851117,22.561352331287708L397.46000733115943,23.08362577425396L396.7886529598236,23.2925297541924L396.588729134417,23.710328462672805L396.5602089276854,24.511132201011606L396.1602200877296,24.928894937847872L395.80315274701024,25.364022669006772L395.63654955917264,26.297549333537063L395.5175271122662,26.582274758472522L395.36038359695704,26.721624692119804L395.0175763596071,26.826050224873143L394.77557816981243,26.715259354669797L394.4461839009746,26.582274758472522L394.11763676698865,26.582274758472522L393.6748676169336,26.773751537035423L393.3464616720921,28.165966189979372L393.7261192755668,28.93108408081298L393.60384947838975,30.884114663671426L393.1725166488559,31.39197889864772L392.54535447904163,31.663359773610864L391.4871418579751,30.89529372020752L391.2526266927198,30.600335658969016L390.53227968902866,30.353701288587217L390.362005583489,30.692349474177718L390.3330618093314,31.32439083800091L389.9141536243169,32.03086791969963L389.49524543930056,32.10945873808396L389.1890061897866,32.10945873808396L388.9150992538489,32.12906338195717L388.7700980047721,32.286071525020816L388.6896201936961,32.46268211066399L388.6896201936961,32.658894405971296L388.8990036916348,33.07091418714754L388.94136043430444,33.87376807012515L388.5938939552598,34.1497439620789L387.1623772421208,34.5782267235445L385.7386259318064,36.33174171270548L386.2922285585155,39.079951751761655L386.14214450031795,40.51581591998183L386.2757094288754,41.50488607519219L383.64902662670283,44.481304937207824L382.21412137415064,45.35773540323953L381.5916184460275,46.82594875545237L381.69793387013306,48.99981458827824L381.85225360259756,49.26381656774993L381.9109882857665,49.47216339719125L382.07872098674306,50.32561492719469L382.3709825111746,50.806506870395424L382.35502813810126,51.116501798642275L382.1001817363649,51.581739112788455L382.05231861714674,51.8917171289695L382.13194929336714,52.16304967642736L382.35502813810126,52.414972156869226L382.8011858275695,52.860762685688314L383.11984972159735,53.24832806543873L383.40660486948036,53.6358828774064L383.5500530379941,53.98462166194804L383.59777496807146,54.5272016766603L383.6456380872878,54.837115462080874L383.9962107274605,55.089162246154046L384.83247401693006,54.95043405140041L385.5310778927178,55.26377241860155L386.0779034406023,55.602685157767155L386.36352907534456,55.87205836598878L386.49285832963506,56.07824817662731L386.79260287860416,57.01507796419446L387.07596948707396,57.07893877038077L387.849262419104,56.850789572376016L388.45298719130733,56.97301894327666L388.89970963734413,57.48441386511877L388.98851760781145,58.19027688310507L390.11308912572713,59.61047974100893L391.00258072181896,60.17687352967732L392.22005469532814,61.21400225621983L393.06408338761867,61.7214692762218L394.43361806731446,61.996046524229314L395.4220832521132,62.44222325393275L396.4104072477712,63.471808482274355L396.93280707404847,64.39819994029313L397.48513899847785,64.70532512479895L397.4841506744833,64.7396403763878L397.10223404473254,65.82224409990067L398.74016928381934,66.97166985098102L400.2054302019533,67.20325933294043L401.58964855244267,67.0389169626169L403.258363024539,67.4689821807915L403.6536926228018,67.88067983690507L406.1301501776343,67.53382535115998L406.97883811162137,67.68100795982718L407.46368162606086,67.97571168876584L407.5232634440854,68.246394607826L407.46368162606086,68.56475779575158L407.3247515100993,69.11570141611537L407.4235839096673,70.21340850168872L407.7059621941389,70.45352065392126L409.64039463192603,70.93373282064385L409.9227729163995,72.63132461911482L411.71601621194895,74.39746980387372L413.15614546276083,75.47762553713346L413.509118318354,75.42619140521492L414.1127019014166,75.7467944683558L416.78315333768114,79.16891170767849L416.89765773203544,80.3275451230902L417.0384233068453,80.53783728444796L417.78969073268854,80.65009466753327L418.395956909455,80.40672639844615L419.07013506363364,80.5551472591169L419.4843840069552,80.74555559474447L420.4362812039162,81.7960977663779L420.4529415227007,81.98306217461959L419.20115858762983,83.00232644042171L419.1548485489766,83.3208744374142L421.6592615539721,85.68671482184345L422.2149820178147,85.85889459461941L423.29818511705525,85.41602003662683L423.7754044178164,85.55667916983111L424.6471061819866,87.20747868789385L425.28499872661087,87.96771426113719L426.56403116613365,88.87915563630213L426.87450608991276,88.9584607905499L427.3260289667869,88.76747678933953L431.05215161955675,90.825344844764L432.15822735983966,90.76523155280483L432.1315426119563,90.22317292815114L432.49976389490985,89.63673311375442L434.3497652256392,89.01498471389641L437.0182400139129,89.13488320503257L437.8655160564758,89.93988987772082L438.8961967948053,89.54595610834713L439.81392621934356,88.43260630208806L441.56481277222156,88.75805598778516L441.9460234562612,89.16913973199553L442.3554719687472,89.23765253954025L444.4028557203219,88.55250968035762L445.2076338310726,88.46686451284586L448.0033200365033,89.64855120976881L448.85045488992364,90.2822608856477L449.27868155832766,90.93221229508345L449.1328331743953,91.38039608849795L448.99164403215946,91.53247054465828L448.90693054681833,91.90922461532409L449.04826087819674,92.30309325417693L450.4768126193485,92.84832653916237L450.9270647939411,93.11733944701427L451.1316478610406,93.34336802166672L451.10806927428894,94.36370557705959L451.2135375635389,94.66539238135829L451.8298281694042,95.64642976153573L452.0173273502933,97.64972851132097L452.45035444953464,98.58485901886706L452.8338241598485,99.0928816042524L452.95665871359415,99.65308910462863L453.00395707624375,101.11161389093559L453.773296712292,103.21356555501734L453.8680346267338,103.63005178890671L453.773296712292,104.45631504021912L453.8400791765689,104.86232836402905L454.5337414323785,106.13761099806106L454.73253574464616,107.63909622651227L454.7028860247792,108.44682573757109L454.76063238395363,108.97844496727885L454.9444606471443,109.29094166235791L456.3961674076254,110.20940646198324L458.29812634269547,111.72705340114499L459.95723995312073,113.21153771089575L460.377277651276,113.2725827908107L460.5423277585487,113.4757225301064L460.9403399505154,114.9673777276821L460.8876764004599,115.58629044532609L460.9783198297773,116.24928389320303L461.56086623064584,118.5004633869139L462.2792365863461,119.7789774668363L462.48311370773445,120.83862208122173L463.80746786191776,122.76953782038254L464.6068807852607,123.42963646494991L464.9345807843911,123.35257240960436L465.0687104695171,123.43766750679515L466.05237522348034,124.36462461097926L466.78260546712954,125.25256778875973L467.23441072228707,126.01505821956744L466.9520324378136,126.4079906584584L466.9379135235904,126.52757665919034L467.60150249210346,128.40665455906856L467.47076134639246,129.69555993900212L467.4916573394421,130.02075713855447L467.8946111513869,132.20010589244976L467.68551003173343,132.68730168662842L467.55081559003884,133.1022503894892L468.1110541064354,133.99597166900185L468.09735875963815,134.2165760191001L467.83813549449224,135.0055674516334L467.9030824999227,135.6377879603897L469.1962338536687,138.1515415086369L469.30720851946535,138.52434199992058L469.2529918888449,140.6732188871838L469.3204802988348,141.04885537685277L469.4697172221804,141.468170860825L470.2342564273931,142.51461436987302L470.5303300586602,143.17653766518288L471.3499330293471,145.80260079946038L471.6512306588793,146.2016467952826L473.2372082936272,147.42277150080554L473.8558991149057,147.71089271445817L474.45284680828263,147.7966967942266L474.9297837307604,147.76752687610406L475.17912375594824,147.8857414423219L475.7574344825516,148.54059505112764L477.0239010884161,149.01768638655722L477.32039828711277,149.33801271837365L478.3238295209885,150.9785928446936L478.49805692250993,152.09886930926677L479.20795592967625,153.09423758188677L479.42383412815616,153.24037375804346L479.5996146102407,153.81211519068984L479.67246820763285,153.88475354775437L480.31374929167214,154.35740547478144L480.5741020699588,154.4668702713725L481.1375879366242,154.64675220675235L481.3008025850504,154.78724611129383L482.07381313879705,155.7442391928471L482.1476550601874,155.9745695810998L482.1163110706111,156.30650483689897L482.1941062879814,156.4041915707594L482.27176031621457,156.52898413285675L482.24436962262007,156.75145999961296L481.8981738458551,157.60246247547184L481.55607255421637,157.9887383113337L481.493808142488,158.5001202538233L481.73114709058973,159.14937876362183L482.216414172457,159.9405858200007L482.8591071479186,160.39292815463614L483.20163200698516,160.4132099394992L483.5677354528052,160.29288229486792L484.13376272403184,160.6458519052767L484.81260011990526,161.4879333608069L484.9396703479197,161.76060657245762L484.98202709059115,162.18664816177352L485.23616754661634,162.71492228333864L486.05506457159026,163.48173744466203L486.5774643978639,164.65727127495393L487.509312736629,165.5262085802242L488.48351781806196,166.25880140520985L488.7094204456407,166.5654571452087L488.78001501676044,167.0424642555554L488.5258745607334,168.30287980628873L488.5541123891817,168.71169487792122L489.09063112968033,169.92103846771715L489.45913479091723,171.43683339903419L489.8842552981914,171.94211984824415L490.28523246214536,172.25972430660295L491.08422181806236,172.52248776520992L491.297840990268,172.6309635758471L491.3941319852729,172.81096010467263L491.4208167331544,173.0059396269362L491.28259256290585,173.2119850004674L491.01235654466655,173.38618470930032L490.76499316746595,173.66885035141604L490.6838094106788,173.98743856217789L490.68663319352345,174.44325781502448L490.8242926072053,174.90331932122444L491.11175370079945,175.36762267680479L491.50934232533655,175.86494026143646L492.1955215566086,176.44872606142235L492.41803564477414,176.77423303047362L492.7206039765879,177.60362984246876L492.7834331448812,178.49187612487822L492.9412826059033,178.98074581288165L494.0350748908095,180.76058911708878L494.3651751053603,181.02166660599505L495.97035446345217,181.51011055060826L496.44446760308165,181.4076578196782L497.24345695899865,181.05025890041452L498.28402093728437,181.0308569924964L498.5983079679045,181.09978470544684L500.23116039787055,182.1874376214255L500.9808747431489,183.12560244384986L501.55353790406116,184.04584007559788L502.60892674228126,186.1877868050742L503.05790821459414,186.81811120923794L504.8676706397855,188.15471659982632L506.307517512314,189.69564915994943L507.79310966693083,190.79303218491987L508.3982463305565,191.5984979646273L509.38600556964593,192.29695162532062L510.4598901854988,192.70849124529377L510.72236080091716,192.91323636196466L511.7804322328375,194.08111258440204L512.06083386932,194.28634845084707L512.9589380030884,194.64172100977248L513.6552828526001,194.56027514863945L514.1652580343598,194.37068645786076L514.9989799192663,194.20541070918262L515.6305189524919,194.34875182172982L516.1054792269788,194.71160425500057L516.7805045160112,195.43490158958775L517.5159587579219,195.76253288291446L518.3001232539063,196.2273587849677L519.0375541438079,196.7955346853696L519.8090116169897,197.72986539069097L520.1635375531459,198.03194599395556L520.5402301846352,198.2763937909731L522.9723543488035,199.28660973001843L523.6709582245894,199.64933881434627L524.9563441755163,200.86324254724877L526.8410780352351,202.0738159168277L528.2154131457683,203.52405984841243L528.4140662688933,203.9138710775551L529.0271095244843,204.47681889193063L529.8900575618372,204.9840139980097L530.2673149498933,205.37140738810467L530.3990444196006,205.65820777568115L530.44944894338,206.1848999169415L530.3537227049437,207.77437514071062L530.3830900465273,208.02001817160726L530.5393864269827,208.27805780124618L531.0055929746504,208.55834582731586L531.3608248565179,208.4669555369719L531.7428826754112,208.53048713792577L532.3017093003837,208.86580708774545L532.9715105911546,209.5455961590851L533.4485887027731,210.22909018255996L534.4702333359983,210.92868712578365L534.8551149377345,210.97318572093536L535.0798880521761,211.12706149366932L535.2363256217741,211.297409927447L535.3265454836637,211.68140840619435L535.4923015366494,211.9393831192765L536.019642982903,212.23097905134728L536.2204139431633,212.19973084418416L536.6132021368649,212.3252327481805L537.7137715006029,213.53077711546393L537.8988704660751,214.59104382008627L538.7115551687912,216.53443927520493L538.8960893776948,217.21845413847313L539.368367058476,220.01631611662287L539.1651958827988,221.1212574293777L539.5345466788876,222.4219596549292L541.2100382298122,224.3042423210527L541.783266147293,224.7835984321846L542.0347240096162,225.10581869442285L542.7153968643397,226.30759167666656L543.0500151314409,227.25037885884467L543.2287605855126,227.5706785087159L544.3149286567423,228.45825181887994L544.4379043996269,228.94714051237133L544.4520233138519,229.6505890190574L544.2488521381729,231.46765996955855L544.8987457598887,234.23464176371635L546.3712073242768,235.8797265251842L547.2606989203668,236.71644099257537L548.0376627700953,237.1958983270688L549.7944792669477,237.61532582484597L550.2995128287293,237.7734980649875L550.587962246318,237.95658919560447L551.0017876222155,238.34836260427528L551.3260990819344,239.2574873509575L551.642927517114,239.742963590179L552.4821557785672,240.38944916693254L553.8021330693409,241.0238722175436L554.429436428296,241.12726209112043L554.8835007097296,240.98895678363078L555.6570760200466,240.28656257813964L556.1992423262345,240.01535887436967L557.2114272869312,239.99908649216195L557.6541964369844,240.15909746397574L558.7023846289521,241.73182397880373L559.0502746754228,242.11959820541324L559.3642793277577,242.34466524342224L560.3017752322085,242.70530761270402L562.3326398541412,243.2313414388882L562.906573717335,243.59196194601464L564.5037052943171,245.05062186140276L564.8967758663039,245.28648815055385L565.7416516934481,245.37324261078174L566.1121320026778,245.54946102453323L567.3771867171199,247.10280231581328L567.7273357898666,248.03527007484627L567.9916418641333,248.49335020877788L568.6672319097361,248.75084458218316L569.3449397924724,249.4623186469389L569.3449397924724,249.93644609382773L569.8532207045264,250.42766591193322L571.0250905850899,250.98662014388628L571.2368742984454,251.20680837762666L571.5757282398135,252.4093164766182L571.6463228109333,252.49399642458502L572.0416524091943,252.6464190972938L572.4652198359036,252.95125968469438L573.7923977729297,255.6098781273031L574.0120880782524,256.232297702054L573.9335869151691,257.3368749812935L574.1594895427461,258.04776290117115L574.63953262635,258.64028424369644L575.3879762693487,259.06349911406505L576.3904191792317,259.30049410588435L577.3081486037681,259.63905173549665L580.2166449338456,261.1453691566794L580.8802339023587,261.4331074423608L581.9534125725004,261.72084008375805L582.6170015410135,262.1439660686365L583.0546878819459,262.63477692207834L583.8312281642502,264.47923271230775L584.8624736591464,266.3006147260412L584.8730628448138,266.57691575780154L584.8873229481815,266.9530355037059L584.48069821854,267.68122196529566L583.8481708613181,268.04124133478854L583.2459991696778,268.32850609762045L582.9907292005137,268.7873060069005L582.926911708224,269.4183016424977L583.2584238141953,270.0169611790725L583.7984722832498,270.33632650346954L584.0438590124577,270.64181459035535L584.059813385531,271.0624846310875L583.932178400948,271.46386061693283L583.5172235119135,271.8845071193873L582.4640936999695,272.13296535880545L581.8417319609907,272.2667488243924L581.5545532456817,272.57270415658877L581.5066901264654,273.06959316123994L581.7674664721744,273.6459498291915L582.4158070133253,276.65166915411555L583.2663304061607,277.6552988152371L583.1392601781481,278.16249799240177L582.4478569486146,278.66545323622995L581.8826768122399,278.5344329386544L581.1767311010553,277.9258072199409L580.5978556178852,277.9596204206664L580.2307638480706,278.24702948795675L580.1742881911741,278.8049251737093L580.4566664756476,279.3626306489814L581.8544389837916,280.71496594652854L581.7414876700022,281.39108698292694L581.1484932726089,282.11788244813306L581.1626121868339,282.591125314957L581.5155850424253,282.8108400445517L582.1509361824901,282.82774104173586L583.2804493203839,282.52352012285246L584.2354526784729,283.1574756137252L584.0711085169096,284.36548156109257L584.184059830699,284.63586662828493L584.8932528921541,285.19520997336804L585.1824082554558,285.51897725669187L585.3128670228816,285.89849915195646L585.4621039462254,286.09940860852475L585.8632222993219,286.09940860852475L586.1896515961707,285.5747402141269L586.4041179032283,285.07252802580115L586.7305472000808,284.9273699658079L587.029021046772,285.172904240756L587.2055074745658,285.51458380258464L587.1875764535016,286.0547998490374L587.1501613308083,286.4120040785774L588.6597556396064,287.32237946067016L589.0127284951977,288.42056737709845L590.184739564902,288.9273957250489L590.9471609329812,287.99819709906205L591.3001337885744,287.812350339741L593.316879496284,288.4403340094523L594.2142776843393,289.038895621532L594.3780570893359,289.5355667266449L593.8838950915051,290.2617913758986L593.6015168070335,290.4307149835813L593.4179709221244,290.24489890861514L592.7967386962828,290.2617913758986L592.2037442988894,290.53206821864933L591.9637227570856,292.069173496061L592.2319821273377,292.5083169887466L593.5732789785852,292.96433676831566L594.6745542880326,293.79189218990723L595.4904863410193,294.74926518949724L595.4791912096407,295.403971878387L595.233380913005,295.7514933071361L594.8883146493772,295.82849403144155L594.2086301186519,295.86885170662663L593.3895919045353,298.5028377242188L593.5309222359137,299.04325324713955L594.3215814324412,300.02206233816923L595.6657020665334,300.7131657695463L596.4111807375448,301.40626240445727L596.9476994780453,302.21646562871683L598.1195693586105,302.5709155569057L599.2349635822811,303.04333344562747L599.5314607809778,303.2458659602771L599.7432444943315,303.785939084386L599.7714823227798,304.74789541047267L599.8561958081209,304.9335288921311L600.1526930068194,305.13603548377796L602.2705301403712,305.6422898155697L603.0754494402609,305.69291429439L603.8661086367883,305.406039953491L604.0637734359188,305.15291090774554L604.0920112643671,304.54538349652285L603.5696114380899,303.71843102415824L603.6966816661043,303.4990276968347L603.9367032079062,303.3808860932859L604.5579354337478,303.4990276968347L605.2780000591556,304.1234747561257L605.4615459440629,304.41037401107405L606.040421427233,306.45209191761387L606.3086807974832,306.77269311044256L606.788723881089,307.02579440071986L606.9722697659981,307.4307474463103L606.4498699397209,308.8817380597129L606.139253826801,309.0504486521104L605.7298053143113,309.10106145426016L604.7838380613266,310.2312001803966L604.7838380613266,310.36615648568204L605.5886161720773,312.0024036585055L605.9133511992204,312.87949253761144L606.0968970841277,313.90831895750034L607.2264102220233,315.240458509993L608.8218475292979,316.94361450700853L611.5751769920571,318.9667428029952L612.5917388161615,319.8771361852623L614.356603094122,321.15833573665714L614.5683868074757,321.20890712869004L615.0343109768583,321.107764171903L615.4437594893461,321.1414785675988L617.3358351844599,321.79889394087604L620.8796826546004,323.39999969700693L622.5739523614429,324.849425073352L623.1528278446149,325.08536462048687L623.8730336591652,325.11906996336165L624.5789793703461,324.9505424822064L626.6195860430962,324.7272406168586L626.9933137025964,324.7678565273118L627.3331559679609,324.95037395376494L627.604945066767,325.17333540428626L627.7918794910875,325.63980776741755L627.7838317099795,326.1428332195701L627.7409102107395,326.47109656824796L627.7068836274611,326.81586636301563L627.7409102107395,326.93752808081626L627.8597914685033,326.99835856519167L628.1646188265913,327.01234448613104L628.6233423497179,326.5302438625504L628.8961197725221,326.5117076988554L629.0999968939104,326.63337191362825L629.3888698789287,327.1200187849163L629.3717859927165,327.4443849885092L629.2188781516743,327.82957116653597L629.0999968939104,328.1134837041336L629.1169395909783,328.3973908039525L629.2359620378847,328.68112398041376L629.8985626824033,329.0056245073747L630.168233944074,329.0017494131862L630.4421408800135,328.7825522187177L630.7479565620979,328.8433751317689L631.4164871505891,329.4884870135829L631.8132286402742,330.2169630034923L632.189074136908,330.8505597575295L632.958837340384,331.65174039897556L633.5172403979323,331.76241312817456L633.823056080013,331.7219848296827L634.1117878758905,331.55976517376257L634.3156649972789,331.41792680365506L634.417603557973,331.41792680365506L634.4856567245315,331.41792680365506L634.5875952852257,331.41792680365506L634.7064765429895,331.4787389075482L634.8932697781693,331.66117372315694L634.9272963614494,331.86382029201104L634.894116913023,332.0585470546939L634.8253578007552,332.5125065270531L634.8932697781693,332.79616097768485L635.0122922250757,332.9987920412332L635.1990854602554,333.1812081624539L635.6748928695943,333.34341008708634L635.9297392713288,333.24201303774134L636.6431680070527,332.83675478734585L636.9999529694851,332.87718004757426L637.3057686515695,333.22180091848077L637.589700016606,333.93695632141316L637.772116388378,334.1774671610756L640.476876786206,335.8622811303303L641.3806284856637,335.96921758449935L641.6610301221463,336.09720350885345L642.9620880678576,338.2312061903649L644.342494311506,339.20288151731256L644.4602460561327,339.4156953498323L644.4915900457108,341.14200118515964L644.4548808687287,341.54383430709095L643.9919216713333,344.31091860663764L643.3233910828421,346.703739044372L643.2727041807775,346.8659616268669L643.0554140908771,347.01774920382286L642.7762831566761,347.0116911927489L642.5066118950035,347.00007999795525L642.3381732483122,347.10037349736194L642.2400467944608,347.28429924753164L642.1979724300745,347.46822272253576L642.1557568765456,347.63548509689554L642.0576304226888,347.7859186635342L642.0435115084656,347.98666265209977L642.0576304226888,348.22072032664073L642.0997047870751,348.5217423586182L642.2540245195414,348.9898371814579L642.6816864313769,349.51192556537535L643.3269208113979,350.0339956239859L643.3099781143283,350.2469909071433L642.8652323162823,351.0938945871276L642.9060359783907,351.65493752088514L643.2728453699201,352.11570028851384L643.9416583366965,352.286947654743L645.6209619944602,353.93438795083694L646.0713553581954,355.3401357370194L646.1876952113998,356.65292173667785L647.6286715970655,357.4189123647202L648.0598632374586,357.61969460920955L648.3217690963102,357.9686187873085L648.2390322589581,358.2738156435116L647.3663421707915,359.1949173284811L647.2439311844719,359.208704836341L646.4819333838223,359.70807304467235L646.1508448452751,360.78191020151735L646.648818949945,361.3604085237939L647.4312891762202,361.5913980925916L647.7608246342006,361.5228076773383L649.7546977008697,361.96006616607883L649.9011108413688,362.14666622912955L650.1174126072747,362.88312529399263L649.8821914963082,364.38702945101886L649.4641304461438,365.31632503418587L649.7506032157435,366.0467453354495L649.9448794754608,366.351104579262L650.1388733568947,366.35530607146575L650.3934373803477,366.1534650485637L651.0330241946813,365.8440598092493L651.2124755944642,365.90103387977797L651.34293436189,365.98859537506087L653.6296337095573,367.55722036305906L654.3159541299683,368.4974087902456L654.456296137354,369.16197451829885L654.8284707162893,371.3507153704559L654.7560406863231,371.77609393184775L654.5788483128144,372.1008317277701L654.0112679610229,372.6412617417918L653.8556775262768,374.0912713542184L653.8048494350714,375.3832604589361L653.8380288834978,376.03089260946945L653.4099434042346,376.4870398949188L653.2707309099897,376.84190478842174L653.3701280661244,377.24411959436657L653.6287865747036,377.52793062397086L653.9470269013036,377.7408693240459L654.2453595588522,377.8829387247779L654.3845720530971,378.0957044380375L654.4044797221522,378.28495758180725L654.3845720530971,378.45053112594724L654.364664384042,378.66345667876976L654.16572888263,378.9000557257623L653.8782677890358,379.00097440673017L653.7480913998952,379.1366510269454L653.6883683927281,379.25486331567845L653.6287865747036,379.3967504105158L653.6287865747036,379.609662482394L653.6686019128156,379.72787102989605L653.8354874789384,379.77169526804846L654.2055442207402,379.9407783849274L654.5237845473421,380.2010316790502L654.8818402120542,380.67400945214104L655.040960375356,381.07612113487085L655.2198470185704,381.5018944089361L655.040960375356,382.02217423139155L655.0011450372458,382.4242496560164L655.0806345243254,382.7316328031802L655.1999393495153,382.99166964717915L655.5579950142255,383.1100193280372L655.7569305156394,383.2518698391077L655.8762353408292,383.4883962789336L655.9160506789394,383.7010822253915L655.8762353408292,383.9376015609596L655.836420002719,384.19778529601626L655.7370228465843,384.4577966490533L655.5787498181344,384.6360587610352L654.749687174919,385.7265670716142L654.4709798081458,387.79893483629166L654.3752535697095,389.18505241670755L653.4825146233452,390.87674743484695L653.592924532577,391.04939629386445L655.5180384869727,392.4283345436452L655.7285514980485,392.34495424593206L655.7923689903382,392.2083907434926L655.8498329712293,392.0719937665099L655.9582662324665,392.0037109264249L656.0476389595024,391.9886114848632L656.1943344782885,392.0491769307473L657.1902826876249,394.5239299555851L657.2223326229141,394.9704558679441L656.7623383975078,396.59675781852366L656.4292732109698,397.4827967083502L656.3369355119448,397.64295904213395L656.3520427501644,397.8175424220344L656.6231259032611,398.48868841386775L657.6056611440872,398.52390513997125L658.2404475275835,398.9961366751377L658.3512810042375,399.32279950260636L658.1315906989184,399.65364736051197L656.8618767427834,400.6885687935246L656.6462809225886,400.8072817215534L656.769256665475,401.5503898861434L656.9814639462566,401.75594534609445L656.9657919514702,401.8937631716126L656.3410299970728,402.6436912645395L656.0503215532062,402.75115609140903L655.9190156509267,402.7015312436197L655.7406937642809,402.4475366314591L655.4741286637382,401.6996106878605L655.2835233217193,401.6875389478537L654.96542418426,401.90432579942717L654.765359169709,402.1462582384047L654.7330268561363,403.03683107679717L655.686618322803,404.8778289384627L656.7020506337703,406.085201077055L657.7762176279084,407.0271621519678L658.2338116378978,407.5713607678199L658.8729748848054,408.728408624831L660.0503511419156,409.6976860011637L660.3020913825239,409.8032570412679L660.722693837246,409.77058037005827L661.1545914233502,409.2849463843704L661.3816235640661,409.3012014681308L661.6375994789396,409.43308484778663L661.7470210641732,409.6351808927575L661.8311697929475,410.60775102321077L662.0319407532097,411.80779298823927L667.4269190672167,414.4600450264543L668.5797284135806,414.7438221795792L670.2145574915394,414.5032652692962L671.402805312604,414.1894968840061L671.7752622698263,414.15884003808424L671.9439832947974,414.2221639460913L674.1233788943646,415.25809179819043L674.4178994450704,415.57200538713823L674.9861857425749,417.1444898556674L675.0265658372518,417.3193490801732L675.0442144800327,417.8243190469575L674.8409021152129,418.25725657947805L674.7153849677634,418.7832965938669L678.1390804778621,421.6446254003922L678.5704133073959,421.7767354178577L678.8461557021856,421.6612020061375L679.2505214055509,421.64680212744133L680.368033466355,421.81474404201435L680.7118290277012,421.98954898935153L680.8017665113075,422.4067955029559L680.6872621169514,422.65911352423245L680.422814853544,422.80460885454613L680.1822285551716,423.00719494660007L680.1374715970833,423.2241766953721L680.2005831436618,423.71103485391995L680.8636073556063,424.9666142474216L681.7187899901328,425.7373207212486L683.8507460379078,428.2813430094411L685.6013502125024,430.0720609720911L686.3355337521334,430.55719175252307L686.6743876935016,430.6073941151126L687.1261929486609,430.47352077656797L687.2815010051199,430.5069892226975L687.4650468900272,430.7245323108191L687.3944523189075,430.9253385281245L686.6461498650551,432.0297249036539L685.9543230680938,432.732474107097L685.4772449564771,432.81496132956545L685.2723795110905,433.00653741731094L685.1753825703745,433.2749071618309L685.1753825703745,433.55598755806295L685.2939814498513,433.8370627144732L685.4449126429045,434.0798204333514L685.4449126429045,434.2586656253834L685.380248015761,434.52701308510404L685.2400471975179,434.78247409161304L684.9658578832932,434.97419247603193L684.5823881729793,435.1657411329488L684.4152202285695,435.4258753698714L684.8811443979539,437.46647700709764L686.3211324596268,439.52352689885356L687.0553159992578,440.22592707086915L688.2977804509392,442.03178166386624L688.8201802772146,442.8343886914936L688.6931100492038,444.0215000435328L688.2778727818841,444.7223535317944L689.3565578285725,446.0275061781558L689.9354333117462,446.55491835590965L690.0215586885097,446.87118966558137L689.9354333117462,447.1976509401975L689.7630413690731,447.49351604923777L689.7199786806923,447.67721695075943L689.8233291328088,447.9118962007333L691.0084707927435,448.7853924963438L691.9544380457301,449.7880291382389L691.9626270159806,450.0051273973877L691.9397543749365,450.27653761822876L691.9854996570211,450.4032163368156L692.0390103419304,450.457530765736L692.1001452405199,450.4847714673888L692.1995423966546,450.50282049421L692.3676986650571,450.50282049421L692.5817414046869,450.4937959834906L692.7957841443185,450.3580934321044L692.8799328730929,450.21319786091135L692.9992376982809,449.9050185797714L693.507518610335,449.62089979417215L693.7193023236887,449.6543258107977L693.9452049512674,449.9050185797714L694.9758856895969,451.25868770846864L695.0605991749399,452.34471067224604L694.4958426059911,453.14677019692954L694.4109879315074,453.44753155443505L694.6792473017576,454.04903633098L696.1334954667964,456.6049978348501L696.3452791801519,456.7052293742445L696.4864683223877,456.9391003848932L696.5711818077307,457.25649097664973L696.9241546633202,459.8954195862616L696.9523924917703,460.22944953164097L696.6982520357433,460.7471813873435L695.7662625078374,462.1164133455377L695.3709329095764,462.4002976388783L694.5661547988257,462.717573789314L693.2530957760246,464.27046121069907L692.9001229204314,465.6560701667431L691.8749485586504,467.1712627936786L691.7348889295517,467.5238288704604L691.8184729017557,467.9298038947054L692.1663629482264,468.56261581961826L693.6336005143512,471.2257785702268L694.5389052943738,472.5712023423721L694.6398555310734,472.7065391622409L695.7311064114219,473.41140587307837L696.4558302785244,474.6303275133441L697.1499161017582,476.6538049982173L697.1922728444297,477.3044371992628L696.9240134741794,477.98823828329023L696.8392999888365,478.4052767708654L696.9907959384582,478.66550298569837L696.9804891310741,478.95575004322745L696.7404675892722,479.03915334437534L696.2663544496409,479.50320095066945L695.7521435936142,480.0065981777925L695.5731157612572,480.37020806673536L695.5403598802604,480.59037129310946L695.7097868509445,480.7905169126552L696.4580893047987,481.0406952301091L696.6133973612577,481.22398992980834L696.895775645733,482.64157218025866L697.1357971875332,484.12572251805614L697.0228458737456,484.50907668374566L696.9014232114205,485.81564315796095L697.2911052439958,488.59364137389275L697.8417428987195,489.3271096361832L698.1523590116376,489.5271402994267L699.6596942941578,489.6644931656165L700.6581839080573,489.65632537207784L700.9247490086,489.73100217840874L701.0128510333561,490.3630733270138L701.3855903688618,490.8697780762841L702.0474850676674,491.39779981508946L704.3968723944872,493.13624198052366L705.3095190099048,493.6108583636542L706.7507777738574,493.9766428492949L708.4406706172904,494.1164551906104L709.2300591115363,493.9529796085053L710.7904815115362,493.04524993067207L711.582976166912,491.95746952938407L712.1545098146853,491.49880188663064L712.8909523805942,491.33613155412786L713.5189616852622,491.52013557179544L713.8668517317328,491.69247065104446L714.6433920140353,492.42678955765587L715.0104837838517,492.9934208826535L715.5752403527968,494.15978175816235L716.2247104070884,494.92630834281226L716.8318237187068,495.30955716973585L719.5752699415079,496.3176221779986L720.2699205213121,496.75698435189406L721.8591455063306,498.55595451135014L723.2243033226168,500.26676172959196L724.1849542463951,501.246516363316L724.743922060512,501.66641572882327L725.4426671254423,501.9289094190699L726.4558404101317,502.06881537760455L728.9537587145842,502.36627782860796L730.0070297156726,502.42440391209493L733.7352702055741,504.2408573046705L734.7002979927638,503.7440895331756L735.9916138876597,504.15209643259277L736.356023063774,506.30352785803734L736.1634410737624,507.74591608882656L735.2417583532424,510.1372196906632L733.2124468118709,513.2885936565172L730.3886639671364,514.9979167098645L728.2887578546488,516.6636196202917L726.3798806516079,517.5448211957591L723.8534421404238,517.3459895523711L723.6871213308696,515.3923103240068L721.1157846724527,515.3049455275122L717.7412229838519,517.9606122334853L717.2721926533413,520.8999440629068L718.2915782602886,522.1940824754029L720.2717559801622,522.8683883450476L722.1227456348843,522.6661329699264L723.09003244835,523.2988374326387L721.2847880757108,525.4558902838371L717.8764821821151,528.4937093847775L714.8753657747311,531.868542220428L713.798516186891,532.0176494619063L711.7991367436771,530.233919219475L707.9771466633247,528.7835086904824L704.6299756683202,528.6343699734907L705.5701541664766,531.8402831594267L705.5032305130535,533.1210312128478L704.9780069039316,534.0129205128951L703.0877666676679,535.4435581656762L703.139441893727,536.6236340589148L705.7699368027388,537.6778315307192L706.6502511045855,537.7283461102807L707.0746656661504,537.3132575606469L708.2228157708178,537.6258212799485L708.6252048261922,538.1977581801848L708.6372059032838,539.3337590390029L707.1586732057785,540.9712334827254L704.2260335323808,546.6402377839377L702.9636614116425,547.8822227506871L700.0911683128343,549.2322008661522L695.3991707380228,554.2846830690887L694.2959187805845,554.5764856829646L691.1584136618003,553.379694598033L686.6242655480073,552.5329211110184L685.10111708156,554.8231359085657L687.5393123788435,557.8003868759324L691.0999613569129,559.4777102052567L692.0120432157619,559.0673570263643L692.3983367089222,558.314488971333L692.7539921582193,558.1663005545224L694.1623538520289,558.0645757652528L695.3281525994789,558.7520762290706L694.6968959445367,560.7901695991077L694.5839446307473,562.2267779080985L695.2447098164175,565.6021724515331L694.9955109803686,570.7656864235996L692.6691374837337,575.7179580918091L691.2016175393237,579.536515164621L689.4063975957833,581.9438424616737L688.5955483519174,582.0064730379172L687.9700804518088,581.2562149501882L687.5659971267269,579.9348900956875L684.996213548875,579.9098676797694L683.553119326074,581.6633272698364L679.8591877977324,582.5394854242777L677.9504517838359,581.938540390659L677.1233657886114,583.2076717602004L676.5827525629884,585.808734158778L676.6488290815541,586.0815544742791L677.3022524318258,586.3916394822263L683.0713819727607,586.6858169493653L683.6967086837285,586.5420417240157L685.6734978641853,584.9776543979087L686.5915096670087,585.2697052550366L688.2044544279215,586.6174079361954L688.6678371927428,587.493119839929L688.816932926944,588.3768976038582L687.0677406437735,590.6102984016989L684.916018116086,595.6542205574606L678.9821208461599,603.9854144915917L677.3295019362758,607.0226880843666L674.4800226676543,613.1769743055211L674.4037805308471,615.8368309728812L673.8976174559284,619.9093146445484L675.0850181421392,619.9512968683212L676.0007709186866,620.2850019333409L677.8654559202096,621.733784036498L676.9988369651583,623.6411580151271L675.0603100422486,626.0297557090189L674.7533648470271,631.7651244851277L673.9090537764496,633.483342010205L673.0204093152115,636.5947761308917L673.1239009564706,638.9757773603123L672.4241675675457,639.757093223483L670.7866558958831,639.7833400034106L669.4840448696068,639.4919817651526L665.9762006307355,642.9615154583116L663.7380703479976,646.2147824065687L662.9035013282337,648.0794040439841L663.1070960713423,649.1908774073045L661.851642218573,651.2746977072748L659.2270772535321,651.8223308248735L657.4132203432182,651.6740429063084L657.0716838081462,653.1139762749735L656.8406983714467,656.1266866145561L657.1969185773123,659.5846189471777L657.1887296070599,661.7873914561205L655.2324128522305,669.3786668755856L654.4769097521203,671.028673093756L653.8757263844745,671.5270183043049L652.782498856137,671.6401940041978L652.4669411232371,671.3683732643367L652.4368678359406,670.8472879846886L650.1042820170478,671.2243887354871L649.2075897747018,672.0902529071845L649.0035714641708,672.8425736670624L647.583491071553,674.4344031480159L644.5778566116169,676.2586153157754L644.1451118906607,677.4812262024661L645.0889613065137,678.7864032846883L646.6670323492926,679.3834617972216L647.1566762945713,678.7374981491839L647.9342049008683,678.5710219515222L649.8043962789361,679.4498185274933L650.6769451779601,680.9054797164872L653.5655338389806,680.9247427378896L654.5285849781776,678.0496815234374L655.1332980743773,677.5365576351578L656.1697675675387,677.4499375084761L656.8863024643906,680.7108724846903L656.6400686003308,688.8933298200645L653.3328541325736,700.7151675986233L653.0140490494032,701.5669148789057L651.7016959723132,703.1760656222004L650.7420333725295,704.9810064644244L649.5616921434321,708.1797117910364L648.8876551783942,711.6337836634348L648.7459012795862,714.3001568174122L648.9710979614556,716.2230906969826L650.3964023523349,720.5556944706968Z" class="state" fill="coral" stroke="#111" stroke-width="0.5"></path></g></svg>