<svg width="800" height="528.8000000000001" xmlns="http://www.w3.org/2000/svg"><g transform="translate(0, 0)" id="single_state_map"><path d="M732.9943756946432,229.21021367179583L731.2150014861872,229.75696800993228L726.9389398140411,230.34835892226874L714.8403854133794,234.79591809568683L709.0476276262361,237.70228382902405L700.9346389450438,242.96867641874996L695.3718974863186,247.13668496729952L688.452032010473,253.42958842484495L678.0521661868224,264.37674280852207L668.4640005834881,276.5501654934451L665.5355135141108,282.0634456906819L663.7904618384109,283.6559244083446L657.7752995748742,290.31214084618387L655.4540998996563,294.0705850101531L650.7373811940088,303.54802884082255L649.0690016277822,307.79542275381846L648.4408162398868,312.3222333684125L647.5559038428346,315.32308449829543L647.0157391437879,316.24488347804163L644.5265251348192,328.3486980725911L644.4926177939851,331.0272041767539L645.6231854154303,336.21831445714724L643.481348653344,341.6534361157828L642.4072471341824,342.9258844701826L639.6639356649412,344.6530014910504L636.5072314321678,347.71326436191066L635.42385729327,349.727852198097L629.1266413129397,352.22165341994423L623.8235332068689,355.49060728214863L622.8187687397749,358.41150802602806L623.0710670350236,359.5576409337473L622.5220449081698,362.03885768250893L619.664417261265,369.246615204981L613.6093965725886,369.7035826178435L611.8374958188415,369.2230155593761L610.878125669271,367.85813179681463L605.6743868314352,369.0870280448753L602.5670904381604,370.13891778991365L601.8435493040051,367.7348403461192L599.3252718600361,364.93186491326196L597.176515232477,364.5130476397071L592.3172472980259,366.83743857110403L589.1112736230643,369.2837474370399L588.2995734027481,371.7776614097802L586.3025002264167,373.7661498454445L585.52816727967,374.9265809730223L584.0063504642221,378.1467304723992L583.9919571440332,379.4423751907707L584.654465064692,381.100520323781L585.5864325469793,382.5617745076488L588.3954827382422,382.47801439962313L588.9781354113093,381.67336523813265L589.9103796882173,381.14817581050374L590.2338142005574,381.2538747945737L590.6285233272993,382.4399264749036L589.7643705266746,385.8125483167478L582.1327276879838,388.7183098819605L578.7728562048378,391.3387519280159L573.276407057374,395.0140935758309L572.6756243367599,396.72746527849995L572.1948320834999,397.4219158454489L569.8527344145423,399.06649232130803L570.2842572256177,401.07053392797116L568.9517679295896,402.32709877969046L557.2389268305506,407.10734966170185L556.2402518450763,408.85337541986064L553.1798721397263,410.42277755721716L552.0481973398073,410.6808175236238L549.5272903469577,410.32304915904115L548.7674891177085,411.19425088218213L548.5774696117423,412.25907408597595L549.3044706786332,414.03739169901564L549.029890416552,415.2008817706892L546.581365216578,420.5630623441093L547.0058297648666,422.33494748488647L542.7541260191974,425.53892673655173L535.4486856390358,429.67838629342714L534.5103518805099,429.71043490092325L532.8953936757571,431.8713360086631L532.2265194788633,433.5143549511022L531.1713783911036,434.2599709779688L529.6308779388728,434.7527008950219L525.9258435657939,434.5253144140852L520.4227513474707,435.6617188273285L514.287737013894,437.7637617771925L508.6191216133884,442.8290502450254L507.691444447697,446.2431382633422L505.33689102088647,445.9609321539274L502.68146184318357,443.5078590227922L496.9890421054424,447.5191546511978L492.6544383713717,449.9735300343864L485.0762168941528,456.21833924011025L484.2574584110498,456.11563967376605L483.4922596867291,454.13615463172573L480.71421049279525,453.2660160197074L478.3946715852926,454.86399283056744L477.5489256268356,456.10251507707744L476.75535545406456,456.67309614850546L473.85925335511274,457.4375549220995L473.51934956293917,457.20756526367313L473.2490596174539,456.5510415566396L473.16519084788524,454.1199107639077L472.47984737115803,452.9557203544937L470.2719950924329,452.0559737231588L468.5183627835431,453.07107693472517L466.63173066020863,453.3969585049781L465.75180056630234,453.1239142137965L464.61943377983334,456.33268599999883L464.01505272917166,459.0280273297085L464.6324431269277,461.312391503242L466.3718205129353,464.885348828886L469.3491618325752,465.13751724468693L471.1642425468908,467.2789719458051L471.58206402432006,468.73413828748653L471.6720222755066,470.7198644096943L470.9783749602084,473.09189658351625L469.43552175371224,477.1647960929813L467.862913125673,479.3682303967171L468.0873935617092,481.07590831822927L466.54426356059594,482.2694954300259L459.41278859849626,485.6057236080078L456.42921939992993,487.5330384845911L455.56299063966253,488.3430516321587L452.046591799457,489.783220522555L448.54541666329715,489.73886186981963L445.51562276335244,491.9265185997201L442.6686517092785,492.6736132077358L441.5382224851437,492.19295664942365L441.47234536581345,484.8700624907924L441.1430981664744,484.32463783775347L440.55034248981246,484.0128640344874L439.7599554551598,484.0908080995205L439.0354455398392,486.0387854896735L438.37681274384886,486.428448518217L435.4789114798732,485.025941205603L432.1858858972264,481.2072600124884L431.13199038525636,481.36317722163767L429.5513547132614,482.22052880339834L426.5875763299573,487.36327062819146L426.5875763299573,488.68780129837614L427.44370208662804,489.5445661358963L428.8268447979426,490.40144522347146L430.4733575892642,490.01205013932486L431.9223774199072,490.5572658690726L436.26929851452405,494.2177624304013L438.7658475809003,497.98451241071325L438.47396765512894,499.0277180304138L435.748786233431,501.61406818498926L431.23620355932144,508.2437494322312L427.41256269198675,511.56042578448796L421.75142074619544,514.4438142376175L418.6365125008979,516.5268678873153L417.3871999878902,516.7159100529225L416.4372408553645,515.9589100304811L416.00308849541034,516.0427325588689L414.21776320264144,516.5329133523346L412.23812808731236,518.1876447556651L405.78286237951215,525.9683699304087L407.58673291175546,527.3038402427928L408.53157134383036,528.7999999999984L407.4991274148306,528.7430232846509L405.0506022148584,528.4514427689755L404.057463121766,528.3143032698626L403.3725348369662,528.0570000529169L402.82461988858813,527.6454036544019L401.88296459463527,526.6850224016644L400.5448010089149,525.0080441839646L398.987000892992,523.2446463332108L398.3060861301692,522.8139719781766L395.61688800894626,521.8258401519506L395.0217795780227,521.4501695750105L394.38515195424407,520.6988000623969L393.83156271617736,519.5555024650121L393.471729711433,519.0000755417695L392.71054450908923,518.2802768420079L392.36953353844,518.1113494661095L391.75394230570964,517.9309838899608L391.0320619392678,518.0904376269827L390.47182963034356,518.5400357101917L389.6950055320249,519.6063066606239L388.1654384672438,520.4960871578396L387.391659109735,520.6563302216946L385.73518171212527,520.5192824886408L384.32242197657615,520.1607309182173L383.4278217678584,519.6954994603493L381.1248905374978,517.9914327408032L380.47608395048155,517.473851949112L380.1107150533571,516.9771666310526L380.02435513221826,516.357593872096L379.76306101185037,516.2843937030475L378.78431523894506,516.2923999890309L377.30678556254134,516.1577630981628L377.00231148160674,515.9616877826302L376.4625619744911,515.2427229067989L376.08058540022284,512.5196560134318L376.1996070864079,511.2389252017574L376.3103249340202,510.86315136898884L376.0750495078428,509.4083481850066L375.7982548888085,508.01879679052126L375.6460178483412,507.8391265064947L374.9125121079014,507.5938951417702L374.7464353364812,507.39770714304814L374.7785435122878,507.1818973597874L374.95403130075465,506.8254773862245L375.45807430201603,506.3320341883391L375.92281246737366,505.87716252341124L376.1580878935529,505.7954084146968L376.1681908971477,505.5109006174189L376.01969058403483,505.2558200394933L376.10272896974675,504.8470279487483L376.3656838578281,504.1767481469524L376.32416466497307,503.5389813563679L375.6438034913881,501.5555155222537L374.9334101016375,500.36069648126795L373.86373729638035,499.6697675981941L373.7647832200764,499.53710688893807L372.8773796714522,498.2182871321547L371.43915483095225,495.60778498127456L371.098143860303,494.9874860939053L371.0162126530686,494.5895387008086L371.15350278411097,494.2439441623019L372.1584056485117,492.7587125103082L372.5043989223068,491.40050217967564L373.7914939008133,489.8783210990514L374.58035856506103,489.5673186742297L374.9678710317057,489.2890478257059L375.881431671829,487.9468906589682L376.13054682895927,487.43939628124645L376.1028673670553,487.1119713461121L375.75687409326383,484.52522413742736L375.67383570755374,484.2141095342131L375.5354383980357,483.9848630203878L375.32784243376045,483.8866134300788L373.9023501457359,481.38119275990084L373.63939525765454,480.7915819625232L373.72257204067137,480.4967677719551L374.2761612787417,479.71056793725074L374.1931228930316,478.6460196732751L373.18282253355574,477.3191176012042L372.9613868383294,477.07338195757256L372.753790874056,477.0406168972031L372.2555605597936,477.3191176012042L372.1386148332531,477.6212030355573L372.056130036779,477.763233484191L371.84631971555245,477.89625269309636L371.6365093943241,477.90509875578573L371.4716781986899,477.90509875578573L371.3742464927909,477.887406625131L371.31432045777,477.8607045731296L371.26186787746155,477.80746414180885L371.21702714917774,477.68329033107693L371.23944751332056,477.4172468963998L371.23142046936846,477.2044414746024L370.3041584956045,476.2216306758164L369.1424514795199,475.36540663995765L369.0411446489543,475.13536786869463L369.0833558283557,474.9552994149617L369.2523389432772,474.66528465587726L369.33676130208187,474.3452787308288L369.2523389432772,474.0352612773431L368.6849099742558,473.5182779934221L367.6275545295466,472.23893305298407L368.0345810168383,471.5519380361984L368.1591385954016,470.388300276124L367.6470685501881,469.60156376463783L366.42917222644064,467.8314176111153L365.7095062169519,467.1429064942449L364.2979920571888,465.12653210418284L363.84128093578147,463.1262807256844L364.00514335025036,462.8712903069254L364.3810304428971,462.683529277012L364.64979801797926,462.49560187573934L364.787226546332,462.24519228030476L364.8506125140884,461.9821510446063L364.8506125140884,461.8068422849865L364.7026657902152,461.56888478609653L364.58641205022286,461.2933675274535L364.58641205022286,461.0178451325992L364.6814910018602,460.7547820527552L364.88230549796936,460.5669941344231L365.3499500068265,460.48613799011673L366.02809682346015,459.79728474346575L366.7616025638981,458.7147361804591L366.83080121865714,458.5179006464441L366.6508847162859,458.3046591915918L366.4986476758186,458.2718525407063L366.0557762853641,458.40307870708966L365.7236227425219,458.3538690313053L365.003956733035,457.8783310847466L363.2879684923337,456.1230222542781L361.19816911862654,453.62930471722757L360.35989661488384,452.8738379673405L359.70998284939196,451.64308603278823L359.64811925203867,451.165854864782L359.6919911991554,450.9531636495194L359.9278202145724,450.7545834354769L360.18703837529756,450.6119650871842L360.29927859331656,450.36463632851246L360.21111950715203,449.9556403251845L359.87412205847977,449.7842919196455L358.77870735365286,449.61967083927175L358.3823374591957,449.63378597898736L358.1120475137104,449.74703486688304L357.6892437331353,449.6175371541849L354.33324737465955,446.8127874249003L354.45628258281977,446.2971491715889L354.655574708524,445.872772418953L354.63827504483197,445.3777875802989L354.59869341431295,445.20638597085235L354.0416442435053,443.66499534935065L353.75294745585416,443.3572889957104L351.6166465861497,442.3418452773558L351.4512618012777,442.27977351774734L351.0861696987704,442.3098241641828L349.9214179418759,442.61738818537924L348.3189154949814,442.8531883938185L347.1889014627741,442.5750225669526L341.9006018688233,439.9752153832369L341.70380089468927,438.79890269632415L341.621316098217,437.84556388259625L341.51405818334024,437.6474640255892L341.2631438611879,437.518188469232L341.04060098748414,437.5022548087336L340.6172436176712,437.97828601031506L340.2049580326202,438.0103165426053L339.9581956297516,437.9068330333075L338.8041004656916,436.95672186374577L338.1775758455078,435.82255313195856L337.72903016536293,435.289115340046L336.6761034345582,434.3657803273645L335.68074998451084,433.1822824115925L334.7460145560344,431.3776879020961L334.77770753991354,430.50472499000716L334.97381652749937,430.26757645217367L335.2856256658415,430.05507628026953L335.4724620336892,430.0669093172264L335.7337561540571,430.8000459924133L335.9085519559776,431.04901818955204L336.03726145382825,431.09766177014535L336.32222151412316,430.99232192126783L336.93462960873694,430.25722268666595L336.9499917100911,430.1221300304387L336.7419805538884,429.92063916391L336.6214364972984,429.19222500238175L336.8327691889299,429.0758594689996L338.07737619341606,428.0614022690961L338.2927224070245,427.737096499769L338.184080519055,427.4168930073156L337.5618462154671,426.9539992401269L336.5987393385385,426.9194788792447L336.3330165042644,426.26160393155897L336.3182079921462,426.0904727122461L336.4087198325724,425.9334773815117L336.73519908572234,425.0649587650187L337.1860975201289,423.4708148325835L337.1546813308669,423.0331183927501L336.1784267095354,420.60730040894214L336.03463190494585,420.5479325664346L335.9470264080228,420.56273343606335L335.84073727431314,420.62966607128146L335.7844095693399,420.76336597441514L335.72185398543843,420.89722911018L335.5155035969474,420.9789606703225L333.62845628168725,419.6272891413628L333.5202295856434,419.4580541902851L334.39531577371963,417.79981025364395L334.48914914957095,416.4411013560284L334.7623454385557,414.4097119841754L335.575014440039,413.3407670653305L335.73015782401126,413.16602985610643L335.82758952991026,412.91115989136233L335.8666175711933,412.65612095323013L335.9056456124763,412.4242784816861L335.8666175711933,412.21579812480104L335.74967184465277,411.98394868947526L335.55467003554077,411.8449030888387L335.20369445860706,411.72889361988473L335.08674873206655,411.4739986682289L335.00883104680906,411.1726936253317L335.0478590880921,410.77856872231587L335.22320847924857,410.268576760589L335.0478590880921,409.85122260246317L334.8918853202649,409.45706215829887L334.5409097433312,408.9934369090761L334.2289622076787,408.7383297873175L333.86622285943486,408.5725900704383L333.7026372395867,408.5296323999273L333.66360919830186,408.41376127360036L333.66360919830186,408.20505926263195L333.72201286291966,408.0659778016252L333.780554924846,407.9501030080446L333.9081572442192,407.8171092175544L334.1899341663957,407.718186073007L334.38493597550587,407.48626546622927L334.4044499961474,407.2775502408849L334.4239640167889,407.1152506994813L334.4044499961474,406.92973979191174L334.26799024896354,406.7211812455098L333.97555673395254,406.58192108347157L333.66360919830186,406.3731929708447L333.41006532726715,406.09499393736223L333.31263362136633,405.7007324091128L333.44909336855017,405.3528845100118L333.86871401100507,404.9057569473007L333.8361906432692,404.2709308851081L333.8860136746953,403.0044891942998L334.0385275097833,401.5831516469898L334.5948846940428,401.0534079376803L334.7685733174858,400.73509141176237L334.83957113726683,400.31812416137564L334.47475582938205,398.17266282936725L334.33718890372074,397.52123802925416L333.6644395821586,396.5996406124832L331.4229567572238,395.06203315527546L331.2950776432299,394.97620307533816L331.11917466283376,394.92035559338274L330.4922348507225,395.22364274417305L330.24270450166114,395.42149262184284L330.05254659838647,395.41737420871414L329.8621119004911,395.1190332753895L329.58130375947985,394.403056091096L329.99109819296064,393.4921361264396L330.2216681106147,392.01796972945976L330.00964343243686,391.29607319030856L329.8661254224662,391.1131629022166L327.9116786174691,390.68455063468355L327.5886592970546,390.75178476316796L326.8216614077137,390.5253627144066L326.33353409704614,389.95830344841306L326.6580757878655,388.9057000327939L327.4050060673253,388.41620618506295L327.5249965346775,388.40269130734305L328.38043030480367,387.49980321714156L328.4615311281814,387.20064123412794L328.20480411902645,386.85861658046633L327.7821387357599,386.661804545236L326.3696557948315,385.9109603913803L326.25561641178865,384.62413303733683L325.81412899442876,383.2461820958906L324.16803139503463,381.63131780139156L323.5124433398523,381.4634566303939L323.1528871297287,381.0118048506956L323.11289030727676,380.4618558154825L323.54884183225477,379.6316985606618L323.5654495093986,379.4229149838102L322.9329738049073,378.9111681855338L322.51376835437986,378.39940342430964L322.36250009507603,377.94056457131046L322.3212576968399,377.6454948607725L322.3074179658888,377.416065374091L322.3212576968399,377.2192908383222L322.4174438269565,377.0718319009429L322.4588246225012,376.90787692375307L322.50006702073733,376.72759029764075L322.5962531508503,376.5473014413519L322.7613611411052,376.44899111620816L323.025700002283,376.46037271463956L323.299311483197,376.46631093637734L323.5123049425438,376.317524762484L323.5619895766613,376.15850992179185L324.21730083722287,373.8130044141217L324.6711056151307,371.1006356285561L324.7070889156039,370.7067482370103L324.6763647128919,369.0145778673368L324.56094135675266,368.80597215317175L323.20783086160554,367.8535104493667L321.93249965440737,365.7617049114597L321.6576425977055,365.63624974326467L320.77176141948985,365.53142781919996L318.1204841610743,363.8799288675991L317.94167483717683,363.6441738187932L317.66335784773946,362.94315968920546L317.3635892753264,362.6053532504011L317.01385927417505,362.56572734742076L316.3145376691864,362.9629721399433L316.06473052550973,363.0623641937509L315.5983315924368,362.90336960243985L315.4152319519453,362.7245605241387L315.2985630200219,362.5259362278548L315.2319939141453,362.2478906771985L315.29939340387864,361.80290766640155L315.3319167716163,361.61203137365464L315.2985630200219,361.4133918786638L315.11546337953223,361.2345644756324L314.99893284491736,361.17495485245854L314.89900998744633,361.17495485245854L314.8323024842575,361.17495485245854L314.7323796267883,361.17495485245854L314.5325339118481,361.31398855220505L314.2495114138819,361.47300052419087L313.94974284147247,361.5126294053571L313.4023814823304,361.40414508627055L312.64783935084415,360.61880675602333L312.27942571290987,359.9977385585098L311.890529273167,359.28366723932777L311.2352180126054,358.6513116107999L310.9354494401905,358.5916913922065L310.66695865972906,358.80655424559154L310.4026197985513,358.81035271480414L309.7531212249869,358.4922687661601L309.6364522930653,358.2141460463754L309.61984461592147,357.9358528423427L309.73637515053633,357.6575543080562L309.8862594367438,357.2799846886264L309.90300551119617,356.9620324072803L309.61984461592147,356.4850083486017L309.4199989009812,356.36574988635493L309.1526152989918,356.38391952138136L308.7029624403731,356.8564872285233L308.4041626491271,356.84277786108487L308.28763211451223,356.7831502208801L308.25427836291965,356.6638942062309L308.28763211451223,356.3259417883428L308.3297048966069,356.00416942291577L308.33759354324866,355.5110906486316L308.1543555054486,355.0538421732981L307.8879406846281,354.8352894971549L307.55481836062063,354.65638111680164L307.1884806823309,354.6165683334584L305.18822436788105,354.83545469316414L304.4962378202981,355.0006497612976L303.7902731444501,354.96761089799475L303.2228441754305,354.7363367503176L301.56207646122675,353.31557188657644L298.08830399235376,351.7461259264255L296.23364164751547,351.10171009206897L295.83228944991606,351.06866235495363L295.3755783285087,351.1678053405549L295.1679823642353,351.11823393240593L293.4380159952725,349.862368445456L292.44155536675134,348.9699769151175L289.742669433861,346.9868533651306L288.17877983632025,345.3173750756505L287.0716013601832,344.01157686025454L286.8916848578119,343.003094152471L286.57337104592443,342.14334857180893L285.7845063816767,340.53945607104015L285.7845063816767,340.40716835218336L286.71176835543883,339.2993766580039L287.11312055304006,339.2497646585707L287.4175946339765,339.08439009998256L287.92966467918995,337.66209094972237L287.7497481768187,337.26514532697547L287.27919732445844,337.01704878743476L287.01624243637525,336.70278706863337L286.44881346735747,334.70144149360385L286.2688969649862,334.42021530044076L285.56307068644855,333.8081158742916L284.9541225245757,333.69231036818655L284.7188470983965,333.8081158742916L284.59428951982954,334.0231807845212L285.106359565043,334.8337813410553L285.07868010314087,335.42929568329873L284.8849238698167,335.6774194294785L284.10989893652004,335.9586212012364L283.3208958749656,335.9089977560225L281.24493623221315,335.41275394901913L280.9543018822242,335.21425166336576L280.8712634965159,335.0322888437695L280.8435840346101,334.08935396015113L280.6359880703367,333.55996008371767L280.34535372035134,333.36143238765544L279.2520149751672,332.89835595181194L278.1033173061769,332.550914812623L277.57740753001053,331.75673230947086L276.8466697357617,331.07734076429097L275.52912734916026,330.399903009622L274.7541024158654,329.44044860269514L274.61556670903883,328.910719097943L275.418409501548,326.32881674791133L276.0846541495612,326.28925709356827L276.4228971740213,326.2137789590179L276.6638468898909,325.87312931715223L276.67491867465105,325.2313686064517L275.87512062295355,324.2929264199747L274.79562160872047,323.481734836756L273.48084716831,323.03473225865946L273.2178922802268,322.60427226069714L273.453167706406,321.09756125255717L274.0344364063767,320.83262878488404L274.64338456825317,320.81607034429726L274.82330107062444,320.99821214665553L275.1000956896569,320.83262878488404L275.5844862729682,320.12076428900764L275.4239453939281,319.6339142127663L274.5442920946389,319.0471883825812L272.5674249254989,318.4316222779098L272.22143165170564,318.61379415787815L271.47408618031477,319.5246190825583L270.32525011401594,319.0278126098219L269.97925684022266,317.95133993940453L268.4995128068658,317.05896605331054L268.536188093889,316.7088250755178L268.5537645521981,316.1792911028451L268.3807679153033,315.844367812535L268.08819600298193,315.6036886603797L267.76822142337915,315.7459764074365L267.5579959102215,316.2382579991354L267.23802133062054,316.7525517544682L266.8448345742818,316.7525517544682L266.6985486181238,316.555615022613L266.5706695041299,316.18359768207756L266.2872318142381,315.8662324781262L265.59206212853496,315.3179494244205L265.4813442809209,315.0529108723049L265.64243874919885,313.86879168050655L264.70631934762787,313.2473718397141L263.5991408714908,313.5455771833067L262.9763529786651,313.52901038148775L262.6303597048736,313.3136402265636L262.61651997392073,312.8497551254932L263.1977886738914,312.137331100811L263.30850652150366,311.47457948363444L261.93837315728706,310.14898486792754L261.6615785382528,309.6023072972748L261.71693746206074,309.05544327730786L262.0767704668051,308.77371735268116L262.6441994358229,308.7405727642781L263.33618598340945,309.33716369640115L263.89019041340543,309.4655932370115L264.5679220381098,308.97258328277167L264.692479616675,308.4754133134902L263.85877422414524,307.49162913115015L263.22325377884226,304.5453440192614L262.9676339481666,303.9803840591467L263.01455063609137,303.4933203920482L263.29605076364714,303.1934149309236L263.90610610399744,303.0622768603762L264.93841163568504,302.8187315613686L265.34516132835597,302.4064027995737L265.47027249616076,302.0129635048397L265.454633600184,301.6006116702056L265.21409907624366,301.3011642152187L264.6847293673418,300.98811392714924L264.35977248459676,300.4012921087997L264.4223280684964,299.7827735959727L264.6725504041042,299.3330458616365L265.26281492919406,299.05146138803593L265.88283487583067,298.6985609360436L266.28141912723913,297.9847734201321L266.2674409989777,297.616090955853L266.2570612007639,297.34525341971766L265.24620725205386,295.5598868801262L264.4850220497083,293.7519028181314L264.0559903902067,293.27079711466195L263.405523035477,292.8560378990014L262.35356508583754,292.5739947985285L261.70309773110966,292.29194616538007L258.85211315505876,290.8154142234225L257.9525306432006,290.48355113315574L256.9699097456287,290.25124241084814L256.2362656078785,289.8363960672932L255.7657147555219,289.25559106814217L255.5442790602956,288.55876003765025L255.62122796438598,287.4760243458077L255.40588175077755,286.86591231331386L254.10494704131634,284.2598646126189L253.68975511276767,283.96105185365286L253.30224264612116,283.81164314220314L253.23304399136214,283.7286376307102L252.90089044852175,282.54990757444466L252.6932944842465,282.3340732783072L251.54459681525623,281.7861716435227L251.04636650099383,281.30466506213634L251.04636650099383,280.8399128724277L250.38205941531305,280.1425072873153L249.7198282892732,279.8901045321845L249.46074852585843,279.4410823405706L249.1175231982561,278.5270529257223L247.8774833049847,277.00442694989397L247.51432876481158,276.83169302741044L246.6861592646619,276.7466540244541L246.3008611549667,276.5154516861785L244.73531078971246,275.0856348844627L244.17272572652473,274.732145181556L242.1820188264337,274.21651299408495L241.26306069124257,273.8630018613185L240.95526507487557,273.64238523295717L240.61425410422635,273.2622787402588L239.58679247837244,271.7206508586105L239.15277851572682,271.5638038968591L238.1606082037979,271.5797545137493L237.6291625352551,271.84559551496386L236.870883676409,272.53410078328943L236.42579792900324,272.6696712821613L235.81089868282288,272.5683258096433L234.51702223614666,271.94644765450266L233.69438862837887,271.3127454940768L233.38382506582275,270.83686891972957L233.06592644586271,269.94572093934767L232.66028393166744,269.56169434324147L232.37753822832383,269.3822236029828L231.88249105218165,269.22717901436135L230.16041332986242,268.81604515300296L229.39881293558938,268.3460684673246L228.52690988563518,267.52589894659377L227.0835643446826,265.91334360906785L226.4465215289747,263.2010753019795L226.64567525737039,261.41993457991884L226.6318355264175,260.73039585784136L226.51129146983112,260.251174306095L225.44660096771622,259.3811516104415L225.27138997386828,259.0671854719758L224.94338835031158,258.1430406872323L224.2761749211295,256.9650312117319L224.0296893128816,256.6491824385248L223.46779623624207,256.1793049746484L221.82543536420417,254.33424201431717L221.46338800251033,253.05925949337325L221.6625417309042,251.97616696630757L221.1996027305704,249.2336290909352L221.01871744703203,248.56313973710712L220.2221025334511,246.65817241416062L220.0406636606749,245.61887111261876L218.9618566329882,244.43716482634136L218.57683531791372,244.31414456021412L218.3800343437797,244.34477487448567L217.86312039273434,244.05894487491696L217.70064195136183,243.80607127820622L217.61220607058203,243.4296658728381L217.45886185163545,243.26268585906473L217.23853333488478,243.1118527807639L216.86126226914166,243.068234087792L215.85981933747644,242.38247076948937L215.39217482861932,241.71249195652126L214.73561799227173,241.04614483504974L214.187841441204,240.71745540364464L213.81333832165,240.6551800579491L213.46513069090543,240.74476322347618L213.00814277487916,240.47001753068798L212.85493695324476,240.2170803010613L212.82615031286696,239.9762945434668L212.91998368871828,238.41824913693927L212.8705758492215,237.9019716517205L212.74145115944157,237.62084237095496L212.3716535484109,237.2411091842214L211.52576919264357,236.74394320552437L210.924848074721,236.19212695624537L210.73012306023156,235.81002374010404L209.3829636493938,234.38845650699477L207.53549796465268,233.2018206604389L206.27552885880687,232.0119203041886L205.59073897131748,231.65636371846722L203.20670691758096,230.66612349333263L202.83746289578994,230.42650933541336L202.48994725159173,230.13040198546514L201.7337443523902,229.21454646168422L201.0108952047849,228.6576055050191L200.24223654772504,228.2019709341257L199.52132496245395,227.88081812597284L198.85964742565375,227.17182306090035L198.39407887643756,226.81614556530258L197.77502771096806,226.67563883790626L196.9577915982718,226.83764647236785L196.45790051629592,227.02348629193784L195.77532498575783,227.10332166648277L194.89497969992044,226.75497614038704L194.62012264322038,226.55379854781586L193.5829732057009,225.4090155675276L193.32569260730816,225.20831902078862L192.2730426711223,224.8049170646491L191.30481509374113,224.1202744219445L190.71164422515358,223.33073568650434L189.2554277344134,222.2550519918559L187.84405197196247,220.7445893805707L186.07007525857261,219.43441363325292L185.6299718143091,218.8165530791257L184.59545192566839,216.71696057652935L184.0341124382685,215.81491945401467L183.29922272473414,214.89530562783784L181.69865784017202,213.8291596418576L181.39058542918428,213.76159488530175L180.37059725804647,213.78061314557908L179.58740688348917,214.13094496335816L179.12266871813335,214.23137182401297L177.54922970623375,213.7525862268103L177.22565679658146,213.4966712076548L176.1534928397541,211.75202200332114L175.99876464771296,211.27281908125224L175.9371778449804,210.4021367205105L175.6405924106857,209.5891401580011L175.42247825088634,209.2700696683587L174.74986732663274,208.69782747769023L174.36014050303493,208.21034370522648L174.0783635808566,207.7552213481249L173.9434262040777,207.30425696331622L173.94065825788675,206.85745094678714L174.02023671086135,206.5451624059342L174.26270879713593,206.26808611138404L174.5276012475515,206.09733097654043L174.66309221356642,205.89535988383977L174.6369351220692,205.7042358295057L174.54254815697823,205.52779849928902L174.33315302767915,205.42146765753932L173.54996265312184,205.1639000065552L173.15691429409344,204.85257576567346L172.74019999513803,204.35728070262485L172.37898301730092,202.8714586560409L171.85307324113637,201.68602827196264L171.8253937792324,201.28529698974398L172.0745089363627,200.0498045267168L172.00531028160367,199.58222961517185L171.78387458637735,199.2816375959028L170.82893315071124,198.56353084673538L169.91551090789653,197.71177565307698L169.40344086268487,196.55948648422782L168.60073646748606,195.80783410117147L168.3516213103576,195.29000591726344L168.31010211750072,194.87238874947252L168.18554453893557,194.60510729799626L167.52013027477915,193.77967691437607L166.9652954609246,193.4336868215969L166.60643123734735,193.5516351426486L166.27067936445928,193.5317544038553L165.6406948115382,193.08835655397525L165.16502325872898,192.31279459404686L164.93237738143034,191.6763743317415L164.99341059492872,191.17510430591028L165.3287472758875,190.7964665752188L165.66809747882326,189.96229157291236L165.69494655686867,189.74421487874315L165.6188280366332,189.62188992819483L165.542571119091,189.52613482318066L165.57329532180302,189.200763157849L165.5009135289256,188.97498725518926L164.74318825932096,188.03691747436187L164.58320096951866,187.89920165511285L164.03085730723797,187.72287665240492L163.77565266848615,187.61557638062095L163.14705208866144,187.1522705342768L163.07563907695112,187.08106850679633L162.90333442660267,186.52063252167682L162.69172494035047,186.37738599943987L161.99586326810095,185.4016998473262L161.8250809881556,184.30357540123987L160.84149130941842,182.69543562552826L160.5508569594349,182.38144333271703L159.30943309306713,181.91378586153223L158.74255771328353,181.27188113606735L158.4981480646784,181.1560041100356L158.03064195312982,181.18459723074557L157.44549812849255,181.10048981570435L156.83904111818993,180.81806582649006L155.28442414038363,179.62108728301519L154.98908428187679,179.2299319057638L154.18568790012796,176.65579577427525L153.89546874207372,176.00696115621395L153.1460473110401,174.9812097144295L152.9997613548785,174.5701856519472L152.93360744092934,174.2019768881355L152.98675200778416,172.09559126266322L152.87797172250612,171.73016241903588L151.61039076464112,169.26611509673785L151.54672800226035,168.64639593103402L151.80082546253288,167.87300578385566L151.8142500015565,167.6567635995234L151.2650894773924,166.78071450266543L151.39712051067363,166.37397087384488L151.6020869260683,165.8964087465156L151.2071010047075,163.76015379617183L151.1866182028989,163.44138695073616L151.3147741115099,162.17796800804172L150.66430675678203,160.33604644384832L150.6781464877331,160.21882510164687L150.95494110676736,159.83366239364477L150.5120697163129,159.0862492251499L149.79627883149078,158.21586397553438L148.83206477608474,157.30723624946222L148.70058733204314,157.22382379778355L148.37936717665616,157.29936401108534L147.5957616101714,156.65231796365788L146.29759484690112,154.7595835864231L146.09774913196088,153.72089207408862L145.3935836211367,152.4676589568844L144.82255632207125,150.26099362672085L144.73370524936036,149.61111001697736L144.78532744581025,149.0044354980255L144.39518543028134,147.5422758531613L144.23339897545884,147.34315293953568L143.82166697964385,147.28331494714075L142.19536019551015,145.8281843950681L140.3310100390081,144.34054696170006L138.90800890255377,143.44024361584434L138.7278156055636,143.13392613882934L138.67121110596963,142.61281899196638L138.70027454096817,141.82106128753549L138.50541112916835,140.34926598794664L137.82546514751266,139.0992004189684L137.76000322010987,138.70121548363204L137.85286781479772,137.89129051969485L137.76000322010987,137.48303976253374L137.0058762805529,135.4226514746315L136.95951318186417,133.9929671299942L136.83910752258453,133.44383700854814L136.4632204299378,132.9458599128784L136.0387558816492,132.02922040192607L135.85496425461133,130.0655342945065L135.25085999856856,129.10389565996866L135.14747720836021,128.80817432212189L135.17058955904758,127.80801262251589L134.97005185755916,127.5864534706543L134.52870283750963,127.32275994520205L133.12839885981703,126.78830794340138L132.98986315299044,126.40222754757997L133.07290153870053,126.03292330149179L133.21129884821676,125.88385592105897L133.35426326894958,125.44453438262371L132.9345042291843,124.80743492187503L132.10412037208334,124.18625603540386L129.36371524633796,123.02793566490436L128.57485058209022,123.11188730997401L126.56795119678463,123.78348235505655L126.16659899918704,123.7163242996894L125.79292626349161,123.31336920495869L124.07666122817136,122.99435486596667L123.17707871630955,124.08568961944911L122.16677835683731,124.47183385791959L121.33625610242598,123.68274515125086L118.7205469525561,123.56521749773856L116.90712700595395,124.1746716269563L116.54618682273394,124.74951535233322L116.57234391423299,125.2808554686062L115.4881393914784,125.33978009794737L111.83569599601469,123.32260372234487L111.39310140018097,123.50981126188708L111.08876571655128,123.43207426451681L109.83502448963736,122.53865546398538L109.20974544524142,121.79345256616307L108.35528045628416,120.17529547396498L107.88749755011486,120.03741769323733L106.82571339150127,120.47153497951422L106.2809815812434,120.30275983910451L103.82609010503256,117.98370088907177L103.87148442255238,117.67145176681424L105.09851496872943,116.67234213388474L105.08218408620814,116.48907470505765L104.14910942544338,115.45930564644004L103.74305171932065,115.27266238943685L103.082204566379,115.1271763593677L102.48792651931217,115.36573233562558L101.75151443537106,115.25569469713446L101.6135323177823,115.04956079134445L101.50129209976512,113.91383785352446L98.88364538756286,110.55938855756085L98.2919968893766,110.24512500543005L97.94600361558332,110.2955420938979L96.5343510585135,109.23674504354312L94.7765668303382,107.505523096057L94.49977221130393,105.84149898029045L92.60359067361242,105.37078238821596L92.32679605457815,105.13541814331074L92.22991793791516,104.05941679593798L92.36610089048008,103.5193673732565L92.42450455509606,103.20729940570527L92.36610089048008,102.94196889135674L91.89084452960014,102.65309254758449L91.05893830209425,102.5088202846855L88.63144949316666,102.84881617148403L88.24393702651832,102.44525930416421L86.60821922533796,102.02369806957267L85.25137200283461,102.18479078203018L83.81508472466703,101.95778068261461L82.20953753696085,100.83108333946984L82.5839022592063,99.76988670470382L82.58487104037158,99.73624999284311L82.04346076554066,99.43519781172563L81.53139072032718,98.52712454689663L80.56260955370817,97.51789803511656L79.59368998978061,97.08054387330321L78.25123608746617,96.81139603532665L77.42389697117505,96.31396351945295L76.2304969712095,95.29734267239473L75.35859392125167,94.74214858850792L74.25625935095013,93.35002840569359L74.16920744326308,92.65812291615566L73.73131835595268,92.15684016762134L73.13953146045787,92.03702772447832L72.38152939623433,92.26066556710612L72.10376599603296,92.19806752578643L71.80994850792922,91.27976233587833L71.68317657241096,91.07764966212653L71.40319881526011,90.81360296077764L70.86718603549889,90.48139178278961L70.18239614800768,90.1742492766316L69.36266888373939,90.31023430071946L69.01902836420959,90.06317141588625L68.97211167628484,89.75938577483066L68.92533338566682,89.22753457831368L68.78472171919748,88.88569165229183L68.50363678356734,88.5058002355945L68.1912740559892,88.12589846007722L67.75393855791481,87.68892286252594L67.53527080887761,87.44198182338005L67.45721472631158,87.17601452619601L67.50413141423633,86.87216592446111L67.75393855791481,86.41612807661568L67.76957745389154,86.11226289722799L67.48309502318989,85.64087997037586L67.31867901948317,84.80430434080245L67.26110573872575,84.6000773005062L67.10983747942373,84.3412956188049L67.00562430535683,82.21041517185495L67.61581804301932,80.77123384017432L69.02234989963836,79.91213365331987L71.59709344589282,76.9945696255727L71.46616959108724,76.02505705374097L71.61328593110375,74.61758524276956L71.07063008048863,71.92371750359871L72.4662285496579,70.20487600592514L73.86943887084999,69.78486593700745L74.21003464957175,69.51434711146067L74.16851545671852,68.72736862586953L73.96327224670313,68.32349600309499L73.96327224670313,68.13116355220973L74.04215871312772,67.9580452125274L74.18429275000199,67.80414170246968L74.45278353046342,67.78492471507889L74.7529672948076,67.78492471507889L75.1635921121433,67.70788792850453L75.57421692947901,67.01538051756961L75.60258837792935,66.3958369544398L75.7694955332081,66.06388509882254L76.47559860636284,66.30564259344646L76.70547653747235,66.59476824042576L77.74276437230219,67.34764678078955L78.35752522117582,67.08163211171359L78.78032900175094,66.58381023527818L78.90018107179276,64.66939830678439L78.52803070650043,63.919409632888346L78.8499428484356,62.55472422447019L79.28395681108123,62.367033651609745L79.60600735032858,62.367033651609745L79.92888827343086,62.49738864937626L80.16610126194428,62.605988773381796L80.50212992944944,62.50362812050844L80.6561661349424,62.367033651609745L80.77283506686581,62.08793830378181L80.93614389209506,61.172870921924186L81.2861506878653,60.746347278996836L81.67823026572478,60.336845260083464L81.70618652224766,59.55187638017196L81.90215711252313,59.14233910090752L82.56023631927565,58.93756592704449L82.89626498678444,58.425619766075215L82.8771661580704,57.903195916882396L82.8046459678826,57.43203605931467L83.0220681411356,57.19653447699784L83.7321847362673,57.028846815205725L84.16661389083856,56.7157344451125L85.43170369713334,57.01653164542495L86.36948386642143,56.22833802879995L86.8732500730639,56.65297615829604L87.43458956046197,56.67608878621559L88.04962720395815,55.91503886681221L87.58059872200465,54.96497534373793L87.74958183692434,54.385726900854024L88.54176803659902,54.161478869327766L88.93495479293779,53.689516870460466L89.54071981669222,53.67314893325329L90.07604060990343,53.40417202109711L90.86075335486566,52.531057913839504L91.12910573801855,51.933312592443144L91.80697576003331,51.484227221395486L92.2609189352479,50.9239048828058L92.56954493546982,50.308030483346556L93.05421231340006,50.143803938279234L93.61956532277509,50.24237385564447L94.02340867194653,49.93045842756783L94.31957891431375,49.22440313636889L94.68301024910397,48.879717601739685L95.14069015167843,48.73184791645417L96.06587616579782,49.14743198808537L96.43124506292406,49.120593263436604L97.82449077782803,48.104903426239616L97.91707857789697,47.86536059827449L97.85189344511309,47.389976513555666L97.97133032322745,47.01266254228358L98.16826969467002,46.89262896217042L98.56892990572123,47.07259453106053L98.92737893737103,46.901239000450005L99.13123817428823,46.72110237792094L99.21566053309289,46.36099093262965L99.11712164871824,46.120911432076355L98.87824789249134,45.81211107274157L98.3494317728273,45.09807883443318L98.31151091001811,44.24774316476123L98.67923256140784,44.00087262765828L99.12736304962164,43.37168744705468L99.03560563341307,42.58575681106595L99.23157622368853,41.77748850228636L100.38940811510838,40.51246901814375L100.66564914490482,39.71201843006838L101.08554658197863,39.3598325224566L101.43167825307864,38.24291314432139L101.41645454903119,37.65992377828297L101.28760665387199,37.05832596280652L100.87186113608186,36.31038900365547L115.91121996667061,31.37961508508306L130.07867574730335,26.972553170058745L142.22068690315245,23.12961554563026L145.25144958426245,22.068210047033062L145.88586285108977,21.970792066776994L146.18383225847901,22.142456969342675L146.19324327552567,22.158185764915288L146.5269191887728,22.3132741116915L146.84440261680356,22.689740861256723L146.6990854418127,23.44467287680982L146.46256443984566,23.987677512421214L146.35018582451812,24.235920412386804L146.35018582451812,24.535395515504206L146.2646562872378,24.770777370654287L146.06716332655742,25.1471770808339L146.70337575840495,25.59931662042254L147.71782803716633,25.37392505137541L148.49036181888732,24.917212619842758L149.4259276312223,24.943929276004383L149.9161309015326,24.67168751000463L150.31706790720273,24.0233584765283L150.3396266686541,23.63678159970368L150.56258473428534,23.173754445640952L150.98608050140683,23.064844413735955L151.63239593685284,23.20098181929552L152.10045563763924,23.010389075407147L152.44298897869157,22.461088426925016L153.12570290654003,21.839209049935562L153.30395864119782,21.594136563651773L153.32693259457665,21.126812364420402L153.40388149866885,20.89204490279917L153.67389464953703,20.526016191326562L154.16492830370407,20.492355946882526L154.58288817844186,20.674357093892468L155.29494233590776,20.728821654280182L156.42218842192597,20.120058015448194L156.87004211551903,19.932467471769996L157.2712559158117,19.95970124374253L157.60548541829485,20.01416862635142L158.11810905274433,19.796297805215545L158.84663249004188,18.838674136623013L159.00966452065404,18.461425568113555L158.96510058698914,18.079937259496546L158.697578587693,17.58948511856488L158.60845072036318,17.289859168114162L158.63073268719563,17.044705819386763L158.719998951834,16.799378918412913L158.94281862015487,16.472495187326786L159.12245832790904,16.272165094617776L159.24743109840165,16.187057763565463L159.2809232473046,15.843239100472601L159.3440324204439,15.382488339852898L159.67826192292887,15.164544310542624L160.05719375638546,15.110057764684825L160.61438132450166,15.246273725426363L160.85962135696536,15.600428922729407L161.10472299212051,15.981985852970865L161.21613282628277,16.254399194160214L161.61734662657182,16.472495187326786L162.61837436630776,16.469111257237273L163.2443453972519,16.254399194160214L163.846096899033,15.818535263915692L164.1359008651616,15.32800265563219L164.51261834166326,15.005991247722704L164.9828923994046,14.728476693867378L165.40624976921754,14.592255614971691L165.96357573464047,14.782964748399536L166.45377900494896,15.082645197428974L166.74358297107756,15.164544310542624L167.23392463869823,15.110057764684825L167.5930656568944,14.814269899672581L167.8129789817158,14.386313861962662L168.3197899291663,13.675055032619639L168.7615541411451,13.567593035255413L169.25853887962148,13.325419697674988L169.33271983752093,13.185292300423498L169.52952081165495,13.065979806222458L169.90845264511154,12.929742290478316L170.92539607544313,12.93025001042679L171.50915592698584,13.151444889318554L172.29940456432814,12.936004168564068L172.8906378705833,12.271552259430791L173.18445535868887,12.235333124267527L173.765585661351,12.3690388043442L173.9246041699862,12.472279011216415L174.25274419084963,12.411011965389662L175.41583518003063,11.875506076298734L175.7515870529187,11.464892327115194L175.93053477412286,11.054435600002762L176.26628664701093,10.807986426252683L176.67594268318135,10.79630706338321L176.98235432645197,10.91750112959835L177.31796780202967,10.780734564147679L177.49705392054602,10.589123675836163L177.49746911247348,10.289345462896563L177.5865969798033,9.904753129092569L177.76554470100928,9.713299331946473L178.10129657389734,9.466826156754905L178.5264531087323,9.330045183563016L178.92932767673665,9.330045183563016L179.48872960180415,9.330045183563016L180.0789941268922,9.50728462483221L180.113731851583,9.608007072957662L180.29434034050428,9.904753129092569L180.5852514851067,10.12379603016052L180.94328532482723,10.12379603016052L181.50282564720328,9.932176001469088L182.12935026738705,9.576351525789505L182.43285556715819,9.205112859911424L182.69940878528723,8.93442226998377L182.7511693790475,8.86907652719492L182.8710214490893,8.79915962477753L184.24212359447301,8.722639992947734L185.1131962605741,8.759714823423565L185.71342539194666,8.651875884145738L186.36942863905824,7.737157789431876L186.84122506720087,7.266654462342558L187.31454386574842,7.0458729784122625L188.39418127729186,6.760070829207507L188.92327419157482,6.906866868622274L189.52142736330643,6.904496472116989L190.61462771118022,6.3101913244172465L191.2350628497461,6.431763524944472L191.59794059530032,6.89484556784646L191.62880319532087,7.244305577502928L191.60569084462986,7.858378783380431L191.8451181900964,8.491385600599642L192.15402098493723,8.529138230089302L193.45135736435077,8.389300617694971L193.99193725532314,8.075761244454043L194.20825225009685,7.556170827302594L195.0560741681984,5.4498425974788915L195.54586224658124,3.77877349137907L196.1986823555726,2.843746503416696L196.4958213791033,2.5866495161626517L197.3671708398233,2.188292124616055L198.46784464241136,1.8512375326045003L199.52672245752547,0.37064011057736934L199.9096678129572,-9.094947017729282e-13L200.25441551096446,0.0011857932431666995L201.14154226496794,0.8232547048546621L201.17655678427764,1.3137962167447768L201.62662483482563,2.2233521029202166L201.8729720457668,2.9385900285869866L201.81110844840987,3.3042395710590426L201.61541465275513,3.6951130963980177L201.53292985628104,4.098676666396386L201.57417225451718,4.376066834362064L201.73900345015318,4.830073718201675L202.1409092369904,5.246134758397602L202.63775557815825,5.62306808835001L202.90347841242874,5.750403520101827L203.22289940279552,5.699943609619368L203.87212118173738,5.195672998928785L203.9856069755424,4.9435307641533655L203.97522717732863,4.64092011550656L204.01646957556295,4.363535286823208L204.26378556767122,4.161674191672319L205.83916214190322,3.818401921977056L206.60477605814958,3.774878383068426L207.06979101812612,4.04668655597834L207.21663056352554,4.439909811543657L207.30312888197295,4.483600590723654L207.51003285969819,4.470053077132434L208.07455548522012,4.190463287309285L208.20727850504773,4.193172846148627L208.5111989967445,4.4663275085604255L208.5430303779358,4.849886433934444L209.0456894061026,5.139622975366365L209.5393526091466,5.184835549941454L210.29763146799087,4.665135985958841L210.57442608702513,4.187584380454609L210.71393057501882,4.117982390276666L211.77917466636973,3.792321685621573L213.413923686383,3.46157258103176L214.36900351935947,2.8451014155225494L215.19066834596197,2.6328866804879L216.24193430905325,2.596811543626245L218.65073948119607,2.8398511303685154L222.33210791434794,3.15350981150641L222.38719004353334,3.15689701525298L224.3662715696264,3.2788357947074473L227.2358013851499,3.4639435706494623L228.6156225610339,3.5648796068699085L229.81123691795256,3.660564930626606L231.08421537088907,3.6759761329403773L235.06023167600142,3.7736929151005825L241.89166127106728,4.184197430443419L248.80253092179555,4.395710858890197L254.0933216673202,4.557603648272561L264.5852217017982,5.063591007523428L271.6682576055682,5.299305673872368L281.68157974373753,5.759547242470944L285.79613175567647,5.908724521579643L290.48212625861015,6.078557753001405L293.55911364110034,6.190141955693434L298.4664054419518,6.447679583122408L303.18492331262314,6.695222714638476L307.5901096745474,6.926337967325708L312.1843467612707,7.167438681435669L317.24013887523506,7.393636073801645L324.2824859700049,7.708884024200415L324.40206124542783,7.697202032391942L328.8298063688035,7.916280054641902L330.0767661275513,7.977905701568488L331.0138543102894,8.023447554593986L341.9383843343203,8.553516554665293L352.4592094064883,9.048861217482226L359.23874001048716,9.368134081157223L359.56092894704125,9.386247431047195L373.5599552019903,10.157650881755217L377.34747437154147,10.366194932241342L377.56129821474497,10.378043931203138L381.9958248062867,10.728092615715468L386.64984953072235,11.095397191881602L386.75433949940816,11.20186290842048L386.68002014419653,11.347088266418723L386.5438371916316,11.426978486493681L386.170164455938,11.894293139675938L386.0684424334431,12.13361438962329L385.60093632189455,13.91163770464027L385.62404867258374,14.179522907967112L385.7094398125555,14.282072656015771L387.2943658011427,15.085691040927486L387.60008545786513,15.719719474904196L388.11962895779106,17.20949536918124L388.19353312107523,17.837843195228743L388.1471700223865,18.173491688530703L387.8493390123058,18.84070414584312L387.5156630990605,19.10527945657941L386.2486357304333,19.430747491916918L385.756633295101,19.735232462184285L385.4799770733771,20.165052302067124L384.76612375088735,21.88132251708521L384.6563746844404,24.06952375763194L384.70910405936775,25.88844820297254L384.97939400485484,26.279357999748754L385.76507553098236,27.103580052991674L386.94546618385175,28.885929356327324L394.8796455411484,23.329169601896865L398.51811080834887,20.780241414543525L401.6901771424782,18.281763653009875L405.6202455408293,23.46530439954131L408.61876164882415,27.39707575832017L417.3830480686029,39.87079475536939L419.428006714028,42.64840998816089L419.47270904499965,42.70836087585849L422.85223294609386,47.28615288905985L421.0437953026376,63.78400942798817L420.7825011822679,66.16554514391464L420.70693625127205,66.85472330376888L423.45149329630294,66.86972704669734L424.2708053686438,66.87832468983379L436.41074056485195,67.00290562733699L441.5969029443786,67.05600812296234L441.86608571139004,67.06005401906441L444.4373693249054,67.11922511491593L444.44899469890515,67.11551639266509L445.10928826260897,67.12647397826913L453.3529240039861,67.2432981611646L461.9154271464922,67.28038499785089L463.0190072925798,67.35843560788726L463.9296615891999,67.36956157705481L468.5762128589213,67.42620273644206L468.97673467266395,67.4369915025145L470.9036404130693,67.49835245017312L472.1410507574619,67.52498706286042L473.01516816436924,67.56359030323893L473.17474026224227,67.55667881393765L473.371126044447,67.57589611713956L475.7436711214941,67.63995360243462L482.63627232737053,67.75104206727337L488.9164654386277,67.8523526239942L491.83152796898503,67.89938339667788L498.70530714076267,68.01030121914573L499.29418769275617,68.02513514648672L509.0446933401545,68.27006122475086L512.9313049833181,68.36765960796401L517.3842384170257,68.47958506166287L517.5187606018753,68.47958506166287L520.3972862425198,68.5522349864259L520.9939170438465,68.54886376862578L525.1663191311636,68.65657377282332L527.2837979667747,68.71910924493932L531.0098687308982,68.81771581906378L541.1022157328025,69.08504567669024L546.1087384045786,69.21112379907754L548.9804825770552,69.28343279414003L562.4169237688184,69.1902232268958L562.5245968756208,69.18634650440254L566.3864354003836,69.23151868194418L566.4983988237818,69.23741802264703L573.9600897663877,69.35776402612828L574.2525232813987,69.36450606831477L576.0224864728116,69.39029434948134L581.7082631396952,75.07468382094521L582.0734936395093,75.44146381478095L591.7455280124123,85.01425267696686L592.7471093413842,85.96260054661798L597.4782213672224,90.68166188063424L597.6478964686903,90.85096360093667L601.6395516697776,94.80557642490021L603.1475287542744,96.34979540278528L604.2140184214113,97.60133019486057L604.6128794674405,97.91705584731062L605.6368811605553,98.79119343469392L605.8516737849259,98.97603868273382L607.1985564011447,100.32000362195959L619.8919424381111,113.0414862512016L623.6271474246641,116.98763712485652L624.5231316064765,117.92608901466701L624.745259288251,118.2028925874447L627.0421010369937,120.58908860151223L629.8031273618562,123.57159759567367L634.9155239754127,129.09265097859407L635.590487653928,129.78695118026917L639.5892011178003,133.89934976585755L641.9434777499919,136.3201141543077L642.9040934753502,137.26934913467903L643.0842867723422,137.48555572385703L648.5169347601204,143.01924398563187L649.6577437824672,144.18211787424752L659.6324530712827,154.3342319290332L670.0688557846461,164.93253095959153L674.5069807062373,169.43714810573238L681.9542783286524,176.9926628299445L686.8167294012219,181.92365080172112L689.4963781080878,184.6653356675497L695.5408806012401,190.84759829911673L701.3849837902144,196.82238836784836L709.3119664874157,204.92251998393385L709.5977569315673,205.2637226325296L710.617745102707,206.16843747014536L716.1869912349775,211.96725760579739L717.6956603060244,213.48933068274255L721.883562892006,217.71350931965753L722.6360290638495,218.4723405697323L727.5566070064142,223.57430372546514Z" class="state" fill="coral" stroke="#111" stroke-width="0.5"></path></g></svg>