<svg width="800" height="940.8" xmlns="http://www.w3.org/2000/svg"><g transform="translate(0, 0)" id="single_state_map"><path d="M569.460762505536,401.1746314870834L572.2031070677331,402.1439282372812L575.3132484300368,412.0563167953078L567.670172820799,412.4103045452939L565.2794936201026,407.09166462872963L568.3041383578166,405.2470981267543ZM529.4314041885955,474.41562650549895L525.600994092747,468.39863627112936L524.7145715416118,458.91920430750906L527.3738391950101,446.8701587585674L530.7549887258283,443.37726056143583L533.1343759195006,435.8072745056488L533.7247865722966,427.3117705090044L527.7335702758282,421.32523737748124L517.0343936235804,418.41918760025146L503.8880777355371,397.66648465330945L501.22961665406183,387.3860554519779L515.5567538477189,384.42028527690854L523.3853410008742,389.75901233471086L525.4130628330458,401.44016401171393L524.7145715416118,403.3992445954864L520.3058493719072,404.8617729082689L519.3766785084808,410.14065061214205L529.8258178624092,417.5958027435772L542.5873989398024,420.3950556721029L550.1199741946257,428.8924832131961L551.892819296896,446.0805504124801L548.6431409906872,455.36435415183223L540.5024105005941,471.32200955173903L533.5425013161148,476.28639474705415ZM699.3196498170582,563.7143661261434L686.1749470728828,567.489827276775L682.766374096449,571.8023901047054L683.4672851036594,576.1975917904056L661.5922477885251,591.7540797040638L659.345138391378,599.7527476695832L640.8835134842375,606.2567079355795L639.3131179364063,605.066387523686L637.7886969886022,602.8288315530808L637.9903399711111,598.9110523886993L643.3064555621386,584.3584518706411L643.1846632007,577.8879802458832L635.7456502897694,569.8297352757945L635.5020655668777,565.8002636800011L630.1060993547799,561.8114820924457L634.6180627315262,545.4878378480062L624.3141063250368,511.60590950182086L628.2767942174032,484.4320072167684L628.9785117965585,452.47806193355063L625.0456670655985,442.3254733654758L625.2384377568742,433.4596240069368L625.5715519639925,428.3886012198782L622.2194390226578,425.6910980809407L602.4189047116233,432.45084360304463L600.0871052618168,466.6624546128951L606.1121975793722,480.40082980450825L605.6992327511762,522.3453556842433L607.2051025446053,525.9161835786072L612.6784996619899,530.4855851434986L611.5049375037488,537.7608851112745L602.495529044987,560.3662462864158L598.1134237489678,568.5224976856043L597.0043873451286,571.4825912274682L600.0540358126891,575.5537260528145L605.2693299124585,575.4535925529999L605.6113164108028,578.8742007059554L602.418098139693,588.0219154209699L597.5843125628526,591.1566454229614L598.1577852051196,581.0996054778007L592.753753273726,576.146987173357L582.9934263480682,572.9168292807517L574.4994173526138,582.9384446854165L568.905034445721,573.9063502064164L566.1796278940456,574.0980076967244L558.5397785725145,577.8179968231925L557.4065450107955,582.6832924921182L557.9154918986605,594.7949947434245L554.2431699010922,596.2588924332231L551.0523713457806,609.9470026913841L545.4063678353559,613.9287292267836L544.3578243262891,613.2830592705359L544.338466599962,609.8447661816754L537.3277433838812,608.765354737945L524.192719502862,615.9733113594921L513.3838490681374,613.9287292267836L509.4018034494293,615.5105953823077L507.28616527689155,607.2382226979244L503.98970579873276,603.6220474322472L504.97614326919575,598.8303266044968L516.026985282937,592.299839522886L525.2033541312267,580.364271550352L526.8665054510129,584.4348881321857L525.5663114997515,593.6464593968485L541.2726866938028,585.128193497163L540.5508048164047,573.0524989212936L535.9444725238282,557.6404629707831L532.170522463086,556.3803848922034L529.8395295852097,552.6743309962694L529.729029230788,541.1865741814254L544.0472941332118,523.616824127821L546.1008262671312,510.4182833157829L551.6508477178795,496.40125619099854L559.1430943762025,484.01369850672927L563.9720405214757,482.0105255816088L566.5804941432943,477.85629173163034L563.4098598862183,471.84067712546675L566.1828541817667,462.20425941227586L571.6909338921396,460.4139990943222L576.0149660091993,445.65014536941453L576.8481548129421,436.964887344795L574.5720088263188,432.21456030350237L577.2917693744748,427.31392850305565L594.0523340811196,411.34941513518424L608.4480298888229,409.78449277267646L618.8552275023758,393.22437711175735L621.1281472012924,408.4051733855813L625.4650844692223,407.9335219043278L638.7702950274834,372.15099530494626L639.7785099400571,372.46199235560925L642.3692189794092,373.09478066935117L642.3716386952001,373.0127128855311L650.3446022238277,374.9455994270975L654.619433453161,376.13338013456087L654.5387762601531,379.2647047121209L654.5387762601531,379.69660048054357L672.364822486401,384.0154105854672L678.9133799865449,385.4265236309584L687.5291813434524,387.9021102916886L687.9324673084775,387.9021102916886L689.3842967825913,388.3339524019102L689.560129463338,389.80003635477624L688.1018474137891,408.6706783043919L688.0970079822146,408.7397525886554L687.12589537842,422.548914552106L683.2704815527395,427.41427515212854L682.4308401735398,435.84827137502L682.9139767596353,445.20247815227776L683.1736929211256,447.6867251804215L685.6708396165923,450.4276000173995L690.4086431337637,459.7496498183391L690.655454144362,461.4860038750776L697.8436231850501,537.1015822383997ZM533.0053244106966,570.3498238144166L534.1377514004926,574.3176594538309L532.1560041683406,579.2876339568757L519.9033699788124,565.6882707651821L521.4285974985469,562.4759358969604ZM487.17832706050103,598.8830674607598L482.5824802030111,603.3788098713267L481.7831674203262,609.3647906713231L474.28769447427476,616.3025910940996L473.4875751196669,603.0182570599791L477.22442287162994,569.3494844445886L484.8191041650789,568.427738160055L490.94663111773843,555.6372512495946L481.19436991138355,545.2648637585808L480.2813304865558,534.6108262223788L486.45886489888653,499.8386797764033L490.8603279212184,487.9422514097241L495.21823605933605,482.0752145203951L497.979938347853,481.26767662786006L503.33073653186875,484.6131297963002L506.3086000976473,500.30000813224615L503.54689780912304,558.863901611272L505.877084115069,579.1412099607041L510.7874940252732,583.6952830442824L489.3068703839235,588.3567095796752ZM615.2522706907985,333.905026734712L612.7704488620075,339.30705602214584L602.1914514273521,347.6836922053626L604.8983068246307,365.08299616011936L601.7405777184395,380.6651169853649L587.2142172580716,407.23197488230653L581.1689606422733,404.6955535274392L578.7331134134874,396.6064497757543L579.4549952908928,393.94981479099806L570.4326816812463,374.86677326192876L564.5680971777911,374.98771199923794L562.2217794332464,385.8583811187782L555.2747753996446,399.74548780236364L553.4704739920926,399.26298326464166L551.5750299564534,394.070720335003L549.6803924927517,374.86677326192876L552.4775839461945,364.96204018626304L555.455447511973,365.20287196221034L560.1464698571945,357.83390566343587L561.6805696681695,342.3665790538507L555.5643347225268,333.3539961338174L553.4301453955995,338.28826544429467L547.6325063623299,333.33454791509575L549.9514006612517,325.08369010707247L542.6430524029711,319.5227764381416L520.0864618069318,314.4455953769648L514.2218773034547,315.1707752964139L511.2448203096137,318.5566492563812L501.5909608787333,332.6981559754495L501.5909608787333,350.7050398272622L495.7263763752635,374.86677326192876L491.7564293355099,381.26867841709463L488.41802811699745,380.5441881255756L482.1017633326919,375.5924025293789L481.3798814552865,366.16943055886804L482.4631075573634,363.1498353010393L481.56055356762954,362.42515611535055L459.36530719624716,362.3041955152803L440.59879809954145,359.8870993841192L439.19052350966376,357.8814289814618L440.1471178187203,356.0215148705247L436.8990526563721,354.8128680370719L434.1607409538119,358.85564983788936L438.0726148146059,383.68395141596557L449.71144776537403,380.30232977489504L453.4103866366204,376.79960824608133L466.43652330708574,385.5906297923575L470.8984792241754,464.7073112644066L435.45609547349886,474.32720854935906L439.6059080536579,490.84971223165485L456.47777968663286,520.147169081567L459.9065169613168,523.7633647627736L461.98182653736876,536.0565959571686L461.8914904812045,543.4067186154207L456.6584517989759,562.4425518211938L457.83120738527214,577.3787146591494L459.45564325241867,580.2695281088381L459.7266514209259,584.7255604748061L459.09510559968476,590.4117292086376L456.87461307623016,593.3870406425631L455.39536015650083,590.379434973278L449.14200798274396,592.5818675790069L448.9952118914807,597.9434131737944L451.4076685342734,604.5368713775242L450.8293564604319,610.3172052211594L446.8287596873415,620.1774297334923L443.5556907951541,624.1510411819254L440.7092984539704,623.8282542148227L434.45917256793473,627.1883934593643L428.8962459663162,633.0981020090694L429.27856106116815,660.0141402946101L413.5124995442893,683.5163193958724L406.7558464861868,698.9758375598976L409.52077506242495,710.3645917897738L403.14482395529194,710.3645917897738L390.9220329271848,696.8874651814913L382.47319195980526,695.7728528491643L371.727234135622,693.6940587495337L348.61330233590706,697.262581439747L292.8598242424632,710.638621248072L241.59007950822706,730.029658305968L230.6521575646766,736.3195505028925L215.23937455316627,742.1212195843036L172.52171199335862,745.9772748981704L162.63717299047858,748.3810258249505L124.0846478774838,759.2366169231464L104.98744428945793,769.2369196416839L100.68035018294177,765.5077780362844L101.21510737256904,758.1831355999675L102.50239617294574,754.2783509292713L119.84369266923022,739.4626733001933L127.4399871065325,728.1807199399627L122.31341591908131,718.0907362531143L120.87207188006141,707.7811397255064L125.81232495167205,699.8603943938651L124.33629831966391,685.2148622229652L117.3288013913043,673.566114441528L116.24718843308801,662.3068592320415L116.98036231751757,657.9783751038412L119.33071292171371,655.543552150295L136.47762558285467,647.4985690502581L153.17931053858774,650.6069678026543L159.8956350002045,456.52272028886364L161.80075789899274,392.77097471871093L159.6359188387214,318.5220672736177L158.51962328751688,269.2911977542972L157.14441814676684,229.56017515989515L157.12909328009118,227.75417042573827L156.02005687625933,193.6909687053194L156.02005687625933,192.65163224372372L152.9865398473121,90.48887028273748L151.92186489962478,11.651516849648033L178.7258632793746,9.827874315240479L331.2502283975118,5.1024621643082355L345.3402334437269,4.837577663631237L371.01583769331046,4.125424131285399L371.257809272327,4.016863496392034L392.55211479782156,1.8456149515113793L393.35868672789366,1.737050731877389L488.9406867276848,0L488.8600295346696,56.53919067544484L488.9406867276848,58.600245887711935L488.78017891359195,104.03632467142597L488.69952172059857,104.25313175231713L488.69952172059857,136.2247372228594L492.81303856388695,135.35790548058867L495.0722465399813,134.9244855379511L497.33064794415986,134.70777454873314L501.84745075248793,133.9492807423885L502.41205110352894,133.84092380572838L504.1865093496672,133.62420942340395L510.4777704041335,132.64898630460084L512.0909142642486,132.43226818967378L523.3837278570209,130.5901368101404L522.8997846989805,135.79132270886475L522.8997846989805,136.00803030514362L521.6899268038833,148.79149432062695L527.1754225002296,169.6967261091777L520.5607261018085,188.64679314351088L520.8841614457633,189.8377670501577L526.2075361841562,198.7152910352961L524.2717635520021,200.66386356642033L522.658619691887,202.50413175216818L518.3837884625755,206.8339817597589L516.5286730234366,212.13767934642237L522.9812484639187,227.39707584174903L523.223220042928,228.15454701431008L522.9005912709035,230.10229202520713L522.9005912709035,232.37459204230254L521.6907333758209,236.9189686596801L521.7713905688142,238.97466023446032L522.9005912709035,241.1384802609682L525.7235930261159,242.7613009683846L527.2568862651606,243.08586055230262L528.6280585462664,245.46591775125853L530.9671171434311,251.4157033902884L530.8864599504232,255.95883235639485L532.0963178455277,258.229203620067L540.2435009110486,262.98819712871773L585.7365774822028,288.72436845178163L614.451344764253,332.6052357816516ZM321.0535460576939,886.9908920406378L328.57240958970215,878.1148229458122L330.93324562899215,867.5296071860939L331.44945166422985,857.1025781939825L333.76915253508196,852.810789892319L344.0061634714075,857.3460075894982L348.9157668096668,865.2650448890126L349.67313785199804,869.4091812539918L346.9372458652433,878.4310789998999L341.56547681103984,888.2611071822466L340.2483448492494,900.0499648519253L344.106178390728,908.8236024059297L352.7711806353691,918.894733542249L357.4331663911071,920.903643669837L357.8961386789597,924.7509478889551L355.33204651330016,932.9323307046725L351.3782309121452,935.0383174113958L317.7062725479482,940.8000000000029L312.6305153920839,940.1648348988529L303.1831383752942,933.4090219336504L302.03216023109417,925.8651375352929L308.1362965977969,902.4441504019633L316.6625684704486,895.7425829573695Z" class="state" fill="coral" stroke="#111" stroke-width="0.5"></path></g></svg>