<svg width="800" height="1072" xmlns="http://www.w3.org/2000/svg"><g transform="translate(0, 0)" id="single_state_map"><path d="M141.52256612930069,1059.9883183291695L141.53172802894187,1059.0866961687716L140.78902306727832,1057.431022232493L138.77163187414772,1054.211900646762L137.22179310813954,1052.3176558918585L136.73355252052716,1050.3806046736408L136.37446516341151,1047.573967967457L135.87883594704908,1046.1477873241893L135.364882931397,1045.3934042133933L133.73229152342174,1044.4187911825247L133.28247180528706,1043.8390776343913L132.87846158539105,1042.872858439585L131.8869076075207,1041.6308091899537L130.6394115298499,1041.3002566488594L129.86922086924096,1041.448422032534L129.62184957878708,1041.8256761136272L129.48501217438752,1043.0041054107787L129.05913161339777,1043.5665270938389L126.90312974497283,1044.8720855826523L126.05018644240045,1045.1385834179018L125.38993857755122,1045.1104040231457L124.51010066633899,1044.254137801894L124.31829186406321,1043.1587021840696L124.87834992309581,1042.0451008887685L126.26209231486791,1041.326427229018L126.78875377196891,1040.767176084264L126.88451040053042,1039.851168890018L126.6451188291212,1038.6295051687339L125.79158443624692,1036.9402571479113L124.58221368290833,1035.14981117368L123.83862208579376,1034.3077013625025L117.55946983128524,1028.595826968487L116.6184540740469,1027.1254549268197L115.62867336707495,1020.898172483603L115.24416912707238,1017.4063292446972L115.2536265718627,1015.397642753409L114.91434073979326,1013.6104849163839L113.47326258894464,1011.720810927005L112.3439845712237,1009.1771026501883L113.23505319813921,1006.3472745685067L112.96906256323564,1004.0518094406598L112.67942831634718,1003.8417273184841L112.64928271105964,1003.560270947808L112.9693581083884,1001.9037268456377L112.88542328581752,1000.141410649434L113.6482253176764,996.2937237909664L113.88732134394013,996.0262995425874L115.52286820341033,995.4176263975842L117.2320058052137,994.5144716095929L118.24306576297386,993.5096280005073L119.57597438896846,991.8128790275532L119.96254744502221,991.0568485171079L119.92737757218492,987.3392970088789L120.33227442752832,985.5590007146766L120.63579929646221,985.0977653644695L121.79433628401966,984.4343462384386L122.04288975508098,983.9452448926404L122.09845224325545,982.7644209746468L121.25467084032789,978.694870530866L121.4766252478912,975.8155528570878L121.39446369622237,974.1264778349378L121.15595876026055,972.8155893173789L120.82524373754131,971.9386644111291L120.46674747072393,971.6156640154331L119.89634533144272,971.4581998005433L119.24378164049631,970.6179700359025L119.05079065762038,970.0918530351919L119.17994388812076,969.187777931742L119.7506415725511,968.0522873041846L123.81852501559842,964.7307197308037L126.92795553756514,964.3264475808082L128.01408396340048,963.6624738520641L131.4509785114351,962.9221464549319L133.1429744945417,961.2495634603001L134.66976073886326,960.3625358145182L135.3970973527321,960.519262492824L136.14275776590148,961.2669320825535L136.9983609748233,961.1461593183049L139.31602604023647,958.5508167340449L140.6040118034507,956.7587612454427L140.6128781579464,956.2969911010641L139.89499898886788,955.4655407959144L139.50813038766864,954.0712436237991L139.69166392574698,952.445340116954L140.21596102164403,951.0872412028821L141.09934547465673,949.8195882549826L141.9904141015686,949.3241474855822L143.50922062683821,949.6187460024521L144.42038632394178,949.3795112595944L145.52483854907405,948.0673161921404L145.8839259061824,947.3281403587043L145.86530656174,946.2288332436892L145.62591499033078,945.5817550828378L143.15840853392365,943.4940956191713L141.96115513173208,942.8659445472713L141.38100000250415,942.0158537870138L140.37644203803575,939.5207925611085L140.2011837641512,938.3196618204001L140.81739540166745,935.3155697302227L141.01038638454338,933.4110376494882L140.42047826536873,931.9782964605874L139.34232955857806,930.647386528326L139.06569929828402,929.9630987518285L138.9087648236964,928.5673681816916L139.16648019439526,927.725685679985L139.95824565094154,926.6437116283869L142.64829760521752,924.1831066892428L145.45834089034906,921.0013115993188L147.03418762954607,918.6987561709047L148.12179378113433,916.8022544652358L148.38010024213145,916.0714536177475L148.41704338586715,914.8226488212586L147.22806524786938,911.491925266535L146.0940585077551,909.0678646025099L146.27847868128447,907.938929916676L146.8222817570786,906.9208611707854L148.5193020077313,905.3938820382009L149.02645748493887,904.2927146170259L149.16477261508408,903.7097238161059L149.07285807346852,901.4513146738755L148.19686224920588,899.9426247740048L146.70997460011858,898.2309643502795L146.12893283544327,897.18455394595L146.1841997784686,896.7957833996443L146.76524154314757,896.6661918614773L146.81134658653173,896.3701536478839L146.72829839941187,894.916234724913L146.43304879467905,894.5833198314667L145.7503394984342,894.2775363939236L144.54185538055026,894.3516537856995L143.45336259351097,893.6481371436967L142.0040091784649,890.5559911182754L141.93012289099352,889.7721594628765L142.10833661637662,889.352890484588L143.21249329635612,888.3607948393001L143.50774290109257,887.7494756047636L143.5813336434112,887.0733203155614L143.41967044642297,884.5374722020224L143.48823692119913,880.9879019643304L143.2849018580746,880.2005253397674L145.54641334501503,877.828923650959L145.98943552469427,877.1156155274966L145.88776799313564,876.1056009025615L144.2072982708778,873.2889338254954L143.95756261921633,871.9451381088675L147.30047380959513,868.4789027068891L147.66990524695575,867.7835701022123L147.41130324080223,865.2441223634014L146.82937484067588,862.713335531811L146.8479941851183,861.1742991032479L147.68852459139453,858.6528300392456L148.63131361953856,856.5574262457849L148.86242992675034,855.3425299002483L148.70519990700996,854.7214696754563L147.984660831582,853.3580031808215L147.30993125439272,850.955831190533L147.38204427096207,847.4399871796013L148.06623129295258,845.5940195500552L148.4081770313751,845.1764359731351L152.43882178553758,843.1639007063241L154.25140018979073,839.944477432653L156.49990769013675,835.2688290230617L158.32519453583882,826.9435942318669L160.15875664574196,823.0449592454206L160.05738465932882,822.3857167465885L159.52126575743023,821.3917423680596L158.06925243603837,820.0447152555244L156.2475121321295,817.0814843378721L155.80389886215198,815.9759707630001L155.75779381877146,815.4559031466197L156.14673123602188,814.3507230672894L158.52764296351233,809.7263077603475L159.0277053571226,808.9923357870648L160.17619380958422,807.8409392974863L161.50112271653052,805.9834726972786L161.74258310398727,805.1941086534243L161.13169127917354,804.8124245993295L158.68723734445302,804.8855913292828L157.6504649586459,804.7177140099066L154.8640652855138,802.8303365990214L154.47542341340886,802.2075475953952L154.35513653740418,801.5477480931022L154.09535235065414,797.2238560412625L154.27179280513883,795.7274948875402L154.92997185393324,794.0639063556173L157.2650740831923,791.7499042969484L157.69125018933119,790.959677740253L158.7788563409158,783.2057354927929L158.82584801974735,781.4757959528124L160.02457914769548,775.076974839425L160.1005342512144,771.9972167247342L160.59320801607828,769.5040684723808L161.41955225515994,767.615620514769L161.60545015443859,766.833982948132L160.99633160052326,761.1936509294119L161.03416137970635,760.2627680864061L161.3220223556964,759.6861405841864L163.401182485155,757.4809044397516L163.85632201598128,756.7457818143575L164.21925146004287,755.0795583322488L164.60198242914703,751.6441181943501L164.62148840903683,750.3776012460821L164.46425838930008,749.6605990966891L163.31783875288966,746.8636835939033L161.9042463009755,745.3805578671781L159.90961208438966,743.6842250530917L159.2975380789685,742.556667439294L159.24227113594316,741.4946703524001L160.0514737563317,738.5908563244775L160.01482615774512,737.2376637540274L160.52641481220053,735.8028722208419L161.56614264950622,735.8595317697818L162.03990152477127,735.4498680614561L163.75022130717116,732.6272830138951L164.61528196089057,730.3074983911683L164.3776636603834,724.5845626935134L163.90597360116226,721.5078575278185L163.95266973484468,720.8275371993077L164.8939810372358,716.7721435712956L166.76005311362678,714.589573604464L169.48202394408509,712.8625541812653L173.61670059101016,711.2002904016263L178.80174470063503,706.4511614989078L179.61804040462084,706.1095707669374L179.94491334039776,705.8630674540927L180.1958311726521,705.0982384447889L180.0282570726631,703.4003471718315L179.64700382931187,702.7660567014354L178.70776134296466,701.982354723963L178.10337151144995,700.265470143253L178.20503904300858,698.3341376327353L178.8082466939304,695.9580350106371L179.8113269326459,695.1737073436361L180.32262004195218,693.7270653706855L180.28538135306735,693.4657379417586L179.66207663195382,692.7842319146748L179.60621859862295,692.0471714391697L179.76403970866158,691.6735284486458L180.27562836312063,691.1790042236753L181.71729760426751,690.3103979124808L183.86591084394968,689.3862193076293L184.20992539842337,688.7139932930404L184.27494533139543,687.1832422507032L183.9214733321278,686.0163275833384L184.22854474286214,683.2619927976775L184.56339739768373,682.3281528629705L185.16808277435484,681.8052523330553L186.66649668428727,679.0226620963695L187.09474160647005,677.808371672525L187.36486987346507,675.9500477055935L187.4582621408299,674.3061226368736L187.0861707971235,673.0544100306561L186.59290594195772,672.2697583794852L186.79801427598431,667.0753032094417L187.5247597995549,664.2350333231425L188.45631811199564,662.6651401629188L189.88114127960944,661.665507348971L190.6729067361557,660.71285408312L192.22895195031015,658.2926211373542L192.86289629681778,657.0216884467409L194.3258447887638,655.2742528241397L195.44389209078508,654.2841339355109L196.88969896403432,651.3867532010136L198.93930457850365,651.3785726460192L204.6069739178929,647.7236364093787L208.25843424474806,645.5991458134031L210.93843766392456,641.6892413855621L211.40421682014494,640.8753495774508L211.98141649787794,639.322373853598L212.5775310652025,638.4617496267983L213.05276766622046,638.143356011893L214.73028193697974,637.6567541705881L215.69967002861085,637.0109379669066L216.5198078195499,636.1968906077618L216.29489796048074,631.6878303453559L216.36021343861285,630.7892754471759L216.7237339729727,630.1248557793242L218.80259855727854,628.5245251155175L219.24118755970994,627.9161345565935L219.94103847464066,626.603908265548L220.6592131888683,624.1020899893883L222.40499838925098,622.5087365244945L222.85245374618535,621.0840080080034L222.6009448236291,619.3036973992057L221.93892368787783,617.9385819633007L221.3046837962247,615.7693129145628L221.3977805184404,615.058606076971L221.99389508575769,613.4023946640336L222.8512715655852,611.8587357652013L223.1864197655559,610.4932046642862L222.99106442148332,605.9544064268775L221.65667806973943,602.4697322854772L221.49797032424976,601.4393571280834L222.42243555309688,598.4606974513936L222.96387426768706,597.6646325195888L224.0189704527911,597.3178319627987L225.38202468406962,597.233795626058L227.53891318794922,596.1007116279397L226.85797716260277,594.3480994231068L226.23023926424503,593.2312816467638L225.73608777363552,591.7876247251097L225.9698639871931,590.128605459844L226.30589882261484,589.4540584887654L226.61444795909847,589.0329185032042L227.61339056571524,589.1456879550569L229.50635725074244,588.69050624997L229.98011612601476,588.2435177625975L230.16660511559166,586.4189817514125L231.01215978942128,584.6316327094955L232.3125584489244,582.7514529876771L234.16946862566328,581.2813337943153L237.10245869314895,579.3385405234203L241.27407848380608,575.6740510330546L241.80960629540277,574.8550863348519L242.15746293681877,573.8949424332623L242.52571219358288,569.5323771480707L242.52600773872837,568.9762797317253L241.87019305113063,565.7145440429485L241.9550145091489,564.8381886671668L242.20888779289817,564.2355991217391L242.96873437326212,563.9067956897452L244.2679508521651,563.8965333390406L245.74478996615653,563.1921152703617L246.1745126140886,562.7134606192612L247.86857741324275,559.78878345466L247.78996240337074,559.2883017386685L247.2169003577401,558.4786409947937L247.3206367053499,557.8106095902185L247.9058161021312,557.2542449492576L250.33105960210742,556.6071214769199L250.37332255853835,556.4408211112332L250.11028737513698,556.1825400237849L248.61571555216142,555.4889863377612L246.01166723650022,554.7424393722522L245.39988877623182,554.9218919666673L244.2463760562241,555.9706571531988L243.26280179740206,555.7431684564017L243.12891984450107,555.4068590773459L243.13601292809835,554.9362645429737L243.6159782515133,553.576170657403L243.7897587996522,552.3999896679379L244.00668893966576,548.5848139129739L243.69429771623254,547.3208976158639L242.54374044772703,545.7048623937408L242.46128335090543,544.6671584944324L244.81559601490517,542.1795292662227L246.36839023241555,541.233711630688L246.4242482657428,540.6609441004694L246.02082913614868,538.539039490568L245.91709278853523,537.1961120741853L246.74964347577043,536.2842106687713L247.8071040220675,536.039688717583L248.8858438191528,536.8192736743531L249.43644443339508,538.1055137891999L249.47397866743268,538.5468469917432L250.07304868625215,538.6499879568437L250.41913205676974,538.3302906367771L250.49360943454303,537.7669063611575L250.28761446506905,537.1661131565907L248.90180325725305,535.5510484262031L248.76112376590027,534.3111156713185L248.92928895618752,533.4282878403101L249.23783809267115,532.8742436113153L249.83661256634514,532.3481365401149L250.29529863896823,532.4139005452525L251.95242029438305,533.6432437449475L252.67325491496376,533.2955320992442L252.8975736837274,532.6855862101147L252.84112456009825,531.3234282053709L252.99096595108858,530.6752049714923L253.39320290008982,530.1675482283463L254.67823321179822,529.3906279537387L254.86856428832107,528.924052813074L254.72611152608079,528.1738141374553L253.57023444486913,526.1523711636546L253.51171650519245,525.37203367863L253.69081686602294,524.7729905237829L254.16871337339035,524.0719638686278L254.9049163417585,523.5370320103011L257.4049327646535,522.1361209652405L258.66750164497716,521.8762424891993L258.5011097255883,521.182534305568L256.81886673243207,520.1943669511511L256.59868559576717,519.8670251037929L257.05323403629154,518.5440421819967L257.70254673059026,518.4165516876619L259.6389585526522,518.5905143574782L260.13842985596057,518.2923506287352L260.3843234206688,517.9074055740693L261.22928700420016,515.7900989872014L262.76405296756275,513.977821278304L262.6810047804429,513.0634048121065L261.9202715646388,512.0387074961309L261.7849118859849,511.48623335955745L261.91376957133616,511.22582980982224L264.5967284420112,510.73957117437567L264.94428953828174,510.8831460121637L265.4869104334757,511.76308905483165L266.206562873449,511.97741351557306L267.14964744674216,511.75856394990114L267.60833351936526,511.0551055916512L267.5755280077283,510.67128026667706L267.064234898422,509.99000626477937L265.2779600125032,508.9857505791206L263.05486939505136,507.2943438857019L262.6186447538166,506.57059492238295L262.9428577832441,505.8579342085286L263.37110270543417,505.584303159083L265.21028017317803,505.90360766303456L266.31000367590605,505.70856906964036L266.9013895208336,505.33741536153866L267.3139705500762,504.80166022636877L267.6142444223624,504.0119965539525L267.8681177061153,502.1124192105035L267.80280222799047,501.23747734079006L267.28766703173824,500.5979185545257L266.1350409471779,499.99538447366103L265.3101744338419,499.8916680856546L264.94458508343087,500.17359453646895L264.4477736864683,500.9728485561791L264.3440373388621,502.2519296108985L264.18473850307055,502.5153098973351L263.7629955741795,502.75975717497386L262.7507534358192,502.55275905031704L261.9637167016699,501.75314538224484L261.5517267627256,500.831273032456L260.830596597003,497.1068000740888L260.8767016403799,496.27942787919164L261.5662084750729,493.09151789433963L263.31347140120124,491.43647218633123L264.6381047629984,490.7192507371092L264.9986698458597,490.7130748004074L265.5569546339975,491.1412693633192L265.9509163187977,491.10833158766036L267.0748745238161,488.2948691937272L266.9155756880282,487.89009581035316L265.846588880886,487.3720748769174L264.62776068275343,485.97896384170235L264.3664987702541,480.16228506743937L264.413490449082,479.7577881881807L265.1895920126881,478.3246946733816L265.1644706749503,477.79987873023674L264.50836044219614,476.2368981956788L262.96975239188396,475.8315120278676L261.3655333182942,473.3174724311011L260.0429687725482,468.5618397017806L258.907484306681,466.29227418650225L257.48059232302694,464.3048393352474L257.9502135661969,461.34687910886714L258.2504874384831,460.7252329692019L259.2831221921879,459.90527881515845L259.60231095406925,459.21763377981733L259.87450803711545,457.5879032605153L259.7152092013239,456.70228665526156L261.3028777465188,453.1310439651443L261.4716340271043,452.32073048667917L261.1057491315478,450.7280661036966L261.19973248920724,449.3518242594346L262.0644975977775,446.2414859999881L262.8822710275199,444.2152828400813L262.71351474693074,443.0936208600724L262.225274159322,441.92446305597696L261.07915006805706,440.73627039268104L259.3673525599079,436.9848303903673L258.95595371126547,433.94801683527294L259.19120765057596,433.29843024969705L259.3525753024114,433.28481103094236L259.6076307667645,432.9022316710689L259.7536300708125,432.08711528779713L259.6753106060896,431.21253717705076L259.05289252043076,431.22615755920197L257.95996655614726,432.0413028705916L257.3925198683646,431.9034523726441L257.00535572200897,430.81176432727443L257.6969313727459,428.2282508653843L259.6339342851061,424.51079428542107L261.26682123823775,422.75156373362734L263.3513011803916,422.13966344168875L265.50818968426756,420.2898304723367L266.0915958101468,419.7237038315652L267.1452142694907,418.0537390557929L267.41829798799154,417.279834080633L267.4845001015601,416.0718487125796L267.47740701796283,412.32361353408487L267.0444333733831,411.66394677184326L267.2424486238051,410.4180900633928L268.4467951095976,409.5782572812168L269.4155921109268,409.7203658083454L271.3818539931235,410.41065438681835L272.73751959565925,410.14255541286L274.08697875004145,409.76291558315097L276.3517412336296,408.5566211613077L280.4917376932535,406.5334645212315L281.03022095634515,405.9343761298351L281.5820037511876,403.85811036601626L282.6155251403434,403.33870621482856L287.93149575136704,403.7287768809729L289.41335913290095,403.32052480179664L293.24244209484095,403.2378818433208L295.0494051412534,404.0229785680858L296.1293271189388,404.05355550479L297.98682838598324,403.3068887330646L299.1755109788246,401.4692549648007L301.43761355606694,399.60503205929126L304.54822625863017,398.88219899313117L305.9009364096637,399.20662930923936L311.9409926379085,402.2192842320819L313.7237209820305,403.3924239463686L314.7259145852986,403.69902594969426L315.48310125930584,403.5610142073183L317.83830055876024,402.2606074837895L320.5907125396625,401.94489605304443L323.04639719007537,400.5683626713526L326.31453545753175,398.11677420142223L328.38778468398596,397.34388553549616L330.5771831543534,396.9582585998978L331.9032942418962,396.29610671107184L332.33153916408264,395.8802892186686L332.53723858840385,395.1325437797077L332.45832803338635,394.66916976409993L331.71414534596624,392.5158730309722L331.36953970119794,390.91472795352456L331.5666683161762,390.3867774892951L332.35222732457623,389.72031144598805L332.5286677790573,389.2886698047132L332.4728097457337,388.8586743125743L331.6373036069999,388.0061029788376L331.48302903876174,387.6463766796569L331.892359071353,384.9718301295761L332.26415486991027,384.6124722784916L333.53559010472236,384.1737093730353L335.1217809241716,384.3916444397255L336.05127042056483,384.0025028402906L336.1745127480681,383.309807045307L335.11350565997054,381.4764454485885L335.1138012051233,380.8535754626191L335.44924495024316,380.23730717955186L337.94039501864245,377.80061897991436L338.8967791236755,377.3915158888067L342.4654868085636,377.5822109100118L343.41536892030854,377.03328647199305L344.1831952197099,376.2179431696186L345.63520854111266,375.2466104739615L346.49554047243146,374.7741679577357L347.3854269187432,374.59213860736054L349.12175467432826,374.85111631682776L349.63925423178443,375.1920028787208L351.05993976729224,376.69035750155854L352.39639493508,376.93690282528587L352.9599995359167,376.81363047736886L353.1952534752272,376.52033904498967L353.9007197480096,374.6951508397251L354.5169313855222,373.8085693617395L355.0823092572573,373.336512495287L356.3835945522078,372.9422283174081L357.95619029476075,372.78914668485595L361.2402880003101,373.1594370800394L363.3226991264164,372.54421405836183L365.86645623149525,370.8511322238828L368.38272763763234,368.713923063895L369.8811415475611,367.8155354197679L371.62485793189626,365.9520298955413L371.85892969061024,364.1864711787548L371.629882199446,363.4050482163166L371.82789744987167,363.00936043565525L372.3832267865073,362.72624930616075L374.87762785156156,362.386428793734L376.28235394897274,361.62978326709344L376.98013604785956,360.8259249423627L377.81032237389445,358.9055805549906L378.31511348989443,355.1501400970228L379.4869500092027,352.4604043671752L379.7907704232821,352.2044995109227L381.934063850269,352.4413565261966L382.5892874475685,351.94900603797396L383.31248642934224,350.93363089675404L383.18155992794345,350.2093425519597L381.4957703929831,348.9942783740189L381.1077196111837,348.53581804458736L381.01491843411713,347.68803696802024L381.1582578318121,347.23162272716036L381.691125737063,346.39663571226083L382.5124457085949,345.77203331229066L383.63522173302044,345.280375374763L385.56128947483376,342.772640027084L386.08972420283317,342.59326940023857L387.08039154525613,342.64132263175634L387.66527539688104,343.05805613202574L387.85944856036076,343.64503337570204L388.72539584952756,343.809483864743L389.4539146440002,342.55681516087134L390.04796039527355,342.016623168829L390.5477272437347,341.9217569175871L392.4259166712691,342.5829130878283L395.4073761433283,341.71006712776034L395.86931321260636,340.91466034496443L396.58837456227775,338.40854350442896L396.72343869577526,336.64967344914476L396.93741338429754,335.78780109496074L397.64258411192714,335.69415349688643L398.1334846058926,336.0745428104492L398.3205646857641,336.35879496697635L398.3208602309169,336.7093403972376L399.1040548781202,336.70892604393885L399.4264946366493,336.0745428104492L399.1998115066817,334.90766509462264L400.02083593306816,334.76511651051806L401.1722798370283,335.3614115284181L401.5310716489912,335.3046418930826L401.86119558141945,334.98266851774315L402.0311340426051,334.42365950478234L401.82336580223273,334.0734953055817L400.2090981935471,332.67195890367475L399.698987264841,331.8957329975492L399.40610202130483,330.5317860517207L399.12267422256264,330.0203378979386L397.58347508194856,328.7325513478754L397.03553437405935,327.91806447762247L396.95041737089196,327.1130840524256L397.3653627613312,326.563427007688L399.06504291833335,326.7997064558858L399.47082640912777,326.7047804290669L400.42425506266954,325.9843253206036L402.08551435017944,323.5301397026051L402.8030979741088,322.146648447384L403.2277963544948,321.0470957135367L403.20888146490324,320.3554961688569L402.5852811986406,319.16173547616745L398.7777730326452,316.26271204339173L396.1982549644272,313.9510397810809L395.8104997277733,313.1265146590449L395.90477863058913,312.3965292725443L396.3953835794018,310.85104417379443L397.0497205412539,309.64187987364494L397.59115925584774,309.1005362564756L398.1589014887795,308.8615945210495L402.4889334797772,309.2428216173794L404.2385607671131,310.0716275390332L406.07094069641244,309.888695346679L407.12101261396674,309.5149452188434L407.49960595096854,308.91220390555463L407.37547698801427,307.5818055440068L407.67486422484944,306.8881605936913L408.1107933209387,306.75291409978126L409.2539619606978,307.26485542111004L409.53738975944,307.2175614594289L410.1329132364626,306.78153995467983L410.40688359041087,306.2982148070314L410.3406814768314,305.795795313501L409.0556511651266,304.2025875168474L408.92117812192373,303.5876807447585L408.93772865032224,303.0806405641597L409.08520568011227,302.6428845370792L409.6925509631328,302.75823713300633L410.2466981191683,303.2731677141928L410.78518138226354,303.5291766523842L411.5317284308803,303.225865927463L412.95004960519145,301.8798007741698L413.65906241977063,300.9407472242001L414.094400425558,299.42357772854666L412.80877902354405,298.588595819645L410.2472892094702,297.45933225844965L409.01220602808826,297.34436934970836L408.6673048381708,296.37608599556006L408.7160697879008,295.2869801692086L408.2535416283281,294.052130342061L408.3224036482534,293.18043356980706L408.6025804503479,292.47931744526977L408.8863037942392,291.69183470962344L408.820101680667,290.6481832770569L408.09217397649263,287.5738400682858L408.32861009639964,284.61288319972846L408.6519364903761,284.0863420558271L408.87891516548916,284.0767911244657L409.0982096667103,283.5639420788066L409.52202141164526,283.1681895672573L408.66139393517733,281.25827052132627L406.44776076251947,279.4379132726717L406.2964416457762,279.1529897923301L406.2964416457762,278.22301930846334L407.41271567690274,277.96674154590255L407.6589047867601,277.2734903106011L407.49783268007013,276.2009676808684L406.55179265527477,273.77037664371164L405.77184900472275,272.68897353915054L405.2596692599727,272.25855910764767L404.8160559899916,272.38444366067415L404.5110533953084,273.22490354137153L404.05059405178326,273.6627785859764L403.4807830028003,273.70847666147347L402.59946736583515,273.6091870961136L402.323428195843,273.0275663612392L402.2545661759177,272.54273320476386L402.4324843561517,271.9631640591342L402.34293417573645,271.4990832296735L400.2883042937174,271.1126886109614L399.7317927764816,270.61618320231537L399.2204996671753,269.92562896049094L399.2204996671753,269.2471048210791L399.61416580682635,268.2448651901832L399.81277214754664,267.48526276742086L399.49624329201833,266.5324015706119L399.49624329201833,265.85378184515866L399.84114448193577,265.46563435018106L400.4177530693669,264.6170074403326L400.57852963091136,264.08504192779037L400.27530030712296,263.54350559165687L398.98790563421426,263.5061004834224L398.2020510806615,263.24966612155913L396.34602753936997,261.7783367810389L396.31765520498084,261.53144389808585L396.82865276913435,260.71426859272106L396.96076145113693,259.81143637014793L396.3067200344376,258.4629443625581L395.832370068867,256.0688108770246L396.18229552633784,255.1944916432367L396.92056731075354,254.7475496715124L396.98676942432576,254.35839157885312L395.6509053468362,253.91226564170574L395.2058143511058,253.53224131464594L395.0255318096715,253.12393715788494L395.0255318096715,252.74390038632737L395.48865105954974,251.47027608345707L395.32757895285977,250.87148720828918L393.801974889142,249.6938256329322L391.3838244727631,245.20928520406233L389.8289614392088,243.67986708626995L389.78137867007536,243.1378715524188L390.102045157706,241.4169652173714L390.0355474989774,241.05587956997988L389.618533292487,240.9040389408874L388.5764410939846,241.53219532607727L388.37753920811156,241.52304349645783L387.888116439899,241.008455476398L387.6844858316217,240.4759680088482L387.67650611257704,238.49858914842844L387.8476267543665,237.65233949113826L387.8118657912273,234.79009755892184L387.30086822707017,233.4393705755756L386.0595785975456,232.8297292732932L385.80600085894184,232.14558097563713L385.8308266515305,231.25915551833168L386.01642900566003,230.93037908549377L388.1830704994827,230.14712395743118L389.951317131261,229.83581249740746L391.0457208212938,228.67834778170436L391.03715001194723,227.86338595041343L391.77601288666483,226.3137168634712L392.82017390121473,225.76716725343067L393.8897517986625,224.90132066069418L394.8189457499029,223.09917746107203L396.42552918468937,221.70241315969724L396.4615856929777,221.34852556443184L396.2349025630101,220.8722262715055L396.15540091769435,220.2181320574855L397.3325572496942,218.64048850750623L399.86656136483,217.40919673091958L401.1631179373835,217.5145481395448L401.4784646123153,217.26886627186832L403.16041206032605,214.8485574530132L403.6158471362978,213.62081968743223L403.1952863880106,212.32263117990078L404.0012380117514,209.26992508961848L404.386628887205,208.53345218561117L404.3517545595205,207.7965401319325L403.2736058527298,207.1425065468411L402.60124063674084,205.8168883273429L402.4945488376252,204.77825576089526L402.84506538539426,203.93623467158432L404.7386231607197,201.53916693036263L405.55462331956005,201.18664904907564L405.66870374741484,201.51041566572349L405.98168606114996,201.51041566572349L406.4087488027326,201.2058168210042L407.76352776982094,197.126486862584L408.933886563369,196.44132150671794L409.37543101730625,195.72862877186162L409.4383821342308,195.13136763564762L409.24657333195137,193.94722121312589L408.5425847849183,192.41162020457705L408.0360203980126,191.9409996931463L408.0197654147705,191.12979335076488L408.37589732038396,190.40485349687515L408.9504370917639,189.74784481976167L410.5200773828183,188.32746068019333L410.51061993801704,187.70791841334903L409.94110443418685,186.65057382298255L409.9789342133736,185.7929064046839L410.16896974475094,185.3830331277586L411.242389729141,183.90609701053108L412.952118421239,182.86735035286802L414.5858920098144,182.4198956478358L416.1918843543026,180.80974031742699L416.2702038190182,179.4046758087461L416.4318670160137,179.0330644054793L416.9354759514172,178.499618898084L418.19006511269254,177.78514203071245L421.17536667170134,173.84950722452777L421.3467828586363,173.2967564166902L420.643976492207,172.63844487816823L420.56713475323704,172.29843533042913L420.70899642517907,172.0130739050528L422.2541064687939,170.7385015414493L424.0773244984448,168.64521891950972L424.4866545310433,167.93044853693755L424.9477049648667,167.78815953826052L425.7043005485757,168.01724023900533L426.03649329704785,167.70220155239258L426.60512216543066,165.2222227454913L426.46237385803397,164.84079319143348L424.5753180760039,163.7148311824094L423.48327874717506,161.8254499905288L422.0871234591068,160.00270506550441L420.319172372474,158.37977366055384L419.7990129086793,153.20845169948552L420.0369267543392,152.73163363299318L420.2278489211676,151.6151241033931L419.83891150391355,149.91646012461933L420.4214309943418,145.25871390698012L420.01357868749983,142.82444852757362L418.1968626511407,142.09804724409332L416.78031474772797,139.0234425788858L415.4675031919287,138.03956930852473L413.6413297107756,134.58211452349678L413.4025292296683,132.95913222903437L413.8789480112864,130.45382394423177L415.91495854885943,128.1639226416246L417.41485018454114,127.23394035828824L418.8908026630743,127.06256889565702L420.4905885594162,126.36620296970068L422.51270847494015,124.60513442784213L423.33048190468253,124.61307687437329L424.49640752099003,125.20206464634612L425.57307850202415,126.399224380335L428.48331159296504,127.62892600984014L430.83407771516795,126.80592738733685L431.3376866505787,124.90485545230331L431.85163966623077,124.23559873958584L432.70842505575274,123.59516818028169L434.78374309826177,123.02119072746063L435.28380549187204,122.31969049406143L424.0731868663461,122.4325673661242L424.7878150387769,122.07930278935055L424.75973824953326,121.59224899705441L424.52182440387696,121.31506288690798L424.82446263735983,117.01554970893994L426.57881864708907,113.66086628549783L427.4243733209223,110.55374739430226L427.4429926653647,109.76027789375985L426.8326919308456,108.88144938903133L425.6419405219458,109.37921914045182L424.9480005100122,109.34157305060944L424.54990119311697,109.15836123455301L423.26487088140493,107.61857361806142L423.3035872960427,106.49995888816738L423.46584158332917,106.11759316885218L423.9901386792262,106.01258794669411L424.6471355474314,106.29999158274586L425.47673078316075,105.12525450059911L425.95935601292877,100.8027462365244L425.2813754390845,98.90002600720072L425.42382820133207,98.4982887267106L425.6049973782101,98.51712031247189L425.9614248289763,99.06490372979351L426.14909599915336,99.10005517849277L428.0163502561445,97.77891104926675L428.0160547109954,97.25286027319635L428.8438766758263,95.18620988623479L429.87326043288704,94.9179256480129L430.65438626403557,94.00883405682907L430.74009435750486,93.6643580026157L430.4540066524132,93.2914141770998L430.4918364316036,93.07124483365078L432.11231048843547,92.70708196455234L433.2661187535923,92.80209970765281L434.429088918394,91.69200101490424L435.2004617596067,89.10826859671033L436.020304005393,88.89768963490496L436.6303091947593,88.2563124630251L437.1256428659726,86.6867078906107L437.97415299129716,85.57674392079025L438.8610839861103,85.23172764582705L439.8050551948472,84.29379415681615L440.0716369200454,82.88682491518557L439.97617583663305,82.41823552502501L440.8820217210414,80.58985341262269L442.3703870958707,80.13043262119936L444.77405579990227,77.62209902040195L445.842747061899,76.18625377303397L446.3215302047138,74.72728296626337L446.45541215761114,73.76045105351841L444.58520244912506,70.31380425157295L443.78368400263207,69.57639941634625L443.36371434463945,68.45600327872671L444.55683011473593,65.59276274781041L445.50198350407663,64.62556107390992L446.1796685327681,64.29993887293494L446.45688988336406,63.87834162924446L447.2684568649529,61.349859260051744L447.3831283831096,60.59289700649424L447.08758323322036,58.59098085817823L447.8515674456794,57.91064325431398L448.7302231762915,56.65597106877976L449.5805065725217,53.78167226464575L449.791230264389,51.2806333727076L449.9729905315726,50.610151083612436L450.53659513240564,50.03525727646593L451.768722862289,49.3261605773514L452.78273827155135,45.943089347965724L452.69703017808206,45.06149134444058L455.00996652109825,42.79066030516515L454.95322185232,41.78394276222207L454.6287132777434,40.66182211366322L453.39717663816555,37.84265442398282L452.17421080793065,37.22843441261648L451.667646421025,37.31486250136186L449.7661089266476,36.72957879100613L449.61331208415504,36.59489857170411L449.5846442046168,36.08679906146244L449.2695930748414,35.348336219107296L448.04633169945373,34.197379517559966L444.9782774984742,32.222203362101936L442.97093484043944,30.53434092065436L442.3686138249723,29.603909187610043L441.68974661568063,29.68071209885602L441.39361037549315,29.402457753432827L441.3933148303404,28.731360387273526L441.54640721798205,28.453094965354467L441.86175389291384,28.107671983758337L442.97063929529395,27.915861436204068L444.6055950644659,28.48163515804663L445.37992335717354,29.12420016157921L445.6955655772508,29.92035237970049L448.3528120198898,30.553645840629542L448.8785868415398,30.083608565137183L449.2994431349798,29.355032480863883L450.83864227559025,27.993089500832866L452.30188631268175,26.861505452821802L453.5830745374442,26.411123421281445L456.01127348891896,26.98742621409474L456.7563428117828,28.666306167662697L457.49195468985636,29.58754132208378L458.61000199187765,30.345907294215067L458.82043013859584,30.28841165965423L459.3367475154482,29.6366448849476L460.2269295069091,27.977559964452666L460.32298168062334,27.239265741975032L460.97406764582774,25.733645518894264L461.2515845415728,25.436455830262275L462.65571954868574,24.832830343766545L463.7075647371348,24.736282429859784L465.29405110172956,24.053719504965557L466.4138716746529,22.917330627851697L466.9963911650775,21.899698168699615L467.1491880075737,21.295143468654715L467.1199290377299,20.287938087290968L466.31515959458557,17.97569707162438L465.5210297768426,17.11238053363195L465.2334643460017,16.402304441526212L465.34784031900926,15.903432892475394L465.9882866588123,14.972010086265072L467.66254993292387,15.479719816461511L468.12153155069973,15.450744117881186L468.64760191749883,15.239094468635813L469.84278650364286,14.010313543389202L470.9046802271878,14.412634984026226L473.1617585368731,13.615124807047323L473.87904661565335,12.674372863521057L473.9650502542718,12.059924203429546L474.5387033902043,10.715893784241416L475.5048404851841,10.226143858122668L477.7338420056367,9.726722976847668L478.4800935091007,8.747592455723861L479.6856221754897,7.748678247908174L481.2549669213877,7.662562993546089L481.8862513615495,6.98077123776784L482.47024857772703,5.473450722947746L483.5900691506504,3.745039996856576L484.9489857498302,2.641295499375701L488.5289241504179,1.2782454315110954L488.7393522971397,1.4702704596365948L489.07390940681216,2.603900899852306L489.01627810257924,3.3526220406874927L489.60943721840886,4.322731329224553L490.0589613913835,4.409278787828953L492.0979273804587,3.690001037257389L493.80115407925405,4.57439030040041L494.27934613177786,5.054593616228885L493.7429316847265,5.98556390052363L494.61153888025,9.557866787332387L494.83999528111235,11.794484202273452L495.10775918690706,12.341740969044622L495.8531240549273,13.542049870164192L496.790888815518,13.504252401104168L498.5783458820333,15.242454001545411L500.0235616649843,15.377254869321405L500.3202889954664,15.684228455544144L501.843233152842,18.29355428393501L502.75203448874163,18.629042305641633L503.0200939396891,18.955288331890188L504.1408011480635,21.842601991433185L503.710782954975,22.649072821459413L504.27379646551344,23.421093000635665L505.1823022562676,23.4303285447877L505.8434367565642,22.590299190065707L506.97153259368497,21.81279437397643L507.3734739975298,22.82959092629244L509.9843198516355,23.1083417802638L512.575364180695,21.494144416587005L513.9812724587064,21.513036825312156L514.4594645112302,21.79138324548694L514.9855348780293,23.08399319097589L515.9117733777748,23.428649355213565L517.1835041577397,24.266970045026028L518.264017225727,25.427640825306298L518.5604490110636,26.358235504430922L518.6180803152929,27.049127144397062L519.1151872574046,27.55741921002118L519.4305339323328,27.42310691799139L519.8035119114902,26.91481198958536L520.1191541315675,25.974584722975123L521.3430065972534,24.833250116449562L521.9645380474685,24.91930336088808L523.0929294297348,24.35344511423864L524.4527326643656,23.16081710364233L525.8279042467948,23.826613978408204L526.5543542252162,24.78623552976751L528.7913354647098,26.485418153992214L529.7855493489333,26.55299677763287L531.372922348979,26.256237047819013L532.9795057837655,25.748756760038304L533.5827134346873,25.22153668550891L534.7622341278875,21.758636776477942L535.7803871692486,21.087744088614272L537.1407814941813,18.141554402061956L537.082263554501,16.69246819160071L538.1994242210749,13.927580630785087L539.1363023462181,12.861266272291687L539.8535904249911,12.611374755015277L540.8572617540158,11.2858559401011L541.3443201610316,9.653636116314374L540.2632160027388,9.769566894337913L540.0238244313296,9.443195110785382L539.8512260637945,8.780776860032347L540.462413433761,6.937082129927148L541.5039145419651,4.555064330063033L543.6847422029823,1.5001035307668644L546.1345159504017,0.37482463708693103L547.2927573928064,1.8189894035458565e-12L547.6562779271662,0.07689836046483833L549.8492229393305,24.596497148748313L551.1242047159503,52.276048891739265L552.0737912825316,67.7420061500743L555.142436573813,125.96450849279609L555.4802446801332,127.99966322850378L557.0034843826543,156.90910591689862L559.3858738358977,192.70090759776394L561.4925196642907,229.95068190097663L561.7327978711546,237.9023898086798L563.4073566904117,271.59713507185006L564.7030266275178,311.9912948998626L565.7856085115527,336.07412844626197L566.4414231991504,346.9781475753625L568.0403224600486,386.55103920879264L568.8128774818506,401.9816741670347L569.2499887585363,418.0669538675338L569.9989001683498,435.8265200662372L569.9906249041524,435.9841558582084L570.0488472986799,441.3283111613091L572.1862298226661,504.07536811217506L572.1767723778648,504.1881196973791L573.0406508509877,525.507710589929L574.6962947806569,576.776491688217L574.7521528139841,584.9925581545594L575.5572178022776,608.3597425478638L575.8119777214779,627.5280013167867L577.0432188159175,643.6774133356776L577.8760650482945,659.1958919721601L577.8302555500632,660.4953332083223L577.9070972890331,664.542867767319L577.9165547338307,664.9537164798348L579.7610520142771,695.9547687318736L580.6444364672898,718.3279731970124L581.4104894958,719.0259025077521L581.8768597423186,718.8986369226877L583.8564211562625,721.3018872342291L585.2200664778429,721.9569075687323L585.6261455137901,722.5976359710858L585.8752900751424,724.8602401633161L586.3762391042001,725.4805031639353L586.8035973909391,725.6762436620229L587.1103732565207,726.1704814818477L585.8058369649189,730.3046443912517L585.780715627181,730.2667269323574L585.6060484435948,729.8814333074188L583.7577090762024,730.2455257470447L583.4329049564767,731.1029360231769L583.3590186690017,731.9888544567657L583.4148767023325,732.6040454836038L583.6471751901445,732.9860350803847L584.928658960056,734.0965026130925L585.275628966021,735.2554282709334L585.2259773808473,736.7835938981025L585.3521751598419,737.1007099947983L586.1563535126879,737.7553094656541L586.1625599608378,739.3094039170992L585.331782544501,741.7864592321821L585.7662339148374,742.3415005902825L585.9527229044106,742.9751778697682L585.0060917893243,743.6927823942679L584.6434578904118,747.2336361868365L583.8268666412732,747.8859289129177L582.4171162763123,750.5226286856232L581.5736304185339,752.5908062011658L581.7500708730149,753.503242098921L582.2143723034897,754.0433556217959L582.0476848389517,754.797702481017L580.1925479331148,756.1674427651742L580.573505631317,757.1449092883522L581.1675513825903,757.6010470472283L582.6242934263864,758.0009751625839L583.0602225224684,757.8608788840902L583.0924369438071,757.8551772744722L583.9805501192168,759.313117292284L584.269593275807,760.5771384076852L583.2233634452059,764.5837866867987L582.5507026840605,765.8560868435216L582.3633270590362,767.1462338481615L582.6854712724089,768.3272148054184L583.9178945474378,770.166354676132L584.0934483664751,771.2100197097225L584.0627116708856,772.0867618440061L581.807111086946,773.4828095522134L581.6356949000074,774.3619126936501L581.932126685344,775.7651567664179L581.1400656836486,777.2615096584923L580.0817185019041,778.3130124917006L579.067407547489,778.7475988514998L577.635195751136,779.8145002664387L576.478432034477,781.8765571027016L576.349278803973,782.8534105252911L576.5183306297113,786.2389393055055L576.7872767161134,787.0203681630501L577.659134908281,787.9591890161555L577.7336122860543,788.5823380502497L577.6416977444314,789.7911697087384L576.3076069378403,790.3406560206386L576.2062349514308,791.1313091305656L576.2310607440231,791.941458232146L576.9533730903495,793.0704167913409L576.7308275924843,794.0891192415547L576.7287587764331,795.8039416260544L577.2193637252421,797.1087858389492L577.2104973707465,797.3877183353325L577.9422671618704,798.3090676830216L579.5532837739047,800.9883478727097L580.2188514514528,802.7555377063727L580.0099010304803,804.7701503897697L582.2660927047182,810.5382845349704L583.2121327295099,811.305939702208L584.2728442724583,811.647292718535L585.0350552140153,812.9768989666718L585.4287213536627,814.230450483923L586.4613561073711,814.8131169318003L586.9073337385526,814.2381707011373L591.1676170741775,813.1430947098725L592.4606271049379,813.3897450085187L592.6193348504203,814.2836793008937L592.7839534989107,815.7224391692307L593.0375312375108,816.3115710782313L595.0572867918454,818.2621067735163L597.2821506801956,820.0857446095051L597.5821290073291,820.2567672216428L598.5875736072448,820.2717976558415L598.6995852190521,824.2805345477464L598.4528050189001,824.9559724825085L599.2374773918455,825.6086481077L599.946785751581,826.3803020691557L600.8097775892529,826.1739885300831L601.4525882902526,826.3437505835682L602.0212171586354,827.7708428430269L601.7244898281497,828.824255299156L600.9811937761842,829.5884994287426L599.946785751581,830.9285090830672L600.3605489614238,831.6999968084128L603.2276324604791,834.2985149966207L605.0304578747891,834.7451077772239L606.1239749293745,835.3130809295926L606.95150134906,837.4646834928717L607.2174919839563,839.2101856086265L607.5425916488311,839.4943254427799L610.2376678706532,840.4404875296877L613.002492747848,842.4873371129215L613.0021972027025,842.491801600474L613.5480690945442,843.2852499852743L614.000548719021,844.6569829962373L614.0732528258923,845.6394703978931L614.487016035735,846.0680028532624L615.4105946291311,846.5123539432152L616.3170316038377,845.8561723979055L618.8921164948042,846.86539431866L620.1006006126918,848.1220959651946L619.9516458571525,848.4592885359107L619.5550242660029,848.7408874702633L619.4917776039256,849.1653086201732L620.2587172678832,851.4869175194872L620.6736626583261,851.734402285243L621.7447182815158,851.5124775362674L623.4080463850805,852.0281350864716L623.7955060765817,852.1482237347464L624.2802001224009,852.2987394260726L624.8009506765011,852.536885022273L624.9043914789581,852.6001737556398L626.4098984724878,853.5235217197642L626.4370886262732,853.7275785891725L626.8925237022559,854.7056488650251L627.122753374013,857.1289544949068L627.5465651189552,857.1167858266854L628.1870114587582,857.4197838830914L628.840757330312,858.5956407715221L628.8318909758127,858.9387743937004L627.8125557538515,861.9030721657709L626.951337187078,862.5405789027682L626.6942129066774,862.9769290017739L625.553408628115,868.9877197210062L625.6707400526175,869.8597793624231L626.0313051354788,870.8619410419415L625.9727871958057,871.7217731341752L625.5714368822555,872.2783576077818L624.669433084804,872.5167162477628L623.6506889531411,873.1612459679491L623.4438073482161,873.4855313018943L623.3255892882662,874.2962260423064L624.3599973128694,877.1334484811669L624.7442060077228,879.2003628661369L624.5964334327764,879.7271957872181L623.9462341030267,880.2134931453111L623.3255892882662,881.4697170972049L623.473361863209,882.5232751220756L623.0891531683556,885.9668813847929L621.7003865090337,890.4231263102738L621.96637714393,891.8813595666907L622.8234580786047,893.8660390805471L623.0303396835261,896.255544196496L623.3849938633903,897.6324424482718L623.7692025582437,898.4423468436198L625.7789095774788,900.2645349191189L629.1162054100023,902.4999741378397L633.4908647186348,906.6913345265857L636.454000391408,909.0573405295399L637.8672972981658,911.0730237305306L641.1478484619147,912.0035016942056L641.6207207017396,912.3677506264412L642.6258697565063,913.662814591873L644.221813565895,917.1429637763649L644.5764677457591,917.5071371978247L648.8618724191256,918.5591637010712L650.0440530186715,920.1371197624576L651.3444516781783,920.2180378791872L655.2459432018404,919.6516055164357L658.6151579105535,919.5298208682962L659.4722388452283,920.2985511432325L659.8564475400817,921.1481726673283L660.1156406365335,925.6644338609731L660.1215515395306,925.7659634227693L657.2160471709904,927.2091753568911L657.0546795191513,931.148457627216L657.2396907829825,932.8424802043555L655.6478846056852,936.775611997502L654.3941820798645,938.0095657821585L652.8381368657065,938.6972702775183L652.252070833485,939.5887107048729L651.746984172325,940.7918013009148L651.5847298850349,943.0151015498614L651.0885095783742,944.4738825444274L650.7592722814006,944.9209176912027L649.3161253145008,945.3372270892651L648.3015188149402,946.6079380345436L646.7555221358743,951.683666296989L646.7052794603951,952.8110160640081L646.4762319692381,953.2102229939701L645.6383614693041,953.3855810944751L644.9485590894692,953.1698177261605L644.4866220201911,953.3524490136842L643.7554433193727,954.1047787834177L643.0759850197792,955.233634725877L642.161863871177,957.8515426552676L641.9682817980029,959.8115609837278L640.0241858020454,962.7541258181082L639.9907892001102,963.4031800234734L640.6528103358542,964.226287230209L640.0451695076881,965.4774548872974L638.9020008679217,967.1364270485828L637.8761636526688,967.3023989377944L637.4875217805638,967.7078341224715L636.0845689540511,969.7292578594315L635.6607572091089,971.1077374027791L634.4437022818711,972.9673926974247L633.4642656551441,974.130918670222L632.3382386340782,978.1083773768387L632.0929361596718,980.4288395712992L632.2356844670649,981.7857393824106L629.925112485249,983.5521812290372L629.1150232294021,985.0703250215556L628.7139684610083,986.3769359833586L628.5330948292758,987.4510656663224L628.4391114716163,993.3059112812916L627.5595691055496,994.3583624791099L627.0024664980119,995.7766203120955L626.6687960237832,998.3523505926878L626.5780636627715,1001.4069034230888L625.2560902073237,1001.5722434878044L622.5884996844434,1002.7666920092961L620.6435170530349,1004.348179477096L617.318929661953,1005.9839979451299L606.2327355445341,997.2448111787489L601.317228611606,995.6636789648383L597.7358124852726,995.6499646234752L597.7319703983194,995.6398805441277L593.9696806402608,996.1493231209115L593.0328025151175,996.4465939782312L592.7668118802212,996.6079335266095L587.5947717571908,999.8748343362477L582.4815451189897,1002.738061401953L563.3594783761328,1006.7298987093018L559.4582823976198,1010.8823430907723L558.5420924329701,1012.7769177354094L556.7392670186564,1017.2104652582366L553.6064884298503,1028.008897080641L533.4201636022481,1021.9252816735207L528.3367870241891,1024.3025002665636L523.6376191409763,1027.0420641044075L523.0169743262159,1027.565769956287L521.0368218219737,1029.9021696757482L517.57864802314,1034.292397334204L518.8497877128029,1055.6682022164096L511.06690173567404,1053.3812998743779L511.0403026721833,1053.372848852332L511.01813678594044,1053.3648002572281L506.4070413574009,1052.0065626449014L503.5993624334733,1052.4895000454817L500.02326611983153,1053.6565601705024L497.0379645608191,1056.1514711327764L493.40275921720604,1060.375752384205L490.14466948484915,1066.261757267037L485.629921775173,1072L474.990000834081,1071.91957397455L468.5861285263236,1071.5319168985825L385.85121926687134,1068.8639973990084L384.5508206073682,1068.82377936782L352.15818554427096,1067.8589293796267L298.07519638579834,1065.8691855963298L282.53218140807076,1065.4428200261918L240.23257737560562,1063.6962541013272L192.52331491959922,1062.0891606851856ZM684.1972505396479,963.2565687638762L683.1442231705987,963.1535768658068L682.8058239739839,962.5372321139585L682.6548004023862,958.7834997573318L683.4078494443056,958.5786903361313L686.3774871103669,958.6295898766002L687.2434343995374,958.9378126435931L687.6560154287763,959.7606638651614L687.2050135300524,960.7882807229707Z" class="state" fill="coral" stroke="#111" stroke-width="0.5"></path></g></svg>