<svg width="800" height="867.2" xmlns="http://www.w3.org/2000/svg"><g transform="translate(0, 0)" id="single_state_map"><path d="M590.3031854669571,576.4676336636603L590.8957407222788,576.0437853278436L594.6643431183384,577.1472089765166L595.4304022567394,577.6699456731249L594.4572007273146,580.0797174922718L594.2708951448549,581.3570535658127L595.6789458883086,582.5181757354158L598.0808987814598,585.5653069644286L597.1904997331294,588.7277994980868L596.8384530001931,589.1338036247616L596.5072430758191,589.4529872711191L594.581540637244,589.8299670573651L593.9810864610299,588.1475771317528L592.324492086007,579.8475282586523L592.0139827819075,579.5572849062291L590.9578425830987,579.5572849062291L590.3780890271573,579.092688841286ZM470.6105647876102,605.0945656857339L473.3141747459267,614.6396682566592L471.8357146558865,615.7546958281064L468.35855520314726,613.643320360381L467.17589608174785,614.100197071637L465.8652199665539,612.6607817458571L466.28563322170703,611.9706113810689L466.5251884260542,609.8718505865272L467.6097919777403,607.2527017942712L467.4383309190289,605.4936875415069L467.89551501282585,602.9346782358298L468.6957574123353,602.2149404293887L469.38173783547063,602.1349031736936L470.23917931731376,602.6947707930431ZM506.3268974915445,624.7825484533842L509.28749475549193,625.3717090107311L509.7385503761816,626.5282599349739L509.5826147826756,626.8456154541054L508.36931329573963,626.4940329178607L506.995718189979,626.7294366177921L506.2247562730936,627.2211443520391L505.79167750684974,627.5649086103085L505.6234849671291,628.3404308636127L505.7241281143779,629.8270625557734L504.62004963704203,630.6406340879957L502.20189033723,630.9086435270938L501.14534157354683,630.3258573550365L500.81440402575754,629.6234703285218L501.1055745924932,626.2238259541919L502.82032136789167,625.8246835234459L503.9064229907799,626.3833648454529L504.93532553133446,626.3833648454529L505.6783688485102,625.9045511816366ZM410.11722387610644,621.9639231521214L413.32105342826253,616.4842191807656L413.31778490927354,611.6261766131065L414.36520905743964,605.9821399238572L415.468878969903,603.3937083599749L418.81774905226484,601.8747781267057L420.2471813574484,602.8550272502625L421.3087690879074,606.0968202624072L420.8063704814067,607.8917378380038L419.80511416398076,609.860995871536L418.2559723507711,611.0928434409752L417.48773419970894,611.0922722029245L416.9233699206816,611.766883973909L416.41443427620106,614.1784353340045L417.6574248106317,617.774138916926L416.0252081397466,621.4499167361273L415.3701424587307,622.189150195004L413.6518547877622,629.2295820346144L412.3433576852276,631.0983371071807L409.688230758602,633.4190669742693L408.8828132040235,633.8190786360619L409.53651700212504,632.2848943938016L408.41405310546725,629.0381457935227L407.85077833276955,628.3602032211538L406.975359996477,627.9200698748682L406.8149301893609,627.4991226838983L407.0614309965604,626.0988934333382L408.63821903290045,623.6239149152152ZM430.6390289229039,630.1889951427975L433.6768449480005,633.0460265847714L433.78388894493946,634.8390911521428L432.2847282346247,636.7811902628582L430.9461335197193,636.6318684433727L429.393450810936,635.7355156984795L428.32246608837886,634.9884368948124L427.4658417362825,634.6897434161901L426.44851520048724,634.2414982291139L425.5382326616291,634.166630602107L424.4138621288912,632.2240776026092L424.19963794672367,630.4307839169724L425.00287648864105,629.6086427386163L425.805978842267,629.2349049418644L426.07781067164433,629.2885140807675ZM474.1250398321572,633.6199297246021L475.8445531977486,635.00116729213L476.71098310681555,637.0558916124601L476.6590953678424,637.4641317159658L475.9838738197195,637.8161294922456L472.5331348954878,636.8273542389934L472.1644731910146,635.5675603134541L472.777456690028,632.2343404593139L473.07175958746484,631.9429857003288L474.4666000666657,631.9944912359588L474.70506576468324,632.8156969139318ZM490.1342458476811,637.5473356432667L493.137470046795,635.9872540606657L494.3627561033627,636.2866728449872L495.4754144430499,637.3292564559151L495.6485097612549,637.9156670607299L495.14638353133705,638.0199526094993L494.77840276832285,637.5594932429522L493.2175487620625,638.870346948187L492.347305580839,642.7239491025211L491.20509438194676,643.1758419665593L486.9211554917165,640.3724827833321L487.961225472156,638.7047179148594L488.8826754508973,637.844053288768ZM445.8057741686225,622.3122242035615L446.5353348449644,622.2150205782309L447.5162991069901,622.831707133656L448.7915662664527,624.3386606944159L453.59833200687353,626.804354041632L455.2169298486333,628.8584931130572L456.00178297123057,631.5284620357243L459.4030855457295,634.8237004470475L461.67143772514646,637.536127844357L461.83350179175795,638.6659694845212L461.2664137469037,639.7958870211096L459.80810952397223,640.134897020017L456.89163726639526,638.6659694845212L455.0698464940615,635.9085983051928L453.40222086744325,637.8244876427298L453.3040291094385,638.3717429585158L454.1379100168924,639.3977983093764L454.28512955975566,639.9451666385221L454.23596558660756,640.9710777960863L450.94974211823137,645.4158600899191L449.67447495876695,646.1679379329462L447.27102399441173,646.5781236738303L447.07491285497963,649.0387330117301L446.58436262982104,649.3121850338757L445.65242615265015,649.1070492012523L445.01479257291794,647.3982603047925L444.2300756386139,646.1679379329462L443.05286404886465,645.2791822681447L441.8756524591154,645.2106528992053L441.3852384222464,644.8689489572153L440.9437159819463,644.4587006202901L440.4042741602225,643.2278654367046L440.60038529964913,640.5606866316584L441.139963309668,639.0559169334474L441.23801887938316,636.6613150158582L440.3060824022159,635.0190278251539L440.0609434779253,633.6503343678423L440.0609434779253,632.8976051207183L440.6494130845076,631.9391845443915L441.5813495616785,631.8707635166556L443.10189183372313,630.9124450332283L443.9848005260337,628.1054413223146L445.8486734803719,625.5715753423565L446.2410319475257,624.2701931471647L446.2410319475257,623.0371349517018ZM476.7936493996185,639.2754819499742L478.89734993488673,639.6139379255383L480.71519124677434,639.1320814105811L481.80565089498486,639.8359610069892L482.92607196727295,641.8772654395443L486.09980390706005,645.9293361708724L484.50217906215585,648.6367976623997L480.2939608618726,652.7017908566058L478.7980686705487,653.2872075263313L477.41875365655505,651.5037349911145L477.5741444968917,650.0025220735706L476.30650388174035,647.7679759536322L473.1576943992586,647.287419149885L472.5091657562243,647.5351020672515L470.8826689935704,647.4667762921526L470.1394894881032,646.4165946635012L470.3136743126397,644.9667153163527L471.0362893861238,644.5105282871291L473.91612699334655,640.8182036229691ZM489.7108364501164,651.5984078818637L490.44325708057477,651.0667874187684L491.2993366795072,651.0924014026114L493.4794388461778,654.3460397341078L493.4364033461352,654.918473111451L492.4858090730595,656.076717253055L488.7863903289672,656.0784240907942L487.2315286075245,654.0408437906735L487.2318009841056,653.7458826993416L487.3964526282525,653.2340925634235L488.74035868651845,651.7886998703125ZM470.49780088243824,651.7676407962854L471.39296652096345,653.1466420226061L471.5796806682956,654.4911424113561L470.02427419368723,656.4087871253068L468.1015678975182,655.7093617962364L467.8778105349611,653.8483137971716L468.8906428571445,651.5984078818637L469.47448206182526,651.1895442759705ZM431.5294279712343,665.1704754101784L430.84930364462707,665.1081313930899L428.57223541457097,668.5253613014847L427.05700448588505,669.2357325747862L425.6918530541843,669.2220938695791L421.0096996002758,670.5633433350395L419.47158903865784,670.5023550982323L417.35004783723343,669.1467018390485L415.9500322029653,662.6201518534599L415.25533572919085,660.6518161696695L414.12388340530924,659.1643411248488L414.8857207066776,655.3095622111396L414.7261080293101,654.4592768863131L410.0792273428415,654.5106789682341L409.87603441226383,653.920773749287L411.1384998723497,650.5932027699628L413.5954728351753,647.2040977651823L417.5025787234572,645.057077250578L418.85315800799435,643.7163806128865L423.1336921909424,640.6013276124086L426.15462086792286,639.970616145687L426.9596298576271,641.0865391419902L426.5442555692498,641.3993042738302L426.45791219258354,642.3719157227006L427.0594558751309,644.7859892608385L430.62786148301893,647.6294289109146L431.35442601695286,648.0160278174471L431.9687713988769,647.7600048003624L432.1978401047945,648.1464094183857L430.6491068564592,649.3827766997838L429.2740136794928,649.1744161469296L427.11175217897653,649.3651288249976L426.891127147117,649.6342084560101L426.7745499697885,650.627735660395L426.9086954366903,652.1724993054686L427.449090576456,653.3524627076458L428.63801435925416,653.2570458461323L430.8588368250166,657.6986648604243L432.05089293851233,659.338010121005L433.2947006026934,660.44423367539L433.614606898891,662.1262048449162L432.3398844925905,664.3649033944585ZM454.3258498588457,672.9628349564673L451.99662151323173,671.7283065810598L450.3562335448678,672.558915391528L449.7429776692752,673.4377485206323L449.6043379887615,674.5764745983115L449.0391565799837,674.5806399955809L448.6386268153565,672.272394487266L448.65197326790076,670.9949866348252L448.99312493753496,670.6832353938371L449.89224003650816,667.7463638458157L449.3453078587627,664.0152546349991L448.4177294069159,660.9374964809667L453.0074110110472,658.6072929451229L453.3537378357505,657.7013195572181L454.34110294746824,656.9807359328815L455.4820884517394,657.3660643047087L456.4162039415678,658.8875269036744L458.2275082154774,660.9852671302333L458.7241869137433,661.0326584463437L458.9750457462651,661.9343822621613L458.42702406218814,663.6985714777466L458.0601328055054,664.1928282933641L456.65644008737036,664.2496815922314L455.24362275372187,670.5370161554374L455.3484877380015,672.763054708952L454.64126194142773,673.4563053415222ZM396.3410972725578,674.2282797925282L395.85054704739923,674.8722139656647L395.20692118285115,676.0003824636187L394.843162256866,676.4672168342495L393.6118839154824,676.8172352325637L392.85631127550914,678.13978607832L391.6808701335467,680.2008151780874L389.6661005524784,679.2676265188684L389.13428527506585,678.8397077711679L389.5541537770532,678.2175783389348L390.5055651798739,677.750816695997L391.820871696973,677.1674320187685L393.0242314386469,676.155996076036L393.8917508540453,675.30009453006L394.33940176745455,674.6777690484078L394.39537515516713,673.860760677956L393.8636960660424,673.3548105177979L393.247988801204,673.6661088978117L392.5764443369462,673.8995770205502L392.5483895489451,672.9268558377898L393.8917508540453,672.4598742929984L395.85054704739923,672.6545469808998ZM344.05310091015053,688.7766180256349L344.6791584851253,689.8973414132706L344.83849878591354,690.8746451034212L344.67902229683386,691.2896284377457L342.6713345069111,692.4178519845491L342.28360644166423,692.374751688938L342.1500057279263,691.1338460558609L343.25748891254443,684.8890528061611L343.7962497928129,685.0621352562193L344.9857183287768,686.9870486616201ZM418.6404318970308,701.1367848832097L418.32556456761085,703.9457903084567L419.1876364513573,706.1980789957724L417.75752320471656,708.9169175395782L416.178556155719,709.1449363936608L416.0711035939057,708.9678824189141L416.82980856457834,707.1607534980731L416.6714215818283,704.8059352558848L416.21587174752676,703.7531692662478L415.4107265695293,703.9157643038916L414.8298835072601,703.6951934644958L415.593082691541,700.1059668767502L417.3977137391794,698.8449424123637ZM360.3973301222013,718.0544455041227L360.5548999752009,717.8039735378252L361.06642319721686,717.8990328305454L361.4231003320565,718.360549398335L361.36290510731305,719.0291208228646L359.5234098571127,721.271610407317L358.4020354667846,721.4269766251882L358.2644852926005,720.8403825222967L358.59515046380875,719.563949433078L359.6179245312542,718.243993257166ZM249.84471423494324,722.7961431942076L250.74519121682715,722.7001825129519L252.88893110973186,721.1613066360314L253.20652220497323,721.9307708094648L252.4919422406747,724.0190519635698L251.45977118112933,725.4476532955314L251.22157785969648,726.2168252772044L251.30097563350864,727.7550120264787L249.23663351441792,730.3914161323828L248.52205355011574,730.3914161323828L247.33108694295152,728.5240268161706L247.25168916913753,726.7662017481407L248.83964464536257,723.9091520628981ZM254.20954897018964,731.9751860054384L253.38111559438403,733.5033595422883L252.57896655879813,732.831689355522L250.35719077499743,735.1648464989248L250.03265407689833,735.0961092521566L250.04858810697806,734.5251031340513L250.34997279556046,733.9926779585585L252.4306575096016,730.8356551928582L253.1056066811434,730.2109272468715L253.46160287452767,729.9761743385216L253.5945226468084,730.1751305697726L252.90718034076053,731.7837965677454L253.62284981139237,732.3146305547025ZM243.82342131296537,733.3895965657666L244.78994961611897,732.9560059747391L246.24335106056606,731.6508016037014L247.68040991006092,731.8348466266661L245.10100367338055,735.5499556668829L243.23195556397513,736.6415605362181L242.95181624882935,736.5841300982411L242.50416533542193,735.022475189603L242.80813760153796,734.304565010917ZM240.78247295716938,735.2256739054974L240.602295847817,735.9762910444442L239.91617923639387,737.0175814704007L237.90508673918885,739.0089469373142L237.4306067323996,739.1721642287257L237.11669272101972,738.931573210929L237.00529069875847,738.3313911334471L237.5937603053444,736.4208754229221L238.64704055003494,734.6930934184802L239.37673741466824,734.0714038844608L240.12495588691127,734.0173504967588ZM242.82093930091833,738.8327373885013L242.83578382466658,738.8700127144784L240.22273908004354,742.6936574448036L238.09670366500904,744.4537105513382L237.92905587845235,744.4429850870893L237.39833010736947,742.9089507523368L238.88904714362434,738.9306319214602L240.53270363097909,736.9002763325925L240.9941095618051,736.7238456058458ZM170.29059626540038,851.9144136255018L170.1711591339572,849.8333038690671L169.9941143553042,849.4417951481901L169.59916831061673,849.0875614122206L168.04662179012485,849.143680225673L166.24880015705276,849.4046943402118L165.649571675458,849.3674069746276L165.10481851037366,848.6402790221528L163.13008828694,848.1555013429934L162.96666233741416,847.9876888919553L162.23124556454968,846.3840233573119L161.76806918593684,845.7872531223538L161.55016791990056,845.6194058756719L160.0384778867883,845.1906382102688L159.38722547793077,844.2618039831068L158.02180166964354,843.1715397212747L156.00594258224737,841.2401454498295L154.4681043972123,840.2100468420385L153.54202401656585,839.3703758798465L153.36497923791467,838.997168957866L153.20155328838882,838.3626891829981L153.10622148449875,837.2615964435327L152.7112754398113,836.3470488293478L152.58870597766872,835.6750895854148L153.2286547583535,833.6216355459255L153.4056995370065,832.0348091239412L153.33760539136892,831.5493257139879L153.62360080303915,830.9704531000143L153.92321504383472,830.7463654901394L153.99130918947048,830.5035989438611L153.8142644108193,829.5511571988336L153.33760539136892,828.2437546714955L153.39208070787754,827.8701835556049L153.48741251176762,827.7207516818926L153.95685355178102,827.4237500180216L154.37250021673935,827.3139134806897L154.5574439162865,827.0574373096633L154.58440919795612,826.6612235214607L154.4182594826052,826.1994237363406L154.36419273097272,825.797575448536L154.88987953527794,823.0277809939371L155.0083633486829,822.8267092646174L155.40521602944864,822.5329438172103L155.8749294460431,821.1669845092965L155.87901509478252,821.0088672750944L155.57776659448973,820.4670280993332L155.28264656730607,820.3274054813464L155.08735255762076,820.3330128483858L154.98126187872185,819.2163447078747L154.77139572187116,818.7656463301064L154.7588663990755,818.6716161747227L154.06512324333926,818.2461340393165L154.01745734139513,818.2169703583786L153.77749357217544,818.1072319924042L153.55414477448903,818.0378738086574L153.37560192463388,817.9825365181769L152.60913422135854,817.7449196238713L152.11558785379202,817.8471833638278L151.92437949284613,817.7331414741993L151.5709708769973,816.6633355608947L151.6001151713299,816.4677607351605L151.7828798582159,816.3379989112636L151.85151875701558,816.18261933541L151.29464483400807,815.6035265979899L150.10803625216067,815.1384734277608L149.69034676283263,815.4408442954727L149.26475835261044,815.2360856801197L149.0740947448303,815.0386163497205L149.04059242517724,814.5858825441474L148.8320881512409,813.9537829312294L148.58054837726377,813.5881589993896L148.58068456555338,813.586101747117L147.30664310071188,812.6429059364727L146.06474207260726,812.2069109694412L145.9149349522104,812.0759782895775L145.792365490066,811.2716444994758L145.4110382745057,810.2801781306325L144.90714159680283,810.0184540145756L144.07639302004827,809.8126624199322L142.75523040642474,808.6152556885945L142.5645667986446,808.2597513093424L143.04122581809315,807.6422699357545L143.3837393706399,807.2901034320503L143.52047241507717,806.8046871007091L143.25844614267044,806.1470777426248L142.96223660915712,806.0688507644609L142.5645667986446,806.1639208015195L142.2377148995929,805.8083398200579L141.87613498626888,805.5075844932217L141.98985220947907,805.1963402104775L141.93823684708696,803.3490995175653L141.47492428018268,803.3421734382455L141.33669316454325,803.2633655900208L140.3114677078538,802.4230265728675L139.380756925304,801.524212555767L139.26390737139263,801.2527384068908L139.18805049315415,800.5897525717546L139.11491738074437,800.177824364393L138.51909360643003,800.0641670002751L136.55593938775564,800.5687820417315L136.35043125622724,800.8337193778934L135.87458936652365,800.5652245372648L135.693186562552,799.9875833909964L135.34195695936432,799.3748959452159L134.85317718199076,799.2175992207331L134.41723846162859,798.8638608983438L133.3775770460652,796.2058834848822L133.47386216799532,795.2775425561613L133.16716613605058,794.463214985939L132.424803760332,793.2285928274987L132.08760155114396,792.8040316618917L132.09168719987974,792.6754985424104L131.8656146363719,792.0742215334758L131.86656795441195,791.284025076292L131.969117737739,790.8146032432442L131.63627355387143,790.2943749899587L131.6248337374036,789.9210553064477L131.6715463213095,789.5567194475434L132.28630026810788,789.3035141355176L132.32865482669513,788.7464800645239L132.29433537729528,788.4593306993829L131.89257991804516,788.0267185998682L131.76864857298642,787.6666333103622L131.69074887037823,786.1065692057637L131.7502631536645,785.6564315584519L132.28330412569994,784.7062281897215L132.94327258520025,784.2145960965845L133.41067080084395,784.0143371047743L133.89836107188603,783.5298007346928L134.2633456924923,782.8402758225493L134.12674883634827,782.193655796541L134.20573804528613,781.7885618380406L135.24512708426846,781.14525792327L135.25929066656136,780.7412519255422L135.17839482154523,780.2603272423303L134.6104896469442,779.412844830601L134.46204440945985,778.8686444650939L134.5483877861243,778.2741399837387L134.85835233705802,777.6878593954962L135.34045888815854,775.8415811430341L135.20726673929494,775.259115567459L134.79802092402497,774.5872914489528L134.78317640027672,774.5899187716195L134.58229867065347,774.6544756516387L133.91102658297496,774.4701873062468L133.63728811752117,774.2599973505348L133.46174141007214,773.8095771842172L134.3165953143798,773.1783958271353L134.39340551065834,772.8307900219907L134.17945370507005,772.581903725596L134.09814929518143,772.161449910478L134.48683067847014,771.20842611024L135.1364488278341,769.9934251644381L135.51273707661494,769.6928462789183L135.6798401100059,768.0612078377699L136.1160512069473,767.7305330355011L136.03011639515717,767.4385322161907L135.82991960698746,767.1827671184601L136.21274489375355,766.0413309254645L136.20988493963523,765.3251984905482L135.83931659908558,765.023556648559L135.78116419871367,764.8774283857192L135.80404383164387,764.1732440483247L135.64415877769352,763.6392068458463L135.05364634674152,763.1274993255256L134.94660234980256,762.9514771154209L134.9208627627504,762.6679948292704L134.95490983557102,762.2597603590993L135.10458076767645,761.8646625526571L135.95630234128657,761.6968874183458L136.0367896214284,761.8744321367685L136.04836562618584,761.8919046411838L136.64950074385706,759.9868671784352L136.50813729751826,759.7591205746103L136.31120902833936,759.6689226336966L136.08036987463493,759.3831031633872L135.96556314509326,758.3404868359648L135.77844043288678,758.0452368333208L135.15006765696126,757.7434010558172L134.23787848202664,756.6359744797046L134.02297335840194,756.6946189290366L133.6699733074256,756.3730105375807L133.26290650481496,746.063355692856L132.41295537899168,731.7779568784026L132.4085973536712,731.5886362817027L132.37318839793988,729.7235174812031L132.39429758308688,729.1247301838039L132.0105189782862,721.9737581937761L131.44315855684727,714.532049782295L131.32576424977015,705.6992456933731L130.954787344348,694.9315612446217L130.9290477572995,691.1455676208079L130.16612094959783,667.5207248649695L129.768042574211,657.6965790267905L129.77240059953328,657.644622681938L128.78748687705775,628.7305482276643L128.76065778367774,626.2679418228709L128.76447105583247,626.1953026705796L128.4193699257521,618.0116292953162L128.2179474429613,610.5994732918534L127.86195124957885,603.4889799916054L127.1251725937982,585.2536460865285L126.822970775469,580.2290339968094L126.32411306454196,569.1315757881202L125.72706359560834,550.5177984806114L124.95542073726756,534.991136026626L124.84469965646167,531.3269597982162L123.87394951628266,514.1621268969484L122.77613570034373,497.66913313847544L122.07422124713048,484.3475556981448L121.91855803020735,483.40974891622136L120.50451500193594,456.5806058542639L120.06694202208382,449.45383590831534L119.47942573353794,436.69899673578675L118.46890861230531,425.4002754984149L119.27609661467068,425.21845183110327L119.91127880516069,424.9307034296389L120.93895565109233,424.22679179450006L121.8830128861864,423.7620110875796L124.16825241371771,423.89951076345733L124.75045735890308,424.116601815228L125.79161684567407,423.9752316804188L126.99170806835355,423.6349676024238L128.01107742852037,423.17945813974256L128.72170793237274,422.74155473121664L129.6051613778527,421.0376130080167L129.62736006932937,420.90918198697L129.26142213068306,420.31582277628786L128.43652965045112,419.70867634975275L128.19465924515498,418.03894728550495L128.21685793663164,417.75546723172647L128.48201653973592,417.27297237230687L129.29397113229606,417.6277728662262L129.71302250453664,417.9689983426615L130.94430084592204,419.0317479002033L131.28436300922476,419.3990846059196L131.40815816599206,419.71332597143646L131.9160043041411,420.1912578220108L134.4228221815738,420.14999415829607L136.65140737993534,419.7375427191537L136.85010609690107,420.31756628816584L137.59614555648477,421.7122870297653L138.23609433716956,422.51785120045133L139.49787885579644,422.85001540771736L140.6538450721073,423.7399335143273L141.1347259285867,424.1162145022772L141.9236646999234,427.16142748553466L141.7029034797706,427.82953028982865L141.01910206929824,428.93545986628124L140.85594849635527,429.33808116917135L140.6177551749206,430.4041820503562L140.6485337287486,430.5148895722059L141.5037961979324,431.3157439657962L142.48653090774678,432.36443042020073L143.76847129348243,434.45685962927655L144.03240420196562,435.50060332513567L143.779774921657,437.24524279297293L143.99549717503396,437.64311101888507L144.55060065025464,438.1960794419447L145.61191600413076,439.0275105437595L146.50177029929728,439.3375163232067L149.4234177119397,440.1323134012L151.14102444145283,439.09713206660035L151.91185017005046,438.50881631549873L151.59453145138832,438.2436577963317L150.61138817669962,437.1255120043097L150.48309880632223,434.8639217926311L150.57938392825235,433.52369395646747L151.29764097641782,433.0722710404998L151.59725521721157,432.7847283839201L151.8748069548219,432.4000363960804L152.89717245739666,430.38250492241514L153.1348210256656,428.95326842827126L153.1523893152389,428.2896864095492L154.86318663018938,426.8555308592695L154.98235138505152,426.78912306057464L155.51157908493406,426.0367314287969L156.01888046991917,424.1777970896919L156.23065326284632,422.07488538630514L156.0585112626777,421.4240592759479L155.79376122444592,421.0521413094175L155.41856248199292,420.9990644883974L154.9331874119016,420.50780114174995L154.72127843068483,420.1135735186599L154.5976194622108,419.63544454838484L154.49152878331006,418.6566487827158L154.54014800329605,418.3997294864339L155.22394941376842,415.47185829358205L156.00539782908163,414.28897743318066L156.1599715396751,414.1381766348377L156.66781767782595,413.9788450035621L156.83124362734998,413.8458730378079L156.81803336309713,413.5312696779265L156.34151053193818,411.5922763391527L156.14812315833296,411.28982294722846L155.50231828112737,410.2761554785384L154.15922935260824,408.8846337088835L153.91613325268918,408.7737077047732L153.76591756741618,408.3526828814911L153.646480435973,407.3552297297556L153.7038157065963,406.9872953525428L155.44906865923804,404.84112089466726L156.89007696917906,403.5595006559852L157.37204733198996,402.3621386605055L157.46043353302412,401.8653822614833L157.87158598437236,401.58614094166023L159.71530307160356,401.00124411230536L163.24312456869484,401.5442250213546L163.45966395181676,401.6552242380476L164.80792803540135,402.9549180863096L164.71123434859874,403.71335732559055L164.84905689936568,404.7332579391041L166.72886388378356,407.1707791954559L167.7145947360059,407.9638362856731L169.13749000320604,408.86737431695656L171.83252009917487,408.48572149193205L172.5393373308725,408.3569494509102L172.90609239926744,408.0024306542646L173.05195005921814,407.97586067639077L173.8075226991932,408.1399341090437L176.10025258274436,409.75396769543113L176.15268507488327,411.27857772434254L176.2542815401721,411.3318954891929L177.4600926710882,411.4827348885383L178.17140411639775,411.18182955431894L179.7091061131432,410.22535330343L180.1594807923757,403.87671853658503L179.5951165133465,401.6497907361427L177.65565905735457,398.7475274018843L175.8559307882042,398.0147560675341L174.22861689580168,396.8785238392702L173.38819895036613,395.7114966159934L171.93261849325972,393.22151329055214L170.180147561181,391.60135099285526L169.72868337561704,391.3484581816929L168.489097548465,390.01688696430483L167.65562520588355,386.1554825946605L167.6244380871849,385.61368113464414L167.69947783567295,385.1515351515927L167.86753418710214,384.7072502508172L168.54915658491518,384.0405946925757L170.47935323710226,381.88952739323304L170.7272159272161,381.50285024219465L172.49875322007392,378.08923337182387L172.4158145506899,375.1947182889662L172.76009855102348,374.9149899456852L173.74392276716935,373.89211143797456L176.3554694405866,370.7394169459294L177.67758537224654,368.5466069216509L177.56237007783238,368.3286058310123L178.34368230485416,366.8071484892307L179.62126466527116,366.1981947006834L182.087362243612,364.9973193000378L183.58611438905245,363.048730858809L184.25588840552518,362.8970274090507L185.48471535766657,362.371209661208L185.61777131823692,362.23760896850945L189.22485440084893,357.44579401227475L189.6020959676698,356.38561850592305L189.36676260035347,356.122945610492L189.36240457503482,355.9760175087831L190.09496139378098,355.20081234851386L190.8585691429398,354.97377476723614L192.40811952102376,355.19223762443744L194.53047785219678,355.2241979253786L195.38764695745704,354.5518425915179L195.3967715729741,354.2133106117244L195.4678618610178,354.10650617193096L196.66318649350433,352.7349116851092L198.51098922947494,351.2342829033305L202.15184700831924,348.38411818517034L204.65308116580673,347.83946436994484L205.2795473056558,347.91512861118827L206.37245834310852,347.8482398887636L207.47435780778687,347.29536840679793L211.61216666148175,344.83548172073733L212.97745428147573,343.1373054930209L213.90721174598366,341.90227938291446L213.23321589248008,339.00478404189107L212.19382685349774,337.72868936951363L211.42899340972144,337.4114967252417L210.7754257999095,336.64375469220613L209.53120957085412,331.8902794020605L209.26468908483548,330.40357475445217L209.26019487122358,330.24731444491226L209.362608466261,330.1088268706271L210.5776804009838,329.6581929076319L210.80457009424026,329.6761639299839L211.08498178596892,329.917402498947L211.414285074261,329.9845967434667L211.71703164575774,329.92209048295354L212.22460540732754,329.40444671828755L212.1626397347991,328.65860573436566L211.9179093753828,328.38178375233474L212.12750315565063,327.5288073883239L213.31288604287693,325.46603187097844L214.28853896154214,324.3724478825625L216.15867657728086,322.34875401007685L219.50618477673015,318.9863695089198L221.23468656954537,318.6729319068081L222.9498419098145,318.1541659815621L224.4468236074681,317.51041599377277L227.43724610720528,315.10598956460944L230.37196759581093,312.0113707940436L230.85380177032675,311.44356645087646L231.5909889909799,309.0511055671559L231.56470465076382,308.3576904950696L231.02226668662843,306.0843565119694L230.58986886184357,305.65895885272766L230.34895177458384,305.75273178844145L230.28208332356917,305.6900860756341L230.28235570015204,304.9696344082122L230.43420564492044,304.70121478845886L231.75141879809598,303.14009889586396L233.3320201065908,301.9810116882236L233.43525083137501,301.6189062028998L233.4332080070053,301.0734730381964L231.69190451481154,298.8199658712783L229.99676885335793,297.3589026740028L228.78265023667336,297.0448404827721L227.89892441461416,296.8653722933532L226.69801606218425,297.25917960664174L223.5196537204938,297.52268945662036L223.0688704763852,297.2764205953845L222.97953095731282,297.2092197686907L222.98851938453845,297.1241895549574L223.6442660070079,295.62449192826443L223.96158472567004,293.92625641882114L224.2696426405255,293.4694158835582L225.10924345621243,292.9182810680313L225.83267565944698,292.7975450944241L226.95377767319042,291.6506823521886L227.38726500430857,290.9520382779565L227.33810103115866,290.90714630943967L226.25731075163094,290.5574138704951L224.87282058256642,290.2478598894304L224.7923333024246,290.14924774132214L222.88515247146097,286.3058123817873L222.88964668507288,286.2250113058026L226.15230957905987,281.84025787934115L228.0574475856538,279.809209894981L228.23667137696611,278.8627225897926L228.25914244502565,278.3422469051684L228.16095068701907,278.14931913777946L227.44105937936,277.7363675908764L227.01628809888643,277.77208930653615L226.2604430823285,278.14441248649473L224.36892390486173,278.01389474678945L224.06481545045244,277.7940718422533L223.84119427618498,277.38581747381795L226.67786019507548,271.53883016113014L227.38958020525934,270.67705496333656L229.00545428119403,269.9729329365582L229.86888804785303,270.2292504383695L231.54781730264767,270.50284549133903L231.76680807500998,270.30152891314265L231.76708045159285,269.20237260111116L231.40931381042174,268.7845617998155L231.4050919733927,268.420756659737L231.9208370324377,266.8988107255509L232.96308602553654,264.76749108496915L233.5164190529722,262.02230995349964L233.7369078965403,261.11495781072153L233.421359625665,260.58458547118425L229.88100880577622,256.79494963262005L229.20932815322703,256.25964554009806L228.88220387759247,256.1784233170629L228.27752786434758,255.68360357119582L226.52587406201565,253.5520404848221L226.27528760607674,252.418720485246L227.25720518614253,251.3578835656399L229.09193384615173,248.83089387548898L230.64570606126472,244.57547160507602L230.92434730520654,243.7611621722117L231.3474843261847,241.62350478892677L231.47018997662053,240.08990431174152L231.69966724741425,239.13579923529142L232.31047173376464,237.5604747471316L234.45393925008284,234.14073532585917L236.94060126040677,231.99525943374374L238.12598414763124,231.0981955925563L238.48007370493724,228.23659392421087L238.30929358768117,227.8175909649908L237.94526228511313,227.27690521988825L237.71551263774018,225.36121621775783L237.89500880563537,224.89673759894686L240.07443003085064,221.59136016553748L240.43846133341867,221.21234878315408L242.34918305995598,219.53929136975512L242.72233897803562,219.37708235521404L244.17029289083257,219.04357926980538L245.9145925254379,219.45029378192248L246.91761929064887,218.71105260966488L247.97947939769074,217.4801213575347L248.47425145988018,217.3857777141011L248.77141431143536,216.8806896478145L248.7727761943479,215.53762055443258L249.05645640506373,215.02336475954326L249.99098045976825,214.45459493927683L251.1018683516686,214.08401962661537L252.49956878498597,211.65038351625662L252.44100781973975,211.47897163037578L252.46742834824545,210.3505078088965L253.02947742632205,209.47889893813135L253.9879706202919,209.23476470959304L255.2076729569162,209.26143012504508L255.77476100177046,209.4869971470298L258.37146315143946,208.37155968478964L258.4569893983589,208.26785190981718L258.4569893983589,208.06458177458626L262.5306535668642,180.2487503521652L263.453193051937,173.32470790278057L266.5393559204349,152.87978728836697L266.92585829106247,152.21776698970098L272.9519178032351,143.48516213057428L273.8887570588904,141.99236436521187L283.23236334643116,128.46940156507753L290.853596314264,117.11903009265188L325.196061535853,67.19595685263812L342.51716936119374,42.14642754276065L371.76741818385926,9.094947017729282e-13L372.36991518444484,0.5090002425213243L374.56390855682366,1.5071900773464222L377.55119872585965,0.820995025396769L378.03316908867055,0.6185720849107383L379.9466145810311,1.742020908998711L381.0753431390858,1.7424237018376516L382.38751732548553,2.180451846392316L385.66080290618993,3.5858460643712533L387.59317857103815,4.8040123059508915L388.914749749536,5.732946110667399L389.07095771962486,5.912321214905205L389.15376020071744,6.579263961271863L391.09417097474943,7.190608044097644L391.34639169018374,7.172089083829633L393.24499265879786,5.92963447616512L393.99716059148705,5.363516434957091L394.7771109355999,5.520148137445176L396.345727674463,6.454253139049797L396.5152820970943,6.652135934019498L396.9784584757108,7.554136732444931L397.3078979522943,10.410603433126198L397.00065716718746,11.19718903843932L396.5603604215048,11.785731801172005L396.6106139009862,12.16278441819668L396.77567411000564,12.402006686206732L396.6472485513368,12.553705815167632L396.4409232900598,12.581268951709717L396.14743752237155,13.643300487628949L396.3032369275861,14.176589705382867L396.49104058124976,14.461831093798537L396.90804912912245,14.769995817704512L396.98131842982366,15.022837077637632L396.3442296032572,15.29840103544484L396.0051207579945,15.2477138960312L394.9922884358093,16.465747308657228L395.07413759886185,26.579111689420643L394.8911005353948,28.921038143150327L395.64149802029897,30.817184044042733L395.33929620196795,32.16215765160632L395.1653837540125,32.46037047224945L395.14713452298565,33.2407045905602L395.2111430198802,33.50676011378346L395.42618433179996,33.612377288191965L395.5085782480164,33.823608485597106L395.60445480507406,35.19108828387107L395.4580523919558,36.01699211096002L395.57680858194544,36.773980748751455L395.8147295267936,37.28804383758143L395.9195945110732,38.7239164653447L395.78245290176346,39.535698736292034L395.613170855715,39.723734384325326L395.4713988445019,40.18247121193963L395.4210091767309,40.682323306547005L395.475893058112,40.82458923435479L396.856025201856,43.13609347976944L397.7744790381894,43.96178111118297L398.2360211573068,44.049040268801946L399.0859722831319,44.48953763073041L401.77215014016656,46.1324157170593L403.3330041464269,47.255066822634944L404.9052979691551,48.193526604080034L405.7233810348225,48.83455930802302L406.12105084533323,49.31114818870719L406.9022268840654,49.63153543653971L407.624433392677,51.06093038126619L407.9943207917677,51.07917246907891L408.6839782987681,50.82698786574201L408.79824027514405,50.95969624832742L408.89929198726895,51.594548634195235L409.08614232289256,51.68354922341314L409.286883864228,51.6147943291744L410.1638002717209,50.899757168836004L411.0863397567937,51.729051489144695L411.8901230518768,52.727847338253014L412.14588466288296,52.78737525469023L412.35139279441137,52.608790505778416L412.59326319971115,52.62262040827045L413.1914021749726,53.17239457313008L413.2596325088998,54.21233804618623L413.6522633526347,54.317749650644146L414.62464775231274,54.927152536896756L415.23599699182887,56.00379253043684L415.6193670317589,56.42055299980257L415.81547817118917,56.484668545988825L416.11713523635444,55.916831796775114L416.5372761149265,55.610259484515154L416.8751592655717,55.592025166649364L417.290533553949,55.7389007070733L418.3451756815539,55.515280387314306L418.9574782391064,54.86523190359185L419.4241955132966,54.50372042832896L419.8860100089969,54.33398214329827L421.0092910354015,54.27827052190605L421.7350384395868,53.99369581736846L422.2919123625943,53.49406842841381L422.96263969710526,52.66932125045787L425.3507013845483,51.188624338781665L427.9128117082346,49.080375172135064L429.08675477899124,48.96568854310317L432.2163617124079,47.84843168700263L433.69209803662307,47.89956499350956L434.4049075531366,47.70285080863323L436.09132716394925,46.83774645010453L437.0259874069452,45.94830405847915L438.36894014716927,45.003026992066225L440.7540056922044,43.97481988140953L441.329945975991,43.96077812819021L441.7002419399578,44.0935722524373L442.02014823615536,44.41893090339909L442.4635773125319,44.547105836837545L444.08149421283815,43.54292718129636L444.4927828524742,43.359372483869265L444.8675730300529,43.31363377075286L446.4676492642011,43.63239640912343L448.0803910094346,44.80866616347976L448.3682930571813,44.89591836827276L448.84359019372096,44.73104118608626L449.46528974337343,44.26367468848912L450.2651235780104,44.21814045890096L451.49476765989857,43.8795361918028L453.40630651618085,43.67933736192845L454.11652845516073,43.51363888477226L455.7294063886875,42.65521521856226L456.1498196438424,42.26981480419272L457.42890007546157,40.60848071998589L457.6116647623476,40.292035345407385L457.61602278766804,39.90213439318177L457.48323920367875,39.51221913135578L456.98901189465505,38.56757352229488L456.97961490255875,38.16396126944346L457.23101848824444,37.79224711158622L457.8253441913512,37.19109436596409L458.0856000159729,36.121982089612175L458.34163400356374,35.78693395923892L459.12349098375125,35.02967419945708L459.7272136789561,34.61649114915872L460.74276976696456,34.71727877889862L462.20216349622933,35.39164788875496L463.0849360002503,35.68073615049616L463.37760463818995,35.68555422152349L464.0729820534234,35.53418544568194L465.0336542600526,35.093918905068676L466.465946519349,33.59390439812432L467.2256048080617,33.167412652666826L467.97600229296586,32.901549432111096L469.41278876587967,32.79231065069234L469.87936985177475,32.85235195824953L470.8717739302683,33.22885743487586L471.6404206462048,33.301747352705206L472.2305245122807,33.19110708792232L473.2872094642553,32.740702967854304L473.84993948378906,32.611983879900436L474.4721837866073,32.75857491753868L475.0172093282763,33.146328576829546L475.33262141086016,33.6669926013019L475.86375574681733,34.91483581993634L476.11080130718256,35.2039370607954L477.3917883748818,35.62111234062195L478.1556685006235,35.433004052975775L479.61015945140025,35.74497691783563L480.1132389993563,35.74015887376481L480.6073301200868,35.492428162338L481.88368678588085,34.56589620150589L482.2542551264305,34.42836506610638L485.4243099823543,34.796984653361505L486.3390867348244,34.792969258377525L486.947576020224,34.6144834177303L487.199388170784,34.421940210395405L487.3329888845201,34.11173552111177L487.3647207563881,33.669402093937606L487.2688441993323,33.27002122407157L487.182228446085,32.99472279878046L486.949074091428,32.63648279690278L486.2084821634926,31.81433252084389L486.0943563754063,31.52975810465614L486.12663300044187,31.093743973673554L486.5297503426027,30.54764666477604L486.5894008141786,30.276897310897766L486.1380728169079,27.636930056483834L486.1845130242291,26.704689185475218L486.72204820987645,24.032280342346894L486.9560196942821,23.44903947617786L487.51834114894154,22.571907046801243L488.0933281146881,21.859535323876116L488.71121439218587,21.307735975496144L489.27898337849547,20.94427650014677L490.1489541831379,20.64976065666724L492.7276794783593,20.101919332899342L493.59342844597086,20.014463144875663L494.5049366794501,20.083221863644212L496.30984010366774,20.81802770642753L497.14807903644396,20.96056007274092L497.56481520773195,20.84577040455497L498.65963288126113,20.16605341250488L499.11777029309997,20.019087283213594L499.8278560437866,19.98249622033927L500.6200633341141,20.341364654561403L501.4076402225346,21.081379380023463L501.7877417434738,21.320601569434075L502.41039461116634,21.55981836443698L504.7461599947601,21.565647950098537L505.8110162442099,21.223305128118227L506.5687678968425,21.058864072677352L507.5216773708671,21.458101630121746L507.9249309013212,21.912804051517924L507.98921177480224,22.105775315916617L507.993978364997,22.735118663656067L508.1636689759216,23.171275319722554L508.86926051299815,23.91069073246581L509.29975170170655,24.15386855892848L509.7531225233488,24.259377865717397L510.70085684230617,24.135178229481426L510.96192979667103,24.199488902224402L514.5424561624859,26.24315946713068L516.5474201865818,26.54214139146734L517.3894723915109,27.010690206020627L517.6046498917203,27.263440797500152L517.7555465184505,27.791424998107686L517.6129573774888,29.297281313949497L517.6448254376464,29.761088632304563L517.7773366450529,30.132883157340984L518.7102264402602,31.294782653987568L519.853254768901,32.906368764233775L521.0562059457006,33.28347472057612L521.4401207387946,33.69209145613149L521.9772473595676,34.47173274048964L522.2197987063228,34.66889280511077L525.9215326513677,36.79565981959877L527.229621189028,37.75411155408892L527.6001895295776,38.15773937924041L527.9616332546102,38.808810321598685L528.1675499510147,39.72614250337756L528.4328447424105,40.193909278692445L530.096929473455,40.85870066875577L533.4344959276386,43.02013901056307L533.9001236954955,43.4289832177119L535.832907925218,44.55312340135424L536.3260457279121,45.27320069170128L537.6591929111673,46.87805537963868L538.7681741669876,48.60297391040331L539.6261604019983,49.765862636780184L539.8576804971581,49.96634783877835L540.4160524913714,50.307164006868334L542.4181565613508,50.7482040092309L542.7313896312735,50.908577656583475L543.4940440623941,51.61018392677397L544.5564489226017,52.27165601551678L545.0194891129231,52.953129683970474L545.1556774041946,53.694683769966105L545.2510092080829,55.15759832882759L545.4144351576088,55.678587804218296L546.0545201265832,56.7805968561579L546.2724213926194,56.960914742329805L546.8036919168699,57.90252516473902L547.2531132780641,59.22444564377838L548.628615019903,61.34750808112858L549.4458809558237,61.94829791884786L550.7260508937725,62.5690784582348L551.6795051209629,64.67145326698846L551.9791193617602,65.17195750386782L553.0550068628036,66.21293095045894L553.2048139832004,66.47315840948613L553.4962569265226,67.26681287946667L553.614876928219,68.44887806179122L553.6097017731499,69.52375095778552L553.6825625089805,69.87134535958012L554.0922168891248,70.74058187280389L554.3381729431621,71.03791491163975L554.6843635795722,71.42227459496098L555.1171699692331,71.7197886786862L556.1735825446249,72.02589738768711L556.9625213159579,72.36380717856537L559.0824282578888,73.51450067377937L560.7327579715147,74.79848147301709L561.3479204831838,75.09550126095564L562.5830120967257,75.34211139937452L562.9202143059119,75.5021149242848L563.5307464156813,75.96811150114718L564.297350307248,76.98763294029777L565.1422624662955,77.5275518245553L566.5131338062329,78.23120504604958L567.0484899792209,78.62110370623213L567.1511759508376,79.05637371848388L567.192032438219,79.69615038041684L567.1649309682562,84.09357576654838L567.2602627721462,87.0308449614322L567.1785497973833,89.10842443308138L567.2194062847666,91.46518813629518L567.1504950093822,92.18409715329744L567.2234919335024,115.93098810250558L567.1460007957703,133.07735724148097L567.2030636898126,138.91230236454885L567.216137765774,140.36537342339125L567.3357110855104,171.41624068949113L567.8664368565951,203.91814011225233L568.1926078141896,235.1352826513803L568.4208593903586,282.50594125537555L568.4175908713696,289.1752330808413L568.2928423965641,297.1128260197138L568.3313836829948,301.2099807849436L568.4826888745974,302.1635286428209L568.8038208654161,302.9382123871983L568.9063706487432,302.9650394236869L569.1741168293829,302.78155683610566L569.3570177045603,302.81758781296776L571.5420226497154,304.5596604136899L572.5086871411604,306.1313391250824L572.3120312485626,306.7039233930427L571.7897491515378,307.3477265463025L571.2498987649396,307.69202519224837L570.6969743023783,307.5931799096834L570.5230618544247,307.7182532944653L570.0182118586799,309.2436803940891L570.1383299315821,309.9147300274708L570.0133090801955,310.0354715085987L568.5953165914798,310.5894561453124L568.0291818646638,310.5802591741858L567.7527196333849,310.4861365328852L565.3048712860727,312.82037225703334L565.2245201942205,312.98138277539874L565.1133905485458,314.71302436052883L565.2558435012143,315.6252921236328L566.2314964198831,317.4671981196643L567.1622072024311,319.0720109004751L568.0572366526667,320.09594032424593L568.7562911517616,320.64589355325006L569.5623896477955,321.1064799789183L569.9542033617854,321.49999613856653L570.5192485822681,322.53698866481955L570.6656509953846,323.328007730488L570.8213142123095,323.61394882538843L571.8759563399126,324.5618200983781L570.6912543941435,325.21746417665963L570.4506096834666,325.51214915202127L570.272475398484,325.56569185174703L569.4667854673244,325.4001776181067L568.8032761122504,325.43105295543046L568.469342422055,325.63193592216976L568.4114623982623,325.743709663524L568.4201784489032,326.0204033567434L565.4858655251719,328.49391996960094L564.8581736907054,330.21742940518743L565.2629252923634,332.7757214050989L565.0135645310438,335.0922938263866L564.5197457868944,335.5341127284455L564.8976682951725,337.89460184250675L566.6987584472354,338.84044985939545L568.2228416148519,342.62028947881845L564.4176045684417,342.993909169958L565.3280232955894,349.4589154897285L563.3200631290856,349.9311532258489L565.3055522275299,353.0150139873567L570.0265193444484,353.0744641420979L571.9880393036292,354.98254454695143L575.2422585235563,355.8696200619215L576.5971958334158,356.0093395727172L576.6993370518685,355.9514643439161L576.9255458036696,355.47909746195L576.9165573764458,354.94454211727225L576.1615294896365,354.4771988494613L575.1748453193777,352.9493260624995L574.7833039819725,351.77779246926184L574.6627773441978,350.85100269777195L575.3024537482997,350.84612875287166L575.6102392865723,350.95218530186594L577.950498883778,352.725360401143L578.5459140932162,353.8435834873917L579.6520353949218,356.5518318411059L580.3802341883493,358.3778683747096L582.7234899279629,362.1581488889151L583.9438732060462,363.42359876339015L586.7556166676313,365.5389756258819L587.5144578265954,365.03645496752506L586.9740626868315,363.66526002742467L587.5821434073569,363.3632312950813L588.6687897834108,364.0179084052097L592.1538481570442,366.91421805551L595.2631630350588,367.7006605133156L598.2568540537832,369.1774230644278L598.8598958075308,369.1462821165378L598.9397021462191,368.7192529120557L600.3322274244674,368.5637353943921L601.8576724749964,369.07582539424493L604.0828529660776,370.5360551095109L606.6889521078447,370.7133401373585L607.8494125377692,369.842650357411L608.1859338055001,369.2286108046028L608.1088512326405,368.7807586033314L607.830618553573,368.3967316392718L608.0033053069037,367.9562421184328L609.7858738513551,367.3767465189485L612.6864120788523,367.27785739965475L613.4670433644187,367.62922117328617L616.185089281611,371.34403116532485L616.7657961555906,372.2560460172426L617.0117522096261,373.604956781689L617.3753749473217,377.9083729440872L616.7730141350276,379.7040093327287L616.3727567469832,379.73687019173394L616.2748373655577,379.6238984223046L616.0551656517364,379.5883149898291L615.8418947876071,379.659676182996L615.525529386985,380.65343447126907L615.428018570432,381.65099061577166L615.4594780657153,382.03941214379574L615.8458442480533,383.74748661846115L617.4343444774422,385.47395108226647L617.9963935555188,386.9504518709218L617.9901288941201,387.21627080092003L617.8600690759558,387.24774893069025L617.3767368302324,386.65139785371684L617.1475319360234,386.4941920412557L616.930583988029,386.4856418457621L616.7355623549283,387.0666512913813L616.4578744290284,387.37385485094546L616.189855871804,387.32411216541095L613.427004006784,386.67491051896104L611.6682684133066,385.9446340684199L610.6422258268685,386.6022348448905L610.5749488109814,386.8019946282493L610.5991903268277,387.6204275582677L609.765309419372,388.1697070616783L608.2473547248628,388.845436514649L606.688815919555,389.3795013710733L606.1926819744513,389.6369078249418L606.0996653715156,389.86342049543964L606.183284982355,390.47630219814255L606.6449632897638,391.897550579788L607.3825590752913,392.86902896044194L608.3963447155129,393.8446933475316L609.0165461939632,395.2425927194845L609.0742900294626,395.7351839817911L608.6763478423672,396.1792155261073L608.7475743187024,396.9647208835195L609.718324458885,400.91760170125235L610.2404703676184,402.1327797163058L610.5279638504926,402.49195136622893L612.2657264471127,403.95044370107007L613.6805866051327,405.5290132536393L616.1462756185974,408.4108632305133L617.6789386485652,411.4561733453711L617.6435296928357,411.6954187930696L617.3038760944019,412.073082504633L616.9944562966357,412.19269915021505L616.5218829259229,412.1483034972589L616.133201542636,412.50268824108207L615.9786278320444,412.71108748748065L615.5633897319567,413.7479844815598L615.6648500089541,414.54541156136384L616.4464346125606,415.6798135094914L616.0798157324589,416.9821087919636L615.4660151036987,418.6519987131742L614.5082028511861,419.7237876130057L612.9502087990422,420.95489817883936L612.5662940059483,421.30473696844L612.5134529489369,421.4597007524935L612.5532199299869,421.7918969903294L613.1137709368595,422.62418357720617L613.113907125151,423.1643516346885L612.9683218417831,423.6645983028611L611.9853147553858,426.35175087584685L611.266376765765,426.96278925426395L611.2312401866166,427.55578922963286L611.1783991296033,427.62219239104616L609.3792156136169,428.40622267760955L609.0217213490305,428.08777762177124L608.757107499092,427.9995018557747L608.5630391840314,428.083712306031L608.4485048310689,428.23858041346466L608.0481112547332,429.7832702308351L608.0659519208893,430.04863303811L611.5745708689101,437.24350196694104L611.7773552346152,437.5044293690562L612.0286226320113,437.6634199001837L612.9496640458765,437.8179595864849L614.7872526600022,440.54090568629636L615.1793387505713,441.3895611439111L615.9543863161962,443.8292015228344L616.271296469984,445.950179600256L616.2977169984915,447.0813423791451L619.2598123336411,449.7455797925022L619.5976954842863,452.1567110109345L619.5007294209008,452.5584826553968L619.5007294209008,452.94710549977935L619.6016449447325,453.5122452435162L621.5150904370948,454.63471289431254L622.4607819316825,454.99294369705876L626.0722230396132,458.94661240576534L626.5738045163671,459.391955550067L627.6427464145545,459.98706956938986L628.2935902585396,460.1717935228635L628.4211986874616,460.14110292394525L629.7885291318253,458.97132199025054L631.3365814387071,457.47532695354676L633.1056673423209,456.4282604673581L634.0948029018236,456.0718142265896L634.3719460745615,455.82465079298254L634.5480375351744,455.49367481534773L634.6185830700542,454.7521289110018L634.2623145000871,454.4120438828322L633.61542011655,454.0543735598267L633.5011581401723,453.23759790636996L633.9546651501059,451.77173047482484L634.4078997834549,451.48911953079914L635.0197937761404,451.28628423507143L634.9802991716697,450.69881348415674L634.7382925780803,450.38526396987163L634.7031559989337,450.0274627259014L635.1306510452323,448.1681385572592L635.2408273728724,447.96060433930506L636.0817900714719,447.31150323558813L637.7899998088888,447.4933481636226L639.0884189778681,448.13026482075475L639.5987165052629,448.64290183334197L641.1101341617923,449.4866816327776L641.4757997238539,449.96795685476263L641.7099073965492,451.1336723569211L641.9346180771463,451.34095354478995L642.9691043376442,451.8393396724932L643.3566962146033,452.4261700560455L643.7485099285896,452.7925851377613L644.3161427266077,452.7833138470369L646.9340902497152,451.29459089680404L648.6726699760875,452.36300713005585L651.8454485978327,452.6104414746769L652.7474236509224,452.94189047294094L652.9981462951528,453.074390018126L653.2006582842714,453.3040392409521L654.8712800532976,456.072779697869L657.1479397184812,458.8720972292913L659.3979064785726,462.70241198175245L661.8055792799587,469.81425029926504L662.3433868421907,471.1134276296689L660.2851731962073,471.6793713507959L658.679649430409,473.42541866632837L661.1227311875246,475.68468959040183L663.5298592357431,478.6530379890428L664.5049674012462,480.6480623075049L664.799270298683,482.75271664768024L665.4092576552866,484.16169562196046L667.2701344672187,486.9059433972234L669.4915016861469,494.8615608739383L670.1486101915289,495.92172305887834L674.418930252632,499.97806856087027L675.9416515373359,500.17058628611903L676.8229259701529,501.18562428876703L676.946584938627,502.97008047786767L676.6274957721798,504.1480867339769L676.1734440090804,504.2768965172645L676.0214578760206,506.9544543818947L677.2938650813667,510.7475606258804L677.6841807241526,511.87152151116516L675.6661426240953,513.3665007182699L675.1809037422954,514.2360776556543L676.5707052547186,518.8444438059123L678.1108586407045,519.8354997680362L679.2740428364523,519.1504864407507L681.2291619459447,518.9571468143467L681.5310913876929,519.466120044508L681.4393004793747,520.0190331347767L680.0094596093186,521.4146319038064L678.7894848961096,521.7133094201872L677.9404870883245,521.2138454458609L677.4709098600197,521.3971640104801L676.1576461672921,523.0440156370469L675.3673455130447,524.523094221272L671.9904206426836,528.2925368084489L671.1460532368001,528.9117646842424L668.8036146269333,529.5117765269915L667.1952309070202,528.2896592747093L666.2311539931088,528.6539491043959L666.085568709741,530.8223671528776L664.7058451308731,533.944489078759L663.3387870630904,534.3390783385876L662.104240202716,533.8033691989049L661.2341332097858,534.0683509711434L660.5496508578562,538.6435604838289L657.167414644131,542.863608718475L655.7487412139599,543.1647740496828L654.5432024596266,545.0296330366182L653.5819854998335,547.8400261238612L653.6691460062466,548.0939491727968L651.5748424630783,549.2445729036408L649.9503885247923,548.9393599920531L649.2930076428274,549.1402193704462L648.5499643256499,550.5063113838323L648.6357629491504,551.992834408511L648.9096376028992,552.4172179199295L645.6958663054775,553.6255788345525L642.8018651159637,554.0120045454505L641.0334601538052,553.1577924251797L640.4904774365059,553.3183808973581L637.3751702736754,556.0895539227731L636.9750490739207,557.6958670311278L637.5176232263457,559.0498114505217L636.6890536622504,559.8324105861102L634.7493238296738,561.2702521800538L633.5203606892428,561.6416850760934L631.8165089771464,561.4710799526702L630.7226446216555,559.3327471990469L630.7878788131748,558.74658968531L632.3875464824487,558.6023412216164L634.7136424973614,554.5641546533561L634.8774770117598,551.8578782013001L634.0621177119174,550.7241812944058L632.5398049920859,549.7785795751251L630.2852078300912,550.2765669521968L630.0979489295951,548.3022919513878L630.8468483432953,546.9859135081788L632.5840661867514,548.6243729998369L632.7737764764934,543.6540544924765L633.831278558213,542.6086080165169L633.9631088241658,540.8931879971569L632.6881140412843,540.5580436947293L627.3435407386332,542.0859436310893L626.2289757628678,542.1664140918474L623.3995278234161,545.462902088625L622.7993460237831,547.8342811912989L623.0852052471619,548.5977566681531L623.771049482004,549.0799044956511L624.6856900461808,551.0888836586819L625.2495095720442,555.0408763906098L624.5534512153572,556.4096870274197L623.2889429309034,557.3501322954544L622.0563027066055,555.9691906738017L621.7704434832267,556.0495605554806L620.7987400250095,558.6593521114601L620.3700192840843,560.6264312539388L619.4841144493676,562.2320886464622L618.6229958836575,561.7122597481302L617.6549695092999,560.4659483943569L617.4263093682566,559.622944941324L616.3688072865352,559.3821023928176L614.2825388525507,560.0242738259976L613.7680194881268,560.5061171463931L613.625157970584,561.0680818899746L612.3675952889844,561.5095237124324L607.6519395154246,557.6958670311278L607.4804784567132,555.6077103735051L605.8227945753606,554.0816707517188L603.507866000331,554.8045275449495L603.3364049416195,556.0495605554806L602.4217643774427,556.9328255133196L601.9930436365212,557.0131884232605L601.1357383429677,556.0895539227731L600.7070176020443,556.0495605554806L599.6495155203247,556.9328255133196L599.4780544616133,557.3746229905382L596.391483028241,568.6518264531896L597.1023859086781,569.3917021330026L598.1258409175807,572.7078276373022L597.3307736731404,574.2970312988846L586.3884530343639,575.3885936755705L585.7596716935659,575.3083634752084L585.245152329142,573.3840025040163L584.7307691530095,573.0632114702175L581.3011394139248,573.1434578613707L579.8721156736156,573.7848350012091L579.0148103800639,574.9073948280293L579.5291935561963,577.2323917129452L578.9004122153947,579.3164917501817L577.4430613105014,581.1493293666845L576.2601298125192,580.5219329339043L574.7470778964926,580.9557299786547L573.4714021721556,580.73310561369L573.5482123684324,579.06079847009L573.9176912026523,578.5322070339525L573.5273755598682,575.1880170900413L572.0412889255149,571.9003380813056L571.3553085023832,571.3389205964886L570.2121439854527,571.0180705829425L569.2975034212741,571.178592294521L568.5544601040983,571.9003380813056L568.2115379866755,573.7447141909543L568.2686008807214,576.3104353755443L566.1298999545943,576.2898065167792L565.4106895883906,575.6692038028195L565.0105683886359,574.5467208332011L565.0105683886359,573.183389778429L564.5532481065475,571.8200827225428L561.6952006259271,569.253325613653L560.3233759679515,569.0126916267918L559.6945946271517,569.4941455188437L559.5231335684421,570.3763427892982L559.8660556858613,572.0606559810922L558.0370469340887,575.6692038028195L558.4371681338434,580.718976644418L558.7800902512645,581.6804693747536L558.7228911689326,583.1227437008329L558.1875349959446,584.3109763033553L557.4500753987104,584.5209319364567L556.6592299912973,585.6210347510041L556.3905304926193,586.8691114437406L556.3767754752007,588.4702234202723L558.7070933271443,593.8467951831944L558.7162179426577,594.6883545934497L558.2516796811342,595.6127953073737L556.3793630527362,594.6139841252289L555.0647374770942,592.5327446458177L553.8643738778283,593.0131825395993L553.8643738778283,594.2938040587915L553.2229270259413,597.4747919847587L552.1963396863375,600.4465549532724L550.5490061151195,595.6543628289646L550.3203459740744,593.5735083166219L549.2343805394794,593.0131825395993L548.5484001163459,593.2532983621013L547.9768178578797,593.8136120689969L548.3769390576344,595.2543166712558L547.854384584025,597.0591776607826L547.1628204409499,597.1851981358641L545.6904888240151,596.2946356236225L544.547188118795,596.2145558684069L543.7469457192838,596.934871651587L543.7469457192838,599.4950670035441L541.3959272470674,601.789021287218L540.4709363727525,601.8113181289109L538.8884284281812,599.3351434925553L538.431108146091,598.0551009323335L537.6880648289152,597.495000359706L537.0592834881172,597.8949661319975L535.858919888853,599.8951516543493L536.6138115873673,601.1751736382748L533.8583138900758,606.8528809050895L533.1152705728982,606.77287691114L532.4864892320984,607.3325118718913L532.4292901497665,608.6116809663627L532.6579502908098,610.0504757840044L531.8003726206753,612.5138028321317L530.299305274284,612.2742915971803L529.3880694173859,611.569055392265L528.159787218412,609.2395934497608L527.9136949760832,604.4542262873847L526.7703942708613,603.8144217492163L526.2560110947288,604.773924278712L525.8558898949741,604.8539426049101L524.3802897590485,602.155484237147L523.2265025553988,599.0150989717577L523.1693034730652,595.2543166712558L522.6549202969345,593.7335144897916L522.1976000148461,590.611358224286L522.2547990971798,587.9689823832641L522.8263813556459,586.3670350180428L522.4834592382249,585.0053417418148L521.7402797327559,584.2844452643949L517.9677278762501,583.6033966724308L516.8245633593178,584.1641958781356L516.3672430772294,584.5648312503399L516.3101801831872,585.3658679095106L515.224078560299,585.9265783790515L512.0231089622594,585.6061485887321L512.7090893853929,584.3245281046229L512.6518903030574,583.1227437008329L512.3660310796786,582.6420699817736L509.3937216226841,581.6804693747536L508.0218969647085,582.7220564440013L507.5645766826183,584.0840288992968L507.964697882373,587.0479146492034L507.27885364753274,587.2080145504206L505.2210485664218,585.7662692133481L504.135083131825,583.4432449488149L502.87752045022535,583.282900033777L502.0200789683804,585.6863046122644L501.67715685095936,587.9289126554349L500.2481331106519,589.5304446852788L497.90460499445544,589.9308871132407L497.79020682978626,592.0925316815283L498.36192527654384,593.0530432685255L501.96301607434,591.6122448442338L504.8209273666671,592.9731309458966L505.2210485664218,593.6133670417985L505.3354467310892,595.3742557533988L504.4780052492479,595.9344628671179L504.4780052492479,596.4946418333657L509.165061481639,601.1349607692L509.96530388114843,600.6550633043717L510.7993209768938,600.773038423572L511.69857226415843,601.9189902841654L513.387988017379,605.1976338424756L514.7287617449438,610.0624728963376L514.875708911226,612.9579702449519L512.3812841683011,617.0926581282238L506.7279720093393,620.536174870379L501.04837551016317,620.4758648983861L499.1049685937196,621.4341271196308L497.90460499445544,622.8712713032792L497.84740591211994,624.7072371188378L497.98386657997435,625.3947194935199L498.3074499600352,625.6444087119471L498.91307929131835,628.3157153675238L495.26731873398603,632.606267635153L492.28343327223047,633.0258824298453L491.7885250217514,631.769271554741L488.7607869302101,630.179110584847L488.1622393900725,629.1449854900511L487.0423630709465,628.3366284831545L485.4263528067222,628.4311172544167L483.87108252040343,627.4466457714525L481.3676693502548,623.1929151965915L481.1426862930748,621.318082265775L480.48830155351607,619.2949034215571L479.829286412054,618.6247421722337L479.84195192314473,615.9632990732744L482.41427636867775,614.1258958314056L482.81439756843065,613.4866454176436L482.6999994037633,612.7675877479396L481.09951460474076,611.4888947862219L481.11967047185135,611.1764342936094L482.6999994037633,607.6523178895577L483.21451876818537,607.5723196260396L484.5133465020408,606.1890208759833L484.65443757179673,605.1183800394201L484.31137926608426,603.8551965695578L488.46103650112127,601.0884585028762L488.9846804810586,601.4267390076766L489.4479930479629,601.2859012157996L489.7500586780043,600.7783749099672L489.61632177597494,598.7751072093915L487.7964376397176,594.8012442021682L486.89010456130745,593.5885745500709L485.721881398782,593.4194120001539L485.27872469898466,594.0962375000527L485.0571463490851,595.8728757835788L481.8086470373928,599.704164964407L481.07717972497267,600.0018892979278L480.2476568428392,599.9277448645626L479.4268500113467,599.0253923869659L479.610023263107,594.2474639544207L480.00605881412594,591.8554427120762L478.6941570043091,590.1563800411632L477.5059141629663,589.878996385818L476.540475366146,590.2603494395898L475.8720632325858,591.0579246151765L475.3522325248032,592.3406781292852L476.02922452071107,597.0033163894523L475.3132826734982,599.6841511997945L475.29203730005975,601.0177518166074L475.72647794921613,602.0548653437463L475.72647794921613,603.4144776450175L475.0404975260826,603.6543696120889L473.3829498330215,603.4945057212808L472.69696940988615,601.5750074544394L473.04002771560044,599.8150977512996L474.12599315019725,598.5351102822578L473.0970906096409,593.0930945750733L472.4112463747988,592.7728708185587L471.15368369320095,593.6534163350225L470.46770327006743,596.6147582330404L469.667460870558,597.0948295886737L468.44748615734716,596.7747207625252L466.35222929613883,599.4950670035441L465.7234479553408,599.7350432736366L462.9225995570541,598.6149827480376L462.1223571575447,598.7751072093915L461.5507748990767,599.4950670035441L461.3793138403689,600.3750818152075L461.6079739814122,602.1349031736936L462.351017298588,604.2141609873843L463.60857998018946,604.6940959005506L464.2373613209875,607.8921187725728L463.0880683309497,609.5574404442677L461.81661444364,612.0741872543431L461.3090406820738,615.0127523519395L461.408866699574,615.8875476153898L461.7082085637885,616.8363070657788L462.76625539867564,618.207060299319L465.1687530449908,618.3815561744595L466.23973776754974,618.0253305092665L466.67594886449115,619.2671235437074L466.03068874044766,620.9619502072574L466.52845694504504,622.9066506825011L467.76708945415703,625.0122829253914L467.7258244019031,625.9321244073317L466.3662566901403,627.9504900154643L466.5908311824478,629.5343143955279L467.2272390675571,630.5691638196749L466.9791040008622,632.1400738660468L465.71350621007696,631.802342070434L463.50630257344346,630.4332550016752L463.457274788585,630.09090952718L461.8877047316837,628.2423290341767L460.5142458142127,627.3521486812897L456.3451136535241,623.1742749397636L454.6774880269095,623.0371349517018L453.2550013245782,622.0780590451486L453.0588901851479,621.3243601329632L452.71555950285256,620.9819258635398L445.50534279807835,618.5149475845374L439.69309890320073,614.253627308095L438.69252352723197,612.9596836726842L436.90028561410145,612.4342201777154L434.7407478794121,612.7295108590288L434.17202557506243,613.2210735134277L433.45131713765477,614.4569286424676L430.2408143592256,616.8671380170144L425.86453980751503,616.0487567595828L425.70383762381425,615.2133750749599L426.10668258939586,611.7870664810607L426.666144089937,608.9217374047676L427.1651379891573,608.2553339679152L427.5513679832002,606.5218130348221L427.02132315357267,604.0674518723872L426.60404222911893,597.6135808407853L427.48136720148614,593.9640795366095L429.34592109728146,592.6818943149729L431.48898004872717,587.3768897834161L431.7911818670582,585.2265447284826L428.19853474332194,586.2078772196992L425.59815550978783,587.4473014124833L421.53429689825316,590.7515678821592L418.6364824365828,593.9579769665397L417.7893912648742,593.4689976809805L417.1990150222118,592.0730764612817L416.93017933524607,591.039230609983L417.02918822299944,590.7225722880803L416.3440249296127,589.6603658876747L415.8224237740433,589.3896473105833L412.2109826661108,590.1571431228531L411.6005867446329,591.9405130270807L409.60570065409047,593.7680328028309L404.7210352110651,594.3235531600603L403.58822100426914,596.4519334682973L404.45478710162934,599.9126871944909L405.215943461546,601.9212771151333L406.7841516355329,602.9186718633327L407.62702097021065,604.0676424049516L409.3902507773,607.7241253663342L408.53212835400154,613.7855252402014L407.92963135341597,615.6313592300867L405.1900676862024,619.0618166885633L401.82934922250024,619.3938448912013L401.6401836859259,623.2958164631173L400.0086479564943,626.5259781370933L398.32222834568347,628.1474584232146L396.85697851989426,630.9770704399243L396.39312119982424,632.619950974522L396.5009823265118,634.4928901744561L395.2748791401973,638.1506405957707L394.90226797527794,642.7803417708765L393.99062355350907,643.9278803790721L391.7386139690461,644.0142637846611L391.4582022773193,644.790735255463L391.30253906039434,645.5851864117194L391.4891170194387,648.015838032351L392.02583507533745,650.6670119503888L391.39065288484744,652.9753432160996L388.5944348884659,655.4971359929013L388.56120494539573,657.5695320647519L389.8014717140031,659.0612001862173L390.1994139010985,659.1385559791142L391.9189272666881,658.1321305963602L394.6629851475136,657.273526021947L395.4105226783013,657.3254840862037L396.4198141049146,657.8420175879864L397.9893841618159,660.3310569438981L395.6688718668429,663.4643225298296L395.4442973745372,663.3418894993938L395.4366708302259,662.4198083552265L394.69158468868045,662.1406103610179L393.57402357050887,662.0608111510937L393.0868780526307,662.4996050116915L391.4622879260569,664.8382858175873L392.28459282875156,666.566587478279L391.28170225183203,667.483591566971L389.5049898039051,667.9219839941434L386.9261283203923,669.8352509525585L385.20675114309233,671.5887294860813L384.89161143709134,672.0269616471478L385.37875695496587,673.8997663682349L382.05467314161797,675.5729072127551L380.19216207019235,675.4932034291414L379.13180003435446,676.1304392438351L375.9368227211289,679.9337922270515L375.39234193262746,681.44690147645L375.9368227211289,682.919886821317L375.59294728566965,684.6713245412029L374.593597604322,686.3165723515631L373.1585815791932,687.4935201989856L370.00405218847663,688.2475115583848L369.2765343365063,689.4068614025946L366.8044444733496,691.3089120291534L365.0221483054811,691.5338848199845L364.45506026062867,690.971633467585L364.3740282273229,690.0718594040554L364.94111627217535,688.9469933305509L365.8983837715223,685.9645799277632L364.1302511859467,683.359190745974L363.65359216649813,683.1455950733707L363.0387020314083,683.3166232873828L360.41530697664894,686.0054350677083L359.5309002131344,686.1000065814096L358.78445218867637,685.7370367798721L360.76939653395493,683.5037297136105L360.8885612888171,682.4835929776018L357.19649671245134,680.1669408957141L354.3978273268258,680.0842417997637L352.39027572519626,681.9751927946199L349.4817023885171,682.0537153515706L348.06588891246065,680.6413607918885L345.6539942740437,679.6075273656124L343.93870274548317,683.2666772637822L343.54021580522385,682.0147379581313L342.8852863125012,681.5734893015297L342.1905898387231,682.0699874272877L340.9003419672208,686.2883906664492L339.7336168758975,693.5941616597656L336.48402805787555,697.947498153565L336.1101911983351,700.0562842409281L333.7885893970324,705.994923208501L332.20894140657947,707.1985111667827L332.0287642972271,706.0800753831318L332.42983881501823,704.6510951294367L331.47189037421595,700.1734064537059L330.87647516477955,698.8243492303072L328.25634862900915,697.6952562029355L327.50213787195025,697.9981348077672L327.30357534327777,698.3837594670604L327.34334232432775,699.4024554400667L328.10436249595114,701.5442124896772L327.072327624699,705.3012205386622L326.32111301004625,705.4309390100061L324.9315838742041,704.7154862210227L324.3361686647677,704.7980044718533L323.9590632862364,705.1832075313296L323.54219092665517,708.7053164458284L322.1770394949526,709.640785973229L320.04868887896373,710.5484343003145L319.8104955575309,710.3010040434856L319.9891745956793,708.2377413304348L320.82278312655035,708.292673445846L321.65652784571466,707.2745924848869L322.09314750752856,703.4219289084685L321.33893675046784,701.9905337414093L319.9891745956793,702.1556095709411L318.8180914790373,704.6053980024335L318.8379749695632,706.0364609350663L318.5600146670786,707.1371548908728L317.74615343844016,708.0450048830362L316.49567254798785,706.1189695104131L316.5750703218,704.908090808146L315.86049035749784,704.440169240087L313.8359152194589,706.256608329084L313.3794120671191,709.8608629606742L313.6970031623623,712.3914395026513L313.35394485665165,714.7980646243423L311.7762035022715,714.7974986419758L308.97739792835637,710.0243135852752L308.9629619694806,709.228177226425L308.0300721742733,708.5127767617005L307.3750064932574,708.3751655010228L306.20392337661724,708.7604350438405L304.97346216498045,711.1687790341066L304.57429428326213,712.908091163772L304.67371173589163,714.5390303937938L304.3129489523144,715.6177659317427L299.80811265364173,721.4162292736564L298.6115623265323,721.2163643797476L296.0907170551018,721.5186115224942L295.77312595985677,721.8208505688217L295.79300945038085,722.3155774868064L296.30902688601054,723.084962953043L296.32891037653644,723.551922865644L288.5695824813538,727.9786931344006L288.1111726929339,730.9905130477173L286.3941107165847,731.2842096429167L285.8787742224158,731.064738565944L285.49118234545676,727.4529318535924L285.80877344070177,725.8048224959748L285.35227028836016,724.3212240468756L284.0277029674562,723.9121681979568L284.9153782499616,720.8464164323814L283.8834795669991,717.6981625495373L281.9313565999164,717.2494450283202L279.33043261321654,718.3141534087672L277.63774834100514,717.800767158822L276.08275043127287,716.8459801102636L273.1508888967819,719.5290618800454L272.5098506097693,718.990082621729L271.85478492875336,719.1824434649634L268.51572040336396,722.3851467200357L267.62273377749807,723.8130123356505L266.8943987957791,726.5980935023499L267.1780790064968,726.8994427160696L267.14825377070883,727.2874721630706L265.9184735005292,728.6304900630939L265.1954498621708,728.7437357070858L265.43364318360364,726.7662017481407L265.98929141199005,725.6674220672994L266.30688250723324,724.3487452444851L265.9098936381797,723.5794459393564L260.5109812073115,724.7883213043742L260.59037898112183,723.4695417575522L261.4637544930447,720.8315202110225L262.65472110021256,718.8527877784172L265.43364318360364,715.4438319927267L266.3862802810454,713.3539625146241L266.2274847334247,712.1438609940997L265.7510980905554,710.8236020738004L264.6396654454911,711.0436559664513L262.5753233264004,708.8429236748925L262.5753233264004,707.6323377014978L262.97231219545756,706.6417615191576L265.1954498621708,704.7704355125034L265.7510980905554,703.9997991466516L265.7510980905554,703.1190073055632L264.7984609931136,701.9079949192419L263.5280966121354,702.0179206311223L261.7813455882915,703.669510277783L258.8436279572761,707.7423963462406L258.9230257310883,709.0630162436637L257.33507025486506,710.6035438848394L257.0968769334322,709.3931470374309L255.11193258815183,709.3931470374309L251.5391689549415,711.3737287504091L246.6959047524615,714.6739251457257L245.1873470500468,716.6535794144702L245.1873470500468,717.8631970801534L242.1702316452247,720.5017241457726L241.93203832379004,719.7321624988135L242.6466182880922,718.0831136274483L242.24962941903505,717.4233511211987L240.26482126204792,718.4129804088852L239.6296390715579,719.51227809988L239.23265020250255,721.9307708094648L239.70903684536825,723.3596365053891L239.6296390715579,724.0190519635698L236.4537281191133,728.1944554631009L236.29493257148715,728.9634403227283L236.77131921435648,730.5012529461801L236.61252366673398,731.0504209912633L235.10396596432292,731.5995623327735L234.54818154764325,731.0504209912633L231.84865723806433,735.1134348441901L231.53106614282115,736.3208878307523L231.6921768913944,736.6652858122825L232.46027885416333,737.2371252136227L233.1455783358415,737.6944629331228L233.52377322069879,738.3643379651448L233.44110692789764,738.6092711140864L233.19283567291131,738.8707657500972L233.32289549107554,739.6546486214711L235.77387616908527,743.4394505929286L237.37899137000932,745.9341033447827L236.57779565245983,751.3979126064751L236.94795542813335,752.5773037085373L238.75231409918888,753.3162409222705L239.32553061715043,757.3332974613968L238.0709640779569,758.7464195287694L236.61933308129846,758.887928755179L236.21049583090098,757.8965752610256L234.55185863150837,758.0903423605932L232.8674818450636,759.8322179622273L230.47247455476645,759.4868333514487L229.03160243311686,757.8088057552186L225.39714550396093,760.0689826110583L224.2286499648526,761.2478465571512L223.72080382670174,763.1601861797672L224.09532162769756,764.3221989329413L222.41026389979925,764.451429327024L222.59752280029716,763.1601861797672L221.36297593992276,761.6929419485487L219.59429860118325,761.9676185155604L218.09173318358626,762.8372584657609L216.94938579640257,764.0892799653066L214.5103896880246,768.2187491119612L213.72567275371875,770.3144593944853L213.62625530109108,772.0056527968909L213.99219323973557,775.2632439725394L214.35922068471336,776.2847903851416L215.44913557975815,778.0015467299745L216.11182780508534,778.5298426365707L217.44851588391066,777.4850461611923L221.56766694170256,777.355964249693L220.12665863176153,780.4456469676861L218.51963679476103,780.4492107788974L216.8402989750939,781.003463584475L215.6828346875791,781.9307214572127L214.84881759183372,783.1476324600953L214.28527044255316,786.4140248964368L211.87623575825637,789.6575501912739L211.56191318200217,789.2251711560675L211.4402970378942,788.0938232896297L210.79340265435712,788.1538047996064L208.7688275163182,789.1219000392966L207.8985843350947,790.3444123885438L208.34133247001773,792.1429886989126L209.153014685995,793.4766521148558L209.67665866593416,795.4215939701608L208.05315804568818,796.9343045380101L202.68216421452962,799.5250748346871L201.7345660838655,798.8273441398378L200.04869122621858,798.3743393157938L195.6385057899788,798.8151718609361L193.2485374664575,800.1757646858614L190.71407336590164,802.9625429635644L189.49859286630272,805.0724390342648L186.44729420037038,812.6502004335343L185.25932373561227,816.5432986376545L185.65222695593002,818.6828325362148L187.7270555734467,821.6719730845534L187.60380516984696,822.4583800081336L186.0891189943286,825.7830032779275L183.4770275677438,829.9493248753834L185.49492947950966,831.2219861971034L185.58849083561472,832.3772492236958L181.84562802660548,832.5501458262943L180.8950337535316,835.5825054322813L181.3810897650801,837.1718247076496L181.36393004037745,837.9732130973625L180.06237854069695,838.237468565857L179.7371609011425,839.2739030600051L179.75677201508734,840.2891593221229L179.2060265651853,841.7780136532992L176.89531982718654,844.7950535911605L176.77261417675072,845.6984808858533L175.44682116122385,848.8554391395382L174.47225774888648,849.9591431090348L170.29073245369364,851.9144136255018ZM247.6267517232991,721.9292624772152L247.6267517232991,721.3590984436578L248.09210711457308,720.2467808435686L248.47602190766702,719.8813269195571L250.11477561653373,719.577150100682L250.25886282869942,719.621466514659L250.32069231293826,719.6721944514284L250.2177339647351,719.8622807506435L249.76926592157906,720.5296317905459L248.6834366752737,721.4677033380922L248.1582946241324,721.7629676103134ZM245.36166806287474,723.1405768750847L245.44746668637526,722.6892478452228L245.25884590296482,722.4279438401254L244.88133195956107,722.6417384761862L244.65825553845934,722.5704740475794L244.55529719025617,722.4228534422764L244.5626513579864,722.2314905239755L246.0348467866297,720.9175031925315L246.2200628627579,720.2547007665898L246.27113347198429,718.3652644272415L246.39070679172073,718.0731175137716L246.5854560482403,717.9901305676312L247.8541861697213,717.981077409293L248.0255110401431,717.9495799059632L248.2781403204499,717.9375089831701L248.67349493001166,718.0088026837457L248.79361300291202,718.2702090638095L248.483239887104,718.5870571600772L248.09959747059293,719.0385503197904L247.68721932462358,719.5992140391918L246.95493488245847,721.9320906000166L246.69113816226672,722.2288510127564L246.18560722506663,722.5186279502877L245.7374115584953,723.0282176178753L245.46462641107792,723.1880841439688ZM519.377957632365,603.7383972703637L518.3129651946238,602.3464289599951L518.3939972279295,600.7593160182614L520.2570530525209,597.9243243508718L520.0949889859075,596.4500268410438L519.0423896826724,594.4082232445271L519.0964564343049,592.3370542009325L520.2570530525209,589.6431957715886L521.3106056737961,590.4371905734497L522.1865687632508,597.1874859376794L521.3438356168663,601.5109740225444ZM476.63104057983946,618.6795439197876L476.3504926998212,609.9118415506955L477.66076025014263,606.3772296812804L481.12498181521187,604.1505237640122L481.8740174172017,607.2934640531939L480.0952621449069,612.6604009739704L477.5671988940376,618.2867921223979ZM442.2275630037602,623.6280992970496L438.90688389769275,620.3466825066262L436.88081068844986,617.8563476961535L437.9083513460937,616.2636352245536L445.5847405718887,621.1036814725894L444.7399646011345,622.9490677476133ZM475.97543014565963,626.9165390930257L472.32531156300684,624.1716752183556L471.57613977272376,621.5564485053392L476.63104057983946,626.394393671565ZM354.40953951987467,689.9593589508913L352.060291495447,689.2843326023967L351.73602717392896,688.2722844323234L352.62656241055265,686.359695867226L353.68011503182606,684.5593375534709L355.46200263482024,682.758880093359L356.8398195776135,681.9706517143068L358.0544829474602,683.6588610928666L358.0544829474602,684.6720812062431L357.24497974414226,685.6844534190395L356.1103950895631,685.7969966430537L355.7862669563365,686.8098349735756L355.9483310229498,687.8220147480397L355.5430346681278,689.3968398070183ZM383.9814650865228,701.7200610192613L385.2926859548843,694.8370639486584L386.32240562518564,694.576814293775L385.9473430710259,699.2528307977227ZM604.1060049755924,569.8784909301103L602.081021272681,567.9455442524413L600.9463004298086,565.3297112075779L600.9463004298086,563.1684078398666L601.3515967846342,562.9414112264822L602.1620533059886,563.282191255631L603.1345738939563,563.8510908637709L603.7818768423676,563.5097545929129L604.1060049755924,561.9172871474348L604.6733653970296,561.5757002212285L607.5089418095886,563.282191255631L609.1287653459731,564.8752279972214L609.0477333126637,565.4434725029942L608.4814623975581,565.7847494049392L606.6174532549303,565.3297112075779L605.0785255635619,564.420152569508L604.1870370089018,564.988229134221L604.0249729422867,565.8985060442774L604.5923333637238,566.8087084315384L606.9415813881533,567.9455442524413L608.0761660427343,568.4004754121397L608.2382301093494,568.8548145541963L606.6174532549303,569.7647749990274ZM567.2515467215053,585.5174037469587L565.0975927067593,583.2872904610058L561.6344606480216,577.2490080003345L560.7918636899249,574.3604571743672L561.6344606480216,572.6529905187335L566.7829228112387,581.4498408804884L568.3746915596203,584.5993779800301ZM601.7962515556337,585.5174037469587L599.6422975408859,583.9433535439985L599.6506050266544,581.5823382980043L599.1644128268163,580.2189141435329L597.9486599506381,578.856086845859L598.3539563054601,577.6067296428891L599.4553110169709,577.2490080003345L603.3880203040135,577.7742226906403L604.4302692971105,578.9697099006908L605.1658222582682,580.9247995870219ZM358.7837712472192,702.7741502271301L358.378611080685,701.6509307755787L358.9459715021203,698.0550063008195L359.59422776857355,697.7177409208734L360.48571632323547,698.3915058339398L360.5667483565412,700.3020505769946L359.99952412339735,701.8756969545902ZM259.80130402149734,716.5019200820152L259.5290636272457,714.9216367601093L259.85537077312983,713.7924578081229L262.0830026534568,711.0066660756183L262.4632403626856,711.3831646512954L260.6699129432254,716.0508912839732ZM252.24857376417276,717.4805018873421L250.72639723263455,716.6530135252324L253.06311593426653,715.2980046161674L253.93281436232428,715.9003557001761ZM257.79075627745806,724.0254611871815L257.84482302909237,720.4905987816519L258.4422810629021,718.3835587207432L260.181541730728,719.9641113791176L259.85537077312983,721.167528928755ZM255.34481456622598,730.6421740860687L254.04081167730328,729.214041569031L254.63935921744087,728.3118510504455L256.3235998155942,728.3874132145747L256.4317333188628,729.3642112297412ZM253.06311593426653,737.1800743766516L252.35657107915176,736.5790460781909L253.49742039513148,734.2499477311621L254.25912150821205,733.6485751870523L254.09596793526907,735.4518435259833ZM235.04840114148283,762.3852569211558L232.70841392086004,762.1271232598019L234.01868147117966,760.7059676893014L235.51702505174762,760.7059676893014ZM183.36262940307643,867.1999999999998L181.90691275767858,865.7306502759839L182.0804166407579,864.5459858344639L183.6837613938951,861.9746018318265L184.47229160035386,861.9397764585447L184.74970714967458,862.3183803094726L183.2764222147016,864.0488482419105L183.39803835880775,864.7591711814939L184.28121942770122,865.9203564808058L184.2458104719699,866.5821626341012Z" class="state" fill="coral" stroke="#111" stroke-width="0.5"></path></g></svg>