<svg width="800" height="384.8" xmlns="http://www.w3.org/2000/svg"><g transform="translate(0, 0)" id="single_state_map"><path d="M182.5074445825794,359.5604130459774L183.12538292829777,359.1065492772823L183.65150021316185,358.6403629967458L183.93483638797625,358.1325545553782L184.0442343617724,357.7813378376909L184.0654731315808,357.37259056492394L183.9685254711203,356.95212594405484L183.8233328464812,356.68502847769696L183.20319738664512,356.1180048717938L182.62032132039712,355.71628875700617L182.39960289794908,355.5124683590484L182.20708077334893,355.2128791958485L182.10116156357253,354.8316226093152L182.06829639822172,353.52163172416886L181.98746090795976,353.0260473992089L181.8495004506276,352.6516848823662L181.53650323521833,352.0524032084759L181.0185335818751,351.35147542151844L180.592018803698,350.8710832308193L180.32497789192712,350.61343833246974L179.7753331767126,350.2518768323648L178.96807683115367,349.94991950363874L178.06698540346406,349.8673680464308L177.2647641110907,349.6658134169852L176.41667806150144,349.1878553182396L175.44408887855207,348.427891775822L175.2586158284157,348.1416797864067L175.14811929755888,347.81115323294716L174.97445573580626,346.4116368904406L174.80079217405546,345.9346929377052L174.54565229709078,345.43779593203817L173.92652384789108,344.73822400963854L172.91008392900403,344.2038129525504L172.4707526518032,344.0057397209357L172.31191961034892,343.98556979498835L171.7477190141035,343.58795829108794L171.54897173283462,343.1635116782463L171.2232495648259,341.8634592119024L171.24247431336153,341.327407214274L171.4262079814871,340.6255442755769L171.7051499280642,339.933166327492L172.12772821011458,339.29873625269147L172.64881044179128,338.7506691842682L172.95576559337678,338.5054469168799L173.71441078907264,338.11554139419013L174.53091332321492,337.7819432220185L175.09447309450843,337.42077132134455L175.4419833108568,337.1217164333825L175.80313394401855,336.70442317963125L175.9840296730763,336.47086488491277L176.13700374354994,336.14759545886454L176.2355076931799,335.6803187830833L176.2019101564565,335.1045578385756L176.08363217976512,334.7597102216114L175.3576690565733,333.16913256921634L175.2114694212978,332.2570656604885L175.2563271678755,331.7752889772064L175.34155688637475,331.4875155185646L175.8285838492211,330.46056762979333L175.94741110444193,329.85696724605896L175.9581220357668,329.35084677256236L175.58067613956155,328.10966983284106L175.05199555489162,327.0724857275636L174.92328128613917,326.5359293282618L174.91412664398013,326.2388894336991L174.98782151335945,325.8434243778838L175.0653613324448,325.6718927585098L175.32764183029394,325.24782953748854L175.46972187659594,325.1245891446306L175.8163166287286,324.89154098290237L177.0747137398739,324.5514601047771L177.5689728700272,324.256162796617L177.9037581337725,323.964729160728L178.25621185688578,323.43280820990276L178.38199664014792,323.1371064028808L178.49505647080878,322.5864810457542L178.46750099790916,322.0755414643327L178.3657929235269,321.7776095326981L178.05307034738325,321.1685101408957L177.64962526744603,320.6983007286726L176.5519836726089,319.7066764354304L176.33758195325026,319.43543018015316L176.0265987591156,318.90248145751775L175.90429273987502,318.53052305165784L175.7240378357692,317.55292913251105L175.67533513948183,316.6850145704584L175.88808902325218,315.39108728838255L176.63162905938952,313.78623472049367L176.76894869177158,312.7531352995493L176.7007466076866,312.35178972024914L176.58878533408642,312.0311837986874L176.29217492814132,311.50635181522466L175.80047909779387,311.0426083901675L175.3021919250914,310.6739228813676L174.5518774537577,310.4054024081697L173.85896258875982,309.9804084874195L173.5499018694809,309.7259349911337L173.20257474597565,309.20932160517987L173.02753798790036,308.68139290501404L173.0011726184839,308.2631011102985L173.10297223928865,307.86225804089827L173.33147210757124,307.29201685644875L173.87708878023477,306.3212999863981L173.9517906602523,305.5693987318391L173.9012570355335,305.07229927043227L173.82728752689218,304.80626068125457L173.70644625039495,304.61934870962614L172.97178621715466,303.91875401418656L172.08561685618406,302.93548734587785L171.86883492986271,302.46056260899695L171.81756893377496,302.0720551146196L171.91277721222468,301.4902297926383L172.21231710366192,300.9579050476659L172.89635196576455,300.2725332438067L173.3694638725301,299.6487986197508L173.51813526118895,299.26744152707033L173.63275138101744,298.6732654410134L173.5704082679149,298.0214670415571L173.37065397601145,297.11024478432046L173.33055664335552,295.0894164113806L173.0742266629095,294.26305243572915L172.14045316271404,292.63437863388117L171.84750461363365,291.9171704898872L171.72840271914902,291.07831977948626L171.71924807698997,290.59198908820235L171.92065020448354,289.9840339905277L172.3783823124213,289.3458744303907L172.77908099971137,288.9839685566203L172.98707446955814,288.8978675613844L173.19726505352264,288.90954232712375L173.40525852337123,289.02288395539927L174.52981476615423,289.3152298119239L175.13402114863493,289.15714062229745L175.527670761463,288.62204624475L175.58259861441366,288.1477280023155L175.32626863396945,287.46660626517314L174.76783546228216,286.955726741995L174.1636290798051,286.6759454989742L173.43116616068073,286.52996877519763L169.32064028496825,287.00438334634237L168.8720628191877,286.919234093687L168.5333410593139,286.72460381239307L168.08476359353335,286.2015113644775L167.82843361308733,285.62971985324293L167.6910224342846,284.8388767032038L167.92904313041254,283.7437334241631L168.8261980619718,282.30765062369755L169.0550641159425,281.82078408906455L169.21069303264085,281.23650493085734L169.21069303264085,280.9686959798237L169.16491982184743,280.4817475221189L168.25861024812912,277.9856688026175L168.20368239517484,277.2427819515433L168.34100202755872,276.779964897607L168.487476302098,276.62162656385044L168.9268991257195,276.4145639855278L167.58116672837969,275.19643965794876L167.49877494895009,274.7458081793893L167.49877494895009,273.86859335540703L167.6910224342846,273.12532170061786L168.35015666971594,272.7963104135488L169.66851668700292,272.8206820871146L169.8149909615422,272.9790961434901L169.8149909615422,273.7223814724384L169.06421875809974,275.42789764142617L169.9797745203996,276.17095404893917L171.81985759431518,275.19656147971364L172.32336291304637,274.7458081793893L172.6896401458198,274.20974395677786L172.8178051360428,273.442134511949L172.5248565869606,272.0651254484492L172.20444411140488,271.40700144931816L171.75586664562434,270.8950895370481L171.24311513831162,270.6025536342577L170.2727230694818,270.34657588246955L168.94529995645644,270.46847107867325L168.18546465728105,270.35876548625856L167.85589753956265,270.2246788158236L166.61077465954986,269.4079202142402L165.91502185548234,268.77408204379844L165.347434041636,268.06691301616866L165.01786692392125,267.38406936673255L165.00871228176402,266.93287259321096L165.18265048277863,266.6158000606956L165.42982582106742,266.40847655788275L166.4552372892722,265.92063519259045L166.95874260800338,265.54253751280976L167.37070150514955,265.0424451763547L167.5721036326413,264.38373889368904L167.5263304218479,263.7981762967638L166.9862065344787,262.6392449331561L166.7756497648279,261.5776475117782L166.83057761778036,261.175911757985L167.3901093465247,259.98083505967315L167.48687391414387,259.35198056693025L167.4714941153161,258.88518986144027L167.25105033213185,258.0345444999766L167.1712218525081,257.1424163615502L167.260571159979,256.83911632125637L167.39679223530038,256.5973471070929L168.01930790209735,255.88323012557066L168.20899208762785,255.5999100754052L168.32397439314263,255.32635007088356L168.389155445313,254.88423760023034L168.35107213393167,254.4391690827415L168.14527577820263,253.92616118180194L167.8537919718674,253.48445919603364L167.19392536506348,252.94500212733783L166.8387252493012,252.77494826208476L166.36561334253747,252.64398475108464L165.95402063107758,252.655712914966L164.98802279048323,253.0652104159235L164.50172819900945,253.06569906378263L164.21317387816453,252.98018522988423L163.48373199095295,252.51497380228193L162.61285088238947,252.2144287836736L161.8753529100777,252.1416120955064L160.62208239854226,251.90116565885364L160.24445340949205,251.6938236172582L159.97677167276743,251.42831524571375L159.5527286479737,250.77531983801327L159.26408278070812,250.15685518914688L159.2389075147712,249.98417504537883L159.29319454277356,249.82945630378435L159.5896218558737,249.41844704822506L160.38168149545163,248.8107546613046L161.24505579744618,247.93580102590658L161.60757962693424,247.32799480037647L161.70919615489584,247.05402665257043L161.73061801754739,246.78848488532003L161.72411822161484,246.40751713850113L161.61234004085418,245.65897702079837L161.0962013159442,243.791964426895L160.9467975559146,243.49023183359623L160.58811867613258,243.14066261695552L160.13505543569408,242.95364041127596L159.54494720213916,242.8861205166677L159.2509000959999,242.92795356278475L158.93085380612865,243.0966290097458L158.55487265266856,243.49818196849992L158.44959426784226,243.67736365854034L158.25240327574284,245.18453074131594L157.91258295880652,246.9499871782864L157.70220928199888,247.41528118731367L157.56507274245996,247.54449750255117L157.32705204633203,247.65623062874965L156.64805223741496,247.63239273090676L156.13795557632875,247.4382639974374L155.74934101668805,247.1166208359291L155.22725177437314,246.5454305588928L154.87122774081945,246.03460090670796L154.36378592595793,245.4584413430057L153.68423683851142,245.0736187065986L152.9768576389015,244.7806175831065L152.84008728505069,244.6359473338125L152.4394801441831,243.7202932763994L152.24759884453488,242.75071203429252L152.27826689576796,242.2995783375418L152.48314778727945,241.39539859256L152.64729052118673,241.050997706403L153.29122805063525,240.22572032813878L153.50910853401365,239.8099289772863L153.6215275397244,239.4373133789477L153.6239077466853,239.06835156277248L153.56064916936703,238.6867669637386L153.41655510178862,238.3279284605287L153.2010548253711,238.03333092111552L152.93447164570716,237.8162004864953L151.76148734590424,237.31925043226602L151.48968602020796,237.1247459527185L151.03909453315464,236.67157723302262L150.63207914277518,236.00977200114176L150.44926093886534,235.58335202539274L150.29106872236116,235.06434471841567L150.24099282975294,234.63628189102565L150.25518252509937,234.16350018820322L150.41236773096534,233.6469712760245L150.6034251128185,233.35293392011135L151.83426675106602,231.94052025686415L152.10643426244678,231.43511559007766L152.35196176514546,230.4879152887952L152.31818113557893,229.82987983022213L152.08766724602174,229.10133345797567L151.91336285931902,228.8136212087611L150.8472132335064,227.89233228001012L150.52725849005765,227.56486768384002L150.23961963342845,227.17525044475406L149.97752222842428,226.75092692508588L149.90950323718425,226.15288861845966L149.93925582419797,225.44410731993867L150.0531395726539,225.12193523396127L150.27340026299498,224.74543816236928L150.80281321903567,224.30994924946845L151.4298146604906,224.04707493170008L152.76089963037703,224.35261645572064L153.5070029663184,224.2626227103956L154.09967449967735,223.83323786582878L154.36442675090802,223.4233264047034L154.43235419572557,223.19598372953715L154.41651666479265,222.95857898719987L154.33577272095317,222.728034481921L154.1732778226342,222.4102889570686L153.75848098641836,221.83424289585128L153.03361642028904,221.31690612395414L151.65950463225454,220.60106600719791L151.38742866729626,220.15565699837498L151.31931812963558,219.794502706799L151.3102550338972,219.38977923085986L151.4753132320202,218.6142567358429L151.644674111958,218.35315557330796L152.1262998359325,218.0173186567281L152.65946619525857,217.85252387724086L153.30157279627565,217.497276940966L153.7371506701893,216.93510734079337L153.8849981410549,216.4806545166848L153.8264999776584,215.28334092084606L153.9542987821951,214.48899994548992L154.35215953041552,213.85246274063593L154.97321045446915,213.1275947289041L155.14495154136603,212.6255255694723L155.11364266518285,212.22915194467714L154.88935393229258,211.68907916903208L154.6757761307308,211.33527333937946L154.13693389326363,210.80692970903874L153.63544259580522,210.52039100150614L152.46282448168859,210.1960111871149L152.05681610194551,210.02147187174432L151.55523325806826,209.6597295750489L151.20342035990507,209.2256168606773L151.04275639001753,208.85093891837187L150.90882397523637,208.30584277689286L150.89994397234113,207.9807573182352L151.17421705141896,206.81090363642124L151.1634145736698,206.31224068926895L150.9604561570104,205.76500219743502L150.62026965438963,205.2424294630855L150.41520567003317,205.02525414147112L149.77319061543858,204.56912956075575L149.0952893635822,204.29514710084914L148.67115479236418,204.0100919552051L148.0493714969416,203.30484641805106L147.82618132111202,202.93738558849054L147.6797070465691,202.55208033627787L147.61800475842028,202.2385602075683L147.56371773041792,201.34428289123207L147.42859521215541,200.93590379200486L147.12164006056992,200.4497807903781L146.5700728705051,199.82403606843036L146.2448999810258,199.25248391489095L146.2236612112174,198.79331795883172L146.33543939197443,198.48690538217033L146.48823036960493,198.23928182708914L146.9273785539608,197.94847102042513L148.02923128419206,197.58457329240537L148.26835053737886,197.40507864834035L148.53475062419966,196.91443081416128L148.59059394136784,196.58173740583425L148.54665165900587,196.1342277702679L147.9168122784813,194.87658541442215L147.81702667895115,194.36497988027259L147.90674217210835,193.99968518171045L147.9988378722246,193.8278627924201L148.65833829334224,193.05055332771462L148.84829711813836,192.618599391536L149.22656693213867,191.4608603249535L149.25274920871198,190.89559407404886L149.19736362365256,190.6559807947724L148.91979487339813,190.29248357127744L148.1241649233798,189.8691210552115L146.72258920886998,189.6137133012171L146.34340393065213,189.61654573754367L145.66678432869776,189.75422553947556L145.10990744617993,190.01677102025405L144.83078240675786,190.08314486947802L144.18629559878173,190.03745903351864L144.00118873432984,189.94867259110924L143.6041519039045,189.5417937055845L143.5174574426601,189.38034166299713L143.4632619610784,189.0811970946088L143.70357131774836,188.48348955373422L144.13676898470112,187.7264675202814L144.22675911712213,187.4431505324519L144.24808943335302,187.1688160220683L144.14958548372306,186.842854230792L143.83622208262932,186.38825903079396L143.24217735294587,186.10008869046123L142.1869217513031,186.02554953267008L141.35000436514747,186.34168925319864L141.12919439627876,186.69144862225858L140.74689653972746,187.48971376661302L140.55620534356058,187.7269602365568L140.41275210093227,187.8158950173638L140.02129960222373,187.85580448023757L139.40354434934852,187.6072292706258L139.0166691717186,187.24716309424002L138.89564480238005,187.0549896351813L138.86406128693125,186.8100848352742L138.9050740838029,186.30916416504988L139.1863962373409,185.65000924066226L140.19267450343432,184.8693009642775L140.5822960737114,184.37626629066017L140.7544948927207,183.93841169009647L140.73884045462728,183.52518168241477L140.56297977875693,183.0583152363115L140.3950836415661,182.82770646992049L139.8028698403141,182.34354155153414L139.22914841622332,182.10403648704505L138.45649661802418,182.03895098376142L137.75067370758188,182.30545297026129L137.60923448622998,182.47481631048595L137.14738278931873,182.36461961884106L136.89526394426503,182.2556540279902L136.46032689530148,181.95290909063442L136.20491237907117,181.6232785354623L136.07217006776955,181.34590475449386L135.82764957570726,180.76178508401972L135.5624395923678,179.723256219816L135.48032245220566,178.50478502772148L135.5043991610819,178.04279909424258L135.7168784055866,177.1313267000678L135.95700466941162,176.5740305301324L136.17287113151542,176.2331943908257L136.5519648633126,175.3104075019064L136.64735623460547,174.4362502947697L136.58107662537623,173.5721143635883L136.43625018642342,173.16179220956838L136.12508389944742,172.56866896976862L135.87763392189663,172.27455892962553L135.49304740480693,171.94118793173766L134.90101669639807,171.67717171505228L133.49550448575974,171.37809068378283L133.05049733042142,171.15787678488778L132.66591081333172,170.82495195700903L132.32407647512264,170.35399403601514L132.03478978290514,169.51039612473323L131.8014379542783,169.0812163992532L131.22066745572556,168.48358512451978L130.1122233831411,167.77846963187676L129.7080459318313,167.37167179167773L129.21763175138585,166.59173146606918L129.040397879191,165.94487154089984L128.9822659014826,165.27819281252414L129.2642288799725,164.13159962624923L129.18888617500488,163.13991590045043L129.08818511126083,162.83025149965943L128.87314256695026,162.4308577318052L128.17995306268858,161.5269561807063L128.10827221458385,161.1875644260408L128.2665559775105,160.74964568958785L128.40845293097118,160.61442111025735L129.4645324504072,160.32913158983592L130.0109730408658,160.25533533285125L130.26391580371273,160.15211829222335L130.65564294168507,159.8229271633536L131.41740071571803,158.7965726454513L131.49942630945952,158.60196792576335L131.49567290617415,158.33292570874346L130.84239764172526,157.51844771089873L130.93842983797185,157.31305278603668L131.0527713185329,156.31048471644135L130.94300715904865,155.72399624908394L130.72091554027793,155.14315358160275L130.2932106586195,154.47814941253546L129.79455730023255,153.94509080579155L128.42694530813242,153.03389558413528L128.0231340425089,152.61482138312113L127.56613430594189,151.87139489537276L127.32243773167465,151.1322290039643L127.31758577133041,149.67497712488966L127.25304554411014,149.09046508002666L127.18374490296992,148.77677620101713L127.01703886925861,148.36898653804838L126.69507010453344,147.8530908936773L125.88378571642352,146.92013309287358L124.77607401521163,146.30309377553476L124.16381154763258,145.8945554000511L123.70232603640761,145.4918163905013L123.16247678830587,144.75055869871358L122.80626966190721,143.7526908906466L122.77129892886114,143.3526903441798L122.79418553425785,142.85442617255012L122.8697113320668,142.51459221089044L123.15341369256748,141.9584119511046L123.6622287037535,140.6994566467729L123.59658991947435,140.03036789658927L123.06314892088267,138.54909643453175L123.01472086386275,137.69969534101892L123.188659064881,136.75746069640263L123.35353417015904,136.38549454415715L125.5689575725828,133.7068128814608L125.87115231024472,133.11142493645457L126.20071942795948,131.9825434227305L126.25564728091376,131.34980185804852L126.14579157500702,130.08416414460498L125.77045124649703,128.66938385465528L125.71552339354457,128.4954970236222L124.79090453550816,127.30387652577247L123.5732455819707,126.86938606928561L122.24728721169231,126.69744527537569L120.46066724798402,126.63350964093297L119.27605655263869,126.26316919317287L118.70828564595286,126.47298542711997L117.62263663234262,126.3355502268405L117.43038914700992,126.12448872421282L117.39377057837191,125.60301806155621L117.59517270586548,125.31743595204443L117.72059130344132,124.89003649251663L117.34387777860866,124.13849147781184L117.16719318494324,123.946123003293L116.78196584290163,124.0446053292053L116.18718874184742,123.78430128538184L115.92344350125131,123.18305996251911L116.12191614325457,122.8043571068265L117.11913131360961,122.32440014176336L117.20152309303921,122.05111945637054L117.12828595576866,121.65360309669268L117.32053344110318,120.90820502814131L117.38891861802949,119.56146184875524L117.38983408224522,118.36287625706609L115.76515973832647,118.28010550056752L115.459211597381,118.10511576808312L115.33351836053953,116.9368835657433L115.39805858775799,116.52443654518993L115.53748378783894,116.45059651714291L115.89515565698093,116.54109396272179L116.25685556867393,116.53313818567858L116.48324986926127,116.35935214409619L116.56728948427917,116.19451285692594L116.58019752972359,116.01089815223077L116.50604492823732,115.8789962118799L116.0669882903021,115.75952418577344L115.69640837571387,115.45480623851745L115.64001578001626,115.28099602294878L115.68542280512338,115.0509836666306L115.76726530602355,114.88860326637405L115.75801911744384,114.67561370995645L115.57355307794387,114.4376254610961L115.29039999597262,114.32770574658389L115.18493851830499,114.23966937590558L115.14859458893261,114.07018411223999L115.25762637704429,113.8064362829582L115.26311916233863,113.63544927846033L114.85381511141895,112.28047703704578L114.41311063789726,111.31910522409908L114.06807217493224,111.04991466531192L113.71918876226118,110.99406018447189L113.49343528662575,111.11497405398313L113.2375630382885,111.34050074525658L112.92978396890976,111.74426793172915L112.72316369538748,111.78481763244054L112.54318343054547,111.60495445945526L112.3866390496296,111.01831774789207L112.45145391611368,110.77188224926886L112.69963626503886,110.60791930586402L113.08294113222655,110.58502890719774L113.34293296953547,110.51063464438357L113.58241840841038,110.37117457784643L113.76029310555532,110.1209861321413L113.82263621865604,109.79340246912761L113.87463458611819,109.46356534552979L113.78418672158841,109.11641868609695L112.82954063727266,107.77882537295045L112.1946662035607,107.48549208902114L111.81200216132311,107.1239438381599L111.758264411852,106.91907974536025L111.83772670578946,106.41262148959959L111.8123683470094,106.0055887520466L111.40141646050142,105.34520417896783L111.27947662694714,105.26540648786704L110.99302787379929,105.25121461264553L110.13368161435392,105.69214651063885L109.85290873934537,105.69787273371003L109.79056562624464,105.61820316263584L109.79624150438212,105.08588979812794L109.88421761552854,104.98343145770832L110.11106964822284,104.94645648662026L110.13093522170675,104.88956199417589L109.73673633034923,104.29170880091169L109.17519058033213,103.45199692403548L109.04757486863673,103.4147655957222L108.9454090621457,103.50591354681819L108.84901068021463,103.68534237359472L108.80360365510569,103.98130991043126L108.66463618713715,104.09523634047855L108.28746493019389,104.02974441187052L108.08606280270214,103.93299961730645L108.1257024032493,103.84758428887835L108.38898991173483,103.51736922428154L108.47632519792933,103.32062806016711L108.49957798901232,103.19448694788116L108.38651815835328,102.61480910011687L107.44166754114485,102.06547600610884L106.89403684720673,101.94031077686759L106.45433938431961,101.88638324295516L106.53279466762069,101.54910967649084L106.43419917157007,101.06335011799638L106.20945270657467,100.79255706036292L106.05299987207945,100.74248297247505L105.94314416617453,100.77599029602516L105.6822368646499,101.06372379091772L105.56313497016345,101.12077097867314L105.19420289116533,101.13235474488647L105.02108860794215,100.99285017031525L105.01532118338218,100.88174294140572L105.03573603539553,100.81759398274426L105.04031335647596,100.76116737154189L105.00808901607707,100.68605581332031L104.97586467567817,100.65479025650984L104.92981682561913,100.62975280714272L104.89768403164271,100.61717176964885L104.85163618158367,100.61717176964885L104.79634214294492,100.62340000858785L104.72850624454804,100.62850716077719L104.33677910657389,100.43219078667971L103.41316725917568,99.82016493073297L103.32235320895961,99.72324289929838L103.39925220309306,99.3529845726789L103.63214629961294,99.21656258420444L103.88728617657762,98.6749622346606L103.86366719980833,97.27898593173904L103.7160028217877,97.22240887364933L103.20206121099363,97.33020401270278L102.58961565057143,96.10449088887526L102.4904708759932,95.83651551010007L102.83999511361435,95.3465327810427L103.16699893152509,94.76826084560071L103.33443733661079,94.17772811903524L103.73513602389903,93.88462661529411L104.24413412792819,93.78426391091853L104.34062405627992,93.62742119845552L104.26940094028578,93.33666778045335L104.18124173629622,93.2169719419071L104.06195674896662,93.17146210006104L103.91713031001564,93.25138468541991L103.4940942958583,93.28579727565375L103.17633666652728,92.78954291744503L103.08881828748963,91.93997622124061L103.18274491603916,91.62346909883854L103.35036641396619,91.6207254815854L103.70785519026504,91.29235734208578L104.12265202647905,90.57683310101493L104.34099024196621,89.98074093924151L104.69902829679813,89.8607436076718L105.70786986269377,90.10547631357804L105.7788183394241,90.01990806378126L105.88949796312409,89.51508598651253L106.55705446934189,88.86451912173834L106.8124689855722,87.8489513938739L106.97139357344895,86.95890977895579L106.95711233168004,86.86756646199956L106.84341167606908,86.75064044737155L106.52217528271649,86.68799632555965L106.49068331369199,86.11169646689541L106.58451839581721,86.01185669155166L106.94557748256193,86.07163591218887L107.43443537383791,85.73766506422817L107.54529809038286,85.62059712332302L108.14501869820378,84.53894512443912L108.15637045447875,84.40488260826169L107.73827794708814,83.78846463670016L107.80931797024095,83.3060813514694L107.97703101458865,83.23467008258467L108.7477603379375,83.35177422915785L109.27396916922407,84.19080215911163L109.50713790500777,84.11378167576822L109.52709502491416,83.45739115657125L109.73472230907646,83.0748662469141L109.91671659519307,83.06063355725018L110.1384420282775,83.41169890444507L110.33755549522903,83.49172258871477L110.51103596414032,83.48885123842865L110.58491392636279,83.42031303825024L110.74713418541432,83.10358124261256L110.70474819221818,82.90856686545158L110.50261369335385,82.76386351072779L110.3177814681676,82.54112241205075L110.27145897884475,82.22972356991067L110.35723797587343,82.06003462675199L110.6250112590169,82.04167952835905L111.11432688240347,81.75348627007315L111.22244320629761,81.5879076295696L111.48435751846046,80.78868471436635L111.4616540059069,80.64019495829689L111.37065686284768,80.53453944632383L111.30520117141168,80.56588656367785L111.2710543561625,80.71725013394644L111.1344670951512,80.85412420378816L111.01783695404993,80.83976253134097L110.66236219902385,80.10316019535549L110.65961580637668,80.03184416131535L110.73376840786113,79.21509739618068L110.94725466300588,78.78676725295372L111.03266747434645,78.69257889688834L111.26025187841333,78.67384102303095L111.81474855397028,78.19151247496939L111.76101080449916,77.23750989826567L111.58176291102973,76.89191094562557L111.60739590907542,76.79182679332644L112.13113298697863,76.66925004960467L112.74037442264489,76.67812162249447L112.86698312370027,76.52018110720564L112.84812456085456,76.28238955846336L112.63546222350669,75.75817260232452L111.98356015537865,75.38938741105176L111.67321778619771,75.50648580744746L111.35738263171879,75.03495708694754L111.34603087544201,74.9320992544508L111.39162099339228,74.87210863310702L111.7502998731743,74.92647515354383L111.93256879855471,74.79511998467387L111.8160302038741,74.16355906004628L111.59705116343503,73.16892998693675L111.4689777196345,72.91740861272683L111.46339338791586,72.68013092082037L111.51749732307508,72.44009547035421L112.94214273582475,71.06287249618981L113.12734114669729,71.02873574375826L113.34091894826088,71.14602549062238L113.39776927606545,71.40623229290031L113.5058855999614,71.50351061739457L113.60841759214054,71.52076551321443L113.73383618971638,71.43786663865103L113.7965454885034,71.28069392426823L113.77677146144015,71.07200061313961L113.43795815514386,70.72875096037296L113.44949300426379,70.53154742678635L113.91692903289004,70.04283104258866L114.29583967184226,69.95166224494551L114.41274445221097,69.85736580955108L114.54118408169779,69.43426824928883L114.83523118783705,68.6681811307335L115.25167585963936,68.07627190133826L114.99314876507742,66.97526470044886L114.81957674974728,66.64346798177758L114.71704475756815,66.58040997402259L114.30096627145213,66.59142013959809L113.82227003296794,66.38797976382375L113.42642330602393,65.79276691511404L113.37817834184716,65.44965715040416L113.74884980285606,65.31538720174831L114.15961859652089,64.7548818376763L114.16273117485434,64.39432978934656L114.10020496891048,64.06817894692449L114.36568959151555,63.60483574574664L114.60819606229961,63.430480306693426L115.03013351939808,63.36201373768017L115.4794433565512,63.227206664104415L115.582066895151,63.1440932333162L115.7979333572548,62.76706741669932L115.94880186003138,62.3577256330982L116.04245384931528,61.77960278109822L115.79106737563598,61.17314050134246L115.35429939824098,60.589419200389784L114.98609969061545,60.5152926893652L114.27331925213366,59.902219009305554L114.19925819706805,59.764721508670846L114.08198723101486,59.43436682324773L114.09745857626149,59.24338578480456L114.29098771149802,59.0004259992902L114.44258858564717,58.40201084794626L114.44268013206965,58.32473199096512L114.21747593496366,57.99531745056265L114.00984865080136,58.00947129336146L113.83783292463886,58.06282979378466L113.69437968201237,57.95523563041661L113.59258006120581,57.72714104293027L114.34097205768558,56.74391450560597L114.46364426261243,56.735395749168674L114.80026045479099,56.893116487807674L115.11984901255346,56.90489217161485L116.16192192948802,56.63467326587852L116.30162176883096,56.54873239171502L116.36423952119549,56.23076785569356L116.4954255433313,56.04471867387201L117.39413676406002,55.18206813882989L117.73652038079854,55.03584021135339L118.0305674869378,55.21903191283309L118.19040753902846,55.24760040275214L118.65848439260844,55.1071376376849L118.86391456265119,54.975318326674824L119.10642103343707,54.53410814991457L119.38032792682861,53.5943374718463L119.48295146542841,52.44826065041343L119.44285413277248,52.11871936980151L119.36860998486372,51.95538499554459L118.700412653694,51.769232220526646L118.68036398736695,51.54295963921504L118.89449106746179,51.10155221461446L119.68536060355837,50.40773531679861L120.02801885956251,49.90896082874133L120.83353582311247,48.722203648453615L121.08492229679177,47.853587741979936L120.80790282506678,47.712989638911495L120.69932876906569,47.56674481082155L120.62215513566662,47.37132927494258L120.52447510383172,46.85028047148444L120.45856168028695,46.22507555310494L119.82414497868558,45.1697385055204L119.34965987559553,44.92884236442842L119.04664122014037,45.02934214304332L118.94374304227495,45.00926738614089L118.4749338173242,44.50750686279116L118.34329006308144,44.16043349233314L118.2657502439979,42.98998026904337L118.27417251478255,42.43047892054528L118.49351774090792,40.17499082132326L118.4706311355094,40.057352825378985L118.28753829233392,39.865135736507L118.13593741818477,39.86224804916765L117.8070111254201,39.72175446851361L117.67527582475668,39.19943224488725L117.68049397078539,38.07405844322875L117.95476704986322,37.27871303222855L117.96895674520965,37.011695571867676L117.82870762733728,36.72168346938088L117.57658878228358,35.73978099660053L117.51625969045745,35.274598916833384L117.41317841974887,35.15399619642358L116.62890022600732,34.8815024323867L115.60449576844076,34.94821342019168L115.21038842350572,35.31065373639922L114.13938683734887,35.588408346381584L113.51549797422922,35.69719596421601L113.36096761458975,35.628104700049334L113.25816098314499,35.28640783113315L112.82047754153427,34.89557334822439L112.00791150352052,34.4471758249465L111.60995920887945,34.69116562907402L111.16925473535593,34.662269199149705L110.8687993797048,34.538641502684186L110.25058639472263,34.555854014967736L110.12461851861735,34.63626231899616L110.03270591134424,34.80675025852361L109.8790910159205,34.88866352671357L109.74680643672582,34.87697963251776L109.008484546619,33.955403441605085L108.76231621896841,33.024668545686836L109.30619350962297,32.36113514635872L109.86160564939564,32.246267654413714L110.4312990309354,31.97907467687037L110.5167118422778,31.496947478382026L110.46535429976757,30.66081966724596L110.40804623985241,30.488353801431913L110.24802309491861,30.380497808233486L110.06447251963436,30.494010542344768L109.77802376648651,30.471006436560856L109.40579601630998,30.350328027612704L109.00198475068828,30.045732289466287L108.24874079386245,29.3359256395006L107.69030762217699,29.41362288113669L107.47828610977922,29.26426243573769L107.37785968529897,28.580159371038462L107.63272492299802,28.258266525626823L107.68710349742105,28.301395922985648L107.69287092198283,28.54558168722815L107.87340046535246,28.51967975626212L108.17696839933706,28.016712258371626L108.0639085686762,26.470508860615155L108.03909948842738,26.13066692189568L108.00394566253817,25.965519921447594L107.91871594403892,25.87193923110226L107.85985159495795,25.71295005691445L107.92448336859889,25.57634754139326L108.54608357118013,25.45483717616935L108.72093723641228,25.578485905278285L108.80689932628411,25.765401755785206L108.95309896155959,25.91206335010338L109.39435271361253,26.004008421483377L109.46456881896847,26.004008421483377L110.22229855045225,26.004134200578847L110.41994727465863,26.24851907486027L111.5230816547919,25.90942195689422L112.49759331259338,25.3461554624555L112.89929901052164,24.092556227818932L112.93957943602072,23.782049520636065L112.64177892659427,23.266942919710345L112.24959405651316,21.75363227276648L112.08371194059691,20.76112238316L112.35908357673179,20.48207375678976L113.05630112354447,19.40908282152668L113.03918194270773,19.291125189698505L112.94452294278562,19.267961470726732L112.84153321849953,18.827585673575413L112.78770392260412,17.515120293925065L112.7765352591723,16.77820762438114L112.85691301732732,16.752391725626694L113.24726695897516,16.29486915189227L113.32782780997513,15.959864145820575L113.3302080169342,15.791096659666437L113.30503275099727,14.570192119406784L113.07872999683423,13.421030899025027L112.94974108881615,13.225119573739903L112.61111087536301,13.046464220600683L112.52212775358021,13.06939483124279L112.52212775358021,13.213402531296197L112.42737720723562,13.314193706293736L111.88203517383954,13.383108906249618L110.42717944196374,12.242337382314872L110.00807992393493,11.905264350920334L109.53734822413207,11.150418787961826L109.00903382514844,10.591482524751882L108.54397800348306,10.338025782224577L108.79948406613585,9.767433725745832L108.90567791517788,9.291970777931965L108.8511162479117,9.156586990393407L108.39732063609881,8.758867463369825L107.77709362984206,8.701382355722671L107.23440644267066,8.767817956508225L106.77475185987714,8.580611793282515L106.65125573715522,8.456687610925655L105.88647693121129,6.502882263568608L105.86340723297144,6.344246002205182L106.1216596882714,5.565770798899393L107.230286853699,4.582253710511395L107.53477025189932,3.985371792665319L107.48588446277063,3.792245511742294L107.37355700348235,2.8952984000834476L107.86488664814533,2.5000278673796856L107.4939405478708,1.4271555294008067L107.38179618142567,1.2742182313695594L106.99931523203304,0.8705348294060968L106.88726241200857,0.8618274494792786L106.60841201185212,0.9947085562107532L106.27207045894102,0.7726077804591114L106.20011497157066,0.6543617156294204L106.22336776265365,0.09326733115085517L106.92964840520472,0.08607354515606858L119.57806819745747,0.09856801122077741L128.91488773519268,0.10891694739802915L130.65399510609677,0.09856801122077741L141.93690847394646,0.10159696960454312L142.8567669180611,0.11156728245168779L142.88258300894995,0.10866453448943503L173.76412049599458,0.15523457489689463L176.21124789145688,0.15523457489689463L177.4145340568084,0.15536078058266867L184.7115162287264,0.16469999546370673L184.78072532344595,0.16432137886476994L205.47378691272388,0.16798133851443708L208.03443187095763,0.11989690090376826L208.04047393477958,0.11636312448990793L209.10900376755308,0.10866453448943503L210.97279736466044,0.07988940790619381L210.97279736466044,0.06916181097949448L212.84153446853088,0.10550937240532221L212.85013983215867,0.11131486962767667L217.0931333799108,0.12065413849268225L217.09670369035302,0.12065413849268225L218.2449704563278,0.11030521825705364L218.29367315261152,0.11131486962767667L229.62419065968788,0.09238388411267806L229.64314076895607,0.09970387075736653L230.18491249191356,-9.094947017729282e-13L232.92269977591604,0.039250666844964144L236.0824245170188,0.05325969833666022L237.2296842723572,0.039250666844964144L237.28433748604402,0.05363832045077288L238.4156681640252,0.09427698477975355L241.37289222057734,0.0556576380831757L242.08320090567577,0.06676387548304774L247.62954085756974,0.042405856364894134L247.70140479851761,0.053890735183813376L249.48692620516522,0.048590024035547685L251.2954257636302,0.040891365557399695L253.10667171474415,0.08493768358857778L254.9468463350804,0.086830786104656L256.7669722890896,0.0920052639221467L258.5843518504498,0.08910250850749435L260.38506996308024,0.09415077808625938L260.3896472841607,0.09415077808625938L260.42461801720674,0.09415077808625938L262.91761016988494,0.08758802698321233L264.11284025013447,0.08064664947141864L264.25107534673225,0.07976320097441203L265.3984266484931,0.08203492547818314L265.6112720786841,0.07332664452042081L287.7610203282675,0.08228733927171561L292.3613195594753,0.1092955667490969L292.80321413647835,0.1033638614399024L301.0806584836009,0.10803350217429397L303.22028144895194,0.07029767489893857L303.6059665231005,0.07736526881126338L308.38816849400246,0.09175285045421333L309.59026455587264,0.10311144834849983L334.0868053228569,0.11522726743532985L334.25268743877496,0.11308175921021757L335.50952826075263,0.11282934643986664L335.6418128399473,0.11282934643986664L346.8227434941491,0.20079469130814687L362.84034624009473,0.21152210291984375L362.9783982438512,0.20874559783169389L370.1252442843652,0.20609529658122483L370.80689893950876,0.2059690917367334L371.159810394729,0.20546427233784925L371.66981550939454,0.20445463343821757L379.19621301381085,0.20798836900030437L382.8949630852221,0.21152210291984375L384.5516786766966,0.2113958981644828L386.97335616695636,0.21757992868970177L387.3117117411457,0.21770613333774236L390.1566998848284,0.2195992028728142L390.993800363829,0.22452118145793065L391.56614859159345,0.21631788204831537L392.40883340231085,0.2266666583082042L392.79708177626344,0.21745372403438523L396.4638821465396,0.2168227007277892L399.1621213764174,0.21593926801597263L410.8100303271385,0.2322196544109829L414.7409421236953,0.20559047719234513L433.4559601817273,0.20495945290258533L434.9717858303775,0.2009208962381308L447.56802416232495,0.20798836900030437L454.8880760324846,0.20559047719234513L458.3878041833632,0.14034228940909088L462.4868867563764,0.1422353781590573L463.8166900763608,0.1429926135297137L464.1602637965807,0.14311881941739557L465.6664770709649,0.14400226057205145L467.42984424358656,0.14463328990586888L467.8073816862161,0.1447594957671754L476.5988591905534,0.11308175921021757L484.7149987428402,0.1074024698100402L489.81166267189474,0.07345285156316095L490.05902110302486,0.09086940324050374L491.69147689277816,0.08998595592493075L493.4665620073647,0.09364595127590292L501.6896277800661,0.09591767164511111L501.84150329348086,0.09213147065474914L509.04043924787766,0.08443285616795038L510.86450169801356,0.06095834431835101L517.7283777493994,0.05818178436766175L519.0023377522175,0.06461835361096746L519.9192667108382,0.06928801808953722L531.8271674988682,0.08973354238696629L532.563383821278,0.08102527022765571L543.2733081364095,0.06461835361096746L544.8929474271408,0.06916181097949448L545.0971874937022,0.06057972256439825L547.4439800111049,0.049599683586166066L547.5906373784892,0.06121075880673743L549.0804638434092,0.07055008908173477L551.1831020544378,0.0846852698823568L551.3559416983935,0.08014182177157636L551.6514535472797,0.0723169881166541L551.9234379658155,0.06512318234126724L554.6341275090308,0.07761768276031944L557.3692599468068,0.08619975198416796L558.5109353704302,0.08367561498380383L559.1522180536504,0.09364595127590292L559.744706494168,0.08418044244990597L560.2163536581884,0.07862733846468473L560.5959051220907,0.09251009083618555L560.6994441249062,0.09553905163102172L560.7224222767254,0.09049078297357482L561.5127425342926,0.05919144264953502L561.9545455648749,0.06550180386784632L562.2637893769988,0.06423973204255162L562.3106611448511,0.06726870407328533L562.4573185122354,0.08153009787019982L562.8599396743775,0.0840542355854268L564.6745728430924,0.083296994358534L568.3411901205236,0.08291837371507427L569.2384365985072,0.08594733832342172L569.9171617681586,0.08026802870062966L573.8320529409375,0.0638611104532174L576.2103374273665,0.07421009376776055L576.5453973303775,0.06991905361337558L577.9617120187631,0.0767342339086099L578.3412634826655,0.0956652583054165L582.4120582114083,0.03899825162534398L584.2767672727314,0.09011216268845601L584.7658082568523,0.03167820666840271L584.9748087373355,0.04657070453049528L594.8200771005722,0.025620233105655643L596.199315488213,0.08935492206637718L598.8549856320515,0.08153009787019982L598.8033534502774,0.500777908224336L598.8633163564173,1.2857012538734125L599.0768941579809,2.069282027178815L599.0079597025251,2.530560187026822L598.6084511187182,3.771431479441162L598.2251462515287,4.500645605689897L597.7750124965823,4.868695029183073L597.5243583942738,5.195232575066257L597.4377554794519,5.47698451890119L597.421277123567,5.806901047954852L597.5211542695197,6.3385713530333305L597.8439469520381,7.021390491575403L599.8218073904427,9.606596447445554L600.1880846232161,10.265301930469832L600.363853752664,10.757088201444276L600.4430414073358,11.160626713385682L600.4276616085099,11.691798067763557L600.5301020542665,12.379052481129293L600.6546051876248,12.85898499616269L600.6892097349864,13.348966352944444L600.5717556760883,14.041740532092263L600.4117325311527,14.533661481981653L600.0336458099955,15.42080268931204L599.9200367008052,15.913390486260141L599.8014840848482,16.079258592608312L599.2528463802737,16.527852692373017L599.1036257130854,16.791178506433425L599.123765925835,17.059658225589374L599.8698692617745,18.740590196922312L600.1130165575123,19.0769840030016L600.3068203320145,19.171277363774607L601.5731819818375,19.360238259971993L602.204760744371,19.571224385364985L603.1257177455445,20.195462463795593L604.6132555499244,20.968419841497052L606.2119307101111,21.606387488797736L606.6266359999045,21.82372986140581L606.9646253884057,22.03515137028171L608.0137473798022,22.918276329540276L608.9680272784335,23.633837254446007L610.9440567884049,26.3730353854271L611.4729204659179,27.51710705905043L612.0373041550047,28.526469591307432L612.2191153482781,28.948181982002097L612.2328473115176,29.35038392381557L612.1222592342401,29.831892050406168L612.1344349083101,30.112736849263456L612.2214955552408,30.25290396563196L612.382708803656,30.3461796734764L613.127805128961,30.386406043014176L613.3152922003719,30.496776058601426L613.4165425426472,30.67213288997118L613.4830052447214,30.962876977146152L613.4837376160922,31.138600214945654L613.3213342641957,31.81757298852881L613.057863662867,32.496359875716735L612.7066915896557,32.9829480639728L612.2069396742081,33.50179897320322L611.5275736796048,34.36940401162428L610.7789070438612,35.16944852604411L608.9044940618514,37.09295727986682L608.371876981053,37.553884507017756L607.8806388828143,37.8731262944857L607.6009645648628,38.26380890379551L607.4429554412018,38.73081864723645L607.394252744918,39.440257346638646L606.5021328665443,41.1327254201633L606.342475907295,41.256121241950495L606.0923710835177,41.686547477464956L605.8445549202806,42.49687320736757L605.6681449658809,43.39094367372218L605.40110405411,43.89390661996913L604.4856398382308,45.080908934017316L604.0966590929038,45.37825811901348L603.1882439514884,45.77859487018941L602.7414058677186,46.11969892036359L602.5811996299399,46.47333216012248L602.4961530042856,46.846015602492116L602.4669496957977,47.3343276984624L602.51482847429,48.118095835227905L602.7468986530148,49.994349107415474L602.5611509636128,52.94336075157662L602.5573060139068,53.85376025684491L602.4202610207885,54.15515591856638L602.3565447113633,54.55002273204627L602.4996317683053,54.95364059982421L602.4819633089392,55.22454513845696L602.7927634102307,58.14737595491806L603.3794844261847,60.56274876437783L604.3675449543825,64.06179596438415L604.435930131307,64.51797814371184L604.4525000336162,65.71981670322293L604.5479829513333,66.02662836906529L604.9702865941163,66.68475568311715L605.2362289488283,67.23010789622003L605.3690628065524,67.58164504324304L605.4715947987315,68.22387820938638L605.4615246923568,68.4366514739786L605.1365348957188,69.68190133119879L605.0642132226658,70.25705470930734L605.0730016791385,70.47102231093868L605.4636302600538,71.70469029737069L605.5736690588001,72.17804822898597L605.620815465918,72.6425008576698L605.6136748450353,72.92140901695439L605.4314974660774,73.63132285430129L605.4027518896983,73.95994368032189L605.4032096218052,74.27092682000784L605.4596937639235,74.50465588453972L605.5378744079608,74.7566253719624L605.6597226950944,74.91835144498327L606.1517847111281,75.03058284499366L608.0366339851971,76.02222245382109L608.2104806397947,76.16780215140625L608.5175273378009,76.60802342304032L609.2596941776119,77.25500184103385L609.5788250032656,77.61645145867624L609.7918535263016,78.52593514010914L609.7385735089356,79.94703842166109L609.8451335436657,80.51530649052893L610.0581620666999,81.0836575649455L610.3778421708848,81.59502533655723L610.4176648642751,81.76547372596542L610.0778445473406,83.62505193820107L610.1743344756942,84.14349145086999L610.5335626340056,84.34022220074712L611.2078935754216,84.24784924999949L611.5836916360386,84.53482591980082L611.5242780084282,85.45460222251131L611.6356900035007,87.17466039827377L611.8751754423738,88.55462293622804L612.1529272854714,89.51945202191564L612.2727615513286,90.10921834367855L612.3113941412394,91.04491842329571L612.4182288152333,91.7774842318695L612.9945135391281,92.48591429436237L613.2685119789403,92.74777130968505L613.2805961065878,92.97981908501788L613.1613111192619,93.23068718414197L613.0067807596206,93.31809011041878L612.789632647613,93.34202911316606L612.7629926389327,93.80259111074974L612.8639683419442,94.11090544539911L613.276659610463,94.16488723966359L613.4671677137849,94.31885171743579L613.6314019941146,94.55633746740477L613.7675315230135,94.88730937044693L613.7683554408086,95.40549189921603L613.866127019066,95.69105707703329L614.091148123327,95.84524043619786L614.2104331106566,95.85720603311893L614.5217824904757,95.82454988115114L614.7444233877777,95.64531251383323L615.17981816885,95.66114240693696L615.542799730445,95.80298677387691L615.8545152959505,96.15895730651573L615.9487165637638,96.40000087202861L615.9730679119075,96.75719018248583L616.066994540457,97.11984632283838L616.3330284415915,97.43712533632242L617.2070221284885,98.0180636068626L617.3491021747923,98.06005595143961L617.9084508106953,97.94865736226348L618.7734729482763,98.43884898953729L619.1938541162071,98.74847359378236L619.8127079261412,99.36893146080638L620.5632054903181,100.58877093650972L620.8234719668926,100.85234659143771L621.143701349607,101.04753128105312L621.9849214175774,101.2986359287861L623.1414273614955,102.1025892868247L623.434559003419,102.25265962994217L624.1345229428789,102.46798369301723L624.5484958612997,102.52340158285915L625.2043344255544,102.43261566367892L625.7762249212119,102.26175093480288L626.0031685003287,102.27345753081136L626.7131109997426,102.57944174196109L627.9159394329836,103.41314683825749L629.0905715683766,103.88431548588778L630.9494216587154,104.35022625029887L632.288562713702,104.83652648891075L633.0746718358769,105.05451752204226L634.1007241290317,105.2299267510216L637.3675581833922,105.9631415981803L638.1723427755696,106.19765610197828L639.0396535736927,106.31254569970224L639.88709879833,106.50199156169583L640.7207205133091,106.78976116316153L642.2506443108832,107.2342147326126L643.3990941697011,107.49843532784234L644.399055732707,107.83184072476979L645.4065241022781,108.41423900356313L645.6721002713039,108.65179016900493L646.0045968745126,109.07647715832809L646.1707536296926,109.61287095140688L646.2404204565228,110.1085449244265L646.7984874425201,111.09780738498921L646.9786508002053,111.61316407281811L647.3477659720465,113.00220491190885L647.3682723704824,113.57327125059237L647.4415095077529,113.9254410116564L647.5777305830761,114.19403431001865L648.1372623118205,115.20254392671995L648.3496500099045,115.48700670181006L648.7458629225366,115.81223631603007L649.7711828443189,116.88132010118989L649.9908942561287,118.13655952663885L650.4486263640683,119.13076283048122L651.2267709475636,119.85148054750607L651.3823998642638,120.31108951703482L651.6845030555032,121.8888855516052L652.041534099697,123.00669031821417L652.0232248153789,123.68978988037998L651.6570391290261,124.29831885693875L650.9521316828013,125.56489966571553L650.2838428052091,126.35938740070651L650.2289149522585,126.66976058954424L650.2472242365748,127.36495152128464L650.4577810062274,127.99801769582245L651.1260698838196,128.81707910500063L653.1766181809617,130.43037376660777L654.8244537695409,131.34843706566153L656.2811404298463,131.8461981733535L657.0398771719665,132.2253288138827L658.0827740066943,132.5647442207828L658.33617450165,132.72749956746975L658.5851807683684,132.93180728594325L659.0254275097832,133.65682685544925L659.175380548344,134.2000820617286L659.2333294332093,135.13431782266434L659.28990512175,135.34835895644483L659.5217006612111,135.73525497800983L660.1579482912457,136.11010414151224L662.9548745635948,137.36186775521492L663.9332311711041,137.8858971547479L664.5466837421645,138.2891538466729L664.9460092331301,138.67751503222644L665.4432893951944,139.33606088465604L665.7344070158433,139.57799710115614L665.966294101725,139.65372456570185L666.3757812454878,139.64306575274168L666.6384279290232,139.74494357714957L666.9275315283976,140.00087164347588L667.2798021586659,140.41901396616868L667.7819342810762,141.5222615141638L667.9804984694983,141.7947344957438L668.8863503111097,142.77972096314807L669.4726135949586,143.05995471610186L669.6965361421626,143.2857944718071L670.9166668490834,145.5596840787057L671.3911519521735,146.08539093659692L671.7585277420058,146.3507696374054L671.9711900793536,146.59434539592985L672.1993237619499,147.01485785958812L672.2540685220611,147.31326430069385L672.2299918131812,147.4847499673233L672.1453113732132,147.65449848716435L671.8752494295295,147.93455688796803L671.7862663077467,148.1291804046059L671.854651484673,148.67625444099122L671.8405533357472,149.4581111895768L671.4860855913612,150.94931391859518L671.2496211843991,151.2719494759467L670.8993645754035,152.07730440308296L670.8857241585865,152.8173705395575L671.5069581754815,154.28541625209073L671.6824526656674,155.08514115241815L671.943817699299,155.75701986277272L672.2194639747013,156.10184235390807L672.7544612624588,156.5878826066646L673.6532640296064,157.63357037647165L674.0899404605825,158.39524145939959L674.1937541026618,158.89894217664823L674.527074623662,159.3422807089746L675.9898948942136,160.6602790682955L676.9045351922978,161.1899127809338L677.6528356423551,161.81788696767217L679.3734506360997,162.08038275861054L680.2793940241318,162.3614066067803L681.2405399043801,163.25829194433027L683.0103153265172,164.02596275956694L684.4996840593267,165.10450359453898L685.6983013571753,165.64137115868562L686.9455298048888,165.9722934611018L687.4331975926852,166.01577306521176L688.8256186650342,166.7615588319877L689.8028767154847,167.42885200213186L690.5477899479447,167.83614083590146L691.1545596302294,168.33626940382783L691.3429621658579,168.77722041548077L691.4392690013665,169.22283843600053L691.5316393407484,170.01560282235732L691.8937969845501,171.02073371737515L692.2656585490386,171.36315484745228L692.8964133937807,171.65742259812214L693.1690386372684,171.70136431532137L694.6799207791519,171.7291363407021L694.9945658301494,172.06523174399172L695.4191581334726,172.7757612207579L695.5117115656994,173.13834457918347L695.5780827213493,174.05250329628234L695.5464992059024,174.97297095179056L695.3724694584653,176.36691544195492L694.9190400323405,177.8265960976878L695.1756446520503,179.44717153074635L695.1995382680834,180.88544258800994L695.273599323149,181.97867245003363L695.3687160551799,182.18798119551593L695.7913858836491,182.5131505903273L696.2132317943251,183.0919630884655L696.4550974401609,183.39269205224537L696.5157927176733,183.5397245937229L696.6240921344124,183.89416889873428L696.680942462217,184.37293903301997L696.7739536265508,184.70134487310497L697.1694341678103,185.33384161719914L697.4082787817333,186.06694657394746L697.5095291240086,186.76659741840285L697.4589954992935,187.66007371868L696.9628138942862,188.62820965433184L696.9452369813425,189.4669178093127L696.7279057764918,189.8437530582778L696.24866025948,190.3551609544411L695.4881841353508,191.9339978596172L695.3056405707048,192.56369559187624L695.2320372477479,193.46438942417262L695.3320059401212,193.94774499946016L695.624862942781,194.45100873876527L695.9677958380489,194.77886973412842L696.3562273048465,195.4093236897479L696.453174965307,195.66232786413275L696.2918701704693,197.55824602772554L696.2715468648767,198.66280808214015L695.9570849067222,199.71998641667142L695.220502398628,201.47142820803492L694.764967404808,202.373682769462L694.5155949524014,203.63873035279084L694.4935322647998,204.71392217642733L694.3063198326527,205.17765850379692L693.7250000555705,206.28151867507222L693.6792268447771,206.4573698613949L693.5085843149373,207.31457272173338L693.4895426592466,207.70406780130998L693.6957967470844,208.99049318194466L693.7943922431332,210.2950092466681L693.7659213060197,210.61741985067692L693.672635502422,210.89793703361374L693.1237231585819,211.3777652653116L690.4762006462624,212.33905307564055L689.9842301766512,212.60944016353278L687.5703341322242,214.24580829626575L686.65569383414,214.7994542896031L686.228721323856,215.19017480198818L684.8237583917489,215.77370304670058L682.6130038568263,217.90013433893182L681.8874069193189,218.85927660078687L681.4743494651157,219.83461814809925L681.2502438250704,221.2543524349976L681.2728557912014,221.78874118944987L681.6482876661321,222.87273873583217L681.6873779881498,223.11382483942998L681.6986381980059,223.739437093599L681.6377598276504,224.2720635193673L681.5231437078219,224.67077411950322L681.2825597118899,225.05818577282935L681.0437150979669,225.29712100306824L680.1009700484556,226.00407679697946L679.8941666820883,226.22569996945822L679.7070457963637,226.5428015004136L679.5052774831838,228.38448404322662L678.8898108908506,230.53765470746657L678.9009795542843,231.28542336300416L679.2490390491603,236.4558783989969L679.0659462059848,237.43516743919827L678.9103172892865,237.77788993154718L676.9969970781021,238.78149173587917L675.422307080371,239.14863128798424L673.9025449355904,239.6870717849879L672.5385032539325,240.53137053462797L672.2638639891702,240.82501852982386L671.6779668910076,241.88940109673513L671.2201432366473,242.2196975905872L670.7166379179143,242.46435276590455L670.1948233148651,243.1248839358941L669.5723076480681,244.10334724407585L668.0891640719237,245.64418157433192L666.9082152334431,246.10881875100586L665.4799995102512,246.29222065252452L664.5004527992623,246.31667391822884L663.3560309829936,246.13327258347908L661.5341656469755,245.47299257845316L660.8109489164308,245.32625620531144L659.4102886661385,245.55870981723365L658.4031864822518,246.3779290170787L658.0461554380599,246.52464588871953L657.048299442753,246.6713600402163L656.22429010204,246.95255456132327L655.8397951313727,247.1726128695136L655.2081248224167,247.78385384530338L655.0158773370822,248.88396866530456L654.8602484203839,249.22619543036853L653.7067635083768,250.35055065677716L652.4250220597278,251.12039747328072L651.7201146135012,251.7802066124359L650.8046503976238,252.79425053678005L650.2918988903093,253.14852443999644L649.3398161057976,253.3317633456054L648.4060426056021,253.30733173640874L647.0775209355197,253.81903605400566L646.1430150639517,254.05111830911846L644.0936568702891,254.35586863008575L642.8127393394316,254.6149277217728L641.6587966953193,254.67538583818714L639.6878022385335,254.53749180392606L639.146671340528,254.47642193433057L638.3503090191352,254.2776973207956L636.427742619373,254.08495289114035L634.8299829234002,254.08483074489504L633.6693573905104,253.9436284256135L632.8322569115116,254.00250374698135L632.1872208250043,254.15298805731982L631.8256124597337,254.29443093156897L630.9350488705277,254.84845227974984L629.7910847863659,255.72166566562646L628.7832502311066,256.40954350723496L627.8967146844498,256.9319146672078L626.1683182448724,257.6113852458366L625.7113185083072,257.9445670571022L625.1919756586412,258.12232340930404L623.3816451717412,257.7854863927205L623.0697465133908,257.67414023738183L621.8371654931343,257.0665924394507L621.0584716311096,256.5862353144403L620.6330554099895,256.54520702200716L620.1677249490585,256.60039979465364L618.2500105096369,257.54472278461344L617.6884647596198,257.68036687288077L616.2413904735822,257.85385606402997L615.3859807102654,258.29165216190813L615.135051968693,258.4740397215528L614.7582468974379,258.7946117032616L614.5841256035783,259.01580613829265L614.4075325563354,259.4045904532204L614.1778425845714,260.72899953703745L614.1154079250482,262.253547633627L614.0632264647429,262.530895292045L612.8293637945844,264.5051157341486L612.6955229262221,264.9753572220816L612.2348613327922,268.09678608518607L612.0809717981028,271.2920679080098L611.933765152191,272.25024346914506L611.6898854850806,272.70723131084924L610.8316377826959,273.61588879146984L610.3598075258324,274.52480789992296L609.5260027180102,276.9296526233129L609.2220685983393,277.5465214529122L608.6872544034231,278.27915088012014L608.3318711948195,279.01694865593345L608.3811231696327,280.0674526603534L608.5015067140212,280.35939703791064L608.7551818482425,280.6559567562208L609.5546567479669,281.39061272376694L610.2697258469889,282.3518322877844L611.329192584024,283.3505402370165L612.1041330427652,284.2362014902783L612.7523732540285,285.16507860215916L613.7438209998236,286.837976529524L614.9827187231713,289.22524096543566L616.0361433963826,289.5411703016289L616.2938465731513,289.56147787901955L617.6356424743644,289.2515080851126L618.0907197360757,289.2197686379395L618.9768890970463,289.65985337467464L619.2465848550419,289.8957550543864L619.7315062501948,290.492530807046L620.4961019632938,292.07994593034255L621.4536775331035,293.60566735355405L621.9064661342763,294.8875727604209L622.6991665988044,295.91727434921177L623.6712980496432,297.6731958697719L623.704987132789,297.90375867386956L623.5266547035371,299.1574032590015L623.41899611175,300.57855343890606L623.441608077881,300.83356130772427L623.7699850921163,301.9119116804404L623.8589682139009,303.0622262898969L623.9436486538689,303.5014267245151L624.065588487425,304.7352589213997L624.0717220976712,305.1928147486042L623.7905830369746,307.0643943330433L623.8153005708027,307.9576178087973L623.7333665234819,308.61539936608824L623.3960179599308,309.9796807387338L622.8863790309515,311.00367891373844L622.6171410050629,311.85717331360775L622.6219929654053,312.2359898959967L622.894618208893,313.05867795029826L623.1139634350184,314.00081556751775L623.1824401583672,314.46741812322125L623.1580888102235,314.97544935745464L622.404753306977,317.1195895299661L622.1800983884004,318.5008383301629L621.9578236767866,318.903571863927L621.6235876915689,319.2071836942605L620.6902719234822,319.64392354069514L620.1160927672845,320.0535045119241L618.9225105226215,320.54058907204035L618.4614827435071,320.9008260438759L617.9122042139807,321.45568526031457L617.5731162684187,321.93323796042114L616.8112669479651,323.4592053018059L616.2686713072144,324.04621541163215L615.4172895864485,324.5468594101403L615.2060004454233,324.7251949300262L614.6973685270823,325.35581465042014L614.4510171065904,325.803961535742L614.1858071232491,326.54718612495435L613.6192263200428,327.7728720124551L613.4069301683794,328.02435228321974L612.6370247628274,328.546166840365L611.6884207423354,329.58582228554224L610.5394216049863,330.6465143407959L610.2720145075291,331.07706666353624L609.9192861451502,332.22162588071023L609.8457743686158,332.9524036068833L609.9023500571584,333.3278054203838L610.3394842202379,334.4841358581143L610.431946106044,335.2319977749794L610.3901093913773,336.08025609860215L609.984558743743,337.60027143435263L609.8040292003716,338.0717876406575L609.4029643273971,338.8159316119113L608.879868074444,339.55807315145876L608.6762688328326,340.21145384881083L608.1900657877795,342.6712753236793L608.2428880730367,343.0666371138168L608.3594266677173,343.3520634375168L608.6148411839458,344.710809888486L608.6302209827736,345.3170386818556L608.5374844577054,346.0710172726913L608.2200930140607,346.69803116444245L607.8333093828533,348.62151064734735L607.7245522340072,348.997509051585L607.5779864130436,349.2512226073195L607.4400259557115,349.43504527258256L606.1467496579407,350.43181484243087L604.6602188641991,351.312379012536L601.6678409817578,353.2789102029692L600.6676047794899,353.4224690440983L598.788065197874,353.141380845977L596.0953187532905,353.1470509623755L595.6171717933357,353.1986850301332L595.1434190616201,353.35430907303135L594.5296918512959,353.6895540623682L593.5023579082372,353.8889572919966L590.72401555947,354.61378806393986L587.6851320948645,356.15068638863477L586.8599326506719,356.6080931182946L586.3787646588062,356.98697457687103L585.840105514184,357.55948348312177L584.5237595181734,359.8759930322067L584.0202541994404,360.8571292184047L582.0309504583383,362.66384315886035L581.6868274595909,363.244262939877L581.5831969103529,363.5828319020925L581.539437720834,364.097766850713L581.5988513484444,364.68314315361704L581.7889932660837,365.1133236929709L582.1002510994822,365.3949584577181L582.6724162344035,365.66550167510377L583.2590457039387,365.8430482611775L583.5827538506728,366.0985205863594L583.8275489819989,366.4238416256717L584.9991600854792,368.31636953099996L585.1074595022164,368.56357570140244L585.4429771373361,369.82008003711917L585.4913136479354,370.5221732506002L585.4705326102339,371.01439665838006L585.3785284565383,371.73107038990565L585.0893333107433,372.87756800664647L584.1674608453541,375.07334403844334L584.006064504094,375.5887499495698L583.8631605399951,376.31897237557996L583.8356050670973,376.7381888942473L583.9092083900541,377.5994091615289L584.2149734381583,378.689034102254L584.5723706680365,379.70444203125953L584.6887261698757,380.4758936926314L584.6792053420304,381.71119339899633L584.645607805307,381.9626785182418L584.3869891643208,382.8316364965599L584.1420109401533,383.09714952161585L583.8183027934192,383.34210130228666L583.2322226024135,383.6669694870043L582.4416277055807,383.88354103432357L580.9755117638542,383.98569541366214L580.7298011683124,384.09337675215875L580.3886076550534,384.46796685873596L580.1229399396052,384.14649581349795L579.817357984346,383.9599766678025L578.3909731895874,383.507601817907L577.7320220469974,384.38985357309184L577.3642800714806,384.7999999999993L576.3172636477811,384.78101331082553L576.2152809341333,384.7132376774848L576.134536990292,384.45582930534056L576.2453081604126,384.14529402863445L576.2054854670223,383.6275485155011L575.5783009327224,383.9127453002311L574.8199303762922,384.04506454305647L574.6303377371842,384.012135160684L574.4303088060151,383.79063952078604L573.8380034583406,382.63871640915204L573.8527424322183,382.42944399978387L574.0558839417208,381.85436776864935L574.1146567443793,381.55912045067953L574.1261915934974,381.39069482258856L574.066503326625,381.3364756910996L573.9442888538033,381.3364756910996L573.5938491519664,381.56296739053187L573.1865591223232,381.62391709979875L572.5293473617439,381.4332523786388L572.3944994827452,381.33431172709425L572.3320648232202,381.19136860086974L572.1822948775043,381.040969027998L571.7309710190766,380.82913051558216L571.328258310512,380.8116974738832L570.9674738630347,380.6955563891943L570.758839568236,380.56125866738967L570.5928659058973,380.24396092478446L570.5350085674545,379.84897457882334L570.580964871091,379.4662342527804L571.053985231436,378.6706343697706L571.271499529128,378.0921639201579L571.2603308656944,377.9088727595872L571.1870021820014,377.8065213605114L570.7233195566587,377.8293731365443L570.3450497426584,377.73447770707935L570.008616643323,377.4323444114402L569.9339147633091,377.2475949240011L569.9407807449279,376.9488114296214L570.0905506906438,376.7171383678533L570.6218861215402,376.24751694717315L570.8100140179031,376.03062059225977L570.8816033195853,375.835252505125L570.899821057481,375.5714259148208L570.827316291583,375.0809237752146L570.7150803787172,374.89876749924906L570.6175834397254,374.8049205237412L570.3937524389439,374.7595607616672L569.0036200271334,374.8621913716988L568.1883075964743,374.78759480912186L567.167290356505,374.5206056640368L566.8103508587337,374.3639454671488L566.1692512683549,373.95796243944415L565.6557673896696,373.31405126884556L565.5483834371462,373.0900963007166L565.4651677399233,372.87022689548576L565.3847899817683,372.338881220875L565.0580608031232,371.36214904119606L564.6980087270167,370.75318131920176L564.3476605716005,370.42755313499356L563.0931999565855,369.820441211868L562.6836212664002,369.5390811868506L562.3058091845087,369.24807935590707L562.0734643665182,368.9663381759783L561.9025471974128,368.6125825527952L561.8101768580309,368.09600889274816L561.8253735640137,367.7735249432012L562.1369060366778,366.6600253979959L562.2069390491924,365.727294111884L562.1180474738303,365.11850354853686L562.0199097098885,364.9097406897595L561.8524713048064,364.73205310181856L561.5539384240055,364.58652706453995L560.371067110671,364.34064474184424L558.8822476563892,363.9011460601264L557.3581828297974,363.69054445751954L556.3767136439528,363.43776708289624L555.7371703427416,362.9130299452504L555.5445566717208,362.6114261963394L555.4725096379316,362.33077878011363L555.475622216265,362.01204112596724L556.0097040398086,360.57569757202964L556.04101291599,360.32173775857154L555.9516636085209,360.0827165412629L555.7261847721493,359.7772701395729L555.0360162998004,359.2060036835255L553.6018500592072,358.37440653506656L553.1675538351938,357.9543558813625L552.8664576545925,357.5930031739749L552.0373217142733,356.13235581248455L546.8373934216652,356.391874296065L545.9715473662891,356.4385433225666L545.5358779459511,356.45639083748074L544.269333203285,356.507883108291L543.2753221576841,356.5482807953417L542.5745343004291,356.59579303975534L539.2861868369964,356.80537416553534L532.7963694642185,357.0355694776258L532.0259147801353,357.11744459058536L529.8947140855726,357.1607331580408L527.3593359397,357.2426069994335L524.5245094488109,357.3294237135251L521.0224010909715,357.4578383884L520.8743705272645,357.44288692586815L519.700928495351,357.5147501533488L519.6221070263655,357.5065510255504L518.7363953975037,357.5260842280413L518.4148843648873,357.55646911560234L510.78055362941814,357.7133353041363L509.28084015096647,357.7687984065615L508.77669400728337,357.77952926709986L507.31799332570336,357.79737381253653L505.5895053397053,357.83366563779555L499.88890966743384,357.96171057305264L496.918136740489,358.0417677665082L496.896165599308,358.05273939823655L495.12648172359513,358.10578883547214L492.47941694338624,358.1980216849083L485.7000382391234,358.3452303601043L484.98011717975714,358.33715264010425L483.141590395011,358.38706558639615L483.07732480705636,358.39273201245487L482.8764719580922,358.3891151452167L474.11639487635694,358.72342738259204L468.8414900644693,358.87990919813546L468.72019105586696,358.8832847354188L464.3744824230944,359.0057675607054L464.08510418445803,358.9967260771791L459.2900857145323,359.07834016779407L457.9008687669375,359.1143851235115L451.43274789607494,359.152358731963L451.43906459916434,359.1617616930939L450.79073284148035,359.1654987643433L448.74769135090537,359.1804470320212L448.2310948938866,359.2027488314666L446.7531694637746,359.18273748994216L445.78112955935285,359.21914362846974L444.5225493553644,359.240722023706L441.0391164675293,359.25482630669694L439.5604586660429,359.2925581561349L427.86357237977427,359.657450987896L426.78524707989163,359.70434219594154L426.6743843633485,359.709284441059L423.260160570233,359.8441704003026L411.83425169186376,360.0921184174181L406.61674648631015,360.10730604035325L404.0683687485707,360.1262302606474L395.25015968912885,360.19831064201844L393.0960723891694,360.1684178530277L392.95051357884404,360.17950712639004L387.710671046425,360.13020795735383L387.3918148600351,360.13563208606456L387.3396333997298,360.14394907633505L385.4989095008659,360.1379222726491L384.9769118049717,360.1516633784804L384.7102370788871,360.1598598164205L384.5235739252694,360.1654044608931L384.353297581114,360.15154284256505L383.9466483764227,360.1709491015522L383.8944669161174,360.17914551989315L383.8597708223351,360.1740830271947L381.0069096863954,360.24893527383074L375.6185788581606,360.3868255162197L375.3383552616815,360.389477228543L375.0965811622682,360.3865844514221L374.46198136782186,360.40020460130745L373.70635720403516,360.4139452601835L372.49483186074394,360.44431926513516L369.5552762635598,360.4725235958563L369.01405381913355,360.483853512902L368.19892448131577,360.48445616762046L367.69541916258277,360.4873489096299L367.0121166718509,360.4630016319843L365.1804558687236,360.4756574042917L361.0376141061897,360.51627627266L360.74100370024644,360.5394180883677L358.7082154088894,360.5749743945471L357.54319564776233,360.5972723370801L353.4537254490151,360.6689869233883L353.363094491644,360.67730336355544L353.2202820739676,360.685499267217L352.02248869391224,360.7098458730761L350.0335511384965,360.7510661966098L349.97587689289685,360.7566104345765L349.90447068405774,360.7400982363597L349.7644046590285,360.7566104345765L349.6518025604746,360.76769889907473L347.4541391638395,360.82048942313713L346.27291568609144,360.83483199440207L342.72768896368507,360.9217305571792L341.0210805724455,360.96138298828646L336.80179754788514,361.04406189838664L336.779826406706,361.04406189838664L335.9805345998211,361.05527049005104L335.80742031659975,361.0443029435346L317.84006188367493,361.2101402962894L317.15685093936554,361.23183388381176L315.7002558254826,361.2097787360058L314.4148525199689,361.21544317862845L313.3354286630274,361.21568421865186L313.32169669978794,361.21845617840245L311.34420244707326,361.22918244846824L304.80614011011494,361.26798973333916L302.02651611144574,361.27931853283826L301.05978589948063,361.29341925041035L301.0080621712823,361.29402184462924L299.3540929724568,361.3082430551226L295.27130566248525,361.3043864581409L294.9801880418363,361.30149400919936L294.8648395506352,361.30149400919936L294.54351161086197,361.29595014582765L294.51366747742395,361.29595014582765L289.7672601573631,361.2770286703926L286.2856581979595,361.25051442630684L281.6562472046862,361.1780818878956L278.6971006732838,361.1281862167907L278.53780989972074,361.1281862167907L273.29009437504465,361.03466113207696L269.8845674919794,360.9677707477081L269.0798744462227,360.945835401757L268.73382897262127,360.91835587318747L262.0470037005871,360.822417837564L261.62131284020325,360.80566472182636L260.39047120195573,360.78264419666266L256.7068262901066,360.71020745577925L255.66713358013476,360.6897177437927L253.36291014876952,360.707435321322L246.29003361689684,360.56424725428315L245.2994097888968,360.54893996200144L243.66393296723072,360.5295346127009L242.7845380414601,360.5358021840416L242.50165959875267,360.5304988547646L242.4687028869812,360.5249544613339L242.32598201572546,360.5223027935631L241.5380419651192,360.50000464372533L238.45567395026046,360.4461272380099L237.58058170630284,360.4272037684791L233.24585864412074,360.35090678159804L233.22919719539095,360.3504246498442L233.12620747110668,360.34741132572344L233.07018106109354,360.34620599576283L232.69227743277952,360.3377686809822L232.57070378491153,360.3351169516545L232.3196834969167,360.3295724238842L221.87762401135114,360.2037347249152L219.84401180220084,360.17613213176355L218.37093833243307,360.12779723231415L214.5705717330584,360.06596188863205L209.63502950599832,360.0025590750374L204.50174700830576,359.9362628241938L204.3836521244575,359.9307180221481L203.78860038413768,359.91709707919335L201.79499396122083,359.8712919694917L200.04764741237523,359.83103147398106L196.658324245931,359.76690356301015L193.84134930725304,359.6778227801665L189.66664939000657,359.6602234833599L189.66133969755538,359.6601029400972L184.26531896990673,359.5933216962867Z" class="state" fill="coral" stroke="#111" stroke-width="0.5"></path></g></svg>