<svg width="800" height="938.4000000000001" xmlns="http://www.w3.org/2000/svg"><g transform="translate(0, 0)" id="single_state_map"><path d="M711.3605825181367,679.6036322557729L711.423963071471,685.1937041519059L711.3585920544792,700.212135017202L711.3645634454533,724.6445545179513L711.4059441372992,728.7286256487878L711.459058088607,729.2331279105147L711.5830954029007,745.0319439146006L711.7913607583214,748.4889572839138L711.860398418894,752.4585476867333L711.8628079275331,759.2153521370874L711.6765424336027,767.7357019351857L711.7445324817236,769.0520496996442L711.5790097143399,772.4124859569579L711.6092857141957,775.1056466935606L711.7266183087995,777.4809970470938L711.7646466407987,778.1753211681212L711.7546943225079,784.8208939923052L710.3441889173937,785.4317719425676L709.5349082983703,786.561007669547L707.342569720473,791.268958719324L706.1989959680795,794.2169042546429L705.8478362742317,794.4085877900857L705.0318509355184,794.44762438718L703.9998479092428,795.1322319416622L703.7607827477404,795.523860198427L703.6737261529943,796.1801279618312L703.7527161318612,796.4095069782657L704.356350426593,796.9090919005339L704.7014339682191,797.4161721225473L704.6630913524823,797.6450047147505L702.3201061040145,802.2788934603432L702.1831831565632,803.0960540654405L702.289515820421,803.92221903172L702.1832879178073,804.6349528250248L701.1368278396967,806.3541971218792L700.766601599229,806.8010936110059L700.5146508045691,806.8918954041474L699.2224208452626,806.3898200235926L698.1371991064352,806.4010897884245L696.5075331764019,807.2635137251068L694.2750710415985,807.960342559802L692.2218553973016,808.131822511104L691.6446209363548,808.096594236571L690.1934681681105,807.3671344067097L689.0939988999362,806.6231145715565L688.719477448416,806.1955117762473L688.3083943223264,805.3557985263801L687.3071911021343,803.977026542585L683.7635372226487,802.4476179979529L683.6033572787655,802.275394534855L683.5455290714272,801.8069164472054L683.7448897210052,801.3520250102802L684.4077141192647,800.7465083955622L684.6320079451962,800.2810708142447L684.3499906731704,799.3010031204612L682.2184136174765,796.3116098388109L681.3283620784205,795.9849766820998L678.621750547929,793.1025263304186L677.6792136250369,791.4333252332926L674.1834356345989,790.8810587885114L673.4607925653418,790.8962377594357L672.9813003461477,791.0899298193449L671.9107451816453,792.3166038375393L669.8746056203126,793.657136549516L669.6599498289361,793.6000686043535L669.1706100526953,793.0402669827072L668.6421943320038,792.0207159892552L668.0903120923922,791.8768550894138L667.4077925800411,791.9928260728866L665.6392132388992,793.2127763245117L664.6873525651845,793.4132985472047L664.053337509351,793.2905991308849L663.8155294827902,793.1680279414568L663.6768255941715,792.9471366643093L663.6372258434913,792.53011510949L663.7165301060941,792.1621102033519L663.7759297321118,791.524134323517L663.795729607451,791.1070544590484L663.5778262174754,790.7635182984332L663.0529723791187,790.4159485747659L659.4839662782997,790.2483220530157L656.7348216822647,790.3310977239166L654.0968287673677,791.5644792450644L652.9390074856292,792.6222115416936L652.0558701887549,793.1213337668191L651.5122640875106,792.8581562048635L650.8866299312904,791.7060095219254L650.4821467636466,791.5381447967143L647.5243177672128,793.8938354072052L647.2163197063819,794.44023208626L646.8341506839624,794.7759927616371L642.3050077710614,796.0210248412291L641.5169936848106,796.0282863254697L639.5399394657561,796.4586496909287L638.3965752358563,797.4131901341616L637.709446228715,798.2299630283424L637.5020189632542,798.6887532428868L637.5153236413917,799.4101490344956L637.6611512946874,799.6902675808806L638.7880680090966,800.8444925470162L639.5307204761812,802.4080936830733L639.4799112722685,802.942112544169L639.0988946235484,803.601790030702L639.0988946235484,804.3242635036595L639.0735424022132,804.6698043729998L639.2005130313719,805.0781675442227L639.7338525305877,805.3608510034273L640.1402214006448,805.9261944275731L640.2164875871367,806.3343777809073L640.064059975397,807.1509545677109L639.0834947205058,808.2552500285374L638.8470485901307,808.6920911537995L638.7984393723673,809.1366837559021L638.7446968535896,811.9121978755911L639.0758471496065,813.1341690440704L640.1919734557632,814.8781279746622L640.3620009566912,815.6408304010165L640.064374259131,817.242152084576L640.2532587841961,817.5660352959662L641.6847164383453,818.4334690082869L642.5401967664911,819.2937135861889L642.4364831337625,821.3307647640904L643.3002396002794,822.6941348739365L645.3065222067344,824.8159799440841L645.5245303579559,825.50359721227L645.6456343573864,825.9819798871195L645.6941388139057,826.1911683162239L645.6214345097505,826.5499333328708L645.4761306626824,827.0580006697332L645.2132846985241,827.6706213863054L643.5625617582118,828.7615876260256L643.3445536069903,829.5983472397338L643.3445536069903,830.2557902247854L643.7047227679213,831.483326445039L643.7780556395483,831.8946261098677L642.9399656781006,833.9639251137428L642.2904459579822,834.5323407571022L642.0599712185831,835.0490549221149L643.4428196549688,837.1156514109525L643.1810213032641,839.8402103939675L643.7781604007941,841.5314777054236L643.6105424085017,844.4098649992943L642.7724524470577,847.261513047079L642.7619763225393,847.6872761521317L643.2020783135431,848.6032521705088L643.945883154327,849.3772528235613L645.0877807267971,850.1253981037266L645.3602647255138,850.6283017425312L645.1926467332232,851.5698095416028L644.3754042595683,853.3107272178504L644.4383657679209,855.0224714944447L645.7269290836466,856.301710117827L647.7070213788083,859.1888562613481L648.2098753556766,860.2584416671143L648.1155902350147,861.9591116708452L647.5603556355563,863.260291079409L646.9272834309268,864.1699885240914L646.8712361647576,864.5373485531377L647.204272163186,866.3257877062565L647.3090334083663,868.6692479894427L647.4976036496901,869.4674920245852L647.7909351361977,869.8408430541117L647.8433157587897,870.098318658765L647.7280783890874,870.6003776261955L647.1937960386676,871.3727283884778L646.0728507152326,872.2222475362864L645.7166624816182,872.7885548309887L645.5071399912558,874.5257662345762L645.670777056228,875.8446627940757L646.167554880878,876.8783027451987L646.8510172444367,878.7888622960672L647.0476541016415,881.0214749085594L647.2964620589446,881.6973757628898L648.3566458601745,883.6358450464154L650.9618485053306,886.1633076790804L652.6068095771607,891.3610444896881L653.352814404092,893.3485722280634L654.2310279224439,896.9894156236037L654.0663432450201,900.61999750924L655.153136402525,905.0573922048188L655.5740670856612,908.172882635864L655.5271340478212,909.2194657032114L655.9038554854906,911.8213588610679L656.441071150779,912.3011441287281L656.725602692688,912.9815499419874L657.0274198400548,915.1750335470751L656.9927438679006,917.7929953041426L656.6598126307144,920.9100586888217L656.0546069173051,922.1878520049895L655.0891272817189,922.8309807785727L653.896944311562,923.1741117375936L651.7194818304779,923.0995691292992L650.6688313025588,923.5299108703825L649.1583836695427,925.1138254454595L648.9062233523928,925.6301337427276L649.3177255234641,926.3176087954812L651.4458454580672,927.3162812478345L652.4290297440893,928.0339860740019L653.308605158627,929.0922738580884L653.5001087148175,929.8912632227443L653.4256234694931,930.4495722919864L653.103482640563,931.1259796941663L650.9632104015182,932.9457270119924L650.407451995834,933.8586805978807L649.9397977973476,935.038172809795L649.8214175902922,936.037419362709L649.9627405100418,937.5402670961921L650.3462714286488,938.3999999999996L632.40737484887,920.7865623970397L632.3255563163821,920.7103372961687L619.7174356976266,908.3076874157823L619.7070643343559,908.3057634778352L617.953780135007,906.6459137665038L607.3104566696184,896.1190684323624L601.6317686133498,890.5986638401573L601.122314678034,890.0357715092491L598.7196155198108,887.7781132371533L596.6247048999321,885.690539988721L596.5225626858792,885.6288395140627L595.1313333498783,884.28329213408L595.0757051286873,884.2596371150139L583.4741305536318,872.8955062015493L580.0797614485273,869.6070496443417L570.8825622116128,860.711757753063L570.6247447872247,860.4446412779089L569.5204565017739,859.3801011257574L569.3589146617032,859.250199340282L568.6435001183654,858.4295121180539L559.4324723970876,849.6100866255251L546.3366881820148,836.8795638186293L546.174517774476,836.642825019273L544.0985689399749,834.6860659407434L544.0481787810404,834.6391735448519L541.8144595112972,832.4225850983753L539.6881205178615,830.4212105596798L533.2409039669437,824.3087065461891L522.5485522388117,813.9103341821569L518.3510834281515,809.9865748978364L516.268115590221,807.9932399943064L497.33325385250464,789.7868158824413L496.954541951176,789.4571187277784L480.8576623454119,774.0524569882205L467.76187813034085,761.6238343773744L467.2941191706068,761.312477693526L455.99111414431536,750.3585426728623L454.6659891540221,749.1697702943493L450.3601972158467,745.0355929642255L402.2840046674319,699.6144017465185L395.3872576134436,693.2421212315458L388.55190064913404,686.7657616739643L376.7199560959216,675.6875228933468L374.5064557464975,673.7627544100815L362.9974901121768,663.0030026985551L349.9848863257812,650.705119964161L349.9019154195976,650.7180125980703L345.71397988225,646.8167001721176L341.46769233133637,642.9986416067513L331.07621489936173,633.1899986808494L327.75025488736173,630.3518818974635L315.1403533274388,618.4804824163548L310.61456277438265,614.211373200601L307.6081245601854,611.7591464420912L300.1542572043236,604.6961925717314L293.44188994185424,598.6207769337216L293.4472327653584,598.6170738477067L292.14913617632374,597.3398227455928L271.32700060667594,578.3160233963099L245.13553693777794,554.3785289277421L237.69748852994235,547.6125744230367L232.49797840912652,543.0303870639573L222.7843062334723,534.0089124659171L219.40198467156551,530.9809399582791L216.7547727670917,528.7240937057595L207.61749696242077,520.337138495489L200.97238641935837,514.3212059010921L198.1275948064722,511.78347600161214L192.75313340620778,507.14751145887567L189.7042668877093,504.2760646718225L184.2273489896579,499.4560046785109L182.6765682772475,497.90793616071915L179.65724442989267,495.19267263858546L168.2399448851047,485.05203599068045L166.561460214818,483.4752933072432L163.59944076857755,480.9143269982924L157.9254669683378,475.77079841172144L154.08135783767648,472.4281888550786L153.46567599974514,471.95764145979774L145.64744903314931,464.83069878311744L145.64860140684505,464.83083286840974L141.10091575354636,460.83828493527926L141.08404919307395,460.82245628577584L131.5241665253452,452.3195072395738L131.35351045694551,452.1673894270052L131.28929181364765,452.1151613077891L98.11811018457774,422.7215993500813L87.98780253683981,413.795161593036L87.83621301506355,404.6357038668775L87.49207232464323,383.330359972987L87.49238660837909,382.86325015527655L87.5553481167317,374.3942159227681L87.52685305804516,371.40401496697814L87.52695781929106,371.3359064038523L87.53670061509001,370.9971165738998L87.6006049746502,369.08249612756845L87.62993812330205,363.0644545070181L87.76759439947091,353.54523556364893L87.91174587283786,340.82002616434966L87.95585035706063,315.8505073992528L88.04144029437339,308.0106015808433L88.03044036362917,307.8984113542065L88.12200169191601,298.2656319386351L88.34189554555087,283.91286656631564L88.37782865264671,268.14188654819736L88.3899809570903,267.3968461159402L88.3838000436208,265.4325125434616L88.39532378059448,260.6696194346823L88.49390411230706,242.00412680436966L88.49400887355296,241.8570931673321L88.49683742717389,233.92975559281604L88.49683742717389,233.84896127705542L88.52082775232157,209.3496912829196L88.35247643131333,178.83961638796882L88.2533722933731,174.84303410844677L88.17459183699793,158.78776936089162L88.17448707575204,158.57235494452652L88.16128715886043,157.79003252395887L88.10806844630861,114.61891777616256L88.1494491381527,70.53644308519597L88.27421978116581,53.89392985516952L88.21398206518279,53.03514966752846L88.27348645244638,35.49989438674038L88.16987758096366,17.93046139249782L88.18119179544374,1.0807905961264623L89.48965974775092,0.89726131669795L101.07876773463431,0.7059752683899205L101.40614662582266,0.6436689836637015L103.92272125755699,0.6944162165873422L110.08477769909223,0.6573425718997896L116.82689715519336,0.8332648171972323L146.2786355353619,0.9485709557193331L155.12268461477288,1.102780027503286L166.55674595878554,1.1790378302976023L168.56365713271407,1.1270247227012078L171.0356034739998,1.272914383153875L192.74820962768354,1.1860856536550273L214.26721700027156,1.3832815065752584L216.19314773167753,1.3442373537382082L216.33551826387884,1.341277320784684L224.65984680594556,1.467853096143699L234.5705748837845,1.1717080881307993L245.13092744298956,0.9530816791830148L276.9587556251063,0.7347318692363842L310.8722754375249,0.5458387856015179L336.8000550523029,0.5786839134243564L337.0349297640005,0.5272311920089123L355.96203916957165,0.35919723518327373L360.0947655307082,0.4112147947680569L379.5868523315403,0.3270561532917782L381.6562012075956,0.2575577184516078L395.1897826662789,0.30619258235219604L396.5737834763622,0.3266332435505319L397.25389348007593,0.4544920467178599L398.09240248650167,0.3266332435505319L399.6307166107399,0.27560198857827345L400.4612637625323,0.4016289257006065L401.40820065772095,0.5751597638372914L405.6090218282261,0.4533643033910266L441.47780552070253,0.6283037926305042L441.5640240254852,0.6806017205062744L445.65076019998924,0.6818703996059412L446.14523327724055,0.6164627100270081L452.10593860554036,0.6553690656055551L453.66342403764065,0.7204945440635129L454.57599924441274,0.6869451142047183L454.7817503299484,0.7706774906591818L456.2435887452011,0.7536209588415659L456.5294821832995,0.7502378412391408L458.57924070650733,0.7978832966118716L468.53679706094226,0.835379246276716L472.2783449325743,0.6941342883073958L489.965395478941,0.6557919598462831L490.28994581651204,0.6624173003747273L503.09501757620455,0.669183600544784L503.0983699360513,0.6758089311797448L503.9171838283837,0.6777824329765281L503.9167647834038,0.6800378630723571L505.15273795404573,0.6266122103597809L505.1543093727232,0.6322508166895204L505.85893350781043,0.5862960718095565L505.85966683652623,0.5881286274925515L508.51347869944766,0.5177864138295263L518.9129179860538,0.5862960718095565L519.7526841274248,0.6084276807832794L520.7390112508019,0.767012453503412L546.3287263273833,0.6755270023168123L550.4212243703714,0.7503788044987232L579.018110989864,0.8604704333438349L585.2560145729094,0.7733557861010922L585.6266598583607,0.8529994692507898L608.5706296878998,0.8738617685039571L620.8901330761819,0.32395481473486143L622.4591422452522,0.32395481473486143L624.9035363790572,0.12518497073870094L629.596840163158,-9.094947017729282e-13L632.1837095904084,0.054275229992526874L641.1585007038029,0.5604992867010878L653.9863056536997,1.0848783791125243L664.463268261743,1.0724740663663397L664.4649444416664,1.0672586115679223L667.6771337414011,0.9465975134899054L687.1340207638495,1.1267428080163882L705.4072104770021,1.1618411180625117L705.424915127438,1.180729308408445L710.191132738184,1.165505993924853L710.1899803644865,1.185521827987941L711.6060381155949,1.183125568518335L711.6071904892924,1.19623450956351L712.2905480916052,1.1963754658154357L712.5079276753568,16.53396620284184L712.3550810186389,21.351204522107764L712.3503667626064,21.348110433202237L712.4814230803258,34.953786068002955L712.4744040768983,53.03136569694652L712.425271052909,54.36869039971498L712.372366624093,70.53266642724248L712.4468518694175,71.68391468329355L712.3248050187813,109.60859434540816L712.2035962581067,110.86686452277354L712.3194621952771,111.30843646712219L712.2463388461401,140.20237371003077L712.138330002359,171.83121184610718L712.0726447016314,173.55604894332646L712.0697113867664,173.6305955523685L712.1038635526947,178.1069866234493L711.9178075812524,208.42865328497646L711.8867982526808,209.91453081116651L711.8929791661449,210.09733855260038L711.9244075397,218.9361262594566L711.8607127026298,219.68740278504538L711.8238367443264,223.33488577006028L711.8264557754555,246.18901044398353L711.7648561632905,263.7014307735817L711.8020464053279,264.5690661433873L711.755008606242,273.8450459386813L711.7843417548938,278.39062440112957L711.7236849939345,290.80773860817044L711.7153040943194,302.41063026692336L711.6556949458118,306.074143569278L711.7091231808517,310.8105604724051L711.6614568142959,340.2915817677658L711.7294468624186,346.1040641321015L711.5173053409271,412.9950798109694L711.6273046483675,430.0762371058627L711.5783811468682,430.4121232059988L711.4794865314179,430.580061832261L711.5106006212354,447.38565989071503L711.4497343377861,450.1713749635546L711.4073060334867,471.13667412847553L711.4378963170802,474.50692390924996L711.4408296319452,475.040032358218L711.3726300613325,480.9088386742724L711.4139059919344,493.65501704326107L711.4108679158235,493.67333186359883L711.4845150711863,512.3492227753159L711.4089822134101,514.3157365073866L711.4336011060277,527.8276027427064L711.3791252585343,547.608453164321L711.459267611097,563.3619410112851L711.4309820748986,567.1917642450571L711.4572771474395,571.0204864599755L711.5834096866365,572.8484273543763L711.4319249261043,578.7175715786225L711.3072590443408,579.9512685197997L711.248487985793,581.185870124762L711.2364404425971,581.2798037193916L711.2424118335748,581.3131903373878L711.1644694671595,600.0052366342534L711.113136457021,601.5909963610466L711.1417362769535,611.4919517054659L711.1386982008444,611.57053914463L711.1421553219352,613.5186469522705L711.1404791420118,614.9049750287941L711.1669837370428,622.8995953540098L711.2385356675022,624.6615953974106L711.2215643457821,630.9051492294202L711.2215643457821,630.9413998801756L711.2348690239196,641.0746410705742L711.2348690239196,641.1410103001053L711.2166405672597,642.2646107470873L711.2166405672597,642.3519073106318L711.2762497157673,648.9323548500879L711.2481737020589,657.0194535689052L711.1951645119971,660.3396674080477L711.227850020492,662.0241945842581L711.1272792251202,666.0091244296891L711.2325642765245,667.7146243437073L711.2402118474238,668.0484662083518Z" class="state" fill="coral" stroke="#111" stroke-width="0.5"></path></g></svg>