<svg width="800" height="326.4" xmlns="http://www.w3.org/2000/svg"><g transform="translate(0, 0)" id="single_state_map"><path d="M568.0206109675019,274.3758145277525L571.205186439427,274.33490301903566L574.941769967938,278.95208898513283L574.9739189620814,280.0067973924215L573.4471927119848,280.5130484979618L573.2756378174909,282.5198234407735L573.5802811244066,284.23620174896587L574.8933358937993,286.88423646270985L575.5566721265986,287.2565424964896L576.3011529821651,287.19157710931904L576.381314884582,288.89002993672966L575.1767805189902,289.81260195993946L575.0540808644982,291.4380970235725L576.9074914349603,293.67688011411246L577.2253312722205,296.92581251494084L576.4335394514819,297.79217669619266L574.7831308265486,298.0689445618891L572.9052926360873,297.0436970672945L569.7285789269208,293.61158994704147L571.0128540290698,291.4694986642362L572.14621136397,291.09410136963834L572.4919885367508,290.7144109778965L571.9580906122337,289.66556584288173L570.0785677583226,288.3708983129445L569.4904798262141,288.03556647798723L566.0774920684144,289.5419043289212L565.9882049056505,289.8814799587062L565.2967909487106,290.2736850440715L564.6403337583251,288.3708983129445L565.3280976111273,287.2890250685841L565.5572118401051,285.5312802626868L565.0915427852506,283.6886777211257L565.6102787387299,276.3145866479226ZM578.9098543319833,318.9649069283605L575.115571080365,318.8954700300292L575.0057871789777,318.89404567953807L573.9179157571853,318.9139865722982L573.8253996561452,318.9353517808004L572.2418160146644,318.8728584476694L572.2012437032845,318.8739267122819L571.5219031677225,318.9476367598845L571.0897869932141,313.59777191920057L571.2289121163267,308.0366990370012L571.5664063604872,306.1316898814657L572.2044726415588,304.95272601344004L575.1303118855376,303.709307272622L576.2111638762963,303.5955827321486L577.4095211425774,304.12266445927344L579.1989145020016,306.13810572012426L581.4945492276638,306.9691083974494L582.2422590215047,307.8866606891015L582.2110927477097,309.5540921669035L580.2651660762076,309.9676207207358L578.794033719907,315.18896304836653L579.6154475396143,317.74561261050803ZM624.4230028307175,319.44436755234256L625.0763714714467,318.4676237763397L625.351813945259,317.5928367039787L624.1464372479404,316.6346524654964L622.1369145312638,316.4510562781734L618.324661536195,314.84541467038525L617.0702892102527,315.4165655552333L616.9892849761109,315.7916201961525L616.2466291726159,316.51356118619424L614.8364254777007,317.17776867303746L613.1170860400052,316.22560874270584L611.8750679126842,315.9068413749801L608.4040996545336,315.56295568394853L601.9341496810212,321.62335073040504L601.5813530772066,322.55660644824275L597.6065300593709,325.22677768594076L594.1943846332924,326.39999999999964L593.1198501304661,325.48694920825983L592.329462195934,324.0158977136971L592.9262542225224,323.0056775527146L593.3746554770332,318.7231224944089L592.2396134786868,315.2210199792371L594.5122244705544,310.14774474865044L595.5610678557914,308.5495249370615L595.5467482164822,305.64906720240106L595.8568666796054,304.55579313456474L598.0585814180195,303.7709819225356L599.0379324360129,304.14191492777263L599.115286566017,304.57023050959015L599.4042063474135,304.5566843310171L602.0079940955093,302.99129308393094L604.3190715694491,300.1780366842095L603.3815563604239,298.7726075496612L599.9176075333089,297.7993099623336L597.8568429700754,298.68184321941317L597.6984846059277,298.96358505066746L597.8656874531789,299.9635411137351L596.093702282722,300.1890912232193L595.7166184475263,299.9362608757101L594.8285200329883,297.31085055123094L597.1737119417558,292.68090193329135L600.1507930322896,290.5143910551278L600.8584920692301,290.3998376739992L602.2467951393173,286.8869136773519L599.9741841474497,284.8947353670392L599.1238502718807,284.9277593531124L597.7731713521389,285.6189232392535L596.8662608624272,286.6284706868764L596.4961964582653,286.7186050469418L592.0432097983285,285.5103958004029L586.8861742055906,288.5340103056842L586.9459797580093,291.07732956517157L586.6903320797155,291.0737610933511L585.7338644068968,290.51795968011356L585.1358088827219,289.61934905076214L583.7236397471152,286.2259819236833L584.8949020096024,281.80831883074916L585.4198150623943,280.6678663330031L585.4554737720518,280.2182288201666L584.796770363735,279.24550865979563L584.8537681437374,278.9144064903303L586.1440799565789,277.3118172145096L593.7674628377481,274.32025345186685L594.0280241177643,274.4102944329834L594.2546113515727,275.0459231507775L595.2165541805989,275.3065612475684L597.1324376872726,274.8481634130749L599.6211067663935,273.1296529729798L598.9164962791074,270.27866513150366L596.2600627982501,267.24025876636824L595.6514781275218,267.04684909056687L594.4185852605478,267.0591830652538L593.7056918446397,267.59936392184954L593.5873442373904,267.9430874360942L594.103974361562,269.4612249320762L593.4030139784154,269.9968381449635L592.6982631025094,269.8981883204269L592.0874322138498,269.2598057779378L590.9067639137756,266.66538386117645L590.9317530882599,265.7005879371827L590.5286973582333,264.6447184061017L589.6647457864547,263.71946586700415L589.3627698633318,263.55318161249124L590.7401226210059,261.890043140078L591.2077571165537,260.3581436842014L590.8737725879109,259.3367173387678L590.8329194992875,258.4370229442102L596.9610231813986,249.0886734852147L596.8197922289746,247.9260109893048L595.9513482213333,247.58515836955667L593.5832729673912,248.22729289663403L591.6755320007196,249.11856658869146L590.53978805927,250.22599485165483L590.272488125458,252.184839106636L587.5517566563212,255.42411299993273L586.677275937991,262.0738732365962L584.8634549585659,263.03589880894924L584.3845893733633,263.563552090608L584.4359716085382,265.54880973863055L585.2426446230711,266.2803321552028L585.8457541375938,266.2190159974598L586.379652062109,266.61997910024456L585.5770503175754,268.05211899684946L581.955304680796,269.0512344734934L583.091469788109,267.6597798418743L583.3559619495045,266.50593022142675L583.1849686094956,265.74563836864127L580.2619371379315,263.3566773674329L580.0455982734347,261.3340664373227L579.4040222768417,260.1807278201186L577.0188196111758,256.3522825971959L575.7671146690263,255.8356073281593L575.6164776790174,255.4956781683286L576.8402452856462,254.93119718083653L580.6731354079566,254.41482317564078L582.3655202304781,253.51711369110035L583.0749039308685,252.77968216947284L583.3968150381279,251.29663967641682L583.3962534836446,249.71104441962325L581.7216980159537,245.33949608703278L577.7338188563917,243.79471717830074L577.0786251635909,244.557728826715L576.3879131497542,246.28271089443206L576.3486043359608,246.91022941744995L576.6198351511503,247.6023444304792L575.7122227183336,251.3222324111457L573.2884131819737,252.97187292401486L572.2114920725944,253.16406083106176L571.6526049735949,253.8603155227338L571.0937178745917,255.40836860991385L571.0038691573463,256.3911039731265L573.7678403216596,259.27840901517266L574.1953236716872,260.6827440551924L572.5881547419303,265.1844633157907L571.8418488342959,266.17825757506216L571.861924407056,267.5530686924576L573.0430138729917,269.5416487445773L573.555572727164,272.02060275793883L569.9102418021048,270.163039960531L568.2968957730372,268.12987045274167L567.539499164368,265.67627494101635L564.0546324327679,265.4141922554436L562.9494932106318,263.82692369913275L563.657473024814,261.21120829040956L562.4294937595641,259.4597720823713L558.6069923951854,260.4543621610628L557.0133007730146,259.86809799831553L555.5254621708518,258.73770309782867L554.728054805284,258.8364377149046L553.6890386234954,259.76668842420895L552.7610698406788,261.2464384747045L553.3762527765793,264.00107144277627L555.1358837484149,266.2604893486505L557.5157516464933,266.12373404693426L560.2777573701187,267.3265950583045L560.399474304264,268.14899545222033L559.6166673552489,269.1262990816913L558.3902323648272,269.4077875014955L556.850590361626,268.8876993617423L553.7178182907392,266.5958465839958L551.5707147257745,262.94917637776416L551.3058013985174,261.2137119614854L548.3695733966088,256.64961201731785L546.2735712895792,255.33787644763652L543.8138222663201,255.27972907122876L542.3290722138117,254.4196542127147L541.8073880992961,253.83759076034858L540.6262986333586,250.05631584216098L540.9654775409672,248.81515733810102L541.6568914979089,249.6816896600094L544.5782383060232,248.53769723569894L544.5559165153318,248.13545904640796L543.0039203135093,245.63242284084936L542.0040725568961,245.18515182105602L539.727671072269,245.22615529143695L538.4265493356361,240.45616948419047L538.6680177632352,238.6603658853537L538.3213982587331,236.8026786423361L535.7287012116703,232.097698046392L533.0114794580531,228.49545309720088L531.5070749986462,226.04151586922853L530.8330692306718,222.69013330134294L532.111026844892,221.27557364347558L533.4030233211797,221.62034871395463L537.410697276262,220.59658022989697L538.2406748018293,220.55155192818165L538.4981475321911,220.90890369271983L540.9960822602789,220.6780254447258L541.5040082899668,220.17517377021068L543.3360797900823,217.0239668157983L543.7437683445914,214.6644092517372L543.1135638262749,214.29521828608176L542.4482621527841,214.22880945681845L539.5797014660529,215.6979801182506L539.0112679408448,215.47167483602516L538.5983850073699,214.81445176070338L539.1018186011952,213.78763077758413L539.3191401860367,212.53867951244501L538.795911796693,211.02678060822564L537.3354489755657,208.88536872552777L534.769425766437,208.41653397871596L535.2115095330173,207.7837326800909L539.6584594822652,204.89281499449862L540.3411693447233,203.74988237558955L538.8030716163485,201.6360073447986L538.0066469711255,198.64164103177154L539.8927680902107,200.5326737364676L540.9698295882081,200.63185365448953L543.4469868004344,198.62421004015778L544.8312186005223,198.20801564986687L545.5981616353984,200.82931284939878L548.2318521597008,202.1358092058972L549.5461704266818,201.41664174594098L549.6117319125478,201.00880224995035L551.2537172202374,199.5568248234731L553.4905291138257,198.17333217718897L554.1788545211111,198.0953389494225L555.5712288611994,198.77336106173334L557.3948770440729,196.72678648204783L556.2081720333099,192.9082685618041L553.4638552758952,190.1837614720871L550.4374977794978,190.25137319135865L549.9295717498098,190.62646792853047L548.1783640952162,188.6271551747568L544.5399122125727,183.05934390854054L544.3832385118731,181.81586725944544L544.7764670384513,180.95898411660892L544.5455277574001,178.99452324010417L542.2420312689792,178.8069875523588L540.1103704522939,180.9829171593101L539.9251978615921,182.99259398349932L539.4452091674248,183.08291320632452L536.1483227989393,182.1309311009445L536.0539816458295,181.90025690363473L536.5051906727549,181.02304539409215L536.021692263068,180.4412637093301L534.1468022336412,179.84505863029608L533.6708848094731,180.0469760333517L531.518306088301,182.98359801023707L531.1619997689686,184.80767275723156L532.8680022876979,187.25669666173508L532.7903673804503,189.09257429081117L530.2741821316722,190.54177587270533L529.1992264629826,187.8462635002561L530.2458236302919,179.91164493363158L530.1392686671807,176.03052734913763L531.077485819309,172.247816246806L532.6008427425095,171.09963940371927L534.5223417940088,167.9371203911187L534.6850522053992,164.9646257424256L535.8127939954702,162.65028719429574L536.2464544448067,162.26752701335954L537.5583861052364,162.44178883190853L539.108838032229,161.7079629781274L539.0049504529143,160.97355445974426L539.9281460226266,158.03964598951825L540.9605639392412,158.07551953874918L540.737767198194,158.80739014064784L542.9059290562618,162.7858003027186L543.534589299752,163.36351699151328L547.2630302882608,165.1402922924908L550.2378651608633,164.76751600192802L550.8988147871114,163.44370330949096L551.2273241595467,162.02496215475003L550.2986534336251,159.49235434143156L549.6117319125478,156.08447589095977L549.9649496822258,152.42951825685668L549.2656739625254,150.6545881066295L549.4657277470214,144.22158441234478L548.033202261413,142.60019427492716L545.4786909191826,141.67029282945532L542.9349895007472,142.36537887733266L542.8351731914299,144.24540562169113L543.234578817317,145.0502477062637L543.0027972045445,145.5704808121627L542.0589645075888,145.9454397445379L541.2406392375378,145.73847387640126L540.8957043964801,144.9084114959942L540.8592033550976,143.8759914265711L539.7164399826124,141.77696779651342L536.5116485493072,144.17087396299848L536.0174806044488,145.99722579855825L536.7986028900141,147.5166111884182L536.8846611145036,148.87923161547042L534.7548253498862,149.63038788211907L533.4180449035939,147.30173221556743L532.5546548862985,147.3266302157408L530.869008717571,148.2642392336893L530.5324971937571,150.70004208367027L530.9728962968893,151.86393363383468L531.5813405789959,155.77724640019915L531.1617189917288,156.5132145985781L530.2396465309794,157.3241370009182L528.8634168822718,157.0250499818094L527.3540988211425,157.99980640265676L526.363797490736,160.85983001911427L525.3963795055042,160.25622652996935L525.2397058048027,158.2757966552772L526.8575442697329,154.0622873731345L526.7199634214485,147.99362601376652L527.2718310894124,142.27368960481635L528.3807608043116,139.01378129652858L532.7537259504497,131.3624875003079L532.8074947921777,130.1389177448291L532.6304647414781,129.67171551554475L533.0913605832302,127.13269848790787L534.2857869681302,124.91995250597301L535.6783016968402,124.12577165007406L535.7934203658133,125.58179240629397L535.5380534647629,126.62400325039107L536.7852659710497,130.57737854651623L539.0994319946421,134.45295642276233L541.7197855999802,134.2412894553927L545.8663039009334,135.34004129800542L547.3190453479201,136.6116871542181L549.6451444042741,136.15284741546657L555.0321365577183,131.37350686400987L555.0843611246164,129.4737004455901L554.5287029638912,127.98921237585637L553.0255620020725,125.56950295548722L552.1936190358138,122.93043093160304L553.4463066983062,120.6632601042138L554.3200854735333,119.94330710887516L555.7380105425909,119.45529980548054L556.9217673923195,116.93540978131205L557.6734080675396,114.51125263083031L552.2355952334037,113.87452526032303L549.5015268453008,115.81318881226616L548.5668194086884,119.64985404584331L548.205318710392,123.85338190765378L548.7828774959435,126.80652145612476L549.8829627277373,128.66733549251967L548.6969596600757,129.4821920307213L545.5170170126348,127.94494249565378L543.9836924973642,126.06414401084294L544.2338650194506,124.09920170531223L544.7729573229317,123.06473836442365L545.6079888388485,120.26333140938368L545.5194036191879,116.31960211525802L545.2794794664114,114.77154196903393L542.5403570879644,107.12868944758975L541.4276368803075,105.35922102136192L538.9521643315293,104.93165916175985L539.4982760660478,101.36035984812588L540.6262986333586,98.63803353930507L542.1384244669025,96.6326325254895L542.8121494576353,95.25246793642782L545.4768658671146,89.06860155204777L547.2616264020562,83.8737656664598L548.3966684004026,82.45667317796233L549.550943639786,82.44597411798986L551.9876689292487,79.63561753165595L552.574212586529,78.46928936283985L553.1065662362143,77.2168637948289L553.2365660989835,75.81154751265694L552.911706830686,75.14911173795736L551.9385329120032,74.72017022160526L551.8510708013109,74.1734483737473L552.000725070975,73.47318178560363L554.1288761721426,71.15743593153093L555.637913456032,70.46498941957452L557.624272050296,70.73906844147314L559.3509116962668,69.6332776336003L558.8250159231284,68.92114235706595L559.1087413255609,67.71279895726275L561.7191273388289,65.92349137428482L562.5374526088799,63.86570254051003L571.0563745014879,64.15862915276466L573.4321711295688,64.7451884504244L574.8266512989685,65.74717962461182L577.7161298901847,64.72938984036136L577.7011083077687,61.54693053518804L573.0608432278223,61.33695420652475L572.4481872870947,60.99182984683557L572.3035870077747,59.87338070806709L573.1403031871341,58.464143229134606L575.7334214000584,57.28841732037472L577.0883119784212,56.18690426552621L578.4197576571241,53.31783266090315L580.4990535182915,52.41392321292369L581.3186422859271,50.71607852985653L581.3391390245506,50.13777773451329L579.4573699527082,48.16724801989676L578.2962156709091,48.43344563274513L577.7013890850121,49.70217126087573L576.7272324459827,49.88452420885642L576.3257209907861,49.1729146788266L577.6434085846631,46.16767768087175L578.5357186578203,44.89168628991138L578.8775649492218,42.69350023696643L579.9777905696355,38.75363504406141L581.4155104342099,35.19205394208984L582.6933276598083,33.611678981898876L582.6559842867027,31.51986290187324L582.218533344605,30.15480711357941L579.0884286575128,29.160373875828554L578.1006543222775,29.635657541104592L577.1639814449754,31.481263911205133L569.0958474134313,32.16255517980426L564.5667701210787,33.92806104360716L561.5931987460626,41.36094250172846L562.0598505212638,43.06495410818934L563.3604107034153,44.50355277995459L564.2518784448512,44.990263757604225L566.3617790253284,44.67306709894001L567.9497147140501,45.18468828301229L569.5001666410462,49.337821112480015L569.4920241010441,50.153412746652066L566.6579990150021,52.15489845734737L566.3641656318814,51.86242132915049L563.7019762175732,52.34630462988116L561.6539870188244,53.80856685172057L560.9423571005045,54.969531893279054L557.5050821113236,57.86166773451623L555.76412282604,57.67997468955309L553.9811873431681,60.24160606140413L552.7738452051599,62.89371157416372L546.1893381171612,67.9237590272187L545.2346954964087,67.54250332975607L544.3781845215253,65.83578974956072L543.8868243490833,65.7631585453546L542.942008931781,65.85176855866484L540.6595707364668,67.29849366990402L540.8123135557853,67.90560425382228L541.7809950386054,68.66808236837187L542.4055840120927,70.30907030124035L541.0509742109734,70.75558559738602L539.2959760636204,72.82459775981988L538.6361495463389,74.87512792357575L538.5238386497804,76.5987687556426L536.2355041323935,76.54434156991829L537.1901467531425,73.69565988700288L536.1091543737639,71.68123799593104L536.1091543737639,69.68464857925755L536.6426311324194,68.52285197475612L536.5443590979303,67.90560425382228L534.2980007781334,66.85258293928018L532.6133373297507,66.59839228335932L530.1194738716622,67.14144627973747L531.1750559106968,70.82328756125116L530.3824217582314,72.50283406878953L532.0658217090258,74.42149933860401L530.1210181464903,76.45326622404991L528.146732973606,74.77587537436011L526.8979761924929,74.83303187314232L524.6135725564873,77.13341274310915L524.0184651933469,81.34754980531943L522.5815876604975,82.55078824958764L521.5681222076746,84.54136728381218L521.7664913287208,86.2229079855133L521.5734569752622,87.21994298419031L522.0559726646006,87.96748666766416L522.021858229773,89.84684648501297L519.4165262068473,91.52116221616325L518.3495726895417,94.07597638558673L515.9347480249053,95.94193492119757L512.986446601617,94.03974147303234L510.6559954980203,94.18468050418414L509.4205756358733,94.71007065419144L508.0867433506173,94.23903221526052L507.7217329367995,93.4114116821138L504.9701159711094,90.85066500060475L503.04665147892047,92.71709654302686L502.8220296858017,93.11571633830408L503.2151178237582,93.73174055034633L502.8922239961503,94.4202029089729L503.0606903409898,96.8114143908042L504.23995475485754,99.11162576491643L506.6828571436308,100.65090521086404L507.72987547679986,102.12155818957854L510.10286433246984,101.5564578719468L511.2315888428857,102.15360574215538L511.8633376360249,103.31233314197925L514.4887452317107,105.33985252593538L517.8722513791654,107.47564007430901L517.3387746205117,108.38052684763625L517.2685803101631,110.82340033703622L518.8298421609506,116.56990755349943L518.6584276550766,117.8777821220774L516.433689182868,121.75106785241042L521.1854228276516,125.28973402379506L522.2104001473708,127.20534176771616L522.7298380439534,129.2471356436954L518.7847774137081,133.27555960304016L515.0223623789843,134.39534434441248L514.8117794479385,135.33426244259135L514.2361861030731,135.89407693416524L511.4821825308318,136.2308567497439L511.38615671427397,137.19419669303352L511.89169613740887,139.14412858399737L513.042882827136,140.57027946319067L513.7869425168392,140.60638248571559L514.8399975606972,141.92389260672553L513.2114895605955,145.01000680372908L513.744966319251,146.76027894881463L513.5485626388927,148.05929534722418L512.1585749053556,147.96909013244112L512.1445360432863,147.26546765044714L511.2627551166788,146.73213213501003L508.747131422384,147.53609625702848L508.7190536982416,149.41211694626145L508.8734811810118,150.1336595847315L509.14021956033685,150.33207668552768L509.3508024913863,151.6126949562804L509.1682972844774,152.08162174210338L505.1304397759486,155.99090149134008L505.4811305504518,158.15033088886958L506.55636699638126,158.64948267773434L508.340144810978,157.79736170249635L509.2808889582775,159.65403660653647L509.2808889582775,160.39302658523775L508.01739137199183,164.2132862841072L506.44503882016943,167.14992669803632L504.3952245693472,168.26675466976485L504.0021364313925,168.84314399874438L504.0723307417429,169.70767947861714L502.8930663278734,171.31051834743812L499.452843177658,173.2471651781043L499.78261604767795,177.32910339725913L500.4553583180659,179.0096411610266L501.6160914339998,180.3854775064401L503.66674801654517,180.25410904027922L504.0441126289825,180.50118861890587L504.11781665484887,180.97481951827012L503.29205078790073,185.42973122148942L503.31156480617756,189.26179708468953L504.4035074979711,195.08828609745433L505.67627073322365,198.0708985781339L506.2765724753299,200.51758107334535L505.565925277353,205.10134481330715L505.73916483529683,211.29032548308624L505.40223214561956,214.27260342582304L505.6549316628789,216.09620317720783L507.01431467710063,220.4702853131521L508.8848526592883,224.37355527534055L514.0651927630624,230.04241708183872L514.0366938730622,230.64150443489052L514.7477622369006,231.62181823782703L516.8067017480626,233.23364470041724L519.7389988685918,236.5930472782975L521.5182842473278,239.93939765867253L522.8283908556841,241.10832938372096L523.5345456177984,241.41209823164172L523.8320291050586,242.44514558178798L523.7235087012596,246.16006820462553L521.20521762317,249.7722596191643L520.5943867345104,252.49228546755694L521.4924527411185,255.08488873204442L524.4969096126861,256.56481479042486L525.4052239886078,257.2286871288243L525.4813146210254,257.7780421980051L522.7170626794723,261.0180664953341L522.05990354598,263.02731599621166L521.994201671494,264.4063939570624L523.9703118964462,271.8299445134826L527.2507727963075,276.4219404126534L528.4245620539677,278.9069056963499L531.7673555014208,283.00508834605444L533.1107342128853,286.0121491315822L530.5277239806546,289.37934029356984L530.6867842879055,290.9231706919609L531.6144722934823,292.9729421092625L531.8230897838403,297.90844844785715L533.203390702547,302.96223656405436L532.8359936821798,304.17649440174137L532.147949052136,302.64314537244263L531.3311680569095,301.7815601858283L530.1249490278697,301.11139904690936L528.5320997374238,301.20321618830076L527.3406215135565,300.06927378491764L525.8591003993224,296.4986727235837L522.9748161870739,292.3369390774915L521.1451312935096,291.609377780831L520.0512231610264,291.6254352364267L519.5753057368584,292.05808700942L518.9205332099209,291.77619593807685L517.6274136246666,289.3952220505171L517.7459016205357,288.1849410117393L516.3055143721704,285.90612389108173L513.5190810285476,285.8077731068024L512.0998924619034,289.4164571784395L512.1083157791454,290.08204490749813L512.5763714405566,290.82111080509367L512.7271488191855,291.8134844106826L511.61302472532225,292.31214057477973L511.19803596253587,292.0134843977912L510.5222051424953,290.02155455854427L507.88205674163873,286.2174144001865L506.6209457619043,285.58839998848L505.77875442633376,285.49807930694715L504.71264324074764,285.8243732005294L503.66674801654517,286.7717929509636L502.19098283576204,283.3966078846579L501.4953572202012,281.18587663490234L501.2148607560448,279.34658779472556L500.4253151532357,277.2862756336672L498.55253095311673,275.27083323612715L495.13547192531587,272.462304463289L489.25220599770364,270.4171637893596L487.6538815510503,270.520277315738L483.5077844159623,268.8544559070506L477.4831471473062,269.06356654603314L474.1588849977852,268.7068253444304L472.44179177802107,271.0490563613712L468.7440958974439,269.9144512959374L466.10099933555284,268.4045885381938L464.1081828647384,266.04311031226734L464.0688740509413,265.6880739007229L464.9081172254773,265.6594703435476L465.00989897548425,265.41401347964165L465.41379703723396,260.569179559071L462.71524697016685,257.15534262160145L462.24915674944896,256.91866959228537L459.25003464546535,257.5329729624236L459.254527081328,258.5972911623867L460.0739754603437,259.0594821741761L460.85734396384214,261.77291268432873L460.4381435424366,263.9907013139764L459.8274530423987,265.26330460039753L459.1346351992506,264.9649208909341L456.7174239280648,262.67899206017137L453.59475983786615,261.23785447921546L450.51028145249984,259.19434440667646L448.765812451702,258.6330650480877L448.59102861893007,255.09616056694085L448.3871843416746,254.4532924950645L447.5553817640375,253.35177234165803L445.7895736928913,251.8283496852282L444.13354952313057,251.16957010574242L441.10620930638834,248.65566325646705L439.9704653649387,245.84996501485148L439.310919624897,240.12353916949905L437.8642148885974,237.55839840910812L437.4356084296069,235.29038997899806L435.36726288085447,231.0571923705429L431.96045222236353,231.2281959489501L431.4620726188823,231.51534781669034L427.06776840239945,234.79617014213L425.53697088230365,236.57996760204878L424.8799521374349,237.87156664591294L422.7042092938482,238.1060795474432L422.14054898174436,237.5734478569084L420.3521383426669,237.31617155687945L419.73274374814537,239.07418410682476L418.47050965944254,240.6924267537579L411.45781727831127,245.37781328819528L408.5613192560595,246.41072355909364L407.23927961494155,245.82131769453372L402.5442629729205,242.30760172897226L400.56955663417466,236.66471650259518L401.1698583762809,234.22415610980624L401.1698583762809,232.8049431952768L399.16819742236294,224.5670648036139L400.6592649628019,219.08275390147355L404.2918205233764,211.98919601667058L406.6232543473161,211.3883455688947L411.8667693304051,203.2206826536658L413.8456873277737,202.1120951054645L416.79665613485486,202.34025168678272L419.54364027606243,200.76570939896283L420.1689311926548,199.7929327728216L419.38696657536275,197.05442560703978L419.10604894534663,195.94009505291888L419.1481655315565,195.4008682413796L418.58661104876046,194.3942511233554L419.0639323591349,190.0794661023292L420.53801287647,187.92144122248737L422.79841005833623,185.94311367190858L423.247653644572,185.67329363464887L423.76709154115633,185.6193289481398L424.7778896101863,184.75586317653597L426.5048100333988,183.6584584546854L427.44429068311365,183.29665417918295L427.5770983182956,183.46667287110904L428.4950995090421,183.64964285735732L430.1970307577685,183.58649421818973L431.27816352576883,182.79486104033276L431.72740711200277,182.03916573024162L431.8537568706324,180.95952396017128L431.90991231891167,178.5481766109433L431.7835625602838,177.90022650482751L431.8958734568423,172.17542795300506L432.0362620775413,169.1859032585853L432.1204952499611,168.9697660627553L432.24684500858893,168.89771952226965L437.4694420871947,163.4930762088161L437.66598615617295,163.42099891975158L438.6908230872705,162.28572820335194L440.5439528804927,160.55577890065706L444.16611968313555,156.82439275456818L444.72767416592797,156.31958080978347L448.86927886515514,152.15412350563474L448.995628623783,152.0278763889446L450.18893189972187,150.8374852712468L450.3854759687001,150.63907599819322L446.77734802812483,146.94106662411468L437.3148742158046,137.5376229299727L436.5006202157547,136.68897140928402L435.72848280191283,135.9124962203632L435.4757832846535,135.64162169084193L432.5695984475751,132.78806137695847L431.90977193029175,132.17392081105572L430.04260327500015,133.9801323785332L424.8200061963962,139.14448965496922L423.5284308859682,140.51648577067135L422.9949541273145,140.96776812813187L420.83296936855913,143.15156937684606L419.7518366005588,142.12297844814202L419.1481655315565,140.78725709501123L418.33391153150296,139.3611304020469L417.08445280728665,137.75429089087083L416.8629195638259,137.61129044846166L416.45509062069686,137.46142715810765L414.4591856002244,137.06816309023088L414.2345638071074,137.05010659843447L414.0801363243372,137.17650150568988L413.53262070361416,137.15844516683956L411.9741666252394,136.9237104421236L411.23010693553806,137.15844516683956L409.93853162511186,137.28483900351057L409.2365885216186,137.08621955653234L409.08216103885024,136.90565374639482L408.2819459008697,136.6348002514069L407.97309093533477,136.81536988538664L406.56920472834645,136.4722854011079L406.082477380387,136.1040913399056L405.6015059658712,135.19123493880397L405.3773053386176,134.9286525035095L405.15142004791414,134.91799739401995L405.05778083790756,134.99294416222074L404.70189568443675,135.5693875139532L402.5960663739588,133.83582545387162L402.8066493050046,132.67986640070376L402.6802995463786,132.4269864241387L402.14682278772307,132.06572063669046L401.76777351183773,130.85540584734918L402.3152891325626,129.2294294532603L403.00319337398287,128.61511785844414L403.3260872015908,127.65745558193066L403.1295431326125,126.79007685339002L402.7926104429371,126.42865166767842L401.8239289601188,125.86842241974955L400.32163033002325,125.52504396114637L399.099968552704,125.1306895217831L396.51695832047153,122.8863242794414L395.4078882169524,122.3440169227888L394.0461185961776,121.89207652948426L393.4564863892447,121.85592060691306L392.1507318281274,121.07854350379148L390.8170399314895,120.53615935015114L390.77436179079814,120.26839387622204L390.5636384711306,120.12700565441901L389.89314241867396,119.9064224365411L388.4858868847914,120.06155431045045L387.16749734781297,120.08487817040805L386.0686756136038,120.25067523348935L385.00874152733195,120.21270663053383L384.3027271538376,119.93951016223582L383.52048175930577,120.08795185419876L381.6218660529794,119.58223051044024L380.865311776035,119.63430428065203L379.343920293526,119.28370629024539L378.25590848311185,119.20360441797675L376.2595822967796,118.52859508388065L374.093807045263,118.19279492995702L373.3392182090083,117.9658490575357L372.88323596898044,117.70761410407886L372.71940244862526,117.50923258287366L371.7611097237368,115.67554943690084L371.34401513164084,114.56551769827911L370.6987890309101,113.15328458760087L370.09947000915054,112.18957682139535L369.4647730549714,111.53011777020947L368.17951523247575,110.85434039938627L367.5118269524337,110.68932586592382L365.3205009719495,109.849564213956L364.673449819149,109.42721973782409L364.02345050531767,108.17928558398489L363.71894758702,106.46100462189679L363.64117229115436,104.84621747658548L363.979508867038,104.44452526514215L364.4919273325886,102.1630208270235L365.16523115745804,100.38235961962982L365.9787832144066,99.00731021379943L366.7465685810057,98.36147650957173L369.4407666008301,97.70673503687794L370.4761326784828,97.07224665075864L370.6493722364248,96.83188267111382L370.9791451064448,96.02779866185756L370.8505491298856,94.74340502159066L371.1761103412882,93.58697754127752L371.66704934786867,92.96496704776564L373.10322493761305,91.72520381452523L373.3755788617691,91.11977420983112L373.41250106901316,90.57665704711235L373.35073007590654,90.37368438711474L373.05731785864555,89.97153523865563L371.5126218651003,88.85690489169701L370.1657334381198,87.56000467701688L369.62425452808566,86.75170883027567L369.3225593822044,86.48649538621612L367.9477336197033,85.85942396061546L366.2881997344248,85.57207387238577L364.71486446225754,84.73772469284359L364.52505904707505,84.50945665195195L364.3144761160238,84.40157636580625L362.6333223831625,83.80776512280681L361.7741440244845,83.33886128339964L361.4025353454963,82.97801476309269L361.2579350661763,82.4842368163927L361.03499793650917,82.14422064906557L360.30385399991064,81.35589216717926L360.01465344127246,80.74180715425427L358.9280455170647,79.49323328391893L358.65934169704815,77.97878282168222L358.791587777745,76.63414630126681L358.59728992669807,76.27310928325278L358.1219340570133,75.87069512330527L357.6382952587064,75.82914667712976L356.45201141380494,76.03271462123485L355.0840646937195,76.62652653053738L354.45175434609337,76.74717236353717L353.5879431629346,76.63958899184763L352.6040997090786,76.31211628983965L351.19473834588644,76.48737419900772L348.3642229753641,75.5693297296657L347.7772581522222,75.48604928966142L346.2729940814388,75.02464035383309L344.148493084409,73.89526987321551L343.4169279819471,73.04835754880241L342.78447724569924,72.59157850712745L341.96179992840734,72.68703706715405L341.2011743814619,73.36792977541245L340.37849706417,73.63359868803582L339.7499772093033,73.60039037801107L338.31127462438417,73.06940855061112L337.16626503396765,73.23600059221826L336.722075438076,73.14816802359019L335.54983045524386,73.04999081743608L335.05355668107586,72.50228962247093L334.47866527931365,72.07924777145581L331.5613897412022,70.82982177994108L331.02426287840717,70.2068778025332L330.81367994735956,69.76651492149631L330.8180319946023,69.26423571588657L330.9091442094341,68.96525488008683L331.06637946461706,68.7577613062067L332.3197690702127,68.0069075573756L332.9454811526666,67.3222775560007L333.2341201568215,66.1010716889441L333.1962152292326,65.15830603754512L331.9144671222548,62.76457936435327L331.8400611532852,62.52774275124375L331.89832243087585,62.07912139483051L332.0639810033008,61.854986397700486L332.4141102233243,61.70186758571526L333.6705883785744,61.47699935872788L334.04697027066686,61.33132330553417L334.29503696344,61.05286304911078L334.3528770751691,60.70391628389734L334.2821212103372,60.15550005500245L333.77630100996066,58.51864804308843L332.72815956782506,56.8405189958612L331.99785796295146,55.16071380258472L331.940298628464,54.599517644107436L331.7169403329317,54.345808110782855L331.1499106939318,53.95469291451991L330.50426342734136,53.65916756689239L328.8854422420645,53.766582559205744L327.1423771274731,53.4957714407974L326.3723455429408,53.26712237720403L325.5154134021959,52.768006026218245L324.99780055768133,52.289955534856745L324.8985458028492,52.07782620900616L324.9523146445772,51.687186301908696L325.2339342176965,51.404332946383875L326.9607142522891,51.04294041634148L327.3128089130005,50.78934141056379L327.37907234196973,50.58155005188473L327.30466637300015,50.248858622939224L326.3233499143171,49.48363515505298L325.615229711515,48.65181804619897L325.453782797711,48.21506945168312L325.5697437984072,47.79921696268957L325.8887067446358,47.607923866154124L326.3153477629385,47.54973527848415L327.66560551681505,47.907772690649836L328.0963178051188,47.94523056496291L328.274470964785,47.84976731700499L328.4691899816935,47.57119235132268L328.4691899816935,47.408990525898844L328.36993522686134,47.25496960377404L326.80839259883214,46.49774857641842L325.9676051494662,45.873607267093576L325.8102295056633,45.65736931245283L325.60722756013274,45.06246853720586L325.6653484491035,44.509373051734656L325.8186528229053,44.19325566392945L325.9885230539512,43.95206988197515L326.9664701857382,43.365638210088946L327.91535687303804,42.98728076777388L329.32443745899036,42.60909391861787L329.6891670955647,42.413720236494555L329.97527910454664,42.22234569654211L330.19091602594017,41.914539506889014L330.21169354180165,41.66494175376738L330.1288642555937,41.42352582957301L329.7850525235026,41.048930883061075L329.4329578627894,40.81168774238449L328.9522672255189,40.736547690798034L327.9366959433846,40.815326474474205L327.53883459232384,40.99835334751515L327.2444396547198,41.26451990791975L326.79266907331294,42.063349817615745L326.51076872295016,42.32130779735871L325.96802631532955,42.53341880950211L325.0977572556203,42.574894646528264L324.2566890290145,42.420996777829714L322.437252504762,41.755357835373616L320.8750079336296,41.60181384477801L318.94368167868015,40.89519638001639L318.66669493003974,40.51858443407582L318.60029111244876,40.26477440485178L318.6706258114209,40.03588615328499L319.0227204721341,39.58210021586183L321.27708094330956,38.020835736736444L321.7537003105808,37.57134506672082L322.0478144709432,36.26427369160956L322.0187540264578,35.93120549167725L321.7948341764459,35.336028983473625L321.53778261194566,35.1028650406015L320.650386140509,34.70787805327927L320.16941472599865,34.79124499827867L319.87094851839174,34.982914076475026L319.6638753028619,35.332570689442036L319.647730611483,36.83501933678326L319.469577451815,37.284718176875685L318.2303670969104,37.84286118028831L316.9039754085479,38.03903340294619L316.4147210654155,37.91037534073348L316.07048816746465,37.43194511810634L316.01629815987326,36.999176736735535L316.0696458357379,36.145971784174435L316.2184577736807,35.50912449142379L316.32557429127155,34.3101482665943L316.3088680454093,34.0061541309733L316.18013168022844,33.660647724814226L315.312670392932,32.58711469421996L313.2200376128003,31.1908573458295L312.8678025634672,30.461989393309523L312.9094979838155,30.07887530955304L313.00496224589006,29.870561253710548L313.2622945876301,29.645855002288044L314.3410407490792,29.088442414086785L315.1451867684409,29.015235796913657L316.1263628385004,29.07860871406774L317.5143851313478,28.88557527431294L319.4339187421574,28.935472880197267L320.2543498415198,28.564514065431467L320.69137961775414,27.718388532407516L321.0342086295004,25.867496146051053L321.169122093992,24.754498695533584L321.1776857998557,24.069164049730716L320.8884852412157,22.23723233486089L320.64210321188875,21.90361176917031L320.0187777359879,21.322533371186182L319.3481412949095,21.116625855527673L317.8528620958514,21.14177226323045L317.2402061551238,21.00273751196528L315.712918350544,20.409043706880766L314.86511147014426,19.8340925984794L313.4042274831554,19.564011431734798L313.1384718241752,19.793088745053865L313.14661436417555,20.009769821764166L313.85178640594495,20.960461897208006L313.96774740664114,21.306315998498576L313.9841728752617,21.918917329512624L313.86765032008407,22.43146067170983L313.70564185179865,22.652104808186778L313.41082574832944,22.814442498050994L312.933504437955,22.922666464462964L309.01202909598214,21.92547684969577L308.9522235435652,21.902518514146323L308.0450322766119,21.55449418466469L307.66738688693295,21.04610631439209L307.281318180012,19.904254438539283L306.70235550825055,19.21756281866874L306.05235619441555,18.948926466219746L305.42790760954995,19.014536958186L305.05138532883757,19.38231389798875L305.12003536435986,19.775047007327885L305.9302180944105,20.146264232794238L306.3390297578826,20.967021915676924L306.20973183822025,23.439177155732978L305.8336307233694,24.78164169932279L305.398425999203,25.183497060730588L304.832379080548,25.20517429815027L304.3193990605123,24.786924559042745L304.0219155732557,23.766927298214796L303.9942590149767,22.93560226367117L304.1677793501585,22.226664478433122L304.21228254292146,21.71994359691689L304.00099766876883,21.28007660977528L303.22352548734125,20.868985728678126L302.598796125234,20.852949997349242L302.0188507331277,21.083826117981516L301.4675446196452,21.510944914823995L300.93168125443844,22.243427281066943L300.54996459476024,22.485210011665913L299.40874549710134,22.544242921240766L298.4790920508349,22.40321940134163L296.9498388055672,22.34965191487845L296.33156732001225,22.194960856048056L295.8751639141192,21.91144676071417L295.68451616721177,21.694616129281712L293.9222178115833,18.48472248671169L293.0456312639417,17.433958189922123L292.22407705561454,15.928651868473935L291.8214424914495,15.490952796239071L290.5843379658527,14.581963157543214L290.26453268790465,14.173206383614342L289.9862824416796,13.652122555465212L287.6896649956725,11.308437623833925L286.80465513078707,10.282425468964902L286.39331647214203,9.882283618392648L285.72857635313267,9.465349284803779L284.8396356068697,9.457141777570541L284.66513255134305,9.37378967904624L283.64268222679675,8.189473700239432L282.9942271877899,7.801851882347364L282.1382777673916,7.464200758243351L281.57728483907886,7.381017892548698L279.87731903104213,6.822985299359971L278.6465319933777,6.581266875515212L278.2934546123197,6.3389965101978305L277.1342657712121,5.954601661989727L275.63407297042795,5.9328913039471445L274.5162987724252,5.365124788731009L273.21980986027484,5.005878833567294L272.48080416091943,4.941107649699006L271.61966036155354,5.0974701925752015L270.44769615596124,5.981967606201579L270.26069851319335,6.190676584764333L269.66236221177496,7.475693084659724L269.04746005311426,8.243283786327993L268.7857756641333,8.464541148626267L268.2497719103085,8.585474074472586L265.3619779825385,8.561579425488162L264.76799372836285,8.878772638607188L264.5470220393836,9.153642644929278L264.56471100559065,9.592108995401759L265.84898610774144,11.026319963325477L265.8864698694688,11.301690216332645L265.6789754880738,11.706345915791644L265.31368429701797,12.086006552221079L263.8561696369252,12.945762502721664L262.6399830158134,14.280957559929448L261.6074247105789,15.132177710628639L260.46859221946943,16.88676057327757L260.3064433625641,17.62443280226671L260.30265286980284,18.48873217412529L260.0616056080653,18.926327217744074L259.81662746494476,19.00943393216403L259.21450067076876,18.859258241954194L257.541489477906,18.70835174253625L254.01591004630427,17.043157252021047L253.33067318867506,16.788874951824255L250.67718786885234,15.867765027251153L247.87348672488406,15.059801621046063L247.4083792245092,15.043393885537625L246.98075548586166,15.210387174138305L246.80639281895492,15.498244866922505L246.91463244551232,15.9525325552695L247.35938359588727,16.340086080939727L247.62527964348737,16.827883465583L247.65448047659447,17.169658508030807L247.5964999762473,17.386566930368645L247.33088470588336,17.653413854772225L246.969664784825,17.77681042095992L246.3881751178924,17.691508344501017L245.8649467285486,17.420834474336516L245.61968780818825,17.166559789257917L244.88868426021327,16.887671981452513L243.85851256152637,17.088180178779112L243.5801219266814,17.29652304659794L243.44534885080975,17.866121805832336L243.4433834101219,18.188731131957866L243.51385849771032,18.384662147030213L244.05309118981313,19.13536872124405L244.9956603891842,20.19783650302361L245.01657829366923,20.39774539549944L244.88391104710718,20.70206734536805L244.66883568019875,20.865159021916952L244.18463532741043,20.948435187816358L243.42513288942973,20.814682828861805L242.4167214269546,20.230638544009707L241.7071973379425,19.509156183287814L239.31609835020572,18.595170683162905L238.23665024565526,18.06114650915697L237.48514995905498,17.965092662989264L236.8747402362569,18.19438127826652L236.44697610898947,18.690308453288708L236.40120941864188,19.111311810929692L236.48839075209435,19.428239700302584L236.69588513348754,19.79928489145459L237.53021470629938,21.053941838426L238.2233133266891,21.858606025836707L239.31469446399933,22.746301006004614L240.7421659592601,23.605330598520595L241.47653883413477,24.218184690552334L241.75843918449573,24.739196573710615L241.7789359231192,25.314288566620235L241.48004854965257,25.726509753055325L240.99009226341332,26.043089400188364L239.99403499955952,26.338350143891148L238.50044046394578,25.879700320491793L238.30544066979746,25.771319552530258L237.89466356563207,25.3335975042246L237.1560790321364,24.85851619866571L235.06021731372857,24.050035355950058L234.66600606680913,24.037647234029464L233.93556407331198,24.225289542688188L233.46652569155958,24.450274458446074L233.09309196050162,24.737921396054844L232.97165580359797,25.12739109688664L232.93150465807776,26.00447366583103L233.48772437328626,27.11681452191806L234.07300453297648,27.74151841717685L235.76159886273854,29.082797142787967L237.39600318491102,29.878391302224372L237.85226620218236,30.394799598198006L238.31105621462484,31.22763647757074L238.4854188815316,31.73597865663487L238.3982375480773,32.018543973546L238.15859417254615,32.131604743000025L237.74472851872633,32.216263110782165L237.3376015187023,32.16473991365365L236.8517165024623,31.651317070202822L236.37242975139816,31.73597865663487L236.24172794552942,32.131604743000025L236.24172794552942,32.63991054892267L236.19287270552377,33.06408992617344L236.01443876861595,33.49298815585371L235.73660968825607,33.59292881819238L235.23064909925597,33.14328063580433L234.76062799716055,32.75296575779612L234.49922438541762,32.75296575779612L234.17239967643036,32.95067340168862L234.10711896780958,33.17659519980771L234.15063944022404,33.430911681619364L234.17239967643036,33.71325705499112L233.95465692572907,33.96756273553365L232.800100909104,34.108821231776346L232.51693706115475,34.3347223233377L232.4298961163222,34.64544349629796L232.54782255770806,35.31291300013072L232.56466919219383,35.916644932971394L232.29119215907303,36.853400703748775L231.48536147626328,37.59063527795297L231.13059943175722,37.715474989926406L230.70774890621396,37.69054354246964L229.79536326029483,37.195544041179346L229.3226747744011,37.09599584454372L229.090612384387,37.11692468954152L228.52274041366036,37.40865098201266L227.22063595668442,37.205371425749036L226.63339035630088,37.25159642847939L225.17026015138254,36.543097806952574L224.08000212303523,36.13450554043811L223.16775686573783,36.15925805359166L220.542770435919,36.82464568224259L220.0452331641627,36.87851579559447L219.67629186896556,36.75366781750199L219.06265320789316,36.72855247758707L217.82695256850457,37.107461216093725L217.5450522181418,37.024109547801345L216.87750432671965,36.57458343347935L215.9981100066634,35.78778325726944L214.85773324073125,35.546619105045465L214.35584392173405,35.151281950941666L214.14848992896077,34.855681081139664L214.0104879148148,34.385144497551664L213.90421372894707,34.247347682241525L213.6610606378963,34.18818742597523L213.3724216337414,34.267007029161505L212.97203328750948,34.561165456400886L212.21997144642592,34.40280131243799L212.0788808826237,34.261182040670974L211.00448676841734,33.80373002750639L209.80963921765397,33.45475927818006L209.03343053380922,33.513376843322476L209.00844135932675,33.754943877330334L208.713906033101,33.89219995366875L205.1842553314982,34.331627815119646L204.06030403418845,33.952453808043174L203.39275614276448,33.33606697806772L202.42632087787752,33.2983837600259L201.47252058884987,32.66539812395695L200.4853078080996,32.31548563693468L200.1990554104941,31.97393839968572L200.12858032290387,31.403337287607428L200.01233854496604,31.186669616121435L199.7593582504669,30.953429086705L198.00843137311495,30.478923350317018L197.78858279310225,30.308126055454522L197.13282754581996,29.3544957252534L196.92940443442603,29.258709894796993L195.49379039916312,29.00103147874961L195.3067927563934,28.342880550275368L194.51359704944662,26.92648313967038L194.35116741529782,25.40992216657105L194.23464486011653,24.876550669813696L193.59966712869937,24.93101825957092L193.35482937420056,25.05197554481765L192.92355553141533,25.952378667225275L192.48792964138738,26.165128916207323L191.0382767440533,25.956385982439315L190.55407639126497,25.689714595538135L189.53008179189055,24.71824721018038L189.4144015684342,24.37084704334029L189.39095666877802,23.97206285658376L189.10596776876082,23.350633967113026L188.87895936909263,23.076802026538644L188.57670266872628,22.925399380895215L188.0348025928306,22.19004132129703L188.04112008076117,22.056484330248168L188.2146404159448,21.70482000725042L189.4423389039548,20.852585548672323L190.51181941643517,20.61933623643563L191.7729303961696,20.62607865989048L192.07673137136044,20.87663913871893L192.09470111481096,21.247641734411445L192.3978001468986,21.40179775800698L193.522734164555,20.671635480707664L194.26553035667166,19.90006296295269L194.2944504125353,19.608114149523317L193.92438600837522,18.482717642522402L192.9850457472803,17.86666860828518L192.19620208757624,17.652684772502653L191.046840449917,18.25252295939481L190.13642024468754,18.995036097607226L189.23877540394096,18.89771359505994L188.12254548076635,18.481988608195934L187.98763201627662,18.31102889462636L187.98763201627662,17.991156682176552L188.80708039529418,15.715911235050953L189.01766332633997,15.442460418937117L189.4388291884352,15.278387082645168L189.83191732639352,14.421524969038728L189.8740339126016,14.038652860244838L189.7617230160431,13.60107049709859L188.44192959285647,14.11158177744528L187.58555900659667,15.734141078609355L187.2065097307077,15.752370895806962L186.2378282478894,15.460690657847408L185.53588514439616,15.64299159726852L184.72163114434443,17.429219071980697L185.53265620612,19.850129624900546L185.6163278240565,20.48703822556945L185.54767778853602,21.17511850919618L185.26928715369104,21.546294542834403L184.90511907159998,21.4852525972683L184.71447132468893,21.197349290881903L183.6538352953121,20.96939081039818L183.25976443701074,22.340177369796038L183.25120073114886,22.85452555678694L182.3128431904006,24.19304441242184L181.48609460310763,24.21800251480272L181.31468009723358,24.47377467581282L181.26540369137,26.567850949089916L182.14367490245968,26.758369876913093L182.84421411974472,27.6573764283512L183.06911669010333,28.318659067556837L182.61257289559035,29.416592234797463L181.96116969555078,29.61234902747583L181.25880542619598,29.25306469960742L180.71255330305758,28.749357448643423L179.5536452391898,28.39514780205991L177.7787119077002,29.738360166923485L177.80398185942613,30.809039934012617L177.6755262714887,31.208882775258644L175.2921486578889,34.73354348140583L175.28400611788857,34.937590881672804L174.47284066749125,36.53108592876288L174.18279777712632,36.778783107514755L173.86355405365975,36.786972865206735L172.89318790739162,36.536545874807416L172.16302669113793,37.206463356896165L171.58602946006795,38.44665426119718L169.70313727925895,41.24614495287278L168.6124580850519,43.09351303848507L168.38025530641607,43.21829843616342L167.13683329289233,43.0100189144614L166.20830295559063,43.159725851774965L165.48698622244228,43.60501620842297L164.9897297279258,44.10431212115236L164.94410342620176,44.35404363075486L165.09740780000539,44.853309983162035L165.42900572209328,45.14467599621821L165.47042036519997,45.35692154563185L165.03521564103357,46.110028051734844L164.3846547727171,46.80453402499097L163.43983935541655,47.25824279516564L163.13800382091358,51.143287867590516L162.95999104986913,51.50922210646877L161.73397722530717,51.83806307836494L161.45642892218893,51.59284195824512L161.08341635699253,50.95240888115768L159.86091224794836,49.97960850272193L157.3165088864098,48.83727708746301L155.4708196900865,47.73048270376876L154.48107991416146,46.652324272659826L154.0044605468902,46.64777795560258L152.9351204230279,47.00093100029335L152.6285116754225,46.93855710601656L152.13139556953138,46.509750992207046L151.8747651708909,45.86051306376521L151.88725975813577,45.49441547684273L151.70587766019344,44.866768985509225L150.39169978183418,43.59246534687463L149.794767366624,43.68377712781785L149.52536160350428,43.862760857975445L149.32418471004166,44.2667382009613L149.16849372968682,45.53951898067862L148.94471426829296,45.918163829693185L147.2538737205996,45.28144474448072L145.19816314771379,45.851783587354475L144.06677125350325,45.66482585516587L143.59324043588822,45.5109655715205L143.33843508931932,45.5935338523268L143.12195583620087,45.72556923452612L143.00739872171107,45.84105359767727L142.98184799274532,46.055469801192885L143.09654549585684,46.3853617670884L143.38939615863455,46.91328013421116L143.49131829725957,47.45772402823877L142.25744270994073,50.03778592118124L141.73575859542507,50.51228550778251L140.87419363019944,50.9534996263983L140.55144019121144,51.46959337514909L140.52266052396953,51.910228804525104L140.4724013977593,52.32285616596255L140.33201277706212,52.57297087592269L140.12128945739278,52.80036012227356L139.82268286116778,52.86852157097837L139.47508063631722,52.79254425270574L138.77159325799767,53.45814822997454L138.72147452040736,53.986135242445926L138.78647445179195,54.59642808866647L138.66363440867826,55.2103261268885L138.32993065728078,55.5058152861011L137.69776069827458,55.61957495750539L137.13578504961697,55.80129755282542L136.96015888512375,56.233241699759674L136.85472703097912,56.9152001004104L136.69664944407305,57.278968918796636L136.46837754681655,57.41524325953014L136.1873195281787,57.41524325953014L135.88885332057362,57.41524325953014L135.60779530193577,57.233362112093346L135.32687767191783,56.6424574869734L134.8175477560235,56.46056524539108L134.53663012600737,56.46056524539108L134.23802352978055,56.66517111994199L133.51403941283752,58.66508314891507L133.64095072594864,59.34709235389073L133.41253844007224,60.051590762052L132.95290609590484,60.275031020200004L132.37647041931814,60.14242061044661L132.04276666791884,60.2561386630141L131.7117303003106,60.94423827686296L130.28959357263557,61.2788286565883L129.74671077639323,61.011084400715845L129.43631153602837,61.04450733044632L129.10022117807785,61.3456730160251L128.39743574285967,62.84594552324597L126.85063392000484,65.12543871347225L125.9527083020148,65.5182067423566L124.70465346400488,65.42650748193955L123.77373652015376,66.32948933761236L121.47248624966414,66.6973456799351L121.23972191654502,67.16541201875225L121.24491629551267,70.22666291537098L121.04626639722301,70.47134231160271L119.07254277882203,71.4046383522109L117.29353817733136,72.79919088397219L117.05684296283471,75.23221294486484L116.14249187622408,77.1040233291169L115.79517042861698,77.2117841812651L114.447299281288,77.06211608411559L112.69847823324744,76.18638629974157L110.2259538455055,76.99589872680099L108.54634438746871,78.1541991340755L108.3701566684922,78.84368693405304L108.6472838057507,79.31257530441053L108.62257540850806,79.50339068439007L107.22584902117705,80.96470204478283L106.15987822421448,81.52962967583517L104.08058236304896,81.85062070275308L102.55469844467734,83.2313337185924L99.04105204583357,87.76265971916018L97.87596688265694,88.06464236746888L97.21487686778892,89.00607165521797L97.30556791675917,90.00560695287913L95.14119655145078,92.01658259042597L93.3365008323708,92.98689103394008L91.02415986084634,93.78754362344807L90.05814576181729,94.43469645304776L88.53689466793003,94.03013920391459L88.67714290000731,83.34647702920483L88.63432437069423,83.33469075399717L88.48059883102906,83.2920787447465L88.5559875203453,80.94475229527598L88.42767232102597,80.62119925682055L88.54545837379192,77.64027872520182L88.64934595311024,68.94183714004976L88.88800660829838,68.94183714004976L89.13003659038077,36.758035697615014L89.17131084486755,36.154161951904825L89.16962618141952,34.878797900839345L89.66098635386334,34.878797900839345L89.81569461387335,14.732372105044305L89.92744395594855,14.604023248796693L89.98275707250468,14.381597420759135L89.97040287388154,0.3586587335657896L150.49390269770265,0.02920414677282679L166.55043002423372,0.04891690753720468L195.70170594641786,-9.094947017729282e-13L216.4281203518658,0.08797728674744576L220.566496112815,0.03175950639251823L221.78970216496236,0.10093654465890722L232.49854615184267,0.03175950639251823L235.6689423730768,0.1025792665359404L249.19103393013938,0.09199283287671278L249.47489972119183,0.0965559519299859L249.60953240843992,0.08962001032341504L249.95039597949835,0.10622975883870822L250.84832159748476,0.06461408384620881L259.5095975514796,0.07848599079898122L259.51970553217143,0.08268406489241897L263.1480494341213,0.1025792665359404L263.5367855248369,0.09947634724994714L268.5744907899825,0.09546080350537522L268.7927950951689,0.11444336264503363L286.6395581128472,0.13543365913483285L286.92524895596944,0.13306084476062097L314.86497108152616,0.15040063176729745L329.7721367703962,0.30755276996023895L333.32818053268966,0.3354785543597245L334.8147556372678,0.35573839837979904L336.0080589132049,0.392242539527615L342.970351779506,0.4008209973353587L343.2894551143545,0.4134148928833383L362.5916269628142,0.5309573103850198L362.78634597972086,0.5252992377954797L371.80294553270505,0.5521294304144249L403.5080308540164,0.5557797923383987L403.9993910264602,0.5557797923383987L407.22846969114653,0.5557797923383987L429.39611367668476,0.5371629354585821L429.4943857111739,0.5189110882647583L431.05269940092694,0.555414756191567L438.94268027280486,0.5919183182577399L446.56606315397585,0.4274689353605936L452.0461329629434,0.48222479533615115L453.09427440507716,0.48222479533615115L464.45213498544945,0.4272864154281706L464.84522312340414,0.4455383954827994L467.5547235028862,0.40903440890542697L477.5929310486936,0.3540957095365229L478.1123689452761,0.3540957095365229L498.1184493379187,0.33584359688484255L505.4610549776917,0.3174089362328232L508.9988482192948,0.3174089362328232L519.2616775582173,0.3356610756227383L519.2757164202885,0.3174089362328232L522.5188339470442,0.3356610756227383L524.6246632575239,0.3174089362328232L524.6948575678707,0.3174089362328232L545.3047494181392,0.31722641470878443L574.1769327623751,0.22085467853048613L576.2197275821582,0.20497517391777365L578.2438507153893,0.26776298319600755L604.7184771953362,0.20753049785162148L606.1932596557726,0.2119110519588503L607.7661737620801,0.2248701822663861L607.761119771736,4.152879506267709L607.761119771736,4.199590697439817L607.7241975644902,7.505427150388641L607.730093886561,7.718671246198937L607.7241975644902,11.827977153402571L607.8937870182945,15.61236522364834L607.9724046458869,16.866527294826483L608.8293367866281,31.497650289575176L610.8114837222729,62.96508788522715L612.3156074044346,86.78161977380205L613.0070213613762,99.13806672370356L613.2417511351832,101.48258196259576L613.4787271269215,105.37659833799353L613.695908323145,109.53705960035222L613.7419557907324,110.51110053338198L614.0202060369593,114.17661294701429L616.5446742143577,154.88003644209493L616.5817368102216,155.08631374425204L616.7928812957525,158.7589004987458L616.8011642243764,158.95700386523094L616.9583994795576,161.39492085665643L616.9965851843881,161.96224776012696L617.0782913616331,163.3912669200563L619.13947709073,197.00715838146243L619.2463128310792,198.65242307663175L619.2954488483247,199.52016840688248L619.3480945810879,200.4236108803334L619.3601680024658,200.6981528479855L619.6118847993803,204.77139556215752L619.687133100073,206.01894371859635L619.951063706987,210.39751852361042L620.1456423352738,213.632191573015L620.3424671814937,217.35001414673297L620.6357390101348,221.93103304119722L620.6805229801357,222.6653807352768L621.0803497718862,228.44776300694775L625.0022462797206,228.66792481270204L625.3871918776767,228.69320373782193L629.9338177476166,228.84648977873985L634.4807243947998,229.03455403015232L635.1808424462251,229.1154082681087L635.710809489361,229.13656295204328L636.5118669590665,229.11182272502901L637.8442953581143,229.18944951049616L639.8344444451395,229.26331105395093L639.9358050292813,229.2661794548976L643.5085550374406,229.37464039887345L645.0574626896068,229.42860162062152L645.2576568627228,229.42860162062152L647.8328053321948,229.50694359170575L648.2285608539441,229.52056823389012L651.175598779646,229.6003438112848L658.2542738125067,229.78463247742275L658.8013682673718,229.79556781186056L660.7593683602518,229.8332139744607L663.0193443762582,229.87623802613143L663.1910396593721,229.88448428635456L666.3510471226746,229.88573915158122L668.4929563086735,229.90348651816748L670.5351895739732,229.91029863220865L681.8926289884839,229.99598754980252L682.9633729985508,230.0130177063902L692.4129310577682,230.08185516348203L698.5225034419473,230.04904985852954L708.6283783029303,230.03470871547142L709.1312503422705,230.03201974938202L710.9344017865224,230.0350672442446L711.0709999144619,230.03524650862437L711.5723276789759,230.03703915230017L710.7788511947892,236.56652956473954L709.8271567350748,241.1102996055679L708.2680007135968,247.2323020198637L706.4370523224461,252.78236641749663L706.1635752893253,253.0509673609049L705.2619995671994,252.93232552472L703.9902190522916,255.06288178807517L702.0402211107885,261.73410739958854L698.3350846333142,271.34319044826134L696.1252273548998,277.8162085111844L693.5387074071477,287.49801814212424L691.2360532504517,293.56485197636084L688.1024388478418,299.669161152975L684.4314168051951,305.83299345857813L662.4503492965669,308.3157443972186L658.2427619456103,308.7474867413175L657.2395448620991,308.8494065002724L630.7924345518095,311.7126347589965L630.6140006149017,312.49839397611504L630.3339253166087,312.72622146745016L629.8759776358893,312.8514447379566L629.642511359667,313.0518350997254L629.45986576414,313.4390696353321L629.4768527872438,313.6994757366374L630.1587203179752,314.63614671815685L630.1609665359065,314.81585020971033L630.063677221764,314.9624251629248L629.858709835542,315.0156761666203L629.7157942196736,314.95280790167544L629.4070796427568,314.65858752702115L629.1927062189498,314.3266021063537L628.8438404965145,314.3513588208307L628.3381606847561,314.9622470655622L627.9307529074922,316.06426712460507L627.4388311805633,316.5992155748363L627.5262932912592,320.1153692675125L626.3926551791192,320.3987854943971L625.0826889593791,319.6952183354333ZM539.8326817605521,81.59654881319238L540.6531128599127,78.69748454461205L541.5935762299741,78.3550088360962L541.8356062120583,79.1964884998406ZM525.6837550120727,88.40957535794405L524.0471044719689,87.45541310988847L523.7333359047079,86.19136414777404L528.0968950132574,84.11020436139916L529.7849277885362,84.7333733149826L529.2546799681586,86.22870914255509ZM527.1617664107853,176.65913086502587L523.2534875991605,175.11186845265638L523.20519391364,173.44162404207236L525.5701806179277,170.47058369185834L526.1485817352041,171.46124694783975Z" class="state" fill="coral" stroke="#111" stroke-width="0.5"></path></g></svg>