<svg width="800" height="458.4" xmlns="http://www.w3.org/2000/svg"><g transform="translate(0, 0)" id="single_state_map"><path d="M275.07239974588265,457.74556011679306L264.7472482586654,457.7234234609273L259.87703720775244,457.59060211506994L258.3107977826003,457.70682092494826L237.43103029078702,457.9151246728097L234.57153653068963,458.02403351005023L222.75206733272353,457.99614237733385L219.62326392427167,458.010419994308L219.49529172164148,458.01872092156555L207.89317478950034,458.0773805383028L207.80989261846662,458.0825824060771L197.76666422777635,458.0496002880345L195.7361496706253,458.11401488987576L195.6634761612986,458.1115799839972L195.18007202511944,458.0603360945047L185.5617748320692,458.1393599982571L185.22179646084987,458.20034284583744L175.85451523967095,458.3246311730236L174.78020029317122,458.2513644010751L164.33818646164582,458.3777546562869L153.89625616288868,458.39999999999964L150.63004134886978,458.2229207581099L135.99451543086616,458.2228100822399L133.01231203260613,458.1674719368789L108.28694643862036,458.04439839674615L108.30131407494628,429.90464283954634L108.29722096924888,417.7864859412716L108.32528797974737,415.8899120057504L108.3649660451847,394.9488212634287L108.28978655277751,346.1064077694173L108.2547027896544,330.2472763600513L108.25486985519274,329.51789729915436L108.25896296089013,325.7198423167715L108.25570518288623,324.35558283914725L108.25762643658163,314.6508787349462L108.25712523996663,306.89771476416036L108.28043088261074,289.2972459589919L108.34592057377449,280.4790049060257L108.55082645696893,264.5894999786901L108.50312924567515,247.2509678009019L108.51783101307956,237.03894362112214L108.5179980786179,236.46451418348624L108.52075466000679,235.82735852194492L108.50363044229198,230.84331070479357L108.49719841905244,230.39634486481827L108.51156605538017,230.17159437861483L108.51156605538017,230.1415433102634L108.51164958814843,229.96249112014812L108.50655408921921,229.6357976504646L108.51465676784392,228.24783779622567L108.5095612689147,227.87923086519731L108.50914360506795,227.68926214551584L108.50722235137437,226.715677402628L108.50463283552381,226.08803965841753L108.50187625413491,225.41769707159483L108.50087386090308,225.1832964240175L108.50246098352,224.7096688515171L108.49477596874203,212.72030101083055L108.49218645289147,212.70712804685718L108.49502656705045,211.88187830382003L108.50037266428626,211.3315049441985L108.49527716535704,210.6056653518317L108.46286645085274,196.8260846755643L108.37189926504107,157.28977148145077L108.357364563175,154.75824764268918L108.3374837640713,154.31134419007685L108.34308045961734,154.2062270174565L108.33815202622645,153.97103600762784L108.3121733349617,150.01791609161683L108.31100387618972,149.49938632418161L108.31893948927791,149.45176193761336L108.2876147007737,139.17075043205932L108.30432125464358,128.44903570602673L108.2707410813673,120.7225206967214L108.23465492501236,117.82664684638439L108.09031029959078,115.48623340216727L108.11754198239578,110.79964791769453L108.11754198239578,110.74908219177905L108.12739884917755,110.50903522936551L108.1425182804287,104.4698836926118L108.08680192327847,103.29558291741432L108.03868704813794,76.62980457225513L108.08437947296625,74.14114515987148L108.07869924465194,67.02198759451858L108.08053696557727,66.75911297437051L108.09891417483232,62.54448545500691L107.57817089075797,44.861974731787086L107.55286046164838,33.06620095902872L107.47726330539444,30.175105108558455L107.43783583826553,16.43132102562413L107.5430035948666,8.539593004832568L107.49472165418592,8.265481676374293L107.57892268568321,0.5414384816376696L108.49143465796806,0.5386032194674044L130.14872516681316,0.34875608763650234L132.107902738946,0.7052909903122782L133.00897072183398,0.9398991402713364L136.80929406302312,1.6042237249976097L149.57635899639718,1.6144999268217362L150.01640962528654,1.588277863696021L154.95277862952025,1.599853381563662L162.0650092095566,1.4286990643240642L165.42544898739288,0.6274408697545368L167.14346745443981,0.8093653977357462L168.62116214408888,0.7971978708492315L171.76792509794905,1.0696034788352335L179.05757928006824,1.147802890037383L186.5254088591937,0.2361684342758963L193.5217794881537,0.2645222694836775L193.58885630193436,0.2719651315455849L196.13610457023242,0.3225291206017573L206.1028169442052,0.31059699835986976L212.5388497564236,0.43901388217091153L216.5448307757306,0.5078878031499698L223.81694307628823,0.3979018422996887L231.28076308248455,0.3866786845755996L246.9756515812769,0.12015275451267371L247.87103933584694,0.15287835638446268L256.76051311639276,0.07336786475116241L257.2502657430414,0.06604292848714977L270.6143393789007,0L272.32133152039205,0.7435659868033326L274.0544694186883,0.7420302658001674L314.46578550514823,0.640317506885367L315.5152076863851,0.6292128854929615L320.9650526237583,0.7339972579693494L340.13398546669123,0.6678427132810612L341.9596776734179,0.7615220834077263L342.8957458866589,0.6731587273707191L344.53800013190994,0.6335838556624367L350.3091956329408,0.5720356103338418L362.73277381878506,0.553015789843812L363.0092672853043,0.5126132608884291L383.6167179490676,0.6055859708449134L395.46166464168164,0.5958989120008482L395.54770339410425,0.5877475956440321L405.21862623183733,0.5226548476239259L416.96408539616823,0.5312787866951112L435.11249839605625,0.6846176768758596L435.82645297561794,0.7697913224028525L437.49276465844196,0.8470491529124047L439.22573549119807,1.0992532108612068L440.0563018167595,1.0514119454956017L442.0773771709755,1.1199252579444874L455.2693733019896,1.1762710314378637L455.6120247218296,1.183594766297574L507.83562618809265,1.4312977129484352L535.8526840907471,1.447952664548211L537.0159614365948,0.6991480694850907L537.0891361425383,0.5863299744059987L542.5452460376127,0.6507133061486456L610.178388062599,0.6567381370450676L611.2759251189746,0.6632354976936767L611.775618145175,0.6586282789685356L611.8628263563678,0.6458698107508098L633.0114022999242,0.7940083213470643L633.4464409626526,0.807829691664665L636.2435357440518,0.7544341562261252L641.3556576949777,0.8607522845977655L641.4633314346593,0.8311015078315904L657.6235809914524,0.8802437603217186L657.6490584861021,0.8802437603217186L676.0239288236753,0.9077679910515144L692.0995596851262,1.0009715291598695L692.2485821456321,15.449718545130054L692.1999660738747,16.38700581941157L692.2444890399329,28.021359935777582L692.2444890399329,28.053598207885443L692.2469114902451,33.257015905202934L692.2522575874827,33.29205096980877L692.2600261350308,35.9903844138953L692.2465773591684,36.76421227437913L692.2572695536437,37.062438608682896L692.2504198665574,54.430790355208046L692.2474962196302,57.43181073143478L692.2924368495351,88.72697411191712L692.3677834074824,96.83893050590814L692.3291077352751,125.00297632589945L692.3184990735699,125.1833590019055L692.2841671053702,134.8113846928386L692.3134035746407,146.7389429978216L692.3138212384874,147.1223908899433L692.333117308206,165.97406823989013L692.3345373652828,166.01327639411238L692.3382963399035,166.49113680739583L692.3222580481906,168.88513284976943L692.3428071094495,175.2832494320155L692.3444777648347,183.8183432289461L692.3571747457754,188.18381568906943L692.374800160107,195.65563036947515L692.3902537224349,198.129037559484L692.418153667395,198.96957135644197L692.4188219295502,199.8011674662016L692.4813879737867,232.91289862207077L692.5034406248924,260.95626856282934L692.5079513944365,261.4799014348614L692.5268298003084,272.8353195781456L692.5136316227527,274.66132027851654L692.5265792019982,275.00931973260913L692.5107915085955,277.2033086314377L692.5107915085955,277.2914989455903L692.4830586291737,289.86172363526566L692.5107079758254,317.19832673913925L692.5092879187468,318.1302930457359L692.481555039325,318.1302930457359L692.5119609673638,327.11686380019273L692.5298369800039,327.5087335985245L692.4919131027236,330.8379128425622L692.5138822210592,331.23047936900184L692.525409743228,332.22233171930293L692.4958391428827,336.26287973395665L692.4947532168808,337.8467909742126L692.5020205678138,343.83609651612824L692.5146340159827,344.44809696863695L692.517139999065,346.4317067988068L692.5119609673638,346.84825679479945L692.5061972062813,346.8895058387134L692.5040253542775,348.98446463737855L692.5142163521377,349.3160371754261L692.4927484304153,355.83358288797126L692.4977603965763,356.82472207392584L692.4898247834881,359.14533723131353L692.5108750413638,376.1869634572263L692.4992639864249,386.0542391415297L692.4965909378061,386.8392504034614L692.4940849547256,388.5419937496172L692.5141328193677,389.576116682611L692.5037747559691,391.9691707118195L692.5304217093908,395.09362393935726L692.5311735043142,396.3830992276871L692.5267462675383,396.3912477197332L692.51772472845,397.6743529739347L692.518225925065,397.9023548531886L692.5357678066284,399.7734168432012L692.5356007410901,400.5085195626889L692.547128263257,411.4207195212707L692.5621641617381,412.5571542714292L692.5515555000311,414.1557466666645L692.5181423922968,421.13819690471473L692.5484647875674,422.1865747704842L692.5357678066284,422.2069290416571L692.5280827918486,422.7362312494324L692.537689060322,426.96125553790944L692.5275815952318,426.98159641175016L692.519896580452,427.289259067647L692.4490607920507,440.3921610699117L692.4801349822465,445.1391490303681L692.4850634156373,446.1892790348679L692.4899083162582,447.8199397620624L692.4772113353192,447.88078734293595L692.4838939568672,455.8209696622448L692.4787984579361,455.9578088068515L692.4711969759264,457.66287936403705L691.3257956427169,457.6520322881206L689.7297350189092,457.6455018979L688.1825410651672,457.64771559015253L686.595752578758,457.6385287629055L679.2543080796477,457.64240272761435L679.0272660125775,457.6449484747327L678.9854160951381,457.6350975353025L657.8532961071414,457.65546350775685L655.3986021472756,457.61871616837607L655.3910006652641,457.6161704121064L640.4511648685493,457.712576475034L627.6284671107915,457.8992973385939L625.475911177633,458.03454799669134L592.1040686291144,458.0166180208871L591.9580533483058,458.01872092156555L590.2363594394101,458.02071314270006L552.8415787194081,458.1604993007877L552.3723751540165,458.163155543893L524.7430763666453,458.1506490574893L511.6792195037997,458.0693010341961L503.02589286218245,457.9155673949508L497.580308096045,457.69187861025785L497.1212119957436,457.68833672376695L493.8552477800331,457.6245824729226L493.31487429516346,457.61982301865237L493.1357800376936,457.5995676320258L491.94159556719023,457.59082348599213L458.20154057141553,457.52374778936564L446.27030452806866,457.4373011386797L426.173322617753,457.50814097942657L415.62739402116677,457.4783661926681L394.0608200998249,457.5834075564603L369.6026758349635,457.59314788026495L358.9006244924767,457.59004868773627L347.64976285541707,457.76813943657453L341.8507509421979,457.80588216310707L320.9667232791453,457.80610352749636L318.794203014113,457.86188713940373L310.0699570513243,457.8012335093881L288.93366042486196,457.80809580669575Z" class="state" fill="coral" stroke="#111" stroke-width="0.5"></path></g></svg>