<svg width="800" height="1500.8" xmlns="http://www.w3.org/2000/svg"><g transform="translate(0, 0)" id="single_state_map"><path d="M282.0622700418826,228.1063420256978L282.35072578482504,228.9294316009982L281.921396306956,234.20744306813867L282.9008041783309,241.7318893459742L284.2156257043098,247.33989989942347L283.69238040315395,250.56170476933767L284.33637461995386,253.27836291401036L285.0608681138692,254.218721763129L279.9759971103631,254.88044873450417L275.14604048432375,245.59832639805973L271.73739921960805,234.8867642177065L272.54323052475957,231.42042038650106ZM277.46626443992864,278.78579291995993L267.95393319588766,273.458674177753L265.9012016298293,269.80259056475916L265.1498750435567,262.0197649833135L276.7149378536633,270.77756353173027ZM323.7407707606035,166.78373284875124L306.968410963098,159.70076535873523L279.7143744597779,198.81330386899208L258.83403592772083,205.02133044190123L238.01994159245078,236.64600333737326L237.02711717487546,237.74332970724936L236.8392855283164,238.47487174134585L236.26237404243147,240.61720398138277L235.5378805485161,243.1948888610641L236.0879589420365,244.6230276547285L236.86611862068094,246.34720793653833L236.59778769700642,246.88709466129512L236.96003444396047,252.49472157644777L236.7554321146672,253.09007205859962L236.7587862512155,253.121635298412L236.49045532754099,253.8181999841472L238.0736077771944,263.20378132585756L238.1004408695444,263.37789980757225L244.16555827858247,271.526194930404L245.05105032668507,272.5707844585486L254.5767981168974,278.43762672039156L254.77804630965693,278.78579291995993L258.33343104825326,281.5884722665869L258.7895936184941,282.0410690993085L259.28600582727813,283.5381008079712L259.78241803606215,284.0080930050244L271.87156468143803,295.669924255315L272.5558085367884,296.1572451151078L279.0536095602438,301.63938784862694L277.69937692985695,304.1606046604502L276.871743737167,305.69743966284295L273.74988114711596,325.1852289102535L273.7004076330777,326.77817666050396L272.90883140824735,339.7173208092863L280.98726927893586,347.05623604062566L275.7841649621769,360.3157850408825L267.8155750633814,359.31371011667943L258.3460090603112,373.2698300625925L258.3460090603112,374.33909156347363L253.8690753057308,391.92214324167435L253.8690753057308,393.2149330894608L256.52471291591064,410.56659513773775L256.91211568695144,411.8807881296161L264.67191058577737,422.76924728931044L265.73768747322174,425.9249348739613L272.3864246412413,431.78204583295155L271.67786329591763,435.6789341554686L285.044097431135,444.9572587712173L299.6161436545808,459.99059260359354L301.7418276905155,467.71614520363073L312.134619777833,487.0330873990315L313.728673171252,491.06058215364465L321.01218068056187,514.6201723368213L322.0251299174124,515.6635761894795L327.4856642140585,522.1948276013136L336.8084867432408,527.1357323643388L338.7882658394301,530.1374240981604L336.8386739721609,535.8465998843458L337.65540622107073,536.9883834263237L338.87966606031114,538.68422010824L339.97898431320937,539.9257133119245L348.81042583843373,545.721970524457L348.7114788103354,546.6923069696422L357.63264348815574,552.9336043700459L365.09643583680736,555.7348116979483L383.0377122205682,571.8332427675268L384.79108709991124,576.173771157708L385.95245687890565,588.9966578293024L386.10087742107135,589.9393519203804L392.32363924774836,602.5367382639743L408.7396220372757,624.5811948762857L413.277768783817,635.4889428250317L411.7189338241369,644.9399020499186L410.7931921374693,647.3944901703435L410.97012284027005,668.8262681105989L411.7843394867741,670.0905292443058L418.3693480604197,677.1529024468837L421.62034490747465,689.7379938949161L420.13194681525783,707.220983957428L416.9505483015164,709.1012641674679L415.64243504864135,709.2743601234761L408.8318607922847,722.072632618816L406.8537587643805,741.9499828355983L414.7628127394928,814.8911334606382L414.05676699658943,838.5222517755101L415.5166549281639,839.8614567613549L419.27999613261636,846.8098249545583L418.88504655433644,848.242833628603L425.8977075375733,855.4884560970459L432.6403605288724,858.0625919883896L461.24275992360344,883.8995556396549L465.32893677059474,889.1850529576259L484.2261420699142,923.4655198118271L487.07967373630527,931.4655689915744L489.88373188863625,945.6361990489022L489.09634833448945,963.5069892351748L489.09634833448945,965.4316349677028L489.6531350011064,969.2937190160519L489.9382366075006,970.4419559508096L497.4766584942845,976.5127699039003L489.3177213465169,992.0439242849243L496.1970554020518,1004.3670002307408L530.5459292339729,1042.9475698049573L556.6126014000474,1078.5889500255216L579.0014628435965,1101.052685892697L591.392481778108,1118.8366502351491L616.3841531812359,1135.6611638595205L617.8314631007743,1136.7703309184799L638.7948165123307,1145.323610999847L656.1449263298855,1144.5103858102593L669.7526582963983,1138.373269517615L672.6447625330547,1132.683223769418L669.6738360875752,1122.8825313577763L672.5181438784493,1122.1174888235255L676.1506737576128,1129.2339188426486L682.2887436365127,1156.1711674763355L683.912145724702,1179.8777159033416L684.7473257246165,1192.6436348156858L696.2444672696583,1275.5994280063169L696.4901577716446,1306.3445088717708L699.2548048195677,1331.5929699819826L699.8090758837643,1331.8794831031264L700.4639710443371,1332.51259820407L700.837957269192,1332.8377383428087L709.4614423285893,1462.914593367641L710.1398164449784,1500.532316230121L707.1454110436753,1500.5216088600428L706.3295173288934,1500.5205381229607L695.5593848801655,1500.5023355901576L692.5557556033673,1500.5183966487166L632.1938757901153,1500.604055571428L595.70170870539,1500.7999999999956L539.2599759800869,1500.3888373476948L532.8644761212927,1500.2871170830695L465.02706448146637,1499.775301508831L452.82890839835454,1499.734613095934L440.03539307833853,1499.6286089722344L421.16082820070005,1499.6211137256541L420.13530095180613,1499.571859230091L406.6365784230293,1499.3148787438186L394.9415428217908,1499.090020117168L391.6737752919871,1499.0247039172245L349.39320706326544,1497.9239570279751L331.79069847065693,1497.4474615358995L329.42687073996785,1497.3660822366946L314.0456390748295,1496.8981496026609L312.84988939623145,1496.8981496026609L303.59834226865496,1496.5758419522535L282.2584870298015,1495.9280102152916L281.6530653832815,1495.910877401402L269.7660054647786,1495.469706135169L261.80747797561344,1495.0060452686812L257.0228021929652,1495.1538173943118L253.85733582782996,1495.0274615362869L249.67556608928135,1494.5445232591956L222.51712247752585,1493.4212249899138L195.3603559340554,1492.505655214285L193.06109533187555,1492.3546654720922L169.63580569565238,1491.0396501328723L167.24766047500452,1456.5017730546097L166.98016808547982,1452.1155513903868L165.22847027440002,1424.7533570496016L164.05284541507717,1402.5469907083461L162.8906371019475,1383.226452058385L161.31419292539067,1357.073446032744L160.8647386282537,1349.621903943007L159.36124692157318,1325.2926310650728L159.2891329858394,1323.6528057671094L158.97468268466037,1318.2565895314256L158.6811957368991,1313.073590528009L158.04307125906053,1303.246507652264L145.73171306751465,1102.4604868354872L145.24368620009045,1093.9250276130988L145.01560491498094,1090.5364126902714L144.07644668214198,1075.9748577081045L144.02697316807462,1074.7915963118503L142.76581782683934,1052.8554212326999L142.54444481481914,1051.6233373317737L127.46592397295899,808.5038458680283L125.80394931448245,786.6099254693181L125.52891011771862,780.7920282024788L124.2316978086019,755.9418033440816L122.81625218626141,732.6830403298954L121.41422311009956,718.6793692952633L117.28444248800952,644.8749361344599L108.30038774996501,502.6199948055073L96.4611242772371,314.6665803501746L91.34271190827712,227.2756221312302L90.87313279185037,219.7845754630107L89.8601835550071,197.18061677509104L89.89540198873874,172.6359402677408L89.8601835550071,171.36224406041583L90.08071803290659,151.61664999753702L90.08071803290659,151.33764641336165L90.11090526181215,127.87584523510304L102.52204901560617,127.221722469214L108.81105503906292,110.4306232408926L113.60076202653727,100.15785467264504L119.70529053998325,88.8147377416899L126.97705857139226,77.66191150099621L133.60567092012207,69.03871660759614L141.52143316833826,59.909313715732424L149.97385726387438,51.319001712945465L163.1899937886701,39.74147738037573L175.9499677432177,30.520089871606615L195.3779651509176,19.49834664205264L213.2420963941113,11.622965628528618L218.95419093170494,9.656447996690986L233.59080428365996,5.468827506156231L251.61509554692748,2.0213722792323097L253.36763189212797,1.6948550008819439L264.9536580556378,0.5252781006784062L272.8233009263349,0L298.9168061847813,0.8692732000126853L316.443846705115,2.9441308153327554L332.8799543139248,6.219012956164079L347.63899364979443,10.805136406743259L362.6495932266116,16.591987295432773L370.70035947079305,20.41324788422935L392.2523638461498,32.53081570741779L403.1507920177537,40.63648544601892L411.2879272779901,46.71898313904239L383.9508758951706,60.68732569953863L374.9777221008844,70.83456984607619L375.4003433056714,70.99167768551706L376.06781647828757,71.70738701726077L371.87514579597337,76.39860552723985L365.9215534270843,79.88955472073576L362.65127029487485,84.90750995042617L362.9028305358297,88.0708311953058L360.2111359577757,96.29920574265998L360.19939647987485,96.33410679062945L357.7039188897543,104.10354908846057L353.5707841311305,112.98005891708453L352.55112662119063,117.79518140658183L352.5041687095436,120.3509091527012L350.9948072639163,124.712018648308L350.8338087097218,129.23858271814242L351.2899712799481,131.66310418029025L350.65939360934135,135.28665867767995L349.5692992319382,136.59475819599174L347.22056511569826,135.795730111764L346.0466173246532,134.74161049514805L344.2856956380856,134.41457968913892L341.50847057811916,135.482875056201L339.1706374056521,139.53789891191263L335.06182013700163,150.1104542986286L328.5204153384475,153.4889988357172L325.9041888326901,154.9624326708872L324.3277446561333,157.630233513024Z" class="state" fill="coral" stroke="#111" stroke-width="0.5"></path></g></svg>