<svg width="800" height="603.2" xmlns="http://www.w3.org/2000/svg"><g transform="translate(0, 0)" id="single_state_map"><path d="M343.2668351563607,7.664087132649001L343.0918302048758,4.920194368585726L343.28799984681973,3.6322966732705027L343.8426639152167,1.9156130255641983L344.9432278189579,0.8930479180016846L346.80786501913826,0.3335195704439684L348.8502110299378,0.3875986880948403L348.9935155639978,0.5565420074062786L349.0676385988554,1.6604642807524215L348.9485755604728,2.6142150023770228L348.38011248684415,4.574022357389367L348.092011634375,7.477253889213898L347.166266209073,9.145180059863378L345.6773721918871,10.178895179295068L342.44374314160086,11.679162644988537L342.31451732233836,10.591383242262054L343.06152833527995,9.198099982530039ZM334.12695215738313,22.328574926353213L333.75036984569124,22.052980193799158L332.6455170619465,21.832387724857654L326.3096292206392,23.6866043405862L325.65510883735624,23.460738535424753L324.6611142780712,21.975718984618652L324.9381199844447,21.155553217614397L326.5536291982826,18.74189206634037L329.66344014757124,17.44263374000184L336.40900926582253,15.251413327825503L336.9223695550463,15.373423106359041L338.01090594747075,16.220057477084993L338.3340637321526,16.844484824810024L336.8516962714948,19.73601770653204L335.7970047364943,20.3064864665439L335.3700747030125,20.80291372879492L335.03106670962006,21.464764328871752L335.00598608524524,22.108127271494595L335.60186069629526,22.97199838110373L334.9441702712684,23.431532417605013L334.216645691391,23.48257480902066L334.5163078725691,22.4941451735358ZM312.7006400205373,41.921874622981704L311.9660294649984,40.7736363835611L311.91036726146376,40.2821016812095L312.03446507202534,40.12959668064468L314.9849348054995,38.75268690865232L317.3703912166511,38.20721693336145L317.7857599214276,37.643726287205936L317.8536361093229,36.81577817580637L318.4956627986794,36.07152581795799L319.29292829689257,35.411267232573664L322.7442646256641,33.61439766106378L324.46149488482297,32.31314312194172L325.7414458565745,30.89972446072079L326.59642476180306,29.46094176884526L327.7152630238252,28.305020284258717L328.23701460001394,28.08761682703971L329.5330022535236,28.327660423611633L330.9464679245448,30.32544518488703L332.5674780931695,31.465233727278246L332.673021835888,31.798411122282232L331.7976241323777,32.56163558415665L331.2171335474304,32.81080112826021L328.4822266524425,33.06745458403202L322.6725657403731,35.65066212675629L321.9991183431557,36.42874368840603L321.7756304003178,37.555596082142074L323.2398167392166,38.30569054630814L324.61402983454536,38.34968317122002L324.83723806781927,38.54281175606775L324.90222392353644,38.98461851907814L324.43977077523596,39.76234617217415L320.7768807784196,40.682820681226076L318.91298947041287,40.22287020517069L318.21539381404364,40.72407592984382L316.7714398003827,42.591347667231275L314.51306476849095,44.373497861985925L313.80623869645933,44.63110754340232L312.1944589434952,44.593140282520835ZM670.3164054948757,230.95509303805738L669.5990436958773,228.66062279248217L670.7330795109574,224.47403180681704L671.2596793862822,223.71478018848575L671.5502976248417,223.69047117793798L671.9013331295519,224.17039351359108L672.1312543923959,225.00224813758814L673.097091522086,225.45154142837055L675.4087046079449,225.30678241378064L676.8437079155092,224.64258161688394L678.3382893605267,224.89679378811252L679.1146698778493,225.76269745106038L681.2397166835153,225.05816224791033L681.3525328749356,224.3093301460758L681.188716306071,223.04299891578557L681.3974728784597,222.70874638347686L682.4782706395727,222.9181209371527L683.132231603724,223.49519921826413L683.5226129206485,224.78575964659922L683.5648490650401,225.52670876894717L683.2955819899798,225.6936413174799L682.3846611716508,225.41741042614467L681.7963387188711,225.68461085301442L680.2067492581045,227.88002180496096L679.1185858117651,230.36757265258802L678.1433317933706,231.16025648081722L677.7536031320988,232.7290539062933L677.9628258870971,234.33214486863562L677.6325821267574,235.36115848069494L677.0660770200866,235.67323026246322L675.8833717406087,235.48901266118355L675.2071272477378,235.9165921612548L674.7938097464421,236.77154554979825L675.056829974541,238.80185229316248L675.0324952423407,239.9915668665153L674.7562354281426,240.40444327833393L674.289400163314,240.18521734325077L673.4412275241812,238.16085277480033L672.3516655300155,236.55778317215936L671.2620102993269,235.38211398304247L670.2626080217769,235.0862115689788L669.5127999131782,234.16155745027118L669.5063665931721,232.86955694084554L669.7682679830068,232.51013459028582L670.2453592652364,232.3818316366851L670.4295013958617,231.98271184374698ZM618.794369711386,271.75365655084715L618.657591733855,271.6962405001341L618.4050139962028,271.6175732018846L618.239612406468,271.58721479703854L618.2275848951513,271.5691316891607L618.2397056429891,271.55104853795547L618.4051072327256,271.5028705878394L618.4683215945288,271.4758116042676L618.5766624329008,271.4185254360027L618.7479379235137,271.3673107054301L618.794369711386,271.36427476976587L618.9007525828001,271.34922707062924L619.0601870351393,271.343023185932L619.1384124769584,271.37021464274585L619.225681861396,271.4244652662819L619.3129512458345,271.5059064677498L619.4212920842065,271.62958453704323L619.4694953659946,271.7260705028357L619.4845996825325,271.80143693131686L619.4966271938492,271.81054420708097L619.4997039990685,271.84670922266923L619.5117315103853,271.87693459545517L619.5207754530047,271.9161350078093L619.5479072808585,271.9734173991137L619.571962303492,272.0036422644698L619.5839898148088,272.0097136202003L619.5960173261255,272.0277956724758L619.6111216426625,272.0367706896368L619.7163856758143,272.1423583254327L619.7224460497337,272.1665112895307L619.7074349697177,272.1785217510969L619.6502809818321,272.1665112895307L619.4877697242755,272.06712728622097L619.3192913293187,271.97064568051064L618.9552959480734,271.8109401753409L618.9281641202197,271.8048686597067L618.9101694715064,271.79589336677236ZM325.9550507280983,601.1283190329223L326.3279968154402,600.5085555924052L326.34664411980884,599.8128448683938L325.98302168465125,598.6744035539032L325.6753411625941,597.0674787623357L325.5168390754734,596.5993846415631L324.72432863987524,595.8653612685584L324.2581460306992,594.8528033068205L324.0343783782955,593.574390059538L322.99012933374433,592.4855691974017L322.58660166724076,592.1543352998697L322.3702929365827,591.8646208655855L321.80043131512684,590.8374924724967L321.66169537063433,590.5639404920566L321.58710615316704,590.2052690874552L321.5662211722756,589.6236599078438L321.19029151623727,588.2089750487576L321.0068020412655,587.6841040134477L320.43843220415874,586.6765781112317L320.3674792110414,586.1717531666081L320.198254923911,585.6254566458565L319.8596198766045,585.1929292235236L319.5891407267627,584.9509924657614L318.56307280396686,584.3578421394495L317.5446502759605,584.0182815205708L316.37499810953886,583.7491829706842L314.8168293566305,583.2965240440535L313.96781758880024,583.003441733842L313.1047271061707,582.8104983839885L312.2214042983069,582.6934877318936L311.40176203485316,582.4546436976343L308.074616753167,581.7078924765465L307.0296218164385,581.5292448994578L306.22899980343936,581.3072293868045L304.8651359620344,580.8119512314224L302.9719683861731,580.3374389740793L301.77565057450556,579.8575717641888L300.5506159141132,579.0084750756814L299.82756668728143,578.6968418835886L299.5964333496522,578.6849191642132L299.0139847977498,578.8589383421167L298.3460383553229,578.9514003213972L297.9244228035823,578.8949593245052L297.2115363576322,578.6756600186409L296.91299301471554,578.5228191256801L295.7351360343728,577.7040234423403L294.8783856352293,577.4482829823073L294.5522442818492,577.2494948564627L294.2871728502723,576.9810531535568L293.52281984426736,575.7386933983735L292.89254095666183,575.1067808400967L292.4643988483949,574.7914400471564L291.58340695357583,574.2921986615611L291.013731805162,574.4056538552431L290.8690287232748,574.3628862616642L289.9788996493153,573.7712228978025L289.707954316862,573.4480863824101L289.61229364545943,573.0787350023984L289.5874927306504,572.7149513791164L289.491552349682,572.4694577457285L289.1740819928327,572.1069154009447L288.8043991837567,571.9624523494567L288.36096628590894,571.9463302100175L288.134215064807,572.1288765992886L287.81711765404543,572.1621356385085L287.69563046609437,572.1499491366303L287.46645509542395,571.9929192944583L287.3668784901038,571.7020821052474L287.36603936140637,571.1743330592417L287.2273966534376,570.837250860619L287.060130333266,570.5953807260094L286.86610513132837,570.4385738061455L286.44579489089483,570.3835954175611L286.3429550073106,570.069589083987L286.3700868351625,569.6005243406644L286.5912438649575,569.5761433838379L286.748627113815,569.487126853176L286.87011430176426,569.2316273088345L286.8578070808835,568.995295542979L286.57875017103106,568.7286042086444L285.99182626607944,568.0070953408513L285.8830192450969,567.2610051406873L285.8436734328825,566.3080304706637L285.72162682579983,565.7073760749718L285.4387472185517,564.7247346286458L285.1948404774321,563.3192956713374L285.0813716303601,561.5674823412173L285.14188213302987,560.6307254276899L284.7591462108976,560.3384506879893L284.0723659910582,560.4325289980961L283.7065058793778,560.2321662691293L283.6082345853629,559.7041554948701L283.95432855441504,557.8102463547621L283.91377066741734,557.6366512026507L283.58818873316704,557.1158427256314L283.3712273468591,556.5369989386136L283.2627000354423,555.9582396895648L283.3169636911498,554.510900461637L283.10000230484,553.5846261884108L282.77497978972315,553.2165036055394L282.0191113072069,552.5575808825106L281.7063960129708,552.1092323890016L281.5293398580052,551.960965046409L279.60969310994005,550.9510181097894L279.1085468050769,550.8367147301906L278.98444899451533,550.6720029230337L278.90482500486723,550.4153816569224L278.8472980708957,550.1773375624525L278.84683188828603,549.8606131532315L278.87610815614426,549.52592543645L279.06164883459314,548.8029054008339L279.06892128329673,548.5188481298665L279.02090447455157,548.0458209278777L278.90883417530677,547.5637240161541L278.5109939366357,546.3072804527756L278.50204323054095,546.0893626509051L278.5757000827889,545.5035909782773L278.9066897353041,544.2353517233805L278.91694575270594,544.0186503080104L278.81252084825064,543.3645604421281L278.6772346550679,543.0065333306829L278.40638255913655,542.4511130024712L277.97628248391266,541.7808355560937L277.8790367916372,541.4683596331088L277.8621609811853,540.2443331211753L277.79251329937506,539.7797290548879L276.7862115192074,536.2160835840186L276.18865865076805,533.756118947681L275.87212065913627,530.7793277797364L275.8901153078514,530.5034218896599L275.7443866242211,530.0923525601393L275.80927924341995,529.6901958440321L275.94885431660623,529.383235913675L275.9527702505238,528.4560289089723L276.14194715332815,525.4525735714051L275.90559257047425,523.541681521815L275.85682986955544,522.7434437127358L275.8865723200197,522.2461165577406L275.9731890488056,521.8665527549238L276.13635296201755,521.5063908533602L276.59144042509433,521.1589894512026L277.51662643126474,520.7512618131905L277.912788412541,520.4484230642947L278.84515363089486,519.2395066997587L279.1171245650876,518.7272582152564L279.2967913426637,517.8166817108695L279.54918260727027,516.9913960110107L279.80390478492336,516.5530233863919L279.96650927900373,516.4273494710942L280.87509918428805,514.7036356027029L280.92470101390427,513.9810994768741L281.08562725059164,513.5054679515079L281.37046482479855,513.1075726869876L281.8707720009661,512.782437161517L282.4132220850024,512.3130004458781L284.32223986957615,510.3539804993261L285.08472814514425,509.5391658234048L285.7766363736828,508.65554334307126L286.2856145463811,508.1271135771831L286.6432698441404,507.63154215612394L286.9116045539813,506.94022372629297L287.0770061437179,506.24871597829224L287.0762602515442,506.0697485952551L287.00857053669097,505.7736368853466L286.9054509435409,505.59504267321427L286.7145025468235,505.4826350423127L285.9556504956072,505.4416660266306L285.79146098065576,505.3466682930184L285.70279304838914,505.2039134569559L285.69039259098463,504.9178837928048L285.80302230936286,504.4274862198572L285.7890368310873,504.0178589566658L285.6038690987225,503.58836104903276L285.0290659416096,502.56036399413915L284.4904385549671,501.3951708415425L282.4779282311556,498.6054025259655L281.5060307275471,497.87663114809857L280.4375401873149,496.97720222319913L280.0933109487014,496.76187751922043L279.67094950478713,496.54052264245L278.04276012398077,495.890777044031L276.5277598806806,495.1035495787319L275.58980047101795,494.46778702001666L274.94656170687995,494.2529057374277L273.6568209003326,494.06045630664994L273.459439183609,493.9644221325334L273.2118029816138,493.6218179334637L272.45192532865804,491.90985314302907L272.43141329385435,491.63641683865717L272.58338882444696,491.36822958910125L273.14215529980356,490.9113536910327L273.26289659557915,490.7424233816764L273.37860311917757,490.2407415891021L273.7636699543564,489.337222269467L273.92664739452266,488.8362196350645L274.0462698520387,488.130655684442L274.01102644678394,487.6316284512841L273.8842247770899,487.14283557832186L273.77989310915655,486.44289329759977L273.7955568448233,485.90191563051394L273.71490725343756,485.4909271218703L273.53589313151497,484.99006165278206L273.1628538076511,484.31919536346413L271.14847875340274,481.6862621764285L270.81972677741214,480.99083705313114L270.7180057320893,480.4493512238787L270.73478830601925,480.11334388321666L270.8229900556762,479.8263903266725L271.0782716524609,479.4938243508677L271.53671563032367,479.1189801186765L271.92709694724726,478.3763034785061L272.333981128535,477.1125236240541L272.40418822947686,476.6427294969126L272.1866674240373,475.8446825103374L272.1255975022341,475.04526816528414L272.17818290054856,474.6182803382726L272.1623326918361,473.6472518648943L272.21109539275676,473.0854549932046L272.1235462987552,472.83346881134185L271.72067128790513,472.38887323238214L271.02941571501833,471.9127497145473L270.7577244903914,471.60774786615366L270.40491749176545,470.455138917142L269.80279603375675,469.50609798971163L269.7179507988858,468.8229584295941L269.74340436934654,468.3714435931097L269.7999057015804,468.16664529045465L270.03905738008507,467.616930636751L270.6187088363349,466.7438424174916L270.7697520017082,466.3499813150074L270.8930106835742,464.96622629829926L270.85804698788706,464.1647888066818L270.77954183650036,463.944562382052L270.6124619893726,463.68764509534503L270.1826416237127,463.14301921069546L268.8943926015163,461.7780038542769L268.3964163383953,461.3761648660693L268.08276867894165,461.0296730515911L267.7601703133914,460.54010301073686L267.4192043530402,459.84844566808806L267.4463361808939,458.3023919717052L267.9385317796623,456.90457305361724L268.01134950321466,456.4463076411639L267.87531741785824,455.6858647408744L267.76389977426516,455.49529135060766L267.2309598154552,454.9877170145028L267.13940155101227,454.74944583575416L266.9992670586944,453.24232987214236L267.04691092135363,451.9551075326581L267.50833846791465,449.49981956272404L267.4465226539378,447.67206245113175L267.6252570662964,447.14023965714296L268.11213818332,446.4251944227035L268.3508236792168,445.9174115118367L268.6141236168787,445.0887093674273L268.7100639978489,444.61335574917484L268.66083511432043,443.1495629457313L269.7308174389,439.51307724313756L269.7140348649682,439.30376907063965L268.0077132788647,437.04388664361795L267.8212402351928,435.98468211167165L267.54153066968684,435.49378193819484L267.11254943272434,434.25347396951656L267.0193129108884,433.63324521640334L266.76757430193356,432.81911930599017L266.58501719218293,431.15506298338096L266.1866175343803,430.50911854003516L265.9842942819978,429.9497389065946L265.3443187961202,429.2169380255691L264.8094208703533,428.9024897599702L264.6158618510235,428.7227623355793L264.3839826212188,428.34001947118577L263.4806139611592,427.3228138197919L263.2898520374856,426.23950903673085L263.077925423353,425.4568119523892L262.5842380402355,424.59227325436314L261.8814211386416,423.95263588881426L260.9492423933352,423.40546057438314L260.5582084207581,422.7542079014702L260.1912294708145,421.79955029242774L260.0541717837168,421.55494634207116L259.68616723203377,421.2209005692903L259.2150430872007,420.9595815137309L259.1511760697431,420.8732497931187L258.60891245875064,419.66528080029275L258.46961709513016,418.5880195947193L258.29190828451283,418.25410404807553L257.49939784891285,417.3702390625158L256.5070815470208,416.08168095458495L255.63988865743158,415.4120635763702L254.6212796563832,414.8265863298184L254.49224031016456,414.66868118898856L254.19761290116367,413.92457922760786L254.01710699489195,413.59823465433146L252.93155417116577,412.40363584857096L252.78731727188642,412.0820212670851L252.6904445256987,411.6431161752307L252.3960035897453,410.94485947267276L252.1494862260115,410.563953677025L251.6965432029374,410.1576247254543L251.40228874002605,409.95814629232973L249.83199923927714,409.3359580955457L249.25980670477657,408.98076976045377L248.79763326603825,408.92386032334707L247.86284389811954,409.1118283883634L247.64168686832636,409.0969207440785L246.3253736530569,408.5276863732179L245.65640160889234,407.96761507089377L245.1941349336339,407.6922317179087L243.59102617719873,407.3741801932647L242.70872897107438,407.3741801932647L241.47334505675826,407.2713584389094L240.35674447126075,406.870820231582L239.02542017597625,406.66516188058813L238.39737896489532,406.6620497321328L238.15636255595018,406.60291867201613L237.27378564026003,406.0853728080865L236.75660265364058,405.6194090722338L236.20343036959275,404.4889437863285L235.85015718835893,404.01211668482756L235.55664861762125,403.7587740358422L235.10090849889093,403.461964648448L234.31688258677968,403.1366027232434L233.93312106290614,402.9159247716152L233.42358347107802,402.32469457356456L232.98070999236006,401.9456968839204L232.7550776095195,401.8945742305632L232.4879549744619,402.0201744552878L232.36516247520558,402.01096211190634L232.07090801229242,401.8387800835271L231.66309146578715,401.25161942756677L231.2199382775052,400.89151527320337L230.98582137117592,400.52892848211104L230.619308603842,399.65846862399485L230.4495248975818,399.1222826938638L230.28701364002154,398.8726728404845L228.93284639688864,397.5179143338446L228.5395747477869,397.3856191415016L228.02369707247271,397.45845318501415L227.64804712599835,397.36601485132815L226.51233305352434,396.6732112314312L226.44557570389225,396.50701215825757L226.45723026912128,395.76127936097055L226.3272585576833,394.8994996065603L226.22274041670426,394.5209144636492L225.4302299811061,393.4333685802794L225.20133432000148,393.2399503306233L224.3532549173906,392.90765964288585L222.38605754319178,392.6626542414788L221.92248555662445,392.40049239446125L220.81716659027006,391.5294999085909L220.26595227318103,391.00573947687644L218.19768650931292,390.122632959733L217.13525634300095,389.4823301351189L216.27393735428814,388.83599502279685L215.1676860227144,387.0011877905026L214.8588866623959,386.7466329076824L213.71440835686917,386.1524652773787L211.88389572368033,384.6316023600157L211.1396818063913,384.29438658856543L210.87964514699343,384.1112720775973L210.79591875038386,383.8312596794258L210.76794779383454,382.9406924005025L210.6679050059047,382.50545127896385L210.40348622998135,382.0327196680828L209.51540835950073,380.7667115711274L209.2442765540054,380.1396797120733L209.21956887572014,379.6134485911025L209.69115920316108,378.1494665947721L209.77180879454863,377.44997767288714L209.69871136143047,377.13769914374006L209.57675799086974,376.8917984983718L208.93566366673076,376.0051107247564L208.86554980231085,375.66972824702225L208.96885586850476,374.68523850214206L208.90023378843398,374.4662143035812L208.6849506595172,374.1430054324046L208.02371724666227,373.564529043153L206.67244033570387,372.92870152350497L206.49314650421547,372.757428010339L206.26863295963813,372.23589934215033L206.23488133873252,371.84459924398925L206.31627682229373,371.54811486918334L206.60288589041556,371.03041205142017L207.22458701801224,370.0974423821126L207.2978709241761,369.8157442097945L207.301600385048,369.6854455231669L207.0538709465327,368.81212641915045L206.82693325238506,368.2156528701171L206.17754087780486,366.7979780975347L205.9319558792904,366.5470521262396L204.71176951803318,365.82942355993055L203.93902522506323,364.8101578655733L203.63871038823345,364.2643554732431L203.0137459823727,363.42693067168693L202.63362068285096,363.0737816454839L202.01210602829815,362.58732734465957L201.5779967826311,362.3689997143201L201.23749700489134,362.25735545645057L200.73401978698166,362.24744303693933L200.42494071709734,362.15992624870523L199.80072220341208,361.81024037175666L199.22442726195004,361.39727477961605L198.9752060390838,361.1165602162373L198.663702819631,360.8938857043049L198.43900280200796,360.7893947236207L197.43913434185015,360.58184347990937L195.68311768960666,359.6015409492111L194.9243588749123,358.8621212017688L194.24708878030106,357.95167670826686L193.97325311567147,357.7749776098217L193.49299179169793,357.5929236706097L192.50188756459283,357.6068878182332L191.91095448919987,357.49569595342837L191.1057638866314,356.97638762017687L190.15717551348098,356.6349482663318L188.88263225999435,356.31072336758825L188.49001326654616,356.0355651869568L187.9483090746853,355.4460563026041L187.63065224479396,355.2446259792205L186.22688317204302,354.91068117068335L184.09316536984625,354.579724576839L183.3634963499626,354.3982472156895L181.0234461249438,353.7200842615666L179.17876154043552,353.1049328494728L178.62680133117283,352.8590412194608L177.56493058399246,352.1998088360224L177.11245374352802,351.6796175613008L176.67564063873033,351.04784372621816L176.40767887497532,350.7097964596087L176.01729755805172,350.35945500564867L174.76746198285036,349.6246261923807L173.4334338284334,348.5140838533571L172.91317403659377,347.9838408309133L172.10751725141563,346.97016128771065L171.5371894473501,346.02026161262165L171.0623358416451,345.03128871348235L170.99278139635499,344.59950415626827L171.03893347466328,342.9147483266179L170.98485629199968,342.63243749555295L170.94000952499664,342.4786593396502L170.5269717332667,341.87018522891594L170.25938291559942,341.3103147329557L169.95692363876697,340.0994099118907L169.65054842801692,339.5110222191397L169.40990496516133,339.1933943186932L168.5637835295056,338.4143126262152L167.90171098795508,338.0075362045118L166.8338731033764,337.59602749115675L165.53313038725537,337.3623277446013L164.90098676921298,337.3300070022551L162.9670748333083,337.5243219487638L162.01223961319374,337.4464657137869L160.5383566760247,337.1759908918648L160.01502007896488,336.95588769504775L159.54212444021505,336.6207480739904L159.0454534884011,336.4658015359937L158.84452878384582,336.5032297892976L158.14628047182123,336.85224593622934L156.80740401826915,336.9761709549866L155.39915959247264,336.56395215845714L154.39295104882694,336.1399323942105L154.0443396936862,336.1672849990382L153.50990795052712,336.41096750394445L153.198870913684,336.4295509194344L151.80489167572705,335.87176696277857L151.45012671014592,335.6785877673783L150.9099143026324,335.23593239708407L150.6749582676075,335.2337072754963L150.07274357307506,335.4491483835518L148.84071617354493,336.2731609017492L148.4868835731795,336.3087579078592L148.14060313108348,336.20327511880805L147.96373344916356,336.04674957688167L147.81893713075442,335.70397880867586L147.84951870991608,335.462891382208L147.98909378310236,335.1289949357497L148.02685457444568,334.90595284987285L147.98051602309351,334.4574928170041L146.9531427889924,332.6474144333806L146.3536319535924,331.7551777443632L146.14776571338007,331.52352478158537L145.82059875826053,331.3781651658828L145.42853918394394,331.32512785776544L145.26985062378117,331.4711432581871L145.01428931742885,331.8739478960879L144.72339136930532,332.0051559852918L144.58307040394357,331.97543139686513L144.34242694108616,331.7646060931802L144.18672194962164,331.2096231072628L143.15655161986433,330.4086371551575L142.63209618454312,330.35873644934145L141.93953530035105,330.450810199839L141.61730988088857,330.3015008535049L141.29741537447262,330.0202936265732L141.13826063170018,329.6002316090444L141.12101187516055,329.27419929075404L141.193456652627,328.90675760814065L141.45423920419853,328.16055401661833L141.45377302159068,327.5079588686722L141.27158885792414,326.88059717921533L140.30453965345077,325.5643845034065L138.09464761291383,324.3830848396674L137.6115891932859,324.0102944553L137.26558846075568,323.68310470467804L135.23191344648876,321.22925693880825L134.30141295857356,320.2666958850896L133.88585778075503,319.700773699813L132.74371038827303,318.73880596371146L130.5003464363981,316.6305503454114L129.29377260732872,315.9790636230491L128.92082651998862,315.89416284711206L128.6606966240688,315.7548027917537L127.81560079015617,314.99693849680716L125.7781963150137,313.9695342733303L124.42663969449131,312.9541994250103L124.38253881966375,312.73365625158385L124.27438445433472,312.5254471118924L123.96838218967059,312.27193886427904L123.90582048352007,312.1267356077942L123.96418654618901,311.15002052101045L124.15765232899685,309.9088240523388L124.62141078860441,308.72442927061456L125.019903682929,308.11009446307526L125.69708054101648,307.3563268553444L126.02993492396854,306.7639532355106L126.23906444244494,305.9982263218926L126.37565594693297,304.51634874884985L126.47523255225315,304.0982904588209L127.19940061734633,302.93704248071754L127.27035361046364,302.721071479873L127.19940061734633,302.2912143488211L127.23641551651417,302.0665484272431L127.5067081933139,301.57302248295764L127.81112543710697,301.15677396234696L127.88795233109886,300.86488675460987L127.88795233109886,300.35418857249715L127.58064475513129,298.6054045140572L127.53141587160098,297.5795912212179L127.71788891527285,296.97448168431765L128.03452014342474,296.269073399184L128.0628640460618,296.0009431291037L127.9947081486007,295.7722749749437L127.4847043741629,294.8430586378299L127.07977815983213,293.91793955681624L126.99017786234799,293.54943958827425L127.02150533368513,292.8535837587324L127.07269218417241,292.59046593535277L127.15837654773895,292.42145496455123L128.25502451756438,291.6925848224755L128.4214517090386,291.56712835569033L128.50116893520863,291.4194214338977L128.60783151618853,291.1251838127455L129.25228235511167,287.6902486283652L129.23764422118438,287.1280796614301L128.88325220168917,285.25739467625226L128.31469589153858,284.0435731569969L127.7070734787394,283.63439812249544L127.58334861426374,283.40311547916735L127.49943574461213,283.0985495905825L127.41934557235618,282.2000680225865L127.41542963843858,281.6253633937695L127.53635740725986,280.9836461215473L127.36993021578382,280.20106749651495L127.33291531661416,279.2455419470489L127.62316060908779,278.22527590752907L128.14388658353528,276.7169761129826L128.20253235577002,276.4642444452802L128.18798745836466,276.2198148024345L127.95079374681518,275.6331777619962L127.41393785408764,274.96878628997274L126.62580953501674,274.2399465122571L125.77782336892597,273.6872004988163L125.27695677362681,273.20395991714213L124.92275122717547,272.7460272689641L124.45889953104779,271.8518567837891L124.36351856920919,271.38262236233186L124.37918230487776,270.79851343833343L124.44892322320993,270.51442875695375L124.5712495398584,270.26069724408353L125.44049363292652,268.9179696234969L127.0738110224338,267.66467359393664L127.85774369802493,266.79407085271123L128.90339129040512,265.8145226313218L129.61553184418335,265.29867647829997L129.78438318522603,265.13248856337486L130.19732774043223,264.46043378247305L130.2835715231322,264.169504131929L130.28879276835323,264.04834619355915L130.18781761520586,263.79215085918895L129.97206830368123,263.5987103464795L129.7138963747184,263.17666511506286L129.36584443870925,261.19363474081456L128.67775890756457,259.3761365834798L128.59384603791295,258.9001754826695L128.5875059544287,258.2320604690658L128.66843525538025,257.61757506129834L129.07541267319175,256.74395948891197L129.08827931320593,256.46040277294105L127.92580635896411,255.28373995403945L127.74530045269057,254.9326630780779L127.6893585395901,254.310896723503L127.73373912398347,253.6566637136675L128.01568636601405,252.36589173987431L128.18351210531728,252.0615257653517L128.56578184483988,251.74391336634926L128.9387279321818,251.3204093197064L129.15317193240298,250.53951125866206L129.10804545583414,250.22382014661616L128.94590714436345,249.97840583175366L128.7779881685383,249.5754536440927L128.61724840489296,248.96952861183308L128.6128662883675,247.93919841351453L128.35683879940916,246.4438962271215L128.48196221171202,245.93970104086475L128.82768323467462,245.49918133895335L129.15307869587923,244.84577131790866L129.1577405219723,244.2835786858368L129.06385134448465,243.79937580248315L128.56447653353462,243.1028903288343L128.32271423241582,242.57223559051454L128.205888870556,241.76246775037816L128.205888870556,241.4874899237875L128.28560609672604,241.2204536364261L128.50032980651304,240.9637452947154L129.2360592003115,240.6966904003657L130.51311983988853,239.7053897785272L130.93529481075893,239.20631009945282L131.3881445973111,238.53498571429373L133.04486435380022,236.94207370541244L133.5272701177746,236.24932872286809L133.97834841041367,235.29577163235717L134.07055933051015,234.9432298917509L134.0749414470356,234.5466338141796L134.0186265878474,234.14112914815814L133.59626514393494,232.65011100999436L133.62880469005358,232.29585283594497L133.72064266406232,232.01163812695995L134.3006670663981,231.34059927506496L135.91421831327716,230.12217272850012L136.0046577394569,230.0035178596936L135.95496267331873,229.65882411754228L136.1223222300123,229.13637785527771L136.8174937368167,227.9450749887019L137.32125066429217,227.38772351164698L137.8448669709178,227.02272747038114L138.59672628299631,226.6975487081072L138.5829272777646,226.06002996541702L138.80790700495163,225.51356117892192L138.9459902937906,224.74272683402887L138.92109614246147,224.6048607905659L138.68576716134885,224.3202218191882L138.6109914708377,223.95361534807034L138.71513666572537,222.5653958399389L138.93741253378175,221.4611460882852L138.95288979640645,220.96869207018062L138.3845199592979,219.25534850612348L138.30517567921743,219.14649038129392L137.59825637066388,218.75676799114808L136.09826720738056,218.1471547456631L135.81715909404738,217.95040896703722L135.2056207473306,216.89653469263249L134.75566129295476,216.36442277154674L134.42066247000002,215.48559748013668L133.76688797889256,214.1338483351019L132.86566375883376,212.77241008760393L132.49980364715339,212.32075963836724L131.70514877155074,211.58276139325244L131.48697531045764,211.28485398973498L131.3874919416594,210.70616924767L131.36147895206886,209.79580456665462L131.6759657402181,208.31950362030966L131.66552324977238,208.07018605658595L131.54245104094844,207.73806033133496L129.7234997364667,206.15323828952933L128.668528491904,205.55631347449253L127.95359084247139,204.74493600547157L127.42689773062375,204.2991935876571L127.12956646249222,204.1265894503349L126.88938918224449,204.09422573123356L125.98005338478652,204.17280406576083L125.5696262156689,204.30238992301383L124.51045932762281,204.8432168373647L123.52401692660533,205.0738654268098L122.47734373248568,205.0989007581611L121.46600718013906,204.8109893897672L120.56841918443206,204.4062700787208L120.32003709026321,204.35566197792014L118.02315537485447,204.21369110997603L117.08575538432342,203.43746503377224L116.84212835276776,203.1612114064601L116.72977834395715,202.71697311367097L116.88613599107339,201.24980024964316L116.59300036642526,200.57693335059412L116.59104239946646,200.07084425152334L116.73481311613614,199.22835245755687L116.95587690940556,198.53331188368884L116.91475960327807,198.0638730409646L116.56987770901105,197.2611469542544L116.4425166201836,196.5680565286675L116.43515093495807,196.11236021240893L116.55514633856001,195.44223083613906L116.5424661715897,194.9923331113041L116.4523996914977,194.69509773349455L116.53276957331946,194.00937101768523L116.65919829692757,193.76010936325292L116.81993806057108,192.57930431172645L116.95820782245391,191.9655534181411L117.29124867844803,191.14709596400917L117.48154441951374,189.85512475849828L117.6123552596473,188.02345956968566L118.110517995814,186.98992184243343L118.12170637843519,186.92117442803374L117.95854246522322,186.58717312468707L118.23014045333002,184.95579851181265L118.15303384977233,184.53531361821115L118.19927916460074,184.21135450864222L118.52607317363254,183.80338104615566L118.8141740261035,183.58729964948998L119.67129737133473,183.4656342553444L119.90177805331041,183.37495151309577L119.93869971595814,183.30216412585378L119.95259195771177,182.87477431551451L120.09589649177178,182.71783597391095L120.63405769580277,182.66280659920358L120.82314136208515,182.5478045808859L121.30181766518763,182.17674068477027L121.78963114742874,182.13426351070302L121.94850618063538,182.05491870751757L122.22523217744128,181.66272391810344L123.10669025487186,180.94306765370766L123.44420646391518,180.85328943753302L123.73342615464753,180.65783104208185L124.15196490116614,180.21412280876575L124.28035159173123,179.9052082657363L124.40538176751397,179.6268802694376L124.77692930702688,179.39090130129716L126.08447828924182,177.98208779676952L126.387310512162,176.79704574096013L126.55103384450558,175.52691955784394L126.84202502915286,174.53069294570287L127.25515605740475,173.83321495737982L127.59407081427526,173.46144963602183L128.2091521488219,173.02707586634642L128.4723588499619,172.6650337989886L128.58377649355498,172.31608188862356L128.5714692726724,171.69517725101286L128.37791025334263,171.12545640481676L128.20393090359903,170.79730203576764L127.92263631722199,169.870017240798L127.85037801279941,169.54983568844546L127.90025955198143,169.15765139674932L128.2204337679632,168.66548508239885L128.43058888817905,168.467431819593L129.38887385960152,167.7479724045388L129.72666977820882,167.64920190223074L130.2456242587432,167.00301241708257L130.31210189881313,166.82940970330856L130.60682254433414,165.2834040791222L130.57260474081886,164.71747691464225L130.80056803670777,164.08120933309328L132.00434477012095,161.97907764458796L132.80850977094997,160.92089026869326L133.2561383122793,160.49275043535454L133.66982875966096,160.32475642352165L134.06906754616102,160.28510178118722L135.47311632847413,159.28187618679294L136.15532795874242,158.9561471151037L136.23644373273964,158.80768174451896L136.13668065437741,158.34511539876712L136.1963520283498,158.19208161294773L136.73852240282213,157.63258365990714L137.74575654820728,156.73595904468493L138.0649983989697,156.5342371154511L139.65085839886342,156.51909099557815L139.71071624588149,156.32929275395782L139.55771511355124,155.4570432034725L139.57440445095926,155.31454058348572L139.6780834632391,155.2307536663393L139.91192066000258,155.16801340451548L140.5697975580715,155.4669633218009L140.71310209213152,155.42969578169777L141.17956441087335,155.0940113895067L141.9633106134188,155.18208979137762L142.52133119660357,154.7017347838655L143.06853634325307,154.33933646331297L144.21739676530524,154.21089064270564L145.10994998883325,153.61059823469895L145.63888077720367,153.3621270841768L146.11699766117272,153.35636106032507L146.91025398894817,152.97284338430018L147.7794980820163,152.88634802674187L147.84914576382835,152.80736146432992L147.97296386482412,152.163770734438L147.89706933605157,151.66484563453832L147.97781216396106,150.69546715635533L148.1034017588736,150.55193420344403L148.36231958000826,150.40947165237412L149.10569436859987,149.3764693730427L149.77634467015923,148.8263705909012L150.0993159817972,148.64831769803368L150.56736332141008,148.51977346932108L150.80455703295956,148.5581491191515L152.38519578763044,149.08438540901625L153.46105201308637,149.67940882158564L154.05431600152042,149.63755078473878L154.5349502715817,149.88976871808063L155.1612199887477,150.02928985395192L155.47887681864086,149.91405095023765L155.93321838954398,149.58455709852024L156.23353322637558,149.16059399976803L156.24490808203882,149.05473361578333L156.03130321051322,148.88151647661562L155.96193523826878,148.7586117036435L155.93032805736584,148.40773153910322L156.12006437929995,148.03039945977798L156.67789848944085,147.70927637299246L156.96888967408813,147.3509655255957L156.94446170536685,146.91372235578456L157.0081422497824,146.69750696726533L157.13168064121237,146.3406237262716L157.31787397531662,146.0975467584658L157.81538405582978,145.17013034023148L157.80960339147532,144.81894634230957L158.0051203777639,144.22823242594131L158.62346499057458,143.54952466694613L159.28283367299264,143.14549290034392L160.01557949809467,142.8060301363539L160.95232683297218,142.74023057345585L161.17516212015835,142.82469562045117L162.627600657308,143.77670734768253L163.65077824792388,144.11317199664973L164.4889745792243,144.49392525067196L165.47504403415223,144.64093159594358L165.86439974933637,144.59931365658122L166.4429323673212,144.2942873159318L166.60917308575517,144.12015354375944L166.57728619528825,143.85189630180503L166.60665569966477,143.46144251382248L166.67406570495223,143.22834201729893L166.94780813305988,142.98596881970298L167.14369806543436,142.71726773156115L167.1902230898304,142.5702232881713L167.3129223525666,141.76229974546095L167.20336943941038,140.90593370498937L167.21688873507628,140.62748600496252L167.42023758919822,140.30053504143052L167.67085735989167,139.6709056492673L167.703583379056,139.39711371006888L167.97434223846358,138.4199514694128L168.20025433087176,137.97989756984862L168.48984696769185,137.64140781700462L168.67053934700743,137.51186656432947L169.4666860069574,137.09406717308593L170.63894879599138,136.67463150540698L171.3958428802489,136.59681625644498L171.82519706329913,136.41027136809316L171.82184054851496,135.87681848659486L171.87209503378108,131.10669746217445L171.852142418109,123.97308353866902L171.84160669114135,122.19109725708495L171.86948441117056,116.19570854601989L171.86379698333803,113.57199813478564L171.9146108877394,106.68162469010349L171.9208577347017,106.29595380695173L171.93642823384835,105.44141462584594L171.93652147037028,105.0651269309592L171.93269877297644,104.16819465090794L171.93987798515627,104.04994534095295L171.94183595211507,103.41763037895362L171.9216036268772,103.06905103754798L171.93456350341148,90.18816177539884L171.93577557819663,89.6936981415738L171.946963960816,88.18995168354559L171.9671962860557,81.86049331074719L171.98015616258817,79.58224691397572L172.01698458871397,78.44285939937981L172.04765940439938,64.79606126194176L172.05232123049063,62.04172163583826L171.99684549999802,56.84011104804904L171.99684549999802,56.45970206493894L172.08075836964963,56.17438239660078L172.44438080480722,56.283076910606724L172.47235176135655,56.89445358012381L172.55626463100816,57.23408529660628L172.78935593559618,57.43799263439814L173.27418584913903,57.46516173905002L173.65645558866345,57.628174256619786L173.80563402359985,58.25302206338165L174.01075437163672,58.538261001112915L174.43954913555717,58.49751325951638L175.0270324596404,57.668926820760134L175.31606567732888,57.45157719928375L176.63060739868342,58.74199631893225L177.27403263586712,58.6333381858949L177.9360119408957,58.23943898056132L178.40219455007355,58.280188153678864L179.06417385510213,58.660502869823176L179.43711994244222,58.64692054041643L179.93127350816758,58.37526867858469L180.37880881297679,57.95418843933112L180.44407437826158,57.73684725856947L180.3881324651611,57.42440804438411L180.08045194310398,56.63645883231948L180.21098307367356,56.33755943049073L180.63987107411594,55.889187517584105L181.29252672696202,55.00595064681511L181.74938568395373,54.70698487206391L182.32754535585264,54.53031755617667L182.6818441388259,54.09542605277329L182.8216989215798,53.70128337668757L182.78440431284616,53.171196069226426L182.65387318227658,52.953713280757256L182.1690432687319,52.49154096163147L180.733200832472,52.369196359391935L180.10842289965512,52.07012319162004L180.06180463873716,51.49913148689757L180.15513439709503,51.29519511303624L180.4441676147835,51.03686757146443L180.83576100649225,50.80572469545041L181.21803074601485,50.3162216323517L181.3858564853199,49.63630209785242L181.60962413772177,49.45951269974012L182.56063666044247,49.56830667953636L182.98952466088303,49.50031063118058L183.6421803137291,49.13312108220089L184.77034222793372,49.67723503587513L185.37637961986366,49.78602578790651L185.60014727226553,49.67723503587513L186.06632988144338,48.41242417080957L185.870533185589,48.01797618576802L185.87995007429345,47.13379158996577L186.38342729220494,46.46718197932205L188.36936520729068,45.22903195953131L189.15255199070816,45.160995680851556L190.8960749490252,45.14738834938089L196.07070191087405,50.62923541021519L197.348135496537,51.295467031971384L197.8142248691929,50.96507809284503L198.49494471511025,51.15950630639145L200.36899880399687,52.831648242895426L201.720928370607,53.687963702866L202.79314837170932,54.218013702356984L204.55541187091694,54.57135911167279L209.7789880067303,53.175273809980354L212.52955863738862,52.8828940571957L214.1308026633851,53.24568244310012L216.01986783228676,53.18003117132503L218.80717365254895,52.56848107823225L222.58157452947853,50.60340072115105L232.29197180556548,47.12114017555177L237.40301145952435,44.45460574244771L238.93143776196666,44.024968723607344L241.06151933981164,44.271839570584234L241.06496909111956,44.272928287995455L242.39759869770933,44.392414041833035L244.82529125325345,44.02973202144585L245.88641610825835,43.51391693970072L246.56396591243356,42.77619749010228L248.63829205022375,42.47019908449147L250.58264647657415,41.872321931265105L252.9708067468564,40.66512033836716L254.08162666800126,39.64795960826632L255.34432888321498,39.43375234829182L255.97712515691092,39.571020022392986L258.0889323764768,39.07654475399886L258.8362230989842,38.49092086623932L259.63926926155,37.22676707437495L260.9390796124535,35.82533234946641L263.1240775016613,34.582521700986035L264.29139875503824,34.10310915124137L267.68791200897067,33.61235334484627L268.5420517855018,33.211247464180815L269.0920540278057,32.63224243609238L270.7771176869337,30.055605629941056L271.3306629170693,29.568123919110803L272.7929845255312,29.1472954183846L275.08203437310476,26.5508785130678L275.72294222419987,26.5508785130678L275.5305952796534,27.30100971702177L273.41515183573756,30.221819245613915L273.81905244832706,30.876137903619565L275.8530071721598,32.20641009009887L276.8497988270992,32.13811649113086L278.6925254446487,29.64012326104512L279.0254730641227,28.655661815010717L279.40783604016906,28.260148957760066L279.92035720069543,28.35711977720166L280.04445501125883,28.650206610605892L279.74842905443256,29.92743176606291L279.894250974583,30.198639558457216L280.99807815658824,30.582185765761096L282.6408124348018,30.38489308797398L283.4729483921801,29.851753590679436L283.73876571593064,27.348887821772223L283.99964150402775,26.96858244379564L284.92874344411393,26.84049092516034L286.115737603599,27.563448814619733L287.5356365946245,27.152053610266194L288.757128267187,26.073668293198352L289.06182522054405,25.478271484892502L289.25799486248616,24.187578468151514L290.6916928587452,23.034508716835262L291.99159644616884,22.392865220118438L292.58374159634513,22.423986433228492L292.92862349061215,22.20531615868549L293.91059053858044,21.10981889707091L294.92332563875425,18.965855242356156L295.4208357192674,18.609969082372118L295.75219831786853,18.627722831673054L296.71514511538226,19.358457060611727L299.7664035289581,20.328878300936594L300.5097783175497,20.045152305005104L300.9983376919663,18.96571868153478L303.7000523851839,16.67345905528873L304.49209663817237,16.25803554903996L305.9141400692024,16.107351605356598L307.6071288326839,16.76225088877709L312.46568398551244,20.996642289152987L315.3610509345817,24.840253579663113L315.7054666462409,25.554540646786336L315.6893367279645,26.24652075818267L315.3440818876079,26.667106821216294L314.70699673390845,26.90037637641035L313.90488293656017,27.838017693344227L312.89774202769695,30.19823050449304L311.2228411494507,35.08424961278979L308.7278318251447,37.7115599426279L308.50770039709096,38.58911827664451L307.80376465723566,39.631754700681086L305.8528836743553,39.7507714224821L305.1992024197716,40.883648501004245L305.5811924497302,41.779477799538654L305.31192537466814,42.57582987066144L304.91539044730416,43.08313590824946L303.1965751672724,44.18106718774834L303.3480845152553,45.45395540475238L304.56015929911337,48.67723648979518L306.209699843419,51.90141336099532L306.10480875635403,52.73404912438218L304.73991931321143,54.512106991191104L303.1175105967577,55.871116196912226L300.7481841038825,56.861712252693906L300.3872655278574,57.496541929855994L299.85740237426944,60.356738416822736L299.8479854855632,61.13980808440192L299.51690259652787,61.97709926711468L298.19359664212243,64.29758219149335L297.1734958567231,65.02323599177362L296.99429526175663,65.34268009844709L297.00054210871895,65.8295546131103L297.89057794615655,66.99830180651952L300.09692699886364,67.72396044827838L300.8848688448925,67.77374595614037L301.28047140703893,67.66237245995944L304.3030129718918,65.26098840647137L304.8656021446441,65.16762536131955L308.4168880248235,63.24649893843798L311.61079831680763,62.04172163583826L313.90283173308126,60.52294571794209L315.2925220910347,59.14293092407024L315.17989237265647,56.65683789402374L315.96354533868,55.94679804753832L316.7598784716738,53.20653641382614L316.9732968701537,52.895807402246646L320.93948527249995,56.68251543126553L327.1710414458739,62.19132838463247L331.05303726900274,65.44553977512624L333.6737294247432,67.27438340590834L335.55514919885536,67.99377487302081L336.7172492070076,67.20085310312697L338.5436594332368,66.83617534894074L341.5411203737149,68.93011286089313L344.91292594936203,70.6505588620912L346.72730866427264,70.02649276320153L346.9618917532098,70.4231510753134L347.0573659515685,71.2162679553121L347.0696731724529,71.2162679553121L347.69333226700655,71.90422658517036L347.89677435765043,72.53626747330509L348.23000168669023,72.97006935549143L348.3782477564073,72.97006935549143L348.41442352687955,72.97006935549143L348.53553776874287,73.19319623942556L348.831470489049,74.06354331746388L348.8590684995106,74.38557682508326L349.0410661901333,74.56529141968349L349.6090630811541,74.4232549090566L350.7994137554233,73.67114758803473L351.21869839411556,73.48992011461269L351.99852866274523,73.36995781402857L352.3643887744256,73.52760278397909L352.42611135188054,73.4842270326817L352.5496497433105,73.52136753545983L352.7505744478676,73.89601526475235L352.93275861153234,73.96093961474708L353.0687906968906,73.92529228679632L353.1302335647797,73.82458426393259L353.3118583093128,72.60418626892533L353.60797750266283,71.92578357145885L354.2995127851136,71.6561133285586L354.7688654360318,71.76430800686012L355.1734187042748,72.17320986647155L355.12717338944276,72.47363521398165L355.25378858609656,72.73066810387627L355.4390495549833,72.80495652837271L355.83726273974025,72.71209588057263L356.72944301718235,73.65040899333508L356.7788583737547,73.99102962030975L356.633689109256,75.0965487261974L356.3961224516188,75.76205703101914L356.08443275912396,76.05298627424872L356.1584625574633,76.63806207055404L356.4464701734105,76.78981105207185L356.4515981821114,76.78981105207185L356.5688897265809,76.66597327867385L357.02248540530854,76.49267819298984L357.1304532975937,76.48021271291691L357.4112817013611,76.6227515085393L357.9018922792584,76.57018048687678L358.2629973283256,76.43089256305666L358.2723209805099,76.29160200397655L358.40816659282245,76.14309476983453L359.0745280143783,76.43116355379516L359.28748023024855,76.42818265513688L359.70732428807423,75.96707729806894L359.7599096863869,75.75352004214346L359.8741244256362,75.66679451464006L360.2966723425925,76.1220921363547L360.3552248783071,76.3078617381716L360.0988244432592,76.89589799138503L360.4996482506285,77.400704553178L360.498715885411,77.52723947409049L360.4869680836582,77.68926602661668L360.47522028190724,77.86849358664949L360.52221148891294,77.98784073645402L360.68071357603185,78.01344390252143L360.8627112666545,77.98784073645402L360.9918438493951,78.14145839756293L360.9918438493951,78.29493739301688L360.9800960476441,78.46561636740353L361.18997145829417,78.60811673491116L361.42436807418926,78.602021243325L361.5972285856715,78.51248466331708L361.73615100320603,78.34546420001698L362.57210965798004,78.25863373588618L362.7726614164476,78.32975080656342L363.0195517262655,78.27380543526124L363.6826498695573,78.01967534745927L364.12048857609625,77.65106276270762L364.2346100788218,77.66962252915255L364.3242103763059,77.90168339682441L364.1825840996389,78.35359180416344L364.17335368397653,78.52995860482406L364.2382463031736,78.74966617613518L364.3863991363705,78.77120312536681L364.9816210917652,78.52643672847807L365.15121832498335,78.52332122107237L365.5183837479708,78.7460089520846L365.6794964577002,78.9914452926987L365.6816408977029,79.2306430389508L365.96974175017385,80.29109213830179L366.6917653752662,81.93983465491237L366.90453111809256,82.22429207534697L367.6814710545459,82.70991579887414L368.0915252775758,83.17993983722045L368.1253701350033,83.30366813855107L368.05143357318775,83.45216643102412L367.8109765833742,83.6407292298527L367.6907947067284,83.97479705794649L367.9280816547998,84.37679539594865L368.0760480149529,84.52824968846926L368.89895355666886,84.84062279581121L369.0037514072119,85.33541202596462L369.1298071847323,87.03254655709043L369.4378606528753,87.15323363687276L370.1499079701316,87.12685041934856L370.15084033534913,87.19991140579987L370.1865499232117,87.43464874884194L370.47595608698794,87.83659372408874L370.9252628857121,89.45294618738171L370.95901450661586,89.74658136625567L370.89085860915475,90.65486932551539L370.995376750132,91.26042264041189L371.4536342549527,92.34185666723715L371.881496653652,92.6169899370716L372.0242417685822,92.894546420408L372.2533239027307,93.8340780535973L372.71475144929354,94.5445278541738L373.10233567056093,94.92148723243645L373.2223310741647,94.93392156293157L373.38232494563454,95.05137089013624L373.1579978740974,95.89873468952828L373.1573452184439,95.90305910370898L373.2311885437375,96.32454218892053L373.49551408314255,96.67979089769324L373.9168499253137,96.99192000233597L374.2519419847904,97.43590428976131L374.2674192474151,97.56858096031374L374.26480862480275,97.75259496117269L374.31124041267685,97.90390993895562L374.43375320236737,97.96051715572048L374.54712881291925,97.9567343480876L374.55328242335963,97.95578864587878L374.6338387782271,98.02522988606415L374.81872680102424,98.57749415857597L374.82833016277436,99.18550447084363L374.76073368444486,99.34286845620136L374.5497394355316,99.4756459309665L374.4672251137072,99.75713168331458L374.50601150678995,99.94001062933239L374.5643775694589,100.05967638010316L374.63719529301125,100.3199359389946L374.5740741677291,100.66472858635552L374.4234039484436,100.8057202367645L374.3958059379802,100.87662019314757L374.4081131588646,101.00005201686417L374.4788796789362,101.04934314243565L393.283847004388,106.32915090283859L394.1125332104584,106.50984304946542L394.2723406088826,106.55909742389849L407.6694964313756,110.3304677589449L416.70308979545916,112.7962314020233L419.42568946956635,113.60421887193388L429.1796282013511,116.25756647092021L432.7298884797892,117.31109327992453L453.133768918191,122.99321245840201L453.170504107793,123.00250285901893L458.44069850452433,124.44681642265186L458.60927013600303,124.49137456353947L459.7746334224212,124.8386765642299L459.9954175061266,124.89090506876164L460.18244996892645,124.97086242661226L460.814127404361,125.17061744089733L463.38941337396864,125.85356659768422L463.8677167309834,125.99515558580515L467.28213139710897,126.9755716164409L470.40611429771707,127.78645326056721L479.80650013870036,133.3290484013105L483.73259683665674,135.62694666044808L484.23784554848135,135.93098539455787L492.909681207846,140.99230006796824L493.078066366279,141.18249056770583L493.1587159576666,141.4104172530333L493.5033181423696,141.96254298278927L493.81277015833984,142.22281082664995L494.05453245945864,142.34850967496914L494.3101870023311,142.32782860050338L494.6556283157315,142.4231759317854L495.6767547028685,142.87424621026094L496.0593041519569,143.18805893167882L496.1583213381473,143.31830678592996L496.1394875607366,143.4034366227288L496.48269119761244,143.4989044109343L497.4324916455462,143.21316874737568L497.9267384477953,143.23089327202342L497.98920691742387,143.06183718117518L497.9470640095533,142.7947502527095L497.534212690869,142.36731060175316L497.9526582008639,141.87363618945074L498.3615935856342,142.09590117601783L499.0501452993849,142.00833896681343L499.5340428477102,142.12114898312484L499.589332105159,142.20145792615676L499.57944903384305,142.5232221668084L499.1224968403294,143.1299166259887L499.0878128542063,143.31427853602509L499.0986282907397,143.58953725105403L499.2652419552578,144.1770797598001L499.46933670155704,144.32771731066532L499.81692245495833,144.26125994439826L500.4206289338399,143.8535074853453L500.5157301861127,143.63827712088005L500.551812720063,143.55368705990531L500.61661210273815,143.49433917194074L500.6637897827877,143.46036833477228L500.7521780054867,143.42639734214754L500.8405662281857,143.4348565366672L500.97492005615095,143.454057529716L501.32203962694257,143.73978392177105L501.4549949070806,143.77643881433778L501.67158334730266,143.6917160594303L501.882484359694,143.38463832004072L502.055624580742,143.23371307886282L502.5921075273818,142.93641897566158L503.19143188973794,142.73365058508716L504.0603030367183,142.83745257898136L504.6079743659775,143.11031195835494L504.9507118202455,143.44465844841488L504.93262393501027,143.90184282895825L505.20506105181084,144.61663211775158L505.7036899705854,144.69933056912396L505.95738654649904,144.21131583520037L506.4833337661694,143.96279861917174L507.0400490380489,143.99649863196828L507.69773946307396,144.32785156736918L508.8659930816684,144.582532163422L509.28798157949313,144.98138443041898L509.581490150229,145.71472802405242L509.7067067990556,146.40558607437106L509.6298799050619,146.40558607437106L509.59929832590024,146.53054304283614L509.95387681844113,147.06443860854142L510.2840273422589,147.3068129178273L510.3133036101153,147.42021346384172L510.24328298221553,147.56246495500545L510.2020724395661,147.76402796878574L510.3050987961924,147.86480742452113L510.37922183105184,147.9123115140328L510.5274679007707,147.90036842407335L510.8586440263298,147.83756624178022L512.7476159587077,148.41819780294645L512.9249518232373,148.3968627110453L512.9954386337449,148.06864344884252L513.0688157764307,148.01040515553814L514.0112505391389,147.92532811829915L514.7144403868206,148.05052789962065L514.9222645939899,147.90627287544157L515.0260368427935,147.65774509062157L515.1658916255456,146.55953383277938L515.1749355681641,145.95258265893517L515.5504922781165,144.9244643808579L515.87430271845,144.22769539190813L516.1097249360828,144.03731437888382L516.4217875746654,144.03409209123038L516.8164577715925,144.36853123671517L516.8684837507772,144.4604960043116L516.9083889821231,144.8440506426441L517.1991936937266,145.64788037257313L517.2695872677123,145.71835227712108L518.0462474945998,145.4635764014156L518.7618377996823,144.81599288963298L518.8962848641713,144.54588125047667L519.4620440786657,144.29119939717748L520.4408410848919,144.38934088238693L520.8353248087751,144.66872150943072L521.7376678670953,144.5523253801457L521.9303877577277,144.4143123802005L522.315920775518,143.9695117813335L522.4414171339067,143.72407462669526L522.4139123599671,143.59208838164886L522.5454690922761,143.55221008202625L523.0807399641308,143.6045754819379L523.4109837244705,143.7796612138245L524.2062912557249,143.7248802323802L524.6803989692562,143.8265201149252L524.8974535920879,143.94319615092263L524.9891050930528,144.0997459260634L525.0132533522083,144.603072705846L525.5552372536349,146.33847620093002L525.6827848155062,146.34706629857556L525.8568574017718,146.5324220789471L525.8569506382937,146.6305339468363L525.7440412103515,146.8883566305376L525.8084676469407,147.05088366556356L526.2673778074113,147.4524215872325L526.8025554427459,147.6145336876216L527.5270964539268,147.5007335104383L527.8051277620398,147.3626410953202L527.9884307639677,147.1171818641269L527.8843788056001,146.85641448291426L527.9269878960786,146.56490248516093L528.2850161399256,146.26505730472854L528.7803817804361,146.30787389731358L529.4222219967469,146.48155371929988L529.8228593310723,146.73293934300546L529.8688249363386,146.91399077569167L529.8321829832585,147.28211955162078L530.1991619332002,147.71759649443993L530.3459162185682,147.77275061221735L530.8748470069386,147.6499616887686L531.1867231724773,147.680692658957L531.5536088858989,147.99349717840414L531.7156539608477,148.251138369199L532.4554857616113,148.53332573193984L532.7061055323029,148.82476048589797L532.8100642541503,149.06090549200326L532.7427474853848,149.2786621035748L532.9933672560783,149.51787842971316L533.3142873642337,149.7112046727325L533.5068207818222,149.68973913413993L533.8585089421849,149.19923467666922L533.971604843171,149.12557571271736L534.6257522803662,148.92351294710807L534.9802375363834,149.04641499190075L535.328755655004,149.0312536050542L535.9311568225803,148.7247991168606L536.3534250299726,147.9951074635992L536.2680203759719,147.7098131553048L536.7389580477593,147.51992399272967L540.9863477999606,150.5852019010572L541.4050730195231,150.96844040198903L541.5732717049123,151.2228934090681L541.6162537414784,151.90961818226242L541.3902484125501,152.2192941985004L541.701938105045,152.42770465991634L541.7905128007897,152.39699331815245L542.3007030482695,151.7716076932884L542.6398042781839,151.6366795090671L543.327330390197,151.85127586845374L544.124968834496,152.28058411072107L544.4976352122703,152.60258254527344L544.6565102454788,152.9397204748293L544.9253111379294,152.95822641005907L545.7687287144508,152.4250224517191L547.1621485332762,152.10382102126823L548.0056593463196,151.83451075103312L548.274926421378,151.39927506659296L548.4277410806662,151.29210526579027L548.8643677124201,151.34455025504212L548.8643677124201,151.28754481444867L548.9590960186051,151.27533888679682L549.2210906449618,151.36654753165385L549.2555881580411,151.937515034816L549.195730311023,152.22304939365495L549.2728369145807,152.55162162315628L549.394044392966,152.82050359914047L549.5743638261956,153.05906953729755L549.8397149673383,153.24425794029503L550.4487359279647,153.45572377598455L550.9290904884601,153.41777568912494L551.3220824279961,153.28046367826573L551.4718202820623,153.30714853521022L552.1377155210103,153.51324895163907L552.4982611509458,153.84109372670537L552.6449221997918,153.87474895680134L553.3659202231429,153.75501073170017L553.3413057813777,153.12973937091556L553.7598445278963,152.69444543010013L553.8820776080229,152.66373519056833L554.2853255649588,152.74030939436034L554.4906323860396,152.8116527762122L555.5890518497799,153.49514667164203L555.8199054778433,153.79201849657784L556.0906643372527,154.31252123521608L556.3267392105408,154.51966635977078L556.8989317450414,154.67116690632156L556.9785557346895,154.5769151593022L557.3888896672852,154.5740996548784L558.5405471849936,155.0768513967605L558.5343003380312,155.22699999035376L558.5800794702518,155.30046444739583L559.0394558133339,155.70772321590812L560.304955124202,156.30489743085673L560.4267220217189,156.50783191302617L560.3047686511582,156.69883189785287L560.2894778615773,156.80605780929L560.4024805260397,156.9286955499938L560.8237231316925,157.02908275254504L561.1367181354926,156.97681188160914L561.4314387810136,156.83326613836925L562.4253401037749,156.84532891251183L562.5911146395993,156.87910457601174L563.1889472176063,157.4950814322192L563.2902953168395,157.77624798901616L563.2954233255423,157.94778385133668L562.939446285176,158.15321964234772L562.6782907875149,158.3960366257961L562.4355961211786,158.89223233237317L562.3329427106382,159.22184985284275L562.2901471471141,159.7009751279311L562.3045988079994,160.19936129137204L562.3543871106594,160.26607819531364L562.6931153944861,162.0193929470115L562.8419208833366,162.3273089321492L563.2500171394076,162.48307019083586L564.3572940727208,162.32985363927128L564.5609226364086,162.41958749192145L565.2916172580317,163.07889722897016L565.3671388407201,163.56647833457282L565.1795469587851,164.5198541708305L564.9568981446446,164.6546827226266L564.5739757494666,164.48571149857798L564.4854942902457,164.50485819289224L564.2621928204499,164.83971654094512L564.035255126304,165.50697830379886L563.9041645766029,165.72104098468662L563.0183243826486,166.48647556206834L562.2448341975032,167.70046101208027L562.0148196981354,167.91191783943395L561.768954990057,167.9515318683707L561.5320409880733,168.1261790441631L560.9301060031066,168.78137056247488L560.7227479785452,169.24034499214758L560.2695252459052,169.5604060471478L559.7257698505618,170.10161512563718L559.5927213339019,170.29347065808997L559.4954756416282,170.65000913305175L559.8941550089967,171.68233593682453L560.11540527531,171.9530689584526L561.3682244192096,172.6497867208127L561.9759400685307,172.71599091283042L562.1624131122007,172.83850055310722L562.3629648706683,173.18140984096135L562.3477673176094,173.3505850921647L562.2701012949201,173.51989023348233L562.5595074586981,174.35057978615714L562.8980492694809,174.50769432885318L563.4172834595811,175.11312263167656L563.9260751592337,175.24160937064698L564.7489807009515,175.2077832119212L564.8797915410869,175.3015066980406L565.0649592734517,175.65486439388224L565.464384532992,175.8346786592001L567.4649605820086,175.73962496719287L567.6626220082999,175.52879128496352L568.0185058121442,175.37250045156816L568.3732707777272,175.00696230219L568.4358324838777,174.634720686543L568.481704852622,174.58257328587842L569.0561350636472,174.55716800978098L569.2840051230123,174.63512181898204L569.6472546120822,174.6408713815399L569.9855167132991,174.5199959234369L570.5460546825725,174.2042931406304L571.5292338053259,174.23946103331764L572.0373728493269,173.98552640045L572.5704060446569,173.80580124153312L572.9833505998668,173.81141771835883L573.1340208191523,173.88710601698403L573.3101446088967,174.12138718551523L573.8066290876704,175.47598166079842L573.9695132913148,176.2737013623164L573.8838289277483,176.52715702110527L573.7343707832479,176.57862243932777L573.5287842526013,176.54787690753437L573.1342072921962,176.81268535240815L573.1503372104726,176.9356623503927L573.451211466434,177.26033861118776L574.3457226569226,177.6053167071268L574.7544715686454,177.69834177571647L575.2655009448245,178.0054766479052L575.542786360762,178.43675391328543L575.4748169363429,178.6148974217749L575.5935070286396,178.78074212903266L575.9827695073018,178.89473316922067L576.431983069504,178.7548166082006L577.3966081244089,178.88738327194187L578.2849657044553,178.7975803056188L578.7935709310659,178.4942200262003L579.0284337295689,178.59765791340942L579.4584405682726,178.9452468127247L580.6766689625692,178.77045211350833L580.785009800944,178.63908612213163L580.9619727193858,178.6278604366953L581.0753483299359,178.65472187011164L581.2571595475147,178.81922933393435L581.3884365702597,179.0035108019665L581.5090846295152,179.41188048139975L581.6621789983674,179.54470271060836L581.8795133307649,179.57383242043124L582.2643004563797,179.3373172676711L583.1634734729578,179.2405710547664L583.3918097149308,179.2320188429694L583.7646625657508,179.35963285963135L583.9953297207703,179.8204950352556L584.4827702569237,179.94903429120586L584.8529192486094,180.45408392650643L584.9546402939322,180.80238791530155L584.8778133999404,180.85983580232278L584.8362299111996,181.59740064377638L585.6604407642244,182.9593193048895L587.3514715607471,184.29802095756986L587.9016602760976,184.56255438622702L589.6828507892351,185.0479308115382L589.8874117181431,185.19120095421567L590.2861843220307,185.6436922251296L590.3594682281937,185.89295793365L590.3599344108025,186.0822714792812L589.9771984886693,186.51201409682471L589.9870815599834,186.59478243345347L590.3676730421157,187.11820415957482L590.6579183345875,187.3763639717963L591.9774948281201,188.2682414258379L592.4903889347361,188.81903798886106L592.6225983226977,189.17989647736158L592.6292181157478,189.83257365326153L592.6040442548519,190.03593145390732L592.5466105574014,190.12319747335005L591.2662866395622,190.38285455168352L590.9354834600908,190.54216691281272L590.5264548387995,191.02862231973086L588.6734722038473,191.53052142920387L588.6078336924757,191.6388482310458L588.6261080507566,191.9193966717803L588.7423739934857,192.16018234157218L588.7173866056319,192.41830129527534L588.5324985828338,192.80059442731454L588.5860163463676,193.6106017271868L588.7989685622388,193.81719088290356L589.2223556078916,194.03897778845203L589.88274989205,194.73163605305126L590.4154101412951,196.0382302729031L591.1144975820143,196.74750099300854L591.1894597455694,196.95267032798165L591.2173374655986,197.3829877149792L591.5776033859693,197.6615876808337L592.6191485713889,197.94910795355645L592.9150812916942,198.66819345861586L593.0486892274839,200.18837510551384L592.9590889300007,201.4272671316803L592.5809215974377,201.80257173455266L592.1714267935376,202.03198188663555L592.0670018890823,202.18252014860354L591.9954894768352,202.37621713603767L592.0180527151197,203.23806794816574L591.9216461515416,204.16574536775988L591.8776385132351,204.4313076441149L591.6840794939044,204.67781664664653L591.5444111841962,204.8164494216462L591.0629377854393,204.9404310242826L590.2640872663551,204.84201829840822L589.5516670030138,204.53412059796574L588.0970840258633,204.05453669939288L587.8786308552044,204.153226151142L587.7012949906739,204.8864972820602L587.759381343777,205.29505234322005L587.8220362864495,205.38746685439946L588.295771053894,205.8065137230824L589.0811955138324,206.2752005616785L589.5524128951884,206.7390651074429L590.16572273582,207.41710239116674L590.517131186617,208.1161100972531L590.5195553361837,208.28329784778634L590.4110280247678,208.63509872814575L590.3931266125746,209.0515680681674L590.4413298943646,209.92569233790528L590.6218358006372,211.31532384846378L590.9456462409707,212.37251124827435L591.4658127962894,212.54000308156355L591.5073962850274,213.2132585137242L591.4441819232234,213.42542586038508L591.1680153455482,213.91664668872363L591.0360856671505,214.34372857225208L590.9859244184045,214.9959424245726L590.930168978347,215.18438760714707L590.190710123672,215.98958161915925L590.1443715723199,216.2636336983287L590.2856249028982,216.61612359982246L590.2949485550835,216.78112732007594L589.7638733267104,217.46556809919912L589.6238320709144,217.71696605947363L589.6233658883039,217.9750024718287L588.8699215553552,218.5338514975001L588.2757252016991,218.78361854657123L587.8071184429564,219.18982115518247L587.7524818411594,219.37909129213494L587.4759423173973,219.74047233150122L586.6548082695963,220.0682121921309L586.4110880015187,220.63089190031405L585.6774098111982,221.00271044119654L585.0807893079736,221.9203509130475L585.0572004679516,222.10649624701546L585.2271706472548,222.5699129517052L585.1987335080958,223.3776350763037L585.5918186841527,224.36099904026014L586.002618799359,224.7591962112092L586.1216818377425,224.94752893727036L586.2023314291309,225.23533152185246L586.2345912656856,225.98513355986142L586.0810307142219,226.24368234845406L585.3200342230039,226.6364682340154L585.2601763759849,226.86073736187336L585.2760265846964,226.97612247784764L585.5345714597461,227.414675952974L585.293275341237,228.0624348161955L584.8029444729054,228.46003733122689L584.222267414918,228.74093512402487L583.9739785572692,228.97443336809556L583.8009315727431,229.2377904925297L583.7759441848921,229.54586943234517L584.1398463296136,230.00975591405222L584.1681902322507,230.27666014951228L583.6668574543455,230.67626878918873L582.921617935317,231.43839925829434L582.6444257559015,232.05807917425045L582.62354077501,232.5125228354409L582.7263806585943,232.72308346415684L582.8922484309387,232.90537882367698L583.2704157635035,232.96614296004645L583.3896652749299,232.9380163903652L583.977614781621,232.5670542264761L584.1495429278857,232.3755955530787L584.2018486166362,232.20549442410447L584.1868375366194,231.9927962487136L584.1943896948869,231.80145562376674L584.2839899923729,231.7270145761904L584.4409070586207,231.7376301004697L584.5829062813755,231.79070749671246L584.7098944241152,232.04600452958857L584.7472822693708,232.343751641155L584.7846701146264,232.50323521112477L584.9137094608468,232.73502434368402L585.1578026750103,232.97755276487806L585.367957795228,233.08554703570462L585.9118064270915,233.20242851969397L586.1324040377531,233.4684232995496L586.180793792586,233.8453104930386L586.0338530341742,234.15253716787902L586.0484911681006,234.28372814914383L586.158976446477,234.404570392383L586.3235389075162,234.37260243595392L587.2770688163237,233.78561473261652L587.4037772494967,233.6065246040971L587.5416740652918,233.00567918646993L587.7925735455492,232.83731710018492L588.0570855579972,232.86968961480216L588.3234623008784,233.064319783246L588.5158092454249,233.04110240715727L588.637109960333,232.91851347122793L588.6861523708185,232.7841144266822L589.8937518016273,232.96733701019912L590.7899412495053,232.6570102541982L591.7353595809136,232.6787693674678L591.9551180628796,232.78915609270825L592.4111378911757,233.17218013760157L593.266582979014,232.97304191387957L593.5012593044721,232.9751646676259L593.7074984907722,232.97715474872348L594.3642565505779,233.34783132248504L595.1123864017827,233.2097252602889L595.3596496576902,232.90285803010374L595.34342650289,232.5825776887341L595.4085055951309,232.4674114097097L596.5810480937298,232.04202387324676L596.632421417261,231.8573190980378L597.041916221162,231.22076933623157L598.3955240451633,229.49144882446035L599.3802881887859,228.9928845967106L599.5259236358925,228.64655145252254L599.7524883839524,228.42950432891212L600.1757821930842,228.102262394822L600.7203767171231,227.84125514973857L601.0630209348674,227.85068130693617L601.4683200952841,227.99817921040358L601.7543697442752,228.49747327757996L602.4861832041597,228.82881308720243L602.5297246598566,228.93567236599392L602.5434304285664,229.41140999398522L602.6264109329986,229.55993908628352L604.1334860719426,230.64747007346068L604.2010825502739,230.84083075963736L604.2772567886113,231.4498113849986L604.2003366580975,231.9923981803513L604.486013361,232.577933921335L604.7570519299761,232.631801446566L604.9607737301858,232.8381131472961L605.0304214119969,233.0400410396769L605.0560614555006,233.76823654429154L604.9934065128273,234.5423891943983L604.2802403573105,235.67628062388576L603.9021662612686,235.90213655210027L603.7368579080558,236.10583871698236L603.6971391497536,236.26152922540496L603.7464612698041,236.93093512600262L603.5445109635084,237.34583605992066L603.3974769685747,237.49725792289883L603.1942213509747,237.59736439656353L602.4571866458691,238.71806807892244L602.1068970333336,238.9919541503623L601.3224981751337,240.0240411139639L601.3150392533871,240.25891190187758L601.0552823035541,241.05585383931702L600.7658761397788,241.3997599416989L600.3202055654056,242.21645732108118L600.2042193322432,242.85949603859171L600.300812368866,243.46723831354302L600.2706037357902,243.81858553952588L599.8722040779885,244.1337507006765L599.3049530791441,245.02128232248197L599.431568275796,245.28593192667267L599.3042071869686,245.77520451932196L599.0864999084843,247.02340744510275L599.0996462580633,247.71979479799393L599.0208613971126,247.84571763121403L598.9076722596037,247.905301833478L598.5670792453411,247.88160061843246L598.4539833443541,247.93588820735295L597.904633757702,248.61074292207286L597.8068286462958,248.83541625846192L597.8334010550197,249.04221041862002L598.1117120726976,249.24515972487188L598.1658824918832,249.45657597957597L598.0615508239507,249.9249272167972L597.6439444426514,250.50205258641927L597.6137358095757,250.8753073540238L597.7163892201161,251.33708524219765L597.7142447801152,251.76707305674609L597.549962028641,251.95697983027367L596.7687332121841,252.39407805318842L596.4747584588386,252.7284681869951L596.265908649927,253.2478219096147L596.259102383834,253.39998245632705L596.8739972453368,255.96759177615695L596.7528830034726,256.5301026380357L596.7906437948159,256.6815356058396L596.8809899844737,256.7749067306522L597.2790166961877,256.8575643384647L597.5678634408332,257.03173748025074L597.863143505484,257.31527268960235L598.001133557801,257.6208810131784L598.4837257948193,258.1478311965184L599.1012312789344,258.4400511695012L599.398469310544,258.82904315790256L599.4677440462674,259.00422843578235L599.831273244904,259.3311859874093L600.0992350086572,259.465772559809L600.6179097796257,259.5538210205232L600.8677836581437,259.688271414655L601.2360679193935,259.9621884922781L601.6577767076533,260.3981614512759L602.4116872232125,261.59781615034353L602.3922940266712,261.726018282734L602.1604147968665,262.1073076141265L602.1885722264615,262.2553246183834L602.725801065274,263.41689288062935L602.8607143123709,263.57875820794834L603.2241502744846,263.8377355032917L603.7654815202595,264.570091001111L603.7734066246148,265.13645175182864L603.8907914056044,265.23777656262155L604.1534386876147,265.23037870856024L604.5844711280588,265.08968599532363L604.9873461389079,265.38890256421564L606.1137365591985,265.44834815093236L606.5402936465953,265.40792520295236L606.7234101754784,265.5268156078637L606.7925916746808,265.69656143738484L606.9034498991423,265.79048141787916L607.4657593623297,265.9131964792832L608.0915628968878,266.22162648755784L610.2375879199672,266.9315619782783L610.3934793844746,266.85561858285746L610.6788763778122,267.6175273236486L610.6000915168624,268.175339942185L610.2652791669525,268.37064384395217L609.972982670999,268.19343118547295L609.3081130337923,268.5680554283308L608.5113137181897,269.4500721812483L607.0798533984544,273.4706565920251L607.1782179289912,277.5578152241487L606.6556272241041,282.47712331089224L603.703199523673,282.98191249770207L600.4839288977482,282.82402122663825L593.9219424909916,284.0073347161324L589.6221538135205,285.4884888476827L589.0127599068064,285.8710830548116L587.1943680214554,288.4252992256088L586.783661142771,289.39494045555057L586.7029183148625,290.1627428129159L586.850232019362,291.0115668504468L587.1446729553172,291.86332338794L588.24579627819,293.75580178087966L587.7784015942316,295.10991408529026L587.2567432545638,296.02462528205706L586.3276413144758,296.4912801521905L585.9113402444818,297.22534491860733L585.7349367451698,298.1578202877836L584.6574954988446,300.43163703551636L583.5404287307356,300.6242685735524L581.4035408867967,302.1560737969812L581.0914782482159,303.29207333764043L579.0093202425924,308.5699636236923L577.6446172724918,311.5214732964514L576.7022757463037,311.9118139336151L575.4758425380842,313.1638407733126L573.7248606580215,316.23152956346894L573.14464978264,320.64098139194175L573.1080078295599,323.0178016527825L571.9915004805844,323.5972412788942L571.2753507563684,327.12981848387153L571.3036014224836,328.0054350886476L572.3056143226459,330.7706366736529L572.0047400666845,331.47507188495183L571.0302319404636,331.6677030621522L570.6564467244261,333.02240021090074L569.6589091773112,334.7373580154999L568.8197804807951,335.02532830034215L568.3443674559585,335.5764992207096L568.2313647914943,336.3607135334414L571.6714195011245,339.94217958986064L574.9175422453354,341.10942615009935L577.4256979192232,341.18776809609335L578.8055984423827,340.3637640605093L579.9245299409267,338.7809030589906L581.399811425923,336.05499473171676L581.6132298244047,335.3731033424756L581.1656012830736,334.4330139402391L581.3996249528809,334.0104463732787L582.2818289224851,333.4295740347861L584.5971714692168,330.8824810876249L587.9570427700673,328.8982427062747L590.010950109574,327.22717243183615L593.1491981980216,326.8415491472715L594.024316191968,326.4822454270443L594.9327196242075,325.5510167779885L595.4112094542643,324.62531014108936L595.6433683936348,323.1925558583316L597.375050313678,321.23987852621485L598.3126367772529,319.767007791168L598.4404640486891,317.8564797208355L598.122807218796,316.3925312649362L598.2092374745371,315.66045117011436L599.6112350533722,313.8654473697907L601.2563934811524,311.15225270582323L605.163656401699,305.91833820813827L606.0210594564951,303.9687021641048L608.5422682434382,300.70736817535544L611.2234709018521,298.9443303634189L611.981577060892,298.76980583057684L614.1154813361345,299.0102198911718L615.9139206058126,298.2017512649627L617.3923721325518,296.6023153047663L618.6570323147243,297.3009837492773L620.8097703673757,297.394774850085L624.6702285539586,293.55983679761994L625.0390722343391,293.5568097634632L626.2325929503504,294.233913993181L626.346434743512,294.5257936939761L626.2676498825604,295.7676699641879L627.1940479635141,297.6028738178311L627.6111881622055,297.8584515146613L629.5430488946286,297.1369451886194L629.6540003556138,294.56040266868877L629.4894378945737,293.9222824851986L628.7432660103268,292.8384471634572L627.5498385308374,292.0103634598381L627.6611629379086,291.0472451301239L628.279973733328,289.2802440292817L628.7427065911961,288.07299487191995L629.3162976735257,287.4107499744987L630.4769058973297,285.14355777847504L631.83042048481,281.05641548674794L634.0523400366637,277.6430150307697L635.389351759778,274.916276290066L637.1875113198921,272.50860398913755L638.9171420364564,271.02411024363937L640.7262102696232,268.6916496167978L641.1303905917785,267.20944224986033L641.1254490561223,265.4365911720697L641.4187711538152,263.3706450059126L642.0678838188296,262.09607406209943L643.0169383745906,261.2241671868642L642.77303163347,259.7051932215263L643.211243286094,257.3407956246874L643.8648313041595,256.5964954581068L644.726616475481,256.31187510229483L645.4353072779495,257.5423312042667L647.2214393267468,257.88945169726776L649.099689059115,256.5749376942367L649.8352319798723,255.18029699883118L650.2091104324318,254.9505215659674L651.6505470600014,254.23879496260088L653.0191659640195,253.95673153241296L653.8900883144834,254.3474103794315L654.2366484661434,254.1869341865895L654.2895135740246,252.28993373163303L654.0840202798981,251.7151952512977L653.9712040884788,249.96622756671604L654.5667057534401,247.51389119765372L655.2836013698306,245.46341943712196L658.1205090197091,244.30835101825505L658.7993641351904,242.36976868070178L659.0277003771644,240.41120286395017L659.8548947988857,239.9248948085251L660.0494794199558,240.715510460509L660.6020922848729,241.63657553595476L661.329803337795,241.78512812507597L662.2331719978565,241.38876049104783L663.8340430777653,239.86511478643843L665.9713971043138,240.023245827947L666.9743423696946,240.38018824460687L667.4941359789264,241.00098643931597L668.1864171535517,242.62152644745947L667.7973411479325,243.50022749578784L666.8770966774218,244.48811357407885L666.8232992043213,245.24208921742047L667.0383026236741,246.50786183730816L667.5938058207685,246.90131121599188L667.937755349818,246.86780724046275L667.4028574240492,249.39223828660943L666.730249155531,250.90932291427453L665.1607987834786,251.4518304690182L664.9227659432345,251.19758868897316L664.7194170891107,250.08139080680394L662.3879446241035,250.06193231410361L661.6082075919958,251.48332885273885L661.1429573480373,256.4622543906007L661.2057987637545,258.51211272380897L662.7328265183705,260.10271254945565L662.3349862797004,260.71302981218923L661.1570360628357,261.6073322598386L660.355761394183,263.5921036839409L660.6627892605866,264.0936650396561L660.8583994833971,265.0784568863128L660.9272080365117,267.66652246127796L660.0665417034515,267.88534591633106L659.5338814542065,268.9616747469554L658.0052686787194,270.0882816805042L657.7895193671939,271.63011250738236L656.8783188392981,272.15252105745003L654.1262564242907,271.73464990656066L653.7957329543851,272.444066853961L653.7857566465491,273.86520787030804L652.4267411042792,277.77028539762614L651.0561642333032,278.2250121528559L650.175545284571,278.7824371007928L648.4626039054165,281.94699247041444L647.7627705725208,283.562180712237L647.858990663055,286.2705202618399L649.0836523773587,287.3670197501542L649.4137096646555,288.4571704362352L649.1134880643467,288.9479964605771L648.0121782684291,289.24903471220296L646.3799797171832,290.38723555346314L645.2854761873614,291.7329990020962L645.1719141037656,292.88583118686256L646.1891245569877,294.45341699967685L646.3513561049804,295.81332523274796L640.4871518276368,299.5939944840484L639.6863433415956,301.3915903738098L639.0774156174903,303.8170311024687L637.0016909318756,305.1477951576717L636.1693685014525,306.5717404511988L635.5497185773356,307.72822818448003L635.6816482557324,309.51824900592965L633.947262476554,313.9276634206981L633.3949293212036,316.35854667499007L632.4363646402162,318.62993092804845L631.0868592231755,320.9610897190669L628.7318911546618,326.661506298462L627.9759294356245,327.901540320986L627.6234021465652,328.4255852008773L626.4469437140488,329.25363350516L624.6320948165285,331.3229015923025L623.7491449547506,333.7840986429828L621.7790572483736,338.27955153556377L620.3242877981793,343.58589739213676L620.3039622364195,344.49178297292565L619.7342870880057,348.04695448914845L618.928910012396,350.2076615043916L618.2109887942652,355.02413004900245L617.7193526146275,356.29832318862555L617.1291654314109,358.86760154795866L617.1634764714472,361.3020521294584L616.8418104711163,362.36769546838786L615.6729974333903,364.5083154456015L614.572899712256,368.38324878393905L614.6349952357996,370.2754202447659L614.9670104900542,372.0629169469048L616.775799013657,376.3844814192198L618.0192012688485,380.32653250853673L618.1124377906845,382.78095943968583L617.6011287049414,385.1213386014733L616.9711295268999,386.80357697093314L615.0802928640833,389.426705608078L612.9133828601125,391.4402383791694L609.3982727504072,393.06419399208517L607.5148950093371,394.3371348385472L605.1372704660189,396.57089535278556L604.3354363782382,399.5307530775108L604.4939384653571,401.4384776325396L604.2515235085857,403.4365381362568L602.8312515714706,405.31009107469526L601.7082176659651,407.5419595228541L600.5761398178438,411.5028997042673L600.2575506227331,414.5666046074102L599.7884776813808,415.7692864412529L598.6616210784814,417.44586230441473L598.3815385668886,418.21293005408825L597.6578366844042,422.6977884285652L596.7837442922,425.63622747808313L596.798755372215,426.5028478449658L597.4811534755272,429.24396032504137L597.3970541328308,431.92529103565994L597.6947583470519,434.6825655609937L600.1334528121715,440.2485161219538L600.1489300747953,441.0173209004988L599.8785441614737,442.5275961167399L599.6734238134368,443.1212986788878L599.3843905957474,443.4052272552399L599.235212160811,444.3214710411048L599.3937142479308,445.98591770796793L599.8785441614737,448.1143388212913L599.906515118023,450.53860606535454L599.5784157976859,451.57699522304483L596.9577236419436,456.7774158175798L592.5809215974377,464.5932534951535L591.7529812835401,466.58004700975744L591.0562247558673,471.17787034612684L591.081585089807,473.32342014423557L591.4635751197648,475.61656221418434L590.106051361845,479.6827811193343L588.2860744556228,483.0586933048444L585.6485064894287,486.8336829242562L584.7683537233042,488.3569974123775L584.0731822165017,490.07513203217695L583.6122208525503,491.4787890110192L583.1512594885971,493.67631249934766L582.5158525922907,499.3733130556384L581.3373429562944,502.3882281469896L580.4105719292529,506.7046929877779L580.5690740163718,508.56045678272403L581.8558312542191,513.5242686722922L582.6669889941859,514.8670601627564L583.2731196226359,516.9126467202295L582.2288705780811,519.7117219871307L581.4829784034009,521.1684444934035L581.3804182293807,521.692287061478L581.4643310990341,522.6248954428274L582.1449577084295,524.1448085860648L583.7393954683321,526.0604054759888L584.6344660779505,529.2008411272773L584.2894909471615,530.4771324765934L583.1799763373201,532.1741498431784L581.9679015534657,533.2968705350868L581.6322500748593,535.0189131682673L581.9026359881791,536.676690998378L582.6579450515674,538.6274685466624L583.4970737480835,539.6599089966867L585.5017522040607,541.4952493644278L586.6206837026048,543.5340124123331L586.8537750071928,545.8141229206758L586.3783619823544,552.8035698990279L587.58120635055,556.9381621897137L588.6628432403586,559.6594007231906L591.394859803172,563.3584378787991L593.2854167564246,564.9769500235889L593.8943444805291,565.3710759691494L594.9197597476723,566.6810025840896L593.5053617114336,567.7457050906969L592.8681833212113,568.871856677677L592.4952372338712,570.7892583226876L592.8259471768197,573.3814521051927L592.4765899295035,575.8027700533985L592.2248513205495,576.7416553172498L592.0663492334288,576.7543421896025L591.3111334065652,578.1244041556374L590.5465939275164,579.9634646360801L589.4650502742288,583.9443849059553L588.9988676650528,587.5180079338488L589.0268386216039,588.6835206405112L589.4277556654952,590.2668219064799L589.819442293724,591.1280044275863L589.5956746413203,592.1537021942531L589.6889111631544,598.406310230781L589.9314193564469,600.303896503423L590.788729174722,603.1999999999989L589.3533529210708,603.1999999999989L586.7686500627569,603.1510659259166L581.4869875738386,603.0609101077234L574.8637447722376,602.9345890767518L573.1014812730318,602.8713645798389L567.5443980986129,602.770204333372L561.4371262088462,602.6563975092677L553.5225575798268,602.6820674137534L551.9628970425674,602.6938274899503L548.8683768828596,602.7064727136567L546.854374774699,602.8335560891646L533.2693473607105,602.8588460694973L529.1668471634403,602.8588460694973L524.9231868721145,602.8253368281421L512.6401142490304,602.805104764615L506.2322478128681,602.9892146350567L500.8263942768681,603.1812862296447L498.8384983948199,603.1920340085735L484.5071126235398,602.8047254129278L484.23924409630854,602.7961267698438L479.633826100262,602.6809293409351L477.6751132495501,602.6730892792948L477.6623398460579,602.6718247524932L474.94971647978673,602.6518452022328L472.31643739359606,602.6577884914477L469.7178422935285,602.6209906077192L468.04545880137084,602.5690180472357L467.7269628427821,602.5586487850496L467.2844623101537,602.563074691303L463.5742081602457,602.5137573101892L463.4042379809398,602.525264726627L457.85274899783326,602.436619251157L457.6654368254658,602.4252381623528L455.9225665228005,602.4147422548222L455.56947981461235,602.4319403610734L451.8272455377155,602.3233134590519L445.2386867222358,602.1767469735987L444.8219194696321,602.1436142250823L441.52125336014615,602.1235068787082L439.69764022957315,602.103778866538L439.55069947115953,602.092270836707L439.42399103798743,602.0748190672011L439.3087506969987,602.0864535844848L433.7949292687117,601.9979296530173L433.019947299219,601.9868008600743L432.9636324400308,601.9868008600743L430.22937820069274,601.939376850929L426.3260312140628,601.8459191043157L423.49425157288715,601.7396870359989L423.00737045586357,601.7138876040026L422.6789914259607,601.7284314118033L421.7571619345763,601.6797411674997L418.88864710379676,601.6066420039797L418.3154289675549,601.5948803107458L416.70504776241796,601.550995128865L414.6079719133013,601.5217803626474L414.2910609755836,601.5334156937306L409.7310491656717,601.4976243488745L407.1905404187073,601.5052126334031L406.1967323324661,601.5017979062668L404.9235876268067,601.4870007383033L404.3877573358204,601.4926919600293L404.1832896434371,601.4897831138796L392.57748711496606,601.4462767655286L392.5672310975624,601.4464032378164L389.88136661305725,601.4667652500984L387.10468975628464,601.3607810346566L387.05126522927276,601.3649546642855L385.97270514468437,601.3239771143808L385.7768152123099,601.3038676834967L384.1252234645217,601.2769285544273L383.97259527827737,601.2565660532273L378.844120394735,601.131733921371L377.03943427809463,601.1462788000872L376.8550124379035,601.1810599232986L372.3873047846082,601.1474170938145L370.38822051994066,601.1321133533311L368.7837132156801,601.1579146837948L366.4993251941978,601.198513665654L364.9033956499461,601.1962370927504L362.3457313829622,601.227097247448L362.1127333148979,601.2499893335635L360.80537080572503,601.2117936611994L360.60099634986364,601.2011696665486L360.27196466430723,601.2258324893746L357.3854551848126,601.2336739861566L351.9004438417742,601.2869200731029L351.4135627247506,601.2785727292539L351.15259370013337,601.2789521541645L347.86563335935716,601.3067765980477L344.9674693146353,601.2743990540257L341.4297027301218,601.2317768505509L341.01097751056113,601.2403771949776L339.86696538764227,601.2140702296238L336.08734326548984,601.2205205032678L334.95983400693694,601.2035727142029L334.9176910990682,601.2028138571313L334.3241474010647,601.2055963327184L333.8862154580056,601.2286149568654L332.9931028153478,601.2171056531697L328.41071424019356,601.1598118371212L328.1177650885875,601.1567763915773ZM317.9543315529045,2.4470986329406514L317.6335046812692,1.6002347345929593L317.5695444272915,0L318.2104522783866,0.28258899688444217L318.65929289449923,1.7881766508226065ZM330.80605372265927,2.709747456599871L330.58415080069244,1.8137736093458443L330.6951022616777,0.9182373210605874L331.02804988114985,0.5922742503535119L331.3609042641019,0.836645243579369L331.3609042641019,1.4878505474953272L331.19447707262407,2.38386441399507ZM325.8701122567072,7.511447739208961L324.9823140957942,7.1045305380157515L324.87210852698445,6.290901686265897L325.14883452379036,5.639714413081492L325.7036850652312,5.314509440308939L326.31401133716463,5.721115999027461L326.36948706765725,5.965315310697406L326.25853560667383,6.941620521434743ZM322.3759803644134,8.406175489220914L321.1560737127238,7.99985521335384L321.1005979822312,6.6980010272463915L321.65470263149837,4.988879511337473L322.5425007924132,4.826059099107624L323.7624074441028,4.500270546503998L324.92758425747525,3.686488194222875L325.2043102542848,3.686488194222875L325.14883452379036,4.256022215629855L323.20755690266196,5.477318957518946L322.93083090585606,6.616610333490826L322.597976522904,8.08123048887046ZM315.90350101861986,11.097630254536853L314.10888444633565,10.627749981871602L313.27516346808625,7.619909571815697L314.8137525514103,6.397466509625701L316.8645830856949,9.030177045237906ZM333.1912304242469,11.415742683485405L333.02470999624893,11.090384730592632L332.63637988280607,8.48754623674995L332.1377509640315,6.860779692689903L332.24870242501675,6.046713265956896L333.0801857267397,5.3959146528277415L333.4131333462137,5.477318957518946L333.4131333462137,5.883916447805859L333.1912304242469,6.7793908136382015L333.3021818852303,7.1045305380157515L334.63303999790514,8.162604857509905L334.9105118868865,8.568916077550057L334.63303999790514,10.440035505162086L334.1344110791306,11.090384730592632ZM328.1442442607877,12.39131955249377L327.7558209108229,12.06655180796406L327.47844225836525,10.928110452768124L327.47844225836525,10.440035505162086L328.03329279980426,9.95179121095407L328.9758207990362,9.95179121095407L329.53067134047706,10.602730778191471L329.47519560998626,11.578416225696856L328.8648693380528,12.147881785925165ZM320.93417079075516,13.285996419828734L319.7689939773827,13.285996419828734L319.325747552577,12.960721752660902L319.3805706274179,12.229210858457918L319.93542116885874,10.846766892988853L320.767650362759,9.789081436945708L322.26502890343,9.95179121095407L323.3185083636454,10.928110452768124L323.3185083636454,11.090384730592632L322.3205046339226,11.822556441236884ZM305.8701324308968,14.172228075801286L305.5592818670975,14.172228075801286L304.93823339515257,13.521743167399109L304.0064275959339,13.001450214166653L303.8292782044464,12.286072327675356L304.05127436293515,12.025818134160545L304.3613790345589,12.351271111884671L305.027181036985,12.806416226511828L306.22508386952177,12.871610367207722L306.1809829946942,13.586794264215314ZM311.1944972468136,15.37478938573804L310.57344877486867,14.984842883827696L310.6623964167011,14.594465645775017L311.2834448886442,14.269795817720478L311.50534781061106,13.684369823547058L312.17040392086165,13.55399546425815L312.52535535948846,13.749556130845122L312.34829920452285,14.33443031313709L312.0822021712047,15.050017591102005ZM296.03088228163324,16.21227058183831L295.365080279209,15.887126146857554L294.3116008189936,14.830580097093844L293.9786531995196,13.773471296932257L294.1451736275176,12.879400823096148L296.58573282307407,12.147881785925165L297.19531320283386,12.147881785925165L297.97215990276345,11.415742683485405L298.08311136374687,10.76542242731557L298.3050142857155,10.521383594680628L299.13659082396225,10.846766892988853L299.63596563491046,12.472645915006979L299.63596563491046,12.798078988368616L298.9701636324862,13.611393267562562L298.8598648271545,14.017401520124622L298.9701636324862,15.39924574343695L298.8043890966637,16.049700172427947L297.47278509181524,16.049700172427947ZM323.09660544167855,17.91822213096566L322.7089279838874,17.431160231745707L322.597976522904,16.780828735952127L323.4294598246306,15.236657247895891L324.6502056050158,14.098709784962011L326.25853560667383,13.611393267562562L326.6468657201167,13.936092350524632L326.5913899896259,14.91187931438617L324.9823140957942,16.780828735952127L323.54050452213414,17.75623599272967ZM316.98765529451885,22.59651566897719L314.35997039963877,18.18509534349414L316.66682842288355,15.837533518402779L319.0383925922815,16.776594083766213L320.96111614556503,19.593188738523168L321.47401025218096,22.22115018088698ZM321.41004999820143,27.473696793321324L320.2562480404922,26.629592017410687L322.499798465411,24.941772554258932L323.46078729596593,25.973392892415177L322.7558259543712,27.192703105019064ZM339.61242968303304,28.692757097134745L337.5609464930949,27.755088884230645L343.71399751508216,24.75387947204672L343.9679738005616,25.12133761383393L343.7780510055818,25.598200632107364L341.3424333456842,27.848792913706347ZM315.2213826248717,34.06903941316705L314.61599788859894,33.84703711923157L314.7220078139253,32.933608816408196L315.8338533368078,29.723712517853528L317.62856314561213,28.22400619992277L318.3270911672025,28.47318302117128L318.7183116128217,29.442396097586425L316.2186404624208,33.37861609527499ZM670.628747843024,239.6824580256989L669.4108923948124,239.13578673914708L669.2180792676572,238.4065204796634L669.3468389043119,237.768801921683L670.3079209713887,238.13287823103383L670.7567615875032,238.9532448176169ZM634.9074121784133,258.64922610812755L630.2929502397483,256.0129592461026L630.4210572207503,253.10306806565313L634.2665043273191,251.4654621386553L634.5873311989535,252.10254972295934L634.0744370923385,256.5582733682295Z" class="state" fill="coral" stroke="#111" stroke-width="0.5"></path></g></svg>