<svg width="800" height="156.8" xmlns="http://www.w3.org/2000/svg"><g transform="translate(0, 0)" id="single_state_map"><path d="M722.5302459382883,8.410304027651364L722.3351259168394,8.65302640353093L722.4176882318343,9.269368162733372L722.5526674934054,9.690691480851001L722.5676651891345,10.03505271715494L722.3501986010488,10.231129587564283L721.8627734898209,10.29648735965975L721.5778172709488,10.22179271462619L721.4075934244129,10.4990926890614L721.433014518675,10.784131011293084L721.585616072728,11.069064711481133L721.6618793555153,11.417374335246677L721.5932648975513,11.768187559206126L721.3072588399782,12.054855950008914L721.0301764113638,12.495804564162427L720.8484793275948,12.929352870855382L720.8484793275948,13.19861572517857L720.248496509912,13.256480261082743L720.226074954795,13.638747861421052L720.2777420165858,14.199793427894292L720.6549340641968,14.739520664629254L720.8041611367116,15.217906978164137L720.838655836892,15.314196236849966L720.8755501683872,15.433156483932635L720.887173382579,15.561817949052056L721.0148037732406,15.84693627591787L721.0084297525564,15.931275403680047L721.0488485425494,16.179155833281584L720.9978563770665,16.2560278249548L720.8514038782623,16.55436549964361L720.8277825074865,16.59074729989925L720.8510289358683,16.819948427835243L720.9757347758641,16.894294972731586L721.0510232084289,16.99503938350881L721.0829683003349,17.251371604539145L721.1525576085214,17.420482460715903L721.0490735079838,18.058646739629694L721.1245119175073,18.920293614508864L721.2333951885066,19.01690655777611L721.2555917781874,19.12694675396824L721.1972507417977,19.627794989805352L720.9974814346724,19.923475916155894L720.9038958133169,19.99639190155267L720.7649421623782,19.972801516166783L720.2271997819753,20.158818473301835L719.7290513182998,20.62472565482858L719.7146535303991,20.984135236900784L719.7750192557132,21.206671203563474L719.7798935068249,21.573323194917975L719.7036302240385,21.826230452940308L719.6781341412961,22.11072889604293L719.7036302240385,22.363617364192578L719.7036302240385,22.5533012159558L719.5764497642458,22.869460985228216L719.5004114468948,23.27750290559061L719.2908186490677,23.857650805178764L718.6016745302695,24.52068658973758L718.2726250859505,24.714507081039756L717.9741709409218,24.95547089677939L717.8724865638724,25.334697778905138L717.8724865638724,25.808656863082888L717.9996670236624,26.219421149808568L718.3052450741634,26.46350229441623L718.4828177916079,26.69332232505485L718.5591560628745,26.851313543234482L718.6099982513997,27.07245819778109L718.540708897126,27.546582992854837L718.4319756030827,27.830577265558077L718.3811334145576,28.146506646833586L718.5076389780406,28.37375864880596L718.8897802652436,28.85515543173051L719.0423818192976,29.28353348966766L719.0423818192976,29.59939952347895L719.0678029135606,29.820460309436385L719.1440661963479,30.167774715406722L719.2458255618767,30.3256901852983L719.4746903987179,30.578291917569913L719.805314601088,30.673073488454975L720.2618444591117,30.986179043855373L720.4482658170373,31.37300354053059L720.3982485017768,31.685427225431795L720.2878654612032,31.994951719130313L719.8562317780916,32.09390367995002L719.5568777713188,31.902049213675127L719.2697468865663,31.67155649519691L718.9005786061698,31.511529171681104L718.5227866507294,31.434912163813806L718.2285318605045,31.462468313337013L717.8837348356692,31.5680371872686L717.5115670161276,31.752267016573114L717.2580309698096,31.791551397422154L716.7647567572476,31.820595636940197L716.4991475658671,31.778146324562385L716.295703823288,31.715030440138435L716.1685233634971,31.6519140063142L715.8887413496523,31.683472291903854L715.6731494735322,31.44841096636037L714.998628108071,30.957224562930605L714.7477166585077,30.83265380506191L714.5408234459101,30.830977950678516L714.2865375148067,30.736198444394176L714.0830937722276,30.452038705732775L713.9559133124367,30.167774715406722L713.701552392854,29.883592691181548L713.2858912556958,29.862734855980307L712.7277520090993,30.230717850442943L712.3791305718532,30.515165586527473L711.6600660500744,30.724374195077417L710.8570144322066,30.86216739934116L710.2521573634122,31.236244121561867L709.9244577117088,31.51190154884216L709.5306932103158,31.778146324562385L709.0474674538918,32.030697456245434L708.6114094505392,32.45684009437355L707.7724383513978,33.482439873843305L707.6340096198091,33.77234400634234L707.3940464881271,33.98713548761225L706.8045620574567,34.41279097878305L706.2551964628628,34.59983326446718L706.0203325477296,34.57535984651804L705.2377527845338,35.080909931278256L703.3737641707194,38.53516469427814L702.9311071812463,39.354857782067484L701.3410514799416,41.952266701341614L696.3513930990175,51.048249163714445L696.3738896426121,51.14109298189669L696.193917293851,51.59601059330589L695.8638929993103,51.95806758192202L695.503948301789,51.89308431859172L695.0540174298849,51.493981542193524L694.2890599591719,51.3640061598112L694.1465818497363,51.63323830814761L694.1465818497363,51.930310516039754L693.7491429128895,52.63580848759284L693.3142097367163,52.7380072027272L692.3692799172422,53.24851520766242L692.3392845257804,53.32276793968094L691.904351349609,53.29492325378851L690.959421530134,53.322860755123656L690.7269572463183,53.276452886817424L690.4420010274453,53.100100293254854L690.164468667961,53.1837290812482L689.7070389481923,53.42504983980098L688.8146010637747,53.44370545815673L688.5521413884971,53.25807528932182L688.0026258169464,52.03660372409331L688.1097093644594,51.65217702276868L688.1096343759818,51.17869439170818L687.7871839177842,50.49171851954998L687.5397219382367,49.748868638113436L687.254690730887,49.25668887142456L686.6547829016836,49.38679471889418L686.284714759543,49.53231363795476L685.6573611471531,49.52618462917417L685.4398945590665,49.54475736719451L685.3124141453609,49.64690657984602L685.1803594344565,49.78099846275336L684.9365718903646,49.83430022922494L684.6600143811029,49.79548469572046L684.5774520661071,49.730482142918845L684.4949647395924,49.637620346978565L684.2625004557758,49.40806090695651L683.9550476933091,49.321974251698066L683.700086865897,49.21053370468235L683.4075568106819,48.95978623939527L683.2155113168583,48.750823423466954L682.9860465721886,48.555414547452074L682.5076950668754,48.37476812283148L682.3126500339067,48.36548026779292L681.967778020592,48.484363917672L681.6977445089724,48.56990321823196L681.6092581041657,48.768562277614365L681.4877767687512,49.210719440346566L681.2301163561078,49.52544171866748L680.7412664637859,49.98064593104573L680.6908742061332,50.07090336262763L680.6206849901164,50.14723130553557L680.5215502213405,50.21566577636804L680.2353941868105,50.40861595192064L680.1004149252394,50.66859848253489L680.0173276908945,50.81102783571714L679.7878629462239,50.988549963762125L679.4630128567105,50.863672139651044L679.3580289865995,50.72440066644276L679.1281143110564,50.70443820382525L678.8256107881816,50.72440066644276L678.6005703637511,51.058647730176745L678.4253972776232,51.29038336122085L678.1959325329526,51.34367408674825L678.0306579260077,51.29075472650902L677.7981936421902,51.12363843436788L677.4532466403989,51.207197059494774L677.3257662266924,51.17934429091292L676.7182845611451,50.56655644526927L676.643296082495,50.5387012277406L676.0283905575607,50.74297035001018L675.6384504685793,50.94723374584555L675.3085011625162,51.207197059494774L675.2035172924061,51.39287946289187L674.4910517567478,51.91276502522078L674.2441896850305,52.0389245192041L673.9651575559728,52.056376874766556L673.6646037335413,52.236096573559735L673.4312395879815,52.281768435504546L673.0962660538507,52.469836949229375L672.3388074310005,52.441989005464166L672.2214504619133,52.37515350636977L672.1063431471848,52.265616224353835L671.7164030582026,52.40485824828784L671.3264629692203,52.7761573095313L671.2843194442185,52.86851501391129L670.8608595052783,53.143631935233316L670.4996400036198,53.26076696053633L670.1865631052542,53.33307044650837L669.9465999735721,53.59294868669349L669.8191195598665,53.91778346263982L669.1067290126884,54.140518946300745L668.0193960722554,55.00355469991109L667.6444536790032,55.39327931309799L663.8050435721007,62.404766457741516L663.512588505363,62.52536821130889L662.7902994790011,63.11861458371277L662.1827428249753,63.33041041399838L662.0923067197227,63.473056313617235L662.0797086553093,63.697168810830135L662.0038203149152,63.79142747371361L661.7988768027635,63.90403578753194L661.7958772636184,63.91117222305138L660.8393992184301,64.74488238581898L660.4511088759782,65.19719246727254L660.3248282779314,65.21618869324675L659.9101419909939,65.38400199025818L659.6217363021042,65.3567592320037L659.3055848761132,65.4795361671886L659.1524584027111,65.59045061521601L658.5083073711021,65.7060889505915L658.2480223617067,65.91929233892097L657.9098243229937,65.99082202706586L657.6706110760979,66.09468707773976L657.1292692487195,66.43925646613843L656.8660596886575,66.77723186130743L656.5149636316164,67.40033307178237L655.7928995706907,67.24738822348809L655.2179629048769,66.98503080252931L655.1048802790729,66.9043391816117L655.0268172727974,66.44657572589313L654.7805551089095,66.32047960702084L653.9576315441991,66.24376466678768L653.7414397602497,66.33993616687258L653.3282532428857,66.40673662855943L652.7740133971802,66.27730438938715L652.5394494359607,66.1488890386604L652.4859826506827,65.77743540903884L652.5397493898763,65.49723440826347L652.8505766338822,64.57019665445841L653.0381228189863,64.30394347780702L652.8352789842374,63.854358588818286L652.4108441950757,63.73220314601804L652.3790490801275,63.68474919138225L652.2265225145538,63.100261745825264L652.2790144496084,62.803643833727165L652.316508688933,62.692409013272936L652.466485646235,62.55336310701341L653.0315238328658,61.44266213899891L653.3493250053862,61.11009575378148L653.691572421948,60.717152814352175L653.7404649100263,60.384646125195104L653.6426799338669,60.17304307845188L653.4471099815464,59.961433901288274L653.300432517306,59.65912444099695L653.1402571269091,59.43553721647777L652.8938449860643,59.32675505857196L652.6313853107868,58.96506359839941L652.3389302440501,58.82594672769892L651.9939082537794,58.77039198341572L652.001407101644,58.38084767920145L652.061397884564,58.10258902171472L651.9564140144539,57.92635305271915L651.2289507830656,57.36979047828936L650.9364957163289,57.03583256162119L650.5690521709421,57.02655573468746L650.0891259075788,57.30485541346752L649.5942019484855,57.768664631747015L649.245505522761,57.91522221709283L649.0629835657255,57.87709897646346L648.6568459653545,58.0283849217617L648.2294116370476,58.22316907546747L647.8844646352545,58.45504819671123L647.08958676156,58.85395580410159L646.9996005871799,58.955974710442206L646.9396098042589,59.23420084696954L646.6921478247114,59.54951098718675L645.7772883851776,59.93899295414485L645.6198125800111,60.12445325749832L645.2973621218143,60.33772678485775L644.7199508362055,60.47681486090778L644.6899554447455,60.634444812244055L644.7049531404746,60.880248025256606L644.6599600532854,61.014597172266804L643.9775648975665,61.441086030694805L643.7675971573444,61.413272298786524L643.4676432427423,61.49671317687944L642.1028529313035,62.57208810985503L641.7729036252422,62.729672866692L641.4204577755854,62.73903514825952L640.9555292079513,62.850269259124616L640.1579517490263,63.11907803861732L640.0618165193955,63.23883380147072L639.9638815662784,63.40659979831753L639.9032908755289,63.8227540758935L639.46310850585,64.24759627889125L639.4412868585632,65.18653602621862L639.7224186650246,65.48611509949978L639.8341514982121,65.50436928915315L639.9611819810461,65.46480304378656L640.1254817377703,65.54875365160069L640.2401391216263,65.72554714464059L640.0267219113884,66.1949372266904L639.6267333662654,66.3737533977719L639.5179250837436,66.4735364803064L639.456434531251,66.60092701730173L639.4688076302282,66.90656261362983L639.2982838297767,67.56133394662947L638.3259832155945,68.30311500880771L637.9195456613088,68.87894390454767L637.8953243827054,68.9743398465539L637.9255447396017,69.12178433279496L638.1506601525098,69.60216232207995L638.1414365696355,69.70551309633993L637.9835858220767,69.87637206417958L637.6805573798501,69.86961186640428L637.5284057566687,69.91035816938984L637.1487390892607,70.1710365380327L636.7189801181148,70.36984964602016L636.6658132867524,70.30577074283065L636.4052283234423,69.63994664528354L636.1886615970989,69.34257504591687L636.1002501807707,69.3388705586708L635.8635865421484,69.15169890074912L635.3592140347464,68.67258804113271L635.2643536092546,68.52856153878884L634.6202025776447,67.96808159864077L634.4173587428968,67.84608746599133L633.8047028723213,67.9997608358085L633.1604768522357,67.70936269567483L633.0591674175794,67.57735973170384L632.7972326616527,67.51177421579541L632.0642952713233,67.83654645719935L631.4099458066194,68.20798819839001L631.0883952101667,68.2596736100104L630.9715631604286,68.2154909420774L630.731000120918,68.89978293003469L630.7411985540139,69.48019541884923L630.681432736531,69.6278149353102L630.6017949722036,69.75079805661062L630.3826786375867,69.87377911234535L630.0639776033231,69.89841211768953L630.0042117858375,69.99675810265535L629.9643929036738,70.39031403310673L629.9842648505173,71.02986676016098L630.340760078021,71.70704472763146L630.5187827263371,72.66854101456966L630.7212516186928,73.04630991270733L630.7212516186928,73.29215933784872L630.5818480368825,73.53809307546044L630.5619011015606,73.73477859021887L630.7810174361784,74.029750690544L630.8806021358259,74.25104138923189L630.920496006468,74.47223286084954L630.8806021358259,74.74265119158235L630.7618953741221,74.92856957617823L629.6257449340883,75.52923234697391L629.4862663637996,75.72586445303523L629.4066285994722,76.04546134297016L629.2866470336312,76.91979394442933L629.4265755347942,77.49540874277318L629.3468627819884,77.79022962764748L629.1078745005298,78.01140689477961L628.792098016931,78.074955968224L628.4703974435206,78.2816947796473L628.3682631355987,78.59951543678244L628.0521117096087,79.1170082735398L627.5727103655954,79.27257271401595L627.4463547790701,79.3628392725891L626.9581047945776,80.14698329794282L626.6787727116034,80.73704754887422L626.6505770436324,80.91532436419129L626.4388845684016,81.33612555408399L626.2308665286246,81.5979698931842L626.1470294094943,82.0939876925745L626.1947220819156,82.31318637856248L626.0535937650957,82.56972651282013L625.6366578237976,82.59903160849672L625.2755882990969,82.86462104134898L624.9793088199485,83.25101664678232L624.5626728325669,83.67621320916578L623.9565409596353,84.05165980804395L623.6753341646963,84.1274492615621L623.2501494907474,84.06977540703656L622.9056524198277,83.63979516261043L622.4324751195436,83.50909540791145L620.645349696345,82.80776925542159L620.397812728319,82.86582278166725L620.1611490896994,82.9924666213492L620.0530157034855,82.9980130169879L619.8881160389328,82.95123828252554L619.7214166508929,82.77994407465212L619.4104394299293,82.60966276573117L618.9857796753313,82.73048709789191L618.7482911634452,82.86610010633012L618.5632195981361,82.87820993967398L617.9448646031842,82.72410851029736L617.8092104453062,82.56639848194345L617.4566146186908,82.61668856554752L616.9712141963864,82.9566922688764L616.9075489780125,83.15700791177187L616.0722523143249,83.85580514960111L615.8448872470572,83.976146855749L615.837088445277,83.97254217889349L615.8442873392278,83.97799540729693L615.6877863842838,83.94786395909159L615.5180124686194,84.02559544952373L615.5014400148375,84.09491534798372L615.0750555252307,84.3321693055982L614.8372670594299,84.39705004385496L614.3482671901511,84.76460432603562L613.784053876785,84.59279786065736L612.3395508125413,84.86718722941532L612.2563136012395,84.94380001356922L611.8063827293363,84.94518624477132L611.4218418108167,84.88862779952751L611.2471936440397,85.02993068242449L610.9943324940305,85.34394790117267L610.9554884620893,85.46084611796596L611.0047558925617,85.83804966547041L610.599593142414,86.62445960972991L610.47256265958,86.63637846494385L610.0502275478211,86.8271699132456L609.7999909945638,87.29197814492318L609.7054305229858,87.60515973514657L609.4363718615878,88.12266540417613L609.2350277964106,88.131163943915L608.4928668232069,88.52873683194639L608.3534632413966,88.54379318968677L608.0815550178104,88.43091594149155L607.2755038607966,88.62664879115164L607.0902073300513,88.50490523340932L606.8645669977914,88.42648210261677L606.6661474832817,88.46925006201582L605.9601309567879,88.47294490645436L605.313205351471,88.41179499226428L605.2034972072051,88.70017427382345L605.1008379799323,88.80224046605599L604.5199772243059,89.04396081529285L604.2122245079245,89.38440635106917L604.2018760978708,89.50040915451382L604.2774644843512,89.74164479898809L604.296286592491,90.00799227635025L604.2304467082367,90.22797103283756L604.1552332641504,90.51747965487812L604.2290969156211,90.74538465379692L604.1928024919534,91.24697242797674L604.0048063759778,91.62895772394631L603.7697174954083,91.88369590901539L603.4594151707524,92.034189500293L603.1679349542383,92.23102678320811L603.0103841605933,92.59357399623605L602.7027814211697,92.77941060795047L602.2754970698188,92.93274767006278L601.6765640908379,93.23673519137992L601.5628065687242,93.40944768818781L601.5333360966142,93.91777679723327L601.3382910636456,94.39884334060662L601.0774811348992,94.78361859149345L600.6931651818159,94.93922120397656L600.0774347836168,95.08799121130187L599.9074359025153,95.05504426630341L599.521395214424,94.66686832957384L599.2817320366566,94.31614495751455L598.2420917686468,94.0709978690129L598.0382730836745,94.29223978325308L597.3199584466811,94.53221098773747L597.1705064087319,94.49713876079159L596.9976579654422,94.58906455895794L596.8314834967523,94.80872196354767L596.6994287858488,95.07137932466776L596.7121768272191,95.28308578929636L596.6495614475461,95.49709325007507L596.499059570895,95.75012898489695L595.8442601753195,96.53898735492021L595.7526992428866,96.58752121164343L595.5871996705055,96.58733667286833L595.4518454665413,96.48528602331044L595.3365131863766,96.51988744158325L595.1060735914843,96.73182911919139L595.0161624055827,96.92946362776638L594.8461635244812,96.91018019508238L594.2109361218336,97.01360892576895L594.2199347392707,97.12727736525812L593.9162314007372,97.79679690140756L593.61822718658,98.01589751014853L593.0975821793099,98.14569425384025L592.9107108905127,98.24975140113474L592.4764526106483,98.5509369106071L591.8377007495037,98.86945142441618L591.7931575931852,99.04203202762574L591.7472646442511,99.07984979272669L590.9432381761608,99.19468547693305L590.2759157046503,99.02884188347525L589.930593760465,99.02293859453903L589.8304841414665,99.31247090446186L589.4334951354904,99.84243595029511L589.1867080522525,100.29185264348098L588.6650881947589,100.79399016971274L588.0138882461588,101.0057168944445L587.9159532930416,101.11443657686641L587.9147534773829,101.35169627860114L587.7135593891626,101.51555132619023L587.4349771909765,101.65008125522718L587.4173548984945,101.7009788483615L587.476895750543,102.02940741736847L587.319869876249,102.26626892776358L586.9516764460741,103.04336842996827L586.4927469567347,103.16662370479389L585.99122401152,103.52485436171992L584.5492705555507,103.53499445173156L584.3314290250701,103.28323955453425L583.3040868675589,103.3693405103877L582.8048885651833,103.27402097729828L581.9544442288079,103.39902390494035L581.4222509958263,103.35754086700081L580.910379640557,103.24719485210017L580.4354026167857,103.29098315051988L580.1413727919962,103.4291680997012L579.7173129452285,103.55223257280932L579.4481043068736,103.52854166878933L579.3318721649648,103.42935246748766L579.2803550801318,103.1577737311577L578.7972043121881,102.60933123825089L578.2284916901017,102.1192110017314L578.0071257011259,102.01668361790689L577.7009477427955,102.0064492415645L577.2192967444244,102.50662626779194L576.1378129053264,103.0724078160415L575.9410431373481,102.96141221350308L575.6805331625173,103.04659503405946L575.5792987163386,103.14551281266176L575.3306369211341,103.23963558272999L574.9569693320182,103.26268211152274L574.3812077929406,103.03368860923956L574.0232127958625,102.95053381719572L573.7988472677398,103.04309186383671L573.6464706791221,102.9572636744283L573.397883872396,102.9341240026256L572.8863874595227,102.97238278338364L572.6482990398063,102.85115247189196L572.0569398971684,102.98399866314276L571.0316224285807,103.02972448851915L570.8189551031273,103.09711425145042L570.7112716477859,103.09591580686583L570.5802667755843,103.0182930587116L570.3288304066691,103.01303828262326L569.3098869587657,103.49111541657294L569.1095177438119,103.62689990553417L568.398027058377,103.50936765193183L568.1939084194901,103.29679084218196L567.1271973106877,103.69400767916477L566.6005532251247,103.46742431655457L566.3937350010065,103.56993156436329L566.0239668127815,103.6578727998808L565.4892989600039,103.60440760325127L565.3876145829536,104.03331663566678L564.8599206586896,104.68571207867126L564.3595225406561,104.97944635038175L563.1873026423909,105.49665573058564L562.716449984945,105.97337423328099L562.6350874856089,106.1673519879555L561.4508694307615,107.13311036812775L561.3130406070022,107.05718850746916L560.9780670728705,107.0467768323033L560.3550627922423,107.34216787102196L559.7327334079228,107.55416770329703L559.3280955771233,107.3883274133591L558.9259323661217,107.31535650756086L558.3896147668138,107.40205544521132L557.9234113950433,107.38040383974885L557.3651971599693,107.60152363681391L557.1785508366083,107.74552434985571L557.0511454113812,108.15346508240737L556.4653354161646,109.04379958618165L556.3935714420959,109.1208064131788L556.1957518354156,109.15626981395008L555.7674176453638,109.64583159974973L555.7657678988344,109.76326634569205L555.8559790386507,109.86338375146306L555.8456306285962,109.96432872479636L555.7564693274808,110.1548862396794L555.4501413921935,110.33595277807262L555.2680693660304,110.76539247566507L555.1762084796837,111.19664900141561L554.9881373752287,111.53607432866511L554.6110953045736,111.75854325713817L554.4039021380631,111.78110285379762L554.0041385583763,111.73349742032678L553.6405944138787,111.78450980732032L553.0952781971337,111.9520010757119L552.7085626127337,112.34396555757849L552.6474470026333,112.54376093906649L552.1673707623131,112.90466796457213L551.9054360063865,112.9533706524976L551.7154152014864,112.69364997191724L551.5350679103321,112.62413792913276L551.2927051473325,112.63039864316625L551.2924801818981,112.66768660976095L551.292630158855,112.75054808555342L551.2666841452419,113.058232252567L550.9795532604894,113.43540871872392L550.8725447014549,113.47757174812386L550.6334064430384,113.43135810937702L550.513874808069,113.45879173847152L550.3839947630468,113.6947351656977L550.3925434496141,114.0317447176426L550.0004286947506,114.1330931302823L549.6294606908659,114.63659284634605L548.9294432426632,115.03099239980156L548.6256649156512,115.42711961886107L548.5105576009219,115.70091729809519L548.4289701361513,116.12848161078227L548.3791777863271,116.2148933563144L548.2034047923698,116.45903100213036L547.9742400016139,116.61224558405547L547.4943137382506,117.11833731363686L547.269273313821,117.43117674118821L547.0518067257353,117.5047841000569L546.8248915893391,117.62807478921468L546.7387298273688,117.85118892193123L546.7593516589977,118.14881732508502L546.9618205513552,118.55360958437586L547.0143124864098,118.61800631599772L547.2317790744955,118.67320306953616L547.314266401012,118.73759876285203L547.7566984250498,119.41831904488708L547.7566984250498,119.48270827026136L547.5767260762887,119.8046460149717L547.5317329890977,119.97020855865185L547.6367168592096,120.12656979118356L547.7491995771843,120.47607122097179L547.8032662702917,121.14026252072244L547.23822808366,121.76494540198883L546.9328749985953,122.25220385621105L546.8582614623374,122.44216989766574L546.6131991141092,122.74430335669194L546.5157140918636,122.77381725640134L545.7218110683907,123.0554346424583L545.5605108508144,123.14581105667912L545.516492613845,123.28252283000666L545.9402525066989,124.34137923169055L546.0270891649761,124.37879221614139L546.1691923320195,124.67671051077286L546.0918042220519,124.92617686836093L545.9568249604808,125.10081671778153L545.9387527371264,125.28951505701752L545.936578071246,125.4009119244406L545.7092879924548,126.09342842084925L545.6942902967257,126.54373630938835L545.7467822317803,126.62644295597738L546.2192096472791,126.77347472215024L546.3841843003092,126.87455737438131L546.766625541427,127.60047422499565L546.6091497362613,128.115005270683L546.2792004301991,128.3906322574885L545.6717187646518,128.76730595257595L545.169295957694,129.71349962297745L544.4268350305756,130.4851554759921L544.194370746759,130.65048020878385L543.5944629175556,130.78824801361498L543.0770424148668,131.05459187089127L542.7695146639207,131.1096963063992L542.2892884466428,131.29668098293132L542.1621079868528,131.5045994880984L542.1546091389873,131.66990157550754L541.4572162875374,132.32198250595047L541.0601522930838,132.5606329704815L540.7030571577507,132.49332678446535L540.638192123718,132.43217220516453L540.2397033481693,132.2899353622779L539.8748843995345,132.41380736855535L539.7923970730199,132.40462493326368L539.7448543775545,132.34181677217384L539.7275320389863,132.2800181666571L539.2872746808298,132.26110199763662L539.0049430587105,132.33584813280322L538.9524511236559,132.37707755942847L538.8624649492749,132.64336457011996L538.8249707099494,132.8331571191825L538.7068638560759,132.90064386972654L538.5808832119419,132.9295665755635L538.3762396537049,132.90064386972654L538.1425755542305,132.79955124382695L537.8951135746838,132.6710027797858L537.6394778509639,132.60681953735457L536.7252183192586,132.643456391585L536.4552597961156,132.69854906607043L536.3427770781409,132.88218837014256L536.2752874473545,132.91891568743722L535.7278715532066,132.70773113884934L535.5928922916355,132.70782295951904L535.0979683325431,133.020006692695L534.9854856145666,133.17609365097542L534.2430246874483,133.24036380044436L533.958068468577,132.95573464117888L533.4406479658892,132.90064386972654L533.3656594872382,132.8088250114688L533.245677921398,132.52417935454469L533.1585413092062,131.79020245326547L532.9757193982559,131.55997609630913L532.9607217025259,131.43140622449755L532.4882192985497,130.84372179606453L532.150771144622,130.6692167800993L531.5958564026078,130.56818568982726L531.288403640142,130.678401356648L530.9884497255398,130.96311760708704L530.358471516397,131.8447504548567L530.1485037761759,132.028410821119L529.4136166854014,132.3682623782729L529.0461731400146,132.67127824315185L528.8512030955226,133.06609859376067L527.7188020794229,133.71796544801555L527.1863838810041,134.35141518980572L527.1338919459495,134.47075476236432L526.7767968106155,134.6643562020572L526.6538906941068,134.64517069841304L526.6074728258227,134.56301212152812L526.4514218017503,136.29732964807818L526.2326804095273,138.52119972994615L526.0251123006228,139.89492360645636L525.5149656803633,144.09195722537106L525.2429074798201,146.70705506963895L525.2324840812871,146.74481415907212L525.1240507411585,148.01659750590215L524.235662234586,156.30245365308883L518.8315425321616,156.33357415032833L518.7589536848282,156.33705231551903L510.1990938353565,156.33677772359033L510.1365534441629,156.33888292812935L501.7680641922061,156.3096846036815L501.50935394086173,156.34181190737445L493.8229598907101,156.33796762188103L493.55390122931294,156.3317435364238L487.77191458296875,156.3771426293224L487.69265176103454,156.37924782252276L487.5758197112964,156.3750374355327L487.0856200263597,156.36240626036715L486.845731883157,156.34776139294263L486.5808725765628,156.3666166544549L485.99678731635413,156.33943211182486L484.02961455591776,156.36304697266314L483.7835023689868,156.3589281069453L477.93500094207866,156.34748680140638L477.5515098622609,156.35224638663112L476.71141393593916,156.35535842149147L474.89391817888827,156.3721084692752L470.0052692787067,156.44423393034322L469.99544578800396,156.44203722604334L459.84425543308953,156.51599258336682L459.44291709535173,156.5233148562611L457.1445952131944,156.55260387628914L457.04711019094884,156.55260387628914L456.84464129859225,156.5617566715723L456.7471562763476,156.5709094556737L456.1097542078178,156.5709094556737L455.7197391303562,156.5709094556737L454.2649626445382,156.59836774090536L453.50757901016823,156.6075204802887L452.6976284522643,156.616673208493L452.5701480385587,156.616673208493L451.2995432563057,156.64632797109152L450.77552376749554,156.6624366818337L450.47789449573247,156.6624366818337L450.2679267555104,156.67158934296367L446.09391805686937,156.7631153394409L444.5155605582331,156.7986271250693L438.3855523824732,156.79999999999973L428.0032475363587,156.64385674535652L411.56232354615804,156.3268008766404L411.2388982377388,156.32469566870486L375.0532078649567,156.05623104452025L368.60952288299995,156.0047887193232L365.8556459930405,156.05742098736482L363.31571123267076,156.09339378568393L358.76488542881,156.09476678983265L356.71177587183865,156.06785586267551L355.56047775911793,156.06419450457133L354.2298072054655,156.0471691658904L353.39915982745515,156.04323319498872L350.3116591959788,155.9974659396894L348.93202116576776,155.99270612908776L348.08892570030093,155.97366685644556L347.82594110567425,155.9735753213631L347.64851836518574,155.96725939804082L347.5817786191874,155.96725939804082L339.6306002509209,155.980531984369L336.8553516445463,155.99526910440136L335.67705767951065,155.99526910440136L334.9199739990554,155.98648175681592L334.67041234210683,155.98062351936824L333.7440796653382,155.97769439892363L325.8723140959628,155.75397944134966L325.6386499964874,155.7406149157341L325.460402382736,155.73475648603062L325.3254981096434,155.74363566676084L323.40616799858526,155.68798042204844L322.56877165749574,155.68422733967782L307.60219614604193,155.33069685798182L307.157964398516,155.31934552515395L306.1185490959424,155.28858698845897L303.1587538436079,155.2056481618706L300.9712649328958,155.15758716329947L297.21689176078144,155.08920269664895L296.46475731991814,155.07446379408157L294.8307583701235,155.04745765511143L294.06265138330673,155.02402174034614L292.10650192923003,154.9970154195089L291.795824662182,154.99609994930051L291.26565611812293,154.9854804866959L276.53701904942864,154.89970031003577L273.6051195111513,154.91883386039217L273.0590534096191,154.91755218868911L271.15217138601656,154.88871451740897L270.87403911870206,154.8762639329516L270.74070960366225,154.8802005170387L270.20304221173774,154.8670175296329L266.4986863548829,154.81007408134383L265.84538672888084,154.80348252882322L265.39665567263637,154.7885599648862L259.5250577943052,154.7235594929498L259.41070036436304,154.7308835179888L259.40192671236036,154.73408777668965L257.96979674709473,154.73134126931518L257.58615569031826,154.7367427328627L257.5691333056657,154.74077094042877L248.41581463615148,154.6976506968981L233.19862762904904,154.5063988961324L233.2715164302972,154.7450737961194L233.35902798488314,155.4451246556514L233.41571927474251,155.6410209877199L229.38426367401462,155.6484356548135L229.06286305451886,155.6566741652009L219.8844982331375,155.6432179268827L213.1885520090009,155.60275752729422L213.18285288462448,155.6044967797352L189.4313770992685,155.6759888595907L184.60024436221192,155.69127580989698L181.90500846255782,155.6196007971107L179.0357992924337,155.7135196399513L171.43954139361995,155.70308427111104L163.0065620500236,155.76038708216356L162.9961386514924,155.76249244866221L161.669517475686,155.79736821633287L158.56042016235915,155.74629026513958L157.12476573859658,155.7238634561213L140.81319687406813,155.81311260419352L136.91807032752695,155.792882890481L136.40499915660075,155.75754941333525L135.09914978938195,155.72148346428457L125.11600861512306,155.67223577121558L117.80440698126768,155.68129810335358L113.79987224437536,155.76377397580472L109.80291134382605,155.77292773475028L107.18753817393372,155.766703179886L106.43487881371948,155.7580071019279L75.24754548538385,155.6355286369917L75.17248201825441,154.8481584934193L75.20405216776635,154.3487429495126L75.42751783414406,153.57561313016095L75.89244640177822,152.60505922247785L76.14748221766786,151.7716688221517L76.27496263137346,151.57017589371617L76.54492115451558,151.4144730966691L78.54711353448238,151.5518580857438L78.65959625245796,151.61597021747866L78.6895916439189,151.80830331719199L78.7645801225699,151.90904725387963L79.2070871350852,152.08305631402163L81.14808891647499,152.37364242522654L81.58452186222075,152.49809738150861L82.22439855054472,152.85634027418928L82.3650769364931,152.87959982839766L82.73889450256593,152.81082826024794L83.4342626650905,152.23691358661154L83.73639124557394,151.8168208115926L83.67902505940674,151.24282990612346L83.65757835451222,150.59578944064606L83.69979686799252,150.1005788242178L83.80853016203582,149.5824321402929L84.83932178956456,146.86945445929587L85.180069436552,144.9733224451902L85.4230321073801,144.42465868839008L86.0435617682133,143.7686844558807L86.43875105070038,143.4384293593739L86.74350422793486,143.24028762812077L87.59109900212297,142.87415628588997L87.73335214612325,142.86434485589234L88.01605871063384,142.9648426312915L90.23804232152725,144.34966692719036L90.8979409336498,144.55135454983474L91.64655091601799,144.40503988960427L91.93900598275559,144.2682569257081L92.18571807751505,144.09489100378642L93.10267719445346,143.18527279507452L93.44769918472412,142.78190999549815L93.53761037062577,142.62593231298615L93.59610138397329,142.35725059117158L93.4558729288974,141.39862910859074L93.42017841305915,141.32846781702392L93.23690657123734,141.16273780698748L91.66447316241556,140.92206963410126L91.47152780684792,140.83420180432086L91.20119434131357,140.49042502765178L90.95913153222955,140.1695646411531L90.7012461541508,139.8479565921166L90.52809775694641,139.5988980488246L90.33687713638756,139.24332160652375L90.25423983291421,138.88736123310082L90.11071188477763,138.87011323705565L89.87652286595312,138.59010295463304L89.63813449232202,138.02133410416536L89.62696120900364,137.77542608726344L89.72894553996866,137.04793129705286L90.26181366925903,136.9922284039735L91.13677923815249,137.38782922305245L91.20741838504,137.38287401904154L91.4459567356289,136.6089041258847L91.7975027235425,135.7742773990817L92.13322614245953,135.95352719861012L92.35421718904217,136.16186640140359L92.68064203660833,136.1009254928017L92.87178766868874,135.85431163655448L92.88048633221115,135.34343612631528L92.82312014604395,135.03300202496212L92.67621771636732,134.67013938246146L92.53591427281299,134.3579330158227L92.22178753574644,133.98907017138208L91.96810151247246,133.63148160764922L91.62540416503907,133.03745186809238L91.09636044815943,132.32179885508958L90.98065322560251,132.19232387118745L90.56049277972397,131.9264798774302L90.1845755362483,131.8192213052239L89.70562412310846,131.78873314129578L89.17320592468968,131.86210655335208L88.53407912115199,132.02822716301625L87.91332449488436,132.11004639916655L87.03595929467338,131.77027488497743L86.52821230573045,131.16525953240762L85.94862635424124,130.06209112698843L85.78365170121015,129.64873971840098L85.77787758835439,129.38151877366636L86.05361022435136,128.35342321075268L86.15724430184673,128.0845019229414L86.35123949611625,127.82393208147596L86.52461285875506,127.6690191664211L86.9384742724269,127.48975351430909L87.20843279556902,127.42543367211374L87.98006424088271,127.83523343116622L88.51330731256621,127.6827097023347L89.16465723812416,127.31131052540559L89.30286100427656,127.31085108890557L89.651182487607,127.41661262179696L90.26053886512182,127.26931791216839L90.43068772317929,125.4652492883929L90.65280359694134,124.74951069660801L90.1705526907408,123.79523851556633L90.28123568522915,123.81353271927901L90.39409334559878,123.76241915275841L90.92036248876684,122.9831694954728L91.18049752120623,122.46855879386294L91.43043412054794,122.16788532871351L91.65539955650002,122.13110486407959L91.84954472772552,121.91188951539289L92.15542273213941,121.40354982060717L92.81772097558132,119.99145548428487L92.59433029768115,119.9593551272742L92.44742786800452,119.88843951963827L91.86154288430953,119.37646574870905L91.42316023811873,119.14695831172276L91.19362050496966,118.96997057333147L90.57931488786471,118.3968472033921L90.43436215863403,118.22646555279835L90.15180557107851,117.74289890087312L90.00475316444499,117.59955249861378L89.6749538353406,117.45795150253207L88.65713521461748,117.2690539561977L88.308438788893,117.33971857979805L88.10177054173255,117.4746971804152L87.81838908091231,117.74584308548447L87.68430968108441,117.91991592299291L87.56155354153452,118.18800954163362L87.47861628414648,118.58258818279546L87.50268758579296,118.98634487608479L87.68228499216184,119.67412493877873L88.27956822461238,120.67978617131303L87.57362668659607,120.86694147913158L85.9747223448112,120.85664116231692L85.51414310894052,120.5866206148171L85.06773669553422,120.18092754194049L84.99844734126054,119.89561389208393L85.64072366090295,117.60764915999926L85.64829749724686,116.84514408747873L85.76805409764984,116.52298582226331L88.73414838219196,114.67515932965625L89.20702572856135,113.02536534363753L89.3962216601958,112.48327046397526L89.56337097910728,112.20244824018346L89.86167514717908,111.86397425146697L90.36327308087311,111.45255467299285L90.81050436754413,111.45679053267713L91.03846934264129,111.29969376682129L92.06656138493963,111.27759313367596L92.43258014923231,111.46093430611063L93.03053827799158,112.02188773587295L93.35718809099308,112.43879998219018L93.40668048690168,112.5668705639414L93.40158127035374,112.92372557625094L93.09255374983513,113.90130607331184L92.88738527224814,114.88869803877878L92.88596049115313,115.40668792427368L93.15089478622485,116.39065854819L93.79062149759284,117.13701603822165L93.2458302001969,117.76948852575606L94.34801085940126,119.48997501917484L95.07757376819154,119.1809019432012L95.32451082838816,118.8445863715956L95.05897662548614,118.78046758586333L94.19360958185916,118.18534153346309L94.94694383838214,117.34073069842043L95.04382895279923,117.11355260814207L95.1255663945285,116.7642607664111L95.2437482368814,116.57967049656418L95.39897438768821,116.42433873217215L96.07282085684074,115.98841698249043L96.09659220457252,115.62821234612511L96.24334465729225,115.29053911265646L96.38882230587387,115.04709928662078L96.44776325009298,114.8434136197875L96.42414187931809,114.4047294945367L96.44626348051952,114.13603874915452L96.62301132469838,113.54026349438891L96.78671117359318,113.25349735119653L97.02832405180379,112.5684357550499L97.01662584913629,112.29341739231768L96.91254184076934,112.06746563711249L95.81845993725801,111.10539010710681L95.17798334110466,110.03773401310855L95.00640970195309,109.64767372780216L94.80289097089462,108.9269982277915L94.67106122542828,107.9212143208465L94.76007254958495,107.27794942566788L94.9747645639618,106.60210169376751L95.08567252388548,106.41182121486008L95.29459042540657,105.87633737044962L95.46091487105332,104.90193555381757L95.62056534209933,104.69105783335817L95.9712864567482,104.40431715265368L96.29508670756059,104.2375766163309L96.64880736135456,104.13738300830664L97.14305642414001,104.16872246134699L97.59673671997552,103.88214586588947L97.81937751308942,103.79365422392857L98.51654539910123,103.69271715080458L98.96805102905637,103.72829877871345L99.23890941394257,103.79568216925782L100.21773402576673,104.36449885909633L101.55342880748867,105.4860575409416L101.68780816123126,105.70115173614613L101.76767089099303,106.14818481649354L101.75724749246001,106.26834741677476L101.61034506278429,106.5529886056238L101.61214478627244,106.82324476562326L101.71472902506594,106.9704855262753L102.09709527770337,107.31397447588097L102.33990797157549,107.47760523158877L102.56367359186788,107.54228260623131L103.41944211022656,107.62059490960246L104.2032966775605,107.99924623116522L104.49050255079146,108.05065287219941L104.78528226036633,107.93558625756214L105.04541729280572,107.72451866235633L105.26355877720016,107.43540800703704L105.36569308512026,107.21465178958988L105.64899955746296,106.17979219283961L105.61075543335028,106.03917058369143L105.52151914375736,105.94029153331667L105.27825651901458,105.82445484046048L105.13120411238106,105.76114475906297L105.1238552414743,105.54420915966512L105.19599415793436,105.27095708608977L105.13105413542416,104.95041445878223L104.87699316975613,104.74783319622156L104.63350557957801,104.69299336427457L104.12950801456827,104.6696747914084L103.75786511437673,104.57898051192296L102.83610673480507,104.11719664316524L102.58407045806052,103.77125460895422L102.42232030961168,103.46963671821504L101.8760292426432,102.32002040440602L101.68900797688912,101.82434873241255L101.59647219423368,101.44879258988112L101.59857187163652,101.28631922052546L101.6845836566481,100.98662854070108L101.87985365505483,100.6405398282036L102.10466911404819,100.34294404640741L102.53525295845975,99.96297785568822L103.50297927544307,99.38616654704174L104.46890586894006,98.98299903126053L105.02734506945035,98.53848384839011L105.13870296024652,98.4941138780664L105.48799929379948,98.62242630553101L105.95592740057873,98.72241805200201L106.16514525601451,98.73892947387185L106.36408968987325,98.67869489047644L107.69873463289514,97.65306336705544L108.64906362283182,97.27157471119835L109.19318002391992,96.9342614117968L109.39782358215598,96.58207731586299L109.55267479056874,96.02834753095567L109.62481370703063,95.47965173613511L109.60134231321354,94.81296737831053L109.42631920404347,94.29593170712133L109.0195067073646,93.73972252532894L108.84388369036515,93.64704768182173L108.58104907269535,93.61741733156168L108.03393313246215,93.79261312373183L107.65299166091881,94.009617520951L107.54980751429503,94.13108550398829L107.22293273585728,94.81010633819642L107.07003122788865,95.02754222185513L106.91652981209154,95.16320567394496L106.6517454939758,95.27662578659056L106.02139234244078,95.4154223131386L105.47915065331836,95.39318182214674L104.78325757144285,95.24211081906014L104.23419193076461,95.01037646424402L103.61276240818734,94.57189778010297L103.1368105341935,94.04884562190773L102.73809679320857,93.18024043336027L102.17860775399822,92.50522379884706L101.94299395407688,92.13731738196611L101.7592721813844,91.74926467741398L101.69658181323211,91.30006559940603L101.67078577657594,89.80490781524031L101.5246332316865,88.68207007742149L101.53925598502337,88.32441069815059L101.72170295358046,87.79971361958314L101.89200178859573,87.5434483113936L102.16983410199646,87.32791617866951L104.7784583088096,85.81042076304311L104.95535612994536,85.59003265724778L105.1905199989933,85.39652922630194L105.52481863681714,85.42730160242627L106.82774345336838,86.25764508586917L107.17479013256343,86.72821767820233L107.64564279000933,87.06221078196404L107.97641696933715,87.068677995293L108.64913861131117,86.48725279241944L109.11159255914663,86.25764508586917L109.96376163053174,85.73511068579L110.97220669142371,85.81152961731368L111.57001484322518,85.73668157871543L111.84799713358098,85.64418313521037L112.35491924925827,85.34616575024984L112.47227621834827,85.2340711238071L112.7430596147542,84.93603711401192L113.49526904409686,83.91385039673196L113.6465957940145,83.48145775044031L113.65994374321235,83.24750405097848L113.48911998884796,82.70626692428277L113.71461034414915,82.30837905450153L114.80426792742037,81.17330026723721L116.02927971465306,80.76377085348349L116.03040454183338,80.60648107748966L116.59791734825922,80.68036423137164L117.71142126774066,81.1055246800538L118.38489279450005,81.07251506115517L119.18112046081114,80.77588415329728L119.44440500935343,80.57476380088929L120.48149566908796,79.95490858755693L120.64722020690715,79.7680077649079L120.80657072403847,79.40205308743361L120.85943760148803,79.03312049175338L120.83229177221529,78.77802915245866L120.72160877772694,78.48500538919143L120.61152569106798,78.33950660431583L120.24333226089493,78.04489279246582L118.72436563735118,77.23813615763493L117.23156999285584,76.74567591050027L116.11281687987048,76.2499442300309L115.7326252931125,75.94969477276572L115.50361047931256,75.62213589082648L115.441595007469,75.4067163123691L115.42134811823416,75.01148636000016L115.4745149495966,74.59069249483491L115.55917694199343,74.26862589267057L115.78286757380738,73.62639395470842L116.01188238760733,73.19728243075087L116.71504935191206,72.57143432149905L117.84520071365296,71.76703778819547L119.81792262151157,71.81351355604193L121.82708892999199,72.67455806951375L122.3010911035426,73.31844696603048L122.6616357088933,73.7136756442178L123.22097477114767,73.93941848114764L123.51200505678935,73.93756739964374L124.10448902660755,73.71089893627504L124.27838730859821,73.60334697246344L124.6362323287176,73.23606640753542L124.89194304091598,72.86210256666618L125.07431502099462,71.98904487223626L124.93386160048249,71.6504767467477L124.66172841145908,70.74431109986335L124.51632575135591,70.404759448385L124.22627031593584,70.00212912594361L123.10369279053884,69.07742163700959L122.6909562040455,68.63804046322593L121.91834990851021,67.97326885154052L120.94747407542218,67.38532590527484L120.17089339051836,66.85143982895715L119.84559337013343,66.55423285253073L119.52831711696308,66.06791023430924L119.46210229031476,65.82181811455757L119.44028064302711,65.48074076087096L119.52794217456994,64.51746576493179L119.50042140290498,64.42840622865515L118.80497825190014,63.72478848590936L118.59681023516714,63.417907644132356L118.45605686073941,63.07226894474661L120.41798042767186,63.03769490670584L120.51209096837829,62.6634876826588L120.6700167044155,62.38335271773258L121.50493842571086,61.22756656857655L121.79439395330155,60.41802729056462L121.89360371055591,59.97200523266565L122.10469627795646,58.33317344877787L122.2916425552321,56.42066063111042L122.43539546880493,55.47818084182609L122.52598155101532,55.27942620394697L123.00275829827478,54.61121089046674L123.4425657255606,54.24325339560528L124.1091383122839,53.934581667552266L125.21064407518043,53.517677763562915L126.31409953852199,53.21760728506433L126.55608735912756,53.09898647384534L127.30222272169976,52.57129539114567L128.29147073205695,52.046443890287264L128.51568628322093,51.83218519162301L128.8865792986262,51.329747976574254L128.95631858377146,51.096806628177546L129.02890743110493,50.54547934047514L129.06617670499418,49.7600119459471L129.02110862932477,49.20059683977706L128.8568088726015,48.704943673599246L128.37133346181963,47.85964579056463L127.91142912225496,47.24462781879129L127.06975843788314,46.42833205957868L126.65162268092718,46.13456581123228L126.2280877535095,45.92515024684599L125.6700984838717,45.593547792438585L125.0779144679691,45.115025038941894L124.32158067230012,44.42468890241116L123.62658745216868,43.96095884772603L122.47146492703632,43.08815542490129L121.49046564933087,42.24713146609565L120.96202184028152,41.702198622765536L120.60342693537405,41.270183425409414L120.5441110487609,41.16791654732879L120.52198944756037,41.02213727366734L120.5382619474276,40.858318044719L120.67451601313496,40.53159829557535L120.95152345327006,40.069293576902965L121.0451840631049,39.86407366955382L121.2951206624466,39.66182364048427L121.58960041810587,39.72570736139778L121.9704669011735,39.96487112222894L122.5840976219697,40.07859203082671L124.49840350495833,39.854681953766885L125.2734844202887,39.96682382660174L125.6778222971725,40.097653824170266L126.60572973199396,40.541547007884674L127.60090183216471,40.91661282463565L127.94847343070887,41.00428654942698L128.2586257784078,41.02492644536915L129.387052405139,40.89680938724632L130.1205897032978,40.638522994846426L130.3917480420987,40.49152437255452L131.0614701449258,39.912798812046276L131.27076298883821,39.83450367185742L131.58683942635162,39.82260124887944L131.91888840981574,39.88732043860091L132.26466028487175,40.08640272292678L132.58028679151175,40.15297923385833L132.81440082185782,40.11513483947374L132.99377326279046,40.02865919364558L133.33002160106025,39.679491683538345L133.34786885897847,38.82151909296317L133.27123063379804,38.00874164097104L133.1103053586139,37.56804225914357L132.9744262352997,37.373727936368596L132.57623741366478,37.08629319470538L132.44275792166718,37.088060627560935L132.24463836107316,37.245174387158386L131.86444677431518,37.338101529497635L130.0495006255378,36.355190254273566L129.61119296782545,35.887874667570486L129.20003113938492,35.56465293655401L127.55035959755332,34.422561963810494L126.99372012053118,33.339484486050424L126.91775679165858,33.127279887435634L126.95187654944493,32.51855330234548L127.24875593642173,31.909868708907197L127.6350965784286,31.504267813198567L128.01161372973365,31.33744075397135L128.3958546943377,31.267524924173813L129.81373684866048,31.325989871957518L131.4032676306142,31.755245934426966L132.56056482162694,31.842471830274917L133.0800100132392,31.778518688031454L133.54921292415474,31.615607844140868L133.90863270232694,31.389109143023234L134.2336327687981,31.099575222392104L134.51071519741072,30.744764030278475L134.94729812011428,29.692890249061293L135.20645830233025,28.414365223061395L135.21875641282895,28.280344037106715L135.15711588337854,27.97382761336894L134.88895708372456,27.365133790437085L134.03881270126385,25.916078306501277L132.76070907114536,24.084478315733577L132.6194307773676,23.750757972909014L132.541892690444,23.43435711843449L132.5232955477386,23.096878690545054L132.55644045530153,22.704019433125723L132.68054638746707,22.34469531155355L132.87086714628276,22.08472180321587L133.89026052505687,21.15381137415261L134.04653651456556,20.925773183753336L134.17874120242504,20.68514127725257L134.35916348205865,20.185205453532035L134.45672349278266,19.7126494731383L134.47314596960769,18.92775411946286L134.3875841154677,18.62475816706683L134.23520752685,18.378826904627658L133.34659405484126,17.434287253806815L133.0034467765363,16.802877532215916L136.08277366383936,16.832168552381972L136.49513530793865,16.842616276057925L137.05237469279018,16.850358775820496L136.93209317303535,17.105763332846436L136.42329634539146,18.621773840894548L136.36683002096834,18.87618322159915L136.37987801625331,19.13235546617716L136.4455679235507,19.42152916916075L136.6351387975792,19.850092973488245L136.9692124699668,20.214482767644313L137.6953259087386,20.566360700678615L138.0563204449636,20.645143954066498L138.6236082859541,20.62761591986782L138.90234046109708,20.53894952128212L139.4538807215713,20.245717987975695L139.79980257358602,19.953406991473003L140.67754271619015,19.019797465717147L141.23635685909358,18.325666601046578L141.71395847961776,17.625592853275975L141.951821933897,17.2044526677073L142.13756839551388,16.72526508282408L143.14091423985792,16.715190328721746L144.10594097161083,16.720973985570254L144.7997343760835,16.629274493721823L144.92773970914186,16.59625119731072L146.6893690495972,16.43029285402099L147.47974761457317,16.33560440106976L150.91189529392614,15.968313404070614L152.26063807093396,16.002365806100443L152.50112612196608,16.027648444573515L157.57649633398614,16.109839731513603L161.17444353963674,16.21283407597093L161.1898161777599,16.213207241216878L164.44574093228493,16.29483667500199L164.61581480186396,16.298941445025775L166.66982422057754,16.318625650668764L168.02171651368826,16.331966100772206L169.01508889037177,16.340548754944393L170.83145982024234,16.358553637628575L172.64693088837066,16.382249114307342L172.91793925021284,16.384674631156486L173.42501134284885,16.389432373378895L176.0940012749752,16.430666008028766L180.96532783658768,16.428147218094182L182.08663055784928,16.4760973645989L182.82391727994036,16.406877401382644L185.8308802853453,16.363218107686862L186.40184256179055,16.369188624965773L188.45787666942852,16.377864524089546L192.36260174123709,16.37068125351334L194.78232997032956,16.386726990929674L198.84085641184993,16.425815004405194L205.12864034669292,16.45408138354742L207.53509561506507,16.4658356868631L209.69213920344555,16.50165820756365L210.00386630919547,16.49456834777766L210.03011227672323,16.49913944238324L211.73310062687506,16.535428233661605L212.9813588424904,16.539159718569408L214.48270317355036,16.553712491297574L214.66132572969764,16.532349757159864L217.19601129656075,16.564533764831594L223.61210051837315,16.585523257795103L223.97984401767553,16.590001008401487L224.36236024727077,16.59475861537703L238.86633183393133,16.771254291124023L244.42845226087047,16.902876958766683L244.63384570389462,16.630114067087106L245.02093623068868,16.254348591160124L245.4575941418707,15.664073722195553L245.58200002795093,15.342933479990279L245.61896934792549,14.971579774659403L245.58140012012245,14.674389746829547L245.6233936681656,14.416099748725173L245.72957735393538,14.217430380955193L245.85870751417224,13.731418573874635L245.98191358459462,12.840871930482535L245.88345371212745,11.807487286199375L245.74674971554668,10.873664143613041L245.44679580094453,9.84223859552776L245.32898890098477,8.783303030825664L245.0342091914099,7.025911123078004L244.23850644444883,4.4533087569711824L244.24855490058872,3.964115105782639L244.14072146828948,3.5127379007126365L244.0253891881248,3.253393475912162L243.58888125390058,2.548770581292956L243.30340011567841,1.7175091393560251L243.12912689129462,0L245.0608301013308,0.01262267759830138L247.53395012722376,0.10219630157462234L258.01209024905256,1.2181265698204697L259.69895607629496,1.3478833668409607L259.4262229794431,4.194278550889521L267.55767365038537,3.9229035783373547L275.32782983118886,3.7467473382671415L281.04360165088565,3.6460980451115574L281.1842800368331,3.6460980451115574L290.6735470906988,3.493392530946039L291.53591459517884,3.465355670901772L292.33829131673883,3.465355670901772L297.3259999972179,3.428627219039754L297.6008327714708,3.422085235943996L302.2969862469581,3.3986275048237076L302.5300504386032,3.4026461653829756L304.8354212377544,3.3911509210743134L306.08157977596784,3.386758424499476L306.11959893464336,3.386104222652648L314.7848175966201,3.3375996629802103L322.5426756669249,3.1941401412336745L330.41189162802584,2.9786183785467983L330.4538851760699,2.974225630248384L334.3349138886242,2.919830099408955L335.91814563837215,2.8893609454835314L337.0242256984675,2.8492648377996375L337.1906251325918,2.841507290014306L337.42676385186314,2.8485171227166575L341.48491535098947,2.7203763027700916L344.8694453464004,2.6901867038950513L352.922608045631,2.4316538701323225L353.02399246876666,2.4299714134690475L354.15901808161925,2.3962287273507172L356.0909462570917,4.173252962956212L357.054623196228,3.751513425892881L357.14745893279724,3.1130164882852114L357.6473321314825,3.1996542734023024L357.61816161328625,3.5131117237729086L360.3181967755754,2.4000610071452684L362.88835189284146,2.4724065891664395L362.89465092504815,2.4719392427791718L362.98636183443796,2.463807410778827L363.2632942860937,2.456516794970412L370.275166970785,2.6470050761327L370.36567806451603,2.616815169516485L371.4688335739429,2.643079460761328L373.42018376538545,2.7428081208659023L376.3967764369363,3.0626408565876773L381.7364060477221,3.4799348517512954L381.96662067717807,3.486196413948619L382.1669149036543,3.5075978316917826L382.1839372883078,3.513952825582237L383.033106820546,3.5874086713415636L383.5794728759929,3.6227344982212344L392.2503156738685,4.138116732317485L392.3461509495837,4.129519543393599L395.5181635964982,4.4225657602378305L395.91012837440303,4.4591022553377115L395.9377991230258,4.46340065433651L401.3961354955145,4.673271536834818L407.8544432308072,5.091780295853823L410.9803379633513,5.240901451944865L413.2811344653055,5.206144165197202L414.2443614735703,5.259588095923391L418.5024322567797,5.391981579950425L422.5572842628462,5.6042545502718895L431.9887351996731,5.826144123870108L432.0287790472721,5.831282538287269L436.76280170447626,5.899763238650394L441.12938081629363,5.529978408165789L448.32819977825875,5.156343781906344L449.0383406710798,5.006940565919194L450.8569612553092,5.017498868695839L451.18158637938814,4.887901638803669L451.5899736341189,4.8294092629435L452.6651584410083,4.823709501234134L458.7330011679678,4.918362336516566L466.175157743156,5.200070966158364L466.9035208362866,5.253328075591071L471.5369089551432,5.492419614548453L474.39989408153906,5.743368433818432L477.58690442418265,6.126314804525009L483.90168421133967,6.6937368191283895L483.90010945328777,6.699995587888225L485.15001741543347,6.821526721469581L488.1005890848937,6.902048142155309L489.4806020574979,6.985464395852887L501.50890400999015,7.3401361621681644L507.6430365520773,7.648182962504507L510.8825388297764,7.610728612020466L515.1644559491979,7.666676560035285L528.0370531828157,8.058673622915649L528.7751647781724,8.04942733299822L531.3248480407665,8.03074792323605L538.8108728759626,8.102476592745461L549.2838387927659,8.271801987601066L556.2893374567711,8.563092132334532L564.1934230604456,8.805902750909354L571.565015477222,8.92730499336767L571.7074935866585,8.759115648612806L571.8049786089041,8.497625254179184L572.1424267628299,8.030654526067337L572.4048864381075,7.853197716500745L572.5848587868686,7.6196952572918235L572.6973415048442,7.4328878425885705L572.7124141890527,7.224405049975303L573.1077534484984,7.225992979344483L573.10872829872,7.229075429475415L574.9490955417596,7.300251638484042L576.6709809885315,7.481551640536509L581.6062727224335,7.5447860655572185L587.9579468410848,7.554126406267642L595.247126919825,7.544599258618746L602.6412908686752,7.469782690738157L603.7811907326413,7.871410590265441L604.5906913596727,7.866927425608083L604.6210616935277,7.870383198609943L604.6935005639043,7.877014542163124L621.2341592307084,7.87085019483402L621.3171714765749,7.875146558682445L631.7583422784292,7.911198554390467L636.0761788791242,7.883178884219433L646.173602494845,7.88906302399073L647.3659942938657,7.88906302399073L652.6679046998888,7.851609925323373L656.2750004999343,7.786136584580618L656.3724855221799,7.786136584580618L656.7834223851842,7.779038155267244L661.81184980957,7.690680805247666L662.4545010716047,7.71253674107902L663.3584871817357,7.81593123136463L676.0778829534711,7.701702182883309L681.3527225187017,7.698059526037923L681.422986723197,7.6979661245563875L681.5932855582132,7.700114358332485L681.7231656032354,7.691428017824364L682.5261422326239,7.687131544455497L682.5642363797788,7.695350882576804L684.2144328409604,7.750737768895306L684.7956685389809,7.774181331181353L685.0576032949075,7.789125394834173L685.3024406777004,7.8041628276018855L687.0462977487168,7.797998417965118L687.208122885645,7.793795408369533L703.2875274202706,7.84096237545873L704.1498949247516,5.785877513095784L711.3414400042893,5.972540786463924L718.0755553640574,6.144064935514962L724.8275179817456,6.187132176815339Z" class="state" fill="coral" stroke="#111" stroke-width="0.5"></path></g></svg>