<svg width="800" height="278.4" xmlns="http://www.w3.org/2000/svg"><g transform="translate(0, 0)" id="single_state_map"><path d="M573.6195124243595,267.6927620627507L573.6028376003069,267.9234053799364L573.4783986148404,268.13006935091425L573.2792962380945,268.3883917816911L572.9889386053392,268.58471123186064L572.6156216489417,269.10131826887437L572.5077745282042,269.3906035917944L572.3501518132798,269.57667049881957L564.1950014210815,269.44236389459866L555.4507568716863,269.173743900526L547.7006138975194,268.8514912848418L536.1144317980443,268.6641675721089L527.8326854779662,268.5848145566124L525.0119855147395,268.60547948044905L524.1954168921093,268.61570859792937L509.9545364360192,268.1820444965588L505.21747609660997,268.12014960270153L501.6336333151803,268.16158513572736L494.8474776817593,267.8207947280998L481.54063625057915,267.42842338814535L480.01393581755474,267.33614046532557L476.7497353101262,267.24706007965597L475.3669693036236,267.1126108839253L475.3687114494214,267.1056868439596L468.3827068053406,266.4779511250931L464.85693555046237,266.0542997525413L461.6896315330496,265.77667651373713L456.56374084371964,265.5121709161049L455.7579569331647,265.45325288153117L447.5247418174158,265.1416002410133L440.8119222260975,265.03688635246226L439.62245144368717,265.04319196613596L439.17065496711984,265.10790174591875L438.8115240550642,265.2512744177143L436.7995945380462,265.23959382793646L436.0139697431341,265.40487774850135L428.04995763261377,265.81822759160195L423.2192362168098,266.22731842772737L417.9820141151504,266.15155862186066L417.9377138363243,266.1458740234757L407.503753782943,265.90039886141494L403.0178942755301,265.66556249237874L398.3072150010403,265.51909634067897L397.2416024888298,265.4599716267794L394.69624452077824,265.49842341367L391.23808511466996,265.333451534349L384.09329632513527,264.8704576956661L378.05477011639596,264.6382787426055L378.02415812597064,264.63352344845725L377.5905297412837,264.593103333576L374.08135035113355,264.2689079853917L373.97532833551577,264.2784190061675L364.3828247018573,263.7082545978701L363.7783830697863,263.6691738382938L362.8389516888392,263.5879100576226L362.8201199223722,263.580879564347L362.5985355689172,263.5572032987002L362.34385044533065,263.55027616837015L356.43664884592,263.0886262159697L353.1436614531867,262.73479709565345L350.9848939333169,262.62446785122665L349.7644793231866,262.5954118165282L349.664347419548,262.62881073698645L341.90715290287153,262.4180746445659L341.60078412065377,262.42614021100053L341.49932486783655,262.4351364100821L341.49235628465067,262.43565343270893L338.6490084260686,262.35561793044053L335.66197501893384,263.5869795515173L335.6942461958324,263.24020337280353L335.1412393444198,263.14435648825975L335.0385357017485,263.85072198661464L333.9724254335961,264.31729001651047L331.83514437855047,262.3513783012936L330.57947205587243,262.38870764132935L330.4673110503054,262.390568933482L321.5581433655052,262.6765823240021L317.8138572521466,262.7099809040087L313.3243475344934,262.8517423578387L313.06310862433656,262.84398742014264L312.8790218851709,262.85256955074465L311.65537186141864,262.8969276446019L309.9038516613173,262.93063549475664L305.61029186611177,262.9908129584005L305.56383464487044,262.9956726306377L296.85816618097033,263.2341031200258L288.2756923126817,263.39281156575726L278.6894106282971,263.44647188180215L278.6473502512099,263.4471956215516L277.26873221089045,263.4520550153079L274.71831372409633,263.4647721381266L274.46047614621057,263.4603263170093L269.2651485029892,263.48627747034607L268.961102581834,263.4935148287068L263.4432290882851,263.5341473042522L262.55556432529283,263.5341473042522L261.60153210338467,263.5651643216429L251.1036104114737,263.73410155573356L250.94797872031813,263.73410155573356L244.624653153508,263.8454492912224L236.02857395614137,264.04032992882094L227.03279673745692,264.3405505037954L227.33451979755137,261.19159984440785L225.46834981217398,261.04805064441325L213.87644351936797,259.81350339190385L211.14044502558227,259.714408605676L209.00341284850674,259.7004442098787L209.1962103166552,261.6005147156143L209.51203646176873,262.52013447901845L209.99494268470244,263.2996547441826L210.12253412446717,263.586565993211L210.2418296318674,264.0859220051602L210.23071308249837,264.6271141344582L211.11099446568824,267.47316937038977L211.43710756693326,269.41736195394833L211.56743666437887,270.5888562929654L211.89927395895575,271.72991645845195L212.0505088059599,272.7629996427818L212.15943439790317,273.90622714515166L212.02313222915654,274.891433786745L211.88027627384054,275.4291058601634L211.76280587155907,275.6488926417551L211.71634865031956,275.9346373845797L211.75791127146476,276.26341700708053L211.71701232490796,276.67424348044597L211.57938280698363,277.02951908768273L211.0963106654026,277.6825367881979L210.66807463675104,278.09824397805914L210.44084904928968,278.4000000000001L204.28750713662794,278.2543865980433L188.24184659465664,278.059130444703L187.81867108474762,278.05386713140524L187.4118385615966,278.0489134216032L180.31375587127332,278.025692865976L177.50964777277568,277.99008788296214L177.31203866385385,278.01372135315796L175.65111004517348,277.99762170419353L174.27016914379237,277.99349358385143L172.38616290383197,277.9533475022863L172.35712714055717,277.9482905265536L172.01226523216792,277.95613399775266L169.6259402875421,277.91650374865276L166.9636926324756,277.90350003034155L160.00755334490714,277.8722290972896L155.51762883063475,277.8289862522706L152.84069737528353,277.81123494503754L148.52092243380594,277.81918175605824L146.24634369812793,277.80958365864035L145.61469140790086,277.8029785096337L142.28810548909223,277.85127853573067L141.47244941902227,277.92785618385005L140.23195865256912,277.8748092119117L134.84283802931714,277.8775957347634L131.89014978217347,277.83197920135035L131.32917883568916,277.8267157384298L131.02936384003988,277.8240324030576L129.02091861461304,277.7978182331731L127.01147787730406,277.7778995347726L125.9125157169874,277.7684045937094L124.41692503032937,277.75364613030797L122.14458619639208,277.731869606554L121.95643445036694,277.7273285230299L118.3544235770587,277.6370223488261L118.3374169157114,277.6366095182557L114.3570285672613,277.5226674659684L108.74217562437389,277.43173971684337L108.47612507344729,277.4037696789733L106.98401867838129,277.36609770200175L103.18705339450935,277.7724296244519L102.31266212329956,277.87718291662577L100.36378169225009,278.06078167953183L100.22217012678811,278.0973151628623L99.45463046443365,278.1987617845193L98.38702692845527,278.1923633581341L97.27703117809506,278.2035090007889L98.24259474599057,275.19651138194376L98.82073827246677,273.73409776831795L98.97620404497684,272.7380081061233L98.99146856052721,272.2780259311735L99.05103335490276,271.9454672981092L100.14169958285402,269.47108503546815L100.31749038965518,268.6934081326135L100.53575637016365,266.9402315028383L100.67222445755942,266.34369566250007L100.7480492793702,266.15238547219496L101.11730122891004,265.62308035012893L101.56976138006485,265.1869792776183L102.31954774716178,264.83758504048546L103.3778598388908,264.5737719017852L104.18314599350651,264.4436194901855L104.78999344596377,264.4502357085571L105.5015355648593,265.1869792776183L105.89550939284527,265.69750147207606L106.8829742221833,267.34926475355815L107.45248997900126,268.42486623461537L108.75511727886169,270.0810232603353L109.354498392192,270.73306010510896L109.65754880146415,270.9891290751634L110.32644982800684,271.37740030918394L110.46548965443435,271.3981612875232L112.27201188611161,271.2043900554859L113.03714572808258,270.9408908132077L113.85612017109725,270.2401119435003L114.17833418413284,269.8310203471983L115.08723653397828,267.61401940234236L115.22868218079111,265.8983316700478L115.3751883463483,265.12599144658634L115.49813406398789,264.7862083234713L115.9222221264572,264.0562510010036L116.31984616468344,263.5271167635192L116.68719004977902,263.1570741024225L117.39898104664826,262.5654250503271L118.24018858840009,261.5606996989727L118.69820701424032,260.9174268965821L117.89823025633905,260.3444359632417L117.63616175294646,260.2788600020149L117.83650851954735,260.06475176079994L117.96144526095577,259.693099962255L117.95688249815612,258.9353647487478L117.83194575674679,258.5873513166316L117.39109991090208,258.0615780135781L116.60132714980864,257.30855052438665L115.6320304123501,256.19315662329836L115.34665033901456,255.77630538232688L115.24278526581111,255.35239451719053L115.21665307886269,254.76958367002817L115.32026927409515,253.8954425396596L115.48535832814741,253.35766082476994L116.0042688975418,252.54962583838596L116.58747294276054,251.88481179669907L117.00044445586082,251.6265743642116L117.86645683538336,251.28062244919465L118.05046061522626,251.2640544846272L118.87159200065707,251.64355575237914L119.30580110060964,251.61290639127083L120.08918599378285,251.70557892875513L120.6528945979453,252.0589671855687L121.07756337567935,252.0852661812005L121.4313848910233,252.081849387479L121.73866622580135,251.75993941130537L122.00679075981861,251.24655453452033L122.22538857762083,250.44348279376345L122.26653640214863,249.939540989968L122.20182812970597,249.60977630777597L121.90400415782369,248.9402621567824L121.64741096979196,248.6048623981319L121.20001133737787,248.35957034122566L120.84436471691515,248.3024932729263L119.93197807547585,248.28954469758855L118.96276429734189,248.2094702384702L118.5491291096514,248.0242496359606L117.92021447710522,247.54180633113128L117.7036076830691,247.2778330968722L117.17698189657585,246.32981914012134L117.06648007748208,246.05430400481373L117.02665960213199,245.744791385574L117.08099795911949,245.36770227717034L117.05494873149473,243.8324256750584L117.11592383437437,243.49888292426294L117.19689213425045,243.37522600237708L117.50865327250631,242.95780486473768L117.75910747058697,242.779925161135L118.05435970343751,242.67553818526585L118.66618471531365,242.67802607357044L118.84338583061708,242.59509604262894L119.16004156896724,242.25351883151006L119.64444105972598,242.19670881156253L120.44956129569346,242.17587145765629L120.94939122064898,241.12999398224656L121.38426399519358,239.6123553042935L121.95577077577855,238.5006944093211L122.14209741668219,238.0273174109252L122.82153427732919,234.63381535902226L123.42215978051263,232.652856419204L123.53589701322926,232.15266056628025L123.69542779259609,230.71209828002566L123.6818224635199,230.34467499901575L123.63312534053966,230.0172084936571L123.36060396236826,229.48174972716424L122.81149619916778,228.7690982464028L122.35256522076725,228.37738773785486L122.08128823245079,228.2170425224499L121.51973657070357,228.04880116873983L121.20457410018025,228.0731029189651L120.88791836182918,228.1837060943608L120.41073633222823,227.8836719120727L118.5665505676161,226.32962614069265L118.08704567695258,225.9882809239034L117.69937675756319,225.49638960691527L117.49405243154433,225.14970988544883L117.04773127033877,224.1607007730554L116.89226549782961,223.54607916451278L116.7545530205798,222.46198404731376L116.8491266495339,221.52346472910995L117.01380090696694,220.82631062188239L117.31734907218197,219.88478973143174L117.95099238617604,218.6216632894816L119.07782887923622,217.09418381911246L119.34412830813471,216.92986517480904L119.46831841562835,216.99840102580356L119.73387121061478,216.90625708813468L120.1715646021621,216.57854458109614L120.42782595289827,216.26225944867792L120.6256009804656,215.71192842101436L120.70159172092463,215.59948599790232L121.51948769273167,215.02372652235545L121.77267954849412,214.76064192736158L121.90168129676204,214.53749686147376L122.30702055208712,214.29884428071955L122.67121198288532,213.95853857870088L123.67850409057337,211.67818382465748L123.87578136219963,211.1335688379695L123.95177210265683,210.6973709372328L124.18563443601033,210.0678544697098L124.71723778192154,209.11401192437324L125.57213361207596,208.1225718363744L127.08074891254637,206.70208465550468L128.47222564803087,205.23217988003125L128.77876034889687,205.12271232297007L129.40817273738412,204.37150086425254L130.73369681057284,203.8562774561492L131.4042570235879,203.3241430964208L131.187567270229,203.38821364807245L131.81507159427474,202.99044688320646L133.28411529736604,202.54410734563498L134.64705402551772,202.41845256574243L136.69780850600182,202.53097932831542L137.55776485489787,202.65788257684198L138.45928382494003,202.95210685396387L138.78647539739268,203.00190718171552L139.95562114551194,203.52197877449453L142.71907917542285,204.5207697550377L145.57943369535224,205.8982222205159L146.75048750791393,206.3442671936741L148.01271361716135,206.71999592824704L148.70517509161982,207.10955601774822L149.57010899993384,207.76242420585731L150.19072770011644,208.39639377920957L150.48241268205038,208.78316404850784L151.3612007974125,209.4200702587118L152.3806879256772,210.24876234072372L152.96165206915703,210.575281153398L153.63594545173692,211.10099273620244L154.11976422723,211.36711368361512L154.83860676660788,211.65455999299002L155.10540395144744,211.71211043688163L156.57137815956412,211.50344904907752L157.2823395631949,211.6586187180119L157.79801471896826,211.84354866145168L161.35655490668523,213.56401108878845L161.92855944321218,213.72371803101987L162.54013557711733,213.7555549887138L162.93137174742424,213.91629844718045L164.13005101475937,214.61468808419886L164.98420021099992,215.20389643150247L165.58333244635833,215.7572793975105L165.97448565734157,215.9763334206673L166.6026536559748,216.92154515233142L167.01056465033435,217.41189148290186L167.61973496385417,217.79031607809247L168.39482392466107,218.43533267497696L169.60843587025374,219.05991799585127L170.75551443828135,219.35217823690255L171.5967219800341,219.51935745343508L172.18407399143416,219.556057391615L173.0069475226628,219.55252256081167L174.19899004410672,219.28127155354787L174.7972926862276,219.36028775829982L175.3555259750292,219.24498621530392L176.78068419591364,218.6655418449518L177.97056977494321,216.085962160088L178.12504003556933,215.12473452506993L178.0590873732708,215.05451797656724L178.0590873732708,214.98430080224762L178.69862079924405,213.33396497362537L178.7921989163142,213.19152237771004L179.6155702034839,210.74837122390682L179.64651403120297,210.48535191721658L179.34006228966246,209.93055740061664L179.18998887318867,209.835832476615L179.05874722318367,209.66615750954816L178.8684385347442,209.273496868424L178.89564919289933,209.08600803331046L178.536684199491,207.61425807749583L178.3918372204089,207.4338102458396L178.1903290232758,206.67407217622758L177.70850127155063,205.16489552976464L177.46883178554253,204.79836277127697L176.79603167078767,204.1223311245276L176.11427194907992,203.7587708023775L175.7183900566497,203.43280227654714L175.18529344291255,202.69351514011896L175.0566235319393,202.44814728462825L174.62092116415988,201.284447084141L174.43052951639584,200.94024304389268L174.00693920986942,200.48503269945786L173.3105786471997,199.9499600650347L172.70879171348406,199.25349809795307L172.6011934707185,199.05868197947257L172.79913441693316,198.58689215137338L172.5797070058943,197.8840541001623L172.0527493821064,196.77420908256408L172.15877139772238,196.05421157722412L172.42125469773327,195.26385873380696L172.6568591768837,194.76055257757116L172.95302396229272,194.2906945367149L173.32808306448896,193.251379103845L173.8614285561971,192.22204567410745L174.1789138877839,191.45488685771807L174.4579060931992,190.97971779105683L174.6640600124565,190.35227101670625L174.81753476119684,189.3811059803029L174.85893146369563,188.36869532457968L175.15675543557882,187.27921615262312L175.31694988953495,186.0448745061044L175.84523486250146,185.06544780798686L176.20718639156166,184.61725134856943L177.02524828201695,183.78856330869667L177.51246838977931,183.45069240050225L178.40793132919498,182.95989194271579L178.91821412893023,182.77678697120427L179.51560421849354,182.6439208972447L180.12842474225272,182.37797306090806L180.58353959176475,182.11880623831394L180.940264683436,182.04066800236205L181.32859727741288,182.15244304605903L181.89164220698694,182.4138023812875L182.69394182594988,182.952998165184L183.5369744728223,183.64829904297585L183.87395524546446,184.22093323525178L184.0590374965168,184.38927950788093L184.53547289220387,184.5007077100463L184.86017568494663,184.3682886380252L185.11909173404183,184.16683608345966L185.9512567095162,183.55419629076323L187.21406353402836,181.83236520074206L187.42652236188133,181.612356317798L188.20824806858127,181.04935193668416L188.51304062365034,180.8954563218349L188.92285968245324,180.4343782120368L190.14767113673588,179.78393287691551L191.48779605088384,179.17993678202765L193.68406118504117,178.74603396420116L195.12830005036267,178.73944999314563L196.18785653194755,178.67893990418588L197.6885077373472,178.38652012573266L199.20732703462636,178.20801118007284L200.31334073745165,178.01005796769596L200.60527459735476,177.8196251715499L201.8250255328967,177.6811351795077L203.64341094785323,177.19101767442908L203.85197068749494,177.1984391753408L204.23507684408378,177.30798388995754L205.77753954860145,177.11335281241236L206.90570339083934,177.0447813100027L207.29245975766844,177.07885807697448L207.29245975766844,177.18171465628666L207.35683619281644,177.2502849569023L207.58215371583356,177.2502849569023L207.87193063332325,177.07885807697448L208.38495109073938,176.30038637795224L208.84960626246993,175.94316452157864L209.17165435685638,176.114825409868L209.23603079200439,176.14911531796224L209.52589066881774,175.84018708700341L209.68683175668866,175.4963267107978L209.6967868755246,175.36877355799925L209.6324104403766,175.33448022388575L209.53576282833092,175.05970990277183L209.66451569862693,174.64795454235582L209.76995699897907,173.67745181077544L209.64253147786258,173.37511886026277L209.66410090200952,172.80618664508756L209.60246212454058,172.5769287077287L209.12901326450356,171.57886700860536L208.8615524050747,171.20971292272634L208.38005649064417,170.874645227982L207.7041039215901,170.6489920940394L207.55021437623054,170.5508618058202L207.15491319906505,170.0787102309937L206.46137325339987,168.85525168266713L206.09543967680565,168.34773158764392L205.36996039153746,167.71888406849257L204.77373173250635,167.09333506174016L203.93542776708182,166.59072444023195L203.78850680490814,166.4581060303144L203.55862651908956,165.82481415931125L203.2426344553287,165.17932688004248L203.16241278936468,164.7172147592505L203.22164574644648,164.25675045731805L203.1780091422088,163.8489268107296L203.05581005848217,163.36945804919878L202.18755777722072,161.3702190919007L201.84443801462749,160.32546753127463L201.7160999409516,159.57675091041938L201.69403276086177,158.61820051258792L201.57606460263924,158.0696709175004L201.56569468718408,157.7280646578356L201.63330653595312,157.28217257202732L201.7299541479988,156.9997435653072L202.27425027042864,155.8934033994251L202.78959358890734,155.10809564932333L203.71475596618802,154.1742602505592L203.8757800133817,153.5825354933977L204.4820467505724,152.53904431011824L204.69948313784516,152.26734872821862L205.08184266052103,151.9634494780621L205.97075181336822,151.6140240568443L206.40579050655833,151.39158750457682L206.91059799093364,150.8494700541355L207.72841100341793,150.28497325935268L208.0582572742287,150.09595940529925L208.83699644527678,149.79208009940658L209.561729096632,149.22991924468852L209.91131968646823,148.81417307217953L210.7115453223405,147.61076509655777L211.32046675788933,146.24219954056343L211.46390342846917,145.7214474417883L211.6384498454181,144.43830870326792L211.88251617557944,143.63945421491962L212.16366532340908,143.17291033436868L212.5293500220332,142.87232950891394L213.11081192145411,142.64292275195203L213.59836386651205,142.5882210998966L214.46429328671093,142.77563302590215L215.09511598370136,143.03527242914697L215.42720215624922,143.2364266217901L215.58739661020627,143.41563423519074L215.92014645734344,143.6095349386933L216.15234960422276,143.6517368317468L216.81345245434477,144.05022895950242L217.19373799392815,144.4025142245182L217.3217442303121,144.6955832203862L218.17058402984003,145.60169680378112L218.78780139775336,145.75713088539942L219.11930685503557,145.69395008800802L219.2960931737216,145.57503865391527L219.45844457009207,145.3883240844566L219.94856825418265,144.05967662769854L220.17562792299668,143.87187581982926L220.27210961639503,143.64890238343605L220.25236529736867,143.29269846832813L220.44997440628867,143.03527242914697L220.86568357706892,142.80650043813193L221.56295669229894,142.56743227105653L222.2308622069586,142.2492932411501L222.5856792341856,141.9903625347779L222.7694341360566,141.47562545109622L222.83505496106045,140.92577877295253L222.5057894055144,138.84102674425867L222.2981422184348,138.2312182033038L221.9152019804933,137.57965223324481L220.88559381474442,136.62447639118L220.1451818512196,135.65478570141977L219.9875591362952,135.36957181064417L219.83184448581596,134.907889771192L219.74755781299245,134.47445321320856L219.7626564098964,134.03615733210518L219.82653508910244,133.580807845216L219.9678977765907,133.25157726414864L220.09905646727293,133.06393479567623L220.4852321188364,132.5663711425459L220.84693476992652,132.187473834098L221.34676469488204,131.45559439784847L222.7533400272705,129.66718737330302L223.31140739742477,129.39142862650579L223.7752329759196,129.3476765256105L224.53431078726499,129.52562823804556L225.03173489183519,129.75742208195516L225.42869525547303,130.07660051077482L226.00791725315685,130.70156315602526L226.21208014864533,131.03784219989393L226.57369984040997,131.99244592793093L226.697724029259,132.21638590853627L227.6644490276849,133.00464513708448L227.73902945964073,133.1205959421036L227.98774151192538,133.57923110377942L227.99421233916928,134.03037628536003L228.02922117374783,134.1426329301121L228.28564844313132,134.41128548126062L228.63565382958677,134.66826247184645L228.90983439423144,134.7531838720297L230.78181153226342,134.89244034004378L231.8460137359707,134.8838222766217L232.201494437787,134.8374737466056L232.57423067891978,134.7489798642323L232.80353024947271,134.62254326297625L233.68522194116395,133.90939375283688L233.8520531410113,133.72891499221987L234.57744946695675,133.24064471852626L236.41184603137754,132.8470627903912L236.97995147969414,132.87902104403884L237.7817533427151,133.1195447186733L238.2516349518355,133.06572188826476L238.85690617714408,132.92611717728187L239.66658917591212,132.5712071148091L240.70996858938452,132.0245128485717L241.06835286752812,131.9168515792485L241.37364317853826,131.94040260992142L241.75591974189138,132.0817072885893L242.1104049318228,132.33739490961761L242.52321052627576,132.72763867448566L242.64399930150284,132.96648506337124L242.8231914405742,133.80070757168005L242.82692461013812,134.23470738979404L242.72065371655026,134.68381745146417L242.54859607931212,135.0022672594173L242.32427406817806,135.28066363785229L241.96696826124116,135.60486877447147L241.78329631869383,135.8640129404771L241.2662108544182,136.9178395950994L241.24406071500653,137.91668320143708L241.34452445593888,138.52494076308585L241.4690464007299,138.976533236073L241.77184793203014,139.4585599908969L242.0324231675968,139.73217482609743L242.51980919400648,139.90778739645702L243.4614804766934,140.0567188624059L244.2340806577913,140.07121274507153L245.0679877790626,139.95400056941435L245.96328479983185,139.73742645589573L246.76093869667056,139.43314115496287L247.00757676586545,139.2371402232775L247.49098074473932,138.72988864343324L248.743251735149,136.84166289708583L248.97346385826222,136.38542759863458L248.99860053332668,135.56504009037008L248.73678090790418,133.6308429400433L248.2775180922108,133.08422352843627L247.87524833185944,132.73436684268108L247.33501721628818,132.4114081704488L246.3566779125522,131.5568483299926L246.1058089178523,131.15476882369921L245.86024931986503,130.58778438474337L245.6810571807937,130.0291715346798L245.63592730873097,129.47556658633175L245.9133432869976,128.76793781696642L246.4217180222886,128.2319142993747L247.1411412769321,127.59402312987822L247.522754165695,127.0638096714938L247.74674433953442,126.0853441072386L247.6057134893399,125.82229460075177L247.6057134893399,125.43296489646127L247.72185654244186,125.03309234636299L247.9209589191878,124.65424662784153L248.3108677403152,124.41219658089449L248.62611317016308,124.30695506438451L248.88328707346136,124.28590658902385L249.20682843567374,124.34905184304534L249.60511614848838,124.55953229529632L249.87058598414933,124.75948341319508L250.1360558198121,125.15937012433369L250.24390294054956,125.69602765686341L250.17156241033172,126.51672591482975L250.35880160379656,127.29273168967802L250.6601098672727,127.94916164772712L250.86983103744478,128.2958688222211L251.41138950219374,129.00943077573993L252.0804564473856,129.61186813855284L252.5264457712965,129.90129062872893L253.7184882927404,130.57095928576518L254.65161476509002,130.9579273035788L255.38041242330473,131.60899937094155L255.7135770670602,131.57703587141623L256.2405346908481,131.32132312103568L257.1298586403145,130.5305788988967L257.467005331604,130.15873292777906L259.19529692108426,128.74185276031903L260.444332497872,127.92549326697645L260.66599981064974,127.82282425198719L261.57249634010896,127.63715397431679L262.26421118065355,127.57203682632871L263.08849502038356,127.57708631784271L264.4119451104807,127.83965533149467L264.53406123488367,127.94905645508379L266.26898957025605,128.54137354090517L266.9167359692701,128.91498015945308L266.9499196987272,128.95032039149646L266.8941710332392,129.07148567513605L266.92602741351766,129.12701912895727L267.64818832584024,129.9347333724586L267.8127796239514,130.0760746922333L268.0901956022162,130.1248705004441L268.38752181815835,130.3654798117168L268.56140456051617,130.58925657916325L269.19861512542775,131.11081639723807L269.9897152356989,131.48924071130614L270.0919211224282,131.42194793805584L270.2910234991741,131.416900956468L271.2640534061975,131.68102190394666L272.73342894658344,132.44809914098187L275.05247387973395,134.07778074122234L275.4241316496609,134.40235156741664L276.00152854222415,135.1388918745456L276.63865614781207,135.71899415954567L279.4846587047505,137.63050198439487L280.1921358167883,137.93632888105412L281.0363298941911,138.19182323627274L282.87611881465,138.4456283652853L283.6419992905321,138.34646046345688L284.13710053404156,138.46243635844166L284.3481490533932,138.57336819882994L284.6336120860524,138.8137150713742L285.0809287591419,139.39007599470415L286.03794751670193,141.0923330872556L286.4069505882717,142.02816317689576L286.76807252409435,143.60890505795078L287.06008934332294,144.19677149571953L287.23397208568076,144.3613661152758L287.9228663092217,144.5914568221856L288.5945049934453,144.6267255974426L289.5263870759418,144.4033539795755L290.2949222501802,144.0708038665939L291.392640020641,143.18886819435102L291.9461446279947,142.58748614225078L292.1863948292703,142.1540589865881L292.38947925355114,141.69036590415362L293.015988065712,139.90757733595046L293.21774514081426,139.08409639212869L293.5456003878571,137.15277432059838L293.72744722528387,136.5156181636885L294.17592532890467,135.35433348472634L294.2427075844389,134.90736428084347L294.2130081465739,134.39331253821274L294.15186712504783,133.96394649289914L294.0066883086711,133.59089898281673L293.9782332606601,133.3499694798047L294.07247505232044,132.93904753871675L294.3090750433539,132.46428937065593L295.0395318880419,131.5914404911673L296.95829808460803,130.21657213469007L297.54017478065,129.92979058610808L299.55973655544494,129.10892872946442L300.3821123307298,128.8293635705013L300.73543609012904,128.87921904594305L302.40723238020837,128.75826111267088L303.34268171362055,128.610479504267L303.808083519265,128.60869138210273L304.5064351057008,128.42903558824537L305.51837293551307,127.76012815832883L305.9097750244673,127.4300185264924L306.76666187838873,126.40235947403926L307.3575811407063,125.51388395532149L307.65814277026857,125.18241559610851L308.1114325146609,124.84072523095892L308.56654736417204,124.36652193883083L308.85292294939336,123.94365033112308L309.1608679587598,123.60674674943493L309.7643140789478,123.10183748416239L310.3386414765364,122.81468653335378L311.4889554581878,122.42204716704146L312.45709076511594,121.87579259753466L312.74081165198004,121.82810270775826L313.13934824276566,121.88231966770036L313.5005531379129,122.0641279369056L314.82192924491846,122.92394830753392L315.18595475706843,123.86282007130603L315.397749910333,124.62288578854714L316.06565542499175,126.33996750073948L317.3049847609127,128.86596635599017L318.4717246886448,130.9290105258424L319.8216388029841,132.64343094963806L320.09192027941754,132.87965179771663L320.85622452815187,133.05752228358824L321.1702255681448,133.00758860602855L321.3630230362942,132.90772028434412L322.053410527662,132.4562993914128L323.36599294636017,131.38788074843296L323.862006742429,130.90892644569522L324.28393786248216,130.70640029405695L324.93856988535936,130.71765188603604L325.9465256676367,130.91155525496288L326.842569322318,131.1684381877185L327.0919450491929,131.37820732156206L327.2220252686666,131.59816964740685L327.33567954205955,132.03586766073977L327.3443073117178,132.4736460463837L327.2849913953114,132.8306631089904L326.95539400247435,133.75256562269442L326.1550854072784,135.5035626956028L325.9179047009802,136.1987017167353L325.81321003454013,136.80919563532507L325.8843891342276,137.5695662925218L326.163879095584,138.15473925760534L326.4104342054552,138.32660572043824L326.64106112518584,138.41821024819546L327.0133825697021,138.44037585994647L327.82331444644024,138.3045448351886L328.15465398507513,138.1861503445184L328.8604719106397,137.8267536790786L329.7355268564388,137.239349542509L330.23759668313505,136.97132044303862L330.6141490531545,136.67039392987044L331.1547120060213,135.71310928210687L331.2200839530533,135.4209615300415L331.20714229856367,135.28266040471271L331.0483581531089,134.93847324805392L331.1373735073803,134.3428619487995L331.1511447551047,133.90844774817106L330.9897888706173,132.1565640786639L331.0103627828803,131.5745124316195L331.1261739986876,131.13174114815638L331.31922034480704,130.78221677967394L331.9450654823786,130.05977429977156L332.11421954329035,129.94135880452632L332.63022653635744,129.85091590843604L333.7971323827369,129.95408382480218L335.2695774180984,130.40859519994274L335.9154157526682,130.5107040998214L336.46012667171635,130.4964026255052L336.9476786167734,130.3269912377259L337.69754794319306,129.95418899016886L338.3807179734031,129.53803842930802L338.6440308666506,129.2531248658879L338.7444946075839,129.0543417442418L338.70940281368166,128.45270242746983L338.51469728108896,127.81598661546923L338.24939336407533,127.34701551200942L337.7527158934163,126.8369850288068L337.5927703174302,126.5592315019012L337.3166816883422,125.74579812360525L337.20526731668724,125.10822787293591L337.22899368325034,123.67631785891581L337.1496845698466,121.93411493208123L337.1640365328367,121.01185457545807L337.2482402463356,120.40653500647795L337.2707222230438,119.80474828444767L337.22227397803545,118.82852198522869L337.4830980915731,117.72809209603065L337.68394261411595,117.42114864105997L337.85940158362246,117.27441397837265L338.318083684052,117.08332818714462L339.2894544046021,116.94543588548186L340.92026878880006,116.96429219753236L341.6245934465396,116.89687276901259L343.2598046748908,116.4468329862575L344.41758499566913,115.40000965142508L344.8694644315592,114.68929827984402L345.0932886867513,113.48088585302457L344.76518456173926,112.62454450555288L342.712024260868,111.60829956111684L342.2920012052573,111.10513438600037L342.0963001607797,110.51432402031514L342.1075826287961,109.70710512412279L342.34260639268086,109.19664522218272L342.85139592458927,108.64270363882497L343.4588240923131,108.35881026706875L344.9557421281497,108.47502642701284L346.0333007829631,109.36377948814788L347.16917984230076,110.61764530527626L347.45248593254655,110.6603440029944L347.90361873452275,110.40804925263637L348.65016968799773,108.63205255348657L349.2674700152347,108.14250855045702L349.63672196477364,107.99960476504657L351.53300618463345,108.22846047219173L352.9699446294753,108.14588336793759L353.52967118610195,107.76251573295303L353.93990504152316,107.1133311224512L354.120673407745,106.22874873110322L353.7335022442967,105.50094366265876L351.43685632853067,104.94578645455294L349.93404818071485,104.46001741068221L349.46167779188636,103.70070443182567L349.40219595683266,102.17404321285903L349.76306901468433,101.38167668487404L350.8767149752848,100.80700944948921L351.92540378547073,101.1694010475012L353.1636546501859,102.480856167208L354.4637102110137,103.53946212139044L355.5408540692106,104.0707680781079L356.8998937091492,105.10710479322006L358.22483706707226,107.23547271745883L358.27287051546136,108.05412999098871L357.6562338628137,111.38639648998378L357.65092446610015,112.35681949980199L358.0770035523374,114.6606366396145L358.59749034888137,115.69196712458506L358.632250305488,115.7478076048883L359.09831578572175,116.21179474829478L360.0358391022246,116.93774586789368L361.4390960616656,117.62507674568633L362.0644434432961,118.25968421040261L362.4915180414173,118.8239933553782L363.6473073384277,119.4607136912582L364.9341723667967,120.03335905614313L365.9250385284031,120.57353171823024L366.4889130512138,120.71967719998293L366.89342271330224,120.72399413539506L369.0708560809926,120.13528926714025L370.1902262349231,120.0783222387131L370.9668914228814,120.15540137082917L371.8007985441527,120.3515706073731L372.82866456410466,120.82391472182462L373.51233235025666,121.22432112359274L374.1337806436759,121.67481930099166L374.51879486470807,122.08539301357996L374.63601638901764,122.24319489624622L374.55844942140993,122.46468055774585L374.82980936905096,123.11152127439891L375.3926883799759,124.33052928869756L375.6521851443367,124.78221437056482L376.3008440959102,125.59827458078507L376.7533042470659,126.04041588562404L377.0229220489091,126.15731289212727L377.2596879585899,126.18256493850595L377.6052965008912,126.04241503921139L377.7857330298175,125.7948317160376L377.92327958841906,125.48778791448467L378.0036671730313,124.88155628827872L377.84662517337256,123.74009959626619L377.86877531278606,123.36266402797673L378.07982383213675,122.80626552320291L378.32530047079945,122.53889367635111L379.0598223223451,122.1729792466399L380.01617740531583,121.9189553784745L381.0569021204328,121.75640940526364L382.76204805861653,121.3892997864723L384.23283390750476,121.27812118983456L384.79961200664184,121.17367923137999L385.79379654119384,120.61112127433898L386.19598334222064,120.24553664725227L386.5610043662564,119.83612869923536L386.96061942825054,119.29432476113607L387.21140546362767,118.74426797130445L387.29635581103867,118.38028005803608L387.44634626818697,117.43821307965209L387.54457010738133,116.05450159905058L387.660049485894,115.25039164928876L387.7715468168717,114.7631647364392L387.9772859395098,114.03606039101624L388.55800120501954,112.68704746874346L388.6906531635268,111.200752003042L388.64087756933986,110.06211894582611L388.2841524776695,107.00384504008889L388.34222400422004,104.77802867534683L389.26307249667116,102.34038020398839L389.50365453524046,101.89708836045429L390.7065647280806,100.32425154405428L391.67718881471774,99.41629317103843L393.09811611009627,98.23156290902853L393.59354919089947,97.48377947031759L394.07471326803625,96.4804250699126L394.21574411823076,95.27622671878271L394.20744818586627,94.6213381751163L394.47291802152904,93.49081351333052L394.92919430157235,92.57147910716776L395.39376651397924,92.16989618258003L396.024257373675,91.91625403171429L397.1525871345593,91.70487916690854L397.69182273824663,91.5252059527038L397.85774138553734,91.39837526785459L398.06513969464686,91.3243897333191L398.9445085252755,91.33495913908428L399.5749993849713,91.57805145252769L400.188898379939,92.18046442356354L400.2054902446671,92.26500982740254L400.1391227857521,92.47626358307116L400.59548202511996,93.0152037969251L401.4333711939262,93.51184067866461L401.9394230681555,93.58580512412027L402.44680229156256,93.35376570273138L407.0249125668697,90.59506556278029L407.7337170280871,89.9768826032232L408.2579369941932,89.0042640779684L408.9880620015865,88.06546447232131L409.5070555303055,87.24996148570199L410.124272898217,85.57807827644774L410.7401629169526,83.61816416032116L410.8038756775122,83.12384852077639L410.7614005038058,81.99300266584487L410.8012209791541,81.61880373536633L411.224645367035,79.99649909285381L411.4715323142009,79.29361944267703L412.16308123609906,77.72852758772297L412.27059651954187,77.2406082839093L412.2546683294013,77.09151562169336L413.3241799298221,75.37695288953591L413.63909352237624,75.08049259200789L414.97266464995755,74.1906189914921L416.00998803280345,73.89432455259885L417.83094518679536,73.83203452155749L419.22150936971957,73.59865426198985L419.99950190685377,73.36484310646301L420.84776099111696,73.03991105928253L422.347084847338,72.31043225568101L422.964634052546,71.62591967400249L423.67186228661376,70.46030580196793L423.8088281299497,70.17700901121998L423.95599797009436,69.52420995840293L424.1054906713016,69.1227940373874L424.38058378850565,68.51283888001944L424.5575360258381,68.27908402489948L425.0163010855922,67.85491464808638L425.36249034315824,67.60873505846348L425.6961527428557,67.41810475410512L427.0874635596929,66.80409013700682L427.80000119047236,66.4093176454744L428.4096692599351,65.89861737345473L428.6344890270093,65.59627434093545L429.11191993458306,64.62245957550658L429.25477588989816,64.03081329868746L429.2819865480533,63.06814979168985L429.23644187937316,62.20435420905142L428.8994611067301,61.143307021639885L427.54830260253584,58.51827828376463L427.4424465055672,58.15396737877154L427.3472092020238,57.763205462162205L427.2844089940236,57.23419590402227L427.27553234639436,54.900509914650684L427.41822238306213,53.144624045340606L427.3349312221235,52.03758748275095L426.83111924963123,50.89394444898335L425.9458603070261,49.61803346127044L425.86331577999954,49.30144007531089L425.82208499614717,48.869304432734225L425.90595687235236,48.17630569944777L426.2255991463544,46.72069639712072L426.495382866844,46.29330471998719L427.04216776898284,45.60411159290379L427.4158995220005,44.9070932300333L427.7229319788066,44.58275319970562L428.7220940727784,44.01071124929422L429.1692448272215,43.857776581605776L429.64261072793397,43.77184253821224L430.50903790407483,43.88883171458201L432.84824195287183,44.4635414660811L433.5498289529305,44.47406960706712L434.5495717621661,44.3506023086602L435.447440521968,44.11078713644156L436.28914581966274,43.81172541439264L438.34305275444603,43.285892754888664L439.7386774561119,43.204951282856655L440.88119326134074,43.336626982866164L441.52952037562045,43.47202295953821L442.25898170842356,43.70015918899935L443.2827827215169,44.33114087183685L443.62051012807206,44.92517079156505L443.9331838188873,45.32297259687084L444.97872017477584,47.13445668729173L445.3883733149305,47.61271936041703L446.0410143140407,48.198520902578366L446.76748911119284,48.59753316300839L447.9283389269458,48.995249107164L448.196214582993,49.031491027822085L449.03957906716096,48.94689085018399L449.41986460674525,48.981219930211864L450.7779087348008,48.53811843937274L451.5491815667219,48.20054046327914L452.22787179345596,47.80288924400929L452.6950157448955,47.46198322775672L453.66497615694334,46.52039940948998L454.86415318022136,45.504268034626875L454.8577653123002,45.414843670145274L455.16189419278,45.02215085795979L455.3568486033446,44.86508931803792L456.9150735793537,43.94636845762943L457.39715020904987,43.51488544054746L457.765572565354,43.294614386336434L458.73321011634016,42.934998324240496L459.75336091919235,42.30730464668886L460.3364820050883,41.84838848549589L462.75607363849576,40.619688488200154L463.73690172194074,39.76813134207032L464.06956860975424,39.55094397445646L464.5617662769364,39.377806819212765L465.4977963256124,39.28235090251337L466.8407418567658,39.414839560634846L468.07608914515276,39.70875393334745L468.62138077946565,39.6710841536451L469.2928535450419,39.469749844612124L470.7648008244614,38.77089105804225L471.87313738834746,38.077183191480344L472.532166255377,37.74722930079497L473.03083474980303,37.64632440711284L475.60381817262805,38.117628165010956L476.3492906548945,38.34305172581162L477.3652105322426,38.74928681434949L477.9424415061585,38.86433136432561L478.5510311044136,38.87465442553457L479.1099280678045,38.728108210334085L479.25626831471163,38.55793225652087L479.3495975538126,38.22991505345999L479.35847420144273,37.84706847598636L479.16816551300144,37.05481166024492L478.9552089292074,36.51073248996954L478.07650377316804,35.09323945929964L477.8452131788481,34.37225412337102L477.83924010754527,33.81562912018671L478.0441496369458,33.36013953357997L478.38635684697874,32.90355750374465L478.9002068976306,32.453658313536835L480.0551666014071,31.675751127372223L480.84601783370636,30.923119420664534L481.0710035194288,30.626520444826383L481.2949936932682,30.226668747941858L481.50264088035055,29.675706080065538L481.6038512551968,29.055119201428624L481.5495128982093,28.509612880804525L481.452284570898,28.319811371298783L481.3081842257279,28.15909980424385L480.3040445723391,27.37659461753219L479.26713598610877,26.943634766350442L478.74225234541245,26.90771354811295L477.79659901519244,26.717232310962117L475.2840099799796,26.674807745393537L474.70171848732025,26.517152565158995L474.5070959140512,26.383265668768217L473.93426178428854,25.46358203205L473.7859305136126,24.995648619372332L473.7485158586496,24.706600787505977L473.87345260005713,24.25440163559915L474.45441674353697,23.308118644669776L474.9544955464644,22.704286857633633L477.4076857059481,20.243669757915995L477.61865126597604,19.870368520696957L477.8476189992325,19.02479811983585L477.7844039946167,18.436524072820248L477.5476380849368,17.729638307563164L477.24508543160573,17.031971980457L477.0202656645297,16.687117240624957L476.41764913757834,16.044648553779098L476.22261176769007,15.65886355990051L476.1472017424976,15.410452001675367L475.5992554098284,14.526693934467403L474.50344570381094,13.029364441916186L473.45085780541285,12.123754008293417L472.93576336490605,11.398653364485199L472.5030475327776,10.463791255782326L472.26329508744675,10.16094031100738L472.2472839379834,9.629880257261902L472.5368949368258,9.086282183363892L472.9516915550457,8.668514116718143L475.289817132636,7.411437576166918L476.21191001493935,6.329440210668508L477.0463978514772,5.578234944991436L477.73645350555034,4.86971607128271L478.14718511691353,4.629180790248029L478.6523244385826,4.489132268111916L479.18243451666876,4.380940330098383L479.30903044455044,4.3157250716635644L479.432473918132,4.09762404181447L480.8372241454008,3.691661343754731L481.34659439257666,3.439540762566594L481.65263133749977,3.1441062928520296L483.08301599577317,0.9519905775828192L484.10341567659725,0.08557711027106052L484.41036517407974,0.01069719197903396L484.95789671013335,0L485.9617874855503,0.32090914832451745L486.4512474950525,0.5883229910982664L487.08173835474827,1.1123196205126078L487.45505531114577,1.5829121748142825L488.45894608656545,3.0479779937759304L489.47104983502504,4.6303567591876345L489.8775505208814,5.02589953624738L490.5080413805781,5.260970395113418L491.4288898730292,5.293039521026458L492.1673108127852,5.560276930802047L492.7397301459314,5.9664596485390575L494.22470203916146,7.558912351942581L495.2479223369892,7.911878309034364L496.25869873627107,7.93528055414572L496.7768626717525,7.841564277222005L497.54622743922846,7.416994648996024L499.22731517355624,6.992507985923112L499.90758162743805,6.4260610662609L500.4385212987627,5.624412499303617L500.69569520205823,5.32510851049301L500.99434876717805,5.143382432663202L501.59995182978037,5.111312669960171L501.78246234179824,5.164762198656263L503.16788304665624,5.91301580458321L503.59105855656617,5.923704603688293L504.4040599282789,5.75268199917673L505.0412704931905,5.434035159199084L505.4991230003816,5.047172735164622L505.7314091065864,4.811988303990347L506.22916504845216,3.9246355005952864L506.793288449232,3.2831105628065416L507.1831972703594,3.026485291941299L507.6561483744563,2.7805445374988267L508.36130262543156,2.748464716705257L508.91713009384785,2.8981693783243827L509.37747138074974,3.176825990270572L509.75501926265497,3.528927989924341L510.13663215141787,4.04213556660352L510.5598076613269,4.833262106721122L510.7837978351663,5.688440630838613L510.6925425791578,5.880842427809057L510.6344710526073,6.4793943930640125L510.7755019028018,6.7893401271467155L510.8003896998953,7.398506679299771L510.7589100380728,7.964880550102862L510.82527749698875,8.54189697469792L511.0326758060992,9.535437177255062L511.1926213820843,9.887990154894851L511.37372158560083,10.091288215513487L511.72737718229564,10.317868826082758L512.932444317551,10.881459916825406L513.2975483009104,10.881459916825406L513.4302832187404,10.806687175269872L513.9944066195221,10.924186865038791L514.6000096821235,10.9348685642899L516.7902187856553,11.340761931657198L517.9848330461309,11.810609647712681L518.789538485481,12.248495482736416L519.6025398571937,12.825184406602148L520.6693137999346,13.944475940693337L521.4144544449073,15.06829894068369L521.8571253958726,16.18597713970894L522.0319206907907,16.857465281987515L522.0973755971472,17.3257958646077L522.2126890570125,19.141103003333228L522.7861039020418,20.475386774954586L523.4703524034585,21.60837219503628L523.8856467776204,21.99844002544978L525.056451712213,23.589435327672163L525.3706186708532,23.950396869988253L526.3132854654223,25.67477695065054L526.5586791447622,26.084996376963318L526.7688980708763,26.327514296167465L527.2419321342959,27.146794294021674L527.416976307185,28.09547498539223L527.4344807244743,28.504923849730403L527.4589537249485,29.316189589482292L527.3021606032607,31.371831144545013L527.3404878107849,32.533436420048474L527.5030051258036,33.824148655306544L527.5963343649037,34.250645645015084L528.0012588236104,35.19641429649437L528.2701299915416,35.612932492935215L529.0296225995053,36.469533749479524L529.6362211739925,36.80156581162828L530.2363489212339,36.9791262079566L533.7576403726362,37.61896915723264L535.4851853282034,38.19628237778534L537.0973338645808,38.91615937525603L537.6630334925112,39.28586267991841L538.8661096039987,39.71162704446215L540.7611494340053,40.21929934522177L541.4315437283731,40.147369639779754L542.4078090490184,40.12119386775339L543.0014659690169,40.20897811280611L544.7745555932652,39.73131314693455L546.1856107291296,39.189128580891975L547.0697082412053,39.002254816348795L548.4495706713806,38.44969453286785L549.8342447423256,38.41989429855721L550.5457868612211,38.5488858982344L551.3395416698504,38.82091049950077L552.6274022101024,39.782177542857426L552.6160367827642,40.03543034002041L552.7491864972126,40.10363689691576L553.5596161298936,40.30548640820871L553.9159264249447,40.29505888966469L554.6584953308839,40.465621501066835L556.0575213648208,40.73800300206449L557.2138913770968,41.07655107298797L557.7645753674478,41.31252568303307L558.3869362134265,41.67498457046804L558.9629227974883,42.24518131891227L559.2409194910206,42.69779769475281L559.450557701869,43.217714778568734L559.5775684263681,43.73366113521888L559.7381776769425,44.48598021362568L559.7575901586761,44.841800973095815L559.8253679260933,45.13476102661161L559.9161254261599,45.38485809472331L560.2395838290486,45.81602227432268L560.4619977757393,46.01261651349205L561.470866110576,46.696563228712876L562.1323837573154,46.92290169614489L562.7598051220357,47.01145784360642L563.404233148106,47.21822658408746L564.0573719031554,47.53628864835491L564.3529559733006,47.768767440701595L564.6427328907894,48.17779380120783L564.9462810560035,49.31865697294688L565.1802263486807,50.774725386256705L565.2947102153094,51.24829667599897L565.5934467397528,52.1617799133528L565.8268113171644,52.47304886939719L566.1799691579163,52.72152371975926L566.3993965689551,52.80416981977896L567.4384620975989,53.068673798481996L568.4101646554436,53.247235342953445L569.8559797479156,53.37767503680698L570.0935752508321,53.53243649706292L570.175041306652,53.70132152805854L570.4677218004681,53.920760253665776L570.9025116156872,54.10641789434794L571.2474564833992,54.11905689404739L572.7810425402877,54.951060514372784L573.2817850178035,55.14794977685506L574.2252814056101,55.356939928314205L574.573710564915,55.37159451029811L574.9559041689436,55.30129473695024L575.2777033853599,55.179914597428706L575.4858483283833,55.08763041434531L575.7495760182483,54.85941075531673L576.0667295125404,54.40762397643084L576.3089707375811,53.74210829452295L576.5611670814587,52.765396375622004L576.6074583840527,52.05331084523459L576.7749532584912,51.122708059840534L576.8719327078315,50.840710499446686L577.0536136266119,50.54669512939063L577.6422929871915,49.905283528371L578.5702759814758,49.39963963525679L581.9701149830626,48.49347737554763L581.9396689112855,48.591793657192284L582.4393329175946,48.47530201019481L583.038962908895,48.206492849595634L584.0819275257509,47.84338875571484L585.4058753717882,47.49068497845519L586.4334095544446,47.39075989680077L587.1287746052312,47.53203656948608L587.809538815055,47.79353499541185L588.723999439585,48.33234221232351L589.2935151964039,48.7668466356231L590.1278371142935,49.59986078358315L590.4814927109892,50.039606141079275L590.8214600192832,50.321527138341935L591.5058744393473,50.51842995222887L591.7343444166636,50.48145129118848L592.5694129684662,50.887569145317684L593.115700114663,50.970660184074404L594.7923080455139,51.0697944688045L595.4688413298318,51.27475289675294L597.7323035161407,51.628343674085954L598.4335586789048,51.80874513757635L599.2333695181596,52.120665962744624L600.080881968509,52.60169590355372L601.4448162085437,53.48708119947878L602.470857123375,54.35643252808222L602.9066424504772,55.08646225295797L603.0602831178658,55.9255807386653L603.096121545681,56.633800390678516L603.1789149506776,57.03831609723511L603.3082485362384,57.355861800775074L603.8138026545275,57.98518107183827L604.1137835688241,58.24950514042985L604.6016673511767,58.530379221192106L605.2452657840076,58.699153450443646L605.6856138739122,58.551715037739086L605.8823104302719,58.41754254116222L607.375910093162,56.73349798895106L607.4436049012565,56.40254790193012L607.7491440902386,56.0506654002138L607.9884817389511,55.924518890639774L608.5333585766466,55.85231287743272L608.819983039838,55.552756795732876L609.278831058914,55.37095735514549L609.7813156822267,55.3017195109428L610.3712394326603,55.409929913827455L611.1450840036141,55.77214216359653L612.1446608942033,56.36464220984544L612.8559541351278,56.536862070896404L613.7729035393677,56.46869659895992L615.3286397356687,56.18689703629025L615.984267270429,56.206434343128876L616.6328432626788,56.155573532136714L617.8017401328261,55.67466193338987L618.1554786888455,55.33378987901642L618.4479932640152,54.96922041678363L618.9518052365056,54.065208236959734L619.1726429560467,53.53275515159157L619.4849018502437,52.05022991865735L619.8737322001643,51.32001513337582L620.3290129683237,50.72372200802192L620.738500189831,50.34809284511448L621.1275794177227,50.12536308741801L622.6639860916139,49.72430556073323L624.3154573473994,48.88620345958543L625.2458461620681,48.157598109623905L626.1389862404221,46.83009204539576L626.4621957653399,45.97338313156297L626.6677689693306,45.57200017627247L626.9124989740822,45.18356888154585L627.1043009303467,44.97993490663703L627.3353426466956,44.82861484658952L627.8467868769621,44.65347114077258L628.6710707166922,44.51873428537783L629.7097214487167,44.59115431287228L630.1494058640319,44.67622835323618L630.8048674801439,44.92081091301543L631.3606949485602,44.95271240557213L632.2483597115543,44.65495993245486L633.061361083267,43.99560935374984L634.3678045120168,43.11241529747349L635.9816122348675,42.389532174007854L638.4289952416957,41.69806986005915L638.8437918599157,41.75126150438609L639.6485802585894,42.24060714969073L639.9804175531663,42.68737346127L640.2209995917347,43.18729507842954L640.3288467124721,43.527648415452404L640.444989765575,44.7186586748212L640.4035101037516,45.36731328827591L640.3371426448366,45.7607325509025L639.9970094178943,47.1853778386444L639.8642745000643,47.99326696179378L639.8062029735129,48.75855642154329L640.0301931473523,49.53970997342458L640.4698775626666,50.033867723537696L640.9926042609486,50.979585510217476L641.316145623161,51.92507950183608L641.5733195264584,53.44416867846439L641.5318398646359,54.846135785649494L641.6144673509862,56.12722299526558L641.7392381737463,56.90868230062506L641.9862080802359,57.876901094638015L642.3286641682398,58.850091764179524L642.567587020334,59.30692199943269L642.9631370754696,59.80607112507187L644.5706398897246,61.23403232958526L646.2338913694675,62.24414060625031L647.0913589386537,62.58703769689282L647.9461718094835,62.68549044795964L649.2550210586187,62.53950832763985L651.255419229652,62.68888534773896L651.9708604367597,62.65992256044365L652.477907822873,62.83645593679239L652.9079689566443,63.25400900469731L653.3659044231608,63.5849799502389L654.5353820085729,64.24348455230074L654.8194347327317,64.47937829873172L655.3716119909068,65.1361087957057L656.5530357189236,67.30105241947103L657.3972297963273,68.3290159352041L658.1021351693335,69.282218149242L658.8202310747974,69.96566890889471L659.7069003259066,70.5929948866401L660.835230086791,71.09659893455955L661.302456997555,71.37297357783882L661.6900429576208,71.64425184732136L661.9674589358883,71.96977305606379L662.1546151700286,72.33088192034438L662.4958268681776,73.20052477930813L662.7719154972656,75.57501034866891L663.0904793000609,76.71029957627843L663.3599311832568,77.22874874671606L663.1435732671916,77.66584525284952L663.0745511099203,78.17406560001018L663.0811878558115,78.4857573760205L663.2497612014567,79.39693833028969L663.0174750952519,80.05069436099075L662.8980136692044,80.26069740020557L662.8568658446775,80.5570628529872L662.8953589708481,80.72979628062558L663.2192321703542,81.36650544555778L663.2181536991484,81.36756376112089L663.4150991334791,82.17501589591939L663.3367855319584,82.51733719722915L663.1126294394726,82.99444512902437L663.0404548279012,83.25843419310104L662.9852868776788,83.99459289931247L663.0027083356445,85.3672690277831L663.1233311922224,85.5851650897066L663.4536752189733,85.71092849139632L663.6875375523268,85.85847837900928L663.8346244331478,86.03511142547995L664.0493231627397,86.5143270452545L664.7484213830894,87.12654988354734L665.1005837119583,88.12837895317898L665.1681126014046,88.44770163462908L665.1608951402486,88.6776691683499L665.0838259285838,88.84947949053321L664.6309509808088,89.53911381438684L664.3731134029222,90.06906352433907L664.2407103223868,90.45130653016122L664.2600398447948,90.59411422509993L664.5155545616208,90.99070610604304L664.5373728637378,91.70921241010547L664.595278471641,92.0454012080022L664.766340596997,92.49285505240869L664.9422143631227,92.78790245179471L664.9375686409976,93.93416807738959L664.639080994526,94.89179415987292L664.3452390701786,95.54856108190825L664.1623137615434,95.78317498902334L663.9914175548356,95.86292729598745L663.2523329404885,95.88014523499533L662.4841296035438,95.68472464116212L662.3926254695634,95.68472464116212L662.2434646056527,95.82500544140248L661.8179662346802,96.8694252869027L661.7963968105332,97.03144128649683L661.9750082343389,97.85319210854868L662.0930593518851,98.18182558411581L662.358031431605,98.44750998047994L662.8057629013128,98.67928993649912L662.964712965415,98.84359076354485L662.9292893342181,100.57360459161282L662.8909621266948,100.97221484576085L662.4824704170715,101.98469329878662L661.894039934462,103.68287086087594L661.7161751445683,103.8206842454656L661.2232308434759,103.9488927956827L660.7231520405485,103.79440914290808L659.5951541169579,103.72866823201002L659.268045503829,103.89265013101385L659.1235303620406,104.32242651163051L659.6040307645872,105.24510366984214L659.6495754332682,105.72881871980144L659.6587009588693,106.64299404517214L659.7401670146883,107.11143253313821L659.8098528465498,107.2369493742799L659.9924463178895,107.36256964233144L660.6630065309055,107.55600607950373L660.9995725069311,107.70587906067158L661.0790475389822,107.8554327228494L661.0792964169532,108.77895186633395L661.1467423470758,108.96476019140073L661.2213227790317,109.04195052684963L661.4953374250299,109.09720652124224L662.2884285590671,109.03161634647677L662.6178600332578,109.2945009297805L662.8245117084552,109.39583510940611L663.0000536372872,109.55020636415429L663.365572417264,110.08331170949532L663.5169731829137,110.18463550994329L663.8486445588433,110.29312746672213L664.0216977079663,110.490918393823L664.0676571732647,111.43425641032354L664.0389532472846,111.83472898043374L664.1591613072442,112.21346685389472L664.9857680080358,113.11559544697093L665.6775658079041,113.26989217958635L666.1867701364336,114.09222901170733L666.8785679363009,114.30699380941769L667.0178566406994,114.54093099023157L667.0322086036913,115.12216038898305L667.2083312477871,115.32962633320767L667.4102542415376,115.60072501671402L667.4161443535158,116.04944456579915L667.4877382498216,116.27374187288206L667.7093226032748,116.66237497933935L668.0371778503168,117.00369015324895L668.022494050032,117.26735631835209L667.8896761728765,117.57420055903322L667.9255146006917,117.8277354920474L668.2293946032005,118.36816789648901L668.6114222885817,118.73236701767837L668.885436934579,118.8593797876415L668.9892190484579,118.98365228185594L668.9880576179276,119.7041826726545L669.2568458265332,120.398743142292L669.4995848075168,120.86518817982687L669.6703980549,121.00374746052466L669.6915526824296,121.22389998656672L669.6534743528773,121.50310879373001L669.6915526824296,121.63734020279026L669.8057876710882,121.77156927803435L670.0300267228986,121.7984148130372L670.3169830233837,121.63260266337966L670.5339216547127,121.60491431934179L671.1414327817592,121.85284253282407L671.9788241946253,121.88316186989914L672.1487248894482,121.93990503150872L672.2951480956799,122.21624563696741L672.3193722181841,122.88500160965577L672.3647509682169,123.14099360474665L672.4690308380386,123.39518778560023L672.5665910026437,123.44686764948392L673.4846188780921,123.15088786186107L673.8673931973854,123.28224871241537L673.9953164744438,123.36624270057018L674.0961950119963,123.51023026933535L674.1119572834887,123.83829718200832L674.0356347057359,124.19992297148656L673.6711943969667,124.59983864764172L672.7932358748403,124.58826243220165L672.4719344143659,124.75695774713404L672.4240668846232,124.93280527388606L672.3954459179658,125.36877622362181L672.4363448645236,125.59038272844418L672.8705539644761,125.76358072849416L673.3983411815007,125.89815899727864L673.4822960170295,125.97528528322346L673.4703498744238,126.06672049672034L673.1969989030167,126.50999233503171L672.7105254291664,127.11704306196862L672.3654146428071,127.44232688241163L672.1400971197891,127.52185732514272L671.5213864840507,127.3825733130202L671.4063219021564,127.40434975536073L671.3549700808207,127.49881882869568L671.3562144706739,127.7727515737729L671.3946246375226,127.84018130214054L671.6513007848771,128.03026474951457L671.9965774898847,128.17206164332674L672.0397992975022,128.21298029308673L672.0302589752846,128.2923976199213L671.9823914455401,128.43208598492174L671.862515222876,128.51886400699505L671.3350598431452,128.4156769403421L671.0989576080538,128.4443927455045L670.969375144522,128.6297280872741L670.9765096463552,128.79339169870218L671.2852842489583,129.30876218940966L671.4843866257061,129.44096496117754L672.4623940921465,129.4428580632134L672.762126128473,129.5679069435846L672.7071240968962,129.72913182622597L672.1583481709904,130.19164874765647L672.1033461394136,130.37936088976812L672.1633257304093,130.49976768066426L672.846578719943,130.7256436610528L673.1606627192605,131.0286940891324L673.2326714121837,131.1924120909016L673.2686757586453,131.43782487950375L673.2352431512163,131.6640940404036L673.1371022713456,131.85902508376103L673.1227503083555,132.03229299944542L673.2403036699588,132.25360347441256L673.4104532427536,132.3642037719469L673.5183003634911,132.3521135122005L673.6979072991799,132.05121765810645L673.7385573677657,131.86354607989279L673.7071157841046,131.13205659623054L673.7693352768374,130.82869475712323L674.0928766390498,130.70345594952778L674.2103470413304,130.7251178866345L674.3254945825483,130.90798007413878L674.3878799939293,131.15582031409804L674.4693460497465,131.27852826194749L674.632361120709,131.32899883239497L675.0397743591257,131.33856717424715L675.1667850836247,131.39387406118522L675.4783803032315,131.82706261716066L676.2261756465614,132.25770370377268L676.4610334917988,132.59706900213314L676.7628395112151,133.34534423272953L677.0191838212759,133.51616118284574L677.64461416223,133.7929291984574L677.7858938903964,133.98538908315413L677.8337614201391,134.16827935083938L677.8227278300947,134.90252976795955L677.8764025124929,135.18839142859406L677.9602743886962,135.36883616801288L678.0727672315579,135.47707997513317L678.2308877024243,135.53960847514782L678.5734267497519,135.56136196936995L678.8081186763402,135.70333617219967L678.7266526205221,135.85245357204076L678.6139938590122,135.9222298610257L677.5912713171274,136.0735497733276L677.4284221648131,136.16969943130016L677.4139872425003,136.30924566379872L677.4762896945567,136.4559346250744L677.6032174597312,136.5521846115348L678.2114752206908,136.88180022996949L678.1443611278628,137.10538868623416L677.727573485874,137.80259019490404L677.727573485874,137.87476524789054L677.9861576976737,137.99505550863796L678.3357482875099,138.02877846924002L678.4171313840052,138.086558901633L678.6851729586997,138.94260431360772L678.7736905570282,139.0628779971371L679.453459254968,139.64730799512563L679.5559969789938,140.51767407208627L679.2444847187098,141.4596640650352L679.2420788983236,141.63754765477188L679.2898634687426,141.7313181759132L679.5339297989049,141.86845420845748L679.6776153474548,141.84440832604378L679.9457398814739,141.56572265879913L680.3218774548759,140.98416770410267L680.4415877588945,140.87852122249114L680.5397286387661,140.87852122249114L680.6498156612415,140.96274447828227L681.1209416602169,141.64563317551938L681.2093762992226,141.91728077080552L681.302373701028,142.47493180647416L681.5119289525528,142.5640724551049L681.9179318824681,142.60722498052837L682.0998616792194,142.72492201052228L682.2842802556816,142.967449954298L682.3322307447461,143.12850111698845L682.4304545839423,143.27012678787742L682.6458169881225,143.37574069007815L683.0670014742636,143.435580930799L683.2202273450348,143.5148422932948L683.670364635127,144.13693712693384L684.3667251977968,144.25450597547479L684.4289446905314,144.31213505494588L684.5391146723305,144.84547239629137L684.4793839593067,145.07135033431496L684.496141742683,145.22028762631453L684.6039059040959,145.3764640415584L684.7378852117818,145.46767045381284L685.0177899697583,145.4940141086763L685.2450985165433,145.3210469636997L685.5800053060948,145.29218374556604L685.7570405027509,145.41225402733244L685.814448354713,145.52990850641345L685.7570405027509,145.67400919798183L685.0968502051901,146.13295154325215L684.9102746863146,146.32762389647496L684.9174921474714,146.42364646646365L685.1376661924232,146.66144150951186L685.278862961266,146.738256356698L685.453409378214,146.75504638599068L686.2618479871262,146.4763271969059L686.6589742694105,146.46184527875857L686.7570321899575,146.5387670418295L686.8287920049106,146.70687989210774L686.8191687233693,146.7789721149743L686.6470281268066,146.91832752681012L686.2571193056792,147.02882367663324L686.1447094221403,147.10563488821754L685.9797033274126,147.46837920585358L685.9462707199837,147.90549664193986L685.3816495632618,148.19811863794803L684.9369875885286,148.74335867441687L684.956234151613,148.96188458197594L685.4967141451552,149.4804262528396L686.0897073905635,149.67480489228046L686.156655564745,149.7420442929174L686.2045230944868,149.8165209526892L686.2404444816257,150.3759122484712L686.3791524707585,151.02399216270305L686.7520546305404,151.31450404524094L686.8022450213439,151.46573372956482L686.8380834491591,151.88825932021155L687.122633929258,152.47874989300772L687.2517186368495,152.57951995205394L687.6437014410676,152.63960387117413L687.8826242931636,152.84847838404085L688.0020857192112,153.03092441959006L687.9447608265727,153.30206906379135L687.559912524187,153.67888779299255L687.4834240277869,153.9451871752358L687.5980738130638,154.25005731509964L687.9063506597258,154.56686636824224L688.0329465876066,154.63878085448778L688.0448927302104,154.73239448802724L687.9612697319781,154.9363907303714L687.4020409312925,155.54813771047156L687.349444720101,155.67758793589746L687.3949064294584,155.8240160794403L687.5310426795586,155.84560797043787L687.9946193800833,155.58178449453726L688.1594595561646,155.56019187103038L688.1880805228202,155.59373378469036L688.2094840283207,156.07368176004957L688.1616994579026,156.19117488420352L688.1879975634974,156.38077422903507L688.4053509914447,156.51754700616948L688.7039215972409,156.61354853045304L688.847275308498,156.41441741104563L688.9932007587877,155.87464163227878L689.091175720012,155.7906847902027L689.1914735422988,155.81709827644045L689.5582367121287,156.42793752731495L690.0439635520661,157.07939063127014L690.3806954467373,157.22348686912846L691.2808870676017,157.81640170202445L691.6822442753919,157.79984513191948L692.3759501397053,157.3752304218956L692.636276497301,157.28866989048447L692.7510092419006,157.32220435108002L693.8526261005718,158.1996031035328L693.9004106709917,158.3195788808721L693.9484441193808,158.83760152436707L694.0607710435952,159.0941901803767L694.4143436809672,159.26423181948576L694.6341029293008,159.43206964622595L694.6341858886244,159.57591279353437L694.4360790237624,160.00051220178966L694.3382699811846,160.11805080181102L694.3429986626334,160.20908438026072L694.7897346204563,160.87320969002576L694.7205465445386,161.01231267346657L694.8996557242863,161.09987924074812L695.2148181948096,161.1318261283527L695.6589824136017,161.05766725052263L695.7377108117398,161.0240441367432L695.8141163488162,160.88253218152522L695.9191428525492,160.8393762844039L696.6497656158854,161.0791398796082L697.0725263291752,160.93993334388915L697.1226337606558,160.87279070138175L697.1536605476995,160.6930424931993L697.0581743661851,159.88255278495762L697.0271475791424,159.72425807645914L696.8742535456649,159.53002575634855L696.7453347567225,159.27093702055208L696.7285769733462,159.11262987228656L697.0152014365367,158.7769368203535L697.225337403328,158.63538400515972L697.8749918667845,158.63297412739257L698.0708588299094,158.7361790938562L698.1233720817763,158.79370086183917L698.1186434003284,158.88726450514514L697.8988011926704,159.39089628219972L697.8844492296812,159.52761615559757L698.0134509779473,159.84410559053367L698.2784230576672,160.19902778868936L698.3046382039402,160.34767545961085L698.2186923446434,160.5083667891813L697.5619863386755,160.95428356835555L697.475708642085,161.25039507003385L697.5593316403192,161.47338777324467L697.9532225089824,161.8546287063832L698.2827369424976,161.68202523362288L698.5477919815403,161.4591432447769L698.7459818057268,161.4759015108557L698.9894674206225,161.64620534424557L698.9416828502035,161.84520264461935L698.5739241684878,162.39650334264343L698.5857873517689,162.72732786313418L698.6621099295216,162.87121486495744L698.9676491185028,162.92158515958226L699.457109128005,162.76115306689508L699.6075143817725,162.79717727096977L699.6598617149912,163.2429630083475L699.5355056888493,164.09864934383495L699.6094224462149,164.5156733646486L700.2966574832844,164.71250346148008L700.4638205204283,164.5303310964L700.8673346706328,164.26690651189574L701.661919072496,164.4374634298465L701.8122413669398,164.64612620788603L702.0481776833849,165.1567139658382L702.1908677200527,165.95712930826903L702.2982170848481,166.08431303432235L702.2928247288119,166.2304409097569L702.0496709512099,166.62076476109678L701.8587815475048,166.6949753710992L700.8446867752773,166.80236493243183L700.7086334845008,166.86212982726602L700.610741482601,167.07774017556858L700.6177930251106,167.22154686955082L700.7322768917402,167.34379093984853L701.2618062545607,167.48529024424897L701.4979084896522,167.71302337712905L701.5359868192054,167.87356286594513L701.4356060375958,168.23282863841814L701.4521149430011,168.52991940546553L701.5522468466397,168.6809196380791L701.6785938965495,168.74087941841253L702.0674242464702,168.8536820838035L702.3382864381683,168.8490779253184L702.4908486343511,168.70530124485776L702.6050006636851,168.26202544989974L702.9389119413518,167.99108739743087L704.0552955596322,167.93781959685748L704.1269724152617,168.00490138452506L704.1532705208565,168.14617939296704L703.9577353950272,168.4026709240843L703.8886302784313,168.57512560294344L703.9387377099129,168.6517243949079L704.0747080413657,168.67568752368607L704.403973596909,168.64910832835676L705.2124951651458,168.36614938927414L705.5918681521707,168.42830914863134L706.3862036760647,168.38498573231118L706.534203109446,168.46880690710395L707.2665680185755,169.5682354640844L707.3285386333391,169.83890947943382L707.2355412315337,170.14315804180342L707.2665680185755,170.36819808882956L707.3571595999956,170.43766520681356L707.52888539994,170.4591120083369L707.8437989924932,170.3657918372105L708.0655492645938,170.3801247163201L708.4971866255155,170.54060931643653L708.59018402732,170.6724260101505L708.6115875328205,171.19444009070685L708.7403404031156,171.275929718513L708.9287410271127,171.18973270494826L709.0934152845466,170.67723832349884L709.0934982438703,170.48327882135527L708.893234436593,169.85094154271292L708.8646134699356,169.5682354640844L708.8957232163011,169.33835920099L709.0579086940261,169.16592139855493L709.3775509680272,169.21143781504998L709.4561964068425,169.31690931789262L709.5467879882626,169.75520765603824L710.2192562657219,170.284815806594L710.5150062545135,170.2226708409571L710.86799817662,169.9856993835274L711.0445356173341,169.9808866435842L711.2065551764117,170.19180741646824L711.289929296674,170.6348689409606L711.4520318150753,170.71406288389653L711.8479137075055,170.74764422069484L711.9957472222386,170.70224138203048L712.623583383579,169.77090181633912L712.7618765760935,169.71827394087313L712.8668201205037,169.7469420522516L712.8670689984738,170.19013346452948L713.1056600132742,170.29056994503617L713.2247896020281,170.2161843008612L713.5155620314008,169.7777026093304L713.646720722083,169.74411709705282L714.0641720386611,169.8516739285742L714.2000594107903,169.79412911563395L714.5696431976239,169.4730212657828L715.0872264178406,169.36022755766635L715.5166238770234,169.72413312548724L715.4809513678565,169.9182161284607L715.2407011665819,170.27111047793323L708.3890076674834,176.26055647971953L707.4000495703203,177.26575500249874L702.2528383348144,181.8258882945056L695.8740129804864,187.27337011442296L695.7957823382912,187.38475727015702L691.5097718415363,191.17285651933435L688.3941514827529,193.89601288762924L686.9417826037143,195.10335909683408L686.3931725964549,195.6442892002824L686.3056505100103,195.77401510813888L686.2797672010329,196.0513961060933L686.1501847375011,196.41124683897078L685.6804690470271,196.86419109217013L685.103818788376,196.9652241235117L684.6581613017597,197.22317046221997L684.2510799006377,197.1033734798766L684.2329118087591,197.80993031067374L683.4962330147991,198.54300570822716L683.1316267873817,198.73658373167973L682.3690646844443,198.82049733138047L681.3685752412957,199.29112655041354L680.8135773661161,199.2646511483763L680.6163000944907,199.31916536309973L677.9265929032963,200.1842542448244L676.8533481333125,200.65928299953475L676.4629415562422,200.6886717241373L675.3483000837587,200.95785481872144L675.1131933605502,201.09843496653457L674.6969034745043,201.54350199899864L674.1944188511907,201.54308518379412L673.3480678313717,201.82682701729073L672.2559912949191,202.28164702521963L672.1831530087593,202.34687220306841L672.1912830224783,202.63641960986524L671.8372955884879,202.91908010270026L671.5256174095566,202.86490342774505L671.4372657298754,202.66111243572823L671.2257194545828,202.71508213938614L670.4760160468095,203.1648499812777L670.4389332291403,203.2004802455408L670.4621618397623,203.34852122154598L670.3485905256912,203.56104526264926L669.4620871932302,204.18795770019233L669.1014630133486,203.97430472518136L668.7462311895042,204.10087215709018L668.493951886302,204.2722297532364L668.4720506248605,204.40650066319313L668.5114563035904,204.5778515962138L668.0924287598637,204.8114870013851L667.7045939218269,204.85210947951373L667.3311110467812,205.21249458018428L666.9521528563746,205.06792589426368L666.6648647185939,205.2363460747374L666.3045723760079,205.57327976184024L665.7113302526268,205.9365478815139L664.5781888509719,206.7300970349993L663.9369132792017,207.0294796172302L663.4613074767494,207.31854221067533L663.3965162449831,207.40048993952269L663.4351752898019,207.57427461031557L663.0468426958223,207.91818825760902L662.147314749549,208.33892319595725L661.3896472467059,208.850937984359L660.7711854889385,209.39196335710585L660.0564909157429,210.29424887842742L658.5505303136297,210.53947611766353L658.4159702906791,210.60130215275012L658.292194979801,210.67551357035336L658.0675411313732,211.25596218804185L657.654320740301,211.37658438455355L657.217291023343,211.57598682699063L656.9009671222875,211.9407470139031L656.4666750630104,212.30278470775056L656.2457543841465,212.23930704001032L655.8166058029346,212.21225082935598L654.8985779274881,212.6618921714812L653.8862253010575,213.28891218862645L653.1840575857323,213.64214824495957L653.0181389384443,213.62404463196617L652.705963003571,213.84242969242223L652.3654979393341,214.28833674284851L652.3449240270711,214.38165567279975L652.3577827222362,214.70758702991634L652.7189046580597,215.34869512739488L652.7457834789202,215.80772685139937L652.6991603390325,216.53236628702734L652.5183919728115,216.66954831002886L652.4689482159192,216.78239147455042L652.627732361374,217.50132570041887L652.8304019890375,217.82983175112986L653.0306657963147,217.94983339670716L653.1118829741627,218.06785749684195L653.1503761003323,218.30951542793446L653.0165627112956,218.4669426429441L652.740888878825,218.52059611425238L652.5690801195578,218.48576299131446L652.2973883346222,218.74633181667514L652.3562894544111,219.38565595087448L652.5560555057446,219.83561590445152L652.6929383897577,220.3132024282877L652.6204319408935,220.88618493016247L652.6079050830231,221.3871986569793L652.6748532572046,221.64860708830065L652.4888584535938,221.89213009282548L652.3590271120911,221.96072676549193L651.9074795134948,221.8205186876844L651.75143302572,221.70847515621563L651.0171600521453,221.86905653253007L650.9151200840624,222.03358409354723L650.7593224742586,223.23474960449585L650.558643870364,223.71535166569674L650.331833079521,223.83038007841333L650.2375083285369,223.67274812448795L650.0550807758427,223.57268085384976L649.6299972014904,223.49516161848624L649.0299524135717,223.93439258392164L648.9739548701127,224.1599734384863L648.5830505371005,224.70223471302506L648.1207182264316,224.74763792394424L648.0362656349616,225.03418122693938L647.7245044967058,225.47872873641927L647.1642801841372,225.48724751417967L647.1481031160265,225.50438892937882L647.0344488426335,225.58043403175225L646.998942252113,225.63268864345446L646.7873130174976,225.7645183241102L646.672580272897,225.7221336077141L646.6003227020037,225.63871400388098L646.5595067147706,225.45171791691018L646.4516595940331,225.3320380973064L646.19913141286,225.50968717745764L645.1166781579504,225.78228243906506L644.936739384967,225.5873944075479L644.7494172321776,225.69491585126207L644.6076397480692,225.68961772745706L644.434835476919,225.8799324159072L644.3613335161708,225.90611071510193L644.150616834113,225.68265744176142L643.8712098320793,225.74207938494192L643.7576385180109,225.96563485814795L643.7056230220851,226.2367600958264L643.8269925125778,226.59035159375753L643.6878697268257,227.0158038128052L643.4355904236236,227.16869510691959L643.2559834879339,227.49441017092158L643.0451838465542,227.68239649066936L642.9205789424414,227.67346464520006L642.8209447947438,227.69994857617894L642.5098473310791,228.01629486461798L642.1425864053053,228.0508782443303L641.9793224563737,227.9451544033618L641.8783609594984,227.89675775266278L641.785861313635,227.87442872589781L641.5628666516805,228.1820444618661L641.5337479290802,228.5061600368531L641.4368514390644,228.5912109126425L641.2190832144979,228.5923532258662L641.0228844140793,228.41477346019974L640.8583760752936,228.51498709339785L640.7662912260485,228.59162629928824L640.710708479206,228.61447253121332L640.6405248914025,228.66992629214974L640.5642023136506,228.77761347660362L640.5038079260366,229.01634772029638L640.413299303942,229.866656562785L640.4169495141814,229.91805219947764L640.6552086916881,230.15851704206443L640.8173112100885,230.68780464285555L640.9162816831968,230.69829036720012L641.0278619734981,230.72092287333362L641.2213231162368,230.90260348781612L641.3947910619763,231.1080532784008L641.621933690114,231.13172274456383L641.589247716598,231.27051989864412L641.2681951340946,231.6231595997565L641.2131101431951,231.9588637966949L641.1592695421505,232.06183514077748L641.1259198940452,232.63604188258478L641.2210742382658,232.83085996958744L641.3665019326136,233.2848287312304L641.3932977941504,233.32094584032347L641.4344456186791,233.65180409636878L641.3788628718357,233.832794727497L641.2629686967048,234.09680115897254L641.1044334292219,234.20109372505976L640.9779204606648,234.40116556577823L640.8348985867024,234.54488625014665L640.675284848011,234.8518275340498L640.2588290433168,235.3196877422829L640.1226927932148,235.43973523719478L639.9204379621706,235.65565013308242L639.8160751330279,235.88992306410046L640.2235713307664,236.36550276355365L640.4303889246121,236.53574588112497L640.1694818517508,236.99966832350128L639.9019380329992,237.10599734357447L639.7193445616567,237.34012362502062L639.7838039561302,237.56189924687578L639.7251517143131,237.7961157739428L639.6485802585894,237.8479785498771L639.2226670910004,237.91104322776027L638.9737061607448,238.07565211760993L638.7745208246733,238.34563647993673L638.3251301684932,238.56779880610202L637.4225327272443,238.81723133964033L637.2851520872891,238.92000977811767L637.2832440228449,239.0772343546514L637.343638410458,239.2421301287077L637.3023246672828,239.33930294904167L637.091525025904,239.40681506050396L636.9774559558928,239.38680000912518L636.9663394065246,239.3873185344096L636.0881320064273,239.42029667282577L634.8302197820094,240.10990239158627L633.6594978067424,240.22635168868374L632.8904648765601,240.60130057576998L632.1191090853163,241.10417706107228L631.9796544622695,241.09577876738058L631.8584508904269,240.9578795856446L631.3746321149329,240.89608338419112L630.588177726786,240.95373220466217L629.7860440264703,241.21366511259293L629.337234085554,241.7155696691393L629.1464276411734,242.11989023558772L628.8862672022251,242.18146955811517L628.6071090781616,242.1820915690364L627.8355873682704,241.9021817243297L627.6281890591599,241.72593712081198L627.5037500736944,241.3527003160143L627.4207907500495,241.33196442255212L626.1514301389698,241.44601116516378L625.9772155593173,241.59115919120177L625.7033668319664,241.7155696691393L625.2968661461109,241.69483472510683L624.6331915569554,241.50821778755835L624.3428339242009,241.72593712081198L624.1603234121849,241.7052022039029L623.9030665495638,241.52895321984852L623.6293007815375,241.4252755158568L623.3804228106055,241.83997819414117L623.5297495931645,242.43089202171996L623.4136065400617,242.84554208983855L623.0402895836633,242.87663997061236L622.4346035617382,243.12541862530225L622.2686849144502,243.35345886763207L622.0778784700678,243.51930219691712L621.4473046510475,243.78879020862541L621.2067226124791,244.0686334498305L621.1818348153865,244.16191233558447L621.2150185448436,244.31737470687222L621.372641259768,244.50392552951234L621.4473046510475,244.70083552603182L621.4804883805054,245.60241359783777L621.0988754917416,246.38991519070942L620.6893053109106,246.85699104546575L620.4600057403577,247.04275691833845L620.1364643781453,247.48824575310164L619.7672124286046,248.16751628601878L619.4190321472706,248.46553992589634L618.9666549554386,248.59667921271648L618.7260729168702,249.0006491810832L618.9915427525311,249.61174416528365L618.9583590230741,250.20207939764396L618.7633216531858,250.490292040829L618.6769609972725,250.64511269559534L618.6611157664574,250.77062394754694L619.227064272357,251.0803548614872L619.2210082417314,251.0939201987935L619.1387955520004,251.12250052828358L618.9650787282899,251.44723212161944L619.0099597223816,251.60193057778952L619.0463788654606,252.17575891041088L618.7841444434207,252.28343770277297L618.5103786753953,252.61474791001865L618.33608113642,252.9771026302774L617.531375697069,253.1116873175465L616.6519239071176,253.07038041368423L616.2537191536248,253.30848743711067L615.7642591441245,253.3809533758713L615.0756967578764,253.33954434892985L613.5076825816777,253.34989662589714L613.0845070717687,253.55693933303928L611.4003498424672,254.1987374471487L610.0398169347018,254.65417563678466L609.8656023550493,254.63347446703028L609.2184366713009,254.81978305392295L608.4552108937733,255.1820372506445L607.7831574129323,255.26483589206464L607.3102892681609,255.5235760883893L607.0448194324981,255.59602183434436L606.7959414615652,255.5753231171493L605.9496734010718,255.8651002540946L605.8501222126988,255.98928722257915L605.7754588214193,256.00998486207754L604.1742609157609,256.25835233362295L603.8175358240915,256.3721848320606L603.6848009062605,256.49636388093813L603.4608107324211,256.5894968949865L601.2125301023389,257.30358390692663L600.6400278098708,257.60364481182614L600.5487725538624,257.70711146467875L600.3158227730692,257.7781922752615L600.2334441646899,257.8346839948408L600.0842003414537,257.98646470484937L599.8519142352498,258.1002724715722L599.7689549116067,258.1002724715722L599.6113321966823,257.97611846349855L599.4537094817579,257.99681093274603L599.1633518490034,258.19338670599245L597.620806185163,258.824155214877L597.3547556342355,258.9899861645158L596.8569996923698,259.5589369501031L596.8320289359535,259.6105542903515L596.8901834218268,259.7554741313256L596.8155200305482,259.8382251765174L595.4880878929171,260.458830589585L594.8493011008568,260.69671650084L594.5008719415518,260.8105889359749L593.8371143930735,260.9036714603026L593.4389096395807,260.9346987265185L593.0821845479113,260.86230158387616L592.4765814853072,261.0277797995168L591.9289669899335,261.07949103641795L591.6552012219072,260.9760682266733L591.422998075027,261.06914881591047L590.9522039133462,261.08828191328075L589.6143189009354,260.9346987265185L589.091675161977,260.77956118596785L588.6767955844316,260.5313348314635L588.3366623574902,260.48996301972466L588.1790396425667,260.52099189869114L588.0546006571003,260.63476341997375L587.598324377057,260.6761344790516L587.2001196235651,260.63476341997375L586.8433945318939,260.78990378274193L585.9224630801209,260.9553835034744L585.7150647710105,260.93480215053705L585.5242583266272,261.0589100043758L585.4330030706196,261.2347261516961L585.4247071382542,261.37951300439954L584.7029610225509,261.9276108082222L584.2466847425076,262.14477119910407L583.6825613417259,262.217156679857L582.9774070907506,262.4756708821651L582.7202331874532,262.7755368425778L582.3800999605128,263.0547122415842L581.7579050331797,263.4579483186508L581.1605979029418,263.4993047106618L579.8165739005826,263.9438723630228L579.6257674562003,263.96465270903263L579.5179203354628,263.88194454270115L579.4100732147253,263.87160596152535L579.2192667703448,263.9439757479636L578.6717352342921,264.2644626130923L578.5141125193686,264.53324810644244L578.2237548866133,264.8847231453328L577.8006623360279,265.1741615349283L577.4771209738155,265.28786659696743L576.9710690995853,265.4119066322228L576.5728643460934,265.2155090179649L576.1248839984146,265.27752984019935L575.8676271357945,265.4325797836941L575.7681589067452,266.05274938900857L575.0878094935379,266.55928878480745L574.5983494840375,267.0760270823034L574.4324308367486,267.1793707219117L573.8102359094173,267.2930471780014L573.68579692395,267.45839185668956ZM91.6513105638096,278.34189943555793L91.03483982981015,278.3333339524979L90.5786465090905,278.32177569574424L87.17200484296336,278.28937120820774L86.85219665031491,277.5921268995248L85.90928097777578,276.346822683905L85.57512082213543,275.8227356756829L85.40961697146668,275.47824612590557L84.95665906436898,274.28558016745455L84.60267163037861,273.5215897948956L84.50560922171553,273.2163449253467L84.48337612297746,272.67666491163845L84.62457289182112,272.10348601644955L84.87262126951737,271.4737679759305L85.1739295329935,271.0055527423333L85.5966902462842,270.5133445176375L86.0487356008216,270.1348451764743L86.5902111062469,269.84445045492566L86.89334447484362,269.78484126575995L88.1274473733738,269.72481839116836L88.56256902588757,269.8247185196228L88.86420912665835,269.9778205281418L89.21545890296875,270.07027949462827L90.40940948885509,270.2250296460479L91.67370958119318,270.68822911322104L92.00081819432307,270.89998619124617L92.15014497688207,271.06164086023455L92.62732700648303,271.91768459869763L93.09024003241939,273.2675640946295L93.28237382597945,274.37076175120364L93.24562284560398,275.0126402910778L93.01499592587425,275.9061459543327L92.70041417061475,276.6854944609913L92.30834840707212,277.37404495576584L91.86965950364265,277.88378800429336Z" class="state" fill="coral" stroke="#111" stroke-width="0.5"></path></g></svg>