<svg width="800" height="904.8" xmlns="http://www.w3.org/2000/svg"><g transform="translate(0, 0)" id="single_state_map"><path d="M679.5104663710354,903.159189061138L646.1866352621346,903.2586678289881L645.7330612954356,903.2532019958653L645.3145095574073,903.2474932326995L641.1762902385362,903.3812229388905L637.937365930653,903.4080657709237L615.9569458456754,903.4309003238877L604.6096534922872,903.5283107974192L601.0775534144868,903.5321974741382L601.0581467671564,903.5294039254441L592.3618927027201,903.5499304118575L583.5745627910383,903.6412665425296L578.6620633753791,903.749362430297L577.8139477552577,903.7663661402103L576.0426173030137,903.2077746999066L571.878672893492,903.2017015117635L569.5472575729164,903.2291522842033L558.6042553283532,903.2127547106202L552.791558266943,903.2168844731714L552.769263188382,903.2337678912336L534.9688544116434,903.3122327890305L529.4306485806283,903.3119898648783L522.284759979284,903.3882676730627L518.2642442330653,903.4339368285082L518.2605434305497,903.4290784205423L513.9735699032954,903.480577389596L513.8157893473162,903.4804559301692L511.35881753167814,903.4963670991137L505.0736814370921,903.5604972800575L503.12371956592324,903.5653556054158L480.7078684729113,903.8106970651679L480.5571284680591,903.8827190943293L472.50174508294003,903.9875324167506L470.91861397807406,904.095380562746L467.4086284518853,904.0478935577448L466.8911479442031,904.0587026459079L464.24344940386254,904.102667545365L458.37767741858806,904.1626634411841L457.9905373701931,904.224116244427L434.1886906038144,904.6297410705192L431.34069741031635,904.6728526375791L428.9865356937971,904.7487526995756L422.56898307997835,904.7999999999984L413.48468633238735,904.2363824569429L409.1682869119686,904.1122620620099L408.5794982582811,904.1121406125067L408.5785053600448,904.1008458003562L407.3584139554914,904.1029104446689L407.3594068537277,904.0856645752292L403.25277975144127,904.0987811554924L403.23752522400355,904.0825068766571L387.49313790268934,904.0522657750016L370.72886356649906,903.8970505479028L367.96120486660584,904.0010135172906L367.9597606509906,904.0055072122441L358.93269094716015,904.0161949086669L347.88010884278447,903.5643839405911L340.1473271207469,903.1282155570025L337.9184511088606,903.0814514038157L333.87464738584094,903.1893121931507L331.7685297012613,903.3605745431187L330.4166536218054,903.3605745431187L319.80202990278667,903.834380605811L300.0332455057851,903.8164054123718L299.71389332783656,903.7477835124791L294.3392449152616,903.8228424796916L269.69984335544723,903.7279862847645L266.173700667061,903.6634931238141L244.12531218468393,903.7423180252326L243.27548155851764,903.6056795880377L242.55192953521873,903.5866107429592L233.59165480360207,903.5275820453207L231.3051004305762,903.5881896937017L231.30446858624418,903.5866107429592L230.69735644693537,903.6262058718894L230.6960024947948,903.6213475847808L229.63107400541776,903.6673797325566L229.6314350593202,903.6654364284277L228.92593573121667,903.6637360369168L228.92304729998614,903.6580275769666L217.89005236989215,903.6521976560662L217.61041612136614,903.6464891875921L202.3710529480486,903.6795253722739L199.14729290413015,903.8012236285913L190.5677495141117,903.7689166934715L188.80165434347145,903.7278648292222L188.55532531757672,903.730779761685L187.29578877402855,903.7454758627764L187.11851130724244,903.6733310984018L186.33222616815146,903.7022376673367L184.9902790710512,903.6461248171217L179.85446781586506,903.6126026602833L179.42842420933448,903.668958666799L175.90724601212605,903.6678655585101L175.83295917141004,903.6228050712334L144.92800869129132,903.4720752249605L141.30853356876105,903.5770155738192L140.49264200955804,903.4274994372981L139.77703317214582,903.3189132001862L139.78822584316367,889.0467061009876L139.74381621299108,887.1468206510963L139.77947028599556,883.111342326687L139.78542767540785,859.8418209087549L139.74733648855363,857.231774856873L139.73704645229554,827.074268072618L139.7671944532667,804.6981150197735L139.76972183059115,804.6790447277108L139.7742350043918,804.6449641512736L139.73542170972723,777.8464300280966L139.73821987748306,777.81531559227L139.72973511074088,709.3008136464359L139.72720773341462,709.1577747082056L139.71384873897478,707.2937828375298L139.7168274336782,706.9945389615086L139.72269455961577,706.4555956765935L139.72847142207684,706.2617710345339L139.72585378127587,705.1701518235614L139.7124947868342,704.3042976385977L139.70671792437315,703.8781285054483L139.71538321806474,703.3983163574576L139.73343591325647,702.5529592689309L139.737407506198,698.4706089072006L139.73235275154366,697.0807100944503L139.74417726689717,696.1473939191155L139.72260429613925,693.2521005897379L139.73163064373693,692.1754429881921L139.7211600805258,689.9159813856013L139.73831014095776,689.7873126790937L139.73984462004955,680.5162168836814L139.7266661525573,677.7969196981985L139.71845217624832,677.4668387043612L139.78416398674563,677.2164529047031L140.8843854952247,674.1027590753993L141.17178440268435,673.7383377146798L142.2286794427,673.4418801438032L142.37941944755585,673.4122086997922L142.91883397989295,673.538655805929L143.0828427157121,673.483945786309L143.68381693865558,673.0571437874332L143.73734317989874,672.9156639923322L144.30807913839635,669.5709514511764L144.2715224306321,668.8512940870969L144.19001451183976,668.2851649369886L145.189772771575,666.6862663202792L145.42355517431315,666.3366455966016L145.53151029156106,665.4627727099369L145.42355517431315,662.4156352080163L145.189772771575,662.0159099644952L144.91997524193175,661.8160393008948L144.83007281987375,661.6660700877392L144.74017039781756,661.4661900389892L144.6861928391936,661.1414048727756L144.72220796610236,660.8665177154253L144.8660879467825,660.5417064041212L145.18453748996944,660.37917002212L145.9776826532343,659.9328037979622L147.29399492316224,658.042568404233L147.3479724817862,657.842591094035L147.85173294112064,655.1445051351684L148.0575336663078,653.8089032158159L148.03568990512758,653.4879264081237L147.79965091549093,652.7886837896485L147.25635505368518,652.0016120128712L146.09331016593933,651.0921510348653L144.62580657377657,650.3533754339969L144.56433714664854,650.2712428649174L144.48932819812399,649.7389917894088L144.18829950579675,645.7564496068389L144.46793575432275,645.388125350144L145.10429325984114,645.0562283250465L146.0244391337801,644.954808898081L147.2770253896815,644.6636130879169L147.75515102184,644.3012676274875L148.12802944103169,643.9121319135402L148.615271684268,642.9961496919832L148.6710545124115,642.7306483533976L151.53755171848024,637.089393990218L151.68395907648664,636.6089152992081L151.70435862205522,636.347589271144L151.55325756329694,634.9538628519313L151.16097249677296,634.2511120815743L150.92186454895455,633.9218635427223L148.8782994532139,632.4016685327979L147.97106125633945,632.0972648289826L147.51152990022456,632.128989867464L147.08530576674093,632.3849253947692L146.87454055037415,632.4369171209328L145.25819248635526,632.0766183024925L145.09923850518862,632.0193364799907L144.70063499534626,631.6825607774053L144.51776119305214,630.3276237369664L144.49573690491707,628.0713643670151L144.67509043165046,626.8437666345435L144.5321130857319,626.3016441554519L144.31882049203705,625.9407951323101L143.32908147813214,625.6090354021126L142.05365856281242,625.6205017096454L140.6165737620522,625.6198716932095L140.3178016566235,625.5351969968442L139.86233215692846,625.2274870536403L139.65644116826115,625.1801071559512L139.2679471677293,625.2111057402935L138.90797642560028,625.4417008958908L138.32731148474886,625.9494889779926L138.03576045739646,627.3063599075022L137.89594233313255,627.5914350143612L137.6256032226338,627.7063185693842L137.35724990860217,627.6753304173626L137.04313301226102,627.4488358449853L136.7866042135829,626.6463494431409L136.07063432226641,625.7938801979499L135.07177869728912,625.0535912641144L134.06507014990711,624.0014347123515L133.93599337928026,623.7396640933493L133.69724648536794,622.5961839549327L133.60770511721603,622.3951239556409L133.25017148893858,621.8209068921806L132.91520372964806,621.4091576644541L132.73774573591254,621.2653047901722L132.42498279170832,621.1615423937756L132.06898364252083,621.1736459802669L131.49120713289813,621.3907507040594L131.21870169897738,621.5622110296008L130.32807198167575,622.5873601195954L130.18130356976508,622.8908940183164L130.12949233456493,623.2449591701943L130.05006047571987,623.4042766668772L129.64035455833618,623.8582623273869L129.20068116693255,623.9979058487897L127.96714050446099,624.0952010429082L126.76826101675579,623.9187580387852L124.71142719005184,622.397014827442L124.25848506768125,622.035849555863L122.55909460578005,620.2040356035868L122.04702990665828,619.0412183769522L122.06472154794574,618.8665467253404L122.27972914768179,618.5614605065985L122.48065564516946,617.830160923515L122.57525176797571,617.6969602603949L122.71831937737261,617.5859578771951L123.59477772894752,617.2487779327594L123.79128131611287,617.092986277089L124.79501116879146,615.1240522556709L124.8543142724975,614.9990048609643L125.00812323553328,614.3193460471648L125.0147124692794,614.1202065578054L124.43883149265093,612.8862551452839L124.33141795625852,612.754480145536L123.46281252709196,611.769880003304L123.1356074267369,611.4546540349502L122.56478120476459,611.1440858796768L121.56944585535166,610.1577561518698L120.9214443614328,609.4155232179382L120.2074602665889,607.253177857192L120.23923301012655,606.549057198712L120.9468986616539,606.1547759201112L121.65591826532182,605.4075924750477L121.7930284853046,605.1364450051124L122.44075918879571,603.5018947937278L122.7307757370545,602.6806290478107L122.77004034909805,600.0425578562945L122.68555373559866,599.3197935235339L122.55539380326445,598.65007329735L122.14622946673808,597.2456892462869L121.88473617688032,596.7728636850861L121.76622023294476,596.3504826580702L121.75051438812807,596.0764723373377L121.82777992354931,595.7023799593753L121.91551602218351,595.5267764571208L122.61343321830645,595.2198398412338L123.08496961672427,595.3211834742369L123.2846324255479,595.2829741780297L124.06983440292606,594.4774964188509L124.60419418061065,593.4832440602895L124.7687444972853,593.0544733050374L124.8739014467792,592.6099833377566L124.8467321405169,592.2173620097637L125.01561510403735,591.7744671603141L125.41033728441289,591.0306376442923L125.7536092834871,590.5623511468029L127.05304228341083,590.5027212917375L127.60852371447072,590.2830615095882L128.38722672157928,589.442849948965L128.67282035951757,588.8921530392709L129.13144908087088,587.6895686277812L129.2425634197789,586.2216584475482L128.79088498607234,585.6000296404436L128.7619104102905,585.3177647312104L128.96256611735043,584.7815836609279L129.28318198396119,584.4233899308729L129.68160496684868,584.2249631300383L130.05195600871593,583.9406180936667L130.7699116965032,583.1406170693617L130.88319235883318,582.851541003447L130.83688719566453,581.5861135841687L131.26518738909544,578.9440359456567L131.51007219937492,578.2490019217348L131.78582711843228,577.6473723364998L132.37461577212343,577.3649293491071L133.27815316648412,575.6425155132756L133.5717802537838,574.206080238001L133.40722993710733,573.5241764841758L133.4905431254192,572.5911830745572L133.90981697125426,572.0746355673737L134.8531605585158,570.1256430251387L134.8727477327975,569.8015224754026L135.00227582080151,569.1081637712241L135.6250035414505,568.0488911771563L136.38294594908803,567.6544502825891L136.56572948790927,567.2695134756796L136.68713386307536,565.362439156761L136.52294460030316,564.6668829643013L138.15274192224024,562.3800399993524L138.68953881377638,561.993810065258L140.89810554357246,560.8928352858993L141.5982793265939,560.99668629592L142.24294107190144,560.9511801589197L142.86575905602695,560.5952565123407L143.36229843728506,560.1885926354553L144.14759067814157,559.4766541722602L144.58988171034434,558.8917959410956L144.77040866226525,558.726501476568L145.14057917717764,558.5612032910722L146.74726904927047,558.2051637907362L147.84857371946055,557.5820531185936L148.0381270189755,557.4548811775039L148.29989109926282,557.0351981416688L148.39918092281914,556.6918032659114L148.39015457522146,556.5518970444718L148.18263884398948,556.1067231446332L148.11945441081843,555.8141655949476L148.1284807584143,555.5597582468245L148.3631657959104,554.7964832878415L148.63395622379176,554.3384802062401L149.32004890456483,553.5752054495688L150.64935911503017,550.9772624166535L151.50884793312252,549.2541255436836L152.6507711674967,547.9887573506721L154.2989822385316,546.4183938119577L155.04816908900102,545.122982309942L155.4643739766525,544.2556801690034L155.63722853311629,543.4981081541455L156.0389912646151,542.0038843854281L156.39580278508765,540.7710413978302L156.72445210105798,539.6647090379347L157.1608760073268,538.9794614502098L157.29229962832324,538.6738522234082L157.30908863485092,538.4655155521823L156.97403061208752,537.4931143544818L156.00288587423165,536.1045474148741L155.61691925102605,535.2637293386588L155.556532985609,535.0433047376346L154.9330831571515,532.629425052276L155.07380391617335,531.9228446026345L156.03520019862663,529.934303622973L156.16860961609382,529.7355474433243L156.15317456170487,527.9638640173425L156.05830764847087,527.5606206369739L155.860630636118,527.1445850002219L155.86902513938367,527.0329741138767L156.46747198500088,525.9723302596167L157.47833265227746,525.4090600651143L157.92802528951142,525.086788684549L159.42251766098525,523.4500489629891L160.43771097510944,522.2214868318924L161.66700925421173,520.0865044947686L161.61880855804884,518.6603644331262L161.6826248355519,517.9601039120125L161.7769501679304,517.6807225210414L162.46701444164864,516.4344362392449L164.2906977099483,515.355496621296L166.4053001612665,512.0340320007299L166.5505340940872,511.7580068295192L166.62725804865295,511.4649505964935L167.03967187031594,509.0915292157979L167.03813739122597,507.9934501353955L168.36221232008756,503.9574177816421L168.45157316128643,503.40128601890774L168.34289593622998,502.1344897746767L168.37692526666615,501.85001652314713L168.89738446905358,499.24900592676295L169.5797763473147,497.3359129398268L170.00031388181196,496.17411945556796L170.3939529004747,495.6459935347757L170.93679744489964,495.27879647516147L171.4265670654604,494.7468858050361L171.5253153081594,494.5567891788651L171.68417902585134,493.68012551794254L171.7356292071472,492.9417937704684L171.69672564900975,491.77609064220724L171.51132446938573,489.68171842433185L171.58849974133227,488.76146192026226L173.44260180103083,484.96406003889115L175.84532526761723,480.21621929737194L176.52916136148997,478.90861463035526L178.47975507699084,477.03670944878013L178.93387062454713,475.16097763114703L179.3148727565749,473.158942271516L179.92983781829207,472.37876561872054L180.42023928318667,471.92353805522635L181.50015150957188,470.9395158935804L181.7024319592001,470.80516277341303L182.32660389546436,470.58419538277576L182.31297411059495,469.3137275253421L181.9678968419994,468.37724087884L181.96780657852287,468.2340861497505L182.44900116886674,465.9268712598405L182.88199506304773,464.47436184407434L183.318780023219,463.9838584658137L184.07293136486805,462.5814643001313L185.14201197413968,459.80692349861783L187.02689387914143,457.2289770001544L188.1531112686971,456.2114939783323L188.81284701449113,455.88794800441974L188.90554760430132,455.7731753333019L190.558091322182,452.5630591896652L190.5699158375337,450.88565327478955L190.41953688658396,450.6016170611492L190.00044356770013,450.26375301681765L189.7234249599769,449.7113668180582L189.3109208748392,448.8874844678967L188.85572216557193,447.7709696447073L188.36838965886272,446.49881828769503L187.77120650190955,445.7356525020359L186.16307241420145,443.85709512845006L185.11285687140662,442.8992240015141L184.7237310265391,442.4038973603074L184.08069402379806,441.07807916139154L183.99052081131595,440.44279930576886L183.84438424373548,438.0801692176774L184.05343445406106,435.5844734652346L183.9202958270198,435.1891326185505L183.06550070967387,433.419209404321L182.84507730138102,433.1911469671377L182.4422314081694,433.10667277828725L181.9100379539086,432.87368447952394L180.28728118309482,431.27697543090653L178.88079570068294,429.85204683788106L177.7943845040263,429.5314606064012L175.35799276090802,429.01877777197024L175.01661629482442,429.191833333919L174.6711779723264,429.49832694201086L174.0663224199161,429.68716090617L172.86699161483193,429.66114637662395L172.35113584971987,429.4046199738541L171.01568772288738,427.9041072981836L170.39575816999422,426.25605743181404L169.4764246673385,424.46684517786434L169.39636096416143,424.37397947198133L168.46023845497984,423.82155275355854L168.15587001404128,423.67259105987887L167.8214438356099,423.60704693975185L165.9492890807178,423.68398997647273L165.56855773911593,423.90665383561645L165.141340707396,424.3037789396685L164.6215133493406,424.6738135362957L164.23247776795506,424.86497552924266L163.8263823896068,424.98075817482186L163.50026045096456,424.9272704498753L161.76034168835395,423.78800425799L161.25008225875172,422.93926606756395L161.18355807696753,422.7393731700331L161.1964657540302,422.3157321843355L161.3231054108037,421.8670601686126L161.29855374534236,421.3406155556622L161.08562220555177,420.6170315988702L160.55306769738672,419.4996358842436L158.92011115378955,417.0265453372667L158.46518323495002,416.58739811381383L157.48844216158614,415.87850848339804L156.26564285275163,415.11754474146164L155.02867217819403,413.5759188133243L154.79931268577639,413.17314287808495L154.1901244865221,411.9155067687043L153.9093148128104,411.0278679716548L153.36313051977413,408.27524524776436L152.3578661880074,406.50843836102194L151.80798109245552,404.45936494905436L150.14045363756668,402.57379004763516L149.7270469176692,401.7291737879459L149.61954311780028,401.57819516253494L149.4841479038605,401.1494089732814L149.09375837033258,398.7557924819139L148.30837586600137,395.9790929165456L147.31999080423702,393.20249056476496L146.78671418826525,392.300569435758L145.99167349200616,391.32267725407473L145.71691147118509,391.2059614282143L145.46652058887048,391.26334369339656L144.851013946296,391.15092086541426L144.04505136944863,390.72957983786364L143.77209461814527,390.0908848330373L143.72542840107235,389.50861823816103L143.72371339502934,389.253780404958L143.79150126547574,389.05412074629385L144.05543166918324,388.6831607433551L144.2238633153247,388.56093498563314L144.4855371321355,388.4259505535583L145.79526016831733,388.2500894960858L146.182039162808,387.83625880179807L146.54291253969495,386.67443730933155L146.5686376303438,385.67285975381765L146.63218311742094,385.07239307340933L146.80729426078506,384.7570986444962L147.96835335205833,382.5996753870995L149.12598243125103,380.2157645997477L149.25144866283517,379.68782496137646L149.19620741554718,379.2951356846097L149.0077372777414,378.889520991901L147.40411636383214,377.0496294510158L146.4390192788651,375.9439551831483L145.48673960748602,375.1398872577429L145.22723211410084,374.6525254957842L145.16152030360172,374.1198717314437L145.2011459695459,373.86526906891777L145.80609178543273,372.5139757280158L146.11271681326798,371.7097836773564L146.18194889933147,371.0699142088579L145.86268698485947,369.57701110940707L145.3591973159546,368.1461942180795L145.14590472225973,367.67088881162L144.8249278017447,367.10820965017774L144.61795365136823,366.84212925184784L144.30537123411887,366.4845110165552L143.28205420715494,365.5894078597639L142.94419801663753,365.1353499393299L142.91820213556093,364.8578341497114L142.96586125086833,364.6090402576101L143.50599789101398,363.38571043979846L143.53127166428385,362.9981353604335L143.34550943075556,362.4812052831112L143.06515107442465,362.12415291966954L142.39124396290572,361.63342180085874L141.46820965773622,361.3523729237131L140.66242760783825,360.5769813837069L140.27880783500768,360.11215043509947L140.13167836919274,359.7622985019643L140.073368163723,359.4087699177853L140.0295903778824,358.591601104873L140.09439955361995,358.2565767259921L140.05441283376967,357.5024203231733L139.9916797179776,357.34331701864267L139.63965216173347,356.98051686574854L139.3753607041217,356.7760332791713L139.0343452919442,356.64463249114215L138.0397320503398,356.4916553966241L137.47414110997306,356.3160545763367L137.09070186409372,356.0940303872585L136.6646582575595,355.6384538622169L136.49072053938653,355.17984047214577L136.48006944922236,355.03572491293926L136.4767297006092,353.51030195051044L136.6337881487816,353.18851291418287L136.95232795544325,352.71116581780734L137.47053057093217,352.1558123322584L137.6782268291172,352.0015616193905L137.9092110640995,351.6408452982723L138.3573692222435,349.994297894963L138.37659534262275,349.5970964047574L138.6884556520654,348.17759127438785L138.8533670226443,347.9482450207297L138.93550678576867,347.6576244607468L139.0121404768597,346.57017971998357L138.8437088307146,346.01002737013005L138.55026227036979,345.63957989779465L138.55676124063757,340.7562307144899L138.5547754441668,339.8564569438922L138.55405333636008,339.56694835786675L138.58772161289198,309.5685540379709L138.54890831822922,294.3828124344345L138.56434337261817,293.0168922473331L138.54818621042432,249.48946592674838L138.54502698876422,245.8882058320496L138.54349250967243,243.04243537391812L138.54249961143614,240.08798924898656L138.53166799432256,235.5997991439026L138.54755436609048,223.89567394833102L138.51749662859584,220.20465547728054L138.54403409052793,216.98030781378657L138.5378961741626,215.202917747607L138.53807670111564,212.2047285489598L138.53600064117018,208.41076438726213L138.53834749154157,206.472680912143L138.48698757372222,200.52342496590518L138.4841894059682,199.82686852685856L138.46613671077648,199.1120609748632L138.41820680503952,195.72873709260602L138.4274136795866,195.68593529437567L138.45665904579982,193.59983331305193L138.40421596626584,179.66907590298342L138.40421596626584,179.66304309381394L138.40421596626584,179.41971545335582L138.39509935519345,178.99149187534113L138.38598274412107,175.87944682936723L138.38192088770302,173.6913619897423L138.38589248064636,172.00186902754376L138.34067047919052,170.82072590361804L138.34753050336258,170.68649246033237L138.2935529447368,168.57103554758487L138.29662190292038,168.5218905839747L138.3058287774711,168.02867621510813L138.3090782626041,167.80992120448445L138.3470791859836,166.1841513603431L138.35294631191937,160.30256666934747L138.31043221474465,158.06925241773206L138.32036119709846,140.92462923951734L138.38210141465424,130.23728553155706L138.40692387054514,124.84265711584248L138.43346133247724,119.51631868344339L138.57382103759483,112.87958170506772L138.58636766075506,112.43425379153814L138.56786364818072,112.31350950592514L138.57102286984082,112.01962646220181L138.57111313331734,111.94652602932001L138.57111313331734,111.90984015151662L138.5681344386103,111.51846692680647L138.56957865422555,111.46810529635877L138.65957133975826,108.27887398193798L138.96863348144325,86.17464009741343L138.96863348144325,86.12803436667582L138.9586142356111,79.12531923745973L138.9617734572712,79.06928088422501L138.95897528951718,78.1617227519082L138.95897528951718,78.12132058656152L138.94633840288407,68.61943799173787L139.02992238162187,52.13667873085342L139.04264953173333,51.07780657833791L139.10466053971686,47.20103380301498L139.13498906763925,34.47865581742917L139.2458326161177,17.344345564865762L139.22380832798444,0.2693911229725927L164.06124795405594,0.1864285910523904L164.05682504373544,0.1655158208541252L194.72212599517843,0.14405264823562902L198.46481076239434,0.08640443517015228L199.08862164475613,0L227.96706682609147,0.032195410514759715L227.9704968381775,71.16182305460643L227.89395341056297,80.38198241598457L227.98918137770124,94.46234311437456L227.91814402212003,99.23497182808842L227.952624669937,102.58832074020938L227.896300260938,104.25977929620149L227.99252112631075,119.5128028490999L227.94702833442716,125.96136677608501L227.95560336464405,127.390026866693L228.00804644417622,128.27482216755743L227.9706773651269,136.3962799060937L227.99802719834406,139.46274480643206L228.03675022953212,139.5120949847842L228.94669633068588,140.25392354522774L229.63170584974978,139.98009527037993L231.75334885219672,143.11573506497461L232.56662277059513,144.6395058307462L232.8477934982111,145.30669067716372L232.97804369402365,146.33644428577372L233.96074215680164,147.70880836262677L235.19870572959735,147.9428739085297L235.55280934578877,148.4983777523139L236.02281126511298,150.11265628025012L237.82383840094735,152.1303489898237L239.6924728802751,155.59483059978538L240.85524697759683,157.09395323385434L241.34943950847628,157.52392473936925L243.10163410381756,156.63517117799984L243.6666834633288,157.4959511715051L244.0639330210288,158.616554480599L245.74012576961286,159.550768496797L246.3554518852343,161.30161230263002L246.08150223569282,162.05913553874507L246.17375150812404,165.29797765639614L246.8098382232165,165.97702487612787L247.08080917804728,166.69240458609602L247.29464335259763,167.3351898652245L247.26792536371613,168.5576079962284L247.59377651193063,169.25204710227263L248.23988247285342,169.73953648819952L250.10653115571222,168.8902008453606L250.70389483961662,169.01909813603015L252.22555651735456,170.90837895035202L251.94907949048866,172.8064084701682L252.60664891285705,174.07939118405193L253.00823111740465,174.40219573905415L253.76157008776863,174.41547790144523L254.19492503585388,174.18364017006388L254.76123808402917,174.49195046667774L256.70957521263153,176.1442243788133L257.3408779634956,177.18432483519064L257.08425890134276,180.4797040706253L256.2125845139926,182.80248409572232L256.7848549515802,184.45319818004737L258.1150677968071,185.2706398479695L258.71586149279574,185.40245041145226L260.00238681566043,186.99576875687853L260.4428725783473,190.75234650616585L258.90216530717953,193.1750185970377L257.57222325238035,193.30561005183608L256.3566450216258,194.49928510593418L255.24902190811736,196.11889018282545L255.10541271786315,196.92774998895038L255.22031812276146,197.73651646226244L255.75215052311978,198.34516937095123L257.94979537232393,199.14093809927272L258.55311644564244,199.5664608234183L258.69681589936954,201.8213136032682L260.0184537143796,203.69281203332775L260.68658396343744,205.43451652601198L263.5237455398219,206.45652128999245L263.724852564259,206.71146504058743L263.60985689588597,207.77414283273083L262.74793096394205,209.2615947732893L262.08711205643704,209.60147088202302L260.12460356210795,209.2214119460059L257.83940314122265,209.76566279267445L256.8867624159411,210.83361742125453L256.6568613426698,212.4054215938504L256.8867624159411,212.99999444633522L257.5475813234443,213.59451696321412L257.7773921332391,214.06172084195805L258.55311644564244,214.48633978385988L260.3376253653769,214.84984016159342L263.3063008262325,216.77147745851198L264.1369053320177,218.1526296751399L264.5104155955414,219.28143132267633L264.9757238141174,219.71080029202858L266.9560142132068,219.18878229551774L267.65600746927885,219.41833635425155L270.4427117626001,221.2566312832614L271.140628958723,222.67341108467463L271.69313169507586,223.0596712438837L272.45567753998694,223.11296521913755L272.9285678905435,223.54196700634384L273.1470957658439,225.89208595327273L274.6533223891929,228.30119831628963L275.1244977337028,229.7524993449033L276.4686111542287,230.81728861964712L278.68421843514807,231.97519719128195L280.16047758447894,232.1940885043232L281.4135151577593,233.1359753412189L282.6330649814554,233.20050175207234L284.00570166038415,233.01250872507717L284.4738080467123,233.34511859066424L284.6117306379783,233.94191433785272L285.60101833450426,234.940629180639L289.108657010318,234.8096124642443L289.6091679845176,235.30546796169438L290.23920704671946,235.574662438009L292.0534126500461,235.28711341809867L293.1634728774043,236.04665893927904L293.35040853611827,237.51883476984221L294.0461594088192,239.05251708679316L294.5199523941337,239.53531328867575L294.93841386868553,239.5062028911534L295.7006889231707,240.12387579939605L296.0625551982939,240.6994976706801L296.30400999648737,242.1683098661988L295.9541487636652,242.72675823081408L295.5191690730135,244.28481178950187L295.5463383792776,245.05401360191354L296.82365682758973,245.7006838750467L299.0322235573858,245.90361109690275L299.58274049726606,246.8354342224011L299.64050912188213,248.40864374515695L300.6730330233913,250.07175626752178L302.51991400501356,250.25398588120515L304.56880464583446,251.55719521468382L305.57036817508924,252.63488161259738L307.06088895362154,255.04269440558164L307.286728170473,255.92013270136704L310.0001385213109,257.67733383401264L310.0777651106382,258.7979642592909L310.3344744362694,259.6309309663702L311.7564852365467,261.8890172564734L313.000767252659,263.5048439079519L313.4025299841578,263.7435563973104L313.812777482397,263.5239200082451L314.7451991890666,263.97139875403536L316.2392402431615,267.07515162177515L316.69335579071776,270.4782308168151L317.5170100088544,271.7508539116034L318.1994018871137,273.8655193352588L318.3511347902022,274.02967581371104L319.81394468161307,273.7631345586551L320.0537747372382,273.55002660916216L320.10865493062374,273.2193063412733L322.55587829085744,273.71643920085535L322.5887341961061,274.2717368383537L323.8859106091313,276.3354006894724L326.2275257024903,279.25569180919047L328.9895880668737,280.62823150861186L329.2211138827133,281.34710616668417L329.1745379291169,281.9069585434763L328.5348406749854,282.9902007368146L328.3750743225355,283.5676243947173L328.89381851888174,285.58447289550986L328.8441736071036,286.28554657218683L328.20285161040556,287.3125358669686L327.7905280522191,287.451164058878L327.4175593695509,288.5926971191593L328.0507576534128,289.024866003404L329.1143321906511,289.1878794926515L329.57693250494594,290.14093839142333L329.12922566418456,290.7152723502668L329.1845571749491,291.6722163047725L329.85052110058496,292.7663680497708L331.2905845960522,293.4056555613779L331.8906561842359,294.68076045865564L332.76720479928554,295.28888378558895L333.4494161505918,294.86448224073956L334.91583658104355,294.59186536836205L335.18355805074134,294.842193204232L335.30171294077445,295.76165672693605L335.5899242195137,296.20406981135875L336.6803070091137,297.1702937286964L337.4815758852128,297.5913932768408L338.09536752174245,298.7261545576148L339.0842941643605,298.90594905494436L339.94847668320654,298.7463223490158L341.62259337183787,299.22361001711215L343.8732228814333,301.93514416666494L343.87132734843726,303.6174719886094L343.68601643228976,304.48087702027806L343.09163144309423,305.40580915020746L342.5588061444996,305.58938522513563L341.74751802256833,307.74585132794346L341.8911272128207,308.1115613968086L343.7121928403194,310.00089522417693L345.0633468119686,309.96062345748396L345.30380871192574,309.6340978636608L345.4391136623908,309.244379601304L346.1289974091542,308.0436339522539L347.27263564956957,307.6706796473645L348.52991560622104,307.6003782666239L348.808920010415,307.2625533142191L349.8394581154498,304.2971405774533L350.0517578109102,304.251172795648L354.3183317925959,305.2629220491008L355.8017217565284,307.5533786409378L356.36668085256315,307.8964555944194L356.89345849826714,308.6170475627332L356.6823322279979,310.7102199794317L355.8970399871414,311.70249784489806L355.00821553936294,312.31876938024925L354.9208404946312,313.1266567458915L355.5526848263544,314.93785364000996L356.83713408926815,315.09987869340966L357.44794703109255,315.4795446946555L357.72234799800935,316.4726035545218L357.30009545746725,317.00615763072165L357.4190627187836,317.5206089114927L359.3817517400621,318.4257056822289L360.275991996401,318.37588563052395L362.24400656276157,317.21691229677526L363.53125399343116,316.89584748995003L367.9825070469342,317.79379331658583L369.046623165028,318.42820324819695L370.79015246667586,318.57726691336484L371.93216596452476,317.3574557618913L372.0234223387215,316.26721795533285L374.62436439851444,314.77043264088206L375.84445580306965,315.18891199279733L376.52359819619414,314.9039226012492L377.32414496448473,314.21829680735027L380.3755017693202,313.66414501248164L382.8868121974865,314.7562286355251L383.6384361618075,315.7000757013202L383.9900124006708,316.570034725567L383.7871903701889,317.09924280714495L383.82266391624216,321.2883924140706L382.7925771285827,323.77190663801775L382.69680758058894,324.29834658611344L382.7925771285827,325.0104496614622L383.0266303217486,325.6606313393968L382.98944176965233,326.43102831159104L382.286921136254,327.46496518192544L381.76276113135464,329.51204560614406L381.45649715742,331.4348071644854L381.4136220063392,331.996105299756L382.05774217079124,333.28634608329685L381.19274728066557,334.8025888149832L380.5532305534871,335.17150117404344L379.0541347447397,335.6240583031704L378.1042921872104,335.29424915173877L377.26186316607163,335.45450027528295L376.8057618220464,335.5862916669075L376.5564541014428,336.0410516127258L376.82282161900184,338.8590510292397L377.33019261737536,339.85920911942685L378.35883518941773,340.2716302801173L378.69398347565766,341.0888011483621L378.9580041428417,343.33999230069094L378.20493596290544,347.42564316425796L376.01893510209993,348.9108738759742L374.8018223922518,350.6568619669524L375.7826253220355,353.32704094647306L375.8647650851617,354.11381353091383L375.58711463310647,357.3473698172684L373.96688523962075,360.6412738681338L373.8071188871709,361.32624043537726L374.5193879759736,363.6259259103772L374.3639542703695,364.18430754648944L373.630021947336,365.1003508939666L373.098731127835,365.46730998532894L372.0217975961532,365.8409098578859L370.95966727453015,365.5551945478028L370.4672800131666,366.31346421488524L370.66811624717775,368.73176468670135L372.1432019713211,369.7162661947441L372.33212342650404,370.25577251020786L372.7222421696042,372.45983519786114L372.9282234217462,374.71434415652766L372.68333861146675,378.49678798419063L371.6343867573323,378.9793264799828L370.27194985118695,380.02575772403907L369.7583506729752,380.1985625384568L368.77258325201365,379.31129723422873L366.4751972618724,379.30582316505297L365.35683279472505,382.108521158093L365.8799999013918,384.8349793500611L368.8584238176518,386.42119149930386L370.11200297178766,386.49814271381456L371.4087280674321,388.5044422920855L371.24489985856235,390.91644073819225L370.64329379128867,393.009444999715L368.51090943520467,394.98570526139974L368.28254284102513,395.60263869636947L368.3967261381149,396.30169653799567L368.6536159906973,396.91838697157164L369.08498514230996,397.23106767614536L369.58612796084344,397.19167455684874L370.1665221112671,398.9740295478741L369.79544896159496,399.9603680345581L369.85249547840067,401.0289544337729L370.4234119638495,401.6864271494733L373.1114582779446,402.63342002582795L374.4962805261275,403.0840715620252L375.0328066272341,403.5878221221483L375.75554627924976,404.00646161192617L375.98472524471254,404.84717404881303L376.49390151260195,405.41352479100897L376.62487381622304,406.1355216171123L376.4039990905476,406.861211235223L375.75184547673416,407.3210754082429L375.3868199799508,407.90099207723597L374.6914301611523,408.3931121431542L374.3271267721775,408.97398081157735L374.0011853604865,409.1819139091658L374.0164398879224,409.4786170283123L375.6403700839237,412.626343357987L376.4395629000737,413.66178954525276L377.27495137008736,413.92627015443395L377.9874009858413,415.5207306705088L377.89018722223045,416.4056115943449L375.97353257369286,420.385194654903L374.7562393368935,419.9003734546668L372.4349335256229,419.44545943168305L371.8164481883432,419.9481960813946L370.48379822926654,420.42368347318734L367.9101157392124,420.5101205752544L366.96289082248586,421.1768307047505L366.48512624422983,421.7917821107767L366.2552251709585,422.41264063629296L366.2645223089821,422.7812177024898L366.63162386571275,423.3412374044765L363.76855667173004,428.1815289016331L362.79416244873937,428.85439055974894L362.1603323205454,429.6726652594871L361.82969720810434,430.45732968986704L364.5861632369779,434.9554355221626L367.3631190748947,437.14325305440707L368.02348666501894,438.6298253052055L368.21592839576624,439.58063677068276L367.8353775811174,444.0106785711796L367.1125476656289,445.3133586493359L365.80399805463276,446.55421246614515L365.12377249979545,446.16941430509996L364.5738874042472,446.3898364277611L362.2923877858757,447.77226066204184L362.0571611675241,448.0942331906426L362.0884825936828,448.842951102657L362.934070836478,450.4321707938507L363.7493305513508,450.77105936074713L364.3606850740289,452.04065344782157L362.92847450096815,454.04736823628264L362.5444936742333,454.8438365716065L362.47363684560514,457.3452737751513L363.33384777150604,458.00485518764435L365.44899180368157,456.6922083720083L366.19944234281684,457.0328670114832L367.2302512382794,458.1819882052787L367.96725251949647,458.6645054518758L370.1712158120172,457.6583116917518L371.364228173783,457.9155135288411L371.7052435859605,460.1455024765264L372.23788835760206,460.3327645257159L373.30949634420176,461.1644949352067L375.4024355612928,464.5557657063573L377.8563384187473,465.43801159073155L379.6704537585938,466.749847956582L379.9322178388793,467.0459988484672L380.3745991345604,469.14446088364093L381.79173570713647,470.9720742733143L382.8569349869431,471.04928723802277L387.73125295227146,468.3077236474455L388.4984924979344,467.59963981691L389.31998039264727,466.3506689218675L390.56489425309155,462.68401857683057L390.5324896652219,461.53174556559316L390.20275718753874,460.94078507858376L390.5380860007299,459.90139726018515L392.35951268213284,459.83102538021467L394.5508390880186,461.22969938847655L395.5313712273746,461.0974857948522L396.10291955715365,459.94496046239874L396.6830429171514,459.1854023675414L398.95822409220455,458.99411470668565L400.72630505931375,458.4077169454522L401.28142543646936,457.37299390600947L401.32637664749745,456.92107807367756L400.9871665048395,456.4652656388307L401.0675009984443,456.21858629492453L401.8931410130517,454.95269118678243L403.8802011728403,454.68261523656383L405.11897711691745,454.0601382173436L405.5237185431233,453.3147979761552L405.42903215684055,452.4068187966468L405.5517002206725,451.4606602025997L406.8308239385042,449.34713023018867L409.9144950677328,446.6460186667964L411.2436247512469,446.64769725033693L411.5828348939067,445.9514390148215L411.68997763987136,445.40518060348586L411.1227619569363,443.84314457841174L411.0809699675665,442.4361966890483L411.190910881287,440.92262425975514L411.5232609997729,440.51038767326827L414.13882574267154,439.4199796157809L415.50099185838735,439.9276595442161L418.87188136812256,442.30583571400985L419.2164170558626,443.6434420872656L420.1778133383159,445.3666955944509L421.63737374459197,446.31855830407494L421.90762259161784,446.69379358446804L422.0615218181283,447.22213730653584L421.7315185500174,448.15452076005477L421.5372715497524,450.0826834018744L423.22384459806926,450.7262794890694L425.44450663364296,449.8693432514874L428.90484724805356,451.3113640966276L430.37966218176734,452.6455001186978L430.7203165400424,453.87297189715355L430.6926959163975,454.96133241905864L430.55414148079944,455.4559290484949L429.19369037112665,457.2653360595059L427.86799069969857,463.14188768322856L430.16167588732424,463.24765468405076L430.72988446849376,462.8288289285538L431.2958364627648,462.78979225914827L432.94025646780756,462.7958474658708L434.05401749768134,463.1558010918352L434.59884783857706,468.2924040198277L432.4168185707131,471.6116302145183L432.4969725373667,472.0114205581431L434.1831845317811,474.6404552476133L434.29357676287873,475.112618339861L433.87024106062563,476.3452938786868L434.1279432844931,477.3155973382227L434.51418069812644,477.8427420558073L435.45093505164004,478.32883843270065L436.9081486075429,479.6614832996929L437.0263937610507,479.9416842556757L437.0897587211766,480.5990858174373L436.8063314066603,483.2101113282015L436.38480097392676,485.6696821377582L436.51757854706193,487.7048654120754L436.7999226998654,488.27952916331105L440.9738863552193,493.633043870097L441.08960413140085,494.5493493988879L440.7754872350597,495.2541706516122L440.7319802396469,495.9879075006911L441.3722190746339,497.46067289528764L441.9315818351588,498.02943837152725L442.32332532082546,498.01136062131627L443.1154775858522,498.414701740503L443.8922850599665,499.0337727988326L444.52078964307657,499.89594893198773L444.76134180651206,500.71983040823216L445.7100109388539,502.68033977685445L449.0843304606733,505.48185443221337L449.95221378203314,507.2911407833699L449.5242746425047,508.6933874338629L451.3261141496223,513.5084207592126L453.1247041716051,515.4924832131483L453.869919429133,515.5712717223832L454.63273606447365,515.2201702743032L456.8617926033112,515.1952279989027L457.46691894614924,516.210373705705L457.0895273531605,517.1549194895233L456.2487230745901,518.0332399752542L459.39494679265954,521.8059139149509L460.4336988740106,522.038366746875L461.2187203244339,521.9035475610253L461.6244546488779,521.6321125728955L462.4014426499416,522.3518277111461L462.6586935564301,524.0318668437912L462.5874756738958,525.4282196283575L463.6871556015212,529.0293257255071L462.8605226886757,530.1044611732159L462.84887870027706,531.8795823581377L463.0430354370674,532.9637413062155L463.140519991106,535.0370541747288L462.67331623953396,535.8465214356229L461.00262956298684,536.5458362160671L460.34244249981566,536.4522239939988L459.7958971528751,536.2590015213009L458.56741124505606,536.4774764551858L458.1793685619032,537.2787504816133L458.86753730262353,539.16152045934L460.3612173028123,541.290560956516L462.12153561098967,547.0774755098419L465.07269995750903,549.9842421965859L468.53809532657397,550.6455492982541L469.1546851308576,550.9691161498358L471.05843210233616,552.8857852114124L471.95763684985104,555.3269677973258L471.9042008720826,555.5448751439371L471.1756843576077,555.9811792244163L471.2414864315833,556.4547242451627L472.35443509017387,557.3312679395221L475.98266576987044,555.5338082017151L476.40491831041254,554.9775138463656L478.07009891492817,553.7882025910976L480.8877635805002,552.48467519117L481.6493165271768,553.6052340947972L484.27643499499936,554.2508202464123L485.65421669205534,555.1310619163505L486.64395570596025,556.2232341221707L487.00762725060486,557.0401581721871L488.412126936546,558.0856323732432L488.9176024019216,557.840714050004L490.5051564171099,558.3683083190263L491.33242117428745,558.8592459407564L491.33837856369973,559.8889512325231L490.76818418605944,560.4774165617919L491.0281429968254,561.4111859220484L492.6483723903111,563.2741752506527L493.9784949720615,564.4275201839391L494.0673142324067,567.0251551400843L494.3462283731242,568.4349300301647L495.80470561768743,569.2075817880868L497.0815727486206,570.7206520706313L497.0819338025249,571.5669368277004L496.8414719025677,572.196858805949L497.0322888907467,573.6524665158113L497.27753475493046,574.5410451674097L498.54889581383213,576.1168252085326L498.7434136045249,577.077021662788L498.3661122750127,578.1160997851794L498.073568349424,578.4369376804516L497.277173701028,578.5974781935138L496.5399918928615,579.036600752006L495.63203158817487,580.5210291328785L497.6853451393199,583.6759037838137L499.37399424758405,585.2080484333028L499.33274383906974,587.5489841402696L500.2442244193153,588.7672939852191L501.41268511562157,589.860308797046L501.51567574169167,590.9289818692378L501.3097847530262,594.2497299300585L502.8779321208822,599.6905415170067L504.85127223232666,601.7810246976851L507.60755773424717,604.0029762517606L510.81588272377667,605.7719707060951L513.484161336637,606.6342020126285L513.8697669059402,608.59946085294L516.250375820915,611.1678208167605L517.2013918036319,611.3892590599726L519.4011127127833,609.7826082579977L520.0554326500205,608.8788163870659L520.1124791668262,607.0888385077287L519.2741120021074,605.1734661919991L517.9979669789827,603.2505198207982L518.7059034209378,600.7452759284206L521.4434141198599,597.7559223453618L522.9389896530429,595.3807743989928L525.8529654474696,594.5779645134298L527.1100648771662,593.5749937158143L528.5519336421548,592.9188003913496L529.5714596031266,593.0859865258926L532.8792549431637,594.5739154479088L533.4825760164822,595.1831482951602L533.824584326896,595.2709546565357L539.1350554080655,594.6055487131734L540.729649974377,595.8261096011338L541.6940249515355,595.8748165087418L543.7661133056808,595.3757136172835L544.5394907677073,595.4967918680259L546.6262018049547,596.5325180557656L547.2431526631444,597.2110315793298L547.2723077658793,597.7138047857361L548.3015821822537,598.1430637936346L550.7479931712041,595.9957600634261L551.9087814720515,596.5418790319936L554.1658196884364,598.2486672966215L558.494224151158,600.039017545605L560.1753813909163,597.624256743361L561.0633934674152,595.2046571546371L561.2733463124987,594.3383066221613L561.0642058386966,589.8170066119228L561.4890760200433,588.9571143681724L561.9779430058443,588.570503719533L564.6493808403611,588.5174428969331L565.0275848046349,588.1641164655503L565.0240645290723,587.1320277140376L565.2179504754349,586.6903473580633L565.692465568558,586.1690874271944L567.6290684452852,584.7981815333951L570.1132998306639,584.6659043207692L571.5466838289121,584.8464545225306L572.6901415423745,585.5219897952229L572.9858446896214,586.474627488079L572.7479101669887,587.2023242685373L573.4500697464846,587.959078059519L576.8585088622185,589.2826721735764L577.2406844194338,589.2884968809167L578.6042044872884,588.1937509457675L581.1444894912365,588.4160057509143L581.8102728899212,588.8732850216775L582.1692507338139,589.8575232840167L583.8252244637806,590.8321354005511L584.2937821674914,590.8298566447984L584.7690193684211,590.530447335269L585.0393584789217,589.6707648968859L587.2321291004228,588.7714728721376L588.6381632654575,589.0266337528956L590.1266982475154,589.6301205805721L590.3803386149648,588.6939731294406L590.2998235944069,588.0639409091364L590.5090543316837,587.563549324268L592.2111526978642,588.1073800343629L593.8917683567688,588.9816804915708L595.1913818836438,588.8249117627292L597.8370946275154,587.1303811200423L598.1603281349289,586.2799295018613L602.165769880663,586.222418507743L603.5841701419031,585.4391348993504L605.1500609228606,585.3605865844838L607.0646395114527,588.4253770314017L607.6740082376618,590.1687345502341L609.5744154605272,592.2933058694862L610.7996518832115,591.9857284089339L610.9262012765066,591.4100304505591L614.9526744121413,589.6911502796002L615.2178685045128,589.1941613807385L616.3520290799515,588.3077286058096L617.1833556935471,588.0172087364699L619.1436076009741,587.9560385343912L619.6780576421352,587.1121419004112L620.1596132863833,585.8455457125547L622.2038102264542,585.8887445468654L628.2664468527983,587.2660339001523L629.4539531425326,586.6049721925256L630.3097411581111,585.6812358098987L630.851773331251,585.5113479341262L632.9232298410625,586.4784276578548L633.4862031406265,586.5688711203165L634.3834220916724,586.2390131358025L636.426174816128,587.3427887092075L636.9597222225275,587.8757439584524L638.5215511470687,588.3968832362216L641.1491209322703,588.3003834319425L641.505300608409,587.8321768194292L641.3745088317446,586.8793345636241L639.3129813042888,585.7689019963373L636.866660578813,582.9678824937218L636.4074902766042,581.3621315825148L636.2674916253891,580.1834202319324L636.635405553403,579.1072281846491L638.1471382487853,576.2695517529291L641.014086772233,572.4970142175453L641.4062815752804,570.7382972195082L640.580641560673,570.3500941652683L639.956198833981,569.6918286193131L639.4750945071119,568.086480061429L639.5553387372402,567.4864318455875L639.8550134774287,567.1425091174469L644.1177963931277,565.5049724084301L644.9472274737254,565.5554046349034L645.4337476091496,566.3334398462539L646.3312373506233,566.7504328217128L647.748012869295,565.1496504155311L648.119537336348,562.4514629878977L647.8175157457845,562.176950910276L648.174146739304,561.4383862449913L648.972888238075,561.1105775147635L649.8976375492875,561.7248732490671L650.6639744601907,562.7493478231099L650.6230851055807,563.2415175917076L651.611921484724,564.6085675912382L652.2964796864071,564.8808290845082L652.913250017642,564.392834803114L654.5092887995725,565.0059668914382L656.983320412166,567.8261476965481L659.4664686358319,572.1416491832852L658.7257665521029,573.747381934425L660.0000160422333,574.5046311580618L660.9170026945121,574.3226852900198L663.4912267654236,577.8351966315331L662.8534250442863,579.9257976223034L662.9479309036178,582.4471196350905L663.396720906092,583.2099378770135L665.5403881966722,583.8828354079897L666.6092882789926,584.4700181866829L667.2470900001281,585.0006472280447L667.8612426905602,586.8571680845662L668.6605257701885,587.4903431518105L669.3196296716505,587.597239117872L670.7668239817212,588.9452111655464L671.1370847601102,591.3026833811546L671.866052591964,593.4780554249983L672.6536014197172,594.270988433128L678.0626402166345,596.4959595348901L679.3042143284674,596.7490824663901L679.2843563637543,601.303306309017L679.2823705672836,601.5873622207664L679.2885084836489,609.2801504860608L679.2391343623003,611.9693352313279L679.2911261244517,640.7837258183426L679.3513318629175,642.0526466338233L679.3349941737688,648.5784066900933L679.3243430836064,648.8377955909045L679.3243430836064,648.8924356827101L679.2949171904438,653.9566458070522L679.4508924769016,656.4856395699144L679.4898862985174,659.6148503183977L679.5261722158539,667.9639342443488L679.5081195206603,679.5495580307452L679.5419683241453,690.6589686512089L679.5333932939302,690.7104304033564L679.5346569825942,691.2707410403273L679.5627289236163,695.542386136256L679.5680544686984,695.7965278129795L679.5620068158096,695.9101148693953L679.5834895230892,696.3930278551552L679.5991953679058,699.1285308555271L679.6974922932259,741.8505079154065L679.7325145218983,756.7403871678271L679.7380205939317,757.5247117522167L679.7322437314706,758.119431799295L679.729174773287,759.0111765711863L679.7319729410428,759.0254109552043L679.7402771808302,771.9808298213356L679.7385621747871,772.492620240132L679.7396453365,772.745907870657L679.7426240312052,773.4702637425844L679.745422198961,774.148473801737L679.7474982589083,775.2005057615024L679.7479495762873,775.4057813329619L679.7534556483206,775.8040890045495L679.7447000911525,777.3038846167929L679.7502061631858,777.6569016229296L679.7501158997111,777.8503810584316L679.7501158997111,777.8828535109442L679.7345905818456,778.1257134121352L679.7415408694942,778.6086938121589L679.7600448820649,783.9943344879666L679.7570661873579,784.6828293767621L679.7568856604066,785.3035438358138L679.7409992886387,796.3384084323552L679.7925397334111,815.074003992685L679.571123426882,832.2438159998292L679.5003568617285,841.7725924976185L679.475173351937,860.79123039756L679.4757149327925,869.1691105422051L679.4736388728452,879.6557774217636L679.4771591484059,881.1299629843024L679.4727362380854,885.2340486898383L679.4725557111324,886.0221979377102Z" class="state" fill="coral" stroke="#111" stroke-width="0.5"></path></g></svg>