<svg width="800" height="327.2" xmlns="http://www.w3.org/2000/svg"><g transform="translate(0, 0)" id="single_state_map"><path d="M669.6221590735677,327.18091882305043L668.6400753315556,327.17874107600255L667.1590523718587,327.1839261866626L666.4587488442876,327.1743855794339L665.6543734330608,327.163393121049L664.1563297079147,327.1726226394103L662.6541029132923,327.14752661104376L661.1575016258957,327.13134894792574L659.6669585770478,327.12191195675723L653.1621413001494,327.1167267901833L652.1776775358512,327.16090425962784L638.2223086713384,327.13300819752067L638.099052365611,327.18143733412944L636.7117878596546,327.16598568388235L630.680811383595,327.10283052070963L629.6108831826159,327.15530431749585L627.6683522648409,327.1767707327258L621.6580026486035,327.19097792965886L615.609789041433,327.197614856344L615.1254905669075,327.1999999999998L603.3647186169646,327.1912890357671L602.6489088835815,327.1940889899952L600.6978675830815,327.1740744724116L600.6913044913199,327.1740744724116L598.9918964562894,327.1788447782619L587.8784184466085,327.1690967577383L582.083496908318,327.1648449563804L581.5400584860463,327.171689318001L568.9805366321025,327.11454901882735L566.9485024519481,327.1059416287321L565.4116571513287,327.09194162937183L560.9175259758867,327.08323050145736L552.6868319312471,327.0829193895038L552.6152148969641,327.0827119815235L536.107380312138,327.04963031303805L520.8996869931734,326.8708408236871L500.77407428784954,326.73684876890184L500.69849054975475,326.73684876890184L493.47440168887533,326.6928754636697L487.18349793028483,326.6679847644973L486.4980515115376,326.6706812621119L478.55029163153813,326.67586683089166L478.4729048462559,326.6750371402027L477.89391033345146,326.6799115712947L477.85085356661693,326.67970414878073L475.29225748586487,326.6808449725231L473.9564880075786,326.6675699186003L473.4010052300973,326.66684393820424L472.44149563887095,326.66995528210964L470.9555683908238,326.65979155245395L469.01556173911104,326.65605793296345L469.0021470680367,326.65605793296345L466.58418866789816,326.6452719074914L466.07363782632547,326.6448570599546L464.9416848021001,326.6490055339841L458.5232695464201,326.64952409302714L458.31512577911144,326.64734614473036L451.4173884591428,326.57256941955984L449.80330061701716,326.5731916986774L445.4198765388801,326.5769253719691L443.90264839165957,326.5886449418367L442.0925332593233,326.593000882071L439.9435173776519,326.5903043480298L439.8385800313472,326.59009692228165L439.82639143236156,326.58791895147715L439.76133748984194,326.59009692228165L433.39412877428276,326.55296759287967L430.39299279186343,326.51366002480063L424.2277974831768,326.4981028655898L421.3637652088846,326.48482738978055L416.7815732088129,326.46201009412425L415.68943146648417,326.44842338870194L413.93629262527065,326.439088992327L413.8015689394306,326.4415781661746L411.5375907690923,326.4271616860192L410.7908407459754,326.42923600193717L409.43913233055355,326.426331959442L401.9430718319327,326.3816302631453L401.8816239837861,326.38401574527643L401.26714550233464,326.38100796329627L401.1798058965778,326.36244265349796L400.5465036024889,326.34802597493535L392.16161296238624,326.3289419707371L391.45654939024007,326.3206445578535L391.14815619931505,326.3169107181493L390.7039574942355,326.3097541852703L388.37867571952756,326.3172218715499L384.84794871723807,326.3080946981154L376.48988741928224,326.3093393135273L374.82105906454854,326.30539803046395L369.76928145500005,326.26971892401434L367.6386566546398,326.30861328790206L366.7973548370164,326.2926407009695L366.7946142052915,326.29637455643297L366.2435308629474,326.2964782746062L357.55825256143,326.2866250398424L354.28348613785784,326.29741173807497L354.03776686716355,326.28797337822925L352.2042842432793,326.2906700540525L351.32771482267253,326.28631388478425L351.0299956710951,326.26515530140614L342.329139041879,326.2886994064597L341.9330456357593,326.2738676686972L339.3550487672701,326.2886994064597L339.1022615516031,326.28859568814596L337.86428935276126,326.2810242462392L337.2993586080165,326.2764606326041L336.96622760967966,326.273971387277L336.7202919733245,326.2829948964618L334.94003530241116,326.2830986148765L333.4818028591608,326.2696152053586L330.05471500919975,326.25053094091845L328.922473497425,326.26111026924764L327.0437704500828,326.25519829405175L325.5581316895841,326.2549908562146L323.29263895960867,326.26266605118417L322.90267591392694,326.2516718498109L322.68061262233186,326.24472267395186L319.35427904920016,326.2967894291146L309.44574141388966,326.2618363008705L309.0937866029162,326.2476268081673L304.3019362758987,326.2418185382671L302.20794939438474,326.23206892917005L300.55325692960014,326.23808464737385L300.4634651796687,326.2261569241141L298.51862636149326,326.2361139817617L297.46600741351267,326.25281275847783L296.98358410806213,326.2352842276132L294.92508119519516,326.2226304620658L294.516438580652,326.22947594524567L294.4431627429576,326.2341433154684L294.37940699441333,326.23881068190394L292.6573526867087,326.2263643629922L292.32905385483446,326.2310317357419L289.5606552033596,326.22408253493404L288.14338799220695,326.2248085712322L285.67710792744674,326.21422917611244L280.5852305484523,326.2220081450064L279.40892256341795,326.2249122906969L278.27285859160475,326.22325277905475L278.07913920179544,326.2233564985477L277.6091929828808,326.21443661542025L277.4849990926159,326.21194734323853L277.4683389366046,326.2187928391395L273.12126428976535,326.2076948341073L271.3764915874999,326.20562043826703L271.2010190352257,326.2101841081271L268.52724430014405,326.18788432327847L268.4694746682608,326.2045832400672L267.7597952953165,326.21142874473344L267.0323018161589,326.20385720121294L266.2362925438838,326.20344232182924L266.1229169367416,326.2057241580774L266.0166092745749,326.2057241580774L264.7718576183088,326.2076948341073L264.7505816614985,326.2076948341073L261.8026716320501,326.19846376687474L253.843083762501,326.18861036414773L252.02892980446632,326.17014815358425L251.9640922276094,326.17875694453824L249.1936741632844,326.17357092743487L249.18855350927242,326.17066675581236L248.9294916893923,326.17720113989935L248.76966958670528,326.1821797132643L248.22147111986033,326.16879978756833L247.9207228490077,326.16029470233616L247.2119810605991,326.1612281879161L246.83802907394147,326.16952583084685L246.83521632032898,326.1642360848614L245.3190700014211,326.15987981980834L244.36944110878176,326.1600872610743L243.7941248122388,326.1519970460813L243.18390152214852,326.14950774687077L237.78031334540265,326.16693281871767L237.22987910004485,326.1551086685813L231.17337147581202,326.1265853993136L230.51958656567513,326.1218142204593L229.43314245245801,326.13664635044415L229.0155567238662,326.1431807731901L228.8999453382121,326.14006914423817L226.6790239347083,326.16102074668834L214.03021518404603,326.1613319085245L211.1287516501443,326.1645472465257L206.12205022028047,326.14660356309423L205.72949078664806,326.1512710005891L203.51441125603105,326.13664635044415L201.94785173776472,326.1337421601743L199.73385403546035,326.1385133291283L198.33505002750644,326.1413137960235L195.2289766987824,326.14183240085276L193.76403691999712,326.13643890833237L190.20244174985783,326.1454626333534L189.6426316591269,326.1469147257126L184.90451213829238,326.15303425376896L184.9032860662046,326.1527230914812L178.77011287556525,326.1527230914812L178.31487952169937,326.18954384513063L175.7282280267118,326.14110635407724L175.24392955218627,326.1491965843943L174.20876410097935,326.1360240240806L174.03148850151774,326.1383058870838L165.09854363834347,326.15490122713254L163.77344819940845,326.1391356552249L157.7371347036742,326.1445291452169L157.7371347036742,326.143491935994L157.18179616996622,326.14338821506135L129.99444097251217,326.1363351872719L129.8949848896582,320.440368660747L129.9716504560647,307.5780725587938L130.00929808133696,307.4681874416724L129.99256580343808,286.66622831553923L129.99307065665107,284.8539450415633L129.99170034078816,282.2440826209022L129.94684052676712,280.4622834230772L130.0231454837358,267.28699390052725L130.00684593716142,253.47306737996405L129.99220519400114,246.40009622962862L129.98513724902568,245.85913580715714L129.9997058703002,245.07531965620046L129.99732584801313,244.9864221167868L129.9973979698998,244.64491637238098L129.96140914804073,233.5482658354249L129.98730090565186,222.66960245468317L129.98780575886303,222.65671677573982L129.985569980352,221.8938745207688L130.02090970522386,211.7059519456816L130.0226406305228,211.3594692950851L130.01232720061125,210.00720041643763L130.01001930021175,209.59825946635146L130.00771139981225,208.92078989127504L130.0008598204995,207.36703522680546L130.02509277469835,207.088705632867L130.02054909578692,205.8588285983792L130.0416808088221,202.19048469282052L129.98910395283838,192.82935384247003L130.01492358856194,187.70829152139095L130.0198278769103,187.4873376662904L130.02228002108586,187.39008971297517L130.02004424257302,186.9077575322417L130.01521207611222,186.63947025854486L130.01766422028686,186.31642434705464L130.00381681788804,180.4682008194045L130.00237438013755,179.24462871058267L130.03627166725892,175.8841551608857L130.02141455843594,173.4931333244108L130.04103171183397,169.12475346676183L130.0537251640335,166.89203227291955L130.09065157043005,160.03794078474493L130.10485958226673,151.52641315768096L130.08113148128086,150.5573388937146L130.11712030314175,149.19549465625096L130.15318124688747,136.11547992315627L130.15628248805024,136.0955295790818L130.21506182635858,130.08959461378254L130.21159997575887,129.86388651513653L130.20186352094697,129.55473105670444L130.25220459841785,125.96022558119375L130.2671338291293,123.74803716784163L130.22616859703248,120.65672510002696L130.14690664267619,114.35857841648749L130.13479016557721,113.82704840950282L130.10334502262958,111.9933324653166L130.0868291103934,109.69605335884125L130.0898582296677,109.34352813486112L129.9976143355625,91.17693515497467L129.9904742687013,89.89447950297381L129.99581128837508,88.13950354744247L129.98600271167652,87.98370960591228L129.97648262252642,82.84200044626368L129.97381411268998,82.49859527349145L129.97987235123946,82.32607243638404L129.9642940235408,81.36014853091183L129.95145632756703,81.17989918141666L129.93032461453004,71.90723513038847L129.92751186091846,68.44870815373224L129.90710136675716,68.38150030413044L129.88842179789572,66.78955369922005L129.88438297219636,66.65466239112766L129.8724828607592,64.44054079766238L129.88503206918358,63.35303463843684L129.87565622380953,60.65312059157395L129.8682997912856,60.506553950998295L129.8609433587617,59.93264505030493L129.863467624823,59.887843285414874L129.85387541378623,58.34946505656217L129.8421195461242,55.40593841335931L129.80613072426604,54.765431257921136L129.83346491962584,52.82473586209426L129.8451486654003,51.94696939664345L129.8189684202389,51.41497122798728L129.8354122105884,51.3397141196092L129.8256757557756,50.44134157500275L129.82365634292637,47.931810719429905L129.81190047526525,44.78840998053329L129.79473546604095,43.97610596340928L129.81507383831467,41.67070868975179L129.83988376761226,41.07563189423172L129.83743162343853,40.92603426835649L129.84017225516163,40.165544106544075L129.8230793678258,38.56685188629035L129.81817507947653,38.42712025726132L129.81976176100125,37.604050816883046L129.82005024855243,37.45053731375674L129.82091571120145,36.98025272790164L129.8184635670268,36.86799869008519L129.78550386444203,27.803463337158973L129.770502511843,27.341541618965948L129.7932209064038,25.779273806710535L129.77129585260536,23.27127720212411L129.76898795220495,22.340720199473253L129.74511560744486,16.826946287939336L129.76300183554304,14.81580931656299L129.7505968708947,14.617911400864614L129.74634167953172,13.908599784279431L129.74562046065694,13.71878388837149L129.75816966908133,13.260172106675782L129.76365093253116,10.77146335385396L129.75622237811967,10.30525333532205L129.7563666218939,9.7286078558991L129.75182294298247,7.366197222740539L129.75946786305667,6.631131996623026L129.754491452818,6.305014730453877L129.74713502029408,5.610001771746738L129.75968422871847,5.369159051027964L129.76480488273137,4.7869414699039226L129.75232779619364,4.581211995079229L129.76999765863093,4.056693194594573L129.76559822349282,3.7310818111468507L129.77555104396743,1.5036841510491286L129.75694359699355,0.08904543197377279L133.81517008441824,0.12312416474696875L134.07062580992442,0.12169506085911053L134.4412601897584,0.11905671424074171L134.54403387943694,0.117847471616642L134.65171185746658,0.12158512977475766L134.96969725942927,0.1189467831040929L135.47310803413984,0.12774126706699462L135.53570983248574,0.12774126706699462L138.80643743035944,0.12367381998865312L138.89911405578914,0.12488306132809157L139.11944642208528,0.12488306132809157L139.2271244001131,0.12114540541597307L142.14971964705182,0.12565257840196864L142.9840977634749,0.12048581881754217L143.17147042718534,0.1152091231419945L143.4870036849734,0.11883685196517035L143.65223492922178,0.12257450945025994L143.9252162733892,0.12378375103025974L178.3143746684873,0.19084127521909977L179.75508149307643,0.12125533651260412L216.17923106571834,0.13807476767078697L261.8657061617196,0.2345931187737733L262.27622394533773,0.23448318995906448L266.5641586444326,0.20766049262374509L268.02340079410806,0.2028235987932021L275.990705705618,0.18380577026027822L304.529769318493,0.16698647957946378L313.5450773771854,0.11180125448390754L316.69680386069194,0.1502770677393528L333.344122175934,0.12708168125709562L333.39662691003014,0.12323409580039879L333.7163432372927,0.1354364289422847L334.0460845069174,0.13389739743479367L340.5910015532627,0.17688018623675816L355.36567505971107,0.12389368207004736L355.5559325989216,0.12268444051142069L355.8664173245852,0.1126807046639442L356.3371568842613,0.12026595659835948L390.45989702695533,0.14038331301071594L390.43321192858184,0.12279437157667417L390.62859012180434,0.11905671424074171L390.6261379776297,0.14170248134314534L427.9777750234498,0.18006815457511038L427.98318416501206,0.18006815457511038L431.74917276431006,0.16830564149950078L431.7516249084847,0.16324885241056108L466.7585793918597,0.146209637404354L503.3266121300521,0.05298770313220302L582.1765341431856,0.012422474344475631L608.4674142790836,0.019458199527434772L621.6063633771582,4.547473508864641e-13L621.4362999664463,0.38200567662443063L621.4295926309096,0.5157838097306922L621.507989122616,0.8047642002984503L621.476976710992,1.031519039376235L621.2331326093745,1.2883792717311735L621.0107808302291,1.647765537054056L620.93216797286,1.9846000594316138L620.958276096133,2.8074222105751687L620.8728837813387,3.5170729663118436L620.8964676385503,3.748988743033351L620.9931830896812,3.884332494579212L621.357398621527,4.042961661406025L621.4317562875331,4.2033438224129895L621.4751015419188,4.373168033765069L621.4751015419188,4.665569702910034L621.3698035861762,5.514346855831263L621.3822085508255,5.6841304375780055L621.6918278138392,6.02357200716051L621.7661854798453,6.278221742182268L621.7971257695808,6.815593776342666L621.933364015058,7.315256374538421L622.354483716138,7.56984609937399L622.4350438644678,7.777219848217555L622.4412463467934,8.022347676274876L622.3170524565285,8.329592737073199L622.3235434264034,8.634954651265616L622.403093868309,8.89211721656875L622.7684633503559,9.07891745693314L622.8957584817827,9.230811432591054L622.9211453861817,9.527014529730877L622.7953648143912,9.975843116357737L622.7843301656048,10.164252383039184L622.9404740520295,10.576052777210862L623.1462377970511,10.76926900086255L623.7831461855149,11.07625045279201L623.8462528370728,11.240705569424335L623.8372376011366,11.720438715667115L623.7020811839711,12.03559386018469L623.8552680730099,12.501547121853491L623.8462528370728,12.720799096765404L623.7831461855149,13.008588286797476L623.8462528370728,13.214111415817115L624.3868785057302,13.734684374335757L624.5851415744528,13.844341643276948L624.6932522838069,13.967593797085556L624.7293132275545,14.104659221396105L624.6121872822632,14.611442595051813L624.6301456322499,14.775901391822117L624.7473436994278,14.912836988670733L624.9725803540723,15.03606514055491L625.1347824790482,15.268919323385944L625.2101498514812,15.787981946510627L625.4591867289982,16.200237250661303L625.4591867289982,16.556236054535475L625.3600191336927,16.789025739668887L625.3419886618194,16.92602070348812L625.5502766729032,17.34947791337936L625.5895109797002,17.821773888122607L625.5560464239034,17.936609087423676L625.4513254432613,18.05746834828915L625.116752007174,18.25392745174122L625.0626605915531,18.431863148098273L625.0716758274903,18.842605240164175L625.3056392305234,19.300203008207518L625.141129205148,19.997426727387847L625.2433259197269,20.283410723804536L625.3562687955437,20.471247335050975L625.5726344580262,20.692042972235413L625.9727666898452,20.813170140740112L626.1799728726182,20.963753988962708L626.2340642882391,21.11422419686096L626.2340642882391,21.237313207796433L626.1585526720319,21.440557350493236L626.1585526720319,21.602731144050267L626.3188075060452,22.071267143605382L626.3306354955939,22.557718292325262L626.3721777027895,22.792005296072603L626.4968043243807,22.918122012702952L626.7224737103506,22.98741928835534L626.795244694832,23.110137911121456L626.7444708860367,23.366732487361332L626.7439660328237,23.758169382228516L626.797119863907,23.86587531225541L627.0099515539032,24.00039530176946L627.0719763771494,24.094524499058934L627.0276214163396,24.457782406827846L626.9567256009323,24.56547462161552L626.9301126244472,24.69997748206879L626.9567256009323,24.80766494957652L627.0276214163396,24.942161881117954L627.120153797996,25.01701472774903L627.4886966430913,25.735834665025322L627.4886966430913,25.9913219163318L627.2138401298498,26.677303863406905L627.2315821141738,26.86557834960604L627.3024779295811,26.973113991189166L627.7989650030931,27.38999982834821L628.0649505241727,27.860558234793643L628.0560795320107,28.78821253249589L628.1004344928187,28.94951347201095L628.3640399916121,29.17849799930491L628.3996682040342,29.313653444617557L628.3818540978236,29.705541711432943L628.3105255510909,29.921702498706054L628.3462258854006,30.07039694310606L628.444239530505,30.205530464898402L629.0090260314746,30.650048214122762L629.1583183385874,30.8615805637819L629.380093142634,31.470770131437348L629.7456068684551,31.934749568013103L629.6921645498214,32.40754205464782L629.5406364641958,32.59660395693027L629.5940787828304,32.8937349352268L630.288684681288,33.88685988456564L631.0068744369582,34.318407426708745L631.0871460977387,34.45343661570041L631.1049602039511,34.574916355024925L631.0782029836901,34.70993924862705L630.9088607918538,34.993410998773015L630.8642894653822,35.18249328310458L630.9265306542884,36.083248439067575L630.9122505205651,36.46013035927308L630.8019040326981,36.586261545583056L630.7216323719167,36.80226131309337L630.8642894653822,37.11259598718789L630.8731604575441,37.476960284366214L630.7838014389381,37.73026497062028L630.583591079253,37.935302209654765L630.4866592624603,38.13006959527684L630.3493391886705,38.66542605025643L630.1066490372523,39.01506081652178L630.0531345967311,39.19047020658536L630.2168512813441,39.63033351803324L630.3160188766487,40.120581434095584L630.3023157180241,40.310251574460835L630.2266598580427,40.44175091482339L630.0792427200049,40.57128287931482L629.8279700639732,40.61984294001195L629.4113940418065,40.48540145388233L629.0904516424553,40.633701575416126L629.0458803159836,40.70113916167429L629.0458803159836,40.9303989539485L629.1693529873746,41.10367417704174L629.1795942953995,41.33499028441156L629.1261519767659,41.52374575758677L629.0637665440818,41.591172444993845L628.7428241447333,41.56422369000302L628.653681491789,41.79344755413422L628.6982528182616,42.06313614351393L628.644810499628,42.34622949668983L628.5378537404731,42.413646115323445L628.3060539940661,42.427172975005305L628.2080403489608,42.53495031528337L628.1545259084405,42.85859691964106L628.2169834630113,43.07424168339139L628.1545259084405,43.41127197780861L627.9673696103928,43.86955646536853L627.8247846388149,44.044811302248036L627.762327084246,44.19301561547991L627.7445129780344,44.46258674975115L627.866687455451,44.68056767775033L627.9137109260955,44.87411530020154L627.8177888157288,45.646820500195645L627.7644907408712,45.79672606034546L627.6730401875275,45.895497967943356L627.4201087280844,45.9417217403975L627.3255569335797,46.106554300640255L627.3345000476293,46.38943996074477L627.3880144881487,46.5915389727561L627.3790713741,46.92835419074436L627.3345000476293,47.15735498307549L627.1886695911153,47.40214968675991L626.7729590315967,47.58840872040719L626.6838163786542,47.79046377264649L626.6748732646047,48.221468002638176L626.7105735989153,48.36956003340174L626.8442875783285,48.544671819117866L627.0225007623276,48.66584112394821L627.1473437495815,48.89476974420404L627.1294575214824,49.069864847496774L627.0582010966373,49.19102260941145L626.8891473923504,49.19548970621008L626.5233451789782,49.40652866683513L626.4342025260357,49.52767903044196L626.3896311995641,49.675735976958094L626.3616479072161,49.992754036692986L626.6074392997971,50.2668346843152L627.0225007623276,50.510511005149965L627.2721146149452,50.75286948492612L627.3880144881487,51.03551681812269L627.3701282600505,51.25084188475057L627.1651578557912,51.58737257038047L627.0849583168983,52.13917310600618L627.4414568067832,54.399813635539886L627.4771571410929,54.60151042587768L627.5751707861973,54.80330868578176L628.002997822814,55.11274011741716L628.1099545819689,55.3817778955804L628.0802403643211,56.25801874916442L628.0070366485143,56.43081286551569L627.7489845350601,56.62579821743702L627.6687849961654,56.77366477012765L627.695470094538,57.05611260402429L627.829184073953,57.16360436135619L627.927269840945,57.35192748452209L627.8826985144733,57.526645560310044L627.7579276491088,57.634236941372365L627.7311704288477,58.1182090389766L627.8024989755795,58.440833531761655L627.9005126206848,58.68284391124507L628.444239530505,58.992057915386795L628.5511962896599,59.1264839277369L628.5601394037094,59.50277235023168L628.4888108569767,59.959721668860766L628.2391970043591,60.30909600535506L628.194697799775,60.470455338597276L628.194697799775,60.83317042751696L628.2213828981467,60.913843026834456L628.3818540978236,61.048222260321836L628.444239530505,61.316970917861454L628.3907972118723,61.69311010252113L628.3016545589289,61.88127879199419L628.0787979265715,62.16335675959908L628.0876689187335,62.32455322958822L628.1857546857264,62.59323978878774L628.3453604227516,62.759749332875344L628.3453604227516,62.993962813218786L628.2464813149954,63.24946698234453L627.8790202982118,63.419868978543946L627.8225488603039,63.52625888602233L627.8508206402021,63.82444398954976L628.1475300853526,63.90952811389161L628.3453604227516,64.35666005205894L628.3877680925971,64.91011906842914L628.3312966546891,65.18693642663493L628.020379197701,65.71902127031944L627.7518694105593,65.95310933681594L627.6529181809165,66.12342797165638L627.6247185229067,66.27234385433803L627.6529181809165,66.84700640477831L627.7660053005084,67.14490376821914L627.9638356379055,67.3789314487226L628.020379197701,67.57049011950085L628.020379197701,67.76193356416616L627.8790202982118,68.44273656850692L627.7235976306611,68.76182733130736L627.5681749631103,68.86822301488974L627.4974955133657,69.03834328712583L627.4692237334675,69.2298444651824L627.4692237334675,69.9955657676569L627.7495615101589,70.58188853249248L628.0387702790122,70.69888515350249L628.1851055887382,70.85321271723069L628.2089058116117,71.00525697013018L628.1375772648789,71.34514377997175L628.179191593963,71.6582074972016L628.6250491024539,72.03386056780346L628.6666634315388,72.18587236671874L628.6072349962433,72.64199119081468L628.3991633508213,73.09807240689906L628.4050773455956,73.38413460801894L628.4787137927269,73.4741700862478L628.6607494367645,73.4646242254712L628.9103632893821,73.58980386421672L628.9341635122555,73.70608605160305L628.9222634008183,73.96532578660072L628.7617922011432,74.26934753904061L628.6590906333522,74.37487811939218L628.6268521496413,74.50708676655586L628.5730492215716,74.81454913162497L628.610696846843,75.1139696032601L628.6806550777128,75.23531649535789L628.9550788596289,75.38897536344984L629.0250370904978,75.50229197861245L629.0250370904978,76.09280206722951L629.3048700139761,76.34358172602924L629.3210253167754,76.40028476023281L629.2887147111787,76.57006513249053L629.2295026415459,76.6429194806924L628.9443326983919,76.65907306788404L628.8474730034868,76.74807957188159L628.8151623978893,76.95026320566967L628.8313177006876,77.26571996847133L628.948587889754,77.3800821551381L629.0847540133436,77.37704698070593L629.3146785906765,77.57205355632777L629.6344670398257,78.28394809384281L629.707238024308,78.52693376771822L629.7178399417699,78.69870801682919L629.1762045666865,79.61016030415612L629.0847540133436,79.69662723830743L628.7290488642211,79.82090754668025L628.6161059884053,80.00683521485371L628.610696846843,80.17650501642174L628.6806550777128,80.25743763062792L628.853747607699,80.30727506429366L628.9550788596289,80.51604569954543L628.9550788596289,80.73434181229231L628.7936700754153,80.96064567058966L628.7829239141793,81.06572378215378L628.8044162366532,81.21922090397993L628.9227682540313,81.43748930176162L628.9457030142548,81.5523069417186L628.895866789996,81.75258220348042L628.7936700754153,81.86576864280369L628.5015764310647,81.92598938456467L628.1698878704774,82.31989920327851L628.117094648831,82.45473404463519L628.1276965662928,82.73219107908108L628.3441343506638,83.10481935238568L628.3336045550886,83.25555287612724L628.0431697141485,83.43779202612177L627.9375832708565,83.57259966107722L627.9692447794669,83.85801287334834L628.077716098258,84.05777172022908L628.2945866139553,84.18801710572643L628.3162953020901,84.2856720696418L628.2945866139553,84.4920193591156L628.1946256778865,84.60569113097972L628.1611611220897,84.82458391698538L628.2067421549855,84.97516241078347L628.3441343506638,85.06273637466666L628.3741370558619,85.25195203074736L628.3758679811608,85.45902102827313L628.2150361720478,85.67528242662775L628.2439570489332,85.96838000120897L628.4339261005944,86.19598533497265L628.4075294897712,86.51286392857037L628.1910195835126,86.6554966723379L628.117094648831,86.82193297258527L628.0906980380068,87.01996185150938L628.1717630395515,87.5861988374254L627.9390978304946,88.01735714035613L627.9185430925581,88.13463505304026L627.5784883930219,88.83392342953312L627.5943552082717,88.99228961182644L627.6946767537765,89.14275492915021L627.8161300123165,89.19824542102697L627.8953198447853,89.30122045684675L627.9217164556085,89.58623067353983L627.9111866600333,89.72878436732617L627.8583934383887,89.85554375424681L627.6498890616422,90.1327386990979L627.5468268844124,90.40981164419281L627.5415619866262,90.72644948859761L627.722083071023,91.38237734270524L627.8873864371608,91.62976288879554L628.0537716316094,91.7477212550757L628.1065648532567,91.89021940045632L628.1065648532567,92.15931251502298L628.0643014271845,92.39671769835286L628.0067481609649,92.6360585406951L627.8636583361749,92.94284077941302L627.8741881317492,93.27522310566883L627.9269813533947,93.42557227690031L628.4391909983806,93.61547550739078L628.6081725807808,93.86081610208339L628.5674958362333,94.06853652985137L628.5923057655309,94.26436157041826L628.7886936651794,94.5557087742668L628.873364761097,95.19843404166022L628.9755614756768,95.51263779701185L629.3560765540979,96.30692779810124L629.419832302644,96.51628509540205L629.4277657102675,96.69149963227574L629.39545510467,96.80859430360806L629.2443597503689,97.10931321167209L629.2060630281085,97.27057565676114L629.2393112182444,97.41703634976102L629.4868335361252,97.5538807177204L629.9613234339513,97.46671977789129L630.0856615679913,97.49642161494194L630.225217420294,97.62494773267872L630.3050563497491,98.15403358030517L630.5615217816794,98.3671008607821L630.6280181619495,98.5471163616644L630.6331388159615,98.72712602615184L630.5180322835213,98.91468837617958L630.507863097384,99.06780020880296L630.5359906335061,99.1673530281405L630.7567557311277,99.30966079202744L630.9274682388259,99.65926028348849L630.9539369715376,100.06713452676058L630.8572936422943,100.5695408686147L630.6133052969017,100.87977081958115L630.5741431119914,101.03995236133596L630.5895771959149,101.11183826303477L630.6927836169189,101.19376115181649L631.0735871828892,101.25733420781216L631.8514938614062,102.64496677123407L632.1465445031454,102.9069571013938L632.6697166750291,103.23809606511304L632.7869868640955,103.40133847688821L632.9137771423111,103.74053936056043L633.0469141466265,104.42049709071307L633.1695213553667,105.93815432789279L633.1496157144175,106.09204326480949L632.9387313153838,106.61741193356556L632.9150753362856,106.86411965866455L633.0293885279643,107.10014228196951L633.128195513832,107.18014402185918L633.4424305776456,107.23599361068773L633.560566229361,107.30812284785407L633.5805439921969,107.50326601823053L633.4075235840974,107.70185220129588L633.3100869140926,107.8936396153058L633.4884443418659,109.08475112885208L633.6349960172556,109.36066454602633L634.1623512586148,109.68656963431931L634.2627449260071,109.82796166846492L634.296209481804,109.97452278751462L634.2638988762064,110.22280575181094L634.0515720394224,111.01930544609786L633.8588623560381,111.57695974803573L633.8444379785387,111.72778399582285L634.0031061310274,112.10482672579656L633.9525486878929,112.26640864472756L633.6856977041634,112.60032973954958L633.6640611379162,112.7511262454259L633.6929098929131,112.84806469810246L633.8660024228993,113.00962503269238L634.2266118603729,113.26821951087186L634.3420068803634,113.53746379720178L634.3347946916138,113.79592605571816L634.1472777841282,114.22666981039356L634.1184290291303,114.4097258102588L634.1905509166254,114.71121668430351L634.4429775228555,115.02345787216245L634.8829210365711,115.27108497939707L635.3012279840395,115.33568154329487L635.5248058352727,115.45410662997028L635.5608667790184,115.75554093563824L635.4310473815303,116.11078184000598L635.5464424015208,116.44447234205018L635.9863859152365,116.72443400589964L636.8446363764206,117.56391168123992L636.8229998101715,117.74685796508675L636.4119050514537,117.98360305644701L636.8806973201681,118.28490043295687L637.0177289064068,118.58618150686925L637.0393654726549,118.91972368261258L636.8806973201681,119.08110788609292L636.6570473470474,119.00579583982744L636.4262573070646,118.77985358962678L636.3252866645726,118.81213161521919L636.3829841745683,119.12414288381251L636.6642595357962,119.45765284066601L636.6714717245459,119.64053691846175L636.3974085520676,119.89871598118816L636.3252866645726,120.2321795582352L636.7580179895385,120.65166989630143L636.743593612041,120.79149298865059L636.3252866645726,121.10339339360053L636.2964379095747,121.38301339271038L636.4406816845649,121.61960396822724L636.7291692345416,121.81317060213951L636.8301398770336,122.00673051076592L636.7580179895385,122.17877811749167L636.4550339401749,122.38307775006706L636.4550339401749,122.49060086352165L636.5920655264154,122.64112973639203L636.8733408876424,122.74864787004617L637.7388035375761,122.89927728584553L637.9479570113099,123.06054623656519L638.0128667100562,123.20030888510928L637.8830473125654,123.36156912367323L637.702670471941,123.42607191240631L637.7243070381901,123.56582539328701L637.9982259668932,123.85725387712455L638.0994129750488,123.89498474280072L638.2589465901865,124.11351775207959L638.354724456779,124.59473312913633L638.3873235499268,125.67019657048922L638.2772655496101,125.80290901310218L638.2480561851753,125.95753920164816L638.6326100892948,126.3672508519544L639.085391298986,126.39647644378192L639.4431158609577,127.1719731252656L639.403665188498,127.57515010176576L639.4461449802311,127.67000471701976L639.6160641471697,127.8044956976978L639.6160641471697,128.09709905321506L639.5576454182983,128.1366272573482L639.5151656265643,128.24726177382354L639.5393264588747,128.75733369441468L639.7156644737988,129.19154009343083L639.6472929244546,129.3780784418409L639.4992266894278,129.5439924556499L639.4832877522922,129.70990153403272L639.5257675440253,129.83639717890674L639.8433202146653,130.2734186288185L639.8496669407641,130.48461549478452L639.9186875870955,130.61893125322922L640.0301880251618,130.66638656735358L640.1662820268639,130.62655419289558L640.5723282534573,130.72940917718597L640.7558784571311,131.01885310971602L641.1643047060124,131.29582916145682L641.2107512015582,131.4086553864813L641.2059190350965,131.49700392027353L640.8978864536075,131.65158365155912L640.7560227009062,131.80369022027207L640.6241117686786,132.05626169269271L640.6265639128533,132.21329462970562L640.692627561798,132.26470773414485L640.8710571114598,132.2328295185107L641.2623183511168,132.60784319052527L641.2526540181925,132.99528075938997L641.7611133250284,133.0983067208167L642.5116136862962,133.83134591298358L642.6753303709083,134.2456298258603L642.5652723705925,134.47362844303234L642.6068145777881,134.71138084565746L642.7729834065758,134.91726023623687L642.9800453455728,135.07517820766225L642.9826417335225,135.23491541478688L642.8700594671427,135.32052151956032L642.8517405077209,135.48797527968145L642.8726558550934,135.54633082296368L643.2420641628396,135.76955660027443L643.2814427134108,136.015620228206L643.2813705915241,136.35380594000117L643.2227354969909,136.5571579896564L642.956461488362,136.88308498715787L642.9344643126751,137.0153164778062L642.9710301096356,137.18443523979204L643.1322225281865,137.48330286062264L643.5278110810932,138.05171844318693L643.9575132867849,138.51490058234413L643.9989833720947,138.60796124791614L643.9329918450358,138.75248095872348L643.6438551980718,139.04258119707538L643.639239397271,139.21496178470943L643.8666397085417,139.39441204292416L643.9084704032884,139.62895362851305L643.8716882406661,139.83743868028432L643.8862568619397,140.0529901073901L644.2193878602775,140.3118337636488L644.2658343558232,140.41526069079373L644.2983613270826,140.649866591104L644.2379953072505,140.78779611440586L644.2379953072505,140.9118976235609L644.3447357007417,141.00845483564262L644.4107993496864,140.97866266631354L644.5059281192916,141.1109043924762L644.6327183975072,141.45371095417568L644.7888622839328,141.68880901606508L644.8132394819058,141.811283257804L644.6056726896968,142.10497476705632L644.6226213332584,142.2885107291222L644.6933729048906,142.3742230655257L644.8154031385311,142.3987579797872L644.9569784036821,142.31808163372898L645.1230029886947,142.06843828396222L645.2132995918373,142.06361673609217L645.318236938142,142.15426113994454L645.3840120995374,142.2937606475234L645.5735484198713,143.87012019384338L645.6783415224027,143.99736652365118L645.9198777236206,144.0416021533183L646.0782573885581,144.31086427024093L646.0853974554202,144.5310626291157L646.2657742960437,144.7686015216941L646.3777795873239,145.0819489304813L646.3678988887359,145.28498353332589L646.231083668159,145.5734598916206L646.2770253104927,146.19490775170743L646.5718595865701,146.50335751106377L646.6083532616431,146.6257263040916L646.5736626337575,147.4083735910217L646.4540845442925,147.51102703622655L646.1907675330494,147.62074318163013L646.1614139248395,147.75775154087023L646.6071271895553,148.28873425834627L646.8160642976263,149.67059425396883L647.0425991462462,149.81985708122147L647.4381155772662,149.9417253538595L647.4576606087776,149.9929755727967L647.4284512443419,150.07118742363627L647.2068206840713,150.29137305479298L647.2361742922812,150.41119832840923L648.2037615349072,150.56942794961287L648.4304406273022,150.7208063938574L648.5523987390552,150.9358316305429L648.5963209685397,151.19492071430568L648.4455141017888,151.62268027466826L648.5381907272185,151.77659725749618L648.6703901469964,151.89232634917698L648.7395550371039,152.09735990777745L648.7187839335047,152.21019468133454L648.6219963604872,152.27169134884753L648.6012973787765,152.43564350944007L648.8017241041234,152.78417294645942L648.8501178906317,153.0199714400178L648.707316553393,154.06581317113842L648.4837387021607,154.46502275919738L648.5182850862702,154.72127593610458L648.6496190433973,154.86473838356733L648.6773138481958,155.03887675760643L648.4629675985616,155.30525843690657L648.3109346597239,155.35645956270628L648.2832398549263,155.4692286581685L648.3178583609233,155.66387025568247L648.4214975132527,155.7150681021376L648.4491923180503,155.79704781239934L648.4077222327414,155.97126407135738L648.2832398549263,156.1761482816387L648.2901635561248,156.29905383480946L648.3662521474316,156.51418549635946L648.5761268400411,156.72578234679986L648.6725538036208,156.9503013730241L648.631227962087,157.16466002063635L648.4934751569717,157.32793468189857L648.4659245959483,157.41982801295626L648.4796998764605,157.54227887595925L648.6243763827742,157.71579977216288L648.6381516632864,157.78717257052176L648.6106011022639,157.98109257211763L648.4590008947489,158.2566290598711L648.4796998764605,158.45053280890716L648.5761268400411,158.5729611404663L648.6036774010636,158.71579081204118L648.184360747171,159.40339473834592L648.0505746458684,159.4547720375367L647.8803669913814,159.6034537912151L647.7632410460901,159.78705749456367L647.7632410460901,159.89931019795267L647.966047793725,160.38941482692962L647.9881170912977,160.71384926534392L648.1195952922008,160.86260439704392L648.3336530542847,160.96736066633184L648.6401710761356,161.02331530235415L648.6932527853314,161.08257962242988L648.7139517670421,161.33756922246585L648.8172303099345,161.48032843365309L648.844780870957,161.5925472201634L648.8172303099345,161.71490691355984L648.7232554905286,161.828402216403L648.7063789688564,162.14303804128986L648.7041431903435,162.41623480134194L648.8103787306227,162.62248472906458L648.8241540111339,162.8671564779611L648.4383740349267,163.25463831285242L648.3694976323686,163.3565746758668L648.3281717908349,163.52991560649116L648.3281717908349,163.63184696376675L648.5210257179951,163.80517938260118L648.5348009985064,163.91724490412753L648.5003988581711,164.10081406088375L648.3694976323686,164.19248966244731L648.3281717908349,164.2740252591925L648.3281717908349,164.42695466612577L648.3557223518583,164.518731651267L648.5830505412405,164.73280096589042L648.6036774010636,164.8754737316708L648.5210257179951,165.15067145153898L648.2868459493002,165.45637157798228L648.2316727053667,165.66026909829952L648.2542468561533,166.09354004925672L648.4521493154389,166.48559953618587L648.4038997727039,166.80146752843302L648.2523716870783,166.96456835157642L648.2248211260558,167.10718434717592L648.2454479858789,167.24979671641995L648.3557223518583,167.41277784117528L648.3487986506589,167.5351172360629L648.2770373726016,167.7264605118985L648.2555450501277,168.355159598912L648.4038997727039,168.78800915777674L648.4038997727039,168.9102119307713L648.2385964065661,169.2565452927065L648.2178974248554,169.41946812518563L648.3281717908349,169.66384350355702L648.1627963028104,169.99989557682284L648.1490210222992,170.1323065070169L648.1765715833217,170.2748419952709L648.3143965103236,170.43784186682888L648.2523716870783,170.66181238484614L648.0112682171839,170.84505434178755L647.9148412536042,170.98757172726164L647.9148412536042,171.14031820508126L647.9630186744507,171.2217528695919L648.1333705727129,171.3246104101254L648.1431791494115,171.4049765444106L648.0728603091038,171.60716582696296L648.0899531964405,171.69477536802924L648.3596169337825,172.12321109113918L648.7035662152439,172.27539381976294L648.751815757977,172.4077510734155L648.7458296413151,172.59296073495807L649.0824946121384,172.88610807057603L649.2960475210093,173.17114214532012L649.3098228015215,173.24231848966429L649.2409463989643,173.6290843460829L649.2684969599877,173.84280633398794L649.5371509909037,174.02594447584397L649.6128789727727,174.1480332517126L649.6198026739721,174.30069375362336L649.5853284117502,174.91118773888593L649.2615732587874,175.1858937045713L649.1651462952086,175.68435644852934L649.0204697888948,175.8470928237266L648.7503733202275,175.8886281850373L648.6726259255083,176.05561853745257L648.7966034501114,176.21845064943273L649.0222007141938,176.35806291300287L649.0445584993167,176.4625302315253L648.9756820967596,176.60490508946123L648.7828281695993,176.70670569201047L648.769052889088,176.81851385113805L648.982605797959,177.09312654035193L648.9963810784711,177.4999630810621L649.0790327615396,177.69320277800534L649.1686081458065,177.82532592908683L649.3546104936568,177.90666369672L649.4165631950136,178.07955577232906L649.2925856704114,178.60831273941676L649.375237353479,178.95404839004686L649.6223269400343,179.51028899663334L649.9091556866006,179.75209705569932L649.9642568086465,180.04689298150834L649.7713307595986,180.42297479264562L649.7851060401099,180.56524932366847L649.9504815281352,180.7075202529918L650.0124342294921,180.8294638973789L650.0124342294921,181.07344965123457L649.9091556866006,181.3173184163188L649.9642568086465,181.63235310768187L649.9504815281352,181.73395627557056L649.8816051255772,181.86609084189922L649.5784768324384,181.99822230222935L649.5233757103924,182.06928689178403L649.4820498688587,182.54682188657398L649.5922521129496,182.63830313219705L649.8777105436529,182.65606734101402L649.972190216271,182.7143590810124L650.1778097175165,183.1157897965836L650.1778097175165,183.39009493716276L649.381728323353,184.60989406692852L649.36975609003,184.93303800936474L649.5589318009279,185.56459842324057L649.6487235508584,186.31514870944466L649.6391313398217,186.4730066664638L649.5026767286818,186.70101589485148L649.4338003261246,187.00554527423083L649.4820498688587,187.10705140401024L649.6818274972184,187.18825498914111L649.7369286192634,187.29996114711776L649.674903796019,187.48266130045522L649.516452009193,187.55376289765354L649.4751261676593,187.6958571192872L649.4820498688587,187.81764931007956L649.5715531312389,187.85824612112674L649.6128789727727,187.99023686976125L649.5922521129496,188.20341345604083L649.5440025702164,188.3150994601233L649.6611285155077,188.5281574773776L649.674903796019,188.5992458637188L649.6267263751724,188.771809451031L649.654276936195,188.85298901271153L649.9986589489808,189.13710825624275L650.0469084917149,189.38073386468022L650.0331332112028,189.56336646840873L649.8609061438674,189.79677484487138L649.7920297413093,189.9388124371162L649.7920297413093,190.05046400401943L649.833355582844,190.15191521974702L650.1733381604927,190.5011908645688L650.1915849980287,190.64905285553823L650.1433354552955,190.7707811483997L649.9504815281352,190.88241621273528L649.8402792840434,191.11576989534478L649.8539824426671,191.38639282052827L649.9780320891568,191.602733109135L649.9780320891568,191.67367646962293L649.7507038997746,191.83605693413938L649.7162296375518,191.9577595614578L649.7851060401099,192.1505031040415L649.9573331074462,192.26200461991857L649.9780320891568,192.4446499507726L649.9160072659124,192.7793427611673L650.1295601747834,193.1342950276735L650.1433354552955,193.2762484349073L650.1227085954715,193.38783382921793L649.991807369669,193.60069992830586L650.0124342294921,193.70219335002457L650.1364838759828,193.80357878072482L650.2329108395625,193.975982903165L650.1846612968293,194.07736340480324L649.833355582844,194.37140961476962L649.7644791802868,194.53360615253814L649.7507038997746,194.71607167418324L649.7920297413093,194.87825828643008L649.8953804060893,195.0202738799503L650.1640344370062,195.1722626857777L650.2949356628078,195.36489623568968L650.3017872421206,195.46625173942948L650.20536027854,195.7298736396615L650.2122118578518,195.82103470286893L650.2811603822965,196.02383359264377L650.3568883641656,196.12517724072222L650.5084885716797,196.19616976794987L650.6049155352603,196.31777820656453L650.6255423950824,196.44946466342753L650.6049155352603,196.60152102160464L650.4257647667228,196.9056214263619L650.3982142056993,197.00694921326522L650.4119894862115,197.1488050534158L650.7358167610619,197.43261211281379L650.7977694624205,197.58453584910558L650.7839941819084,197.98989331437315L650.9562212492447,198.2026916589084L650.9355943894216,198.44581931351604L650.7977694624205,198.61808142478867L650.756443620885,198.75989671101297L650.7702189013971,198.84093241517667L650.9117941665481,198.98422699292223L650.9335749765714,199.06419884450634L650.9118662884357,199.13685133333502L650.5291154315028,199.3779236120281L650.2949356628078,199.70202389649694L650.30871094332,199.85399251361378L650.3775873458771,199.95526730013307L650.3775873458771,200.13755733049538L650.2122118578518,200.46171997677993L650.2742366810971,200.64399363003622L650.4869962492057,200.87906386326495L650.5566659925253,201.22131368712598L650.5566659925253,201.41363455036617L650.4740143094568,201.75797216582214L650.5566659925253,201.97062830434425L650.7842105475702,202.21613757984733L650.7603382028092,202.45146027113515L650.7146850480258,202.62254006248986L650.6229460071336,202.67574969524458L650.5498144132134,202.82106667205244L650.5773649742368,202.96277626608253L651.0212751917643,203.43133588970613L651.0623846676363,203.64445881567144L650.9489369386083,203.85990508429086L650.9127317510856,204.0778863661576L650.9923543148798,204.20133824117192L651.1904731398272,204.33941039901993L651.252425841184,204.46094924816816L651.2386505606737,204.6531596584682L651.1077493348703,205.00747083531178L651.1146730360697,205.16936159709348L651.2110999996503,205.32118293937447L651.2248752801615,205.80681428177286L651.1008977555575,206.00925426931735L651.0664234933356,206.1811795435392L651.176697859315,206.4139006048449L651.0601488891234,206.83271077738618L651.0914497882959,206.99243089961055L651.1735244962656,207.0940012250985L651.1446036193793,207.4086563947908L650.9906955114675,207.6076500521358L651.0457966335134,207.8707048734791L651.01824607249,207.94144377201837L650.8390953039534,208.09319054368325L650.8115447429309,208.20448303521152L650.8552506067517,208.7079720695706L650.9769202309553,208.87198014480146L651.0113223712906,209.02359602421893L650.9493696699328,209.11464829616307L650.8115447429309,209.17531370389224L650.7839941819084,209.3674694616384L650.9218191089094,209.77198094720006L651.1559988776044,210.08542830213037L651.1904731398272,210.70210978102023L651.0457966335134,211.29861568777233L651.0664234933356,211.50075296747627L651.1973247191381,211.70288301124947L651.2110999996503,211.9253235239753L651.1904731398272,212.06680467640763L651.0044707919787,212.20828228425398L650.9906955114675,212.34975634777174L651.01824607249,212.51143665211748L651.2110999996503,212.74389688351812L651.252425841184,212.87530621748192L651.1491472982925,213.04712830234757L650.6484771553069,213.22793789361094L650.4219423066861,213.40440416604542L650.1667029468426,213.98708456920713L650.2197125341527,214.07647012675488L650.1330941472706,214.61317685520999L650.0606837722271,214.7446484774173L650.0538321929143,214.86585773697698L650.0813827539369,214.97691105843342L650.2561340873362,215.2220667574784L650.5669073005502,215.51205169785135L650.6600166573044,215.48201747884423L650.8776805137632,215.68612011890764L650.8770314167759,215.89116710872213L650.7846432788947,216.08711274576126L650.7754116772967,216.3899532942678L650.9219633526845,216.7249200245128L651.1146730360697,218.07642752844458L650.9596830998453,218.7387427273925L650.9734583803556,218.92042718878383L651.1389059902676,219.12324314251055L651.8416616620143,219.49873466237023L652.3512027971619,219.28388427838854L652.4545534619419,219.28388427838854L652.5992299682557,219.47569649751222L652.6405558097895,219.65735727652645L652.5559568357594,219.9924474482923L652.5778818895569,220.5114757057936L652.6390412501523,220.6517911250903L652.595768117656,221.24693070178L652.7128940629464,221.3478224679584L653.0641997769326,221.38817867043508L653.1583188401128,221.55234726890149L653.2665016713545,222.27066089464506L653.1583188401128,222.6297834995412L653.1537751611995,222.95202381577565L653.1951010027342,223.09322920863042L653.2432784235807,223.143711657518L653.4982292958739,223.1940880454763L653.6222068204761,223.5269622509477L653.7668833267908,223.55727057274134L653.9732961687996,223.26357926576293L654.3411899169096,222.9889889189003L655.1994403780927,222.54539173695866L655.3076232093345,222.58764058650786L655.413281774513,222.71998306518617L655.413281774513,222.86119425063407L655.2893042499109,223.15374472653684L655.2893042499109,223.2547080936847L655.309931109734,223.3655967447403L655.468382896559,223.5269622509477L655.3650322317799,223.72876826149786L655.3374816707565,223.9002607514617L655.3719559329793,224.04144247745398L655.4821581770711,224.18262068035165L655.4890818782706,224.32379536041026L655.2272794266655,224.46496651788493L655.1478011066465,224.92731171537662L655.1778038118437,225.24868219196242L655.0263478481056,225.71318019100363L654.8964563287282,225.7026238417111L654.6800906662447,225.5337195748425L654.4565128150125,225.87152306737562L654.2401471525291,226.70538911370295L654.4565128150125,227.85571149944462L654.5791200237536,227.92957742637327L654.7305759874916,227.85571149944462L654.8531831962318,227.85571149944462L654.903668517477,227.9717860947335L654.8243344412349,228.40440680148413L654.7305759874916,228.61542929636244L654.622393156249,228.625980214636L654.3122690400232,228.44661192971898L653.966083980049,228.34109851917583L653.8939620925557,228.42550940493402L653.966083980049,228.6681836911048L654.0454180562938,228.78424162925285L654.0422446932444,229.1286031814966L653.9372352250521,229.7126195011415L653.7841204579017,229.98403577423505L653.7841204579017,230.19552680572178L653.8943227019936,230.41724109223878L653.9149495618176,230.55826036320195L653.9080979825048,230.69927612272568L653.8529968604589,230.84028837105507L653.8460731592595,231.1626943598144L653.928724842327,231.28355232675312L654.0596260681305,231.34398034313017L654.1422777511998,231.44469227109903L654.1422777511998,231.565649675209L654.0114486472839,231.8073458348881L653.976974385062,232.00875142340283L654.0389992083074,232.19011577314768L654.0389992083074,232.35122992963124L653.9631991045499,232.45192395050935L653.7496461956789,232.4922010577052L653.715171933457,232.55261618156055L653.7013966529448,232.6935822982914L653.7564977749917,232.84466624622564L653.7358709151677,233.00576178835854L653.6049696893651,233.20723019827028L653.3156166767376,233.29778849442982L653.2949898169145,233.38845076353346L653.4672168842517,233.73074046156216L653.4396663232292,233.86166317556354L653.3156166767376,233.90193026190582L653.1582467182252,233.85670882841805L652.6965945163729,234.4364434513982L652.5379263638852,234.72101874430928L652.5973547991807,235.16661386521628L652.5235019863867,235.37064005065486L652.4042845063577,235.47981633556583L652.3659877840983,235.5791902182691L652.4451776165679,235.69721419923053L652.8027579347645,235.87551005242494L652.8555511564109,235.9718212002399L652.7664085034667,237.68101915153238L652.8238896478006,237.85914728283524L653.0469626458207,238.08888322644816L653.164088591112,238.3001773023052L653.1916391521354,238.511463504522L653.0814369080435,238.83332805018472L653.0952121885548,239.01436882878124L653.1227627495773,239.0748197852604L653.3570146401589,239.15527964055127L653.4051920610063,239.29608164037245L653.3363156584492,239.59778843989443L653.3707899206711,239.81913519290674L653.6325202503886,240.0805912320502L653.6807697931226,240.21136737866118L653.6807697931226,240.27170028489354L653.584342829542,240.36225108630424L653.5911944088539,240.54324306488388L653.7289472139673,240.73433652991343L653.660070811412,240.86499232284496L653.5498685673192,240.9052096968494L653.4534416037395,241.16672095360445L653.4534416037395,241.3476872651454L653.7289472139673,241.72981356437367L653.7427224944795,242.0213912502386L653.662450833699,242.19864631696555L653.6118933905645,242.45367759050396L653.660070811412,242.7854221251714L653.9042034005806,243.01169613441243L653.8752825236943,243.4060228080216L653.6832940591848,243.8484106174301L653.8805474214823,244.15240070708978L653.9976733667718,244.25288536973176L654.0458507876192,244.43385849441938L653.9991879264098,244.90878028650832L653.6492525282865,245.16337418952025L653.5459018635074,245.96863633225212L653.183849988286,246.9250194310698L653.2053423107591,247.00673522712304L653.4292807714291,247.27217198899552L653.5120045763852,247.75432232036428L653.4982292958739,248.07566303329077L653.4292807714291,248.24642046349663L653.4913055946745,248.55774514964696L653.6263898899515,248.61914590966762L653.6886310788595,248.71040471683864L653.6789667459343,248.89060501322865L653.4034611357065,249.2243915082513L653.4292807714291,249.44136849188044L653.3466290883607,249.59200703628358L653.0573481976198,249.69239547382995L653.0297976365973,249.75262768473021L653.0021749536872,249.95350222140178L653.0848987586432,250.2446578302406L652.9883996731751,250.55587301064224L652.6679621270378,250.96554535279165L652.6343533274658,251.7266923613156L652.7826359281544,252.2213884974999L653.2228679294203,252.66802806724627L653.3135972638884,253.45310823796854L653.3015529086761,253.72202552449744L653.2329649936701,253.95301111348954L653.1916391521354,254.34426815001098L653.2742908352038,254.51483728463836L653.6462955308998,254.73549825739428L653.6945450736348,254.81573648747553L653.715171933457,254.95615066498613L653.6669945126105,255.15684134784806L653.7083203541451,255.5579914418572L654.0596260681305,255.63821806414762L654.1216508913758,255.79877291754292L654.0665497693299,255.94913803433292L654.1009519096651,256.12973892368746L654.3558306600708,256.2901749022026L654.4178554833152,256.4305526700382L654.3076532392242,256.85177016677926L654.369605940582,257.0423156885936L654.5625319896299,257.16262378761894L654.583158849453,257.22277688268423L654.534548697281,257.43545968752096L654.535919013143,257.6690236928839L654.5367123539063,257.81199162311714L654.6968229441436,258.01992901864105L654.9586253957477,258.03997709867053L655.1555902704958,258.39285372377026L655.2479784083762,258.46097045615215L655.3030795304221,258.56120237718415L655.2617536888874,258.90208264558123L655.3030795304221,259.03242616691296L655.5786572625384,259.2027497936683L655.6750842261181,259.3130429030248L655.6543852444074,259.55366545256675L655.7645874884993,259.62376203937083L655.9575135375462,259.6338357293698L656.0056909583936,259.69396269555773L655.9368145558356,260.03467016784L655.9575135375462,260.185028263767L656.0401652206156,260.30526991086845L656.2881923917093,260.3653897814979L656.4121699163115,260.54585049928755L656.5568464226262,261.3975058736878L656.3983946357994,261.94863248686215L656.2881923917093,262.03873356989243L656.2399428489744,262.2191412297002L656.2881923917093,262.3994382877654L656.3846193552881,262.5396653842895L656.5499227214259,262.9303322308415L656.5636980019372,263.060583511603L656.4190214956234,263.4612815248547L656.6187991239822,263.6115491158066L656.6739723679166,263.7416799515531L656.6601970874044,263.8118298288132L656.5155205810916,263.9420609411768L656.5085968798921,264.00214240661035L656.5155205810916,264.0721842220232L656.7083745082518,264.2725535789318L656.7152982094512,264.4527856100585L656.5636980019372,264.6831262121159L656.5636980019372,264.85338564672884L656.7310929028126,265.26957723903433L656.9867649939797,265.6095318279922L657.0637190479365,266.4645175351325L657.1546647480664,266.90029388947323L656.9804903897675,267.3312164565359L657.1733443169278,267.651452967365L657.1733443169278,267.7915507797061L657.0425152130128,268.2319405355561L657.2013997311633,268.52928652683477L657.3374937328654,268.6034634462794L657.2684009646455,268.91461881419445L657.0355915118143,269.3827865708822L657.0218162313022,269.58286443595625L657.0838410545475,269.782935275678L657.2009669998388,269.8930236158626L657.2353691401731,270.003109829192L657.1457937559044,270.26318137032285L657.1389421765925,270.3932650580523L657.2285175608613,270.5232410427211L657.8205661353031,270.78140372734924L657.8347020252513,271.02342716874L657.979378531566,271.1234381816971L658.1446818977029,271.1634420954879L658.2067067209482,271.2335006292933L658.2549562636823,271.30355830192957L658.2273335807713,271.45351443179607L658.2893584040166,271.66357204095175L658.5029113128876,272.03361482039327L658.6396544115769,272.16365810608886L658.6898512452735,272.5929264751344L658.6370580236271,273.1441224780724L658.423721480418,273.3486743497474L658.3961709193954,273.4385952914454L658.4512720414423,273.6885659646009L658.5270000233113,273.74854473450705L658.5614742855332,273.83856404275093L658.5761150286944,274.11761486682826L658.4658406627159,274.38409251600797L658.4167977792195,274.5983331897578L658.4581236207532,274.77823890095124L658.6441259686026,274.99822060316455L658.9127799995185,274.99822060316455L659.1057060485655,275.0881155357506L659.2228319938577,275.35800112157267L659.257234134192,275.6179331324747L659.3192589574373,275.6678462569853L659.5396634456201,275.69787763295426L659.6430141103992,275.78786617508877L659.6774883726221,276.0077043051815L659.5947645676661,276.28748603485656L659.5947645676661,276.40749291512384L659.6637130921108,276.62730716542L659.911668141317,276.61726348145066L659.9874682450727,276.6872550363296L660.021870385408,276.8471129454847L659.9874682450727,277.0170093728666L660.0080951048967,277.1469390635393L660.1734705929221,277.2868037082253L660.5592505691293,277.4066849602168L660.6041825050388,277.6353519860836L660.566102148442,277.7963339327507L660.6212032704871,277.95626536488817L660.8554551610696,278.0461136925692L661.0592716151286,277.96044925323304L661.1545446285081,278.00824995980156L661.3117703432463,278.2760101892836L661.9879130385061,279.8222888895125L661.9401683489859,280.38616955182806L662.1280458659085,281.346510028844L662.2117793772895,281.4397546027658L662.7593287471482,281.562580052238L662.7901247931068,281.8635173670141L662.9922824437535,282.33888029072796L663.3159654748297,282.58020485153565L663.6178676958816,282.6998704588309L663.631642976392,282.85956004397485L663.5627665738357,283.119046095022L663.6591935374154,283.63808731806284L663.7763194827066,283.80778172440205L664.0697113210344,283.8415319195601L664.6958014263728,283.61509877174376L664.8670909091716,283.72983159492696L664.8550465539602,283.95187172287024L664.9167828896561,284.05217878503936L665.4744293237627,284.2571758638401L665.6650474724111,284.60320928509236L665.4986622779616,284.911299298984L665.5320547118708,285.0378109343801L665.9153825439043,285.32164228599777L666.3914591232542,285.82742676159205L666.8982596266778,285.9775239463088L666.9910804958836,286.0561745498535L666.8988366017784,287.1874536053292L667.0893105066507,287.71708926511747L667.1012827399754,287.9174650362784L666.8757575977797,288.7979283450004L666.9543704551488,289.1866964346823L667.0347142378187,289.3143661161603L667.0691163781521,289.4639541917086L666.9520625547484,289.81290822458595L667.0209389573065,289.97239911575616L667.1925169276556,290.0810549558437L667.2567775294137,290.2169501314447L667.2551187260005,290.68024281308726L667.103590640374,290.9892576756838L667.0622647988403,291.1686476994446L667.0898153598628,291.30816938228327L667.2977427615087,291.66201950533696L667.3334430958184,291.8241717554556L667.2030467232298,292.57769156988707L667.0396906480546,293.017112013129L666.993388396284,293.18172949713653L667.0553410976408,293.3312164280437L667.2688940065118,293.4109133764241L667.3653930919791,293.5803178603819L667.4342694945371,293.74961301864505L667.4273457933377,293.9290207798449L667.3653930919791,294.09840992000136L667.3929436530025,294.2676897452311L667.5169211776047,294.36729444865614L667.6271234216974,294.42716073435986L667.6684492632321,294.49683011776597L667.6891482449419,294.586522984795L667.6684492632321,294.666202445248L667.6202718423847,294.73597320801946L667.5237727569165,294.8554888602639L667.3896981680655,294.9333916977944L667.1095046351493,295.16459106208276L667.0715685223267,295.31955302003234L667.1505419891337,296.76812961322867L667.2861311376237,297.5899005977144L667.5759168815757,297.76366351699335L667.9298911053984,298.6257289431137L668.0629559878262,299.2019302472054L668.1009642225345,299.22568988066996L668.1579405136554,299.5495613667631L668.1081764112841,299.8615360721551L668.0607923312,299.9471854719968L667.861375312279,300.1523428753608L667.8592116556547,300.50908461330346L667.7975474418463,300.73297454510293L667.7993504890337,301.19718747969546L667.8751505927903,301.36636165290474L667.8957774526143,301.45594693745943L667.8820021721021,301.6151136141816L667.8682268915909,301.73448571882864L667.8682268915909,301.85395949633084L667.8820021721021,301.9335378571368L667.9302517148371,302.02301011251257L668.0090088159805,302.0225934812661L668.0920932303725,302.04196680207815L668.1765479606293,302.35120196054504L668.1437325018196,302.4127553668254L668.2126810262644,302.6895812911521L668.3779843924021,302.86860492892265L668.5158093194032,302.978057579066L668.5639867402497,303.2167424992854L668.5810796275864,303.53393228715686L668.3868553845632,304.73786487007874L668.4557317871204,305.11607841682144L668.6051683380083,305.39194098201006L668.7924688798321,305.57983222071925L669.1908701863513,306.5644689503233L669.1316581167184,307.25642372292896L669.0337165935007,307.3934726836733L669.135841186192,307.5978433316641L669.6392519609044,308.03944219314235L669.6559842388033,308.378838369234L669.3596354030888,308.5348997632309L669.4459653024187,308.82485055533516L669.6297318717543,309.2376436086852L669.9187963968325,309.5466987925288L670.0064244901378,309.8152751287739L670.0987405061305,310.357174368296L670.1223243633422,311.4337481608968L670.254884392556,311.7355103130699L669.9966159134392,312.97088507209946L669.9989959357272,313.0682939012195L670.1031399412677,313.3010496039701L670.0817918625708,313.72620201555037L669.9112957205343,314.40783542507006L669.7905636808673,314.70476446200064L669.4047115827725,315.1203561708562L668.8746878315751,316.5236261950022L668.5648522029005,317.6701979897766L668.6099283825833,318.0144261020264L668.8299722613292,318.74301229676166L668.7142166319009,319.6304850867841L668.8443966388277,320.0006575808138L668.8775005851876,320.22129603716985L668.9584213429562,321.54308037571354L668.9655614098192,322.51315049864525L669.1122573289822,324.23948271546215L669.5123174389146,325.6136610071517L669.7047386347485,325.88656944876357L669.7625082666318,326.10055131003674L669.6766110986264,326.98917022029036Z" class="state" fill="coral" stroke="#111" stroke-width="0.5"></path></g></svg>